G04 EAGLE Gerber RS-274X export*
G75*
%MOMM*%
%FSLAX34Y34*%
%LPD*%
%INTop Copper*%
%IPPOS*%
%AMOC8*
5,1,8,0,0,1.08239X$1,22.5*%
G01*
%ADD10C,1.000000*%
%ADD11P,1.649562X8X22.500000*%
%ADD12C,1.524000*%
%ADD13R,1.800000X1.500000*%
%ADD14R,1.500000X1.800000*%
%ADD15R,0.800000X0.800000*%
%ADD16C,0.756400*%
%ADD17C,0.812800*%
%ADD18C,1.016000*%
%ADD19C,0.508000*%
%ADD20C,0.406400*%
%ADD21C,0.304800*%

G36*
X144670Y-64618D02*
X144670Y-64618D01*
X144777Y-64622D01*
X144871Y-64606D01*
X144967Y-64600D01*
X145093Y-64569D01*
X145174Y-64556D01*
X145222Y-64538D01*
X145289Y-64521D01*
X145726Y-64375D01*
X145811Y-64399D01*
X145919Y-64407D01*
X146025Y-64425D01*
X146119Y-64422D01*
X146213Y-64429D01*
X146320Y-64415D01*
X146428Y-64411D01*
X146519Y-64390D01*
X146612Y-64378D01*
X146715Y-64344D01*
X146820Y-64319D01*
X146905Y-64280D01*
X146994Y-64250D01*
X147088Y-64196D01*
X147186Y-64151D01*
X147206Y-64136D01*
X148059Y-64136D01*
X148079Y-64134D01*
X148385Y-64110D01*
X149236Y-63972D01*
X149317Y-64009D01*
X149421Y-64034D01*
X149524Y-64068D01*
X149617Y-64080D01*
X149708Y-64102D01*
X149816Y-64106D01*
X149923Y-64120D01*
X150017Y-64113D01*
X150111Y-64117D01*
X150217Y-64099D01*
X150324Y-64091D01*
X150415Y-64067D01*
X150508Y-64051D01*
X150609Y-64013D01*
X150713Y-63984D01*
X150735Y-63973D01*
X151572Y-64109D01*
X151573Y-64109D01*
X151577Y-64110D01*
X151596Y-64111D01*
X151903Y-64136D01*
X152803Y-64136D01*
X152903Y-64195D01*
X152947Y-64211D01*
X152989Y-64233D01*
X153137Y-64277D01*
X153283Y-64328D01*
X153330Y-64334D01*
X153374Y-64347D01*
X153529Y-64361D01*
X153682Y-64382D01*
X153729Y-64380D01*
X153775Y-64384D01*
X153930Y-64367D01*
X154084Y-64357D01*
X154129Y-64345D01*
X154176Y-64340D01*
X154324Y-64294D01*
X154473Y-64254D01*
X154521Y-64231D01*
X154560Y-64219D01*
X154635Y-64177D01*
X154773Y-64112D01*
X278732Y7440D01*
X278857Y7529D01*
X278986Y7613D01*
X279021Y7647D01*
X279059Y7675D01*
X279164Y7787D01*
X279274Y7895D01*
X279301Y7934D01*
X279334Y7969D01*
X279414Y8101D01*
X279501Y8228D01*
X279519Y8272D01*
X279544Y8312D01*
X279598Y8457D01*
X279657Y8599D01*
X279667Y8646D01*
X279683Y8690D01*
X279707Y8842D01*
X279738Y8993D01*
X279738Y9041D01*
X279745Y9088D01*
X279742Y9166D01*
X280182Y9926D01*
X280184Y9930D01*
X280192Y9947D01*
X280325Y10226D01*
X280632Y11033D01*
X280700Y11081D01*
X280774Y11159D01*
X280856Y11230D01*
X280913Y11305D01*
X280977Y11373D01*
X281035Y11464D01*
X281100Y11550D01*
X281141Y11634D01*
X281191Y11714D01*
X281230Y11815D01*
X281277Y11912D01*
X281301Y12003D01*
X281334Y12090D01*
X281351Y12197D01*
X281379Y12301D01*
X281380Y12322D01*
X281918Y12979D01*
X281921Y12983D01*
X281931Y12997D01*
X282107Y13252D01*
X282540Y13999D01*
X282615Y14036D01*
X282701Y14101D01*
X282792Y14158D01*
X282861Y14223D01*
X282935Y14279D01*
X283007Y14360D01*
X283085Y14434D01*
X283139Y14511D01*
X283201Y14582D01*
X283255Y14675D01*
X283317Y14763D01*
X283355Y14849D01*
X283402Y14931D01*
X283437Y15033D01*
X283480Y15131D01*
X283487Y15163D01*
X283533Y15201D01*
X283545Y15215D01*
X283569Y15236D01*
X283638Y15325D01*
X283715Y15408D01*
X283761Y15484D01*
X283773Y15499D01*
X283785Y15514D01*
X283786Y15516D01*
X283816Y15554D01*
X283866Y15655D01*
X283925Y15751D01*
X283956Y15835D01*
X283995Y15915D01*
X284025Y16024D01*
X284063Y16129D01*
X284077Y16217D01*
X284100Y16304D01*
X284111Y16444D01*
X284124Y16527D01*
X284122Y16574D01*
X284127Y16635D01*
X284127Y56642D01*
X284125Y56660D01*
X284127Y56678D01*
X284105Y56860D01*
X284087Y57043D01*
X284082Y57060D01*
X284080Y57077D01*
X284023Y57252D01*
X283969Y57428D01*
X283960Y57443D01*
X283955Y57460D01*
X283865Y57620D01*
X283777Y57782D01*
X283766Y57795D01*
X283757Y57811D01*
X283637Y57950D01*
X283519Y58091D01*
X283506Y58102D01*
X283494Y58116D01*
X283349Y58228D01*
X283206Y58343D01*
X283190Y58351D01*
X283176Y58362D01*
X283011Y58444D01*
X282848Y58529D01*
X282831Y58534D01*
X282815Y58542D01*
X282637Y58589D01*
X282461Y58640D01*
X282444Y58642D01*
X282426Y58646D01*
X282096Y58673D01*
X255821Y58673D01*
X255794Y58671D01*
X255767Y58673D01*
X255594Y58651D01*
X255420Y58633D01*
X255395Y58626D01*
X255368Y58622D01*
X255202Y58566D01*
X255035Y58515D01*
X255012Y58502D01*
X254986Y58494D01*
X254835Y58407D01*
X254681Y58323D01*
X254661Y58306D01*
X254637Y58293D01*
X254436Y58122D01*
X252088Y57149D01*
X240831Y57149D01*
X238496Y58116D01*
X236424Y60188D01*
X235246Y61367D01*
X235225Y61384D01*
X235207Y61404D01*
X235070Y61511D01*
X234934Y61622D01*
X234911Y61634D01*
X234889Y61651D01*
X234732Y61729D01*
X234578Y61811D01*
X234553Y61818D01*
X234529Y61830D01*
X234359Y61876D01*
X234193Y61925D01*
X234166Y61928D01*
X234140Y61935D01*
X233809Y61962D01*
X229337Y61962D01*
X229319Y61960D01*
X229301Y61961D01*
X229119Y61940D01*
X228936Y61922D01*
X228919Y61917D01*
X228901Y61915D01*
X228727Y61858D01*
X228551Y61804D01*
X228536Y61795D01*
X228519Y61790D01*
X228358Y61699D01*
X228197Y61612D01*
X228184Y61601D01*
X228168Y61592D01*
X228029Y61472D01*
X227888Y61354D01*
X227877Y61340D01*
X227863Y61329D01*
X227751Y61184D01*
X227636Y61040D01*
X227627Y61025D01*
X227616Y61011D01*
X227534Y60846D01*
X227450Y60683D01*
X227445Y60666D01*
X227437Y60650D01*
X227389Y60472D01*
X227339Y60296D01*
X227337Y60278D01*
X227333Y60261D01*
X227305Y59931D01*
X227305Y59865D01*
X225966Y58526D01*
X206072Y58526D01*
X204732Y59865D01*
X204732Y76930D01*
X204792Y77043D01*
X204797Y77060D01*
X204805Y77077D01*
X204855Y77254D01*
X204907Y77429D01*
X204909Y77447D01*
X204913Y77464D01*
X204927Y77647D01*
X204943Y77830D01*
X204941Y77848D01*
X204943Y77866D01*
X204920Y78047D01*
X204900Y78231D01*
X204895Y78248D01*
X204892Y78265D01*
X204834Y78439D01*
X204778Y78614D01*
X204770Y78630D01*
X204764Y78647D01*
X204732Y78703D01*
X204732Y95760D01*
X206072Y97099D01*
X225966Y97099D01*
X227305Y95760D01*
X227305Y95694D01*
X227307Y95677D01*
X227306Y95659D01*
X227327Y95477D01*
X227345Y95294D01*
X227351Y95277D01*
X227353Y95259D01*
X227410Y95085D01*
X227464Y94909D01*
X227472Y94893D01*
X227478Y94876D01*
X227568Y94716D01*
X227655Y94555D01*
X227667Y94541D01*
X227675Y94526D01*
X227796Y94386D01*
X227913Y94246D01*
X227927Y94234D01*
X227939Y94221D01*
X228084Y94108D01*
X228227Y93993D01*
X228243Y93985D01*
X228257Y93974D01*
X228422Y93892D01*
X228584Y93808D01*
X228601Y93803D01*
X228617Y93795D01*
X228795Y93747D01*
X228971Y93696D01*
X228989Y93695D01*
X229006Y93690D01*
X229337Y93663D01*
X231478Y93663D01*
X231505Y93666D01*
X231531Y93664D01*
X231705Y93686D01*
X231879Y93703D01*
X231904Y93711D01*
X231931Y93714D01*
X232096Y93770D01*
X232264Y93821D01*
X232287Y93834D01*
X232312Y93843D01*
X232464Y93930D01*
X232618Y94013D01*
X232638Y94030D01*
X232661Y94043D01*
X232914Y94258D01*
X236424Y97768D01*
X238496Y99840D01*
X240831Y100807D01*
X252088Y100807D01*
X254422Y99840D01*
X256209Y98054D01*
X257176Y95719D01*
X257176Y93193D01*
X256209Y90859D01*
X254422Y89072D01*
X252088Y88106D01*
X245566Y88106D01*
X245539Y88103D01*
X245512Y88105D01*
X245338Y88083D01*
X245165Y88066D01*
X245140Y88058D01*
X245113Y88054D01*
X244947Y87999D01*
X244780Y87947D01*
X244757Y87935D01*
X244731Y87926D01*
X244580Y87839D01*
X244426Y87756D01*
X244406Y87739D01*
X244382Y87725D01*
X244129Y87511D01*
X240620Y84001D01*
X238547Y81929D01*
X236213Y80962D01*
X229337Y80962D01*
X229319Y80960D01*
X229301Y80961D01*
X229119Y80940D01*
X228936Y80922D01*
X228919Y80917D01*
X228901Y80915D01*
X228727Y80858D01*
X228551Y80804D01*
X228536Y80795D01*
X228519Y80790D01*
X228358Y80699D01*
X228197Y80612D01*
X228184Y80601D01*
X228168Y80592D01*
X228029Y80472D01*
X227888Y80354D01*
X227877Y80340D01*
X227863Y80329D01*
X227751Y80184D01*
X227636Y80040D01*
X227627Y80025D01*
X227616Y80011D01*
X227534Y79846D01*
X227450Y79683D01*
X227445Y79666D01*
X227437Y79650D01*
X227389Y79472D01*
X227339Y79296D01*
X227337Y79278D01*
X227333Y79261D01*
X227305Y78931D01*
X227305Y78695D01*
X227245Y78582D01*
X227240Y78565D01*
X227232Y78549D01*
X227183Y78371D01*
X227131Y78196D01*
X227129Y78178D01*
X227124Y78161D01*
X227111Y77976D01*
X227094Y77795D01*
X227096Y77777D01*
X227095Y77759D01*
X227118Y77577D01*
X227137Y77395D01*
X227143Y77377D01*
X227145Y77360D01*
X227204Y77186D01*
X227259Y77011D01*
X227268Y76995D01*
X227273Y76978D01*
X227305Y76922D01*
X227305Y76694D01*
X227307Y76677D01*
X227306Y76659D01*
X227327Y76477D01*
X227345Y76294D01*
X227351Y76277D01*
X227353Y76259D01*
X227410Y76085D01*
X227464Y75909D01*
X227472Y75893D01*
X227478Y75876D01*
X227568Y75716D01*
X227655Y75555D01*
X227667Y75541D01*
X227675Y75526D01*
X227796Y75386D01*
X227913Y75246D01*
X227927Y75234D01*
X227939Y75221D01*
X228084Y75108D01*
X228227Y74993D01*
X228243Y74985D01*
X228257Y74974D01*
X228422Y74892D01*
X228584Y74808D01*
X228601Y74803D01*
X228617Y74795D01*
X228795Y74747D01*
X228971Y74696D01*
X228989Y74695D01*
X229006Y74690D01*
X229337Y74663D01*
X238544Y74663D01*
X240879Y73696D01*
X242951Y71624D01*
X244129Y70446D01*
X244150Y70429D01*
X244168Y70408D01*
X244305Y70301D01*
X244441Y70191D01*
X244464Y70178D01*
X244486Y70162D01*
X244643Y70084D01*
X244797Y70002D01*
X244822Y69994D01*
X244846Y69982D01*
X245016Y69937D01*
X245182Y69887D01*
X245209Y69885D01*
X245235Y69878D01*
X245566Y69851D01*
X252088Y69851D01*
X254425Y68883D01*
X254561Y68777D01*
X254696Y68667D01*
X254720Y68654D01*
X254741Y68638D01*
X254897Y68560D01*
X255052Y68478D01*
X255077Y68470D01*
X255101Y68458D01*
X255271Y68413D01*
X255438Y68363D01*
X255464Y68361D01*
X255490Y68354D01*
X255821Y68327D01*
X282096Y68327D01*
X282114Y68329D01*
X282131Y68327D01*
X282314Y68348D01*
X282496Y68367D01*
X282513Y68372D01*
X282531Y68374D01*
X282706Y68431D01*
X282881Y68485D01*
X282897Y68493D01*
X282914Y68499D01*
X283074Y68589D01*
X283235Y68677D01*
X283249Y68688D01*
X283265Y68697D01*
X283404Y68817D01*
X283545Y68934D01*
X283556Y68948D01*
X283569Y68960D01*
X283682Y69105D01*
X283797Y69248D01*
X283805Y69264D01*
X283816Y69278D01*
X283898Y69443D01*
X283982Y69605D01*
X283987Y69622D01*
X283995Y69638D01*
X284043Y69817D01*
X284094Y69992D01*
X284095Y70010D01*
X284100Y70027D01*
X284127Y70358D01*
X284127Y157990D01*
X284118Y158079D01*
X284119Y158169D01*
X284098Y158279D01*
X284087Y158391D01*
X284061Y158477D01*
X284044Y158564D01*
X284002Y158668D01*
X283969Y158776D01*
X283926Y158855D01*
X283893Y158937D01*
X283831Y159031D01*
X283777Y159130D01*
X283720Y159199D01*
X283671Y159273D01*
X283573Y159375D01*
X283519Y159439D01*
X283483Y159468D01*
X283480Y159472D01*
X283457Y159561D01*
X283410Y159658D01*
X283372Y159759D01*
X283322Y159838D01*
X283281Y159923D01*
X283216Y160009D01*
X283159Y160100D01*
X283094Y160169D01*
X283037Y160243D01*
X282957Y160315D01*
X282883Y160393D01*
X282806Y160447D01*
X282735Y160509D01*
X282642Y160563D01*
X282554Y160626D01*
X282535Y160634D01*
X282107Y161373D01*
X282095Y161391D01*
X281921Y161642D01*
X281374Y162310D01*
X281366Y162394D01*
X281336Y162497D01*
X281314Y162603D01*
X281278Y162690D01*
X281251Y162780D01*
X281200Y162874D01*
X281159Y162974D01*
X281106Y163052D01*
X281062Y163135D01*
X280993Y163218D01*
X280933Y163308D01*
X280866Y163373D01*
X280806Y163446D01*
X280723Y163514D01*
X280646Y163590D01*
X280629Y163601D01*
X280325Y164399D01*
X280316Y164417D01*
X280184Y164695D01*
X279752Y165442D01*
X279757Y165526D01*
X279743Y165632D01*
X279739Y165740D01*
X279717Y165832D01*
X279705Y165925D01*
X279671Y166027D01*
X279645Y166132D01*
X279606Y166217D01*
X279576Y166306D01*
X279521Y166399D01*
X279476Y166497D01*
X279420Y166573D01*
X279373Y166654D01*
X279302Y166735D01*
X279238Y166822D01*
X279223Y166835D01*
X279177Y167057D01*
X279151Y167140D01*
X279135Y167225D01*
X279092Y167331D01*
X279058Y167441D01*
X279016Y167517D01*
X278983Y167598D01*
X278920Y167694D01*
X278864Y167794D01*
X278809Y167861D01*
X278760Y167933D01*
X278679Y168015D01*
X278605Y168102D01*
X278537Y168157D01*
X278476Y168218D01*
X278357Y168300D01*
X278291Y168354D01*
X278251Y168374D01*
X278203Y168407D01*
X156085Y238896D01*
X156004Y238932D01*
X155929Y238977D01*
X155821Y239015D01*
X155718Y239062D01*
X155632Y239082D01*
X155549Y239111D01*
X155436Y239126D01*
X155325Y239152D01*
X155237Y239154D01*
X155150Y239167D01*
X155037Y239160D01*
X154923Y239163D01*
X154836Y239148D01*
X154748Y239143D01*
X154610Y239109D01*
X154526Y239094D01*
X154484Y239078D01*
X154426Y239064D01*
X154237Y239000D01*
X154151Y239024D01*
X154044Y239032D01*
X153937Y239050D01*
X153843Y239047D01*
X153749Y239054D01*
X153642Y239040D01*
X153535Y239036D01*
X153443Y239015D01*
X153350Y239003D01*
X153248Y238969D01*
X153143Y238944D01*
X153057Y238905D01*
X152968Y238875D01*
X152875Y238821D01*
X152777Y238776D01*
X152757Y238761D01*
X151903Y238761D01*
X151884Y238759D01*
X151577Y238735D01*
X150726Y238597D01*
X150646Y238634D01*
X150541Y238659D01*
X150439Y238693D01*
X150346Y238705D01*
X150254Y238727D01*
X150146Y238731D01*
X150040Y238745D01*
X149946Y238738D01*
X149852Y238742D01*
X149746Y238724D01*
X149638Y238716D01*
X149547Y238691D01*
X149455Y238676D01*
X149354Y238638D01*
X149250Y238609D01*
X149227Y238598D01*
X148390Y238734D01*
X148385Y238735D01*
X148366Y238736D01*
X148059Y238761D01*
X147197Y238761D01*
X147124Y238811D01*
X147024Y238852D01*
X146929Y238903D01*
X146839Y238930D01*
X146752Y238966D01*
X146646Y238987D01*
X146543Y239018D01*
X146449Y239026D01*
X146357Y239045D01*
X146249Y239044D01*
X146142Y239054D01*
X146048Y239044D01*
X145954Y239044D01*
X145849Y239022D01*
X145742Y239011D01*
X145718Y239003D01*
X145439Y239096D01*
X145346Y239117D01*
X145256Y239148D01*
X145150Y239162D01*
X145047Y239185D01*
X144951Y239187D01*
X144856Y239200D01*
X144750Y239192D01*
X144644Y239195D01*
X144550Y239178D01*
X144455Y239172D01*
X144352Y239144D01*
X144248Y239125D01*
X144159Y239090D01*
X144066Y239065D01*
X143949Y239008D01*
X143873Y238979D01*
X143829Y238951D01*
X143767Y238921D01*
X21385Y167039D01*
X21344Y167009D01*
X21299Y166986D01*
X21182Y166891D01*
X21060Y166802D01*
X21026Y166764D01*
X20986Y166732D01*
X20890Y166616D01*
X20788Y166505D01*
X20762Y166461D01*
X20729Y166422D01*
X20658Y166290D01*
X20639Y166258D01*
X20557Y166195D01*
X20519Y166152D01*
X20475Y166114D01*
X20387Y166001D01*
X20292Y165892D01*
X20263Y165842D01*
X20228Y165796D01*
X20132Y165612D01*
X20092Y165543D01*
X20086Y165524D01*
X20075Y165501D01*
X20031Y165397D01*
X20013Y165341D01*
X19989Y165288D01*
X19954Y165149D01*
X19912Y165012D01*
X19906Y164954D01*
X19892Y164898D01*
X19886Y164754D01*
X19872Y164612D01*
X19873Y164598D01*
X19602Y164170D01*
X19513Y163994D01*
X19424Y163818D01*
X19423Y163814D01*
X19421Y163811D01*
X19368Y163618D01*
X19316Y163430D01*
X19316Y163426D01*
X19315Y163422D01*
X19301Y163224D01*
X19287Y163029D01*
X19287Y163025D01*
X19287Y163021D01*
X19312Y162825D01*
X19337Y162629D01*
X19338Y162625D01*
X19339Y162621D01*
X19404Y162430D01*
X19465Y162247D01*
X19467Y162244D01*
X19468Y162240D01*
X19568Y162068D01*
X19666Y161899D01*
X19669Y161895D01*
X19671Y161892D01*
X19690Y161870D01*
X19881Y161646D01*
X28019Y153507D01*
X28040Y153490D01*
X28057Y153470D01*
X28195Y153363D01*
X28330Y153252D01*
X28354Y153240D01*
X28375Y153223D01*
X28532Y153145D01*
X28686Y153064D01*
X28712Y153056D01*
X28736Y153044D01*
X28905Y152999D01*
X29072Y152949D01*
X29099Y152947D01*
X29125Y152940D01*
X29455Y152912D01*
X29782Y152912D01*
X32013Y151989D01*
X33720Y150281D01*
X34644Y148051D01*
X34644Y145637D01*
X33720Y143406D01*
X32013Y141699D01*
X29782Y140775D01*
X27368Y140775D01*
X25137Y141699D01*
X23430Y143406D01*
X22506Y145637D01*
X22506Y145963D01*
X22504Y145990D01*
X22506Y146017D01*
X22484Y146191D01*
X22466Y146364D01*
X22459Y146390D01*
X22455Y146416D01*
X22400Y146582D01*
X22348Y146749D01*
X22335Y146773D01*
X22327Y146798D01*
X22240Y146950D01*
X22156Y147103D01*
X22139Y147124D01*
X22126Y147147D01*
X21911Y147400D01*
X14217Y155094D01*
X14138Y155159D01*
X14065Y155231D01*
X13983Y155286D01*
X13906Y155349D01*
X13815Y155397D01*
X13730Y155454D01*
X13638Y155491D01*
X13550Y155537D01*
X13452Y155567D01*
X13357Y155605D01*
X13259Y155624D01*
X13164Y155652D01*
X13062Y155662D01*
X12961Y155681D01*
X12862Y155680D01*
X12763Y155689D01*
X12661Y155678D01*
X12559Y155677D01*
X12462Y155656D01*
X12363Y155645D01*
X12265Y155614D01*
X12165Y155593D01*
X12074Y155554D01*
X11979Y155524D01*
X11889Y155474D01*
X11795Y155433D01*
X11696Y155367D01*
X11627Y155329D01*
X11583Y155292D01*
X11519Y155249D01*
X11296Y155072D01*
X11272Y155068D01*
X11214Y155065D01*
X11074Y155031D01*
X10933Y155005D01*
X10879Y154984D01*
X10823Y154970D01*
X10634Y154885D01*
X10560Y154855D01*
X10543Y154844D01*
X10520Y154834D01*
X10420Y154779D01*
X10372Y154746D01*
X10320Y154721D01*
X10207Y154633D01*
X10089Y154551D01*
X10048Y154510D01*
X10002Y154474D01*
X9908Y154365D01*
X9808Y154262D01*
X9801Y154251D01*
X9029Y153982D01*
X9025Y153980D01*
X9021Y153979D01*
X8719Y153844D01*
X8000Y153449D01*
X7976Y153448D01*
X7918Y153456D01*
X7775Y153445D01*
X7631Y153443D01*
X7575Y153431D01*
X7517Y153427D01*
X7316Y153375D01*
X7238Y153358D01*
X7220Y153350D01*
X7195Y153344D01*
X7088Y153306D01*
X7035Y153282D01*
X6979Y153265D01*
X6853Y153197D01*
X6723Y153137D01*
X6676Y153102D01*
X6624Y153075D01*
X6514Y152984D01*
X6398Y152899D01*
X6389Y152888D01*
X5583Y152752D01*
X5579Y152751D01*
X5575Y152751D01*
X5254Y152667D01*
X4479Y152398D01*
X4455Y152401D01*
X4399Y152418D01*
X4257Y152432D01*
X4115Y152454D01*
X4057Y152451D01*
X3999Y152457D01*
X3793Y152439D01*
X3713Y152435D01*
X3693Y152430D01*
X3668Y152428D01*
X3556Y152409D01*
X3500Y152394D01*
X3442Y152387D01*
X3306Y152341D01*
X3168Y152303D01*
X3116Y152277D01*
X3061Y152258D01*
X2936Y152187D01*
X2808Y152122D01*
X2797Y152114D01*
X1980Y152114D01*
X1976Y152113D01*
X1972Y152114D01*
X1641Y152085D01*
X832Y151948D01*
X810Y151956D01*
X757Y151982D01*
X619Y152019D01*
X483Y152064D01*
X425Y152071D01*
X369Y152087D01*
X163Y152104D01*
X83Y152113D01*
X63Y152112D01*
X38Y152114D01*
X-75Y152114D01*
X-133Y152108D01*
X-192Y152110D01*
X-333Y152088D01*
X-476Y152074D01*
X-532Y152057D01*
X-589Y152048D01*
X-724Y151998D01*
X-861Y151956D01*
X-873Y151949D01*
X-1679Y152085D01*
X-1683Y152086D01*
X-1687Y152087D01*
X-2018Y152114D01*
X-2838Y152114D01*
X-2859Y152125D01*
X-2906Y152159D01*
X-3037Y152219D01*
X-3163Y152286D01*
X-3219Y152303D01*
X-3272Y152327D01*
X-3473Y152378D01*
X-3549Y152401D01*
X-3569Y152403D01*
X-3594Y152409D01*
X-3706Y152428D01*
X-3764Y152432D01*
X-3821Y152444D01*
X-3964Y152446D01*
X-4107Y152456D01*
X-4165Y152448D01*
X-4223Y152449D01*
X-4364Y152422D01*
X-4506Y152403D01*
X-4520Y152399D01*
X-5291Y152667D01*
X-5295Y152668D01*
X-5299Y152670D01*
X-5621Y152752D01*
X-6429Y152889D01*
X-6449Y152903D01*
X-6489Y152945D01*
X-6608Y153026D01*
X-6722Y153113D01*
X-6774Y153139D01*
X-6822Y153172D01*
X-7011Y153256D01*
X-7083Y153291D01*
X-7102Y153296D01*
X-7125Y153306D01*
X-7232Y153343D01*
X-7289Y153357D01*
X-7343Y153379D01*
X-7485Y153404D01*
X-7624Y153438D01*
X-7682Y153440D01*
X-7740Y153450D01*
X-7883Y153447D01*
X-8026Y153453D01*
X-8040Y153450D01*
X-8756Y153844D01*
X-8760Y153846D01*
X-8763Y153848D01*
X-9067Y153982D01*
X-9841Y154252D01*
X-9858Y154270D01*
X-9891Y154317D01*
X-9995Y154417D01*
X-10092Y154522D01*
X-10139Y154556D01*
X-10181Y154596D01*
X-10354Y154711D01*
X-10419Y154757D01*
X-10437Y154766D01*
X-10458Y154779D01*
X-10557Y154834D01*
X-10611Y154857D01*
X-10661Y154887D01*
X-10796Y154936D01*
X-10927Y154992D01*
X-10985Y155004D01*
X-11040Y155024D01*
X-11181Y155045D01*
X-11322Y155074D01*
X-11336Y155074D01*
X-11976Y155582D01*
X-11980Y155584D01*
X-11983Y155587D01*
X-12259Y155770D01*
X-12978Y156165D01*
X-12991Y156185D01*
X-13016Y156238D01*
X-13102Y156353D01*
X-13180Y156473D01*
X-13221Y156515D01*
X-13256Y156562D01*
X-13406Y156702D01*
X-13463Y156760D01*
X-13480Y156771D01*
X-13498Y156788D01*
X-13587Y156859D01*
X-13636Y156890D01*
X-13680Y156928D01*
X-13805Y156999D01*
X-13926Y157076D01*
X-13980Y157097D01*
X-14031Y157126D01*
X-14167Y157170D01*
X-14301Y157223D01*
X-14315Y157225D01*
X-14861Y157832D01*
X-14864Y157835D01*
X-14867Y157838D01*
X-15109Y158065D01*
X-15752Y158574D01*
X-15762Y158596D01*
X-15777Y158652D01*
X-15842Y158780D01*
X-15900Y158912D01*
X-15933Y158959D01*
X-15960Y159011D01*
X-16085Y159176D01*
X-16131Y159242D01*
X-16146Y159255D01*
X-16161Y159275D01*
X-16237Y159360D01*
X-16280Y159399D01*
X-16317Y159444D01*
X-16428Y159534D01*
X-16534Y159631D01*
X-16584Y159661D01*
X-16630Y159697D01*
X-16757Y159764D01*
X-16880Y159838D01*
X-16893Y159842D01*
X-17331Y160532D01*
X-17333Y160536D01*
X-17335Y160539D01*
X-17536Y160803D01*
X-18085Y161413D01*
X-18091Y161436D01*
X-18097Y161494D01*
X-18140Y161631D01*
X-18175Y161770D01*
X-18200Y161823D01*
X-18217Y161878D01*
X-18313Y162061D01*
X-18348Y162134D01*
X-18360Y162150D01*
X-18371Y162172D01*
X-18432Y162268D01*
X-18468Y162314D01*
X-18497Y162364D01*
X-18592Y162472D01*
X-18680Y162585D01*
X-18725Y162623D01*
X-18763Y162666D01*
X-18877Y162753D01*
X-18986Y162846D01*
X-18999Y162853D01*
X-19315Y163606D01*
X-19317Y163610D01*
X-19319Y163614D01*
X-19473Y163908D01*
X-19912Y164600D01*
X-19914Y164624D01*
X-19911Y164682D01*
X-19930Y164825D01*
X-19941Y164968D01*
X-19957Y165024D01*
X-19965Y165081D01*
X-20029Y165278D01*
X-20051Y165355D01*
X-20060Y165373D01*
X-20068Y165397D01*
X-20112Y165501D01*
X-20140Y165553D01*
X-20160Y165607D01*
X-20236Y165729D01*
X-20304Y165855D01*
X-20341Y165900D01*
X-20372Y165950D01*
X-20470Y166054D01*
X-20562Y166164D01*
X-20573Y166173D01*
X-20759Y166968D01*
X-20761Y166972D01*
X-20761Y166976D01*
X-20865Y167292D01*
X-21017Y167654D01*
X-21074Y167759D01*
X-21122Y167869D01*
X-21170Y167935D01*
X-21209Y168007D01*
X-21286Y168100D01*
X-21355Y168197D01*
X-21414Y168254D01*
X-21467Y168316D01*
X-21560Y168392D01*
X-21648Y168474D01*
X-21728Y168526D01*
X-21781Y168568D01*
X-21842Y168600D01*
X-21926Y168655D01*
X-47749Y182566D01*
X-47865Y182614D01*
X-47976Y182671D01*
X-48050Y182692D01*
X-48121Y182721D01*
X-48244Y182746D01*
X-48364Y182779D01*
X-48441Y182785D01*
X-48516Y182800D01*
X-48641Y182799D01*
X-48766Y182809D01*
X-48842Y182799D01*
X-48918Y182799D01*
X-49041Y182774D01*
X-49165Y182758D01*
X-49238Y182734D01*
X-49313Y182719D01*
X-49428Y182670D01*
X-49547Y182630D01*
X-49613Y182592D01*
X-49684Y182562D01*
X-49787Y182492D01*
X-49896Y182429D01*
X-49964Y182371D01*
X-50016Y182335D01*
X-50067Y182283D01*
X-50149Y182214D01*
X-55721Y176642D01*
X-57721Y175814D01*
X-57748Y175799D01*
X-57778Y175789D01*
X-57925Y175704D01*
X-58076Y175624D01*
X-58100Y175604D01*
X-58127Y175588D01*
X-58380Y175374D01*
X-61326Y172427D01*
X-63684Y170069D01*
X-66392Y168948D01*
X-97019Y168948D01*
X-99726Y170069D01*
X-102084Y172427D01*
X-105971Y176314D01*
X-108329Y178672D01*
X-109439Y181353D01*
X-109454Y181380D01*
X-109464Y181410D01*
X-109549Y181557D01*
X-109630Y181707D01*
X-109649Y181731D01*
X-109665Y181759D01*
X-109880Y182012D01*
X-116442Y188574D01*
X-117563Y191281D01*
X-117563Y219779D01*
X-117564Y219783D01*
X-117564Y219785D01*
X-117566Y219801D01*
X-117566Y219802D01*
X-117564Y219826D01*
X-117586Y220002D01*
X-117603Y220179D01*
X-117610Y220202D01*
X-117613Y220226D01*
X-117669Y220394D01*
X-117721Y220564D01*
X-117733Y220585D01*
X-117740Y220608D01*
X-117828Y220762D01*
X-117913Y220918D01*
X-117928Y220937D01*
X-117940Y220957D01*
X-118057Y221091D01*
X-118171Y221228D01*
X-118189Y221242D01*
X-118205Y221260D01*
X-118465Y221467D01*
X-144201Y238692D01*
X-144338Y238765D01*
X-144471Y238844D01*
X-144515Y238859D01*
X-144556Y238881D01*
X-144704Y238926D01*
X-144851Y238977D01*
X-144897Y238984D01*
X-144941Y238997D01*
X-145096Y239012D01*
X-145250Y239033D01*
X-145296Y239030D01*
X-145342Y239035D01*
X-145497Y239018D01*
X-145651Y239009D01*
X-145702Y238997D01*
X-145729Y238994D01*
X-145759Y238999D01*
X-145849Y239024D01*
X-145956Y239032D01*
X-146063Y239050D01*
X-146157Y239047D01*
X-146251Y239054D01*
X-146358Y239040D01*
X-146465Y239036D01*
X-146557Y239015D01*
X-146650Y239003D01*
X-146752Y238969D01*
X-146857Y238944D01*
X-146943Y238905D01*
X-147032Y238875D01*
X-147125Y238821D01*
X-147223Y238776D01*
X-147243Y238761D01*
X-148097Y238761D01*
X-148116Y238759D01*
X-148423Y238735D01*
X-149274Y238597D01*
X-149354Y238634D01*
X-149459Y238659D01*
X-149561Y238693D01*
X-149654Y238705D01*
X-149746Y238727D01*
X-149854Y238731D01*
X-149960Y238745D01*
X-150054Y238738D01*
X-150148Y238742D01*
X-150254Y238724D01*
X-150362Y238716D01*
X-150453Y238691D01*
X-150545Y238676D01*
X-150646Y238638D01*
X-150750Y238609D01*
X-150773Y238598D01*
X-151610Y238734D01*
X-151615Y238735D01*
X-151634Y238736D01*
X-151941Y238761D01*
X-152803Y238761D01*
X-152876Y238811D01*
X-152976Y238852D01*
X-153071Y238903D01*
X-153161Y238930D01*
X-153248Y238966D01*
X-153354Y238987D01*
X-153457Y239018D01*
X-153551Y239026D01*
X-153643Y239045D01*
X-153751Y239044D01*
X-153858Y239054D01*
X-153952Y239044D01*
X-154046Y239044D01*
X-154151Y239022D01*
X-154258Y239011D01*
X-154307Y238995D01*
X-154437Y239032D01*
X-154490Y239036D01*
X-154541Y239047D01*
X-154691Y239051D01*
X-154839Y239062D01*
X-154891Y239056D01*
X-154944Y239057D01*
X-155090Y239031D01*
X-155238Y239013D01*
X-155288Y238997D01*
X-155340Y238987D01*
X-155479Y238933D01*
X-155620Y238886D01*
X-155673Y238857D01*
X-155715Y238841D01*
X-155787Y238795D01*
X-155911Y238726D01*
X-160054Y235989D01*
X-160084Y235965D01*
X-160118Y235945D01*
X-160349Y235749D01*
X-160367Y235735D01*
X-160368Y235733D01*
X-160371Y235731D01*
X-160735Y235366D01*
X-161256Y235150D01*
X-161281Y235137D01*
X-161308Y235128D01*
X-161599Y234968D01*
X-162070Y234657D01*
X-162575Y234559D01*
X-162613Y234548D01*
X-162651Y234543D01*
X-162939Y234451D01*
X-162961Y234444D01*
X-162964Y234443D01*
X-162967Y234442D01*
X-163443Y234245D01*
X-163693Y234245D01*
X-163716Y234242D01*
X-163740Y234244D01*
X-163916Y234222D01*
X-164093Y234205D01*
X-164116Y234198D01*
X-164140Y234195D01*
X-164308Y234139D01*
X-164478Y234087D01*
X-164499Y234075D01*
X-164522Y234068D01*
X-164812Y233908D01*
X-171903Y229223D01*
X-171926Y229204D01*
X-171952Y229190D01*
X-172082Y229077D01*
X-172215Y228969D01*
X-172234Y228946D01*
X-172257Y228926D01*
X-172362Y228791D01*
X-172471Y228658D01*
X-172485Y228632D01*
X-172504Y228608D01*
X-172580Y228454D01*
X-172661Y228303D01*
X-172670Y228275D01*
X-172683Y228248D01*
X-172728Y228082D01*
X-172777Y227917D01*
X-172780Y227888D01*
X-172787Y227859D01*
X-172815Y227528D01*
X-172815Y201979D01*
X-176022Y192107D01*
X-182123Y183710D01*
X-190520Y177610D01*
X-200392Y174402D01*
X-244660Y174402D01*
X-250868Y176974D01*
X-253675Y179780D01*
X-253770Y179858D01*
X-253858Y179942D01*
X-253925Y179985D01*
X-253987Y180036D01*
X-254095Y180093D01*
X-254198Y180158D01*
X-254272Y180187D01*
X-254342Y180224D01*
X-254460Y180259D01*
X-254574Y180303D01*
X-254652Y180316D01*
X-254728Y180339D01*
X-254850Y180350D01*
X-254970Y180371D01*
X-255050Y180368D01*
X-255129Y180375D01*
X-255251Y180362D01*
X-255373Y180359D01*
X-255450Y180341D01*
X-255530Y180332D01*
X-255646Y180295D01*
X-255765Y180267D01*
X-255850Y180230D01*
X-255913Y180210D01*
X-255975Y180176D01*
X-256069Y180135D01*
X-278210Y168295D01*
X-278311Y168228D01*
X-278416Y168169D01*
X-278478Y168116D01*
X-278545Y168071D01*
X-278630Y167985D01*
X-278722Y167906D01*
X-278772Y167843D01*
X-278828Y167786D01*
X-278895Y167685D01*
X-278970Y167589D01*
X-279006Y167517D01*
X-279050Y167450D01*
X-279096Y167337D01*
X-279150Y167229D01*
X-279176Y167138D01*
X-279201Y167076D01*
X-279214Y167008D01*
X-279243Y166910D01*
X-279257Y166842D01*
X-279320Y166780D01*
X-279381Y166690D01*
X-279449Y166607D01*
X-279493Y166524D01*
X-279546Y166447D01*
X-279588Y166347D01*
X-279639Y166252D01*
X-279666Y166162D01*
X-279702Y166075D01*
X-279724Y165970D01*
X-279755Y165866D01*
X-279763Y165773D01*
X-279782Y165681D01*
X-279782Y165573D01*
X-279792Y165465D01*
X-279790Y165440D01*
X-280214Y164706D01*
X-280216Y164701D01*
X-280224Y164684D01*
X-280356Y164406D01*
X-280662Y163600D01*
X-280735Y163549D01*
X-280809Y163470D01*
X-280890Y163399D01*
X-280947Y163325D01*
X-281011Y163256D01*
X-281068Y163165D01*
X-281134Y163079D01*
X-281175Y162995D01*
X-281225Y162915D01*
X-281263Y162814D01*
X-281310Y162717D01*
X-281334Y162626D01*
X-281367Y162538D01*
X-281384Y162432D01*
X-281411Y162327D01*
X-281413Y162302D01*
X-281949Y161645D01*
X-281950Y161645D01*
X-281953Y161641D01*
X-281963Y161626D01*
X-282138Y161372D01*
X-282596Y160579D01*
X-282745Y160486D01*
X-282750Y160481D01*
X-282757Y160477D01*
X-282897Y160342D01*
X-283037Y160209D01*
X-283042Y160203D01*
X-283047Y160198D01*
X-283158Y160039D01*
X-283269Y159880D01*
X-283272Y159873D01*
X-283277Y159867D01*
X-283354Y159689D01*
X-283432Y159512D01*
X-283434Y159504D01*
X-283437Y159498D01*
X-283477Y159307D01*
X-283519Y159119D01*
X-283519Y159111D01*
X-283520Y159104D01*
X-283530Y158772D01*
X-282041Y130734D01*
X-282016Y130570D01*
X-281997Y130406D01*
X-281986Y130372D01*
X-281980Y130336D01*
X-281923Y130181D01*
X-281872Y130024D01*
X-281854Y129992D01*
X-281842Y129958D01*
X-281755Y129817D01*
X-281674Y129673D01*
X-281650Y129646D01*
X-281631Y129615D01*
X-281519Y129493D01*
X-281411Y129368D01*
X-281382Y129346D01*
X-281358Y129319D01*
X-281223Y129223D01*
X-281093Y129121D01*
X-281060Y129105D01*
X-281031Y129084D01*
X-280880Y129016D01*
X-280732Y128942D01*
X-280697Y128933D01*
X-280664Y128918D01*
X-280503Y128881D01*
X-280344Y128838D01*
X-280303Y128834D01*
X-280272Y128827D01*
X-280185Y128825D01*
X-280013Y128810D01*
X-271915Y128810D01*
X-263718Y126147D01*
X-256744Y121081D01*
X-251678Y114107D01*
X-249015Y105910D01*
X-249015Y90575D01*
X-249014Y90566D01*
X-249014Y90557D01*
X-248994Y90366D01*
X-248975Y90174D01*
X-248972Y90165D01*
X-248971Y90156D01*
X-248913Y89973D01*
X-248856Y89789D01*
X-248852Y89781D01*
X-248850Y89773D01*
X-248756Y89604D01*
X-248665Y89435D01*
X-248659Y89428D01*
X-248655Y89420D01*
X-248530Y89273D01*
X-248407Y89126D01*
X-248400Y89120D01*
X-248394Y89113D01*
X-248243Y88994D01*
X-248093Y88873D01*
X-248085Y88869D01*
X-248078Y88864D01*
X-247906Y88776D01*
X-247736Y88688D01*
X-247727Y88685D01*
X-247719Y88681D01*
X-247533Y88630D01*
X-247349Y88577D01*
X-247340Y88576D01*
X-247331Y88573D01*
X-247139Y88559D01*
X-246948Y88544D01*
X-246939Y88545D01*
X-246930Y88544D01*
X-246738Y88568D01*
X-246548Y88591D01*
X-246539Y88593D01*
X-246530Y88594D01*
X-246348Y88656D01*
X-246165Y88715D01*
X-246157Y88720D01*
X-246149Y88723D01*
X-245982Y88819D01*
X-245814Y88913D01*
X-245808Y88919D01*
X-245800Y88924D01*
X-245547Y89138D01*
X-245324Y89361D01*
X-241683Y90869D01*
X-237742Y90869D01*
X-234413Y89490D01*
X-234396Y89485D01*
X-234380Y89477D01*
X-234204Y89427D01*
X-234027Y89374D01*
X-234009Y89372D01*
X-233992Y89367D01*
X-233810Y89353D01*
X-233627Y89336D01*
X-233609Y89338D01*
X-233591Y89336D01*
X-233410Y89358D01*
X-233226Y89377D01*
X-233209Y89383D01*
X-233191Y89385D01*
X-233018Y89442D01*
X-232842Y89497D01*
X-232826Y89506D01*
X-232809Y89511D01*
X-232649Y89603D01*
X-232489Y89690D01*
X-232475Y89702D01*
X-232459Y89711D01*
X-232320Y89832D01*
X-232180Y89950D01*
X-232169Y89963D01*
X-232156Y89975D01*
X-232044Y90120D01*
X-231929Y90264D01*
X-231921Y90280D01*
X-231910Y90294D01*
X-231759Y90590D01*
X-231364Y91544D01*
X-230624Y92283D01*
X-230607Y92304D01*
X-230587Y92321D01*
X-230480Y92459D01*
X-230369Y92595D01*
X-230357Y92618D01*
X-230340Y92639D01*
X-230262Y92796D01*
X-230181Y92950D01*
X-230173Y92976D01*
X-230161Y93000D01*
X-230116Y93169D01*
X-230066Y93336D01*
X-230064Y93363D01*
X-230057Y93389D01*
X-230029Y93719D01*
X-230029Y101947D01*
X-227107Y104870D01*
X-227090Y104891D01*
X-227069Y104908D01*
X-226962Y105046D01*
X-226852Y105181D01*
X-226839Y105205D01*
X-226823Y105226D01*
X-226745Y105383D01*
X-226663Y105537D01*
X-226655Y105563D01*
X-226643Y105587D01*
X-226598Y105756D01*
X-226548Y105923D01*
X-226546Y105950D01*
X-226539Y105976D01*
X-226512Y106306D01*
X-226512Y110516D01*
X-225172Y111855D01*
X-215278Y111855D01*
X-213938Y110516D01*
X-213938Y100622D01*
X-215278Y99282D01*
X-220377Y99282D01*
X-220395Y99280D01*
X-220412Y99282D01*
X-220595Y99260D01*
X-220777Y99242D01*
X-220794Y99237D01*
X-220812Y99235D01*
X-220987Y99178D01*
X-221162Y99124D01*
X-221178Y99115D01*
X-221195Y99110D01*
X-221355Y99020D01*
X-221516Y98932D01*
X-221530Y98921D01*
X-221546Y98912D01*
X-221685Y98792D01*
X-221826Y98674D01*
X-221837Y98661D01*
X-221850Y98649D01*
X-221963Y98504D01*
X-222078Y98361D01*
X-222086Y98345D01*
X-222097Y98331D01*
X-222179Y98166D01*
X-222263Y98003D01*
X-222268Y97986D01*
X-222276Y97970D01*
X-222324Y97792D01*
X-222375Y97616D01*
X-222376Y97599D01*
X-222381Y97581D01*
X-222408Y97251D01*
X-222408Y93719D01*
X-222405Y93693D01*
X-222407Y93666D01*
X-222385Y93492D01*
X-222368Y93319D01*
X-222360Y93293D01*
X-222357Y93267D01*
X-222301Y93101D01*
X-222250Y92934D01*
X-222237Y92910D01*
X-222229Y92885D01*
X-222141Y92733D01*
X-222058Y92580D01*
X-222041Y92559D01*
X-222028Y92536D01*
X-221813Y92283D01*
X-221074Y91544D01*
X-220150Y89313D01*
X-220150Y86899D01*
X-221074Y84669D01*
X-222781Y82961D01*
X-225012Y82038D01*
X-227775Y82038D01*
X-227792Y82036D01*
X-227810Y82037D01*
X-227992Y82016D01*
X-228175Y81998D01*
X-228192Y81992D01*
X-228210Y81990D01*
X-228384Y81933D01*
X-228560Y81879D01*
X-228576Y81871D01*
X-228593Y81865D01*
X-228753Y81775D01*
X-228914Y81688D01*
X-228928Y81676D01*
X-228943Y81668D01*
X-229083Y81547D01*
X-229223Y81430D01*
X-229235Y81416D01*
X-229248Y81404D01*
X-229361Y81259D01*
X-229476Y81116D01*
X-229484Y81100D01*
X-229495Y81086D01*
X-229577Y80921D01*
X-229661Y80759D01*
X-229666Y80742D01*
X-229674Y80726D01*
X-229722Y80548D01*
X-229773Y80372D01*
X-229774Y80354D01*
X-229779Y80337D01*
X-229806Y80006D01*
X-229806Y78992D01*
X-231314Y75351D01*
X-234101Y72564D01*
X-237128Y71310D01*
X-237742Y71056D01*
X-241683Y71056D01*
X-245324Y72564D01*
X-245969Y73208D01*
X-246041Y73267D01*
X-246106Y73334D01*
X-246196Y73395D01*
X-246280Y73463D01*
X-246363Y73507D01*
X-246440Y73559D01*
X-246540Y73601D01*
X-246636Y73652D01*
X-246725Y73679D01*
X-246811Y73715D01*
X-246918Y73736D01*
X-247022Y73767D01*
X-247115Y73775D01*
X-247206Y73794D01*
X-247314Y73793D01*
X-247423Y73803D01*
X-247515Y73793D01*
X-247609Y73793D01*
X-247715Y73772D01*
X-247823Y73760D01*
X-247912Y73732D01*
X-248003Y73713D01*
X-248103Y73671D01*
X-248207Y73638D01*
X-248288Y73593D01*
X-248374Y73557D01*
X-248464Y73496D01*
X-248559Y73444D01*
X-248630Y73383D01*
X-248707Y73331D01*
X-248783Y73253D01*
X-248866Y73183D01*
X-248924Y73110D01*
X-248989Y73043D01*
X-249049Y72952D01*
X-249116Y72867D01*
X-249158Y72784D01*
X-249209Y72706D01*
X-249261Y72582D01*
X-249298Y72508D01*
X-249311Y72460D01*
X-249337Y72400D01*
X-252222Y63520D01*
X-258323Y55123D01*
X-266720Y49022D01*
X-276592Y45815D01*
X-282501Y45815D01*
X-282519Y45813D01*
X-282536Y45814D01*
X-282719Y45793D01*
X-282901Y45775D01*
X-282918Y45769D01*
X-282936Y45767D01*
X-283111Y45710D01*
X-283286Y45656D01*
X-283302Y45648D01*
X-283319Y45642D01*
X-283479Y45552D01*
X-283640Y45465D01*
X-283654Y45453D01*
X-283670Y45445D01*
X-283809Y45324D01*
X-283950Y45207D01*
X-283961Y45193D01*
X-283974Y45181D01*
X-284087Y45036D01*
X-284202Y44893D01*
X-284210Y44877D01*
X-284221Y44863D01*
X-284303Y44698D01*
X-284387Y44536D01*
X-284392Y44519D01*
X-284400Y44503D01*
X-284448Y44325D01*
X-284499Y44149D01*
X-284500Y44131D01*
X-284505Y44114D01*
X-284532Y43783D01*
X-284532Y16972D01*
X-284523Y16884D01*
X-284524Y16796D01*
X-284503Y16684D01*
X-284492Y16571D01*
X-284466Y16487D01*
X-284450Y16400D01*
X-284407Y16295D01*
X-284374Y16186D01*
X-284332Y16109D01*
X-284299Y16027D01*
X-284236Y15932D01*
X-284182Y15832D01*
X-284126Y15764D01*
X-284077Y15691D01*
X-283979Y15588D01*
X-283924Y15523D01*
X-283889Y15494D01*
X-283848Y15451D01*
X-283512Y15154D01*
X-283490Y15068D01*
X-283443Y14971D01*
X-283405Y14870D01*
X-283355Y14790D01*
X-283314Y14706D01*
X-283249Y14620D01*
X-283192Y14528D01*
X-283128Y14460D01*
X-283071Y14385D01*
X-282990Y14313D01*
X-282916Y14235D01*
X-282840Y14181D01*
X-282769Y14118D01*
X-282676Y14064D01*
X-282588Y14002D01*
X-282565Y13992D01*
X-282138Y13253D01*
X-282126Y13236D01*
X-281953Y12984D01*
X-281407Y12316D01*
X-281399Y12227D01*
X-281368Y12124D01*
X-281347Y12018D01*
X-281311Y11932D01*
X-281284Y11842D01*
X-281234Y11746D01*
X-281192Y11647D01*
X-281140Y11569D01*
X-281095Y11486D01*
X-281027Y11403D01*
X-280967Y11313D01*
X-280900Y11247D01*
X-280840Y11175D01*
X-280757Y11106D01*
X-280680Y11031D01*
X-280659Y11017D01*
X-280356Y10219D01*
X-280348Y10203D01*
X-280216Y9923D01*
X-280176Y9854D01*
X-280135Y9797D01*
X-280102Y9735D01*
X-280018Y9634D01*
X-279941Y9527D01*
X-279890Y9479D01*
X-279845Y9425D01*
X-279743Y9343D01*
X-279646Y9253D01*
X-279587Y9216D01*
X-279532Y9172D01*
X-279377Y9088D01*
X-279303Y9042D01*
X-279275Y9032D01*
X-279241Y9013D01*
X-251735Y-3182D01*
X-251690Y-3197D01*
X-251648Y-3219D01*
X-251499Y-3260D01*
X-251353Y-3308D01*
X-251306Y-3314D01*
X-251260Y-3327D01*
X-251106Y-3338D01*
X-250953Y-3356D01*
X-250906Y-3352D01*
X-250859Y-3356D01*
X-250705Y-3337D01*
X-250552Y-3324D01*
X-250506Y-3311D01*
X-250459Y-3306D01*
X-250313Y-3256D01*
X-250164Y-3214D01*
X-250122Y-3192D01*
X-250077Y-3177D01*
X-249944Y-3100D01*
X-249807Y-3030D01*
X-249770Y-3000D01*
X-249729Y-2976D01*
X-249540Y-2816D01*
X-249492Y-2778D01*
X-249485Y-2770D01*
X-249476Y-2762D01*
X-247897Y-1183D01*
X-242586Y1017D01*
X-196470Y1017D01*
X-189707Y-1181D01*
X-183954Y-5360D01*
X-179774Y-11113D01*
X-177577Y-17876D01*
X-177577Y-50922D01*
X-177568Y-51013D01*
X-177569Y-51104D01*
X-177548Y-51213D01*
X-177537Y-51323D01*
X-177510Y-51410D01*
X-177493Y-51499D01*
X-177451Y-51602D01*
X-177419Y-51708D01*
X-177376Y-51788D01*
X-177341Y-51872D01*
X-177280Y-51964D01*
X-177227Y-52062D01*
X-177169Y-52131D01*
X-177119Y-52207D01*
X-177040Y-52286D01*
X-176969Y-52371D01*
X-176899Y-52428D01*
X-176834Y-52492D01*
X-176721Y-52571D01*
X-176656Y-52623D01*
X-176613Y-52645D01*
X-176561Y-52681D01*
X-169601Y-56700D01*
X-169585Y-56707D01*
X-169570Y-56717D01*
X-169268Y-56854D01*
X-164052Y-58716D01*
X-163977Y-58735D01*
X-163772Y-58794D01*
X-162998Y-58951D01*
X-162758Y-59112D01*
X-162682Y-59153D01*
X-162610Y-59203D01*
X-162479Y-59262D01*
X-162404Y-59302D01*
X-162361Y-59315D01*
X-162308Y-59339D01*
X-162036Y-59437D01*
X-161451Y-59966D01*
X-161388Y-60013D01*
X-161221Y-60146D01*
X-155544Y-63965D01*
X-155405Y-64039D01*
X-155270Y-64120D01*
X-155228Y-64134D01*
X-155189Y-64155D01*
X-155038Y-64201D01*
X-154890Y-64253D01*
X-154846Y-64259D01*
X-154804Y-64272D01*
X-154647Y-64287D01*
X-154533Y-64303D01*
X-154473Y-64320D01*
X-154372Y-64358D01*
X-154279Y-64374D01*
X-154189Y-64399D01*
X-154081Y-64407D01*
X-153975Y-64425D01*
X-153881Y-64422D01*
X-153787Y-64429D01*
X-153680Y-64415D01*
X-153572Y-64411D01*
X-153481Y-64390D01*
X-153388Y-64378D01*
X-153285Y-64344D01*
X-153180Y-64319D01*
X-153095Y-64280D01*
X-153006Y-64250D01*
X-152912Y-64196D01*
X-152814Y-64151D01*
X-152794Y-64136D01*
X-151941Y-64136D01*
X-151921Y-64134D01*
X-151615Y-64110D01*
X-150764Y-63972D01*
X-150683Y-64009D01*
X-150579Y-64034D01*
X-150476Y-64068D01*
X-150383Y-64080D01*
X-150292Y-64102D01*
X-150184Y-64106D01*
X-150077Y-64120D01*
X-149983Y-64113D01*
X-149889Y-64117D01*
X-149783Y-64099D01*
X-149676Y-64091D01*
X-149585Y-64067D01*
X-149492Y-64051D01*
X-149391Y-64013D01*
X-149287Y-63984D01*
X-149265Y-63973D01*
X-148428Y-64109D01*
X-148427Y-64109D01*
X-148423Y-64110D01*
X-148404Y-64111D01*
X-148097Y-64136D01*
X-147235Y-64136D01*
X-147161Y-64186D01*
X-147062Y-64227D01*
X-146966Y-64278D01*
X-146876Y-64305D01*
X-146789Y-64341D01*
X-146684Y-64362D01*
X-146580Y-64393D01*
X-146487Y-64401D01*
X-146395Y-64420D01*
X-146287Y-64419D01*
X-146179Y-64429D01*
X-146086Y-64419D01*
X-145992Y-64419D01*
X-145886Y-64397D01*
X-145779Y-64386D01*
X-145755Y-64378D01*
X-145343Y-64516D01*
X-145257Y-64535D01*
X-145174Y-64564D01*
X-145061Y-64580D01*
X-144951Y-64605D01*
X-144862Y-64607D01*
X-144775Y-64619D01*
X-144662Y-64612D01*
X-144548Y-64615D01*
X-144461Y-64599D01*
X-144373Y-64594D01*
X-144264Y-64564D01*
X-144152Y-64545D01*
X-144069Y-64513D01*
X-143984Y-64490D01*
X-143856Y-64429D01*
X-143777Y-64398D01*
X-143738Y-64374D01*
X-143684Y-64348D01*
X-123383Y-52628D01*
X-123359Y-52610D01*
X-123326Y-52593D01*
X-118656Y-49686D01*
X-118610Y-49651D01*
X-118560Y-49623D01*
X-118451Y-49528D01*
X-118337Y-49440D01*
X-118299Y-49397D01*
X-118256Y-49360D01*
X-118167Y-49246D01*
X-118072Y-49137D01*
X-118044Y-49087D01*
X-118009Y-49042D01*
X-117945Y-48912D01*
X-117873Y-48787D01*
X-117855Y-48732D01*
X-117830Y-48681D01*
X-117792Y-48541D01*
X-117747Y-48404D01*
X-117740Y-48348D01*
X-117725Y-48292D01*
X-117708Y-48083D01*
X-117698Y-48005D01*
X-117700Y-47986D01*
X-117698Y-47961D01*
X-117698Y-17161D01*
X-114568Y-7529D01*
X-108615Y665D01*
X-100421Y6618D01*
X-98300Y7307D01*
X-98223Y7341D01*
X-98142Y7366D01*
X-98039Y7422D01*
X-97932Y7469D01*
X-97862Y7518D01*
X-97788Y7558D01*
X-97698Y7633D01*
X-97602Y7700D01*
X-97544Y7762D01*
X-97479Y7816D01*
X-97406Y7907D01*
X-97325Y7992D01*
X-97280Y8064D01*
X-97227Y8129D01*
X-97173Y8234D01*
X-97110Y8333D01*
X-97080Y8412D01*
X-97041Y8487D01*
X-97009Y8599D01*
X-96967Y8709D01*
X-96953Y8793D01*
X-96930Y8874D01*
X-96920Y8991D01*
X-96901Y9106D01*
X-96904Y9191D01*
X-96897Y9275D01*
X-96911Y9391D01*
X-96915Y9509D01*
X-96934Y9591D01*
X-96944Y9675D01*
X-96980Y9786D01*
X-97007Y9901D01*
X-97043Y9977D01*
X-97069Y10057D01*
X-97127Y10160D01*
X-97176Y10266D01*
X-97225Y10335D01*
X-97267Y10408D01*
X-97343Y10497D01*
X-97413Y10592D01*
X-97475Y10649D01*
X-97530Y10713D01*
X-97622Y10785D01*
X-97709Y10864D01*
X-97781Y10908D01*
X-97848Y10960D01*
X-97953Y11012D01*
X-98054Y11073D01*
X-98133Y11101D01*
X-98208Y11139D01*
X-98322Y11169D01*
X-98432Y11209D01*
X-98516Y11221D01*
X-98597Y11243D01*
X-98746Y11256D01*
X-98831Y11268D01*
X-98873Y11266D01*
X-98928Y11271D01*
X-109481Y11271D01*
X-109507Y11268D01*
X-109534Y11270D01*
X-109708Y11248D01*
X-109881Y11231D01*
X-109907Y11223D01*
X-109933Y11219D01*
X-110099Y11164D01*
X-110266Y11112D01*
X-110290Y11100D01*
X-110315Y11091D01*
X-110467Y11004D01*
X-110620Y10921D01*
X-110641Y10904D01*
X-110664Y10890D01*
X-110917Y10676D01*
X-111656Y9936D01*
X-113887Y9013D01*
X-116301Y9013D01*
X-118531Y9936D01*
X-120239Y11644D01*
X-121162Y13874D01*
X-121162Y16288D01*
X-120239Y18519D01*
X-118531Y20226D01*
X-116301Y21150D01*
X-113887Y21150D01*
X-111656Y20226D01*
X-110917Y19487D01*
X-110896Y19470D01*
X-110879Y19450D01*
X-110741Y19343D01*
X-110605Y19232D01*
X-110582Y19219D01*
X-110561Y19203D01*
X-110404Y19125D01*
X-110250Y19043D01*
X-110224Y19036D01*
X-110200Y19024D01*
X-110031Y18978D01*
X-109864Y18928D01*
X-109837Y18926D01*
X-109811Y18919D01*
X-109481Y18892D01*
X-96101Y18892D01*
X-96074Y18895D01*
X-96047Y18893D01*
X-95873Y18915D01*
X-95700Y18932D01*
X-95674Y18940D01*
X-95648Y18943D01*
X-95482Y18999D01*
X-95315Y19050D01*
X-95291Y19063D01*
X-95266Y19071D01*
X-95115Y19159D01*
X-94961Y19242D01*
X-94941Y19259D01*
X-94917Y19272D01*
X-94664Y19487D01*
X-93925Y20226D01*
X-91695Y21150D01*
X-89280Y21150D01*
X-87050Y20226D01*
X-85343Y18519D01*
X-84419Y16288D01*
X-84419Y13874D01*
X-84965Y12557D01*
X-84968Y12544D01*
X-84975Y12532D01*
X-85026Y12352D01*
X-85081Y12171D01*
X-85082Y12158D01*
X-85086Y12145D01*
X-85102Y11955D01*
X-85119Y11770D01*
X-85118Y11757D01*
X-85119Y11744D01*
X-85097Y11557D01*
X-85077Y11370D01*
X-85073Y11357D01*
X-85072Y11344D01*
X-85013Y11165D01*
X-84958Y10986D01*
X-84951Y10974D01*
X-84947Y10961D01*
X-84855Y10797D01*
X-84764Y10632D01*
X-84756Y10622D01*
X-84749Y10610D01*
X-84627Y10469D01*
X-84505Y10324D01*
X-84495Y10316D01*
X-84486Y10306D01*
X-84338Y10191D01*
X-84190Y10073D01*
X-84178Y10067D01*
X-84168Y10059D01*
X-84000Y9975D01*
X-83832Y9889D01*
X-83819Y9886D01*
X-83807Y9880D01*
X-83625Y9831D01*
X-83445Y9780D01*
X-83432Y9779D01*
X-83419Y9775D01*
X-83088Y9748D01*
X-64767Y9748D01*
X-56609Y7097D01*
X-49669Y2055D01*
X-44947Y-4445D01*
X-44884Y-4515D01*
X-44829Y-4592D01*
X-44750Y-4665D01*
X-44679Y-4745D01*
X-44603Y-4802D01*
X-44534Y-4867D01*
X-44443Y-4923D01*
X-44357Y-4987D01*
X-44272Y-5028D01*
X-44191Y-5078D01*
X-44091Y-5115D01*
X-43994Y-5161D01*
X-43902Y-5184D01*
X-43814Y-5217D01*
X-43708Y-5234D01*
X-43604Y-5260D01*
X-43509Y-5264D01*
X-43416Y-5279D01*
X-43309Y-5274D01*
X-43202Y-5280D01*
X-43108Y-5266D01*
X-43014Y-5261D01*
X-42909Y-5236D01*
X-42803Y-5220D01*
X-42715Y-5187D01*
X-42623Y-5165D01*
X-42502Y-5110D01*
X-42425Y-5082D01*
X-42382Y-5056D01*
X-42320Y-5028D01*
X-21753Y6349D01*
X-21689Y6393D01*
X-21620Y6428D01*
X-21524Y6507D01*
X-21421Y6577D01*
X-21368Y6633D01*
X-21307Y6682D01*
X-21228Y6778D01*
X-21142Y6867D01*
X-21100Y6932D01*
X-21051Y6992D01*
X-20992Y7102D01*
X-20925Y7206D01*
X-20897Y7278D01*
X-20860Y7347D01*
X-20810Y7500D01*
X-20779Y7582D01*
X-20773Y7618D01*
X-20758Y7662D01*
X-20572Y8455D01*
X-20556Y8473D01*
X-20512Y8511D01*
X-20424Y8625D01*
X-20330Y8733D01*
X-20301Y8783D01*
X-20265Y8829D01*
X-20170Y9013D01*
X-20130Y9082D01*
X-20124Y9101D01*
X-20112Y9124D01*
X-20068Y9228D01*
X-20051Y9284D01*
X-20026Y9337D01*
X-19992Y9476D01*
X-19950Y9613D01*
X-19944Y9671D01*
X-19930Y9728D01*
X-19924Y9871D01*
X-19909Y10014D01*
X-19911Y10028D01*
X-19473Y10717D01*
X-19471Y10721D01*
X-19469Y10724D01*
X-19315Y11019D01*
X-18998Y11775D01*
X-18979Y11790D01*
X-18929Y11820D01*
X-18823Y11917D01*
X-18712Y12008D01*
X-18675Y12053D01*
X-18632Y12093D01*
X-18508Y12257D01*
X-18457Y12319D01*
X-18447Y12337D01*
X-18432Y12357D01*
X-18371Y12453D01*
X-18345Y12505D01*
X-18312Y12553D01*
X-18255Y12685D01*
X-18190Y12813D01*
X-18175Y12869D01*
X-18152Y12922D01*
X-18122Y13062D01*
X-18084Y13201D01*
X-18083Y13215D01*
X-17536Y13822D01*
X-17534Y13825D01*
X-17531Y13828D01*
X-17331Y14093D01*
X-16891Y14785D01*
X-16870Y14797D01*
X-16816Y14819D01*
X-16711Y14887D01*
X-16608Y14943D01*
X-16592Y14956D01*
X-16571Y14968D01*
X-16527Y15006D01*
X-16478Y15038D01*
X-16359Y15150D01*
X-16298Y15201D01*
X-16286Y15215D01*
X-16267Y15232D01*
X-16255Y15248D01*
X-16237Y15265D01*
X-16161Y15350D01*
X-16126Y15397D01*
X-16086Y15438D01*
X-16007Y15559D01*
X-15922Y15674D01*
X-15898Y15727D01*
X-15866Y15776D01*
X-15813Y15909D01*
X-15753Y16039D01*
X-15749Y16053D01*
X-15109Y16560D01*
X-15106Y16563D01*
X-15103Y16565D01*
X-14861Y16793D01*
X-14312Y17402D01*
X-14290Y17411D01*
X-14233Y17423D01*
X-14101Y17480D01*
X-13966Y17529D01*
X-13917Y17559D01*
X-13863Y17582D01*
X-13692Y17697D01*
X-13623Y17739D01*
X-13608Y17753D01*
X-13587Y17766D01*
X-13498Y17837D01*
X-13456Y17877D01*
X-13409Y17912D01*
X-13312Y18017D01*
X-13209Y18117D01*
X-13176Y18165D01*
X-13137Y18208D01*
X-13062Y18330D01*
X-12981Y18449D01*
X-12975Y18462D01*
X-12259Y18855D01*
X-12256Y18857D01*
X-12252Y18859D01*
X-11976Y19043D01*
X-11333Y19553D01*
X-11310Y19557D01*
X-11251Y19560D01*
X-11112Y19594D01*
X-10971Y19620D01*
X-10917Y19641D01*
X-10860Y19655D01*
X-10671Y19740D01*
X-10597Y19770D01*
X-10580Y19781D01*
X-10557Y19791D01*
X-10458Y19846D01*
X-10410Y19879D01*
X-10358Y19904D01*
X-10244Y19992D01*
X-10126Y20074D01*
X-10086Y20115D01*
X-10040Y20151D01*
X-9945Y20260D01*
X-9846Y20363D01*
X-9838Y20374D01*
X-9067Y20643D01*
X-9063Y20645D01*
X-9059Y20646D01*
X-8756Y20781D01*
X-8037Y21176D01*
X-8013Y21177D01*
X-7956Y21169D01*
X-7813Y21180D01*
X-7669Y21182D01*
X-7612Y21194D01*
X-7554Y21198D01*
X-7354Y21250D01*
X-7275Y21267D01*
X-7257Y21275D01*
X-7233Y21281D01*
X-7126Y21319D01*
X-7073Y21343D01*
X-7017Y21360D01*
X-6891Y21428D01*
X-6761Y21488D01*
X-6713Y21523D01*
X-6662Y21550D01*
X-6551Y21641D01*
X-6436Y21726D01*
X-6426Y21737D01*
X-5621Y21873D01*
X-5617Y21874D01*
X-5613Y21874D01*
X-5291Y21958D01*
X-4517Y22227D01*
X-4493Y22224D01*
X-4437Y22207D01*
X-4294Y22193D01*
X-4152Y22171D01*
X-4094Y22174D01*
X-4036Y22168D01*
X-3830Y22186D01*
X-3750Y22190D01*
X-3731Y22195D01*
X-3706Y22197D01*
X-3594Y22216D01*
X-3538Y22231D01*
X-3480Y22238D01*
X-3344Y22284D01*
X-3205Y22322D01*
X-3153Y22348D01*
X-3098Y22367D01*
X-2974Y22438D01*
X-2846Y22503D01*
X-2835Y22511D01*
X-2018Y22511D01*
X-2013Y22512D01*
X-2009Y22511D01*
X-1679Y22540D01*
X-870Y22677D01*
X-847Y22669D01*
X-795Y22643D01*
X-656Y22606D01*
X-520Y22561D01*
X-463Y22554D01*
X-406Y22538D01*
X-200Y22521D01*
X-121Y22512D01*
X-100Y22513D01*
X-75Y22511D01*
X38Y22511D01*
X96Y22517D01*
X154Y22515D01*
X296Y22537D01*
X439Y22551D01*
X494Y22568D01*
X552Y22577D01*
X686Y22627D01*
X823Y22669D01*
X836Y22676D01*
X1641Y22540D01*
X1645Y22539D01*
X1649Y22538D01*
X1980Y22511D01*
X2800Y22511D01*
X2822Y22500D01*
X2869Y22466D01*
X2999Y22406D01*
X3126Y22339D01*
X3182Y22322D01*
X3235Y22298D01*
X3435Y22247D01*
X3512Y22224D01*
X3532Y22222D01*
X3556Y22216D01*
X3668Y22197D01*
X3726Y22193D01*
X3783Y22181D01*
X3927Y22179D01*
X4070Y22169D01*
X4128Y22177D01*
X4186Y22176D01*
X4327Y22203D01*
X4469Y22222D01*
X4518Y22238D01*
X4576Y22222D01*
X4612Y22219D01*
X4648Y22211D01*
X4812Y22205D01*
X4978Y22193D01*
X5014Y22197D01*
X5050Y22196D01*
X5213Y22222D01*
X5377Y22243D01*
X5411Y22255D01*
X5447Y22261D01*
X5602Y22319D01*
X5759Y22371D01*
X5790Y22389D01*
X5824Y22402D01*
X5964Y22490D01*
X6108Y22572D01*
X6139Y22599D01*
X6166Y22616D01*
X6229Y22675D01*
X6361Y22787D01*
X14768Y31194D01*
X14785Y31215D01*
X14805Y31232D01*
X14912Y31370D01*
X15023Y31505D01*
X15035Y31529D01*
X15052Y31550D01*
X15130Y31707D01*
X15211Y31861D01*
X15219Y31887D01*
X15231Y31911D01*
X15276Y32080D01*
X15326Y32247D01*
X15328Y32274D01*
X15335Y32300D01*
X15363Y32630D01*
X15363Y32957D01*
X16286Y35188D01*
X17994Y36895D01*
X20224Y37819D01*
X22638Y37819D01*
X24869Y36895D01*
X26576Y35188D01*
X27500Y32957D01*
X27500Y30543D01*
X26576Y28312D01*
X24869Y26605D01*
X22638Y25681D01*
X22312Y25681D01*
X22285Y25679D01*
X22258Y25681D01*
X22084Y25659D01*
X21911Y25641D01*
X21885Y25634D01*
X21859Y25630D01*
X21693Y25575D01*
X21526Y25523D01*
X21502Y25510D01*
X21477Y25502D01*
X21325Y25415D01*
X21172Y25331D01*
X21151Y25314D01*
X21128Y25301D01*
X20875Y25086D01*
X15165Y19376D01*
X15079Y19272D01*
X14987Y19173D01*
X14952Y19116D01*
X14910Y19065D01*
X14847Y18946D01*
X14776Y18831D01*
X14753Y18768D01*
X14721Y18709D01*
X14683Y18580D01*
X14636Y18453D01*
X14626Y18387D01*
X14606Y18323D01*
X14594Y18189D01*
X14573Y18056D01*
X14576Y17989D01*
X14570Y17922D01*
X14585Y17788D01*
X14590Y17653D01*
X14606Y17588D01*
X14613Y17522D01*
X14654Y17393D01*
X14686Y17262D01*
X14715Y17202D01*
X14735Y17138D01*
X14800Y17020D01*
X14857Y16898D01*
X14897Y16844D01*
X14930Y16785D01*
X15017Y16683D01*
X15097Y16574D01*
X15154Y16522D01*
X15190Y16478D01*
X15252Y16430D01*
X15340Y16348D01*
X15715Y16051D01*
X15724Y16029D01*
X15740Y15973D01*
X15805Y15845D01*
X15862Y15713D01*
X15896Y15666D01*
X15922Y15614D01*
X16048Y15449D01*
X16094Y15383D01*
X16108Y15370D01*
X16123Y15350D01*
X16199Y15265D01*
X16242Y15226D01*
X16280Y15181D01*
X16299Y15165D01*
X16312Y15151D01*
X16403Y15080D01*
X16497Y14994D01*
X16547Y14964D01*
X16592Y14928D01*
X16614Y14916D01*
X16630Y14904D01*
X16735Y14852D01*
X16842Y14787D01*
X16856Y14783D01*
X17293Y14093D01*
X17296Y14089D01*
X17298Y14086D01*
X17499Y13822D01*
X18048Y13212D01*
X18054Y13189D01*
X18060Y13131D01*
X18102Y12994D01*
X18137Y12855D01*
X18162Y12802D01*
X18180Y12747D01*
X18276Y12564D01*
X18310Y12491D01*
X18322Y12475D01*
X18334Y12453D01*
X18395Y12357D01*
X18431Y12311D01*
X18460Y12261D01*
X18555Y12153D01*
X18643Y12040D01*
X18687Y12002D01*
X18726Y11959D01*
X18840Y11872D01*
X18949Y11779D01*
X18961Y11772D01*
X19278Y11019D01*
X19280Y11015D01*
X19281Y11011D01*
X19435Y10717D01*
X19875Y10025D01*
X19877Y10001D01*
X19873Y9942D01*
X19892Y9800D01*
X19904Y9657D01*
X19920Y9601D01*
X19927Y9543D01*
X19991Y9347D01*
X20013Y9270D01*
X20023Y9252D01*
X20031Y9228D01*
X20075Y9124D01*
X20102Y9072D01*
X20123Y9018D01*
X20198Y8896D01*
X20267Y8770D01*
X20304Y8725D01*
X20335Y8676D01*
X20433Y8571D01*
X20525Y8461D01*
X20570Y8424D01*
X20575Y8419D01*
X20605Y8332D01*
X20630Y8287D01*
X20649Y8240D01*
X20732Y8114D01*
X20808Y7984D01*
X20842Y7946D01*
X20870Y7903D01*
X20975Y7795D01*
X21075Y7683D01*
X21116Y7652D01*
X21152Y7616D01*
X21341Y7483D01*
X21397Y7441D01*
X21409Y7435D01*
X21423Y7425D01*
X122003Y-51651D01*
X122142Y-51715D01*
X122279Y-51786D01*
X122325Y-51799D01*
X122368Y-51819D01*
X122518Y-51855D01*
X122666Y-51897D01*
X122713Y-51901D01*
X122760Y-51912D01*
X122913Y-51918D01*
X123067Y-51930D01*
X123114Y-51925D01*
X123162Y-51926D01*
X123314Y-51901D01*
X123467Y-51883D01*
X123512Y-51868D01*
X123560Y-51861D01*
X123704Y-51806D01*
X123849Y-51758D01*
X123891Y-51735D01*
X123936Y-51718D01*
X124066Y-51636D01*
X124200Y-51561D01*
X124236Y-51529D01*
X124277Y-51504D01*
X124388Y-51398D01*
X124505Y-51297D01*
X124534Y-51260D01*
X124569Y-51227D01*
X124657Y-51101D01*
X124752Y-50979D01*
X124773Y-50936D01*
X124800Y-50897D01*
X124862Y-50756D01*
X124931Y-50619D01*
X124943Y-50572D01*
X124963Y-50529D01*
X124995Y-50379D01*
X125035Y-50230D01*
X125040Y-50176D01*
X125049Y-50135D01*
X125050Y-50049D01*
X125063Y-49899D01*
X125063Y-16616D01*
X125060Y-16590D01*
X125062Y-16563D01*
X125040Y-16389D01*
X125023Y-16216D01*
X125015Y-16190D01*
X125011Y-16164D01*
X124956Y-15998D01*
X124904Y-15831D01*
X124892Y-15807D01*
X124883Y-15782D01*
X124796Y-15630D01*
X124713Y-15477D01*
X124696Y-15456D01*
X124682Y-15433D01*
X124468Y-15180D01*
X123997Y-14710D01*
X123031Y-12376D01*
X123031Y8725D01*
X123028Y8752D01*
X123030Y8779D01*
X123008Y8953D01*
X122991Y9126D01*
X122983Y9151D01*
X122979Y9178D01*
X122924Y9344D01*
X122872Y9511D01*
X122860Y9535D01*
X122851Y9560D01*
X122764Y9712D01*
X122681Y9865D01*
X122664Y9885D01*
X122650Y9909D01*
X122436Y10162D01*
X121232Y11365D01*
X121232Y31260D01*
X122572Y32599D01*
X139636Y32599D01*
X139750Y32539D01*
X139767Y32534D01*
X139783Y32526D01*
X139961Y32476D01*
X140136Y32424D01*
X140153Y32423D01*
X140171Y32418D01*
X140353Y32404D01*
X140537Y32388D01*
X140555Y32390D01*
X140572Y32389D01*
X140753Y32411D01*
X140937Y32431D01*
X140954Y32437D01*
X140972Y32439D01*
X141145Y32497D01*
X141321Y32553D01*
X141336Y32561D01*
X141353Y32567D01*
X141409Y32599D01*
X158636Y32599D01*
X158750Y32539D01*
X158767Y32534D01*
X158783Y32526D01*
X158961Y32476D01*
X159136Y32424D01*
X159153Y32423D01*
X159171Y32418D01*
X159353Y32404D01*
X159537Y32388D01*
X159555Y32390D01*
X159572Y32389D01*
X159753Y32411D01*
X159937Y32431D01*
X159954Y32437D01*
X159972Y32439D01*
X160145Y32497D01*
X160321Y32553D01*
X160336Y32561D01*
X160353Y32567D01*
X160409Y32599D01*
X177466Y32599D01*
X178805Y31260D01*
X178805Y11365D01*
X177466Y10026D01*
X176826Y10026D01*
X176813Y10024D01*
X176799Y10026D01*
X176613Y10005D01*
X176426Y9986D01*
X176413Y9982D01*
X176399Y9980D01*
X176221Y9923D01*
X176041Y9868D01*
X176029Y9861D01*
X176016Y9857D01*
X175852Y9766D01*
X175687Y9676D01*
X175676Y9667D01*
X175665Y9661D01*
X175521Y9538D01*
X175377Y9418D01*
X175369Y9408D01*
X175359Y9399D01*
X175243Y9251D01*
X175125Y9104D01*
X175119Y9093D01*
X175111Y9082D01*
X175026Y8913D01*
X174939Y8747D01*
X174936Y8734D01*
X174930Y8722D01*
X174880Y8540D01*
X174828Y8360D01*
X174827Y8347D01*
X174823Y8334D01*
X174811Y8147D01*
X174795Y7959D01*
X174797Y7946D01*
X174796Y7932D01*
X174820Y7747D01*
X174842Y7559D01*
X174846Y7546D01*
X174848Y7533D01*
X174950Y7217D01*
X175137Y6763D01*
X175137Y4349D01*
X174214Y2119D01*
X172506Y411D01*
X170276Y-512D01*
X167862Y-512D01*
X165631Y411D01*
X163924Y2119D01*
X163000Y4349D01*
X163000Y6763D01*
X163188Y7217D01*
X163192Y7230D01*
X163198Y7242D01*
X163250Y7423D01*
X163304Y7603D01*
X163306Y7616D01*
X163309Y7629D01*
X163325Y7816D01*
X163343Y8003D01*
X163341Y8017D01*
X163342Y8030D01*
X163320Y8217D01*
X163301Y8404D01*
X163297Y8417D01*
X163295Y8430D01*
X163237Y8608D01*
X163181Y8788D01*
X163175Y8800D01*
X163171Y8813D01*
X163078Y8976D01*
X162988Y9141D01*
X162979Y9152D01*
X162973Y9163D01*
X162850Y9306D01*
X162729Y9450D01*
X162718Y9458D01*
X162709Y9468D01*
X162563Y9582D01*
X162414Y9701D01*
X162402Y9707D01*
X162391Y9715D01*
X162224Y9798D01*
X162056Y9884D01*
X162043Y9888D01*
X162031Y9894D01*
X161848Y9943D01*
X161668Y9994D01*
X161655Y9995D01*
X161642Y9999D01*
X161311Y10026D01*
X160401Y10026D01*
X160288Y10086D01*
X160271Y10091D01*
X160255Y10099D01*
X160078Y10148D01*
X159902Y10201D01*
X159884Y10202D01*
X159867Y10207D01*
X159684Y10221D01*
X159501Y10237D01*
X159483Y10235D01*
X159465Y10237D01*
X159284Y10214D01*
X159101Y10194D01*
X159084Y10188D01*
X159066Y10186D01*
X158892Y10128D01*
X158717Y10072D01*
X158701Y10064D01*
X158684Y10058D01*
X158629Y10026D01*
X157776Y10026D01*
X157763Y10024D01*
X157749Y10026D01*
X157563Y10005D01*
X157376Y9986D01*
X157363Y9982D01*
X157349Y9980D01*
X157171Y9923D01*
X156991Y9868D01*
X156979Y9861D01*
X156966Y9857D01*
X156802Y9766D01*
X156637Y9676D01*
X156626Y9667D01*
X156615Y9661D01*
X156471Y9538D01*
X156327Y9418D01*
X156319Y9408D01*
X156309Y9399D01*
X156193Y9251D01*
X156075Y9104D01*
X156069Y9093D01*
X156061Y9082D01*
X155976Y8913D01*
X155889Y8747D01*
X155886Y8734D01*
X155880Y8722D01*
X155830Y8540D01*
X155778Y8360D01*
X155777Y8347D01*
X155773Y8334D01*
X155761Y8147D01*
X155745Y7959D01*
X155747Y7946D01*
X155746Y7932D01*
X155770Y7747D01*
X155792Y7559D01*
X155796Y7546D01*
X155798Y7533D01*
X155900Y7217D01*
X156087Y6763D01*
X156087Y4349D01*
X155164Y2119D01*
X153456Y411D01*
X151226Y-512D01*
X148812Y-512D01*
X146581Y411D01*
X144874Y2119D01*
X143950Y4349D01*
X143950Y6763D01*
X144138Y7217D01*
X144142Y7230D01*
X144148Y7242D01*
X144200Y7423D01*
X144254Y7603D01*
X144256Y7616D01*
X144259Y7629D01*
X144275Y7816D01*
X144293Y8003D01*
X144291Y8017D01*
X144292Y8030D01*
X144270Y8217D01*
X144251Y8404D01*
X144247Y8417D01*
X144245Y8430D01*
X144187Y8608D01*
X144131Y8788D01*
X144125Y8800D01*
X144121Y8813D01*
X144028Y8976D01*
X143938Y9141D01*
X143929Y9152D01*
X143923Y9163D01*
X143800Y9306D01*
X143679Y9450D01*
X143668Y9458D01*
X143659Y9468D01*
X143513Y9582D01*
X143364Y9701D01*
X143352Y9707D01*
X143341Y9715D01*
X143174Y9798D01*
X143006Y9884D01*
X142993Y9888D01*
X142981Y9894D01*
X142798Y9943D01*
X142618Y9994D01*
X142605Y9995D01*
X142592Y9999D01*
X142261Y10026D01*
X141401Y10026D01*
X141288Y10086D01*
X141271Y10091D01*
X141255Y10099D01*
X141078Y10148D01*
X140902Y10201D01*
X140884Y10202D01*
X140867Y10207D01*
X140684Y10221D01*
X140501Y10237D01*
X140483Y10235D01*
X140465Y10237D01*
X140284Y10214D01*
X140101Y10194D01*
X140084Y10188D01*
X140066Y10186D01*
X139892Y10128D01*
X139717Y10072D01*
X139701Y10064D01*
X139684Y10058D01*
X139629Y10026D01*
X137763Y10026D01*
X137745Y10024D01*
X137728Y10025D01*
X137545Y10004D01*
X137363Y9986D01*
X137346Y9981D01*
X137328Y9979D01*
X137153Y9922D01*
X136978Y9868D01*
X136962Y9859D01*
X136945Y9854D01*
X136785Y9763D01*
X136624Y9676D01*
X136610Y9665D01*
X136594Y9656D01*
X136455Y9536D01*
X136314Y9418D01*
X136303Y9404D01*
X136290Y9393D01*
X136177Y9248D01*
X136062Y9104D01*
X136054Y9089D01*
X136043Y9075D01*
X135961Y8910D01*
X135877Y8747D01*
X135872Y8730D01*
X135864Y8714D01*
X135816Y8536D01*
X135765Y8360D01*
X135764Y8342D01*
X135759Y8325D01*
X135732Y7995D01*
X135732Y-12376D01*
X134765Y-14710D01*
X134295Y-15180D01*
X134278Y-15201D01*
X134258Y-15218D01*
X134151Y-15356D01*
X134040Y-15492D01*
X134027Y-15515D01*
X134011Y-15536D01*
X133933Y-15693D01*
X133851Y-15847D01*
X133844Y-15873D01*
X133832Y-15897D01*
X133786Y-16066D01*
X133736Y-16233D01*
X133734Y-16260D01*
X133727Y-16286D01*
X133700Y-16616D01*
X133700Y-54657D01*
X133703Y-54684D01*
X133701Y-54711D01*
X133723Y-54884D01*
X133740Y-55058D01*
X133748Y-55083D01*
X133751Y-55110D01*
X133807Y-55275D01*
X133858Y-55443D01*
X133871Y-55466D01*
X133879Y-55492D01*
X133966Y-55643D01*
X134050Y-55797D01*
X134067Y-55817D01*
X134080Y-55841D01*
X134295Y-56094D01*
X140841Y-62640D01*
X140913Y-62698D01*
X140977Y-62764D01*
X141088Y-62842D01*
X141153Y-62895D01*
X141196Y-62918D01*
X141249Y-62955D01*
X143617Y-64346D01*
X143704Y-64386D01*
X143786Y-64435D01*
X143886Y-64470D01*
X143983Y-64515D01*
X144076Y-64537D01*
X144166Y-64568D01*
X144271Y-64583D01*
X144374Y-64608D01*
X144470Y-64611D01*
X144565Y-64624D01*
X144670Y-64618D01*
G37*
%LPC*%
G36*
X122572Y142026D02*
X122572Y142026D01*
X121232Y143365D01*
X121232Y163260D01*
X122572Y164599D01*
X123869Y164599D01*
X123882Y164601D01*
X123896Y164599D01*
X124082Y164620D01*
X124270Y164639D01*
X124282Y164643D01*
X124296Y164645D01*
X124474Y164702D01*
X124654Y164757D01*
X124666Y164764D01*
X124679Y164768D01*
X124843Y164859D01*
X125009Y164949D01*
X125019Y164958D01*
X125031Y164964D01*
X125174Y165087D01*
X125318Y165207D01*
X125326Y165217D01*
X125336Y165226D01*
X125452Y165374D01*
X125570Y165521D01*
X125576Y165532D01*
X125585Y165543D01*
X125669Y165712D01*
X125756Y165878D01*
X125759Y165891D01*
X125765Y165903D01*
X125815Y166085D01*
X125867Y166265D01*
X125868Y166278D01*
X125872Y166291D01*
X125884Y166478D01*
X125900Y166666D01*
X125898Y166679D01*
X125899Y166693D01*
X125875Y166878D01*
X125853Y167066D01*
X125849Y167079D01*
X125847Y167092D01*
X125746Y167408D01*
X124900Y169449D01*
X124900Y171863D01*
X125824Y174094D01*
X127531Y175801D01*
X129762Y176725D01*
X132176Y176725D01*
X134406Y175801D01*
X136114Y174094D01*
X137037Y171863D01*
X137037Y169449D01*
X136192Y167408D01*
X136188Y167395D01*
X136182Y167383D01*
X136130Y167202D01*
X136075Y167022D01*
X136074Y167009D01*
X136070Y166996D01*
X136055Y166807D01*
X136037Y166622D01*
X136039Y166608D01*
X136038Y166595D01*
X136059Y166408D01*
X136079Y166221D01*
X136083Y166208D01*
X136085Y166195D01*
X136143Y166017D01*
X136199Y165837D01*
X136205Y165825D01*
X136209Y165812D01*
X136302Y165649D01*
X136392Y165484D01*
X136401Y165473D01*
X136407Y165462D01*
X136530Y165319D01*
X136651Y165175D01*
X136662Y165167D01*
X136670Y165157D01*
X136818Y165042D01*
X136966Y164924D01*
X136978Y164918D01*
X136989Y164910D01*
X137156Y164827D01*
X137324Y164741D01*
X137337Y164737D01*
X137349Y164731D01*
X137532Y164682D01*
X137712Y164631D01*
X137725Y164630D01*
X137738Y164626D01*
X138069Y164599D01*
X139636Y164599D01*
X139750Y164539D01*
X139767Y164534D01*
X139783Y164526D01*
X139961Y164476D01*
X140136Y164424D01*
X140153Y164423D01*
X140171Y164418D01*
X140353Y164404D01*
X140537Y164388D01*
X140555Y164390D01*
X140572Y164389D01*
X140753Y164411D01*
X140937Y164431D01*
X140954Y164437D01*
X140972Y164439D01*
X141145Y164497D01*
X141321Y164553D01*
X141336Y164561D01*
X141353Y164567D01*
X141409Y164599D01*
X142919Y164599D01*
X142932Y164601D01*
X142946Y164599D01*
X143132Y164620D01*
X143320Y164639D01*
X143332Y164643D01*
X143346Y164645D01*
X143524Y164702D01*
X143704Y164757D01*
X143716Y164764D01*
X143729Y164768D01*
X143893Y164859D01*
X144059Y164949D01*
X144069Y164958D01*
X144081Y164964D01*
X144224Y165087D01*
X144368Y165207D01*
X144376Y165217D01*
X144386Y165226D01*
X144502Y165374D01*
X144620Y165521D01*
X144626Y165532D01*
X144635Y165543D01*
X144719Y165712D01*
X144806Y165878D01*
X144809Y165891D01*
X144815Y165903D01*
X144865Y166085D01*
X144917Y166265D01*
X144918Y166278D01*
X144922Y166291D01*
X144934Y166478D01*
X144950Y166666D01*
X144948Y166679D01*
X144949Y166693D01*
X144925Y166878D01*
X144903Y167066D01*
X144899Y167079D01*
X144897Y167092D01*
X144796Y167408D01*
X143950Y169449D01*
X143950Y171863D01*
X144874Y174094D01*
X146581Y175801D01*
X148812Y176725D01*
X151226Y176725D01*
X153456Y175801D01*
X155164Y174094D01*
X156087Y171863D01*
X156087Y169449D01*
X155242Y167408D01*
X155238Y167395D01*
X155232Y167383D01*
X155180Y167202D01*
X155125Y167022D01*
X155124Y167009D01*
X155120Y166996D01*
X155105Y166807D01*
X155087Y166622D01*
X155089Y166608D01*
X155088Y166595D01*
X155109Y166408D01*
X155129Y166221D01*
X155133Y166208D01*
X155135Y166195D01*
X155193Y166017D01*
X155249Y165837D01*
X155255Y165825D01*
X155259Y165812D01*
X155352Y165649D01*
X155442Y165484D01*
X155451Y165473D01*
X155457Y165462D01*
X155580Y165319D01*
X155701Y165175D01*
X155712Y165167D01*
X155720Y165157D01*
X155868Y165042D01*
X156016Y164924D01*
X156028Y164918D01*
X156039Y164910D01*
X156206Y164827D01*
X156374Y164741D01*
X156387Y164737D01*
X156399Y164731D01*
X156582Y164682D01*
X156762Y164631D01*
X156775Y164630D01*
X156788Y164626D01*
X157119Y164599D01*
X158636Y164599D01*
X158750Y164539D01*
X158767Y164534D01*
X158783Y164526D01*
X158961Y164476D01*
X159136Y164424D01*
X159153Y164423D01*
X159171Y164418D01*
X159353Y164404D01*
X159537Y164388D01*
X159555Y164390D01*
X159572Y164389D01*
X159753Y164411D01*
X159937Y164431D01*
X159954Y164437D01*
X159972Y164439D01*
X160145Y164497D01*
X160321Y164553D01*
X160336Y164561D01*
X160353Y164567D01*
X160409Y164599D01*
X160846Y164599D01*
X160860Y164601D01*
X160873Y164599D01*
X161059Y164620D01*
X161247Y164639D01*
X161260Y164643D01*
X161273Y164645D01*
X161452Y164702D01*
X161632Y164757D01*
X161644Y164764D01*
X161656Y164768D01*
X161821Y164860D01*
X161986Y164949D01*
X161996Y164958D01*
X162008Y164964D01*
X162151Y165087D01*
X162295Y165207D01*
X162304Y165217D01*
X162314Y165226D01*
X162430Y165375D01*
X162548Y165521D01*
X162554Y165532D01*
X162562Y165543D01*
X162647Y165712D01*
X162733Y165878D01*
X162737Y165891D01*
X162743Y165903D01*
X162793Y166085D01*
X162844Y166265D01*
X162846Y166278D01*
X162849Y166291D01*
X162862Y166479D01*
X162877Y166666D01*
X162876Y166679D01*
X162877Y166693D01*
X162852Y166880D01*
X162830Y167066D01*
X162826Y167079D01*
X162825Y167092D01*
X162723Y167408D01*
X162206Y168655D01*
X162206Y171070D01*
X163130Y173300D01*
X164837Y175007D01*
X167068Y175931D01*
X169482Y175931D01*
X171713Y175007D01*
X173420Y173300D01*
X174344Y171070D01*
X174344Y168655D01*
X173827Y167408D01*
X173823Y167395D01*
X173817Y167383D01*
X173765Y167203D01*
X173711Y167022D01*
X173709Y167009D01*
X173706Y166996D01*
X173690Y166807D01*
X173672Y166622D01*
X173674Y166608D01*
X173673Y166595D01*
X173695Y166409D01*
X173714Y166221D01*
X173718Y166208D01*
X173720Y166195D01*
X173778Y166017D01*
X173834Y165837D01*
X173840Y165825D01*
X173844Y165812D01*
X173937Y165649D01*
X174027Y165484D01*
X174036Y165473D01*
X174042Y165462D01*
X174165Y165320D01*
X174286Y165175D01*
X174297Y165167D01*
X174305Y165157D01*
X174453Y165042D01*
X174601Y164924D01*
X174613Y164918D01*
X174624Y164910D01*
X174792Y164827D01*
X174959Y164741D01*
X174972Y164737D01*
X174984Y164731D01*
X175167Y164682D01*
X175347Y164631D01*
X175360Y164630D01*
X175373Y164626D01*
X175704Y164599D01*
X177466Y164599D01*
X178805Y163260D01*
X178805Y143365D01*
X177466Y142026D01*
X160401Y142026D01*
X160288Y142086D01*
X160271Y142091D01*
X160255Y142099D01*
X160078Y142148D01*
X159902Y142201D01*
X159884Y142202D01*
X159867Y142207D01*
X159684Y142221D01*
X159501Y142237D01*
X159483Y142235D01*
X159465Y142237D01*
X159284Y142214D01*
X159101Y142194D01*
X159084Y142188D01*
X159066Y142186D01*
X158892Y142128D01*
X158717Y142072D01*
X158701Y142064D01*
X158684Y142058D01*
X158629Y142026D01*
X141401Y142026D01*
X141288Y142086D01*
X141271Y142091D01*
X141255Y142099D01*
X141078Y142148D01*
X140902Y142201D01*
X140884Y142202D01*
X140867Y142207D01*
X140684Y142221D01*
X140501Y142237D01*
X140483Y142235D01*
X140465Y142237D01*
X140284Y142214D01*
X140101Y142194D01*
X140084Y142188D01*
X140066Y142186D01*
X139892Y142128D01*
X139717Y142072D01*
X139701Y142064D01*
X139684Y142058D01*
X139629Y142026D01*
X122572Y142026D01*
G37*
%LPD*%
%LPC*%
G36*
X74072Y58526D02*
X74072Y58526D01*
X72732Y59865D01*
X72732Y60505D01*
X72731Y60519D01*
X72732Y60532D01*
X72711Y60718D01*
X72692Y60906D01*
X72688Y60919D01*
X72687Y60932D01*
X72629Y61110D01*
X72574Y61291D01*
X72568Y61303D01*
X72563Y61315D01*
X72472Y61479D01*
X72382Y61645D01*
X72374Y61655D01*
X72367Y61667D01*
X72244Y61810D01*
X72124Y61954D01*
X72114Y61962D01*
X72105Y61973D01*
X71957Y62088D01*
X71811Y62206D01*
X71799Y62212D01*
X71788Y62221D01*
X71620Y62305D01*
X71453Y62392D01*
X71441Y62395D01*
X71429Y62402D01*
X71247Y62451D01*
X71066Y62503D01*
X71053Y62504D01*
X71040Y62508D01*
X70853Y62521D01*
X70665Y62536D01*
X70652Y62534D01*
X70639Y62535D01*
X70453Y62511D01*
X70265Y62489D01*
X70253Y62485D01*
X70239Y62483D01*
X69923Y62382D01*
X69470Y62194D01*
X67055Y62194D01*
X64825Y63118D01*
X63118Y64825D01*
X62194Y67055D01*
X62194Y69470D01*
X63118Y71700D01*
X64825Y73407D01*
X67055Y74331D01*
X69470Y74331D01*
X69923Y74143D01*
X69936Y74139D01*
X69948Y74133D01*
X70129Y74081D01*
X70309Y74027D01*
X70322Y74026D01*
X70335Y74022D01*
X70524Y74006D01*
X70710Y73989D01*
X70723Y73990D01*
X70736Y73989D01*
X70923Y74011D01*
X71110Y74030D01*
X71123Y74034D01*
X71136Y74036D01*
X71314Y74094D01*
X71494Y74150D01*
X71506Y74157D01*
X71519Y74161D01*
X71683Y74253D01*
X71848Y74343D01*
X71858Y74352D01*
X71870Y74359D01*
X72012Y74482D01*
X72156Y74603D01*
X72164Y74613D01*
X72174Y74622D01*
X72289Y74770D01*
X72407Y74917D01*
X72413Y74929D01*
X72421Y74940D01*
X72504Y75108D01*
X72591Y75275D01*
X72594Y75288D01*
X72600Y75300D01*
X72649Y75483D01*
X72700Y75663D01*
X72701Y75676D01*
X72705Y75689D01*
X72732Y76020D01*
X72732Y76930D01*
X72792Y77043D01*
X72797Y77060D01*
X72805Y77077D01*
X72855Y77254D01*
X72907Y77429D01*
X72909Y77447D01*
X72913Y77464D01*
X72927Y77647D01*
X72943Y77830D01*
X72941Y77848D01*
X72943Y77866D01*
X72920Y78047D01*
X72900Y78231D01*
X72895Y78248D01*
X72892Y78265D01*
X72834Y78439D01*
X72778Y78614D01*
X72770Y78630D01*
X72764Y78647D01*
X72732Y78703D01*
X72732Y79555D01*
X72731Y79569D01*
X72732Y79582D01*
X72711Y79768D01*
X72692Y79956D01*
X72688Y79969D01*
X72687Y79982D01*
X72629Y80160D01*
X72574Y80341D01*
X72568Y80353D01*
X72563Y80365D01*
X72472Y80529D01*
X72382Y80695D01*
X72374Y80705D01*
X72367Y80717D01*
X72244Y80860D01*
X72124Y81004D01*
X72114Y81012D01*
X72105Y81023D01*
X71957Y81138D01*
X71811Y81256D01*
X71799Y81262D01*
X71788Y81271D01*
X71620Y81355D01*
X71453Y81442D01*
X71441Y81445D01*
X71429Y81452D01*
X71247Y81501D01*
X71066Y81553D01*
X71053Y81554D01*
X71040Y81558D01*
X70853Y81571D01*
X70665Y81586D01*
X70652Y81584D01*
X70639Y81585D01*
X70453Y81561D01*
X70265Y81539D01*
X70253Y81535D01*
X70239Y81533D01*
X69923Y81432D01*
X69470Y81244D01*
X67055Y81244D01*
X64825Y82168D01*
X63118Y83875D01*
X62194Y86105D01*
X62194Y88520D01*
X63118Y90750D01*
X64825Y92457D01*
X67055Y93381D01*
X69470Y93381D01*
X69923Y93193D01*
X69936Y93189D01*
X69948Y93183D01*
X70129Y93131D01*
X70309Y93077D01*
X70322Y93076D01*
X70335Y93072D01*
X70524Y93056D01*
X70710Y93039D01*
X70723Y93040D01*
X70736Y93039D01*
X70923Y93061D01*
X71110Y93080D01*
X71123Y93084D01*
X71136Y93086D01*
X71314Y93144D01*
X71494Y93200D01*
X71506Y93207D01*
X71519Y93211D01*
X71683Y93303D01*
X71848Y93393D01*
X71858Y93402D01*
X71870Y93409D01*
X72012Y93532D01*
X72156Y93653D01*
X72164Y93663D01*
X72174Y93672D01*
X72289Y93819D01*
X72407Y93967D01*
X72413Y93979D01*
X72421Y93990D01*
X72504Y94158D01*
X72591Y94325D01*
X72594Y94338D01*
X72600Y94350D01*
X72649Y94533D01*
X72700Y94713D01*
X72701Y94726D01*
X72705Y94739D01*
X72732Y95070D01*
X72732Y95930D01*
X72792Y96043D01*
X72797Y96060D01*
X72805Y96077D01*
X72855Y96254D01*
X72907Y96429D01*
X72909Y96447D01*
X72913Y96464D01*
X72927Y96647D01*
X72943Y96830D01*
X72941Y96848D01*
X72943Y96866D01*
X72920Y97047D01*
X72900Y97231D01*
X72895Y97248D01*
X72892Y97265D01*
X72834Y97439D01*
X72778Y97614D01*
X72770Y97630D01*
X72764Y97647D01*
X72681Y97792D01*
X72629Y97952D01*
X72574Y98132D01*
X72568Y98144D01*
X72563Y98157D01*
X72472Y98320D01*
X72382Y98486D01*
X72374Y98496D01*
X72367Y98508D01*
X72245Y98651D01*
X72124Y98795D01*
X72114Y98804D01*
X72105Y98814D01*
X71957Y98930D01*
X71811Y99048D01*
X71799Y99054D01*
X71788Y99062D01*
X71619Y99147D01*
X71453Y99233D01*
X71441Y99237D01*
X71429Y99243D01*
X71247Y99293D01*
X71066Y99344D01*
X71053Y99346D01*
X71040Y99349D01*
X70853Y99362D01*
X70665Y99377D01*
X70652Y99376D01*
X70639Y99377D01*
X70453Y99352D01*
X70265Y99330D01*
X70253Y99326D01*
X70239Y99325D01*
X69923Y99223D01*
X68676Y98706D01*
X66262Y98706D01*
X64031Y99630D01*
X62324Y101337D01*
X61400Y103568D01*
X61400Y105982D01*
X62324Y108213D01*
X64031Y109920D01*
X66262Y110844D01*
X68676Y110844D01*
X69923Y110327D01*
X69936Y110323D01*
X69948Y110317D01*
X70128Y110265D01*
X70309Y110211D01*
X70322Y110209D01*
X70335Y110206D01*
X70524Y110190D01*
X70710Y110172D01*
X70723Y110174D01*
X70736Y110173D01*
X70923Y110195D01*
X71110Y110214D01*
X71123Y110218D01*
X71136Y110220D01*
X71314Y110278D01*
X71494Y110334D01*
X71506Y110340D01*
X71519Y110344D01*
X71683Y110437D01*
X71848Y110527D01*
X71858Y110536D01*
X71870Y110542D01*
X72012Y110665D01*
X72156Y110786D01*
X72164Y110797D01*
X72174Y110805D01*
X72289Y110954D01*
X72407Y111101D01*
X72413Y111113D01*
X72421Y111124D01*
X72505Y111292D01*
X72591Y111459D01*
X72594Y111472D01*
X72600Y111484D01*
X72649Y111666D01*
X72700Y111847D01*
X72701Y111860D01*
X72705Y111873D01*
X72732Y112204D01*
X72732Y114760D01*
X74072Y116099D01*
X93966Y116099D01*
X95305Y114760D01*
X95305Y97695D01*
X95245Y97582D01*
X95240Y97565D01*
X95232Y97549D01*
X95183Y97372D01*
X95131Y97196D01*
X95129Y97178D01*
X95124Y97161D01*
X95111Y96978D01*
X95094Y96795D01*
X95096Y96777D01*
X95095Y96759D01*
X95118Y96577D01*
X95137Y96395D01*
X95143Y96377D01*
X95145Y96360D01*
X95204Y96186D01*
X95259Y96011D01*
X95268Y95995D01*
X95273Y95978D01*
X95305Y95922D01*
X95305Y78695D01*
X95245Y78582D01*
X95240Y78565D01*
X95232Y78549D01*
X95183Y78371D01*
X95131Y78196D01*
X95129Y78178D01*
X95124Y78161D01*
X95111Y77976D01*
X95094Y77795D01*
X95096Y77777D01*
X95095Y77759D01*
X95118Y77577D01*
X95137Y77395D01*
X95143Y77377D01*
X95145Y77360D01*
X95204Y77186D01*
X95259Y77011D01*
X95268Y76995D01*
X95273Y76978D01*
X95305Y76922D01*
X95305Y59865D01*
X93966Y58526D01*
X74072Y58526D01*
G37*
%LPD*%
G36*
X-98352Y-56578D02*
X-98352Y-56578D01*
X-98325Y-56578D01*
X-98227Y-56541D01*
X-98188Y-56530D01*
X-98180Y-56524D01*
X-98169Y-56520D01*
X-51369Y-29520D01*
X-51349Y-29502D01*
X-51324Y-29491D01*
X-51275Y-29437D01*
X-51220Y-29388D01*
X-51209Y-29364D01*
X-51190Y-29344D01*
X-51166Y-29275D01*
X-51134Y-29209D01*
X-51133Y-29182D01*
X-51124Y-29156D01*
X-51129Y-29083D01*
X-51126Y-29010D01*
X-51135Y-28985D01*
X-51137Y-28958D01*
X-51181Y-28862D01*
X-51195Y-28824D01*
X-51201Y-28817D01*
X-51206Y-28806D01*
X-53480Y-25470D01*
X-53502Y-25447D01*
X-53526Y-25411D01*
X-56271Y-22451D01*
X-56297Y-22432D01*
X-56326Y-22400D01*
X-59482Y-19881D01*
X-59510Y-19867D01*
X-59544Y-19839D01*
X-63040Y-17819D01*
X-63070Y-17809D01*
X-63107Y-17787D01*
X-66865Y-16311D01*
X-66897Y-16305D01*
X-66936Y-16289D01*
X-70873Y-15389D01*
X-70904Y-15388D01*
X-70946Y-15378D01*
X-74973Y-15075D01*
X-75004Y-15079D01*
X-75047Y-15075D01*
X-79074Y-15375D01*
X-79104Y-15384D01*
X-79148Y-15386D01*
X-83084Y-16283D01*
X-83113Y-16297D01*
X-83156Y-16305D01*
X-86915Y-17779D01*
X-86941Y-17797D01*
X-86982Y-17812D01*
X-90479Y-19829D01*
X-90503Y-19850D01*
X-90541Y-19871D01*
X-93698Y-22388D01*
X-93719Y-22412D01*
X-93753Y-22439D01*
X-96500Y-25397D01*
X-96517Y-25425D01*
X-96547Y-25456D01*
X-98823Y-28791D01*
X-98835Y-28820D01*
X-98860Y-28856D01*
X-100613Y-32493D01*
X-100621Y-32524D01*
X-100640Y-32562D01*
X-101832Y-36420D01*
X-101835Y-36452D01*
X-101848Y-36493D01*
X-102451Y-40485D01*
X-102450Y-40517D01*
X-102457Y-40560D01*
X-102458Y-44598D01*
X-102455Y-44612D01*
X-102457Y-44621D01*
X-102452Y-44641D01*
X-102453Y-44672D01*
X-101852Y-48665D01*
X-101841Y-48695D01*
X-101835Y-48737D01*
X-100647Y-52596D01*
X-100631Y-52624D01*
X-100619Y-52666D01*
X-98869Y-56304D01*
X-98852Y-56326D01*
X-98843Y-56351D01*
X-98793Y-56404D01*
X-98748Y-56462D01*
X-98725Y-56476D01*
X-98706Y-56496D01*
X-98639Y-56525D01*
X-98576Y-56561D01*
X-98549Y-56565D01*
X-98524Y-56576D01*
X-98451Y-56576D01*
X-98379Y-56585D01*
X-98352Y-56578D01*
G37*
G36*
X-75016Y189704D02*
X-75016Y189704D01*
X-74973Y189700D01*
X-70946Y190003D01*
X-70916Y190011D01*
X-70873Y190014D01*
X-66936Y190914D01*
X-66907Y190927D01*
X-66865Y190936D01*
X-63107Y192412D01*
X-63080Y192429D01*
X-63040Y192444D01*
X-59544Y194464D01*
X-59520Y194485D01*
X-59482Y194506D01*
X-56326Y197025D01*
X-56306Y197049D01*
X-56271Y197076D01*
X-53526Y200036D01*
X-53509Y200064D01*
X-53480Y200095D01*
X-51206Y203431D01*
X-51196Y203457D01*
X-51178Y203477D01*
X-51157Y203547D01*
X-51129Y203615D01*
X-51129Y203642D01*
X-51122Y203668D01*
X-51130Y203741D01*
X-51130Y203814D01*
X-51141Y203839D01*
X-51144Y203866D01*
X-51179Y203929D01*
X-51208Y203996D01*
X-51228Y204015D01*
X-51241Y204039D01*
X-51322Y204106D01*
X-51351Y204134D01*
X-51360Y204138D01*
X-51369Y204145D01*
X-98169Y231145D01*
X-98195Y231154D01*
X-98217Y231169D01*
X-98288Y231185D01*
X-98358Y231208D01*
X-98385Y231206D01*
X-98412Y231212D01*
X-98483Y231198D01*
X-98556Y231193D01*
X-98580Y231180D01*
X-98607Y231175D01*
X-98668Y231134D01*
X-98733Y231101D01*
X-98750Y231080D01*
X-98773Y231065D01*
X-98833Y230979D01*
X-98859Y230948D01*
X-98862Y230938D01*
X-98869Y230929D01*
X-100619Y227291D01*
X-100627Y227260D01*
X-100647Y227221D01*
X-101835Y223362D01*
X-101839Y223331D01*
X-101852Y223290D01*
X-102453Y219297D01*
X-102451Y219265D01*
X-102458Y219223D01*
X-102457Y215185D01*
X-102451Y215155D01*
X-102453Y215143D01*
X-102451Y215135D01*
X-102451Y215110D01*
X-101848Y211118D01*
X-101837Y211088D01*
X-101832Y211045D01*
X-100640Y207187D01*
X-100625Y207159D01*
X-100613Y207118D01*
X-98860Y203481D01*
X-98841Y203455D01*
X-98823Y203416D01*
X-96547Y200081D01*
X-96524Y200059D01*
X-96500Y200022D01*
X-93753Y197064D01*
X-93727Y197045D01*
X-93698Y197013D01*
X-90541Y194496D01*
X-90512Y194482D01*
X-90479Y194454D01*
X-86982Y192437D01*
X-86952Y192427D01*
X-86915Y192404D01*
X-83156Y190930D01*
X-83124Y190925D01*
X-83084Y190908D01*
X-79148Y190011D01*
X-79116Y190010D01*
X-79074Y190000D01*
X-75047Y189700D01*
X-75016Y189704D01*
G37*
G36*
X-201554Y-56573D02*
X-201554Y-56573D01*
X-201481Y-56568D01*
X-201457Y-56555D01*
X-201431Y-56550D01*
X-201370Y-56509D01*
X-201305Y-56476D01*
X-201288Y-56455D01*
X-201265Y-56440D01*
X-201204Y-56354D01*
X-201178Y-56323D01*
X-201176Y-56313D01*
X-201169Y-56304D01*
X-199418Y-52666D01*
X-199410Y-52635D01*
X-199391Y-52596D01*
X-198202Y-48737D01*
X-198199Y-48706D01*
X-198185Y-48665D01*
X-197585Y-44672D01*
X-197587Y-44640D01*
X-197579Y-44598D01*
X-197581Y-40560D01*
X-197587Y-40529D01*
X-197586Y-40485D01*
X-198189Y-36493D01*
X-198200Y-36463D01*
X-198206Y-36420D01*
X-199397Y-32562D01*
X-199413Y-32534D01*
X-199425Y-32493D01*
X-201178Y-28856D01*
X-201197Y-28830D01*
X-201215Y-28791D01*
X-203491Y-25456D01*
X-203513Y-25434D01*
X-203537Y-25397D01*
X-206284Y-22439D01*
X-206310Y-22420D01*
X-206339Y-22388D01*
X-209497Y-19871D01*
X-209525Y-19857D01*
X-209558Y-19829D01*
X-213056Y-17812D01*
X-213086Y-17802D01*
X-213123Y-17779D01*
X-216882Y-16305D01*
X-216913Y-16300D01*
X-216953Y-16283D01*
X-220890Y-15386D01*
X-220922Y-15385D01*
X-220964Y-15375D01*
X-224990Y-15075D01*
X-225022Y-15079D01*
X-225065Y-15075D01*
X-229091Y-15378D01*
X-229122Y-15386D01*
X-229165Y-15389D01*
X-233101Y-16289D01*
X-233130Y-16302D01*
X-233172Y-16311D01*
X-236930Y-17787D01*
X-236957Y-17804D01*
X-236998Y-17819D01*
X-240494Y-19839D01*
X-240518Y-19860D01*
X-240555Y-19881D01*
X-243711Y-22400D01*
X-243732Y-22424D01*
X-243766Y-22451D01*
X-246511Y-25411D01*
X-246528Y-25439D01*
X-246558Y-25470D01*
X-248831Y-28806D01*
X-248842Y-28832D01*
X-248859Y-28852D01*
X-248880Y-28922D01*
X-248908Y-28990D01*
X-248908Y-29017D01*
X-248916Y-29043D01*
X-248908Y-29116D01*
X-248908Y-29189D01*
X-248897Y-29214D01*
X-248894Y-29241D01*
X-248858Y-29304D01*
X-248829Y-29371D01*
X-248810Y-29390D01*
X-248796Y-29414D01*
X-248715Y-29481D01*
X-248686Y-29509D01*
X-248677Y-29513D01*
X-248668Y-29520D01*
X-201868Y-56520D01*
X-201842Y-56529D01*
X-201820Y-56544D01*
X-201749Y-56560D01*
X-201680Y-56583D01*
X-201652Y-56581D01*
X-201626Y-56587D01*
X-201554Y-56573D01*
G37*
G36*
X-220964Y190000D02*
X-220964Y190000D01*
X-220933Y190009D01*
X-220890Y190011D01*
X-216953Y190908D01*
X-216924Y190922D01*
X-216882Y190930D01*
X-213123Y192404D01*
X-213096Y192422D01*
X-213056Y192437D01*
X-209558Y194454D01*
X-209534Y194475D01*
X-209497Y194496D01*
X-206339Y197013D01*
X-206319Y197037D01*
X-206284Y197064D01*
X-203537Y200022D01*
X-203521Y200050D01*
X-203491Y200081D01*
X-201215Y203416D01*
X-201203Y203445D01*
X-201178Y203481D01*
X-199425Y207118D01*
X-199417Y207149D01*
X-199397Y207187D01*
X-198206Y211045D01*
X-198203Y211077D01*
X-198189Y211118D01*
X-197586Y215110D01*
X-197588Y215142D01*
X-197581Y215185D01*
X-197579Y219223D01*
X-197586Y219254D01*
X-197585Y219297D01*
X-198185Y223290D01*
X-198196Y223320D01*
X-198202Y223362D01*
X-199391Y227221D01*
X-199406Y227249D01*
X-199418Y227291D01*
X-201169Y230929D01*
X-201185Y230951D01*
X-201195Y230976D01*
X-201245Y231029D01*
X-201289Y231087D01*
X-201313Y231101D01*
X-201331Y231121D01*
X-201398Y231150D01*
X-201462Y231186D01*
X-201489Y231190D01*
X-201513Y231201D01*
X-201587Y231201D01*
X-201659Y231210D01*
X-201685Y231203D01*
X-201712Y231203D01*
X-201811Y231166D01*
X-201850Y231155D01*
X-201857Y231149D01*
X-201868Y231145D01*
X-248668Y204145D01*
X-248689Y204127D01*
X-248713Y204116D01*
X-248763Y204062D01*
X-248817Y204013D01*
X-248829Y203989D01*
X-248847Y203969D01*
X-248872Y203900D01*
X-248903Y203834D01*
X-248904Y203807D01*
X-248913Y203781D01*
X-248909Y203708D01*
X-248912Y203635D01*
X-248903Y203610D01*
X-248901Y203583D01*
X-248857Y203487D01*
X-248843Y203449D01*
X-248836Y203442D01*
X-248831Y203431D01*
X-246558Y200095D01*
X-246535Y200072D01*
X-246511Y200036D01*
X-243766Y197076D01*
X-243740Y197057D01*
X-243711Y197025D01*
X-240555Y194506D01*
X-240527Y194492D01*
X-240494Y194464D01*
X-236998Y192444D01*
X-236968Y192434D01*
X-236930Y192412D01*
X-233172Y190936D01*
X-233141Y190930D01*
X-233101Y190914D01*
X-229165Y190014D01*
X-229133Y190013D01*
X-229091Y190003D01*
X-225065Y189700D01*
X-225033Y189704D01*
X-224990Y189700D01*
X-220964Y190000D01*
G37*
G36*
X-299993Y59816D02*
X-299993Y59816D01*
X-299981Y59815D01*
X-295957Y60116D01*
X-295927Y60125D01*
X-295884Y60127D01*
X-291949Y61025D01*
X-291920Y61038D01*
X-291878Y61047D01*
X-288121Y62522D01*
X-288095Y62539D01*
X-288054Y62554D01*
X-284559Y64572D01*
X-284536Y64593D01*
X-284498Y64614D01*
X-281343Y67130D01*
X-281322Y67154D01*
X-281288Y67181D01*
X-278543Y70139D01*
X-278527Y70166D01*
X-278497Y70197D01*
X-276224Y73531D01*
X-276211Y73561D01*
X-276186Y73596D01*
X-274435Y77232D01*
X-274428Y77263D01*
X-274408Y77301D01*
X-273219Y81157D01*
X-273216Y81189D01*
X-273202Y81230D01*
X-272601Y85220D01*
X-272602Y85252D01*
X-272595Y85295D01*
X-272595Y89330D01*
X-272601Y89361D01*
X-272601Y89405D01*
X-273202Y93395D01*
X-273213Y93425D01*
X-273219Y93468D01*
X-274408Y97324D01*
X-274423Y97352D01*
X-274435Y97393D01*
X-276186Y101029D01*
X-276206Y101055D01*
X-276224Y101094D01*
X-278497Y104428D01*
X-278520Y104450D01*
X-278543Y104486D01*
X-281288Y107444D01*
X-281314Y107463D01*
X-281343Y107495D01*
X-284498Y110011D01*
X-284526Y110026D01*
X-284559Y110053D01*
X-288054Y112071D01*
X-288084Y112081D01*
X-288121Y112103D01*
X-291878Y113578D01*
X-291909Y113583D01*
X-291949Y113600D01*
X-295884Y114498D01*
X-295915Y114498D01*
X-295957Y114509D01*
X-299981Y114810D01*
X-300008Y114807D01*
X-300035Y114811D01*
X-300106Y114795D01*
X-300179Y114785D01*
X-300202Y114772D01*
X-300229Y114765D01*
X-300287Y114722D01*
X-300351Y114685D01*
X-300367Y114664D01*
X-300389Y114648D01*
X-300426Y114585D01*
X-300470Y114526D01*
X-300476Y114500D01*
X-300490Y114477D01*
X-300508Y114373D01*
X-300518Y114333D01*
X-300516Y114324D01*
X-300518Y114313D01*
X-300518Y60313D01*
X-300513Y60286D01*
X-300515Y60259D01*
X-300493Y60189D01*
X-300478Y60118D01*
X-300463Y60095D01*
X-300455Y60069D01*
X-300407Y60014D01*
X-300366Y59954D01*
X-300343Y59939D01*
X-300325Y59918D01*
X-300260Y59886D01*
X-300198Y59847D01*
X-300171Y59842D01*
X-300147Y59830D01*
X-300042Y59820D01*
X-300002Y59814D01*
X-299993Y59816D01*
G37*
G36*
X1610Y154408D02*
X1610Y154408D01*
X1659Y154408D01*
X4803Y154940D01*
X4835Y154953D01*
X4884Y154961D01*
X7895Y156009D01*
X7925Y156027D01*
X7971Y156043D01*
X10765Y157579D01*
X10792Y157602D01*
X10835Y157626D01*
X13334Y159606D01*
X13356Y159633D01*
X13395Y159663D01*
X15528Y162033D01*
X15546Y162063D01*
X15579Y162100D01*
X17287Y164792D01*
X17300Y164824D01*
X17326Y164866D01*
X18562Y167805D01*
X18568Y167840D01*
X18587Y167885D01*
X19315Y170989D01*
X19317Y171024D01*
X19328Y171072D01*
X19528Y174254D01*
X19523Y174289D01*
X19526Y174337D01*
X19193Y177509D01*
X19182Y177542D01*
X19177Y177591D01*
X18320Y180662D01*
X18304Y180693D01*
X18291Y180740D01*
X16933Y183625D01*
X16916Y183648D01*
X16905Y183676D01*
X16857Y183728D01*
X16814Y183785D01*
X16789Y183799D01*
X16769Y183820D01*
X16704Y183849D01*
X16643Y183885D01*
X16614Y183889D01*
X16587Y183900D01*
X16516Y183901D01*
X16445Y183910D01*
X16417Y183903D01*
X16388Y183903D01*
X16295Y183868D01*
X16254Y183857D01*
X16245Y183850D01*
X16232Y183845D01*
X-19Y174489D01*
X-16270Y183845D01*
X-16297Y183854D01*
X-16321Y183871D01*
X-16391Y183886D01*
X-16458Y183908D01*
X-16487Y183906D01*
X-16516Y183912D01*
X-16586Y183898D01*
X-16657Y183892D01*
X-16682Y183879D01*
X-16711Y183873D01*
X-16770Y183833D01*
X-16833Y183801D01*
X-16851Y183778D01*
X-16876Y183762D01*
X-16932Y183680D01*
X-16959Y183647D01*
X-16963Y183636D01*
X-16971Y183625D01*
X-18328Y180740D01*
X-18336Y180706D01*
X-18357Y180662D01*
X-19215Y177591D01*
X-19217Y177556D01*
X-19230Y177509D01*
X-19564Y174337D01*
X-19560Y174303D01*
X-19565Y174254D01*
X-19365Y171072D01*
X-19356Y171038D01*
X-19353Y170989D01*
X-18625Y167885D01*
X-18610Y167853D01*
X-18599Y167805D01*
X-17363Y164866D01*
X-17344Y164837D01*
X-17325Y164792D01*
X-15616Y162100D01*
X-15592Y162074D01*
X-15566Y162033D01*
X-13432Y159663D01*
X-13404Y159643D01*
X-13371Y159606D01*
X-10872Y157626D01*
X-10841Y157610D01*
X-10803Y157579D01*
X-8009Y156043D01*
X-7975Y156033D01*
X-7932Y156009D01*
X-4921Y154961D01*
X-4886Y154956D01*
X-4840Y154940D01*
X-1696Y154408D01*
X-1661Y154409D01*
X-1613Y154401D01*
X1576Y154401D01*
X1610Y154408D01*
G37*
G36*
X16548Y-9273D02*
X16548Y-9273D01*
X16619Y-9267D01*
X16645Y-9254D01*
X16673Y-9248D01*
X16732Y-9208D01*
X16795Y-9176D01*
X16814Y-9153D01*
X16838Y-9137D01*
X16895Y-9055D01*
X16922Y-9022D01*
X16925Y-9011D01*
X16933Y-9000D01*
X18291Y-6115D01*
X18299Y-6081D01*
X18320Y-6037D01*
X19177Y-2966D01*
X19180Y-2931D01*
X19193Y-2884D01*
X19526Y288D01*
X19523Y323D01*
X19528Y371D01*
X19328Y3553D01*
X19319Y3587D01*
X19315Y3636D01*
X18587Y6740D01*
X18573Y6772D01*
X18562Y6820D01*
X17326Y9759D01*
X17306Y9788D01*
X17287Y9833D01*
X15579Y12525D01*
X15554Y12551D01*
X15528Y12592D01*
X13395Y14962D01*
X13366Y14982D01*
X13334Y15019D01*
X10835Y16999D01*
X10804Y17015D01*
X10765Y17046D01*
X7971Y18582D01*
X7938Y18592D01*
X7895Y18616D01*
X7815Y18644D01*
X6381Y19143D01*
X4948Y19642D01*
X4947Y19642D01*
X4884Y19664D01*
X4849Y19669D01*
X4803Y19685D01*
X1659Y20217D01*
X1624Y20216D01*
X1576Y20224D01*
X-1613Y20224D01*
X-1647Y20217D01*
X-1696Y20217D01*
X-4840Y19685D01*
X-4873Y19672D01*
X-4921Y19664D01*
X-7932Y18616D01*
X-7962Y18598D01*
X-8009Y18582D01*
X-10803Y17046D01*
X-10830Y17023D01*
X-10872Y16999D01*
X-13371Y15019D01*
X-13394Y14992D01*
X-13432Y14962D01*
X-15566Y12592D01*
X-15584Y12562D01*
X-15616Y12525D01*
X-17325Y9833D01*
X-17337Y9801D01*
X-17363Y9759D01*
X-18599Y6820D01*
X-18606Y6785D01*
X-18625Y6740D01*
X-19353Y3636D01*
X-19354Y3601D01*
X-19365Y3553D01*
X-19565Y371D01*
X-19561Y336D01*
X-19564Y288D01*
X-19230Y-2884D01*
X-19220Y-2917D01*
X-19215Y-2966D01*
X-18357Y-6037D01*
X-18341Y-6068D01*
X-18328Y-6115D01*
X-16971Y-9000D01*
X-16953Y-9023D01*
X-16943Y-9051D01*
X-16894Y-9103D01*
X-16852Y-9160D01*
X-16827Y-9174D01*
X-16807Y-9195D01*
X-16741Y-9224D01*
X-16680Y-9260D01*
X-16651Y-9264D01*
X-16624Y-9275D01*
X-16553Y-9276D01*
X-16483Y-9285D01*
X-16455Y-9278D01*
X-16426Y-9278D01*
X-16333Y-9243D01*
X-16291Y-9232D01*
X-16283Y-9225D01*
X-16270Y-9220D01*
X-19Y136D01*
X16232Y-9220D01*
X16260Y-9229D01*
X16284Y-9246D01*
X16354Y-9261D01*
X16421Y-9283D01*
X16450Y-9281D01*
X16478Y-9287D01*
X16548Y-9273D01*
G37*
G36*
X-300010Y154377D02*
X-300010Y154377D01*
X-299997Y154375D01*
X-296941Y154622D01*
X-296908Y154632D01*
X-296861Y154635D01*
X-293884Y155369D01*
X-293854Y155383D01*
X-293808Y155394D01*
X-290987Y156596D01*
X-290959Y156615D01*
X-290916Y156633D01*
X-288325Y158272D01*
X-288300Y158296D01*
X-288260Y158321D01*
X-285965Y160354D01*
X-285945Y160381D01*
X-285910Y160412D01*
X-283970Y162787D01*
X-283955Y162817D01*
X-283925Y162853D01*
X-282392Y165508D01*
X-282381Y165541D01*
X-282357Y165581D01*
X-281270Y168448D01*
X-281264Y168481D01*
X-281248Y168525D01*
X-280634Y171529D01*
X-280634Y171563D01*
X-280625Y171609D01*
X-280501Y174673D01*
X-280507Y174706D01*
X-280504Y174753D01*
X-280874Y177797D01*
X-280885Y177829D01*
X-280890Y177876D01*
X-281743Y180821D01*
X-281759Y180851D01*
X-281772Y180896D01*
X-283086Y183666D01*
X-283103Y183689D01*
X-283114Y183716D01*
X-283163Y183768D01*
X-283205Y183825D01*
X-283230Y183840D01*
X-283250Y183861D01*
X-283316Y183889D01*
X-283377Y183925D01*
X-283406Y183929D01*
X-283433Y183940D01*
X-283504Y183941D01*
X-283575Y183950D01*
X-283603Y183942D01*
X-283631Y183942D01*
X-283725Y183907D01*
X-283766Y183896D01*
X-283775Y183889D01*
X-283787Y183884D01*
X-300265Y174345D01*
X-300322Y174293D01*
X-300384Y174248D01*
X-300396Y174228D01*
X-300413Y174213D01*
X-300446Y174143D01*
X-300486Y174077D01*
X-300490Y174052D01*
X-300499Y174033D01*
X-300501Y173989D01*
X-300514Y173913D01*
X-300536Y154874D01*
X-300531Y154845D01*
X-300533Y154816D01*
X-300511Y154749D01*
X-300497Y154679D01*
X-300481Y154655D01*
X-300472Y154627D01*
X-300425Y154573D01*
X-300385Y154515D01*
X-300360Y154499D01*
X-300341Y154477D01*
X-300277Y154446D01*
X-300217Y154407D01*
X-300189Y154403D01*
X-300163Y154390D01*
X-300063Y154381D01*
X-300021Y154374D01*
X-300010Y154377D01*
G37*
G36*
X-283472Y-9313D02*
X-283472Y-9313D01*
X-283401Y-9307D01*
X-283375Y-9294D01*
X-283346Y-9288D01*
X-283287Y-9248D01*
X-283224Y-9216D01*
X-283205Y-9193D01*
X-283181Y-9177D01*
X-283124Y-9095D01*
X-283097Y-9063D01*
X-283094Y-9052D01*
X-283086Y-9041D01*
X-281772Y-6271D01*
X-281763Y-6238D01*
X-281743Y-6196D01*
X-280890Y-3251D01*
X-280887Y-3217D01*
X-280874Y-3172D01*
X-280504Y-128D01*
X-280507Y-94D01*
X-280501Y-48D01*
X-280625Y3016D01*
X-280633Y3049D01*
X-280634Y3096D01*
X-281248Y6100D01*
X-281261Y6131D01*
X-281270Y6177D01*
X-282357Y9044D01*
X-282375Y9073D01*
X-282392Y9117D01*
X-283925Y11772D01*
X-283947Y11798D01*
X-283970Y11838D01*
X-285910Y14213D01*
X-285936Y14235D01*
X-285965Y14271D01*
X-288260Y16305D01*
X-288290Y16321D01*
X-288325Y16353D01*
X-290916Y17992D01*
X-290948Y18004D01*
X-290987Y18029D01*
X-293808Y19231D01*
X-293841Y19238D01*
X-293884Y19256D01*
X-296861Y19990D01*
X-296895Y19991D01*
X-296941Y20003D01*
X-299997Y20250D01*
X-300026Y20246D01*
X-300054Y20251D01*
X-300124Y20234D01*
X-300194Y20226D01*
X-300220Y20211D01*
X-300248Y20205D01*
X-300305Y20162D01*
X-300367Y20127D01*
X-300384Y20104D01*
X-300408Y20087D01*
X-300444Y20025D01*
X-300487Y19968D01*
X-300494Y19940D01*
X-300509Y19915D01*
X-300525Y19817D01*
X-300536Y19776D01*
X-300534Y19765D01*
X-300536Y19751D01*
X-300514Y712D01*
X-300498Y637D01*
X-300490Y560D01*
X-300478Y540D01*
X-300474Y517D01*
X-300430Y454D01*
X-300393Y387D01*
X-300373Y370D01*
X-300361Y353D01*
X-300323Y329D01*
X-300265Y280D01*
X-283787Y-9259D01*
X-283760Y-9268D01*
X-283736Y-9285D01*
X-283666Y-9300D01*
X-283599Y-9322D01*
X-283570Y-9320D01*
X-283542Y-9326D01*
X-283472Y-9313D01*
G37*
G36*
X149997Y-86377D02*
X149997Y-86377D01*
X150074Y-86378D01*
X150099Y-86369D01*
X150119Y-86367D01*
X150159Y-86347D01*
X150230Y-86320D01*
X166730Y-76820D01*
X166752Y-76801D01*
X166778Y-76789D01*
X166812Y-76751D01*
X166815Y-76749D01*
X166818Y-76745D01*
X166826Y-76736D01*
X166879Y-76689D01*
X166892Y-76663D01*
X166911Y-76641D01*
X166935Y-76574D01*
X166965Y-76509D01*
X166967Y-76480D01*
X166976Y-76453D01*
X166971Y-76382D01*
X166975Y-76311D01*
X166965Y-76284D01*
X166963Y-76255D01*
X166920Y-76164D01*
X166905Y-76124D01*
X166898Y-76116D01*
X166892Y-76104D01*
X165150Y-73580D01*
X165126Y-73557D01*
X165100Y-73518D01*
X162976Y-71307D01*
X162948Y-71288D01*
X162915Y-71254D01*
X160464Y-69412D01*
X160433Y-69397D01*
X160396Y-69369D01*
X157681Y-67944D01*
X157649Y-67934D01*
X157607Y-67912D01*
X154699Y-66941D01*
X154673Y-66938D01*
X154663Y-66937D01*
X154621Y-66922D01*
X151594Y-66430D01*
X151561Y-66432D01*
X151514Y-66424D01*
X148448Y-66424D01*
X148415Y-66431D01*
X148368Y-66430D01*
X145342Y-66922D01*
X145310Y-66934D01*
X145264Y-66941D01*
X142355Y-67912D01*
X142326Y-67929D01*
X142281Y-67944D01*
X139566Y-69369D01*
X139540Y-69390D01*
X139498Y-69412D01*
X137047Y-71254D01*
X137025Y-71279D01*
X136987Y-71307D01*
X134863Y-73518D01*
X134845Y-73547D01*
X134812Y-73580D01*
X133070Y-76104D01*
X133059Y-76131D01*
X133041Y-76153D01*
X133020Y-76221D01*
X132992Y-76287D01*
X132992Y-76316D01*
X132984Y-76343D01*
X132992Y-76415D01*
X132992Y-76486D01*
X133003Y-76512D01*
X133006Y-76541D01*
X133041Y-76603D01*
X133069Y-76669D01*
X133090Y-76689D01*
X133104Y-76714D01*
X133167Y-76766D01*
X133171Y-76772D01*
X133180Y-76777D01*
X133181Y-76778D01*
X133211Y-76808D01*
X133222Y-76812D01*
X133232Y-76820D01*
X149732Y-86320D01*
X149805Y-86344D01*
X149876Y-86375D01*
X149899Y-86376D01*
X149921Y-86383D01*
X149997Y-86377D01*
G37*
G36*
X-150003Y-86377D02*
X-150003Y-86377D01*
X-149926Y-86378D01*
X-149901Y-86369D01*
X-149881Y-86367D01*
X-149841Y-86347D01*
X-149770Y-86320D01*
X-133270Y-76820D01*
X-133248Y-76801D01*
X-133222Y-76789D01*
X-133188Y-76751D01*
X-133185Y-76749D01*
X-133182Y-76745D01*
X-133174Y-76736D01*
X-133121Y-76689D01*
X-133108Y-76663D01*
X-133089Y-76641D01*
X-133065Y-76574D01*
X-133035Y-76509D01*
X-133033Y-76480D01*
X-133024Y-76453D01*
X-133029Y-76382D01*
X-133025Y-76311D01*
X-133036Y-76284D01*
X-133038Y-76255D01*
X-133080Y-76164D01*
X-133095Y-76124D01*
X-133102Y-76116D01*
X-133108Y-76104D01*
X-134850Y-73580D01*
X-134874Y-73557D01*
X-134900Y-73518D01*
X-137025Y-71307D01*
X-137052Y-71288D01*
X-137085Y-71254D01*
X-139536Y-69412D01*
X-139567Y-69397D01*
X-139604Y-69369D01*
X-142319Y-67944D01*
X-142351Y-67934D01*
X-142393Y-67912D01*
X-145301Y-66941D01*
X-145327Y-66938D01*
X-145337Y-66937D01*
X-145379Y-66922D01*
X-148406Y-66430D01*
X-148439Y-66432D01*
X-148486Y-66424D01*
X-151552Y-66424D01*
X-151585Y-66431D01*
X-151632Y-66430D01*
X-154658Y-66922D01*
X-154690Y-66934D01*
X-154736Y-66941D01*
X-157645Y-67912D01*
X-157674Y-67929D01*
X-157719Y-67944D01*
X-160434Y-69369D01*
X-160460Y-69390D01*
X-160502Y-69412D01*
X-162953Y-71254D01*
X-162975Y-71279D01*
X-163013Y-71307D01*
X-165137Y-73518D01*
X-165155Y-73547D01*
X-165188Y-73580D01*
X-166930Y-76104D01*
X-166941Y-76131D01*
X-166959Y-76153D01*
X-166980Y-76221D01*
X-167008Y-76287D01*
X-167008Y-76316D01*
X-167016Y-76343D01*
X-167008Y-76415D01*
X-167008Y-76486D01*
X-166997Y-76512D01*
X-166994Y-76541D01*
X-166959Y-76603D01*
X-166931Y-76669D01*
X-166910Y-76689D01*
X-166896Y-76714D01*
X-166833Y-76766D01*
X-166829Y-76772D01*
X-166820Y-76777D01*
X-166819Y-76778D01*
X-166789Y-76808D01*
X-166778Y-76812D01*
X-166768Y-76820D01*
X-150268Y-86320D01*
X-150195Y-86344D01*
X-150124Y-86375D01*
X-150101Y-86376D01*
X-150079Y-86383D01*
X-150003Y-86377D01*
G37*
G36*
X151548Y241056D02*
X151548Y241056D01*
X151594Y241055D01*
X154621Y241547D01*
X154653Y241559D01*
X154699Y241566D01*
X157607Y242537D01*
X157637Y242554D01*
X157681Y242569D01*
X160396Y243994D01*
X160423Y244015D01*
X160464Y244037D01*
X162915Y245879D01*
X162938Y245904D01*
X162976Y245932D01*
X165100Y248143D01*
X165118Y248172D01*
X165150Y248205D01*
X166892Y250729D01*
X166904Y250756D01*
X166922Y250778D01*
X166942Y250846D01*
X166970Y250912D01*
X166970Y250941D01*
X166979Y250968D01*
X166971Y251040D01*
X166971Y251111D01*
X166960Y251137D01*
X166956Y251166D01*
X166921Y251228D01*
X166894Y251294D01*
X166873Y251314D01*
X166859Y251339D01*
X166782Y251403D01*
X166751Y251433D01*
X166741Y251437D01*
X166730Y251445D01*
X150230Y260945D01*
X150158Y260969D01*
X150087Y261000D01*
X150064Y261001D01*
X150042Y261008D01*
X149965Y261002D01*
X149888Y261003D01*
X149864Y260994D01*
X149844Y260992D01*
X149804Y260972D01*
X149732Y260945D01*
X133232Y251445D01*
X133211Y251426D01*
X133184Y251414D01*
X133137Y251361D01*
X133083Y251314D01*
X133071Y251288D01*
X133051Y251266D01*
X133028Y251199D01*
X132997Y251134D01*
X132996Y251105D01*
X132986Y251078D01*
X132991Y251007D01*
X132988Y250936D01*
X132998Y250909D01*
X133000Y250880D01*
X133042Y250789D01*
X133057Y250749D01*
X133065Y250741D01*
X133070Y250729D01*
X134812Y248205D01*
X134837Y248182D01*
X134863Y248143D01*
X136987Y245932D01*
X137015Y245913D01*
X137047Y245879D01*
X139498Y244037D01*
X139529Y244022D01*
X139566Y243994D01*
X142281Y242569D01*
X142314Y242559D01*
X142355Y242537D01*
X145264Y241566D01*
X145297Y241562D01*
X145342Y241547D01*
X148368Y241055D01*
X148402Y241057D01*
X148448Y241049D01*
X151514Y241049D01*
X151548Y241056D01*
G37*
G36*
X-148452Y241056D02*
X-148452Y241056D01*
X-148406Y241055D01*
X-145379Y241547D01*
X-145347Y241559D01*
X-145301Y241566D01*
X-142393Y242537D01*
X-142363Y242554D01*
X-142319Y242569D01*
X-139604Y243994D01*
X-139578Y244015D01*
X-139536Y244037D01*
X-137085Y245879D01*
X-137062Y245904D01*
X-137025Y245932D01*
X-134900Y248143D01*
X-134882Y248172D01*
X-134850Y248205D01*
X-133108Y250729D01*
X-133097Y250756D01*
X-133078Y250778D01*
X-133058Y250846D01*
X-133030Y250912D01*
X-133030Y250941D01*
X-133021Y250968D01*
X-133029Y251040D01*
X-133029Y251111D01*
X-133040Y251137D01*
X-133044Y251166D01*
X-133079Y251228D01*
X-133106Y251294D01*
X-133127Y251314D01*
X-133141Y251339D01*
X-133218Y251403D01*
X-133249Y251433D01*
X-133259Y251437D01*
X-133270Y251445D01*
X-149770Y260945D01*
X-149842Y260969D01*
X-149913Y261000D01*
X-149936Y261001D01*
X-149958Y261008D01*
X-150035Y261002D01*
X-150112Y261003D01*
X-150136Y260994D01*
X-150157Y260992D01*
X-150196Y260972D01*
X-150268Y260945D01*
X-166768Y251445D01*
X-166790Y251426D01*
X-166816Y251414D01*
X-166864Y251361D01*
X-166917Y251314D01*
X-166930Y251288D01*
X-166949Y251266D01*
X-166972Y251199D01*
X-167003Y251134D01*
X-167004Y251105D01*
X-167014Y251078D01*
X-167009Y251007D01*
X-167012Y250936D01*
X-167002Y250909D01*
X-167000Y250880D01*
X-166958Y250789D01*
X-166943Y250749D01*
X-166935Y250741D01*
X-166930Y250729D01*
X-165188Y248205D01*
X-165163Y248182D01*
X-165137Y248143D01*
X-163013Y245932D01*
X-162985Y245913D01*
X-162953Y245879D01*
X-160502Y244037D01*
X-160471Y244022D01*
X-160434Y243994D01*
X-157719Y242569D01*
X-157686Y242559D01*
X-157645Y242537D01*
X-154736Y241566D01*
X-154703Y241562D01*
X-154658Y241547D01*
X-151632Y241055D01*
X-151598Y241057D01*
X-151552Y241049D01*
X-148486Y241049D01*
X-148452Y241056D01*
G37*
G36*
X300068Y154430D02*
X300068Y154430D01*
X300139Y154439D01*
X300164Y154453D01*
X300191Y154460D01*
X300249Y154502D01*
X300311Y154538D01*
X300329Y154561D01*
X300351Y154577D01*
X300388Y154639D01*
X300431Y154697D01*
X300438Y154724D01*
X300453Y154748D01*
X300470Y154849D01*
X300480Y154889D01*
X300478Y154900D01*
X300481Y154913D01*
X300481Y173913D01*
X300465Y173989D01*
X300456Y174066D01*
X300445Y174086D01*
X300441Y174107D01*
X300397Y174172D01*
X300359Y174239D01*
X300340Y174255D01*
X300328Y174271D01*
X300291Y174295D01*
X300230Y174345D01*
X283730Y183845D01*
X283703Y183854D01*
X283680Y183871D01*
X283609Y183885D01*
X283542Y183908D01*
X283513Y183906D01*
X283485Y183912D01*
X283415Y183898D01*
X283344Y183892D01*
X283318Y183879D01*
X283290Y183874D01*
X283231Y183834D01*
X283167Y183801D01*
X283149Y183778D01*
X283125Y183762D01*
X283067Y183680D01*
X283041Y183647D01*
X283038Y183637D01*
X283030Y183626D01*
X281722Y180860D01*
X281713Y180827D01*
X281693Y180785D01*
X280845Y177845D01*
X280843Y177811D01*
X280829Y177766D01*
X280464Y174728D01*
X280467Y174694D01*
X280461Y174648D01*
X280588Y171591D01*
X280596Y171558D01*
X280598Y171511D01*
X281213Y168514D01*
X281227Y168482D01*
X281236Y168436D01*
X282324Y165577D01*
X282342Y165548D01*
X282359Y165504D01*
X283892Y162856D01*
X283914Y162831D01*
X283938Y162790D01*
X285876Y160422D01*
X285902Y160401D01*
X285931Y160364D01*
X288224Y158338D01*
X288253Y158321D01*
X288288Y158290D01*
X290876Y156657D01*
X290908Y156645D01*
X290948Y156620D01*
X293764Y155424D01*
X293797Y155417D01*
X293840Y155399D01*
X296812Y154670D01*
X296846Y154669D01*
X296891Y154657D01*
X299942Y154415D01*
X299970Y154418D01*
X299998Y154414D01*
X300068Y154430D01*
G37*
G36*
X283546Y-9278D02*
X283546Y-9278D01*
X283574Y-9278D01*
X283669Y-9243D01*
X283710Y-9232D01*
X283718Y-9225D01*
X283730Y-9220D01*
X300230Y280D01*
X300289Y331D01*
X300351Y377D01*
X300363Y397D01*
X300379Y411D01*
X300413Y482D01*
X300453Y548D01*
X300457Y573D01*
X300465Y591D01*
X300467Y635D01*
X300481Y713D01*
X300481Y19713D01*
X300475Y19740D01*
X300477Y19769D01*
X300455Y19837D01*
X300441Y19907D01*
X300425Y19931D01*
X300416Y19958D01*
X300369Y20012D01*
X300328Y20071D01*
X300305Y20087D01*
X300286Y20108D01*
X300221Y20140D01*
X300161Y20178D01*
X300133Y20183D01*
X300107Y20196D01*
X300006Y20205D01*
X299965Y20211D01*
X299955Y20209D01*
X299942Y20210D01*
X296891Y19968D01*
X296859Y19958D01*
X296812Y19955D01*
X293840Y19226D01*
X293810Y19212D01*
X293764Y19201D01*
X293600Y19131D01*
X292424Y18632D01*
X291248Y18132D01*
X290948Y18005D01*
X290920Y17986D01*
X290876Y17968D01*
X288288Y16335D01*
X288264Y16312D01*
X288224Y16287D01*
X285931Y14261D01*
X285911Y14234D01*
X285876Y14203D01*
X283938Y11835D01*
X283922Y11805D01*
X283892Y11769D01*
X282359Y9121D01*
X282348Y9089D01*
X282324Y9048D01*
X281236Y6189D01*
X281230Y6155D01*
X281213Y6111D01*
X280598Y3114D01*
X280598Y3080D01*
X280588Y3034D01*
X280461Y-23D01*
X280466Y-56D01*
X280464Y-103D01*
X280829Y-3141D01*
X280840Y-3173D01*
X280845Y-3220D01*
X281693Y-6160D01*
X281709Y-6190D01*
X281722Y-6235D01*
X283030Y-9001D01*
X283047Y-9024D01*
X283057Y-9051D01*
X283106Y-9103D01*
X283149Y-9160D01*
X283174Y-9175D01*
X283193Y-9195D01*
X283259Y-9224D01*
X283321Y-9260D01*
X283349Y-9264D01*
X283376Y-9275D01*
X283447Y-9276D01*
X283518Y-9285D01*
X283546Y-9278D01*
G37*
%LPC*%
G36*
X-152535Y192500D02*
X-152535Y192500D01*
X-158338Y198303D01*
X-158338Y206510D01*
X-152535Y212313D01*
X-144328Y212313D01*
X-138525Y206510D01*
X-138525Y198303D01*
X-144328Y192500D01*
X-152535Y192500D01*
G37*
%LPD*%
%LPC*%
G36*
X-241683Y45656D02*
X-241683Y45656D01*
X-245324Y47164D01*
X-248111Y49951D01*
X-249619Y53592D01*
X-249619Y57533D01*
X-248111Y61174D01*
X-245324Y63961D01*
X-241683Y65469D01*
X-237742Y65469D01*
X-234101Y63961D01*
X-231314Y61174D01*
X-229806Y57533D01*
X-229806Y53592D01*
X-231314Y49951D01*
X-234101Y47164D01*
X-237742Y45656D01*
X-241683Y45656D01*
G37*
%LPD*%
%LPC*%
G36*
X-241683Y20256D02*
X-241683Y20256D01*
X-245324Y21764D01*
X-248111Y24551D01*
X-249619Y28192D01*
X-249619Y32133D01*
X-248111Y35774D01*
X-245324Y38561D01*
X-243960Y39126D01*
X-241683Y40069D01*
X-237742Y40069D01*
X-234101Y38561D01*
X-231314Y35774D01*
X-229806Y32133D01*
X-229806Y28192D01*
X-231314Y24551D01*
X-234101Y21764D01*
X-237742Y20256D01*
X-241683Y20256D01*
G37*
%LPD*%
D10*
X-150019Y252513D03*
X701Y164833D03*
X701Y9793D03*
X-150019Y-77888D03*
X-221519Y211213D03*
X-78519Y211213D03*
X-78519Y-36588D03*
X-221519Y-36588D03*
X149981Y252513D03*
X293081Y169913D03*
X293081Y4713D03*
X149981Y-77888D03*
X-293086Y169913D03*
X-293086Y4713D03*
X-293119Y87313D03*
D11*
X-148431Y202406D03*
D12*
X-239713Y80963D03*
X-239713Y55563D03*
X-239713Y30163D03*
D13*
X216019Y125313D03*
D14*
X188019Y153313D03*
X169019Y153313D03*
X150019Y153313D03*
X131019Y153313D03*
X112019Y153313D03*
D13*
X216019Y106313D03*
X216019Y87313D03*
X216019Y68313D03*
X216019Y49313D03*
X84019Y125313D03*
D14*
X188019Y21313D03*
X169019Y21313D03*
X150019Y21313D03*
X131019Y21313D03*
X112019Y21313D03*
D13*
X84019Y106313D03*
X84019Y87313D03*
X84019Y68313D03*
X84019Y49313D03*
D15*
X-220225Y105569D03*
X-205225Y105569D03*
D16*
X242094Y63500D03*
D17*
X237281Y68313D01*
X216019Y68313D01*
D16*
X250825Y63500D03*
D17*
X242094Y63500D01*
D16*
X242094Y94456D03*
D17*
X234950Y87313D01*
X216019Y87313D01*
D16*
X250825Y94456D03*
D17*
X242094Y94456D01*
D18*
X4755Y164833D02*
X701Y164833D01*
D16*
X129381Y-2381D03*
D17*
X129381Y19675D01*
X131019Y21313D01*
X129381Y-2381D02*
X129381Y-11113D01*
D16*
X129381Y-11113D03*
D19*
X250825Y63500D02*
X251619Y64294D01*
D17*
X216019Y68313D02*
X216019Y87313D01*
D20*
X701Y11020D02*
X701Y9793D01*
X701Y11020D02*
X21431Y31750D01*
D16*
X21431Y31750D03*
X28575Y146844D03*
D20*
X10586Y164833D01*
X4755Y164833D01*
X129381Y-11113D02*
X129381Y-57288D01*
X149981Y-77888D01*
D18*
X5332Y166940D02*
X3115Y166346D01*
X5332Y166940D02*
X5926Y167968D01*
X1067Y165199D02*
X701Y164833D01*
X1067Y165199D02*
X1968Y165199D01*
X3115Y166346D01*
X291494Y168325D02*
X293081Y169913D01*
X291494Y168325D02*
X291494Y63500D01*
X291494Y6300D01*
X293081Y4713D01*
X292288Y5506D01*
X290119Y5506D01*
X155904Y-71965D01*
X149981Y-77888D01*
X146928Y-74834D02*
X2846Y9793D01*
X701Y9793D01*
X146928Y-74834D02*
X149981Y-77888D01*
X701Y9793D02*
X-307Y9793D01*
X-49343Y-17332D01*
X-49349Y-16856D01*
X-49366Y-16380D01*
X-49395Y-15904D01*
X-49435Y-15429D01*
X-49487Y-14956D01*
X-49550Y-14484D01*
X-49624Y-14013D01*
X-49710Y-13545D01*
X-49807Y-13078D01*
X-49916Y-12614D01*
X-50035Y-12153D01*
X-50166Y-11695D01*
X-50308Y-11240D01*
X-50460Y-10789D01*
X-50624Y-10342D01*
X-50798Y-9898D01*
X-50983Y-9459D01*
X-51179Y-9025D01*
X-51385Y-8595D01*
X-51601Y-8171D01*
X-51827Y-7752D01*
X-52064Y-7338D01*
X-52310Y-6931D01*
X-52567Y-6529D01*
X-52833Y-6134D01*
X-53108Y-5745D01*
X-53392Y-5363D01*
X-53686Y-4988D01*
X-53989Y-4620D01*
X-54301Y-4260D01*
X-54621Y-3907D01*
X-54949Y-3562D01*
X-55286Y-3225D01*
X-55631Y-2897D01*
X-55984Y-2577D01*
X-56344Y-2265D01*
X-56712Y-1962D01*
X-57087Y-1668D01*
X-57469Y-1384D01*
X-57858Y-1109D01*
X-58253Y-843D01*
X-58655Y-586D01*
X-59062Y-340D01*
X-59476Y-103D01*
X-59895Y123D01*
X-60319Y339D01*
X-60749Y545D01*
X-61183Y741D01*
X-61622Y926D01*
X-62066Y1100D01*
X-62513Y1264D01*
X-62964Y1416D01*
X-63419Y1558D01*
X-63877Y1689D01*
X-64338Y1808D01*
X-64802Y1917D01*
X-65269Y2014D01*
X-65737Y2100D01*
X-66208Y2174D01*
X-66680Y2237D01*
X-67153Y2289D01*
X-67628Y2329D01*
X-68104Y2358D01*
X-68580Y2375D01*
X-69056Y2381D01*
X-85725Y2381D02*
X-86320Y2374D01*
X-86914Y2352D01*
X-87507Y2316D01*
X-88100Y2266D01*
X-88691Y2202D01*
X-89280Y2123D01*
X-89868Y2030D01*
X-90452Y1923D01*
X-91035Y1801D01*
X-91614Y1666D01*
X-92189Y1517D01*
X-92761Y1354D01*
X-93329Y1177D01*
X-93892Y986D01*
X-94450Y782D01*
X-95004Y564D01*
X-95552Y334D01*
X-96094Y90D01*
X-96630Y-168D01*
X-97160Y-437D01*
X-97683Y-720D01*
X-98199Y-1015D01*
X-98708Y-1323D01*
X-99209Y-1643D01*
X-99703Y-1975D01*
X-100188Y-2318D01*
X-100665Y-2674D01*
X-101133Y-3040D01*
X-101592Y-3418D01*
X-102042Y-3807D01*
X-102482Y-4207D01*
X-102913Y-4617D01*
X-103333Y-5037D01*
X-103743Y-5468D01*
X-104143Y-5908D01*
X-104532Y-6358D01*
X-104910Y-6817D01*
X-105276Y-7285D01*
X-105632Y-7762D01*
X-105975Y-8247D01*
X-106307Y-8741D01*
X-106627Y-9242D01*
X-106935Y-9751D01*
X-107230Y-10267D01*
X-107513Y-10790D01*
X-107782Y-11320D01*
X-108040Y-11856D01*
X-108284Y-12398D01*
X-108514Y-12946D01*
X-108732Y-13500D01*
X-108936Y-14058D01*
X-109127Y-14621D01*
X-109304Y-15189D01*
X-109467Y-15761D01*
X-109616Y-16336D01*
X-109751Y-16915D01*
X-109873Y-17498D01*
X-109980Y-18082D01*
X-110073Y-18670D01*
X-110152Y-19259D01*
X-110216Y-19850D01*
X-110266Y-20443D01*
X-110302Y-21036D01*
X-110324Y-21630D01*
X-110331Y-22225D01*
X-110331Y-53181D01*
X-119565Y-58929D01*
X-150019Y-76511D01*
X-150019Y-77888D01*
X-85725Y2381D02*
X-69056Y2381D01*
X-150019Y-76560D02*
X-150019Y-77888D01*
X-150019Y-76560D02*
X-150019Y-76560D01*
X-165894Y-65881D01*
X-172547Y-63505D01*
X-186886Y-55227D01*
X-186799Y-55225D01*
X-186712Y-55219D01*
X-186625Y-55209D01*
X-186539Y-55196D01*
X-186454Y-55178D01*
X-186369Y-55157D01*
X-186286Y-55132D01*
X-186204Y-55103D01*
X-186123Y-55071D01*
X-186043Y-55035D01*
X-185966Y-54995D01*
X-185890Y-54952D01*
X-185816Y-54906D01*
X-185745Y-54856D01*
X-185675Y-54803D01*
X-185608Y-54747D01*
X-185544Y-54689D01*
X-185482Y-54627D01*
X-185424Y-54563D01*
X-185368Y-54496D01*
X-185315Y-54426D01*
X-185265Y-54355D01*
X-185219Y-54281D01*
X-185176Y-54205D01*
X-185136Y-54128D01*
X-185100Y-54048D01*
X-185068Y-53967D01*
X-185039Y-53885D01*
X-185014Y-53802D01*
X-184993Y-53717D01*
X-184975Y-53632D01*
X-184962Y-53546D01*
X-184952Y-53459D01*
X-184946Y-53372D01*
X-184944Y-53285D01*
X-184944Y-21431D01*
X-184948Y-21067D01*
X-184962Y-20702D01*
X-184984Y-20339D01*
X-185014Y-19975D01*
X-185054Y-19613D01*
X-185102Y-19252D01*
X-185159Y-18892D01*
X-185225Y-18534D01*
X-185299Y-18177D01*
X-185382Y-17822D01*
X-185474Y-17469D01*
X-185574Y-17119D01*
X-185682Y-16771D01*
X-185799Y-16425D01*
X-185924Y-16083D01*
X-186057Y-15744D01*
X-186199Y-15408D01*
X-186348Y-15076D01*
X-186506Y-14747D01*
X-186671Y-14423D01*
X-186845Y-14102D01*
X-187026Y-13786D01*
X-187214Y-13474D01*
X-187410Y-13166D01*
X-187614Y-12864D01*
X-187824Y-12567D01*
X-188042Y-12274D01*
X-188267Y-11988D01*
X-188498Y-11706D01*
X-188737Y-11430D01*
X-188982Y-11161D01*
X-189233Y-10897D01*
X-189491Y-10639D01*
X-189755Y-10388D01*
X-190024Y-10143D01*
X-190300Y-9904D01*
X-190582Y-9673D01*
X-190868Y-9448D01*
X-191161Y-9230D01*
X-191458Y-9020D01*
X-191760Y-8816D01*
X-192068Y-8620D01*
X-192380Y-8432D01*
X-192696Y-8251D01*
X-193017Y-8077D01*
X-193341Y-7912D01*
X-193670Y-7754D01*
X-194002Y-7605D01*
X-194338Y-7463D01*
X-194677Y-7330D01*
X-195019Y-7205D01*
X-195365Y-7088D01*
X-195713Y-6980D01*
X-196063Y-6880D01*
X-196416Y-6788D01*
X-196771Y-6705D01*
X-197128Y-6631D01*
X-197486Y-6565D01*
X-197846Y-6508D01*
X-198207Y-6460D01*
X-198569Y-6420D01*
X-198933Y-6390D01*
X-199296Y-6368D01*
X-199661Y-6354D01*
X-200025Y-6350D01*
X-239713Y-6350D02*
X-239884Y-6352D01*
X-240055Y-6358D01*
X-240226Y-6369D01*
X-240396Y-6383D01*
X-240567Y-6402D01*
X-240736Y-6424D01*
X-240905Y-6451D01*
X-241073Y-6482D01*
X-241241Y-6517D01*
X-241408Y-6556D01*
X-241573Y-6599D01*
X-241738Y-6646D01*
X-241901Y-6697D01*
X-242063Y-6751D01*
X-242224Y-6810D01*
X-242383Y-6873D01*
X-242541Y-6939D01*
X-242697Y-7009D01*
X-242851Y-7083D01*
X-243004Y-7161D01*
X-243154Y-7242D01*
X-243303Y-7327D01*
X-243449Y-7416D01*
X-243593Y-7508D01*
X-243735Y-7603D01*
X-243875Y-7702D01*
X-244012Y-7805D01*
X-244147Y-7910D01*
X-244279Y-8019D01*
X-244409Y-8131D01*
X-244535Y-8246D01*
X-244659Y-8364D01*
X-244780Y-8485D01*
X-244898Y-8609D01*
X-245013Y-8735D01*
X-245125Y-8865D01*
X-245234Y-8997D01*
X-245339Y-9132D01*
X-245442Y-9269D01*
X-245541Y-9409D01*
X-245636Y-9551D01*
X-245728Y-9695D01*
X-245817Y-9841D01*
X-245902Y-9990D01*
X-245983Y-10140D01*
X-246061Y-10293D01*
X-246135Y-10447D01*
X-246205Y-10603D01*
X-246271Y-10761D01*
X-246334Y-10920D01*
X-246393Y-11081D01*
X-246447Y-11243D01*
X-246498Y-11406D01*
X-246545Y-11571D01*
X-246588Y-11736D01*
X-246627Y-11903D01*
X-246662Y-12071D01*
X-246693Y-12239D01*
X-246720Y-12408D01*
X-246742Y-12577D01*
X-246761Y-12748D01*
X-246775Y-12918D01*
X-246786Y-13089D01*
X-246792Y-13260D01*
X-246794Y-13431D01*
X-239713Y-6350D02*
X-200025Y-6350D01*
X-276225Y121444D02*
X-288925Y121444D01*
X-276225Y121444D02*
X-275745Y121438D01*
X-275266Y121421D01*
X-274788Y121392D01*
X-274310Y121351D01*
X-273833Y121299D01*
X-273358Y121236D01*
X-272884Y121161D01*
X-272412Y121074D01*
X-271943Y120976D01*
X-271476Y120867D01*
X-271012Y120747D01*
X-270551Y120615D01*
X-270093Y120473D01*
X-269639Y120319D01*
X-269188Y120154D01*
X-268742Y119979D01*
X-268300Y119793D01*
X-267863Y119596D01*
X-267430Y119389D01*
X-267003Y119171D01*
X-266581Y118943D01*
X-266165Y118705D01*
X-265755Y118457D01*
X-265350Y118199D01*
X-264952Y117931D01*
X-264561Y117654D01*
X-264176Y117368D01*
X-263799Y117072D01*
X-263429Y116767D01*
X-263066Y116453D01*
X-262711Y116131D01*
X-262364Y115800D01*
X-262025Y115461D01*
X-261694Y115114D01*
X-261372Y114759D01*
X-261058Y114396D01*
X-260753Y114026D01*
X-260457Y113649D01*
X-260171Y113264D01*
X-259894Y112873D01*
X-259626Y112475D01*
X-259368Y112070D01*
X-259120Y111660D01*
X-258882Y111244D01*
X-258654Y110822D01*
X-258436Y110395D01*
X-258229Y109962D01*
X-258032Y109525D01*
X-257846Y109083D01*
X-257671Y108637D01*
X-257506Y108186D01*
X-257352Y107732D01*
X-257210Y107274D01*
X-257078Y106813D01*
X-256958Y106349D01*
X-256849Y105882D01*
X-256751Y105413D01*
X-256664Y104941D01*
X-256589Y104467D01*
X-256526Y103992D01*
X-256474Y103515D01*
X-256433Y103037D01*
X-256404Y102559D01*
X-256387Y102080D01*
X-256381Y101600D01*
X-256381Y78581D02*
X-256388Y77967D01*
X-256411Y77354D01*
X-256448Y76741D01*
X-256500Y76130D01*
X-256566Y75519D01*
X-256648Y74911D01*
X-256744Y74305D01*
X-256854Y73701D01*
X-256979Y73100D01*
X-257119Y72502D01*
X-257273Y71908D01*
X-257442Y71318D01*
X-257624Y70732D01*
X-257821Y70151D01*
X-258032Y69574D01*
X-258256Y69003D01*
X-258494Y68437D01*
X-258746Y67877D01*
X-259012Y67324D01*
X-259290Y66777D01*
X-259582Y66237D01*
X-259887Y65704D01*
X-260205Y65179D01*
X-260535Y64661D01*
X-260877Y64152D01*
X-261232Y63651D01*
X-261599Y63159D01*
X-261977Y62676D01*
X-262367Y62202D01*
X-262769Y61738D01*
X-263181Y61283D01*
X-263605Y60839D01*
X-264039Y60405D01*
X-264483Y59981D01*
X-264938Y59569D01*
X-265402Y59167D01*
X-265876Y58777D01*
X-266359Y58399D01*
X-266851Y58032D01*
X-267352Y57677D01*
X-267861Y57335D01*
X-268379Y57005D01*
X-268904Y56687D01*
X-269437Y56382D01*
X-269977Y56090D01*
X-270524Y55812D01*
X-271077Y55546D01*
X-271637Y55294D01*
X-272203Y55056D01*
X-272774Y54832D01*
X-273351Y54621D01*
X-273932Y54424D01*
X-274518Y54242D01*
X-275108Y54073D01*
X-275702Y53919D01*
X-276300Y53779D01*
X-276901Y53654D01*
X-277505Y53544D01*
X-278111Y53448D01*
X-278719Y53366D01*
X-279330Y53300D01*
X-279941Y53248D01*
X-280554Y53211D01*
X-281167Y53188D01*
X-281781Y53181D01*
X-289719Y53181D01*
X-289812Y53179D01*
X-289904Y53173D01*
X-289996Y53163D01*
X-290087Y53150D01*
X-290178Y53132D01*
X-290268Y53111D01*
X-290357Y53085D01*
X-290445Y53056D01*
X-290532Y53024D01*
X-290617Y52987D01*
X-290700Y52948D01*
X-290782Y52904D01*
X-290862Y52857D01*
X-290940Y52807D01*
X-291015Y52754D01*
X-291089Y52697D01*
X-291159Y52637D01*
X-291227Y52575D01*
X-291293Y52509D01*
X-291355Y52441D01*
X-291415Y52371D01*
X-291472Y52297D01*
X-291525Y52222D01*
X-291575Y52144D01*
X-291622Y52064D01*
X-291666Y51982D01*
X-291705Y51899D01*
X-291742Y51814D01*
X-291774Y51727D01*
X-291803Y51639D01*
X-291829Y51550D01*
X-291850Y51460D01*
X-291868Y51369D01*
X-291881Y51278D01*
X-291891Y51186D01*
X-291897Y51094D01*
X-291899Y51001D01*
X-291899Y5401D01*
X-256381Y78581D02*
X-256381Y101600D01*
X-288925Y121444D02*
X-291410Y168236D01*
X-293086Y169913D01*
X-290808Y169913D01*
X-250825Y191294D01*
X-250822Y191064D01*
X-250814Y190834D01*
X-250800Y190604D01*
X-250781Y190375D01*
X-250756Y190146D01*
X-250725Y189918D01*
X-250689Y189690D01*
X-250648Y189464D01*
X-250601Y189239D01*
X-250548Y189015D01*
X-250490Y188792D01*
X-250427Y188570D01*
X-250359Y188351D01*
X-250285Y188133D01*
X-250206Y187916D01*
X-250122Y187702D01*
X-250032Y187490D01*
X-249938Y187280D01*
X-249838Y187073D01*
X-249734Y186868D01*
X-249625Y186665D01*
X-249510Y186465D01*
X-249391Y186268D01*
X-249267Y186074D01*
X-249139Y185883D01*
X-249006Y185695D01*
X-248868Y185511D01*
X-248726Y185330D01*
X-248580Y185152D01*
X-248430Y184978D01*
X-248275Y184807D01*
X-248116Y184641D01*
X-247953Y184478D01*
X-247787Y184319D01*
X-247616Y184164D01*
X-247442Y184014D01*
X-247264Y183868D01*
X-247083Y183726D01*
X-246899Y183588D01*
X-246711Y183455D01*
X-246520Y183327D01*
X-246326Y183203D01*
X-246129Y183084D01*
X-245929Y182969D01*
X-245726Y182860D01*
X-245521Y182756D01*
X-245314Y182656D01*
X-245104Y182562D01*
X-244892Y182472D01*
X-244678Y182388D01*
X-244461Y182309D01*
X-244243Y182235D01*
X-244024Y182167D01*
X-243802Y182104D01*
X-243579Y182046D01*
X-243355Y181993D01*
X-243130Y181946D01*
X-242904Y181905D01*
X-242676Y181869D01*
X-242448Y181838D01*
X-242219Y181813D01*
X-241990Y181794D01*
X-241760Y181780D01*
X-241530Y181772D01*
X-241300Y181769D01*
X-205581Y181769D02*
X-204967Y181776D01*
X-204354Y181799D01*
X-203741Y181836D01*
X-203130Y181888D01*
X-202519Y181954D01*
X-201911Y182036D01*
X-201305Y182132D01*
X-200701Y182242D01*
X-200100Y182367D01*
X-199502Y182507D01*
X-198908Y182661D01*
X-198318Y182830D01*
X-197732Y183012D01*
X-197151Y183209D01*
X-196574Y183420D01*
X-196003Y183644D01*
X-195437Y183882D01*
X-194877Y184134D01*
X-194324Y184400D01*
X-193777Y184678D01*
X-193237Y184970D01*
X-192704Y185275D01*
X-192179Y185593D01*
X-191661Y185923D01*
X-191152Y186265D01*
X-190651Y186620D01*
X-190159Y186987D01*
X-189676Y187365D01*
X-189202Y187755D01*
X-188738Y188157D01*
X-188283Y188569D01*
X-187839Y188993D01*
X-187405Y189427D01*
X-186981Y189871D01*
X-186569Y190326D01*
X-186167Y190790D01*
X-185777Y191264D01*
X-185399Y191747D01*
X-185032Y192239D01*
X-184677Y192740D01*
X-184335Y193249D01*
X-184005Y193767D01*
X-183687Y194292D01*
X-183382Y194825D01*
X-183090Y195365D01*
X-182812Y195912D01*
X-182546Y196465D01*
X-182294Y197025D01*
X-182056Y197591D01*
X-181832Y198162D01*
X-181621Y198739D01*
X-181424Y199320D01*
X-181242Y199906D01*
X-181073Y200496D01*
X-180919Y201090D01*
X-180779Y201688D01*
X-180654Y202289D01*
X-180544Y202893D01*
X-180448Y203499D01*
X-180366Y204107D01*
X-180300Y204718D01*
X-180248Y205329D01*
X-180211Y205942D01*
X-180188Y206555D01*
X-180181Y207169D01*
X-180181Y231775D02*
X-180179Y231871D01*
X-180173Y231967D01*
X-180164Y232062D01*
X-180150Y232157D01*
X-180133Y232251D01*
X-180112Y232345D01*
X-180087Y232437D01*
X-180058Y232529D01*
X-180026Y232619D01*
X-179990Y232708D01*
X-179951Y232796D01*
X-179908Y232882D01*
X-179862Y232966D01*
X-179812Y233048D01*
X-179760Y233128D01*
X-179703Y233205D01*
X-179644Y233281D01*
X-179582Y233354D01*
X-179517Y233424D01*
X-179449Y233492D01*
X-179379Y233557D01*
X-179306Y233619D01*
X-179230Y233678D01*
X-179153Y233735D01*
X-179073Y233787D01*
X-178991Y233837D01*
X-178907Y233883D01*
X-178821Y233926D01*
X-178733Y233965D01*
X-178644Y234001D01*
X-178554Y234033D01*
X-178462Y234062D01*
X-178370Y234087D01*
X-178276Y234108D01*
X-178182Y234125D01*
X-178087Y234139D01*
X-177992Y234148D01*
X-177896Y234154D01*
X-177800Y234156D01*
X-205581Y181769D02*
X-241300Y181769D01*
X-180181Y207169D02*
X-180181Y231775D01*
X-177800Y234156D02*
X-166517Y241611D01*
X-111106Y225406D02*
X-110197Y224497D01*
X-110197Y192747D01*
X-102084Y182845D02*
X-95553Y176314D01*
X-102084Y182845D02*
X-102084Y184634D01*
X-50432Y192349D02*
X-50375Y192349D01*
X-62061Y182111D02*
X-67857Y176314D01*
X-62061Y182111D02*
X-62034Y182111D01*
X-61444Y182701D01*
X-61437Y182701D01*
X-61250Y182888D01*
X-59894Y182888D01*
X-67857Y176314D02*
X-95553Y176314D01*
X-59894Y182888D02*
X-50432Y192349D01*
X-50375Y192349D02*
X-17737Y174766D01*
X-5963Y167968D01*
X-5369Y166940D01*
X-3153Y166346D01*
X-2218Y165411D01*
X123Y165411D01*
X701Y164833D01*
X-102084Y184634D02*
X-110197Y192747D01*
D16*
X-184944Y-16052D03*
D21*
X-184944Y-21431D01*
D18*
X-246794Y-13431D02*
X-287716Y4713D01*
X-293086Y4713D01*
D16*
X-276225Y121444D03*
D19*
X250825Y63500D02*
X291494Y63500D01*
D18*
X-153152Y249379D02*
X-164908Y241611D01*
X-166517Y241611D01*
X-153152Y249379D02*
X-150019Y252513D01*
X-150019Y251450D01*
X-111106Y225406D01*
X146592Y249123D02*
X149981Y252513D01*
X146592Y249123D02*
X3083Y164833D01*
X701Y164833D01*
X290331Y169913D02*
X293081Y169913D01*
X290331Y169913D02*
X153736Y248758D01*
X149981Y252513D01*
D16*
X-168275Y203200D03*
X-169069Y180181D03*
X59531Y177006D03*
X-105569Y153988D03*
X-140494Y74613D03*
X-167481Y76200D03*
X-140494Y54769D03*
X-165894Y54769D03*
X-200025Y61119D03*
X192881Y130175D03*
X175419Y130175D03*
X155575Y129381D03*
X135731Y130175D03*
X105569Y130969D03*
X90488Y145256D03*
X203200Y153194D03*
X219075Y143669D03*
X184944Y178594D03*
X208756Y179388D03*
X236538Y173038D03*
X168275Y196850D03*
X135731Y198438D03*
X104775Y197644D03*
X193675Y201613D03*
X169069Y215900D03*
X135731Y217488D03*
X79375Y188119D03*
X43656Y165894D03*
X186531Y102394D03*
X165100Y103981D03*
X134938Y107156D03*
X111919Y109538D03*
X187325Y73025D03*
X187325Y45244D03*
X163513Y46831D03*
X164306Y73025D03*
X138113Y73025D03*
X111125Y72231D03*
X89694Y30956D03*
X68263Y11906D03*
X41275Y17463D03*
X86519Y-11906D03*
X150813Y-23019D03*
X182563Y-22225D03*
X238125Y-4763D03*
X251619Y29369D03*
X210344Y22225D03*
X269081Y80963D03*
X269081Y112713D03*
X256381Y142081D03*
X-73025Y159544D03*
X-42863Y162719D03*
X-69056Y135731D03*
X-45244Y136525D03*
X-113506Y1588D03*
X-127794Y-27781D03*
X-150813Y-43656D03*
X-164306Y-37306D03*
X-236538Y7144D03*
X-263525Y36513D03*
X-254794Y8731D03*
X-260350Y153194D03*
X-249238Y169863D03*
X-191294Y173038D03*
X-173038Y190500D03*
X-109538Y167481D03*
X-277019Y135731D03*
X-30163Y13494D03*
X104775Y-27781D03*
X270669Y42069D03*
X-136525Y149225D03*
X-159544Y142081D03*
X-38894Y105569D03*
X12700Y111125D03*
X32544Y106363D03*
X48419Y112713D03*
X-34925Y46038D03*
X-46831Y35719D03*
X7144Y44450D03*
X-6350Y39688D03*
X53181Y140494D03*
X93663Y175419D03*
X76200Y157956D03*
X8731Y135731D03*
X-77788Y116681D03*
X51594Y38894D03*
X151606Y-42069D03*
X178594Y-38894D03*
X185738Y-7144D03*
X204788Y-22225D03*
X243681Y12700D03*
X243681Y130969D03*
X252413Y160338D03*
X184150Y88106D03*
X164306Y88900D03*
X185738Y117475D03*
X161131Y116681D03*
X135731Y119063D03*
X111919Y58738D03*
X137319Y59531D03*
X175419Y59531D03*
X-57944Y150813D03*
X-220663Y158750D03*
X-248444Y155575D03*
X-273050Y34131D03*
X-260350Y22225D03*
X-190500Y11906D03*
X-220663Y12700D03*
X60325Y-3969D03*
X219075Y189706D03*
X115094Y208756D03*
X-46831Y5556D03*
X-140494Y-35719D03*
X-214313Y94456D03*
X-174625Y171450D03*
X-40481Y82550D03*
X-25400Y83344D03*
X30956Y84138D03*
X48419Y84138D03*
X-32544Y65881D03*
X39688Y59531D03*
X-226219Y88106D03*
D21*
X-226219Y100369D01*
X-221019Y105569D01*
X-220225Y105569D01*
X-90936Y198796D02*
X-78519Y211213D01*
X-90936Y198796D02*
X-90936Y187462D01*
D16*
X-90936Y187462D03*
X-77520Y-9068D03*
D21*
X-77520Y-35589D01*
X-78519Y-36588D01*
X-280848Y99583D02*
X-293119Y87313D01*
X-280848Y99583D02*
X-268754Y99583D01*
D16*
X-268754Y99583D03*
D21*
X-208575Y-23644D02*
X-221519Y-36588D01*
X-208575Y-23644D02*
X-197253Y-23644D01*
D16*
X-197253Y-23644D03*
D21*
X-192389Y211213D02*
X-221519Y211213D01*
X-192389Y211213D02*
X-191941Y210764D01*
D16*
X-191941Y210764D03*
D21*
X169019Y169119D02*
X169019Y153313D01*
X169019Y169119D02*
X168275Y169863D01*
D16*
X168275Y169863D03*
D21*
X169019Y21313D02*
X169019Y5606D01*
X169069Y5556D01*
D16*
X169069Y5556D03*
X-90488Y15081D03*
D21*
X-115094Y15081D01*
D16*
X-115094Y15081D03*
D21*
X150019Y21313D02*
X150019Y5556D01*
D16*
X150019Y5556D03*
D21*
X150019Y153313D02*
X150019Y170656D01*
D16*
X150019Y170656D03*
X68263Y68263D03*
D21*
X68313Y68313D01*
X84019Y68313D01*
X84019Y87313D02*
X68263Y87313D01*
D16*
X68263Y87313D03*
D21*
X69006Y106313D02*
X84019Y106313D01*
X69006Y106313D02*
X67469Y104775D01*
D16*
X67469Y104775D03*
D21*
X131019Y153313D02*
X131019Y170606D01*
X130969Y170656D01*
D16*
X130969Y170656D03*
M02*
