G04 EAGLE Gerber RS-274X export*
G75*
%MOMM*%
%FSLAX34Y34*%
%LPD*%
%INBottom Copper*%
%IPPOS*%
%AMOC8*
5,1,8,0,0,1.08239X$1,22.5*%
G01*
%ADD10C,1.000000*%
%ADD11P,1.649562X8X22.500000*%
%ADD12R,1.100000X1.000000*%
%ADD13R,1.000000X1.100000*%
%ADD14R,1.500000X1.300000*%
%ADD15R,1.300000X1.500000*%
%ADD16C,1.524000*%
%ADD17R,1.400000X1.000000*%
%ADD18R,0.254000X0.812800*%
%ADD19R,0.812800X0.254000*%
%ADD20R,5.384800X5.384800*%
%ADD21R,0.400000X1.399997*%
%ADD22C,0.812800*%
%ADD23C,0.756400*%
%ADD24C,0.254000*%
%ADD25C,0.406400*%
%ADD26C,0.304800*%

G36*
X149997Y-86377D02*
X149997Y-86377D01*
X150074Y-86378D01*
X150099Y-86369D01*
X150119Y-86367D01*
X150159Y-86347D01*
X150230Y-86320D01*
X166730Y-76820D01*
X166752Y-76801D01*
X166778Y-76789D01*
X166812Y-76751D01*
X166815Y-76749D01*
X166818Y-76745D01*
X166826Y-76736D01*
X166879Y-76689D01*
X166892Y-76663D01*
X166911Y-76641D01*
X166935Y-76574D01*
X166965Y-76509D01*
X166967Y-76480D01*
X166976Y-76453D01*
X166971Y-76382D01*
X166975Y-76311D01*
X166965Y-76284D01*
X166963Y-76255D01*
X166920Y-76164D01*
X166905Y-76124D01*
X166898Y-76116D01*
X166892Y-76104D01*
X165169Y-73608D01*
X281752Y-6300D01*
X283030Y-9001D01*
X283047Y-9024D01*
X283057Y-9051D01*
X283106Y-9103D01*
X283149Y-9160D01*
X283174Y-9175D01*
X283193Y-9195D01*
X283259Y-9224D01*
X283321Y-9260D01*
X283349Y-9264D01*
X283376Y-9275D01*
X283447Y-9276D01*
X283518Y-9285D01*
X283546Y-9278D01*
X283574Y-9278D01*
X283669Y-9243D01*
X283710Y-9232D01*
X283718Y-9225D01*
X283730Y-9220D01*
X300230Y280D01*
X300289Y331D01*
X300351Y377D01*
X300363Y397D01*
X300379Y411D01*
X300413Y482D01*
X300453Y548D01*
X300457Y573D01*
X300465Y591D01*
X300467Y635D01*
X300481Y713D01*
X300481Y19713D01*
X300475Y19740D01*
X300477Y19769D01*
X300455Y19837D01*
X300441Y19907D01*
X300425Y19931D01*
X300416Y19958D01*
X300369Y20012D01*
X300328Y20071D01*
X300305Y20087D01*
X300286Y20108D01*
X300221Y20140D01*
X300161Y20178D01*
X300133Y20183D01*
X300107Y20196D01*
X300006Y20205D01*
X299965Y20211D01*
X299955Y20209D01*
X299942Y20210D01*
X296941Y19972D01*
X296941Y154653D01*
X299942Y154415D01*
X299970Y154418D01*
X299998Y154414D01*
X300068Y154430D01*
X300139Y154439D01*
X300164Y154453D01*
X300191Y154460D01*
X300249Y154502D01*
X300311Y154538D01*
X300329Y154561D01*
X300351Y154577D01*
X300388Y154639D01*
X300431Y154697D01*
X300438Y154724D01*
X300453Y154748D01*
X300470Y154849D01*
X300480Y154889D01*
X300478Y154900D01*
X300481Y154913D01*
X300481Y173913D01*
X300465Y173989D01*
X300456Y174066D01*
X300445Y174086D01*
X300441Y174107D01*
X300397Y174172D01*
X300359Y174239D01*
X300340Y174255D01*
X300328Y174271D01*
X300291Y174295D01*
X300230Y174345D01*
X283730Y183845D01*
X283703Y183854D01*
X283680Y183871D01*
X283609Y183885D01*
X283542Y183908D01*
X283513Y183906D01*
X283485Y183912D01*
X283415Y183898D01*
X283344Y183892D01*
X283318Y183879D01*
X283290Y183874D01*
X283231Y183834D01*
X283167Y183801D01*
X283149Y183778D01*
X283125Y183762D01*
X283067Y183680D01*
X283041Y183647D01*
X283038Y183637D01*
X283030Y183626D01*
X281752Y180925D01*
X165169Y248233D01*
X166892Y250729D01*
X166904Y250756D01*
X166922Y250778D01*
X166942Y250846D01*
X166970Y250912D01*
X166970Y250941D01*
X166979Y250968D01*
X166971Y251040D01*
X166971Y251111D01*
X166960Y251137D01*
X166956Y251166D01*
X166921Y251228D01*
X166894Y251294D01*
X166873Y251314D01*
X166859Y251339D01*
X166782Y251403D01*
X166751Y251433D01*
X166741Y251437D01*
X166730Y251445D01*
X150230Y260945D01*
X150158Y260969D01*
X150087Y261000D01*
X150064Y261001D01*
X150042Y261008D01*
X149965Y261002D01*
X149888Y261003D01*
X149864Y260994D01*
X149844Y260992D01*
X149804Y260972D01*
X149732Y260945D01*
X133232Y251445D01*
X133211Y251426D01*
X133184Y251414D01*
X133137Y251361D01*
X133083Y251314D01*
X133071Y251288D01*
X133051Y251266D01*
X133028Y251199D01*
X132997Y251134D01*
X132996Y251105D01*
X132986Y251078D01*
X132991Y251007D01*
X132988Y250936D01*
X132998Y250909D01*
X133000Y250880D01*
X133042Y250789D01*
X133057Y250749D01*
X133065Y250741D01*
X133070Y250729D01*
X134793Y248233D01*
X18205Y180922D01*
X16933Y183625D01*
X16916Y183648D01*
X16905Y183676D01*
X16857Y183728D01*
X16814Y183785D01*
X16789Y183799D01*
X16769Y183820D01*
X16704Y183849D01*
X16643Y183885D01*
X16614Y183889D01*
X16587Y183900D01*
X16516Y183901D01*
X16445Y183910D01*
X16417Y183903D01*
X16388Y183903D01*
X16295Y183868D01*
X16254Y183857D01*
X16245Y183850D01*
X16232Y183845D01*
X-19Y174489D01*
X-16270Y183845D01*
X-16297Y183854D01*
X-16321Y183871D01*
X-16391Y183886D01*
X-16458Y183908D01*
X-16487Y183906D01*
X-16516Y183912D01*
X-16586Y183898D01*
X-16657Y183892D01*
X-16682Y183879D01*
X-16711Y183873D01*
X-16770Y183833D01*
X-16833Y183801D01*
X-16851Y183778D01*
X-16876Y183762D01*
X-16932Y183680D01*
X-16959Y183647D01*
X-16963Y183636D01*
X-16971Y183625D01*
X-18242Y180922D01*
X-49287Y198846D01*
X-49418Y198905D01*
X-49546Y198972D01*
X-49602Y198988D01*
X-49654Y199012D01*
X-49794Y199044D01*
X-49932Y199084D01*
X-49990Y199089D01*
X-50047Y199102D01*
X-50190Y199106D01*
X-50334Y199118D01*
X-50391Y199111D01*
X-50449Y199113D01*
X-50591Y199088D01*
X-50734Y199072D01*
X-50789Y199054D01*
X-50846Y199044D01*
X-50980Y198992D01*
X-51117Y198948D01*
X-51167Y198919D01*
X-51221Y198899D01*
X-51342Y198821D01*
X-51468Y198751D01*
X-51512Y198713D01*
X-51561Y198682D01*
X-51664Y198582D01*
X-51773Y198488D01*
X-51815Y198437D01*
X-51851Y198402D01*
X-51898Y198334D01*
X-51982Y198230D01*
X-52292Y197775D01*
X-52341Y197756D01*
X-52447Y197690D01*
X-52558Y197631D01*
X-52617Y197583D01*
X-52682Y197542D01*
X-52802Y197432D01*
X-52870Y197377D01*
X-52893Y197349D01*
X-52927Y197318D01*
X-53516Y196683D01*
X-53562Y196622D01*
X-53616Y196567D01*
X-53684Y196462D01*
X-53759Y196362D01*
X-53793Y196293D01*
X-53834Y196229D01*
X-53880Y196112D01*
X-53928Y196012D01*
X-54617Y195462D01*
X-54665Y195415D01*
X-54840Y195255D01*
X-55443Y194605D01*
X-55494Y194594D01*
X-55609Y194544D01*
X-55727Y194502D01*
X-55793Y194464D01*
X-55863Y194433D01*
X-55999Y194342D01*
X-56074Y194298D01*
X-56100Y194274D01*
X-56139Y194248D01*
X-56816Y193707D01*
X-56871Y193654D01*
X-56932Y193608D01*
X-57015Y193513D01*
X-57104Y193426D01*
X-57147Y193363D01*
X-57198Y193306D01*
X-57261Y193197D01*
X-57324Y193105D01*
X-58087Y192664D01*
X-58141Y192625D01*
X-58338Y192493D01*
X-59031Y191940D01*
X-59083Y191936D01*
X-59204Y191904D01*
X-59327Y191881D01*
X-59398Y191852D01*
X-59472Y191832D01*
X-59620Y191763D01*
X-59701Y191730D01*
X-59731Y191710D01*
X-59772Y191690D01*
X-60523Y191257D01*
X-60585Y191212D01*
X-60652Y191175D01*
X-60748Y191095D01*
X-60850Y191022D01*
X-60902Y190966D01*
X-60960Y190917D01*
X-61039Y190819D01*
X-61114Y190737D01*
X-61935Y190415D01*
X-61994Y190384D01*
X-62208Y190283D01*
X-62976Y189839D01*
X-63028Y189844D01*
X-63153Y189830D01*
X-63278Y189825D01*
X-63353Y189807D01*
X-63429Y189799D01*
X-63585Y189752D01*
X-63670Y189731D01*
X-63702Y189716D01*
X-63746Y189703D01*
X-64553Y189386D01*
X-64621Y189351D01*
X-64693Y189325D01*
X-64800Y189260D01*
X-64911Y189203D01*
X-64971Y189155D01*
X-65037Y189115D01*
X-65128Y189030D01*
X-65216Y188960D01*
X-66075Y188764D01*
X-66139Y188743D01*
X-66365Y188674D01*
X-67191Y188350D01*
X-67241Y188362D01*
X-67367Y188367D01*
X-67491Y188381D01*
X-67567Y188375D01*
X-67644Y188378D01*
X-67805Y188354D01*
X-67892Y188347D01*
X-67927Y188337D01*
X-67972Y188330D01*
X-68817Y188137D01*
X-68890Y188113D01*
X-68965Y188098D01*
X-69080Y188049D01*
X-69199Y188009D01*
X-69266Y187971D01*
X-69336Y187941D01*
X-69439Y187871D01*
X-69536Y187815D01*
X-70415Y187749D01*
X-70481Y187737D01*
X-70715Y187703D01*
X-71580Y187506D01*
X-71628Y187525D01*
X-71751Y187549D01*
X-71872Y187581D01*
X-71949Y187586D01*
X-72024Y187600D01*
X-72187Y187602D01*
X-72274Y187607D01*
X-72309Y187602D01*
X-72356Y187603D01*
X-73220Y187538D01*
X-73295Y187524D01*
X-73372Y187520D01*
X-73493Y187490D01*
X-73617Y187468D01*
X-73688Y187440D01*
X-73762Y187421D01*
X-73875Y187367D01*
X-73979Y187326D01*
X-74857Y187392D01*
X-74925Y187390D01*
X-75161Y187392D01*
X-76046Y187325D01*
X-76091Y187352D01*
X-76209Y187393D01*
X-76324Y187443D01*
X-76398Y187459D01*
X-76471Y187485D01*
X-76632Y187510D01*
X-76717Y187529D01*
X-76753Y187529D01*
X-76798Y187536D01*
X-77351Y187578D01*
X-77444Y187575D01*
X-77537Y187583D01*
X-77645Y187570D01*
X-77753Y187568D01*
X-77844Y187547D01*
X-77937Y187536D01*
X-78040Y187502D01*
X-78146Y187478D01*
X-78231Y187440D01*
X-78320Y187411D01*
X-78414Y187358D01*
X-78513Y187314D01*
X-78589Y187259D01*
X-78671Y187213D01*
X-78753Y187142D01*
X-78841Y187080D01*
X-78904Y187011D01*
X-78975Y186950D01*
X-79042Y186865D01*
X-79116Y186785D01*
X-79165Y186706D01*
X-79222Y186632D01*
X-79270Y186535D01*
X-79327Y186443D01*
X-79360Y186355D01*
X-79401Y186272D01*
X-79429Y186167D01*
X-79467Y186065D01*
X-79482Y185973D01*
X-79506Y185883D01*
X-79517Y185750D01*
X-79530Y185668D01*
X-79528Y185618D01*
X-79533Y185552D01*
X-79533Y132822D01*
X-80562Y131793D01*
X-80568Y131786D01*
X-80574Y131781D01*
X-80696Y131630D01*
X-80817Y131482D01*
X-80821Y131474D01*
X-80827Y131467D01*
X-80915Y131297D01*
X-81006Y131126D01*
X-81008Y131117D01*
X-81012Y131110D01*
X-81065Y130925D01*
X-81120Y130740D01*
X-81121Y130731D01*
X-81124Y130723D01*
X-81139Y130532D01*
X-81157Y130339D01*
X-81156Y130330D01*
X-81157Y130321D01*
X-81134Y130132D01*
X-81113Y129939D01*
X-81111Y129930D01*
X-81110Y129922D01*
X-81050Y129740D01*
X-80992Y129555D01*
X-80988Y129547D01*
X-80985Y129539D01*
X-80891Y129372D01*
X-80797Y129203D01*
X-80791Y129196D01*
X-80787Y129188D01*
X-80662Y129043D01*
X-80537Y128896D01*
X-80530Y128890D01*
X-80524Y128883D01*
X-80373Y128767D01*
X-80221Y128646D01*
X-80213Y128642D01*
X-80206Y128637D01*
X-80034Y128551D01*
X-79862Y128464D01*
X-79853Y128461D01*
X-79845Y128457D01*
X-79659Y128407D01*
X-79474Y128356D01*
X-79465Y128355D01*
X-79456Y128353D01*
X-79126Y128326D01*
X-17558Y128326D01*
X-17540Y128328D01*
X-17523Y128326D01*
X-17340Y128347D01*
X-17158Y128366D01*
X-17141Y128371D01*
X-17123Y128373D01*
X-16948Y128430D01*
X-16773Y128484D01*
X-16757Y128492D01*
X-16740Y128498D01*
X-16580Y128588D01*
X-16419Y128676D01*
X-16405Y128687D01*
X-16389Y128696D01*
X-16250Y128816D01*
X-16109Y128933D01*
X-16098Y128947D01*
X-16085Y128959D01*
X-15972Y129104D01*
X-15857Y129247D01*
X-15849Y129263D01*
X-15838Y129277D01*
X-15756Y129442D01*
X-15672Y129604D01*
X-15667Y129621D01*
X-15659Y129637D01*
X-15611Y129816D01*
X-15560Y129991D01*
X-15559Y130009D01*
X-15554Y130026D01*
X-15527Y130357D01*
X-15527Y131982D01*
X2547Y150056D01*
X2548Y150056D01*
X5375Y152883D01*
X17647Y152883D01*
X17674Y152886D01*
X17700Y152884D01*
X17874Y152906D01*
X18048Y152923D01*
X18073Y152931D01*
X18100Y152934D01*
X18266Y152990D01*
X18433Y153041D01*
X18456Y153054D01*
X18482Y153063D01*
X18633Y153150D01*
X18787Y153233D01*
X18807Y153250D01*
X18830Y153263D01*
X19083Y153478D01*
X23852Y158246D01*
X33298Y158246D01*
X38067Y153478D01*
X38087Y153461D01*
X38105Y153441D01*
X38243Y153334D01*
X38378Y153223D01*
X38402Y153211D01*
X38423Y153194D01*
X38580Y153116D01*
X38734Y153034D01*
X38759Y153027D01*
X38783Y153015D01*
X38953Y152969D01*
X39120Y152920D01*
X39146Y152917D01*
X39172Y152910D01*
X39503Y152883D01*
X53784Y152883D01*
X53811Y152886D01*
X53837Y152884D01*
X54011Y152906D01*
X54185Y152923D01*
X54210Y152931D01*
X54237Y152934D01*
X54402Y152990D01*
X54569Y153041D01*
X54593Y153054D01*
X54618Y153063D01*
X54770Y153150D01*
X54924Y153233D01*
X54944Y153250D01*
X54967Y153263D01*
X55220Y153478D01*
X89135Y187393D01*
X149408Y187393D01*
X152235Y184566D01*
X161879Y174922D01*
X161893Y174910D01*
X161905Y174897D01*
X162049Y174783D01*
X162191Y174667D01*
X162206Y174658D01*
X162221Y174647D01*
X162384Y174564D01*
X162546Y174478D01*
X162563Y174473D01*
X162579Y174465D01*
X162756Y174416D01*
X162932Y174363D01*
X162950Y174362D01*
X162967Y174357D01*
X163150Y174343D01*
X163333Y174327D01*
X163351Y174329D01*
X163369Y174327D01*
X163551Y174350D01*
X163734Y174370D01*
X163751Y174376D01*
X163768Y174378D01*
X163942Y174436D01*
X164117Y174492D01*
X164133Y174500D01*
X164150Y174506D01*
X164309Y174598D01*
X164470Y174687D01*
X164483Y174698D01*
X164499Y174707D01*
X164752Y174922D01*
X164837Y175007D01*
X167068Y175931D01*
X169482Y175931D01*
X171713Y175007D01*
X173420Y173300D01*
X174344Y171070D01*
X174344Y168655D01*
X173420Y166425D01*
X171713Y164718D01*
X169482Y163794D01*
X167068Y163794D01*
X164837Y164718D01*
X164098Y165457D01*
X164077Y165474D01*
X164060Y165494D01*
X163922Y165601D01*
X163787Y165712D01*
X163763Y165724D01*
X163742Y165741D01*
X163585Y165819D01*
X163431Y165901D01*
X163405Y165908D01*
X163381Y165920D01*
X163212Y165966D01*
X163045Y166015D01*
X163018Y166018D01*
X162993Y166025D01*
X162662Y166052D01*
X159971Y166052D01*
X158379Y167643D01*
X158369Y167652D01*
X158360Y167662D01*
X158214Y167779D01*
X158068Y167898D01*
X158056Y167905D01*
X158045Y167913D01*
X157878Y167999D01*
X157712Y168087D01*
X157699Y168091D01*
X157687Y168097D01*
X157506Y168148D01*
X157326Y168202D01*
X157313Y168203D01*
X157300Y168207D01*
X157113Y168221D01*
X156925Y168238D01*
X156912Y168237D01*
X156898Y168238D01*
X156713Y168215D01*
X156525Y168195D01*
X156512Y168191D01*
X156499Y168189D01*
X156321Y168130D01*
X156141Y168073D01*
X156129Y168067D01*
X156116Y168062D01*
X155953Y167969D01*
X155789Y167878D01*
X155778Y167870D01*
X155767Y167863D01*
X155625Y167739D01*
X155482Y167618D01*
X155473Y167607D01*
X155463Y167598D01*
X155349Y167449D01*
X155232Y167302D01*
X155226Y167290D01*
X155218Y167279D01*
X155211Y167266D01*
X153456Y165511D01*
X151226Y164588D01*
X148812Y164588D01*
X146581Y165511D01*
X145842Y166251D01*
X145821Y166268D01*
X145804Y166288D01*
X145666Y166395D01*
X145530Y166506D01*
X145507Y166518D01*
X145486Y166535D01*
X145329Y166613D01*
X145175Y166694D01*
X145149Y166702D01*
X145125Y166714D01*
X144956Y166759D01*
X144789Y166809D01*
X144762Y166811D01*
X144736Y166818D01*
X144406Y166846D01*
X140127Y166846D01*
X139329Y167643D01*
X139319Y167652D01*
X139311Y167662D01*
X139162Y167780D01*
X139018Y167898D01*
X139006Y167904D01*
X138996Y167913D01*
X138828Y167999D01*
X138662Y168087D01*
X138649Y168091D01*
X138638Y168097D01*
X138457Y168148D01*
X138276Y168202D01*
X138263Y168203D01*
X138250Y168206D01*
X138063Y168221D01*
X137875Y168238D01*
X137862Y168237D01*
X137849Y168238D01*
X137663Y168215D01*
X137475Y168195D01*
X137462Y168191D01*
X137449Y168189D01*
X137271Y168130D01*
X137091Y168073D01*
X137080Y168067D01*
X137067Y168062D01*
X136904Y167969D01*
X136739Y167878D01*
X136729Y167870D01*
X136717Y167863D01*
X136575Y167739D01*
X136432Y167618D01*
X136424Y167607D01*
X136414Y167599D01*
X136299Y167450D01*
X136182Y167302D01*
X136176Y167290D01*
X136168Y167279D01*
X136161Y167267D01*
X135374Y166479D01*
X135357Y166459D01*
X135337Y166441D01*
X135230Y166303D01*
X135119Y166168D01*
X135107Y166144D01*
X135090Y166123D01*
X135012Y165966D01*
X134931Y165812D01*
X134923Y165787D01*
X134911Y165763D01*
X134866Y165593D01*
X134816Y165426D01*
X134814Y165400D01*
X134807Y165374D01*
X134779Y165043D01*
X134779Y142090D01*
X131952Y139263D01*
X102833Y110144D01*
X74854Y110144D01*
X74840Y110142D01*
X74827Y110144D01*
X74641Y110123D01*
X74453Y110104D01*
X74440Y110100D01*
X74427Y110098D01*
X74248Y110041D01*
X74068Y109986D01*
X74056Y109979D01*
X74044Y109975D01*
X73879Y109884D01*
X73714Y109794D01*
X73704Y109785D01*
X73692Y109779D01*
X73548Y109656D01*
X73405Y109536D01*
X73396Y109526D01*
X73386Y109517D01*
X73270Y109369D01*
X73152Y109222D01*
X73146Y109211D01*
X73138Y109200D01*
X73053Y109031D01*
X72967Y108865D01*
X72963Y108852D01*
X72957Y108840D01*
X72907Y108658D01*
X72856Y108478D01*
X72854Y108465D01*
X72851Y108452D01*
X72838Y108265D01*
X72823Y108077D01*
X72824Y108064D01*
X72823Y108050D01*
X72848Y107865D01*
X72870Y107677D01*
X72874Y107664D01*
X72876Y107651D01*
X72977Y107335D01*
X73537Y105982D01*
X73537Y103568D01*
X72614Y101337D01*
X70906Y99630D01*
X68676Y98706D01*
X67631Y98706D01*
X67604Y98704D01*
X67577Y98706D01*
X67403Y98684D01*
X67230Y98666D01*
X67204Y98659D01*
X67178Y98655D01*
X67012Y98600D01*
X66845Y98548D01*
X66821Y98535D01*
X66796Y98527D01*
X66644Y98440D01*
X66491Y98356D01*
X66471Y98339D01*
X66447Y98326D01*
X66194Y98111D01*
X64731Y96648D01*
X64729Y96645D01*
X64725Y96642D01*
X64602Y96491D01*
X64476Y96337D01*
X64474Y96333D01*
X64471Y96329D01*
X64379Y96154D01*
X64288Y95981D01*
X64286Y95977D01*
X64284Y95973D01*
X64227Y95778D01*
X64173Y95595D01*
X64173Y95591D01*
X64171Y95586D01*
X64154Y95388D01*
X64137Y95194D01*
X64137Y95190D01*
X64137Y95185D01*
X64158Y94993D01*
X64180Y94794D01*
X64181Y94790D01*
X64182Y94785D01*
X64242Y94600D01*
X64301Y94410D01*
X64304Y94406D01*
X64305Y94402D01*
X64402Y94229D01*
X64496Y94058D01*
X64499Y94055D01*
X64501Y94051D01*
X64630Y93900D01*
X64757Y93751D01*
X64760Y93748D01*
X64763Y93745D01*
X64919Y93623D01*
X65073Y93501D01*
X65077Y93499D01*
X65080Y93496D01*
X65257Y93408D01*
X65432Y93319D01*
X65436Y93318D01*
X65440Y93316D01*
X65628Y93264D01*
X65819Y93211D01*
X65824Y93211D01*
X65828Y93209D01*
X66019Y93196D01*
X66221Y93182D01*
X66226Y93182D01*
X66230Y93182D01*
X66422Y93207D01*
X66620Y93232D01*
X66625Y93233D01*
X66629Y93234D01*
X66945Y93336D01*
X67055Y93381D01*
X69470Y93381D01*
X71700Y92457D01*
X73407Y90750D01*
X74331Y88520D01*
X74331Y88268D01*
X74334Y88242D01*
X74332Y88215D01*
X74354Y88041D01*
X74371Y87867D01*
X74379Y87842D01*
X74382Y87815D01*
X74438Y87650D01*
X74489Y87483D01*
X74502Y87459D01*
X74511Y87434D01*
X74598Y87282D01*
X74681Y87129D01*
X74698Y87108D01*
X74711Y87085D01*
X74926Y86832D01*
X85567Y76191D01*
X85567Y63509D01*
X78572Y56514D01*
X53190Y56514D01*
X50363Y59341D01*
X45054Y64651D01*
X45033Y64668D01*
X45016Y64688D01*
X44878Y64795D01*
X44743Y64906D01*
X44719Y64918D01*
X44698Y64935D01*
X44541Y65012D01*
X44387Y65094D01*
X44361Y65102D01*
X44337Y65114D01*
X44168Y65159D01*
X44001Y65209D01*
X43974Y65211D01*
X43948Y65218D01*
X43618Y65246D01*
X31249Y65246D01*
X31231Y65244D01*
X31214Y65245D01*
X31031Y65224D01*
X30849Y65206D01*
X30832Y65200D01*
X30814Y65198D01*
X30639Y65141D01*
X30464Y65087D01*
X30448Y65079D01*
X30431Y65073D01*
X30271Y64983D01*
X30110Y64896D01*
X30096Y64884D01*
X30080Y64876D01*
X29941Y64755D01*
X29800Y64638D01*
X29789Y64624D01*
X29776Y64612D01*
X29663Y64467D01*
X29548Y64324D01*
X29540Y64308D01*
X29529Y64294D01*
X29447Y64129D01*
X29363Y63967D01*
X29358Y63950D01*
X29350Y63934D01*
X29302Y63756D01*
X29251Y63580D01*
X29250Y63562D01*
X29245Y63545D01*
X29218Y63214D01*
X29218Y62738D01*
X29221Y62711D01*
X29219Y62684D01*
X29241Y62510D01*
X29258Y62337D01*
X29266Y62311D01*
X29269Y62285D01*
X29325Y62119D01*
X29376Y61952D01*
X29389Y61928D01*
X29397Y61903D01*
X29485Y61751D01*
X29568Y61598D01*
X29585Y61578D01*
X29598Y61554D01*
X29813Y61301D01*
X38290Y52824D01*
X38310Y52807D01*
X38328Y52787D01*
X38466Y52680D01*
X38601Y52569D01*
X38625Y52557D01*
X38646Y52540D01*
X38803Y52462D01*
X38957Y52381D01*
X38982Y52373D01*
X39007Y52361D01*
X39176Y52316D01*
X39343Y52266D01*
X39369Y52264D01*
X39395Y52257D01*
X39726Y52229D01*
X141278Y52229D01*
X153829Y39678D01*
X153829Y11169D01*
X153832Y11143D01*
X153830Y11116D01*
X153852Y10942D01*
X153869Y10769D01*
X153877Y10743D01*
X153881Y10717D01*
X153936Y10551D01*
X153988Y10384D01*
X154000Y10360D01*
X154009Y10335D01*
X154096Y10183D01*
X154179Y10030D01*
X154196Y10009D01*
X154210Y9986D01*
X154424Y9733D01*
X155225Y8933D01*
X155256Y8874D01*
X155265Y8863D01*
X155272Y8851D01*
X155393Y8708D01*
X155513Y8563D01*
X155523Y8555D01*
X155532Y8544D01*
X155679Y8428D01*
X155825Y8310D01*
X155837Y8303D01*
X155848Y8295D01*
X156015Y8210D01*
X156182Y8122D01*
X156195Y8119D01*
X156207Y8112D01*
X156389Y8062D01*
X156568Y8009D01*
X156582Y8008D01*
X156595Y8004D01*
X156783Y7991D01*
X156969Y7975D01*
X156983Y7976D01*
X156996Y7975D01*
X157184Y7999D01*
X157370Y8020D01*
X157382Y8024D01*
X157396Y8025D01*
X157575Y8086D01*
X157753Y8143D01*
X157765Y8149D01*
X157778Y8154D01*
X157940Y8247D01*
X158104Y8339D01*
X158115Y8348D01*
X158126Y8355D01*
X158379Y8569D01*
X159177Y9367D01*
X163456Y9367D01*
X163482Y9370D01*
X163509Y9368D01*
X163683Y9390D01*
X163856Y9407D01*
X163882Y9415D01*
X163908Y9418D01*
X164074Y9474D01*
X164241Y9525D01*
X164265Y9538D01*
X164290Y9546D01*
X164442Y9634D01*
X164595Y9717D01*
X164616Y9734D01*
X164639Y9747D01*
X164892Y9962D01*
X165631Y10701D01*
X167862Y11625D01*
X170276Y11625D01*
X172506Y10701D01*
X174214Y8994D01*
X175137Y6763D01*
X175137Y4349D01*
X174214Y2119D01*
X172506Y411D01*
X170276Y-512D01*
X167862Y-512D01*
X165631Y411D01*
X164892Y1151D01*
X164871Y1168D01*
X164854Y1188D01*
X164716Y1295D01*
X164580Y1406D01*
X164557Y1418D01*
X164536Y1435D01*
X164379Y1513D01*
X164225Y1594D01*
X164199Y1602D01*
X164175Y1614D01*
X164006Y1659D01*
X163839Y1709D01*
X163812Y1711D01*
X163786Y1718D01*
X163456Y1746D01*
X163175Y1746D01*
X163149Y1743D01*
X163122Y1745D01*
X162948Y1723D01*
X162775Y1706D01*
X162749Y1698D01*
X162723Y1694D01*
X162557Y1639D01*
X162390Y1588D01*
X162366Y1575D01*
X162341Y1566D01*
X162189Y1479D01*
X162036Y1396D01*
X162015Y1379D01*
X161992Y1365D01*
X161739Y1151D01*
X137791Y-22797D01*
X121607Y-22797D01*
X118780Y-19970D01*
X73847Y24963D01*
X73826Y24980D01*
X73809Y25000D01*
X73671Y25107D01*
X73536Y25218D01*
X73512Y25231D01*
X73491Y25247D01*
X73334Y25325D01*
X73180Y25407D01*
X73154Y25414D01*
X73130Y25426D01*
X72961Y25472D01*
X72794Y25522D01*
X72767Y25524D01*
X72742Y25531D01*
X72411Y25558D01*
X32207Y25558D01*
X32180Y25555D01*
X32153Y25557D01*
X31979Y25535D01*
X31806Y25518D01*
X31780Y25510D01*
X31754Y25507D01*
X31588Y25451D01*
X31421Y25400D01*
X31397Y25387D01*
X31372Y25379D01*
X31220Y25291D01*
X31067Y25208D01*
X31047Y25191D01*
X31023Y25178D01*
X30770Y24963D01*
X26154Y20347D01*
X16708Y20347D01*
X12092Y24963D01*
X12072Y24980D01*
X12054Y25000D01*
X11916Y25107D01*
X11781Y25218D01*
X11757Y25231D01*
X11736Y25247D01*
X11579Y25325D01*
X11425Y25407D01*
X11400Y25414D01*
X11375Y25426D01*
X11206Y25472D01*
X11039Y25522D01*
X11013Y25524D01*
X10987Y25531D01*
X10656Y25558D01*
X-28843Y25558D01*
X-28870Y25555D01*
X-28896Y25557D01*
X-29070Y25535D01*
X-29244Y25518D01*
X-29269Y25510D01*
X-29296Y25507D01*
X-29461Y25451D01*
X-29629Y25400D01*
X-29652Y25387D01*
X-29677Y25379D01*
X-29829Y25291D01*
X-29983Y25208D01*
X-30003Y25191D01*
X-30026Y25178D01*
X-30279Y24963D01*
X-36606Y18637D01*
X-37839Y18637D01*
X-37866Y18634D01*
X-37892Y18636D01*
X-38066Y18614D01*
X-38240Y18597D01*
X-38265Y18589D01*
X-38292Y18585D01*
X-38457Y18530D01*
X-38625Y18478D01*
X-38648Y18466D01*
X-38674Y18457D01*
X-38825Y18370D01*
X-38979Y18287D01*
X-38999Y18270D01*
X-39022Y18256D01*
X-39275Y18042D01*
X-43219Y14098D01*
X-46047Y11271D01*
X-84874Y11271D01*
X-84901Y11268D01*
X-84928Y11270D01*
X-85102Y11248D01*
X-85275Y11231D01*
X-85301Y11223D01*
X-85327Y11219D01*
X-85493Y11164D01*
X-85660Y11112D01*
X-85684Y11100D01*
X-85709Y11091D01*
X-85860Y11004D01*
X-86014Y10921D01*
X-86034Y10904D01*
X-86058Y10890D01*
X-86311Y10676D01*
X-87050Y9936D01*
X-87130Y9903D01*
X-87142Y9897D01*
X-87155Y9893D01*
X-87319Y9802D01*
X-87485Y9713D01*
X-87495Y9705D01*
X-87507Y9698D01*
X-87650Y9577D01*
X-87795Y9457D01*
X-87804Y9446D01*
X-87814Y9438D01*
X-87930Y9290D01*
X-88049Y9144D01*
X-88055Y9132D01*
X-88064Y9122D01*
X-88149Y8954D01*
X-88236Y8788D01*
X-88240Y8775D01*
X-88246Y8763D01*
X-88297Y8581D01*
X-88349Y8401D01*
X-88350Y8388D01*
X-88354Y8375D01*
X-88368Y8185D01*
X-88384Y8000D01*
X-88382Y7987D01*
X-88383Y7973D01*
X-88360Y7786D01*
X-88339Y7600D01*
X-88335Y7587D01*
X-88333Y7574D01*
X-88273Y7396D01*
X-88215Y7217D01*
X-88209Y7205D01*
X-88205Y7192D01*
X-88111Y7030D01*
X-88019Y6865D01*
X-88010Y6855D01*
X-88004Y6843D01*
X-87789Y6590D01*
X-78794Y-2404D01*
X-78774Y-2421D01*
X-78756Y-2442D01*
X-78618Y-2549D01*
X-78483Y-2659D01*
X-78459Y-2672D01*
X-78438Y-2688D01*
X-78281Y-2766D01*
X-78127Y-2848D01*
X-78102Y-2856D01*
X-78077Y-2868D01*
X-77908Y-2913D01*
X-77741Y-2963D01*
X-77715Y-2965D01*
X-77689Y-2972D01*
X-77358Y-2999D01*
X-76313Y-2999D01*
X-74082Y-3923D01*
X-72375Y-5630D01*
X-71451Y-7861D01*
X-71451Y-10275D01*
X-71490Y-10370D01*
X-71530Y-10503D01*
X-71579Y-10632D01*
X-71588Y-10695D01*
X-71607Y-10755D01*
X-71620Y-10893D01*
X-71641Y-11030D01*
X-71639Y-11093D01*
X-71645Y-11156D01*
X-71630Y-11294D01*
X-71625Y-11432D01*
X-71610Y-11494D01*
X-71603Y-11556D01*
X-71562Y-11689D01*
X-71529Y-11823D01*
X-71502Y-11881D01*
X-71483Y-11941D01*
X-71417Y-12063D01*
X-71358Y-12188D01*
X-71320Y-12239D01*
X-71290Y-12294D01*
X-71201Y-12400D01*
X-71118Y-12512D01*
X-71072Y-12554D01*
X-71031Y-12602D01*
X-70923Y-12689D01*
X-70820Y-12782D01*
X-70765Y-12814D01*
X-70716Y-12853D01*
X-70593Y-12916D01*
X-70474Y-12987D01*
X-70414Y-13008D01*
X-70358Y-13037D01*
X-70225Y-13075D01*
X-70094Y-13121D01*
X-70022Y-13132D01*
X-69971Y-13147D01*
X-69890Y-13153D01*
X-69766Y-13173D01*
X-69530Y-13190D01*
X-69489Y-13223D01*
X-69379Y-13282D01*
X-69273Y-13349D01*
X-69201Y-13376D01*
X-69134Y-13412D01*
X-68978Y-13461D01*
X-68897Y-13492D01*
X-68861Y-13498D01*
X-68817Y-13512D01*
X-67972Y-13705D01*
X-67896Y-13715D01*
X-67822Y-13734D01*
X-67697Y-13740D01*
X-67573Y-13756D01*
X-67496Y-13750D01*
X-67420Y-13754D01*
X-67296Y-13735D01*
X-67185Y-13727D01*
X-66365Y-14049D01*
X-66300Y-14068D01*
X-66075Y-14139D01*
X-65210Y-14337D01*
X-65175Y-14376D01*
X-65074Y-14450D01*
X-64979Y-14532D01*
X-64913Y-14569D01*
X-64851Y-14615D01*
X-64705Y-14687D01*
X-64629Y-14730D01*
X-64594Y-14741D01*
X-64553Y-14761D01*
X-63746Y-15078D01*
X-63673Y-15099D01*
X-63602Y-15129D01*
X-63479Y-15153D01*
X-63359Y-15187D01*
X-63283Y-15193D01*
X-63207Y-15209D01*
X-63082Y-15209D01*
X-62971Y-15217D01*
X-62208Y-15658D01*
X-62147Y-15686D01*
X-61935Y-15790D01*
X-61109Y-16114D01*
X-61080Y-16158D01*
X-60991Y-16246D01*
X-60910Y-16342D01*
X-60849Y-16389D01*
X-60795Y-16443D01*
X-60662Y-16536D01*
X-60593Y-16590D01*
X-60560Y-16606D01*
X-60523Y-16632D01*
X-59772Y-17065D01*
X-59702Y-17097D01*
X-59637Y-17137D01*
X-59519Y-17180D01*
X-59405Y-17231D01*
X-59331Y-17248D01*
X-59259Y-17275D01*
X-59135Y-17293D01*
X-59026Y-17319D01*
X-58338Y-17868D01*
X-58281Y-17905D01*
X-58087Y-18039D01*
X-57318Y-18483D01*
X-57296Y-18530D01*
X-57222Y-18631D01*
X-57156Y-18738D01*
X-57103Y-18793D01*
X-57058Y-18855D01*
X-56939Y-18967D01*
X-56879Y-19030D01*
X-56850Y-19051D01*
X-56816Y-19082D01*
X-56139Y-19623D01*
X-56074Y-19664D01*
X-56016Y-19714D01*
X-55906Y-19774D01*
X-55801Y-19842D01*
X-55729Y-19870D01*
X-55662Y-19906D01*
X-55543Y-19943D01*
X-55439Y-19984D01*
X-54840Y-20630D01*
X-54789Y-20675D01*
X-54617Y-20837D01*
X-53924Y-21390D01*
X-53909Y-21441D01*
X-53850Y-21552D01*
X-53801Y-21666D01*
X-53757Y-21729D01*
X-53721Y-21797D01*
X-53620Y-21925D01*
X-53571Y-21997D01*
X-53545Y-22021D01*
X-53516Y-22058D01*
X-52927Y-22693D01*
X-52869Y-22744D01*
X-52819Y-22801D01*
X-52719Y-22877D01*
X-52625Y-22960D01*
X-52559Y-22998D01*
X-52498Y-23045D01*
X-52385Y-23099D01*
X-52289Y-23155D01*
X-51982Y-23605D01*
X-51889Y-23716D01*
X-51804Y-23831D01*
X-51760Y-23870D01*
X-51723Y-23914D01*
X-51611Y-24004D01*
X-51504Y-24100D01*
X-51454Y-24129D01*
X-51409Y-24166D01*
X-51281Y-24232D01*
X-51157Y-24305D01*
X-51103Y-24324D01*
X-51051Y-24350D01*
X-50913Y-24390D01*
X-50777Y-24437D01*
X-50720Y-24445D01*
X-50664Y-24461D01*
X-50521Y-24472D01*
X-50378Y-24492D01*
X-50320Y-24488D01*
X-50262Y-24493D01*
X-50120Y-24475D01*
X-49976Y-24467D01*
X-49920Y-24452D01*
X-49863Y-24445D01*
X-49726Y-24400D01*
X-49587Y-24363D01*
X-49528Y-24334D01*
X-49480Y-24319D01*
X-49408Y-24278D01*
X-49287Y-24221D01*
X-18242Y-6297D01*
X-16971Y-9000D01*
X-16953Y-9023D01*
X-16943Y-9051D01*
X-16894Y-9103D01*
X-16852Y-9160D01*
X-16827Y-9174D01*
X-16807Y-9195D01*
X-16741Y-9224D01*
X-16680Y-9260D01*
X-16651Y-9264D01*
X-16624Y-9275D01*
X-16553Y-9276D01*
X-16483Y-9285D01*
X-16455Y-9278D01*
X-16426Y-9278D01*
X-16333Y-9243D01*
X-16291Y-9232D01*
X-16283Y-9225D01*
X-16270Y-9220D01*
X-19Y136D01*
X16232Y-9220D01*
X16260Y-9229D01*
X16284Y-9246D01*
X16354Y-9261D01*
X16421Y-9283D01*
X16450Y-9281D01*
X16478Y-9287D01*
X16548Y-9273D01*
X16619Y-9267D01*
X16645Y-9254D01*
X16673Y-9248D01*
X16732Y-9208D01*
X16795Y-9176D01*
X16814Y-9153D01*
X16838Y-9137D01*
X16895Y-9055D01*
X16922Y-9022D01*
X16925Y-9011D01*
X16933Y-9000D01*
X18205Y-6297D01*
X134793Y-73608D01*
X133070Y-76104D01*
X133059Y-76131D01*
X133041Y-76153D01*
X133020Y-76221D01*
X132992Y-76287D01*
X132992Y-76316D01*
X132984Y-76343D01*
X132992Y-76415D01*
X132992Y-76486D01*
X133003Y-76512D01*
X133006Y-76541D01*
X133041Y-76603D01*
X133069Y-76669D01*
X133090Y-76689D01*
X133104Y-76714D01*
X133167Y-76766D01*
X133171Y-76772D01*
X133180Y-76777D01*
X133181Y-76778D01*
X133211Y-76808D01*
X133222Y-76812D01*
X133232Y-76820D01*
X149732Y-86320D01*
X149805Y-86344D01*
X149876Y-86375D01*
X149899Y-86376D01*
X149921Y-86383D01*
X149997Y-86377D01*
G37*
G36*
X-278397Y108879D02*
X-278397Y108879D01*
X-278252Y108890D01*
X-278198Y108904D01*
X-278142Y108911D01*
X-278004Y108958D01*
X-277864Y108997D01*
X-277814Y109022D01*
X-277761Y109040D01*
X-277634Y109112D01*
X-277504Y109178D01*
X-277460Y109213D01*
X-277412Y109241D01*
X-277249Y109379D01*
X-277188Y109427D01*
X-277176Y109441D01*
X-277159Y109455D01*
X-275313Y111301D01*
X-275302Y111314D01*
X-275289Y111326D01*
X-275175Y111470D01*
X-275058Y111612D01*
X-275050Y111628D01*
X-275039Y111642D01*
X-274955Y111806D01*
X-274870Y111968D01*
X-274865Y111985D01*
X-274857Y112001D01*
X-274807Y112178D01*
X-274755Y112354D01*
X-274753Y112372D01*
X-274749Y112389D01*
X-274735Y112572D01*
X-274719Y112755D01*
X-274721Y112773D01*
X-274719Y112790D01*
X-274742Y112972D01*
X-274762Y113155D01*
X-274767Y113172D01*
X-274770Y113190D01*
X-274828Y113363D01*
X-274884Y113539D01*
X-274892Y113555D01*
X-274898Y113571D01*
X-274990Y113731D01*
X-275078Y113891D01*
X-275090Y113905D01*
X-275099Y113920D01*
X-275313Y114173D01*
X-275920Y114780D01*
X-275941Y114797D01*
X-275958Y114817D01*
X-276096Y114924D01*
X-276232Y115035D01*
X-276255Y115048D01*
X-276277Y115064D01*
X-276433Y115142D01*
X-276587Y115224D01*
X-276613Y115231D01*
X-276637Y115243D01*
X-276806Y115289D01*
X-276973Y115339D01*
X-277000Y115341D01*
X-277026Y115348D01*
X-277357Y115375D01*
X-277432Y115375D01*
X-279663Y116299D01*
X-281370Y118006D01*
X-282294Y120237D01*
X-282294Y122651D01*
X-281370Y124881D01*
X-279663Y126589D01*
X-277432Y127512D01*
X-277357Y127512D01*
X-277330Y127515D01*
X-277303Y127513D01*
X-277129Y127535D01*
X-276956Y127552D01*
X-276930Y127560D01*
X-276904Y127564D01*
X-276738Y127619D01*
X-276571Y127671D01*
X-276547Y127683D01*
X-276522Y127692D01*
X-276370Y127779D01*
X-276217Y127862D01*
X-276197Y127879D01*
X-276173Y127893D01*
X-275920Y128107D01*
X-274797Y129230D01*
X-262903Y129230D01*
X-261786Y128114D01*
X-261772Y128103D01*
X-261761Y128089D01*
X-261616Y127975D01*
X-261475Y127859D01*
X-261459Y127851D01*
X-261445Y127839D01*
X-261281Y127756D01*
X-261119Y127670D01*
X-261102Y127665D01*
X-261086Y127657D01*
X-260909Y127608D01*
X-260733Y127556D01*
X-260715Y127554D01*
X-260698Y127549D01*
X-260515Y127536D01*
X-260332Y127519D01*
X-260314Y127521D01*
X-260297Y127520D01*
X-260115Y127543D01*
X-259932Y127563D01*
X-259915Y127568D01*
X-259897Y127570D01*
X-259723Y127629D01*
X-259548Y127684D01*
X-259532Y127693D01*
X-259516Y127698D01*
X-259357Y127790D01*
X-259196Y127879D01*
X-259182Y127890D01*
X-259167Y127899D01*
X-258914Y128114D01*
X-257797Y129230D01*
X-245903Y129230D01*
X-244218Y127545D01*
X-244204Y127534D01*
X-244192Y127520D01*
X-244048Y127406D01*
X-243906Y127290D01*
X-243890Y127282D01*
X-243876Y127271D01*
X-243712Y127187D01*
X-243550Y127102D01*
X-243533Y127096D01*
X-243517Y127088D01*
X-243340Y127039D01*
X-243164Y126987D01*
X-243147Y126985D01*
X-243129Y126980D01*
X-242946Y126967D01*
X-242763Y126950D01*
X-242746Y126952D01*
X-242728Y126951D01*
X-242546Y126974D01*
X-242363Y126994D01*
X-242346Y126999D01*
X-242328Y127001D01*
X-242155Y127060D01*
X-241979Y127115D01*
X-241964Y127124D01*
X-241947Y127130D01*
X-241787Y127221D01*
X-241627Y127310D01*
X-241614Y127322D01*
X-241598Y127331D01*
X-241345Y127545D01*
X-240151Y128739D01*
X-240140Y128752D01*
X-240127Y128764D01*
X-240013Y128908D01*
X-239896Y129050D01*
X-239888Y129066D01*
X-239877Y129080D01*
X-239793Y129244D01*
X-239708Y129406D01*
X-239703Y129423D01*
X-239695Y129439D01*
X-239645Y129616D01*
X-239593Y129792D01*
X-239591Y129810D01*
X-239587Y129827D01*
X-239573Y130010D01*
X-239557Y130193D01*
X-239559Y130211D01*
X-239557Y130228D01*
X-239580Y130410D01*
X-239600Y130593D01*
X-239605Y130610D01*
X-239608Y130628D01*
X-239666Y130801D01*
X-239722Y130977D01*
X-239730Y130993D01*
X-239736Y131009D01*
X-239828Y131169D01*
X-239916Y131329D01*
X-239928Y131343D01*
X-239937Y131358D01*
X-240151Y131611D01*
X-240768Y132228D01*
X-240768Y147122D01*
X-239428Y148462D01*
X-222534Y148462D01*
X-221305Y147233D01*
X-221291Y147221D01*
X-221280Y147208D01*
X-221136Y147094D01*
X-220994Y146978D01*
X-220978Y146969D01*
X-220964Y146958D01*
X-220800Y146875D01*
X-220638Y146789D01*
X-220621Y146784D01*
X-220605Y146776D01*
X-220428Y146727D01*
X-220252Y146674D01*
X-220234Y146673D01*
X-220217Y146668D01*
X-220034Y146654D01*
X-219851Y146638D01*
X-219833Y146640D01*
X-219815Y146638D01*
X-219633Y146661D01*
X-219451Y146681D01*
X-219434Y146687D01*
X-219416Y146689D01*
X-219242Y146747D01*
X-219067Y146803D01*
X-219051Y146811D01*
X-219034Y146817D01*
X-218876Y146909D01*
X-218715Y146998D01*
X-218701Y147009D01*
X-218685Y147018D01*
X-218432Y147233D01*
X-217203Y148462D01*
X-200309Y148462D01*
X-198834Y146987D01*
X-198811Y146914D01*
X-198803Y146898D01*
X-198797Y146881D01*
X-198707Y146721D01*
X-198620Y146560D01*
X-198608Y146546D01*
X-198600Y146530D01*
X-198479Y146391D01*
X-198362Y146250D01*
X-198348Y146239D01*
X-198336Y146226D01*
X-198191Y146113D01*
X-198048Y145998D01*
X-198032Y145990D01*
X-198018Y145979D01*
X-197853Y145897D01*
X-197691Y145813D01*
X-197674Y145808D01*
X-197658Y145800D01*
X-197480Y145752D01*
X-197304Y145701D01*
X-197286Y145700D01*
X-197269Y145695D01*
X-196938Y145668D01*
X-185347Y145668D01*
X-185189Y145511D01*
X-185176Y145500D01*
X-185164Y145486D01*
X-185020Y145372D01*
X-184878Y145256D01*
X-184862Y145247D01*
X-184848Y145236D01*
X-184685Y145153D01*
X-184522Y145067D01*
X-184505Y145062D01*
X-184489Y145054D01*
X-184313Y145005D01*
X-184136Y144952D01*
X-184119Y144951D01*
X-184101Y144946D01*
X-183918Y144933D01*
X-183735Y144916D01*
X-183718Y144918D01*
X-183700Y144917D01*
X-183518Y144940D01*
X-183335Y144959D01*
X-183318Y144965D01*
X-183300Y144967D01*
X-183126Y145025D01*
X-182951Y145081D01*
X-182936Y145090D01*
X-182919Y145095D01*
X-182759Y145187D01*
X-182599Y145276D01*
X-182585Y145287D01*
X-182570Y145296D01*
X-182317Y145511D01*
X-182160Y145668D01*
X-175375Y145668D01*
X-175348Y145671D01*
X-175321Y145669D01*
X-175148Y145691D01*
X-174974Y145708D01*
X-174949Y145716D01*
X-174922Y145719D01*
X-174756Y145775D01*
X-174589Y145826D01*
X-174566Y145839D01*
X-174540Y145847D01*
X-174389Y145935D01*
X-174235Y146018D01*
X-174215Y146035D01*
X-174191Y146048D01*
X-173938Y146263D01*
X-164019Y156182D01*
X-164002Y156203D01*
X-163982Y156220D01*
X-163875Y156358D01*
X-163764Y156494D01*
X-163752Y156517D01*
X-163735Y156538D01*
X-163657Y156695D01*
X-163575Y156849D01*
X-163568Y156875D01*
X-163556Y156899D01*
X-163510Y157068D01*
X-163461Y157235D01*
X-163459Y157254D01*
X-163457Y157260D01*
X-163457Y157268D01*
X-163451Y157288D01*
X-163424Y157619D01*
X-163424Y167711D01*
X-163409Y167741D01*
X-163323Y167903D01*
X-163318Y167920D01*
X-163310Y167936D01*
X-163261Y168113D01*
X-163209Y168289D01*
X-163207Y168306D01*
X-163202Y168324D01*
X-163189Y168507D01*
X-163172Y168690D01*
X-163174Y168707D01*
X-163173Y168725D01*
X-163196Y168908D01*
X-163216Y169090D01*
X-163221Y169107D01*
X-163223Y169125D01*
X-163282Y169299D01*
X-163337Y169474D01*
X-163346Y169489D01*
X-163351Y169506D01*
X-163443Y169665D01*
X-163532Y169826D01*
X-163543Y169840D01*
X-163552Y169855D01*
X-163767Y170108D01*
X-163924Y170265D01*
X-163924Y182160D01*
X-162585Y183499D01*
X-155081Y183499D01*
X-155055Y183502D01*
X-155028Y183500D01*
X-154854Y183522D01*
X-154681Y183539D01*
X-154655Y183547D01*
X-154628Y183550D01*
X-154463Y183606D01*
X-154296Y183657D01*
X-154272Y183670D01*
X-154247Y183679D01*
X-154095Y183766D01*
X-153942Y183849D01*
X-153921Y183866D01*
X-153898Y183880D01*
X-153645Y184094D01*
X-152837Y184902D01*
X-152820Y184923D01*
X-152800Y184940D01*
X-152693Y185078D01*
X-152582Y185214D01*
X-152569Y185237D01*
X-152553Y185259D01*
X-152475Y185415D01*
X-152393Y185570D01*
X-152386Y185595D01*
X-152374Y185619D01*
X-152328Y185788D01*
X-152278Y185955D01*
X-152276Y185982D01*
X-152269Y186008D01*
X-152242Y186339D01*
X-152242Y191365D01*
X-152245Y191392D01*
X-152243Y191419D01*
X-152265Y191593D01*
X-152282Y191766D01*
X-152290Y191792D01*
X-152293Y191818D01*
X-152349Y191984D01*
X-152400Y192151D01*
X-152413Y192175D01*
X-152421Y192200D01*
X-152509Y192351D01*
X-152592Y192505D01*
X-152609Y192525D01*
X-152622Y192549D01*
X-152837Y192802D01*
X-158338Y198303D01*
X-158338Y206510D01*
X-156722Y208125D01*
X-156717Y208132D01*
X-156710Y208138D01*
X-156590Y208287D01*
X-156467Y208437D01*
X-156463Y208445D01*
X-156458Y208452D01*
X-156369Y208622D01*
X-156279Y208792D01*
X-156276Y208801D01*
X-156272Y208809D01*
X-156219Y208993D01*
X-156164Y209178D01*
X-156163Y209187D01*
X-156161Y209196D01*
X-156145Y209387D01*
X-156128Y209579D01*
X-156129Y209588D01*
X-156128Y209597D01*
X-156150Y209786D01*
X-156171Y209980D01*
X-156174Y209988D01*
X-156175Y209997D01*
X-156234Y210179D01*
X-156293Y210363D01*
X-156297Y210371D01*
X-156300Y210380D01*
X-156395Y210548D01*
X-156487Y210716D01*
X-156493Y210722D01*
X-156498Y210730D01*
X-156623Y210876D01*
X-156748Y211023D01*
X-156755Y211028D01*
X-156761Y211035D01*
X-156912Y211152D01*
X-157064Y211272D01*
X-157072Y211276D01*
X-157079Y211282D01*
X-157251Y211367D01*
X-157423Y211455D01*
X-157431Y211457D01*
X-157439Y211461D01*
X-157625Y211511D01*
X-157811Y211563D01*
X-157819Y211563D01*
X-157828Y211566D01*
X-158159Y211593D01*
X-183841Y211593D01*
X-183859Y211591D01*
X-183877Y211592D01*
X-184059Y211571D01*
X-184242Y211553D01*
X-184259Y211548D01*
X-184277Y211546D01*
X-184451Y211489D01*
X-184627Y211435D01*
X-184642Y211426D01*
X-184659Y211421D01*
X-184820Y211330D01*
X-184981Y211243D01*
X-184994Y211232D01*
X-185010Y211223D01*
X-185149Y211103D01*
X-185290Y210985D01*
X-185301Y210971D01*
X-185315Y210960D01*
X-185427Y210815D01*
X-185542Y210671D01*
X-185551Y210656D01*
X-185562Y210642D01*
X-185644Y210477D01*
X-185728Y210314D01*
X-185733Y210297D01*
X-185741Y210281D01*
X-185789Y210103D01*
X-185839Y209927D01*
X-185841Y209909D01*
X-185845Y209892D01*
X-185872Y209562D01*
X-185872Y209557D01*
X-186796Y207327D01*
X-188504Y205619D01*
X-190734Y204696D01*
X-193148Y204696D01*
X-195463Y205654D01*
X-195618Y205701D01*
X-195771Y205754D01*
X-195811Y205759D01*
X-195848Y205771D01*
X-196009Y205786D01*
X-196170Y205808D01*
X-196210Y205805D01*
X-196249Y205809D01*
X-196410Y205792D01*
X-196572Y205782D01*
X-196610Y205771D01*
X-196650Y205767D01*
X-196805Y205719D01*
X-196961Y205677D01*
X-196996Y205659D01*
X-197034Y205647D01*
X-197177Y205570D01*
X-197321Y205498D01*
X-197352Y205473D01*
X-197387Y205454D01*
X-197511Y205350D01*
X-197639Y205251D01*
X-197665Y205221D01*
X-197695Y205195D01*
X-197797Y205068D01*
X-197902Y204946D01*
X-197925Y204908D01*
X-197946Y204880D01*
X-197986Y204802D01*
X-198070Y204660D01*
X-198429Y203916D01*
X-198455Y203844D01*
X-198490Y203776D01*
X-198524Y203655D01*
X-198567Y203538D01*
X-198578Y203462D01*
X-198599Y203388D01*
X-198609Y203263D01*
X-198625Y203153D01*
X-199122Y202425D01*
X-199154Y202366D01*
X-199274Y202162D01*
X-199659Y201363D01*
X-199705Y201337D01*
X-199800Y201256D01*
X-199901Y201182D01*
X-199952Y201125D01*
X-200010Y201075D01*
X-200113Y200948D01*
X-200172Y200884D01*
X-200190Y200853D01*
X-200219Y200817D01*
X-200707Y200101D01*
X-200744Y200034D01*
X-200789Y199972D01*
X-200840Y199858D01*
X-200900Y199748D01*
X-200923Y199675D01*
X-200954Y199605D01*
X-200982Y199483D01*
X-201016Y199376D01*
X-201615Y198731D01*
X-201656Y198677D01*
X-201805Y198493D01*
X-202305Y197760D01*
X-202353Y197742D01*
X-202460Y197675D01*
X-202570Y197617D01*
X-202630Y197569D01*
X-202695Y197528D01*
X-202815Y197418D01*
X-202883Y197363D01*
X-202905Y197335D01*
X-202939Y197304D01*
X-203529Y196669D01*
X-203576Y196608D01*
X-203629Y196553D01*
X-203697Y196448D01*
X-203773Y196348D01*
X-203806Y196279D01*
X-203847Y196215D01*
X-203893Y196099D01*
X-203942Y195998D01*
X-204631Y195449D01*
X-204679Y195402D01*
X-204854Y195243D01*
X-205457Y194592D01*
X-205509Y194581D01*
X-205623Y194531D01*
X-205742Y194490D01*
X-205807Y194451D01*
X-205878Y194421D01*
X-206013Y194330D01*
X-206088Y194285D01*
X-206115Y194261D01*
X-206153Y194236D01*
X-206831Y193696D01*
X-206886Y193642D01*
X-206947Y193596D01*
X-207030Y193502D01*
X-207120Y193415D01*
X-207163Y193352D01*
X-207213Y193294D01*
X-207276Y193186D01*
X-207339Y193094D01*
X-208102Y192653D01*
X-208157Y192614D01*
X-208353Y192482D01*
X-209047Y191929D01*
X-209099Y191926D01*
X-209221Y191894D01*
X-209344Y191871D01*
X-209414Y191842D01*
X-209489Y191822D01*
X-209636Y191753D01*
X-209717Y191720D01*
X-209747Y191700D01*
X-209789Y191681D01*
X-210539Y191247D01*
X-210601Y191203D01*
X-210669Y191166D01*
X-210765Y191086D01*
X-210866Y191013D01*
X-210919Y190957D01*
X-210977Y190908D01*
X-211055Y190810D01*
X-211131Y190728D01*
X-211952Y190406D01*
X-212012Y190376D01*
X-212225Y190275D01*
X-212994Y189831D01*
X-213046Y189836D01*
X-213170Y189822D01*
X-213296Y189818D01*
X-213370Y189800D01*
X-213446Y189791D01*
X-213602Y189744D01*
X-213687Y189724D01*
X-213720Y189709D01*
X-213764Y189696D01*
X-214571Y189379D01*
X-214639Y189345D01*
X-214711Y189318D01*
X-214818Y189253D01*
X-214929Y189196D01*
X-214989Y189148D01*
X-215055Y189109D01*
X-215146Y189024D01*
X-215234Y188954D01*
X-216093Y188758D01*
X-216157Y188737D01*
X-216383Y188669D01*
X-217209Y188345D01*
X-217260Y188357D01*
X-217385Y188362D01*
X-217510Y188376D01*
X-217586Y188370D01*
X-217662Y188373D01*
X-217824Y188350D01*
X-217911Y188342D01*
X-217945Y188332D01*
X-217991Y188326D01*
X-218836Y188133D01*
X-218908Y188109D01*
X-218983Y188094D01*
X-219099Y188045D01*
X-219218Y188005D01*
X-219284Y187967D01*
X-219355Y187937D01*
X-219458Y187867D01*
X-219555Y187811D01*
X-220434Y187746D01*
X-220500Y187734D01*
X-220734Y187701D01*
X-221599Y187503D01*
X-221647Y187523D01*
X-221770Y187547D01*
X-221891Y187579D01*
X-221968Y187584D01*
X-222043Y187599D01*
X-222206Y187600D01*
X-222293Y187605D01*
X-222329Y187601D01*
X-222375Y187601D01*
X-223239Y187536D01*
X-223314Y187523D01*
X-223391Y187519D01*
X-223512Y187489D01*
X-223636Y187467D01*
X-223707Y187439D01*
X-223781Y187420D01*
X-223894Y187366D01*
X-223998Y187325D01*
X-224877Y187392D01*
X-224944Y187390D01*
X-225180Y187392D01*
X-226065Y187326D01*
X-226110Y187352D01*
X-226228Y187394D01*
X-226343Y187444D01*
X-226417Y187460D01*
X-226490Y187486D01*
X-226651Y187511D01*
X-226736Y187530D01*
X-226772Y187530D01*
X-226817Y187538D01*
X-227682Y187603D01*
X-227758Y187601D01*
X-227835Y187608D01*
X-227959Y187596D01*
X-228084Y187593D01*
X-228159Y187576D01*
X-228235Y187568D01*
X-228355Y187532D01*
X-228464Y187507D01*
X-229323Y187703D01*
X-229390Y187712D01*
X-229623Y187749D01*
X-230508Y187815D01*
X-230548Y187848D01*
X-230659Y187907D01*
X-230765Y187974D01*
X-230836Y188001D01*
X-230904Y188037D01*
X-231059Y188086D01*
X-231141Y188117D01*
X-231176Y188123D01*
X-231220Y188137D01*
X-232065Y188330D01*
X-232141Y188340D01*
X-232215Y188359D01*
X-232340Y188365D01*
X-232465Y188381D01*
X-232541Y188375D01*
X-232617Y188379D01*
X-232741Y188360D01*
X-232853Y188352D01*
X-233673Y188674D01*
X-233738Y188693D01*
X-233963Y188764D01*
X-234828Y188962D01*
X-234863Y189001D01*
X-234964Y189075D01*
X-235058Y189157D01*
X-235125Y189194D01*
X-235186Y189240D01*
X-235333Y189312D01*
X-235409Y189355D01*
X-235443Y189366D01*
X-235484Y189386D01*
X-236291Y189703D01*
X-236365Y189724D01*
X-236435Y189754D01*
X-236558Y189778D01*
X-236679Y189812D01*
X-236755Y189818D01*
X-236830Y189834D01*
X-236955Y189834D01*
X-237066Y189842D01*
X-237829Y190283D01*
X-237890Y190311D01*
X-238103Y190415D01*
X-238929Y190739D01*
X-238958Y190783D01*
X-239046Y190871D01*
X-239128Y190967D01*
X-239188Y191014D01*
X-239242Y191068D01*
X-239376Y191161D01*
X-239445Y191215D01*
X-239477Y191231D01*
X-239515Y191257D01*
X-240265Y191690D01*
X-240335Y191722D01*
X-240400Y191762D01*
X-240518Y191805D01*
X-240632Y191856D01*
X-240707Y191873D01*
X-240779Y191900D01*
X-240902Y191918D01*
X-241011Y191944D01*
X-241700Y192493D01*
X-241757Y192530D01*
X-241951Y192664D01*
X-242719Y193108D01*
X-242741Y193155D01*
X-242815Y193256D01*
X-242882Y193363D01*
X-242934Y193418D01*
X-242980Y193480D01*
X-243099Y193592D01*
X-243159Y193655D01*
X-243188Y193676D01*
X-243221Y193707D01*
X-243899Y194248D01*
X-243963Y194289D01*
X-244022Y194339D01*
X-244132Y194399D01*
X-244237Y194467D01*
X-244308Y194495D01*
X-244375Y194531D01*
X-244495Y194568D01*
X-244599Y194609D01*
X-245198Y195255D01*
X-245248Y195300D01*
X-245420Y195462D01*
X-246114Y196016D01*
X-246129Y196066D01*
X-246187Y196176D01*
X-246237Y196291D01*
X-246281Y196354D01*
X-246316Y196422D01*
X-246417Y196550D01*
X-246467Y196622D01*
X-246493Y196647D01*
X-246521Y196683D01*
X-247111Y197318D01*
X-247168Y197369D01*
X-247219Y197426D01*
X-247318Y197502D01*
X-247412Y197585D01*
X-247479Y197623D01*
X-247540Y197670D01*
X-247652Y197724D01*
X-247749Y197780D01*
X-248056Y198230D01*
X-248148Y198341D01*
X-248234Y198456D01*
X-248277Y198495D01*
X-248314Y198539D01*
X-248426Y198629D01*
X-248533Y198725D01*
X-248583Y198754D01*
X-248629Y198791D01*
X-248756Y198857D01*
X-248880Y198930D01*
X-248935Y198949D01*
X-248986Y198975D01*
X-249125Y199015D01*
X-249260Y199062D01*
X-249318Y199070D01*
X-249374Y199086D01*
X-249517Y199097D01*
X-249659Y199117D01*
X-249717Y199113D01*
X-249775Y199118D01*
X-249918Y199100D01*
X-250061Y199092D01*
X-250117Y199077D01*
X-250175Y199070D01*
X-250311Y199025D01*
X-250450Y198988D01*
X-250510Y198959D01*
X-250557Y198944D01*
X-250629Y198903D01*
X-250750Y198846D01*
X-281787Y180927D01*
X-283086Y183666D01*
X-283103Y183689D01*
X-283114Y183716D01*
X-283163Y183768D01*
X-283205Y183825D01*
X-283230Y183840D01*
X-283250Y183861D01*
X-283316Y183889D01*
X-283377Y183925D01*
X-283406Y183929D01*
X-283433Y183940D01*
X-283504Y183941D01*
X-283575Y183950D01*
X-283603Y183942D01*
X-283631Y183942D01*
X-283725Y183907D01*
X-283766Y183896D01*
X-283775Y183889D01*
X-283787Y183884D01*
X-300265Y174345D01*
X-300322Y174293D01*
X-300384Y174248D01*
X-300396Y174228D01*
X-300413Y174213D01*
X-300446Y174143D01*
X-300486Y174077D01*
X-300490Y174052D01*
X-300499Y174033D01*
X-300501Y173989D01*
X-300514Y173913D01*
X-300536Y154874D01*
X-300531Y154845D01*
X-300533Y154816D01*
X-300511Y154749D01*
X-300497Y154679D01*
X-300481Y154655D01*
X-300472Y154627D01*
X-300425Y154573D01*
X-300385Y154515D01*
X-300360Y154499D01*
X-300341Y154477D01*
X-300277Y154446D01*
X-300217Y154407D01*
X-300189Y154403D01*
X-300163Y154390D01*
X-300063Y154381D01*
X-300021Y154374D01*
X-300010Y154377D01*
X-299997Y154375D01*
X-296978Y154619D01*
X-296978Y118764D01*
X-296964Y118621D01*
X-296958Y118478D01*
X-296944Y118421D01*
X-296938Y118363D01*
X-296896Y118226D01*
X-296862Y118087D01*
X-296837Y118034D01*
X-296820Y117978D01*
X-296752Y117852D01*
X-296691Y117723D01*
X-296656Y117676D01*
X-296628Y117624D01*
X-296536Y117514D01*
X-296451Y117399D01*
X-296408Y117360D01*
X-296370Y117315D01*
X-296259Y117225D01*
X-296152Y117129D01*
X-296102Y117099D01*
X-296057Y117063D01*
X-295930Y116997D01*
X-295806Y116923D01*
X-295751Y116904D01*
X-295699Y116877D01*
X-295562Y116838D01*
X-295426Y116790D01*
X-295361Y116780D01*
X-295312Y116766D01*
X-295230Y116759D01*
X-295099Y116738D01*
X-294541Y116697D01*
X-294501Y116663D01*
X-294390Y116605D01*
X-294284Y116538D01*
X-294213Y116511D01*
X-294145Y116475D01*
X-293990Y116426D01*
X-293908Y116395D01*
X-293873Y116389D01*
X-293829Y116375D01*
X-292986Y116183D01*
X-292910Y116173D01*
X-292836Y116154D01*
X-292711Y116148D01*
X-292586Y116132D01*
X-292510Y116138D01*
X-292434Y116134D01*
X-292310Y116153D01*
X-292199Y116161D01*
X-291378Y115839D01*
X-291314Y115821D01*
X-291088Y115749D01*
X-290223Y115552D01*
X-290188Y115513D01*
X-290087Y115439D01*
X-289993Y115357D01*
X-289926Y115319D01*
X-289864Y115274D01*
X-289718Y115202D01*
X-289642Y115159D01*
X-289608Y115148D01*
X-289566Y115128D01*
X-288762Y114812D01*
X-288688Y114791D01*
X-288617Y114762D01*
X-288495Y114737D01*
X-288374Y114703D01*
X-288298Y114697D01*
X-288223Y114682D01*
X-288098Y114682D01*
X-287986Y114673D01*
X-287223Y114233D01*
X-287162Y114205D01*
X-286950Y114101D01*
X-286124Y113777D01*
X-286095Y113733D01*
X-286006Y113644D01*
X-285925Y113549D01*
X-285864Y113502D01*
X-285810Y113448D01*
X-285676Y113355D01*
X-285607Y113302D01*
X-285575Y113285D01*
X-285538Y113259D01*
X-284789Y112827D01*
X-284719Y112796D01*
X-284654Y112756D01*
X-284536Y112713D01*
X-284422Y112661D01*
X-284347Y112644D01*
X-284275Y112618D01*
X-284152Y112599D01*
X-284043Y112574D01*
X-283354Y112025D01*
X-283298Y111988D01*
X-283103Y111854D01*
X-282335Y111410D01*
X-282312Y111363D01*
X-282238Y111262D01*
X-282172Y111156D01*
X-282119Y111100D01*
X-282074Y111039D01*
X-281955Y110927D01*
X-281895Y110863D01*
X-281866Y110843D01*
X-281832Y110811D01*
X-281156Y110272D01*
X-281092Y110231D01*
X-281033Y110182D01*
X-280923Y110122D01*
X-280818Y110054D01*
X-280747Y110025D01*
X-280680Y109989D01*
X-280560Y109952D01*
X-280456Y109911D01*
X-280084Y109510D01*
X-280042Y109473D01*
X-280006Y109430D01*
X-279892Y109340D01*
X-279782Y109243D01*
X-279734Y109215D01*
X-279690Y109181D01*
X-279560Y109115D01*
X-279434Y109042D01*
X-279381Y109024D01*
X-279331Y108998D01*
X-279191Y108959D01*
X-279053Y108913D01*
X-278997Y108905D01*
X-278943Y108890D01*
X-278798Y108880D01*
X-278653Y108861D01*
X-278598Y108865D01*
X-278542Y108861D01*
X-278397Y108879D01*
G37*
G36*
X-249646Y-24486D02*
X-249646Y-24486D01*
X-249588Y-24488D01*
X-249447Y-24463D01*
X-249304Y-24447D01*
X-249249Y-24429D01*
X-249192Y-24419D01*
X-249058Y-24367D01*
X-248921Y-24323D01*
X-248870Y-24294D01*
X-248816Y-24274D01*
X-248695Y-24196D01*
X-248570Y-24126D01*
X-248526Y-24088D01*
X-248477Y-24057D01*
X-248373Y-23957D01*
X-248264Y-23863D01*
X-248223Y-23812D01*
X-248187Y-23777D01*
X-248140Y-23709D01*
X-248056Y-23605D01*
X-247745Y-23150D01*
X-247697Y-23131D01*
X-247590Y-23065D01*
X-247480Y-23006D01*
X-247421Y-22958D01*
X-247356Y-22917D01*
X-247235Y-22807D01*
X-247168Y-22752D01*
X-247145Y-22725D01*
X-247111Y-22693D01*
X-246521Y-22058D01*
X-246475Y-21997D01*
X-246422Y-21942D01*
X-246354Y-21837D01*
X-246278Y-21737D01*
X-246245Y-21668D01*
X-246203Y-21604D01*
X-246158Y-21487D01*
X-246109Y-21387D01*
X-245420Y-20837D01*
X-245372Y-20790D01*
X-245198Y-20630D01*
X-244595Y-19980D01*
X-244543Y-19969D01*
X-244429Y-19919D01*
X-244310Y-19877D01*
X-244245Y-19839D01*
X-244174Y-19808D01*
X-244039Y-19717D01*
X-243964Y-19673D01*
X-243937Y-19649D01*
X-243899Y-19623D01*
X-243221Y-19082D01*
X-243167Y-19029D01*
X-243106Y-18983D01*
X-243023Y-18889D01*
X-242933Y-18801D01*
X-242890Y-18738D01*
X-242839Y-18681D01*
X-242777Y-18572D01*
X-242714Y-18480D01*
X-241951Y-18039D01*
X-241896Y-18000D01*
X-241700Y-17868D01*
X-241006Y-17315D01*
X-240954Y-17311D01*
X-240833Y-17279D01*
X-240710Y-17256D01*
X-240639Y-17227D01*
X-240565Y-17207D01*
X-240418Y-17138D01*
X-240337Y-17105D01*
X-240307Y-17085D01*
X-240265Y-17065D01*
X-239515Y-16632D01*
X-239453Y-16587D01*
X-239386Y-16550D01*
X-239290Y-16470D01*
X-239188Y-16397D01*
X-239136Y-16341D01*
X-239077Y-16292D01*
X-238999Y-16194D01*
X-238923Y-16112D01*
X-238103Y-15790D01*
X-238043Y-15759D01*
X-237829Y-15658D01*
X-237061Y-15214D01*
X-237009Y-15219D01*
X-236885Y-15205D01*
X-236759Y-15200D01*
X-236685Y-15182D01*
X-236609Y-15174D01*
X-236453Y-15127D01*
X-236368Y-15106D01*
X-236335Y-15091D01*
X-236291Y-15078D01*
X-235484Y-14761D01*
X-235416Y-14726D01*
X-235344Y-14700D01*
X-235238Y-14635D01*
X-235126Y-14578D01*
X-235066Y-14530D01*
X-235001Y-14490D01*
X-234909Y-14405D01*
X-234822Y-14335D01*
X-233963Y-14139D01*
X-233899Y-14118D01*
X-233673Y-14049D01*
X-232847Y-13725D01*
X-232796Y-13737D01*
X-232671Y-13742D01*
X-232546Y-13756D01*
X-232470Y-13750D01*
X-232394Y-13753D01*
X-232232Y-13729D01*
X-232145Y-13722D01*
X-232111Y-13712D01*
X-232065Y-13705D01*
X-231220Y-13512D01*
X-231148Y-13488D01*
X-231073Y-13473D01*
X-230957Y-13424D01*
X-230839Y-13384D01*
X-230772Y-13346D01*
X-230702Y-13316D01*
X-230598Y-13246D01*
X-230502Y-13190D01*
X-229623Y-13124D01*
X-229556Y-13112D01*
X-229323Y-13078D01*
X-228458Y-12881D01*
X-228409Y-12900D01*
X-228286Y-12924D01*
X-228165Y-12956D01*
X-228089Y-12961D01*
X-228014Y-12975D01*
X-227850Y-12977D01*
X-227764Y-12982D01*
X-227728Y-12977D01*
X-227682Y-12978D01*
X-226817Y-12913D01*
X-226742Y-12899D01*
X-226666Y-12895D01*
X-226544Y-12865D01*
X-226421Y-12843D01*
X-226350Y-12815D01*
X-226276Y-12796D01*
X-226163Y-12742D01*
X-226059Y-12701D01*
X-225180Y-12767D01*
X-225113Y-12765D01*
X-224877Y-12767D01*
X-223992Y-12700D01*
X-223947Y-12727D01*
X-223829Y-12768D01*
X-223714Y-12818D01*
X-223639Y-12834D01*
X-223567Y-12860D01*
X-223406Y-12885D01*
X-223320Y-12904D01*
X-223285Y-12904D01*
X-223239Y-12911D01*
X-222375Y-12976D01*
X-222298Y-12974D01*
X-222222Y-12982D01*
X-222097Y-12969D01*
X-221972Y-12966D01*
X-221898Y-12949D01*
X-221821Y-12941D01*
X-221701Y-12905D01*
X-221593Y-12880D01*
X-220734Y-13076D01*
X-220667Y-13084D01*
X-220434Y-13121D01*
X-219549Y-13187D01*
X-219508Y-13220D01*
X-219397Y-13278D01*
X-219291Y-13345D01*
X-219220Y-13372D01*
X-219152Y-13408D01*
X-218997Y-13457D01*
X-218915Y-13488D01*
X-218880Y-13494D01*
X-218836Y-13508D01*
X-217991Y-13701D01*
X-217915Y-13710D01*
X-217841Y-13729D01*
X-217716Y-13735D01*
X-217591Y-13751D01*
X-217515Y-13745D01*
X-217439Y-13749D01*
X-217315Y-13730D01*
X-217203Y-13722D01*
X-216383Y-14044D01*
X-216318Y-14062D01*
X-216093Y-14133D01*
X-215228Y-14331D01*
X-215193Y-14369D01*
X-215092Y-14444D01*
X-214997Y-14525D01*
X-214930Y-14563D01*
X-214869Y-14609D01*
X-214723Y-14680D01*
X-214646Y-14723D01*
X-214612Y-14734D01*
X-214571Y-14754D01*
X-213764Y-15071D01*
X-213690Y-15092D01*
X-213620Y-15121D01*
X-213497Y-15146D01*
X-213376Y-15180D01*
X-213300Y-15186D01*
X-213225Y-15201D01*
X-213100Y-15201D01*
X-212989Y-15209D01*
X-212225Y-15650D01*
X-212164Y-15678D01*
X-211952Y-15781D01*
X-211126Y-16105D01*
X-211097Y-16149D01*
X-211008Y-16238D01*
X-210927Y-16333D01*
X-210866Y-16379D01*
X-210812Y-16434D01*
X-210678Y-16527D01*
X-210609Y-16580D01*
X-210577Y-16596D01*
X-210539Y-16622D01*
X-209789Y-17056D01*
X-209719Y-17087D01*
X-209653Y-17127D01*
X-209535Y-17170D01*
X-209422Y-17221D01*
X-209347Y-17238D01*
X-209275Y-17265D01*
X-209151Y-17283D01*
X-209029Y-17311D01*
X-208953Y-17313D01*
X-208877Y-17325D01*
X-208714Y-17320D01*
X-208627Y-17322D01*
X-208591Y-17316D01*
X-208545Y-17315D01*
X-208225Y-17278D01*
X-208114Y-17255D01*
X-208000Y-17240D01*
X-207917Y-17212D01*
X-207831Y-17194D01*
X-207727Y-17148D01*
X-207619Y-17112D01*
X-207542Y-17068D01*
X-207462Y-17033D01*
X-207369Y-16968D01*
X-207270Y-16911D01*
X-207190Y-16844D01*
X-207132Y-16803D01*
X-207087Y-16756D01*
X-207017Y-16696D01*
X-178237Y12084D01*
X-178220Y12104D01*
X-178200Y12122D01*
X-178093Y12260D01*
X-177982Y12395D01*
X-177969Y12419D01*
X-177953Y12440D01*
X-177875Y12597D01*
X-177793Y12751D01*
X-177786Y12776D01*
X-177774Y12800D01*
X-177728Y12970D01*
X-177678Y13137D01*
X-177676Y13163D01*
X-177669Y13189D01*
X-177642Y13520D01*
X-177642Y16004D01*
X-177637Y16015D01*
X-177546Y16185D01*
X-177543Y16194D01*
X-177539Y16202D01*
X-177486Y16386D01*
X-177431Y16571D01*
X-177430Y16580D01*
X-177428Y16589D01*
X-177412Y16780D01*
X-177395Y16972D01*
X-177396Y16981D01*
X-177395Y16990D01*
X-177417Y17178D01*
X-177438Y17372D01*
X-177441Y17381D01*
X-177442Y17390D01*
X-177502Y17574D01*
X-177560Y17756D01*
X-177564Y17764D01*
X-177567Y17773D01*
X-177661Y17940D01*
X-177754Y18109D01*
X-177760Y18116D01*
X-177765Y18123D01*
X-177890Y18268D01*
X-178015Y18416D01*
X-178022Y18421D01*
X-178028Y18428D01*
X-178179Y18545D01*
X-178331Y18665D01*
X-178339Y18669D01*
X-178346Y18675D01*
X-178518Y18760D01*
X-178690Y18848D01*
X-178698Y18850D01*
X-178707Y18854D01*
X-178894Y18905D01*
X-179078Y18956D01*
X-179087Y18956D01*
X-179095Y18959D01*
X-179426Y18986D01*
X-213938Y18986D01*
X-220964Y26011D01*
X-220984Y26028D01*
X-221002Y26048D01*
X-221140Y26155D01*
X-221275Y26266D01*
X-221299Y26278D01*
X-221320Y26295D01*
X-221477Y26373D01*
X-221631Y26455D01*
X-221656Y26462D01*
X-221680Y26474D01*
X-221850Y26520D01*
X-222017Y26569D01*
X-222043Y26572D01*
X-222069Y26579D01*
X-222400Y26606D01*
X-229106Y26606D01*
X-229128Y26604D01*
X-229150Y26605D01*
X-229328Y26584D01*
X-229506Y26566D01*
X-229528Y26559D01*
X-229550Y26557D01*
X-229719Y26500D01*
X-229891Y26448D01*
X-229911Y26437D01*
X-229932Y26430D01*
X-230087Y26341D01*
X-230245Y26256D01*
X-230262Y26242D01*
X-230282Y26231D01*
X-230417Y26113D01*
X-230554Y25998D01*
X-230568Y25981D01*
X-230585Y25966D01*
X-230695Y25824D01*
X-230807Y25684D01*
X-230817Y25665D01*
X-230831Y25647D01*
X-230982Y25352D01*
X-231314Y24551D01*
X-234101Y21764D01*
X-235043Y21374D01*
X-237742Y20256D01*
X-241683Y20256D01*
X-245324Y21764D01*
X-248111Y24551D01*
X-249619Y28192D01*
X-249619Y32133D01*
X-248111Y35774D01*
X-245324Y38561D01*
X-241683Y40069D01*
X-237742Y40069D01*
X-234518Y38734D01*
X-234514Y38733D01*
X-234510Y38730D01*
X-234321Y38674D01*
X-234133Y38617D01*
X-234128Y38617D01*
X-234124Y38616D01*
X-233926Y38598D01*
X-233732Y38579D01*
X-233728Y38580D01*
X-233723Y38579D01*
X-233524Y38601D01*
X-233331Y38621D01*
X-233327Y38622D01*
X-233323Y38623D01*
X-233135Y38682D01*
X-232947Y38741D01*
X-232943Y38743D01*
X-232939Y38744D01*
X-232765Y38840D01*
X-232594Y38934D01*
X-232590Y38937D01*
X-232586Y38939D01*
X-232437Y39066D01*
X-232286Y39193D01*
X-232283Y39197D01*
X-232279Y39200D01*
X-232158Y39353D01*
X-232035Y39508D01*
X-232033Y39512D01*
X-232030Y39515D01*
X-231940Y39692D01*
X-231851Y39866D01*
X-231850Y39870D01*
X-231848Y39874D01*
X-231794Y40066D01*
X-231741Y40253D01*
X-231741Y40258D01*
X-231740Y40262D01*
X-231725Y40464D01*
X-231710Y40655D01*
X-231710Y40659D01*
X-231710Y40664D01*
X-231735Y40861D01*
X-231759Y41055D01*
X-231760Y41059D01*
X-231761Y41063D01*
X-231823Y41248D01*
X-231885Y41437D01*
X-231887Y41441D01*
X-231889Y41445D01*
X-231987Y41615D01*
X-232085Y41787D01*
X-232087Y41790D01*
X-232090Y41794D01*
X-232304Y42047D01*
X-235489Y45232D01*
X-235506Y45246D01*
X-235521Y45263D01*
X-235662Y45373D01*
X-235801Y45487D01*
X-235820Y45497D01*
X-235838Y45511D01*
X-235997Y45591D01*
X-236156Y45675D01*
X-236178Y45682D01*
X-236198Y45692D01*
X-236370Y45739D01*
X-236542Y45790D01*
X-236565Y45792D01*
X-236586Y45798D01*
X-236765Y45810D01*
X-236943Y45826D01*
X-236965Y45824D01*
X-236988Y45826D01*
X-237166Y45802D01*
X-237344Y45783D01*
X-237365Y45776D01*
X-237387Y45773D01*
X-237703Y45672D01*
X-237742Y45656D01*
X-241683Y45656D01*
X-245324Y47164D01*
X-248111Y49951D01*
X-249619Y53592D01*
X-249619Y57533D01*
X-248111Y61174D01*
X-245324Y63961D01*
X-245285Y63977D01*
X-245266Y63988D01*
X-245244Y63995D01*
X-245088Y64083D01*
X-244930Y64167D01*
X-244913Y64182D01*
X-244894Y64193D01*
X-244758Y64310D01*
X-244620Y64424D01*
X-244606Y64441D01*
X-244589Y64456D01*
X-244479Y64597D01*
X-244366Y64736D01*
X-244356Y64756D01*
X-244342Y64774D01*
X-244263Y64934D01*
X-244179Y65093D01*
X-244173Y65114D01*
X-244163Y65134D01*
X-244116Y65307D01*
X-244066Y65479D01*
X-244064Y65502D01*
X-244058Y65523D01*
X-244031Y65854D01*
X-244031Y70671D01*
X-244033Y70693D01*
X-244032Y70716D01*
X-244053Y70893D01*
X-244071Y71072D01*
X-244078Y71093D01*
X-244080Y71115D01*
X-244137Y71285D01*
X-244189Y71457D01*
X-244200Y71476D01*
X-244207Y71498D01*
X-244296Y71654D01*
X-244381Y71811D01*
X-244395Y71828D01*
X-244406Y71847D01*
X-244524Y71983D01*
X-244639Y72120D01*
X-244656Y72134D01*
X-244671Y72151D01*
X-244813Y72260D01*
X-244953Y72372D01*
X-244972Y72383D01*
X-244990Y72396D01*
X-245285Y72548D01*
X-245324Y72564D01*
X-248111Y75351D01*
X-249619Y78992D01*
X-249619Y82933D01*
X-248111Y86574D01*
X-245324Y89361D01*
X-241683Y90869D01*
X-237742Y90869D01*
X-234413Y89490D01*
X-234396Y89485D01*
X-234380Y89477D01*
X-234204Y89427D01*
X-234027Y89374D01*
X-234009Y89372D01*
X-233992Y89367D01*
X-233810Y89353D01*
X-233627Y89336D01*
X-233609Y89338D01*
X-233591Y89336D01*
X-233410Y89358D01*
X-233226Y89377D01*
X-233209Y89383D01*
X-233191Y89385D01*
X-233018Y89442D01*
X-232842Y89497D01*
X-232826Y89506D01*
X-232809Y89511D01*
X-232649Y89603D01*
X-232489Y89690D01*
X-232475Y89702D01*
X-232459Y89711D01*
X-232320Y89832D01*
X-232180Y89950D01*
X-232169Y89963D01*
X-232156Y89975D01*
X-232044Y90120D01*
X-231929Y90264D01*
X-231921Y90280D01*
X-231910Y90294D01*
X-231759Y90590D01*
X-231364Y91544D01*
X-229656Y93251D01*
X-227426Y94175D01*
X-225012Y94175D01*
X-222781Y93251D01*
X-221074Y91544D01*
X-220150Y89313D01*
X-220150Y86899D01*
X-220193Y86795D01*
X-220197Y86783D01*
X-220203Y86771D01*
X-220255Y86589D01*
X-220309Y86410D01*
X-220311Y86397D01*
X-220314Y86384D01*
X-220330Y86195D01*
X-220348Y86009D01*
X-220346Y85996D01*
X-220347Y85982D01*
X-220325Y85796D01*
X-220306Y85609D01*
X-220302Y85596D01*
X-220300Y85583D01*
X-220242Y85404D01*
X-220186Y85224D01*
X-220180Y85213D01*
X-220176Y85200D01*
X-220083Y85036D01*
X-219993Y84871D01*
X-219984Y84861D01*
X-219978Y84849D01*
X-219855Y84707D01*
X-219734Y84563D01*
X-219723Y84555D01*
X-219715Y84544D01*
X-219566Y84429D01*
X-219419Y84312D01*
X-219407Y84306D01*
X-219396Y84298D01*
X-219228Y84214D01*
X-219061Y84128D01*
X-219048Y84124D01*
X-219036Y84118D01*
X-218853Y84069D01*
X-218673Y84018D01*
X-218660Y84017D01*
X-218647Y84014D01*
X-218316Y83987D01*
X-215278Y83987D01*
X-214161Y82870D01*
X-214147Y82859D01*
X-214136Y82845D01*
X-213992Y82731D01*
X-213850Y82615D01*
X-213834Y82607D01*
X-213820Y82596D01*
X-213656Y82512D01*
X-213494Y82427D01*
X-213477Y82421D01*
X-213461Y82413D01*
X-213284Y82364D01*
X-213108Y82312D01*
X-213090Y82310D01*
X-213073Y82305D01*
X-212890Y82292D01*
X-212707Y82275D01*
X-212689Y82277D01*
X-212672Y82276D01*
X-212490Y82299D01*
X-212307Y82319D01*
X-212290Y82324D01*
X-212272Y82326D01*
X-212098Y82385D01*
X-211923Y82440D01*
X-211907Y82449D01*
X-211891Y82455D01*
X-211732Y82546D01*
X-211571Y82635D01*
X-211557Y82647D01*
X-211542Y82656D01*
X-211289Y82870D01*
X-210172Y83987D01*
X-203024Y83987D01*
X-203015Y83988D01*
X-203006Y83987D01*
X-202812Y84008D01*
X-202623Y84027D01*
X-202614Y84029D01*
X-202605Y84030D01*
X-202422Y84088D01*
X-202238Y84145D01*
X-202230Y84149D01*
X-202222Y84152D01*
X-202054Y84244D01*
X-201884Y84337D01*
X-201877Y84342D01*
X-201869Y84347D01*
X-201722Y84471D01*
X-201575Y84594D01*
X-201569Y84601D01*
X-201562Y84607D01*
X-201443Y84759D01*
X-201322Y84908D01*
X-201318Y84916D01*
X-201313Y84923D01*
X-201225Y85096D01*
X-201137Y85265D01*
X-201134Y85274D01*
X-201130Y85282D01*
X-201078Y85468D01*
X-201025Y85652D01*
X-201025Y85661D01*
X-201022Y85670D01*
X-201008Y85862D01*
X-200993Y86054D01*
X-200994Y86062D01*
X-200993Y86071D01*
X-201017Y86264D01*
X-201039Y86453D01*
X-201042Y86462D01*
X-201043Y86471D01*
X-201105Y86654D01*
X-201164Y86836D01*
X-201169Y86844D01*
X-201172Y86852D01*
X-201267Y87019D01*
X-201362Y87187D01*
X-201368Y87194D01*
X-201373Y87201D01*
X-201587Y87454D01*
X-212121Y97988D01*
X-212142Y98005D01*
X-212159Y98025D01*
X-212297Y98132D01*
X-212433Y98243D01*
X-212456Y98256D01*
X-212477Y98272D01*
X-212634Y98350D01*
X-212788Y98432D01*
X-212814Y98439D01*
X-212838Y98451D01*
X-213007Y98497D01*
X-213174Y98547D01*
X-213201Y98549D01*
X-213227Y98556D01*
X-213557Y98583D01*
X-261242Y98583D01*
X-261264Y98581D01*
X-261287Y98583D01*
X-261464Y98561D01*
X-261643Y98543D01*
X-261664Y98537D01*
X-261686Y98534D01*
X-261856Y98478D01*
X-262028Y98425D01*
X-262047Y98414D01*
X-262068Y98407D01*
X-262224Y98319D01*
X-262382Y98233D01*
X-262399Y98219D01*
X-262418Y98208D01*
X-262554Y98090D01*
X-262691Y97975D01*
X-262705Y97958D01*
X-262722Y97943D01*
X-262831Y97801D01*
X-262943Y97662D01*
X-262954Y97642D01*
X-262967Y97624D01*
X-263119Y97329D01*
X-263609Y96145D01*
X-265316Y94438D01*
X-267547Y93514D01*
X-268433Y93514D01*
X-268442Y93513D01*
X-268451Y93514D01*
X-268642Y93493D01*
X-268834Y93474D01*
X-268843Y93472D01*
X-268852Y93471D01*
X-269035Y93413D01*
X-269219Y93356D01*
X-269227Y93352D01*
X-269235Y93349D01*
X-269404Y93256D01*
X-269573Y93164D01*
X-269580Y93159D01*
X-269588Y93154D01*
X-269736Y93028D01*
X-269882Y92907D01*
X-269888Y92900D01*
X-269895Y92894D01*
X-270015Y92742D01*
X-270134Y92593D01*
X-270139Y92585D01*
X-270144Y92578D01*
X-270231Y92406D01*
X-270320Y92235D01*
X-270322Y92227D01*
X-270327Y92219D01*
X-270378Y92033D01*
X-270431Y91849D01*
X-270432Y91840D01*
X-270434Y91831D01*
X-270448Y91640D01*
X-270464Y91447D01*
X-270463Y91438D01*
X-270464Y91429D01*
X-270440Y91239D01*
X-270417Y91047D01*
X-270414Y91039D01*
X-270413Y91030D01*
X-270352Y90847D01*
X-270308Y90711D01*
X-270308Y89691D01*
X-270301Y89625D01*
X-270285Y89389D01*
X-270153Y88511D01*
X-270176Y88464D01*
X-270208Y88343D01*
X-270250Y88225D01*
X-270260Y88150D01*
X-270280Y88076D01*
X-270294Y87912D01*
X-270306Y87826D01*
X-270304Y87791D01*
X-270308Y87745D01*
X-270308Y86880D01*
X-270300Y86804D01*
X-270302Y86728D01*
X-270280Y86604D01*
X-270268Y86480D01*
X-270245Y86406D01*
X-270232Y86331D01*
X-270186Y86214D01*
X-270154Y86108D01*
X-270285Y85236D01*
X-270288Y85169D01*
X-270308Y84934D01*
X-270308Y84046D01*
X-270338Y84004D01*
X-270388Y83889D01*
X-270446Y83778D01*
X-270468Y83705D01*
X-270499Y83635D01*
X-270536Y83476D01*
X-270561Y83392D01*
X-270564Y83357D01*
X-270575Y83312D01*
X-270704Y82457D01*
X-270708Y82380D01*
X-270721Y82305D01*
X-270718Y82180D01*
X-270724Y82055D01*
X-270713Y81979D01*
X-270711Y81902D01*
X-270683Y81780D01*
X-270667Y81670D01*
X-270926Y80828D01*
X-270940Y80762D01*
X-270994Y80532D01*
X-271126Y79655D01*
X-271162Y79617D01*
X-271229Y79511D01*
X-271303Y79410D01*
X-271336Y79341D01*
X-271377Y79276D01*
X-271437Y79125D01*
X-271474Y79046D01*
X-271483Y79011D01*
X-271500Y78968D01*
X-271755Y78142D01*
X-271770Y78067D01*
X-271794Y77994D01*
X-271810Y77870D01*
X-271835Y77747D01*
X-271835Y77671D01*
X-271845Y77595D01*
X-271835Y77470D01*
X-271835Y77358D01*
X-272218Y76565D01*
X-272241Y76502D01*
X-272329Y76282D01*
X-272590Y75434D01*
X-272631Y75402D01*
X-272713Y75307D01*
X-272802Y75219D01*
X-272845Y75155D01*
X-272894Y75097D01*
X-272977Y74957D01*
X-273025Y74884D01*
X-273039Y74850D01*
X-273062Y74811D01*
X-273437Y74032D01*
X-273464Y73960D01*
X-273498Y73892D01*
X-273532Y73771D01*
X-273575Y73654D01*
X-273587Y73578D01*
X-273608Y73504D01*
X-273617Y73379D01*
X-273634Y73269D01*
X-274130Y72541D01*
X-274162Y72482D01*
X-274282Y72278D01*
X-274667Y71479D01*
X-274713Y71453D01*
X-274808Y71371D01*
X-274908Y71297D01*
X-274960Y71241D01*
X-275018Y71191D01*
X-275121Y71064D01*
X-275179Y70999D01*
X-275198Y70969D01*
X-275227Y70933D01*
X-275714Y70218D01*
X-275750Y70151D01*
X-275795Y70089D01*
X-275846Y69975D01*
X-275906Y69865D01*
X-275929Y69792D01*
X-275961Y69722D01*
X-275989Y69600D01*
X-276022Y69493D01*
X-276621Y68848D01*
X-276661Y68794D01*
X-276810Y68610D01*
X-277310Y67877D01*
X-277359Y67858D01*
X-277465Y67792D01*
X-277576Y67734D01*
X-277635Y67685D01*
X-277700Y67645D01*
X-277820Y67535D01*
X-277888Y67479D01*
X-277911Y67452D01*
X-277945Y67421D01*
X-278533Y66787D01*
X-278579Y66726D01*
X-278633Y66671D01*
X-278701Y66566D01*
X-278776Y66466D01*
X-278809Y66397D01*
X-278851Y66333D01*
X-278897Y66216D01*
X-278945Y66116D01*
X-279634Y65566D01*
X-279682Y65520D01*
X-279857Y65360D01*
X-280460Y64709D01*
X-280511Y64698D01*
X-280626Y64649D01*
X-280745Y64607D01*
X-280811Y64568D01*
X-280881Y64538D01*
X-281016Y64447D01*
X-281091Y64402D01*
X-281118Y64378D01*
X-281156Y64353D01*
X-281832Y63814D01*
X-281887Y63760D01*
X-281948Y63714D01*
X-282031Y63620D01*
X-282120Y63533D01*
X-282164Y63470D01*
X-282214Y63412D01*
X-282277Y63304D01*
X-282340Y63212D01*
X-283103Y62771D01*
X-283158Y62732D01*
X-283354Y62600D01*
X-284048Y62047D01*
X-284100Y62044D01*
X-284221Y62011D01*
X-284344Y61988D01*
X-284415Y61960D01*
X-284489Y61940D01*
X-284636Y61870D01*
X-284717Y61837D01*
X-284747Y61818D01*
X-284789Y61798D01*
X-285538Y61366D01*
X-285600Y61321D01*
X-285667Y61284D01*
X-285763Y61204D01*
X-285865Y61131D01*
X-285917Y61075D01*
X-285975Y61026D01*
X-286054Y60928D01*
X-286129Y60846D01*
X-286950Y60524D01*
X-287010Y60493D01*
X-287223Y60392D01*
X-287992Y59949D01*
X-288044Y59953D01*
X-288168Y59939D01*
X-288293Y59935D01*
X-288368Y59917D01*
X-288444Y59909D01*
X-288600Y59862D01*
X-288685Y59841D01*
X-288718Y59826D01*
X-288762Y59813D01*
X-289566Y59497D01*
X-289634Y59462D01*
X-289706Y59436D01*
X-289813Y59371D01*
X-289925Y59314D01*
X-289985Y59266D01*
X-290050Y59226D01*
X-290142Y59141D01*
X-290229Y59072D01*
X-291088Y58875D01*
X-291152Y58854D01*
X-291378Y58786D01*
X-292204Y58462D01*
X-292255Y58474D01*
X-292381Y58479D01*
X-292505Y58493D01*
X-292581Y58487D01*
X-292657Y58490D01*
X-292819Y58466D01*
X-292906Y58459D01*
X-292940Y58449D01*
X-292986Y58442D01*
X-293829Y58250D01*
X-293901Y58226D01*
X-293976Y58210D01*
X-294092Y58162D01*
X-294211Y58122D01*
X-294277Y58084D01*
X-294347Y58054D01*
X-294451Y57984D01*
X-294548Y57928D01*
X-295099Y57887D01*
X-295240Y57862D01*
X-295382Y57845D01*
X-295438Y57827D01*
X-295495Y57817D01*
X-295629Y57765D01*
X-295765Y57720D01*
X-295816Y57692D01*
X-295870Y57670D01*
X-295991Y57593D01*
X-296116Y57522D01*
X-296160Y57484D01*
X-296209Y57453D01*
X-296312Y57353D01*
X-296420Y57259D01*
X-296456Y57213D01*
X-296498Y57173D01*
X-296579Y57054D01*
X-296667Y56941D01*
X-296693Y56889D01*
X-296726Y56841D01*
X-296782Y56709D01*
X-296846Y56581D01*
X-296862Y56524D01*
X-296884Y56471D01*
X-296914Y56331D01*
X-296951Y56192D01*
X-296956Y56125D01*
X-296967Y56076D01*
X-296967Y55994D01*
X-296978Y55861D01*
X-296978Y20006D01*
X-299997Y20250D01*
X-300026Y20246D01*
X-300054Y20251D01*
X-300124Y20234D01*
X-300194Y20226D01*
X-300220Y20211D01*
X-300248Y20205D01*
X-300305Y20162D01*
X-300367Y20127D01*
X-300384Y20104D01*
X-300408Y20087D01*
X-300444Y20025D01*
X-300487Y19968D01*
X-300494Y19940D01*
X-300509Y19915D01*
X-300525Y19817D01*
X-300536Y19776D01*
X-300534Y19765D01*
X-300536Y19751D01*
X-300514Y712D01*
X-300498Y637D01*
X-300490Y560D01*
X-300478Y540D01*
X-300474Y517D01*
X-300430Y454D01*
X-300393Y387D01*
X-300373Y370D01*
X-300361Y353D01*
X-300323Y329D01*
X-300265Y280D01*
X-283787Y-9259D01*
X-283760Y-9268D01*
X-283736Y-9285D01*
X-283666Y-9300D01*
X-283599Y-9322D01*
X-283570Y-9320D01*
X-283542Y-9326D01*
X-283472Y-9313D01*
X-283401Y-9307D01*
X-283375Y-9294D01*
X-283346Y-9288D01*
X-283287Y-9248D01*
X-283224Y-9216D01*
X-283205Y-9193D01*
X-283181Y-9177D01*
X-283124Y-9095D01*
X-283097Y-9063D01*
X-283094Y-9052D01*
X-283086Y-9041D01*
X-281787Y-6302D01*
X-250750Y-24221D01*
X-250619Y-24280D01*
X-250492Y-24347D01*
X-250436Y-24363D01*
X-250383Y-24387D01*
X-250243Y-24419D01*
X-250105Y-24459D01*
X-250047Y-24464D01*
X-249991Y-24477D01*
X-249847Y-24481D01*
X-249704Y-24493D01*
X-249646Y-24486D01*
G37*
G36*
X-150003Y-86377D02*
X-150003Y-86377D01*
X-149926Y-86378D01*
X-149901Y-86369D01*
X-149881Y-86367D01*
X-149841Y-86347D01*
X-149770Y-86320D01*
X-133270Y-76820D01*
X-133248Y-76801D01*
X-133222Y-76789D01*
X-133188Y-76751D01*
X-133185Y-76749D01*
X-133182Y-76745D01*
X-133174Y-76736D01*
X-133121Y-76689D01*
X-133108Y-76663D01*
X-133089Y-76641D01*
X-133065Y-76574D01*
X-133035Y-76509D01*
X-133033Y-76480D01*
X-133024Y-76453D01*
X-133029Y-76382D01*
X-133025Y-76311D01*
X-133036Y-76284D01*
X-133038Y-76255D01*
X-133080Y-76164D01*
X-133095Y-76124D01*
X-133102Y-76116D01*
X-133108Y-76104D01*
X-134831Y-73608D01*
X-103789Y-55687D01*
X-103673Y-55603D01*
X-103552Y-55526D01*
X-103510Y-55486D01*
X-103462Y-55452D01*
X-103365Y-55347D01*
X-103261Y-55248D01*
X-103228Y-55200D01*
X-103188Y-55157D01*
X-103113Y-55035D01*
X-103031Y-54918D01*
X-103008Y-54864D01*
X-102977Y-54814D01*
X-102928Y-54679D01*
X-102871Y-54548D01*
X-102859Y-54491D01*
X-102838Y-54436D01*
X-102816Y-54295D01*
X-102786Y-54155D01*
X-102786Y-54096D01*
X-102777Y-54038D01*
X-102783Y-53895D01*
X-102781Y-53752D01*
X-102792Y-53695D01*
X-102795Y-53636D01*
X-102829Y-53497D01*
X-102856Y-53356D01*
X-102879Y-53294D01*
X-102892Y-53245D01*
X-102927Y-53170D01*
X-102974Y-53047D01*
X-103222Y-52533D01*
X-103213Y-52481D01*
X-103218Y-52356D01*
X-103213Y-52231D01*
X-103225Y-52155D01*
X-103228Y-52079D01*
X-103263Y-51919D01*
X-103277Y-51833D01*
X-103290Y-51799D01*
X-103299Y-51755D01*
X-103555Y-50926D01*
X-103584Y-50856D01*
X-103605Y-50782D01*
X-103662Y-50670D01*
X-103711Y-50555D01*
X-103754Y-50492D01*
X-103789Y-50424D01*
X-103867Y-50326D01*
X-103929Y-50233D01*
X-104060Y-49362D01*
X-104077Y-49297D01*
X-104128Y-49066D01*
X-104389Y-48218D01*
X-104373Y-48168D01*
X-104359Y-48044D01*
X-104335Y-47921D01*
X-104336Y-47844D01*
X-104327Y-47768D01*
X-104338Y-47606D01*
X-104339Y-47518D01*
X-104347Y-47483D01*
X-104350Y-47437D01*
X-104479Y-46580D01*
X-104498Y-46506D01*
X-104507Y-46430D01*
X-104547Y-46311D01*
X-104578Y-46190D01*
X-104611Y-46121D01*
X-104635Y-46048D01*
X-104698Y-45939D01*
X-104746Y-45839D01*
X-104746Y-44958D01*
X-104752Y-44891D01*
X-104768Y-44655D01*
X-104900Y-43778D01*
X-104877Y-43731D01*
X-104844Y-43610D01*
X-104803Y-43492D01*
X-104792Y-43416D01*
X-104772Y-43342D01*
X-104759Y-43179D01*
X-104747Y-43093D01*
X-104749Y-43057D01*
X-104745Y-43011D01*
X-104745Y-42145D01*
X-104752Y-42068D01*
X-104750Y-41992D01*
X-104772Y-41868D01*
X-104785Y-41744D01*
X-104807Y-41671D01*
X-104820Y-41595D01*
X-104866Y-41479D01*
X-104899Y-41372D01*
X-104767Y-40501D01*
X-104764Y-40434D01*
X-104744Y-40198D01*
X-104744Y-39311D01*
X-104714Y-39268D01*
X-104664Y-39153D01*
X-104605Y-39043D01*
X-104583Y-38969D01*
X-104552Y-38899D01*
X-104515Y-38740D01*
X-104490Y-38657D01*
X-104487Y-38621D01*
X-104476Y-38576D01*
X-104347Y-37719D01*
X-104343Y-37643D01*
X-104330Y-37567D01*
X-104333Y-37442D01*
X-104326Y-37317D01*
X-104338Y-37241D01*
X-104340Y-37165D01*
X-104367Y-37043D01*
X-104384Y-36932D01*
X-104124Y-36090D01*
X-104110Y-36024D01*
X-104056Y-35794D01*
X-103923Y-34917D01*
X-103887Y-34879D01*
X-103821Y-34773D01*
X-103746Y-34673D01*
X-103714Y-34603D01*
X-103673Y-34539D01*
X-103612Y-34387D01*
X-103575Y-34308D01*
X-103566Y-34273D01*
X-103549Y-34231D01*
X-103294Y-33402D01*
X-103278Y-33327D01*
X-103254Y-33255D01*
X-103238Y-33131D01*
X-103213Y-33008D01*
X-103213Y-32931D01*
X-103204Y-32855D01*
X-103213Y-32731D01*
X-103213Y-32619D01*
X-102830Y-31825D01*
X-102807Y-31762D01*
X-102719Y-31542D01*
X-102457Y-30695D01*
X-102416Y-30663D01*
X-102334Y-30568D01*
X-102246Y-30479D01*
X-102203Y-30416D01*
X-102153Y-30358D01*
X-102071Y-30217D01*
X-102022Y-30145D01*
X-102008Y-30111D01*
X-101985Y-30072D01*
X-101609Y-29291D01*
X-101583Y-29219D01*
X-101548Y-29151D01*
X-101514Y-29030D01*
X-101471Y-28913D01*
X-101459Y-28837D01*
X-101439Y-28763D01*
X-101429Y-28638D01*
X-101412Y-28528D01*
X-100916Y-27800D01*
X-100883Y-27741D01*
X-100764Y-27537D01*
X-100378Y-26738D01*
X-100333Y-26712D01*
X-100238Y-26631D01*
X-100137Y-26557D01*
X-100086Y-26500D01*
X-100027Y-26450D01*
X-99925Y-26323D01*
X-99866Y-26259D01*
X-99848Y-26228D01*
X-99819Y-26192D01*
X-99330Y-25476D01*
X-99293Y-25409D01*
X-99249Y-25347D01*
X-99197Y-25233D01*
X-99137Y-25123D01*
X-99114Y-25050D01*
X-99083Y-24980D01*
X-99055Y-24858D01*
X-99022Y-24751D01*
X-98422Y-24106D01*
X-98382Y-24052D01*
X-98233Y-23868D01*
X-97733Y-23135D01*
X-97684Y-23117D01*
X-97578Y-23050D01*
X-97467Y-22992D01*
X-97408Y-22944D01*
X-97343Y-22903D01*
X-97222Y-22793D01*
X-97155Y-22738D01*
X-97132Y-22710D01*
X-97098Y-22679D01*
X-96508Y-22044D01*
X-96462Y-21983D01*
X-96409Y-21928D01*
X-96341Y-21823D01*
X-96265Y-21723D01*
X-96231Y-21654D01*
X-96190Y-21590D01*
X-96144Y-21474D01*
X-96096Y-21373D01*
X-95407Y-20824D01*
X-95359Y-20777D01*
X-95184Y-20618D01*
X-94580Y-19967D01*
X-94529Y-19956D01*
X-94414Y-19906D01*
X-94296Y-19865D01*
X-94230Y-19826D01*
X-94160Y-19796D01*
X-94024Y-19705D01*
X-93949Y-19660D01*
X-93922Y-19636D01*
X-93884Y-19611D01*
X-93206Y-19071D01*
X-93152Y-19017D01*
X-93091Y-18971D01*
X-93008Y-18877D01*
X-92918Y-18790D01*
X-92875Y-18727D01*
X-92824Y-18669D01*
X-92761Y-18561D01*
X-92698Y-18469D01*
X-91935Y-18028D01*
X-91881Y-17989D01*
X-91684Y-17857D01*
X-90915Y-17245D01*
X-90914Y-17244D01*
X-90836Y-17230D01*
X-90722Y-17184D01*
X-90605Y-17146D01*
X-90536Y-17108D01*
X-90463Y-17079D01*
X-90360Y-17011D01*
X-90252Y-16952D01*
X-90192Y-16901D01*
X-90127Y-16858D01*
X-90039Y-16771D01*
X-89945Y-16691D01*
X-89897Y-16629D01*
X-89841Y-16574D01*
X-89772Y-16472D01*
X-89696Y-16375D01*
X-89660Y-16305D01*
X-89616Y-16240D01*
X-89569Y-16126D01*
X-89513Y-16016D01*
X-89492Y-15941D01*
X-89462Y-15868D01*
X-89438Y-15747D01*
X-89405Y-15628D01*
X-89400Y-15550D01*
X-89385Y-15473D01*
X-89385Y-15350D01*
X-89376Y-15227D01*
X-89386Y-15149D01*
X-89386Y-15070D01*
X-89411Y-14950D01*
X-89426Y-14827D01*
X-89452Y-14753D01*
X-89467Y-14676D01*
X-89515Y-14562D01*
X-89555Y-14446D01*
X-89594Y-14378D01*
X-89625Y-14305D01*
X-89694Y-14203D01*
X-89756Y-14097D01*
X-89815Y-14027D01*
X-89852Y-13973D01*
X-89903Y-13923D01*
X-89970Y-13844D01*
X-90675Y-13139D01*
X-90675Y-11975D01*
X-90678Y-11949D01*
X-90676Y-11922D01*
X-90698Y-11748D01*
X-90715Y-11574D01*
X-90723Y-11549D01*
X-90726Y-11522D01*
X-90782Y-11357D01*
X-90833Y-11190D01*
X-90846Y-11166D01*
X-90854Y-11141D01*
X-90942Y-10989D01*
X-91025Y-10836D01*
X-91042Y-10815D01*
X-91055Y-10792D01*
X-91270Y-10539D01*
X-110759Y8951D01*
X-110777Y8965D01*
X-110791Y8982D01*
X-110932Y9092D01*
X-111071Y9206D01*
X-111090Y9216D01*
X-111108Y9230D01*
X-111269Y9311D01*
X-111427Y9394D01*
X-111448Y9401D01*
X-111468Y9411D01*
X-111641Y9458D01*
X-111812Y9509D01*
X-111835Y9511D01*
X-111856Y9517D01*
X-112035Y9529D01*
X-112213Y9546D01*
X-112236Y9543D01*
X-112258Y9545D01*
X-112436Y9521D01*
X-112614Y9502D01*
X-112635Y9495D01*
X-112657Y9492D01*
X-112973Y9391D01*
X-113887Y9013D01*
X-116301Y9013D01*
X-118531Y9936D01*
X-120239Y11644D01*
X-121162Y13874D01*
X-121162Y16288D01*
X-120239Y18519D01*
X-119595Y19163D01*
X-119578Y19184D01*
X-119557Y19201D01*
X-119450Y19339D01*
X-119340Y19474D01*
X-119327Y19498D01*
X-119311Y19519D01*
X-119233Y19676D01*
X-119151Y19830D01*
X-119143Y19856D01*
X-119131Y19880D01*
X-119086Y20049D01*
X-119036Y20216D01*
X-119034Y20243D01*
X-119027Y20268D01*
X-119000Y20599D01*
X-119000Y30122D01*
X-119002Y30149D01*
X-119000Y30176D01*
X-119022Y30349D01*
X-119040Y30523D01*
X-119047Y30549D01*
X-119051Y30575D01*
X-119106Y30741D01*
X-119158Y30908D01*
X-119171Y30931D01*
X-119179Y30957D01*
X-119266Y31108D01*
X-119350Y31262D01*
X-119367Y31282D01*
X-119380Y31306D01*
X-119595Y31559D01*
X-120218Y32182D01*
X-120225Y32188D01*
X-120231Y32195D01*
X-120381Y32315D01*
X-120530Y32437D01*
X-120538Y32441D01*
X-120545Y32447D01*
X-120715Y32535D01*
X-120885Y32626D01*
X-120894Y32629D01*
X-120902Y32633D01*
X-121085Y32685D01*
X-121271Y32741D01*
X-121280Y32742D01*
X-121289Y32744D01*
X-121479Y32760D01*
X-121672Y32777D01*
X-121681Y32776D01*
X-121690Y32777D01*
X-121880Y32755D01*
X-122073Y32734D01*
X-122081Y32731D01*
X-122090Y32730D01*
X-122273Y32670D01*
X-122456Y32612D01*
X-122464Y32608D01*
X-122473Y32605D01*
X-122641Y32510D01*
X-122809Y32417D01*
X-122816Y32412D01*
X-122823Y32407D01*
X-122969Y32282D01*
X-123116Y32157D01*
X-123121Y32150D01*
X-123128Y32144D01*
X-123246Y31992D01*
X-123365Y31841D01*
X-123369Y31833D01*
X-123375Y31826D01*
X-123461Y31652D01*
X-123548Y31482D01*
X-123550Y31474D01*
X-123554Y31465D01*
X-123605Y31277D01*
X-123656Y31094D01*
X-123656Y31085D01*
X-123659Y31077D01*
X-123686Y30746D01*
X-123686Y25151D01*
X-125025Y23812D01*
X-135181Y23812D01*
X-135189Y23811D01*
X-135198Y23812D01*
X-135390Y23791D01*
X-135581Y23772D01*
X-135590Y23769D01*
X-135599Y23768D01*
X-135781Y23711D01*
X-135966Y23654D01*
X-135974Y23649D01*
X-135983Y23647D01*
X-136151Y23554D01*
X-136320Y23462D01*
X-136327Y23456D01*
X-136335Y23452D01*
X-136482Y23327D01*
X-136629Y23204D01*
X-136635Y23197D01*
X-136642Y23191D01*
X-136761Y23041D01*
X-136882Y22890D01*
X-136886Y22883D01*
X-136891Y22876D01*
X-136979Y22703D01*
X-137067Y22533D01*
X-137070Y22525D01*
X-137074Y22517D01*
X-137126Y22330D01*
X-137179Y22146D01*
X-137179Y22137D01*
X-137182Y22129D01*
X-137196Y21936D01*
X-137212Y21745D01*
X-137211Y21736D01*
X-137211Y21727D01*
X-137187Y21535D01*
X-137165Y21345D01*
X-137162Y21337D01*
X-137161Y21328D01*
X-137099Y21144D01*
X-137040Y20962D01*
X-137035Y20954D01*
X-137033Y20946D01*
X-136936Y20779D01*
X-136842Y20612D01*
X-136836Y20605D01*
X-136832Y20597D01*
X-136617Y20344D01*
X-131161Y14888D01*
X-131161Y-18594D01*
X-140021Y-27455D01*
X-191640Y-27455D01*
X-191666Y-27457D01*
X-191693Y-27455D01*
X-191867Y-27477D01*
X-192040Y-27495D01*
X-192066Y-27502D01*
X-192092Y-27506D01*
X-192258Y-27561D01*
X-192425Y-27613D01*
X-192449Y-27626D01*
X-192474Y-27634D01*
X-192626Y-27721D01*
X-192779Y-27805D01*
X-192800Y-27822D01*
X-192823Y-27835D01*
X-193076Y-28050D01*
X-193815Y-28789D01*
X-195877Y-29643D01*
X-195943Y-29678D01*
X-196013Y-29705D01*
X-196121Y-29773D01*
X-196232Y-29833D01*
X-196290Y-29881D01*
X-196353Y-29921D01*
X-196445Y-30009D01*
X-196542Y-30090D01*
X-196590Y-30148D01*
X-196644Y-30200D01*
X-196716Y-30304D01*
X-196796Y-30402D01*
X-196831Y-30469D01*
X-196874Y-30530D01*
X-196924Y-30646D01*
X-196983Y-30759D01*
X-197004Y-30831D01*
X-197034Y-30900D01*
X-197061Y-31023D01*
X-197096Y-31145D01*
X-197103Y-31220D01*
X-197118Y-31294D01*
X-197120Y-31420D01*
X-197131Y-31546D01*
X-197122Y-31621D01*
X-197123Y-31696D01*
X-197100Y-31821D01*
X-197086Y-31946D01*
X-197063Y-32018D01*
X-197049Y-32092D01*
X-196989Y-32246D01*
X-196962Y-32330D01*
X-196945Y-32360D01*
X-196929Y-32401D01*
X-196822Y-32624D01*
X-196830Y-32676D01*
X-196826Y-32801D01*
X-196831Y-32926D01*
X-196818Y-33002D01*
X-196816Y-33078D01*
X-196780Y-33238D01*
X-196766Y-33324D01*
X-196754Y-33357D01*
X-196744Y-33402D01*
X-196488Y-34231D01*
X-196458Y-34301D01*
X-196438Y-34375D01*
X-196380Y-34486D01*
X-196332Y-34602D01*
X-196289Y-34665D01*
X-196254Y-34733D01*
X-196176Y-34831D01*
X-196113Y-34923D01*
X-195981Y-35794D01*
X-195965Y-35860D01*
X-195914Y-36090D01*
X-195652Y-36938D01*
X-195668Y-36988D01*
X-195682Y-37112D01*
X-195706Y-37235D01*
X-195705Y-37312D01*
X-195713Y-37388D01*
X-195702Y-37551D01*
X-195701Y-37638D01*
X-195694Y-37673D01*
X-195691Y-37719D01*
X-195561Y-38576D01*
X-195542Y-38650D01*
X-195533Y-38726D01*
X-195493Y-38845D01*
X-195462Y-38966D01*
X-195429Y-39035D01*
X-195404Y-39108D01*
X-195342Y-39216D01*
X-195294Y-39317D01*
X-195293Y-40198D01*
X-195287Y-40265D01*
X-195271Y-40501D01*
X-195138Y-41378D01*
X-195161Y-41425D01*
X-195194Y-41546D01*
X-195235Y-41664D01*
X-195246Y-41740D01*
X-195266Y-41814D01*
X-195279Y-41976D01*
X-195291Y-42063D01*
X-195289Y-42099D01*
X-195293Y-42145D01*
X-195292Y-43011D01*
X-195285Y-43087D01*
X-195287Y-43164D01*
X-195265Y-43287D01*
X-195252Y-43412D01*
X-195230Y-43485D01*
X-195217Y-43560D01*
X-195171Y-43677D01*
X-195138Y-43784D01*
X-195269Y-44655D01*
X-195273Y-44722D01*
X-195292Y-44958D01*
X-195292Y-45845D01*
X-195321Y-45888D01*
X-195372Y-46003D01*
X-195430Y-46113D01*
X-195452Y-46187D01*
X-195483Y-46257D01*
X-195520Y-46416D01*
X-195545Y-46499D01*
X-195548Y-46535D01*
X-195559Y-46580D01*
X-195688Y-47437D01*
X-195691Y-47514D01*
X-195705Y-47589D01*
X-195702Y-47714D01*
X-195708Y-47839D01*
X-195696Y-47915D01*
X-195695Y-47991D01*
X-195667Y-48114D01*
X-195650Y-48224D01*
X-195910Y-49066D01*
X-195923Y-49132D01*
X-195977Y-49362D01*
X-196109Y-50239D01*
X-196145Y-50277D01*
X-196212Y-50383D01*
X-196286Y-50484D01*
X-196319Y-50553D01*
X-196360Y-50618D01*
X-196420Y-50770D01*
X-196457Y-50848D01*
X-196466Y-50883D01*
X-196483Y-50926D01*
X-196738Y-51755D01*
X-196753Y-51830D01*
X-196777Y-51902D01*
X-196793Y-52026D01*
X-196818Y-52149D01*
X-196818Y-52226D01*
X-196827Y-52302D01*
X-196818Y-52426D01*
X-196818Y-52538D01*
X-197063Y-53047D01*
X-197112Y-53181D01*
X-197169Y-53313D01*
X-197181Y-53370D01*
X-197201Y-53425D01*
X-197222Y-53566D01*
X-197252Y-53706D01*
X-197252Y-53765D01*
X-197261Y-53823D01*
X-197254Y-53966D01*
X-197256Y-54109D01*
X-197245Y-54167D01*
X-197242Y-54225D01*
X-197207Y-54364D01*
X-197180Y-54505D01*
X-197158Y-54559D01*
X-197144Y-54616D01*
X-197082Y-54745D01*
X-197028Y-54877D01*
X-196996Y-54926D01*
X-196970Y-54979D01*
X-196885Y-55093D01*
X-196806Y-55213D01*
X-196764Y-55254D01*
X-196729Y-55301D01*
X-196622Y-55396D01*
X-196521Y-55498D01*
X-196466Y-55536D01*
X-196429Y-55569D01*
X-196357Y-55611D01*
X-196248Y-55687D01*
X-165207Y-73608D01*
X-166930Y-76104D01*
X-166941Y-76131D01*
X-166959Y-76153D01*
X-166980Y-76221D01*
X-167008Y-76287D01*
X-167008Y-76316D01*
X-167016Y-76343D01*
X-167008Y-76415D01*
X-167008Y-76486D01*
X-166997Y-76512D01*
X-166994Y-76541D01*
X-166959Y-76603D01*
X-166931Y-76669D01*
X-166910Y-76689D01*
X-166896Y-76714D01*
X-166833Y-76766D01*
X-166829Y-76772D01*
X-166820Y-76777D01*
X-166819Y-76778D01*
X-166789Y-76808D01*
X-166778Y-76812D01*
X-166768Y-76820D01*
X-150268Y-86320D01*
X-150195Y-86344D01*
X-150124Y-86375D01*
X-150101Y-86376D01*
X-150079Y-86383D01*
X-150003Y-86377D01*
G37*
G36*
X-111589Y119528D02*
X-111589Y119528D01*
X-111580Y119527D01*
X-111387Y119551D01*
X-111198Y119573D01*
X-111189Y119576D01*
X-111180Y119577D01*
X-110998Y119639D01*
X-110815Y119698D01*
X-110807Y119703D01*
X-110799Y119706D01*
X-110632Y119802D01*
X-110464Y119896D01*
X-110457Y119902D01*
X-110450Y119906D01*
X-110197Y120121D01*
X-108318Y121999D01*
X-108301Y122020D01*
X-108281Y122038D01*
X-108174Y122176D01*
X-108063Y122311D01*
X-108051Y122335D01*
X-108034Y122356D01*
X-107956Y122513D01*
X-107875Y122667D01*
X-107867Y122692D01*
X-107855Y122716D01*
X-107816Y122861D01*
X-95341Y135336D01*
X-95324Y135356D01*
X-95304Y135374D01*
X-95197Y135512D01*
X-95086Y135647D01*
X-95074Y135671D01*
X-95057Y135692D01*
X-94979Y135849D01*
X-94898Y136003D01*
X-94890Y136028D01*
X-94878Y136052D01*
X-94833Y136222D01*
X-94783Y136389D01*
X-94781Y136415D01*
X-94774Y136441D01*
X-94746Y136772D01*
X-94746Y181849D01*
X-94749Y181876D01*
X-94747Y181903D01*
X-94769Y182076D01*
X-94786Y182250D01*
X-94794Y182275D01*
X-94798Y182302D01*
X-94853Y182468D01*
X-94905Y182635D01*
X-94917Y182658D01*
X-94926Y182684D01*
X-95013Y182835D01*
X-95096Y182989D01*
X-95113Y183009D01*
X-95127Y183033D01*
X-95341Y183286D01*
X-96081Y184025D01*
X-97004Y186255D01*
X-97004Y188670D01*
X-96081Y190900D01*
X-94909Y192072D01*
X-94794Y192212D01*
X-94676Y192350D01*
X-94666Y192368D01*
X-94654Y192383D01*
X-94569Y192543D01*
X-94481Y192702D01*
X-94474Y192721D01*
X-94465Y192739D01*
X-94413Y192913D01*
X-94358Y193086D01*
X-94356Y193106D01*
X-94350Y193125D01*
X-94334Y193306D01*
X-94314Y193486D01*
X-94316Y193506D01*
X-94314Y193526D01*
X-94334Y193707D01*
X-94350Y193887D01*
X-94355Y193906D01*
X-94357Y193926D01*
X-94412Y194100D01*
X-94464Y194273D01*
X-94473Y194291D01*
X-94479Y194310D01*
X-94567Y194469D01*
X-94651Y194629D01*
X-94665Y194647D01*
X-94674Y194662D01*
X-94724Y194721D01*
X-94857Y194890D01*
X-95184Y195243D01*
X-95234Y195287D01*
X-95407Y195449D01*
X-96100Y196002D01*
X-96115Y196052D01*
X-96174Y196163D01*
X-96224Y196278D01*
X-96267Y196340D01*
X-96303Y196408D01*
X-96404Y196536D01*
X-96454Y196608D01*
X-96480Y196633D01*
X-96508Y196669D01*
X-97098Y197304D01*
X-97155Y197355D01*
X-97206Y197412D01*
X-97306Y197488D01*
X-97400Y197571D01*
X-97466Y197609D01*
X-97527Y197655D01*
X-97640Y197710D01*
X-97736Y197765D01*
X-98233Y198493D01*
X-98277Y198545D01*
X-98422Y198731D01*
X-99026Y199381D01*
X-99033Y199433D01*
X-99075Y199551D01*
X-99107Y199672D01*
X-99141Y199741D01*
X-99166Y199813D01*
X-99247Y199955D01*
X-99285Y200033D01*
X-99307Y200061D01*
X-99330Y200101D01*
X-99819Y200817D01*
X-99868Y200876D01*
X-99909Y200940D01*
X-99997Y201030D01*
X-100077Y201126D01*
X-100137Y201173D01*
X-100191Y201228D01*
X-100294Y201299D01*
X-100381Y201369D01*
X-100764Y202162D01*
X-100799Y202220D01*
X-100916Y202425D01*
X-101416Y203158D01*
X-101415Y203210D01*
X-101438Y203334D01*
X-101452Y203458D01*
X-101475Y203531D01*
X-101490Y203606D01*
X-101548Y203758D01*
X-101575Y203842D01*
X-101592Y203873D01*
X-101609Y203916D01*
X-101985Y204697D01*
X-102025Y204762D01*
X-102057Y204832D01*
X-102130Y204933D01*
X-102195Y205040D01*
X-102247Y205096D01*
X-102292Y205159D01*
X-102383Y205244D01*
X-102459Y205326D01*
X-102719Y206167D01*
X-102745Y206230D01*
X-102830Y206450D01*
X-103216Y207249D01*
X-103207Y207301D01*
X-103212Y207426D01*
X-103207Y207551D01*
X-103219Y207627D01*
X-103222Y207703D01*
X-103257Y207863D01*
X-103271Y207949D01*
X-103284Y207982D01*
X-103294Y208027D01*
X-103549Y208856D01*
X-103579Y208926D01*
X-103600Y209000D01*
X-103657Y209111D01*
X-103706Y209227D01*
X-103749Y209290D01*
X-103784Y209358D01*
X-103862Y209456D01*
X-103924Y209548D01*
X-104056Y210419D01*
X-104073Y210485D01*
X-104124Y210715D01*
X-104386Y211563D01*
X-104369Y211613D01*
X-104355Y211738D01*
X-104332Y211860D01*
X-104333Y211937D01*
X-104324Y212013D01*
X-104335Y212176D01*
X-104336Y212263D01*
X-104344Y212298D01*
X-104347Y212344D01*
X-104476Y213201D01*
X-104495Y213275D01*
X-104505Y213351D01*
X-104545Y213470D01*
X-104575Y213591D01*
X-104609Y213660D01*
X-104633Y213733D01*
X-104696Y213841D01*
X-104744Y213942D01*
X-104744Y214823D01*
X-104751Y214890D01*
X-104767Y215126D01*
X-104899Y216003D01*
X-104876Y216050D01*
X-104844Y216171D01*
X-104802Y216289D01*
X-104792Y216365D01*
X-104772Y216439D01*
X-104759Y216601D01*
X-104746Y216688D01*
X-104749Y216724D01*
X-104745Y216770D01*
X-104745Y217636D01*
X-104753Y217712D01*
X-104751Y217789D01*
X-104773Y217912D01*
X-104785Y218037D01*
X-104808Y218110D01*
X-104821Y218185D01*
X-104866Y218302D01*
X-104899Y218409D01*
X-104768Y219280D01*
X-104765Y219347D01*
X-104746Y219583D01*
X-104746Y220470D01*
X-104716Y220513D01*
X-104666Y220628D01*
X-104607Y220738D01*
X-104585Y220812D01*
X-104555Y220882D01*
X-104517Y221041D01*
X-104493Y221124D01*
X-104489Y221160D01*
X-104479Y221205D01*
X-104350Y222062D01*
X-104346Y222138D01*
X-104333Y222214D01*
X-104336Y222339D01*
X-104330Y222464D01*
X-104341Y222540D01*
X-104343Y222616D01*
X-104371Y222738D01*
X-104387Y222849D01*
X-104128Y223691D01*
X-104115Y223757D01*
X-104060Y223987D01*
X-103928Y224864D01*
X-103892Y224902D01*
X-103826Y225008D01*
X-103751Y225109D01*
X-103719Y225178D01*
X-103678Y225243D01*
X-103617Y225395D01*
X-103580Y225474D01*
X-103572Y225509D01*
X-103555Y225551D01*
X-103299Y226380D01*
X-103284Y226455D01*
X-103260Y226527D01*
X-103245Y226651D01*
X-103220Y226774D01*
X-103220Y226851D01*
X-103210Y226927D01*
X-103219Y227051D01*
X-103219Y227163D01*
X-102974Y227672D01*
X-102925Y227806D01*
X-102869Y227938D01*
X-102857Y227995D01*
X-102837Y228050D01*
X-102815Y228191D01*
X-102786Y228331D01*
X-102785Y228390D01*
X-102776Y228448D01*
X-102783Y228591D01*
X-102782Y228734D01*
X-102793Y228792D01*
X-102796Y228850D01*
X-102830Y228989D01*
X-102857Y229130D01*
X-102879Y229184D01*
X-102894Y229241D01*
X-102955Y229370D01*
X-103009Y229502D01*
X-103042Y229551D01*
X-103067Y229604D01*
X-103153Y229718D01*
X-103232Y229838D01*
X-103274Y229879D01*
X-103309Y229926D01*
X-103415Y230021D01*
X-103516Y230123D01*
X-103572Y230161D01*
X-103609Y230194D01*
X-103680Y230236D01*
X-103789Y230312D01*
X-134831Y248233D01*
X-133108Y250729D01*
X-133097Y250756D01*
X-133078Y250778D01*
X-133058Y250846D01*
X-133030Y250912D01*
X-133030Y250941D01*
X-133021Y250968D01*
X-133029Y251040D01*
X-133029Y251111D01*
X-133040Y251137D01*
X-133044Y251166D01*
X-133079Y251228D01*
X-133106Y251294D01*
X-133127Y251314D01*
X-133141Y251339D01*
X-133218Y251403D01*
X-133249Y251433D01*
X-133259Y251437D01*
X-133270Y251445D01*
X-149770Y260945D01*
X-149842Y260969D01*
X-149913Y261000D01*
X-149936Y261001D01*
X-149958Y261008D01*
X-150035Y261002D01*
X-150112Y261003D01*
X-150136Y260994D01*
X-150157Y260992D01*
X-150196Y260972D01*
X-150268Y260945D01*
X-166768Y251445D01*
X-166790Y251426D01*
X-166816Y251414D01*
X-166864Y251361D01*
X-166917Y251314D01*
X-166930Y251288D01*
X-166949Y251266D01*
X-166972Y251199D01*
X-167003Y251134D01*
X-167004Y251105D01*
X-167014Y251078D01*
X-167009Y251007D01*
X-167012Y250936D01*
X-167002Y250909D01*
X-167000Y250880D01*
X-166958Y250789D01*
X-166943Y250749D01*
X-166935Y250741D01*
X-166930Y250729D01*
X-165207Y248233D01*
X-196248Y230312D01*
X-196364Y230228D01*
X-196485Y230151D01*
X-196528Y230111D01*
X-196575Y230077D01*
X-196673Y229972D01*
X-196776Y229873D01*
X-196810Y229825D01*
X-196850Y229782D01*
X-196924Y229660D01*
X-197006Y229543D01*
X-197030Y229489D01*
X-197060Y229439D01*
X-197110Y229304D01*
X-197167Y229173D01*
X-197179Y229116D01*
X-197199Y229061D01*
X-197221Y228920D01*
X-197251Y228780D01*
X-197252Y228721D01*
X-197261Y228663D01*
X-197254Y228520D01*
X-197256Y228377D01*
X-197245Y228320D01*
X-197243Y228261D01*
X-197208Y228122D01*
X-197182Y227981D01*
X-197158Y227919D01*
X-197146Y227870D01*
X-197111Y227795D01*
X-197063Y227672D01*
X-196816Y227157D01*
X-196824Y227106D01*
X-196819Y226981D01*
X-196824Y226856D01*
X-196812Y226780D01*
X-196810Y226704D01*
X-196774Y226544D01*
X-196760Y226458D01*
X-196748Y226425D01*
X-196738Y226380D01*
X-196615Y225982D01*
X-196570Y225873D01*
X-196533Y225761D01*
X-196492Y225688D01*
X-196459Y225610D01*
X-196393Y225513D01*
X-196335Y225411D01*
X-196280Y225347D01*
X-196233Y225277D01*
X-196149Y225195D01*
X-196072Y225106D01*
X-196006Y225054D01*
X-195946Y224995D01*
X-195847Y224931D01*
X-195754Y224859D01*
X-195679Y224822D01*
X-195608Y224776D01*
X-195499Y224732D01*
X-195394Y224680D01*
X-195312Y224658D01*
X-195234Y224627D01*
X-195119Y224606D01*
X-195005Y224575D01*
X-194906Y224567D01*
X-194838Y224555D01*
X-194770Y224556D01*
X-194674Y224548D01*
X-140578Y224548D01*
X-113664Y197635D01*
X-113664Y121557D01*
X-113663Y121549D01*
X-113664Y121540D01*
X-113643Y121346D01*
X-113624Y121157D01*
X-113622Y121148D01*
X-113621Y121139D01*
X-113562Y120955D01*
X-113506Y120772D01*
X-113502Y120764D01*
X-113499Y120756D01*
X-113406Y120587D01*
X-113314Y120418D01*
X-113309Y120411D01*
X-113304Y120403D01*
X-113180Y120256D01*
X-113057Y120109D01*
X-113050Y120103D01*
X-113044Y120096D01*
X-112892Y119976D01*
X-112743Y119856D01*
X-112735Y119852D01*
X-112728Y119847D01*
X-112555Y119759D01*
X-112386Y119671D01*
X-112377Y119668D01*
X-112369Y119664D01*
X-112183Y119612D01*
X-111999Y119559D01*
X-111990Y119559D01*
X-111981Y119556D01*
X-111788Y119542D01*
X-111597Y119527D01*
X-111589Y119528D01*
G37*
G36*
X47139Y101388D02*
X47139Y101388D01*
X47165Y101386D01*
X47339Y101408D01*
X47513Y101426D01*
X47538Y101433D01*
X47565Y101437D01*
X47731Y101492D01*
X47898Y101544D01*
X47921Y101557D01*
X47947Y101565D01*
X48098Y101652D01*
X48252Y101736D01*
X48272Y101753D01*
X48295Y101766D01*
X48548Y101981D01*
X64333Y117765D01*
X98835Y117765D01*
X98861Y117768D01*
X98888Y117766D01*
X99062Y117788D01*
X99235Y117805D01*
X99261Y117813D01*
X99287Y117816D01*
X99453Y117872D01*
X99620Y117923D01*
X99644Y117936D01*
X99669Y117945D01*
X99821Y118032D01*
X99974Y118115D01*
X99995Y118132D01*
X100018Y118145D01*
X100271Y118360D01*
X126563Y144652D01*
X126580Y144673D01*
X126600Y144690D01*
X126707Y144828D01*
X126818Y144964D01*
X126831Y144987D01*
X126847Y145009D01*
X126925Y145165D01*
X127007Y145319D01*
X127014Y145345D01*
X127026Y145369D01*
X127072Y145538D01*
X127122Y145705D01*
X127124Y145732D01*
X127131Y145758D01*
X127158Y146089D01*
X127158Y165043D01*
X127155Y165070D01*
X127157Y165096D01*
X127135Y165270D01*
X127118Y165444D01*
X127110Y165469D01*
X127107Y165496D01*
X127051Y165662D01*
X127000Y165829D01*
X126987Y165852D01*
X126979Y165878D01*
X126891Y166029D01*
X126808Y166183D01*
X126791Y166203D01*
X126778Y166226D01*
X126563Y166479D01*
X125824Y167219D01*
X124900Y169449D01*
X124900Y171950D01*
X124919Y172014D01*
X124921Y172028D01*
X124924Y172041D01*
X124940Y172229D01*
X124957Y172415D01*
X124956Y172428D01*
X124957Y172442D01*
X124935Y172628D01*
X124916Y172816D01*
X124912Y172828D01*
X124910Y172842D01*
X124852Y173020D01*
X124796Y173200D01*
X124790Y173212D01*
X124785Y173224D01*
X124693Y173388D01*
X124603Y173553D01*
X124594Y173563D01*
X124588Y173575D01*
X124465Y173717D01*
X124344Y173861D01*
X124333Y173870D01*
X124324Y173880D01*
X124177Y173994D01*
X124029Y174112D01*
X124017Y174118D01*
X124006Y174127D01*
X123838Y174210D01*
X123671Y174296D01*
X123658Y174300D01*
X123646Y174306D01*
X123463Y174355D01*
X123283Y174406D01*
X123270Y174407D01*
X123257Y174410D01*
X122926Y174438D01*
X110818Y174438D01*
X110792Y174435D01*
X110765Y174437D01*
X110591Y174415D01*
X110417Y174398D01*
X110392Y174390D01*
X110365Y174386D01*
X110200Y174331D01*
X110033Y174279D01*
X110009Y174267D01*
X109984Y174258D01*
X109832Y174171D01*
X109679Y174088D01*
X109658Y174071D01*
X109635Y174057D01*
X109382Y173843D01*
X54991Y119452D01*
X39187Y119452D01*
X39169Y119450D01*
X39151Y119451D01*
X38969Y119430D01*
X38786Y119412D01*
X38769Y119407D01*
X38751Y119405D01*
X38577Y119348D01*
X38401Y119294D01*
X38386Y119285D01*
X38369Y119280D01*
X38208Y119189D01*
X38047Y119102D01*
X38034Y119091D01*
X38018Y119082D01*
X37879Y118962D01*
X37738Y118844D01*
X37727Y118830D01*
X37713Y118819D01*
X37601Y118673D01*
X37486Y118530D01*
X37477Y118515D01*
X37466Y118501D01*
X37384Y118335D01*
X37300Y118173D01*
X37295Y118156D01*
X37287Y118140D01*
X37239Y117962D01*
X37189Y117786D01*
X37187Y117768D01*
X37183Y117751D01*
X37155Y117421D01*
X37155Y117315D01*
X35816Y115976D01*
X22922Y115976D01*
X21582Y117315D01*
X21582Y117421D01*
X21580Y117438D01*
X21582Y117456D01*
X21560Y117638D01*
X21542Y117821D01*
X21537Y117838D01*
X21535Y117856D01*
X21478Y118030D01*
X21424Y118206D01*
X21415Y118222D01*
X21410Y118239D01*
X21320Y118399D01*
X21232Y118560D01*
X21221Y118574D01*
X21212Y118589D01*
X21092Y118729D01*
X20974Y118869D01*
X20961Y118881D01*
X20949Y118894D01*
X20804Y119007D01*
X20661Y119122D01*
X20645Y119130D01*
X20631Y119141D01*
X20466Y119223D01*
X20303Y119307D01*
X20286Y119312D01*
X20270Y119320D01*
X20092Y119368D01*
X19916Y119419D01*
X19899Y119420D01*
X19881Y119425D01*
X19551Y119452D01*
X10412Y119452D01*
X10394Y119450D01*
X10376Y119451D01*
X10194Y119430D01*
X10011Y119412D01*
X9994Y119407D01*
X9976Y119405D01*
X9802Y119348D01*
X9626Y119294D01*
X9611Y119285D01*
X9594Y119280D01*
X9433Y119189D01*
X9272Y119102D01*
X9259Y119091D01*
X9243Y119082D01*
X9104Y118962D01*
X8963Y118844D01*
X8952Y118830D01*
X8938Y118819D01*
X8826Y118673D01*
X8711Y118530D01*
X8702Y118515D01*
X8691Y118501D01*
X8609Y118335D01*
X8525Y118173D01*
X8520Y118156D01*
X8512Y118140D01*
X8464Y117962D01*
X8464Y117961D01*
X7041Y116538D01*
X-8853Y116538D01*
X-10152Y117837D01*
X-10159Y117842D01*
X-10165Y117849D01*
X-10314Y117970D01*
X-10463Y118092D01*
X-10471Y118096D01*
X-10478Y118102D01*
X-10648Y118190D01*
X-10819Y118280D01*
X-10828Y118283D01*
X-10836Y118287D01*
X-11020Y118340D01*
X-11205Y118395D01*
X-11214Y118396D01*
X-11223Y118399D01*
X-11413Y118414D01*
X-11606Y118432D01*
X-11615Y118431D01*
X-11624Y118431D01*
X-11813Y118409D01*
X-12006Y118388D01*
X-12015Y118386D01*
X-12024Y118385D01*
X-12206Y118325D01*
X-12390Y118267D01*
X-12398Y118262D01*
X-12406Y118260D01*
X-12573Y118165D01*
X-12742Y118072D01*
X-12749Y118066D01*
X-12757Y118062D01*
X-12902Y117937D01*
X-13049Y117811D01*
X-13055Y117804D01*
X-13062Y117799D01*
X-13179Y117648D01*
X-13299Y117496D01*
X-13303Y117487D01*
X-13309Y117481D01*
X-13394Y117308D01*
X-13481Y117137D01*
X-13484Y117128D01*
X-13488Y117120D01*
X-13538Y116934D01*
X-13589Y116749D01*
X-13590Y116740D01*
X-13592Y116731D01*
X-13620Y116400D01*
X-13620Y108378D01*
X-14959Y107038D01*
X-30853Y107038D01*
X-32193Y108378D01*
X-32193Y108483D01*
X-32195Y108501D01*
X-32193Y108519D01*
X-32215Y108701D01*
X-32233Y108884D01*
X-32238Y108901D01*
X-32240Y108918D01*
X-32297Y109093D01*
X-32351Y109269D01*
X-32360Y109284D01*
X-32365Y109301D01*
X-32455Y109461D01*
X-32543Y109623D01*
X-32554Y109636D01*
X-32563Y109652D01*
X-32683Y109791D01*
X-32801Y109932D01*
X-32814Y109943D01*
X-32826Y109957D01*
X-32971Y110069D01*
X-33114Y110184D01*
X-33130Y110192D01*
X-33144Y110203D01*
X-33309Y110285D01*
X-33472Y110370D01*
X-33489Y110375D01*
X-33505Y110383D01*
X-33683Y110430D01*
X-33859Y110481D01*
X-33876Y110483D01*
X-33894Y110487D01*
X-34224Y110514D01*
X-61786Y110514D01*
X-61813Y110512D01*
X-61840Y110514D01*
X-62014Y110492D01*
X-62187Y110474D01*
X-62213Y110467D01*
X-62239Y110463D01*
X-62405Y110408D01*
X-62572Y110356D01*
X-62596Y110343D01*
X-62621Y110335D01*
X-62773Y110248D01*
X-62926Y110164D01*
X-62946Y110147D01*
X-62970Y110134D01*
X-63223Y109919D01*
X-65375Y107767D01*
X-65392Y107747D01*
X-65412Y107729D01*
X-65519Y107591D01*
X-65630Y107456D01*
X-65642Y107432D01*
X-65659Y107411D01*
X-65737Y107254D01*
X-65818Y107100D01*
X-65826Y107075D01*
X-65838Y107051D01*
X-65883Y106881D01*
X-65933Y106714D01*
X-65935Y106688D01*
X-65942Y106662D01*
X-65970Y106331D01*
X-65970Y103417D01*
X-65968Y103399D01*
X-65969Y103381D01*
X-65948Y103199D01*
X-65930Y103016D01*
X-65924Y102999D01*
X-65922Y102982D01*
X-65865Y102807D01*
X-65811Y102631D01*
X-65803Y102616D01*
X-65797Y102599D01*
X-65707Y102439D01*
X-65620Y102277D01*
X-65608Y102264D01*
X-65600Y102248D01*
X-65479Y102109D01*
X-65362Y101968D01*
X-65348Y101957D01*
X-65336Y101943D01*
X-65191Y101831D01*
X-65048Y101716D01*
X-65032Y101708D01*
X-65018Y101697D01*
X-64853Y101615D01*
X-64691Y101530D01*
X-64674Y101525D01*
X-64658Y101517D01*
X-64480Y101470D01*
X-64304Y101419D01*
X-64286Y101417D01*
X-64269Y101413D01*
X-63938Y101386D01*
X47112Y101386D01*
X47139Y101388D01*
G37*
G36*
X-152213Y34572D02*
X-152213Y34572D01*
X-152196Y34571D01*
X-152014Y34594D01*
X-151831Y34614D01*
X-151814Y34619D01*
X-151796Y34621D01*
X-151622Y34680D01*
X-151447Y34735D01*
X-151431Y34744D01*
X-151415Y34750D01*
X-151256Y34841D01*
X-151095Y34930D01*
X-151081Y34942D01*
X-151066Y34951D01*
X-150813Y35165D01*
X-149465Y36513D01*
X-128587Y36513D01*
X-128570Y36515D01*
X-128552Y36514D01*
X-128370Y36535D01*
X-128187Y36553D01*
X-128170Y36558D01*
X-128152Y36560D01*
X-127978Y36617D01*
X-127802Y36671D01*
X-127786Y36680D01*
X-127769Y36685D01*
X-127609Y36776D01*
X-127448Y36863D01*
X-127434Y36874D01*
X-127419Y36883D01*
X-127279Y37003D01*
X-127139Y37121D01*
X-127127Y37135D01*
X-127114Y37146D01*
X-127001Y37291D01*
X-126886Y37435D01*
X-126878Y37450D01*
X-126867Y37464D01*
X-126785Y37629D01*
X-126701Y37792D01*
X-126696Y37809D01*
X-126688Y37825D01*
X-126640Y38003D01*
X-126589Y38179D01*
X-126588Y38197D01*
X-126583Y38214D01*
X-126556Y38544D01*
X-126556Y90869D01*
X-126558Y90886D01*
X-126557Y90904D01*
X-126578Y91086D01*
X-126596Y91269D01*
X-126601Y91286D01*
X-126603Y91304D01*
X-126660Y91478D01*
X-126714Y91654D01*
X-126723Y91670D01*
X-126728Y91687D01*
X-126819Y91847D01*
X-126906Y92008D01*
X-126917Y92022D01*
X-126926Y92037D01*
X-127046Y92177D01*
X-127164Y92317D01*
X-127178Y92329D01*
X-127189Y92342D01*
X-127334Y92455D01*
X-127478Y92570D01*
X-127493Y92578D01*
X-127507Y92589D01*
X-127672Y92671D01*
X-127835Y92755D01*
X-127852Y92760D01*
X-127868Y92768D01*
X-128046Y92816D01*
X-128222Y92867D01*
X-128240Y92868D01*
X-128257Y92873D01*
X-128587Y92900D01*
X-180912Y92900D01*
X-180929Y92898D01*
X-180947Y92899D01*
X-181129Y92878D01*
X-181312Y92860D01*
X-181329Y92855D01*
X-181347Y92853D01*
X-181521Y92796D01*
X-181697Y92742D01*
X-181713Y92733D01*
X-181730Y92728D01*
X-181890Y92637D01*
X-182051Y92550D01*
X-182065Y92539D01*
X-182080Y92530D01*
X-182220Y92410D01*
X-182360Y92292D01*
X-182372Y92278D01*
X-182385Y92267D01*
X-182498Y92122D01*
X-182613Y91978D01*
X-182621Y91963D01*
X-182632Y91949D01*
X-182714Y91783D01*
X-182798Y91621D01*
X-182803Y91604D01*
X-182811Y91588D01*
X-182859Y91408D01*
X-182910Y91234D01*
X-182911Y91216D01*
X-182916Y91199D01*
X-182943Y90869D01*
X-182943Y38544D01*
X-182941Y38527D01*
X-182942Y38509D01*
X-182921Y38327D01*
X-182903Y38144D01*
X-182898Y38127D01*
X-182896Y38109D01*
X-182839Y37935D01*
X-182785Y37759D01*
X-182776Y37743D01*
X-182771Y37726D01*
X-182680Y37566D01*
X-182593Y37405D01*
X-182582Y37391D01*
X-182573Y37376D01*
X-182453Y37236D01*
X-182335Y37096D01*
X-182321Y37084D01*
X-182310Y37071D01*
X-182165Y36958D01*
X-182021Y36843D01*
X-182006Y36835D01*
X-181992Y36824D01*
X-181827Y36742D01*
X-181664Y36658D01*
X-181647Y36653D01*
X-181631Y36645D01*
X-181453Y36597D01*
X-181277Y36546D01*
X-181259Y36545D01*
X-181242Y36540D01*
X-180912Y36513D01*
X-155033Y36513D01*
X-153685Y35165D01*
X-153671Y35154D01*
X-153660Y35140D01*
X-153516Y35026D01*
X-153374Y34910D01*
X-153358Y34902D01*
X-153344Y34891D01*
X-153180Y34807D01*
X-153018Y34722D01*
X-153001Y34716D01*
X-152985Y34708D01*
X-152808Y34659D01*
X-152632Y34607D01*
X-152614Y34605D01*
X-152597Y34600D01*
X-152414Y34587D01*
X-152231Y34570D01*
X-152213Y34572D01*
G37*
G36*
X137808Y-11204D02*
X137808Y-11204D01*
X137817Y-11205D01*
X138009Y-11180D01*
X138199Y-11158D01*
X138207Y-11156D01*
X138216Y-11154D01*
X138399Y-11093D01*
X138581Y-11033D01*
X138589Y-11029D01*
X138598Y-11026D01*
X138764Y-10930D01*
X138932Y-10836D01*
X138939Y-10830D01*
X138947Y-10825D01*
X139200Y-10611D01*
X147006Y-2804D01*
X147014Y-2794D01*
X147025Y-2785D01*
X147142Y-2638D01*
X147261Y-2493D01*
X147267Y-2481D01*
X147276Y-2470D01*
X147362Y-2302D01*
X147449Y-2137D01*
X147453Y-2124D01*
X147459Y-2112D01*
X147511Y-1931D01*
X147564Y-1751D01*
X147565Y-1738D01*
X147569Y-1725D01*
X147583Y-1538D01*
X147601Y-1350D01*
X147599Y-1337D01*
X147600Y-1323D01*
X147578Y-1139D01*
X147557Y-950D01*
X147553Y-937D01*
X147551Y-924D01*
X147492Y-746D01*
X147436Y-566D01*
X147429Y-554D01*
X147425Y-541D01*
X147331Y-378D01*
X147241Y-214D01*
X147232Y-204D01*
X147225Y-192D01*
X147102Y-50D01*
X146980Y93D01*
X146970Y102D01*
X146961Y112D01*
X146813Y226D01*
X146664Y343D01*
X146652Y349D01*
X146642Y357D01*
X146629Y364D01*
X144874Y2119D01*
X143950Y4349D01*
X143950Y6763D01*
X144874Y8994D01*
X145613Y9733D01*
X145630Y9754D01*
X145650Y9771D01*
X145757Y9909D01*
X145868Y10044D01*
X145881Y10068D01*
X145897Y10089D01*
X145975Y10246D01*
X146057Y10400D01*
X146064Y10426D01*
X146076Y10450D01*
X146122Y10619D01*
X146172Y10786D01*
X146174Y10813D01*
X146181Y10839D01*
X146208Y11169D01*
X146208Y35680D01*
X146205Y35707D01*
X146207Y35733D01*
X146185Y35907D01*
X146168Y36081D01*
X146160Y36106D01*
X146157Y36133D01*
X146101Y36299D01*
X146050Y36466D01*
X146037Y36489D01*
X146029Y36515D01*
X145941Y36666D01*
X145858Y36820D01*
X145841Y36840D01*
X145828Y36863D01*
X145613Y37116D01*
X138716Y44013D01*
X138696Y44030D01*
X138678Y44050D01*
X138540Y44157D01*
X138405Y44268D01*
X138381Y44281D01*
X138360Y44297D01*
X138203Y44375D01*
X138049Y44457D01*
X138024Y44464D01*
X138000Y44476D01*
X137830Y44522D01*
X137663Y44572D01*
X137637Y44574D01*
X137611Y44581D01*
X137280Y44608D01*
X35728Y44608D01*
X32686Y47650D01*
X32679Y47656D01*
X32673Y47663D01*
X32523Y47783D01*
X32374Y47905D01*
X32366Y47910D01*
X32359Y47915D01*
X32189Y48004D01*
X32018Y48094D01*
X32010Y48097D01*
X32002Y48101D01*
X31818Y48154D01*
X31632Y48209D01*
X31624Y48210D01*
X31615Y48212D01*
X31424Y48228D01*
X31231Y48245D01*
X31223Y48244D01*
X31214Y48245D01*
X31024Y48223D01*
X30831Y48202D01*
X30823Y48199D01*
X30814Y48198D01*
X30632Y48139D01*
X30447Y48080D01*
X30440Y48076D01*
X30431Y48073D01*
X30262Y47978D01*
X30095Y47885D01*
X30088Y47880D01*
X30080Y47875D01*
X29935Y47749D01*
X29788Y47625D01*
X29782Y47618D01*
X29776Y47612D01*
X29658Y47461D01*
X29538Y47309D01*
X29534Y47301D01*
X29529Y47294D01*
X29443Y47122D01*
X29356Y46950D01*
X29354Y46942D01*
X29350Y46933D01*
X29300Y46748D01*
X29248Y46562D01*
X29247Y46553D01*
X29245Y46545D01*
X29218Y46214D01*
X29218Y35211D01*
X29220Y35193D01*
X29218Y35175D01*
X29240Y34993D01*
X29258Y34810D01*
X29263Y34793D01*
X29265Y34775D01*
X29322Y34600D01*
X29376Y34425D01*
X29385Y34410D01*
X29390Y34393D01*
X29480Y34232D01*
X29568Y34071D01*
X29579Y34058D01*
X29588Y34042D01*
X29708Y33903D01*
X29826Y33762D01*
X29839Y33751D01*
X29851Y33737D01*
X29996Y33625D01*
X30139Y33510D01*
X30155Y33501D01*
X30169Y33490D01*
X30334Y33408D01*
X30497Y33324D01*
X30514Y33319D01*
X30530Y33311D01*
X30708Y33263D01*
X30884Y33213D01*
X30901Y33211D01*
X30919Y33207D01*
X31249Y33179D01*
X76409Y33179D01*
X119563Y-9974D01*
X119570Y-9980D01*
X119576Y-9987D01*
X119725Y-10107D01*
X119874Y-10229D01*
X119882Y-10234D01*
X119889Y-10239D01*
X120061Y-10328D01*
X120230Y-10418D01*
X120239Y-10421D01*
X120247Y-10425D01*
X120432Y-10478D01*
X120616Y-10533D01*
X120625Y-10534D01*
X120634Y-10536D01*
X120825Y-10552D01*
X121017Y-10569D01*
X121026Y-10568D01*
X121035Y-10569D01*
X121224Y-10547D01*
X121417Y-10526D01*
X121426Y-10523D01*
X121435Y-10522D01*
X121617Y-10463D01*
X121801Y-10404D01*
X121809Y-10400D01*
X121817Y-10397D01*
X121986Y-10302D01*
X122153Y-10210D01*
X122160Y-10204D01*
X122168Y-10199D01*
X122313Y-10074D01*
X122460Y-9949D01*
X122466Y-9942D01*
X122473Y-9936D01*
X122590Y-9785D01*
X122710Y-9633D01*
X122714Y-9625D01*
X122720Y-9618D01*
X122805Y-9446D01*
X122892Y-9274D01*
X122895Y-9266D01*
X122899Y-9258D01*
X122949Y-9071D01*
X123000Y-8886D01*
X123001Y-8877D01*
X123003Y-8869D01*
X123031Y-8538D01*
X123031Y-518D01*
X123028Y-492D01*
X123030Y-465D01*
X123008Y-291D01*
X122991Y-118D01*
X122983Y-92D01*
X122979Y-65D01*
X122924Y100D01*
X122872Y267D01*
X122860Y291D01*
X122851Y316D01*
X122764Y468D01*
X122681Y621D01*
X122664Y642D01*
X122650Y665D01*
X122436Y918D01*
X121363Y1990D01*
X121363Y32260D01*
X122703Y33599D01*
X137597Y33599D01*
X138937Y32260D01*
X138937Y15365D01*
X137532Y13960D01*
X137515Y13940D01*
X137494Y13922D01*
X137387Y13784D01*
X137277Y13649D01*
X137264Y13625D01*
X137248Y13604D01*
X137170Y13447D01*
X137088Y13293D01*
X137080Y13268D01*
X137068Y13243D01*
X137023Y13074D01*
X136973Y12907D01*
X136971Y12881D01*
X136964Y12855D01*
X136937Y12524D01*
X136937Y1990D01*
X136327Y1381D01*
X136310Y1360D01*
X136290Y1342D01*
X136183Y1204D01*
X136072Y1069D01*
X136059Y1045D01*
X136043Y1024D01*
X135965Y868D01*
X135883Y713D01*
X135876Y688D01*
X135864Y664D01*
X135818Y495D01*
X135768Y327D01*
X135766Y301D01*
X135759Y275D01*
X135732Y-56D01*
X135732Y-9174D01*
X135733Y-9183D01*
X135732Y-9192D01*
X135753Y-9386D01*
X135772Y-9575D01*
X135774Y-9583D01*
X135775Y-9592D01*
X135834Y-9776D01*
X135890Y-9960D01*
X135894Y-9968D01*
X135897Y-9976D01*
X135990Y-10144D01*
X136082Y-10314D01*
X136087Y-10321D01*
X136092Y-10328D01*
X136217Y-10476D01*
X136340Y-10623D01*
X136346Y-10629D01*
X136352Y-10635D01*
X136504Y-10755D01*
X136653Y-10875D01*
X136661Y-10880D01*
X136668Y-10885D01*
X136841Y-10973D01*
X137011Y-11061D01*
X137019Y-11063D01*
X137027Y-11067D01*
X137214Y-11119D01*
X137398Y-11172D01*
X137406Y-11173D01*
X137415Y-11175D01*
X137608Y-11190D01*
X137799Y-11205D01*
X137808Y-11204D01*
G37*
G36*
X-63894Y65943D02*
X-63894Y65943D01*
X-63885Y65942D01*
X-63694Y65966D01*
X-63503Y65989D01*
X-63494Y65991D01*
X-63485Y65992D01*
X-63304Y66053D01*
X-63120Y66113D01*
X-63112Y66118D01*
X-63104Y66121D01*
X-62938Y66216D01*
X-62769Y66311D01*
X-62763Y66317D01*
X-62755Y66322D01*
X-62502Y66536D01*
X-62053Y66985D01*
X-48571Y66985D01*
X-48545Y66987D01*
X-48518Y66985D01*
X-48344Y67007D01*
X-48171Y67025D01*
X-48145Y67032D01*
X-48119Y67036D01*
X-47953Y67091D01*
X-47786Y67143D01*
X-47762Y67156D01*
X-47737Y67164D01*
X-47585Y67251D01*
X-47432Y67335D01*
X-47411Y67352D01*
X-47388Y67365D01*
X-47135Y67580D01*
X-35444Y79271D01*
X48756Y79271D01*
X51583Y76444D01*
X51583Y76443D01*
X55358Y72668D01*
X55379Y72651D01*
X55396Y72631D01*
X55535Y72524D01*
X55670Y72413D01*
X55693Y72401D01*
X55714Y72384D01*
X55871Y72306D01*
X56025Y72224D01*
X56051Y72217D01*
X56075Y72205D01*
X56244Y72159D01*
X56411Y72110D01*
X56438Y72107D01*
X56464Y72100D01*
X56794Y72073D01*
X62649Y72073D01*
X62676Y72076D01*
X62703Y72074D01*
X62877Y72096D01*
X63050Y72113D01*
X63076Y72121D01*
X63102Y72124D01*
X63268Y72180D01*
X63435Y72231D01*
X63459Y72244D01*
X63484Y72253D01*
X63635Y72340D01*
X63789Y72423D01*
X63809Y72440D01*
X63833Y72453D01*
X64086Y72668D01*
X64825Y73407D01*
X67055Y74331D01*
X69470Y74331D01*
X71700Y73407D01*
X73407Y71700D01*
X74038Y70178D01*
X74040Y70175D01*
X74041Y70170D01*
X74136Y69994D01*
X74228Y69824D01*
X74231Y69820D01*
X74233Y69816D01*
X74358Y69666D01*
X74484Y69513D01*
X74488Y69510D01*
X74491Y69507D01*
X74645Y69382D01*
X74797Y69259D01*
X74801Y69257D01*
X74804Y69255D01*
X74979Y69164D01*
X75153Y69072D01*
X75158Y69071D01*
X75162Y69069D01*
X75351Y69015D01*
X75540Y68959D01*
X75544Y68959D01*
X75549Y68958D01*
X75747Y68941D01*
X75941Y68925D01*
X75945Y68925D01*
X75950Y68925D01*
X76148Y68948D01*
X76341Y68970D01*
X76345Y68971D01*
X76350Y68972D01*
X76538Y69033D01*
X76724Y69093D01*
X76728Y69095D01*
X76732Y69097D01*
X76905Y69194D01*
X77076Y69289D01*
X77079Y69292D01*
X77083Y69294D01*
X77231Y69423D01*
X77382Y69551D01*
X77384Y69555D01*
X77388Y69558D01*
X77507Y69711D01*
X77630Y69868D01*
X77632Y69872D01*
X77635Y69876D01*
X77722Y70052D01*
X77811Y70228D01*
X77812Y70232D01*
X77814Y70236D01*
X77866Y70429D01*
X77917Y70616D01*
X77917Y70621D01*
X77918Y70625D01*
X77946Y70956D01*
X77946Y72193D01*
X77943Y72219D01*
X77945Y72246D01*
X77923Y72420D01*
X77906Y72593D01*
X77898Y72619D01*
X77894Y72645D01*
X77839Y72811D01*
X77787Y72978D01*
X77775Y73002D01*
X77766Y73027D01*
X77679Y73179D01*
X77596Y73332D01*
X77579Y73353D01*
X77565Y73376D01*
X77351Y73629D01*
X70331Y80649D01*
X70310Y80666D01*
X70293Y80686D01*
X70155Y80793D01*
X70019Y80904D01*
X69996Y80916D01*
X69974Y80933D01*
X69818Y81011D01*
X69664Y81093D01*
X69638Y81100D01*
X69614Y81112D01*
X69445Y81158D01*
X69278Y81207D01*
X69251Y81210D01*
X69225Y81217D01*
X68894Y81244D01*
X67055Y81244D01*
X64825Y82168D01*
X63118Y83875D01*
X62194Y86105D01*
X62194Y88520D01*
X62239Y88630D01*
X62241Y88634D01*
X62243Y88638D01*
X62298Y88824D01*
X62356Y89015D01*
X62356Y89020D01*
X62358Y89024D01*
X62376Y89223D01*
X62394Y89416D01*
X62394Y89420D01*
X62394Y89425D01*
X62372Y89626D01*
X62352Y89817D01*
X62351Y89821D01*
X62351Y89825D01*
X62290Y90015D01*
X62233Y90201D01*
X62231Y90205D01*
X62229Y90209D01*
X62134Y90382D01*
X62039Y90554D01*
X62036Y90558D01*
X62034Y90562D01*
X61907Y90712D01*
X61780Y90862D01*
X61777Y90865D01*
X61774Y90869D01*
X61618Y90991D01*
X61465Y91113D01*
X61461Y91115D01*
X61458Y91118D01*
X61281Y91208D01*
X61107Y91297D01*
X61103Y91298D01*
X61099Y91300D01*
X60909Y91353D01*
X60720Y91407D01*
X60715Y91407D01*
X60711Y91408D01*
X60515Y91423D01*
X60319Y91438D01*
X60314Y91438D01*
X60310Y91438D01*
X60112Y91413D01*
X59919Y91389D01*
X59915Y91388D01*
X59910Y91387D01*
X59722Y91324D01*
X59537Y91263D01*
X59533Y91261D01*
X59528Y91259D01*
X59356Y91160D01*
X59187Y91064D01*
X59184Y91061D01*
X59180Y91058D01*
X58927Y90844D01*
X56116Y88033D01*
X-49569Y88033D01*
X-49595Y88030D01*
X-49622Y88032D01*
X-49796Y88010D01*
X-49969Y87993D01*
X-49995Y87985D01*
X-50021Y87982D01*
X-50187Y87926D01*
X-50354Y87875D01*
X-50378Y87862D01*
X-50403Y87854D01*
X-50555Y87766D01*
X-50708Y87683D01*
X-50729Y87666D01*
X-50752Y87653D01*
X-51005Y87438D01*
X-65375Y73068D01*
X-65392Y73048D01*
X-65412Y73030D01*
X-65519Y72892D01*
X-65630Y72757D01*
X-65642Y72733D01*
X-65659Y72712D01*
X-65737Y72555D01*
X-65818Y72401D01*
X-65826Y72376D01*
X-65838Y72352D01*
X-65883Y72182D01*
X-65933Y72015D01*
X-65935Y71989D01*
X-65942Y71963D01*
X-65970Y71632D01*
X-65970Y67973D01*
X-65969Y67964D01*
X-65969Y67955D01*
X-65949Y67763D01*
X-65930Y67572D01*
X-65927Y67563D01*
X-65926Y67555D01*
X-65868Y67372D01*
X-65811Y67187D01*
X-65807Y67179D01*
X-65805Y67171D01*
X-65711Y67002D01*
X-65620Y66833D01*
X-65614Y66826D01*
X-65610Y66818D01*
X-65484Y66671D01*
X-65362Y66524D01*
X-65355Y66518D01*
X-65349Y66511D01*
X-65198Y66392D01*
X-65048Y66271D01*
X-65040Y66267D01*
X-65033Y66262D01*
X-64862Y66175D01*
X-64691Y66086D01*
X-64682Y66083D01*
X-64674Y66079D01*
X-64489Y66028D01*
X-64304Y65975D01*
X-64295Y65974D01*
X-64286Y65971D01*
X-64094Y65957D01*
X-63903Y65942D01*
X-63894Y65943D01*
G37*
G36*
X-144663Y115081D02*
X-144663Y115081D01*
X-144645Y115080D01*
X-144463Y115102D01*
X-144281Y115122D01*
X-144264Y115128D01*
X-144246Y115130D01*
X-144072Y115188D01*
X-143897Y115244D01*
X-143881Y115252D01*
X-143864Y115258D01*
X-143705Y115350D01*
X-143545Y115439D01*
X-143531Y115450D01*
X-143515Y115459D01*
X-143262Y115674D01*
X-138932Y120005D01*
X-138915Y120025D01*
X-138895Y120043D01*
X-138788Y120180D01*
X-138677Y120316D01*
X-138664Y120340D01*
X-138648Y120361D01*
X-138570Y120517D01*
X-138488Y120672D01*
X-138480Y120697D01*
X-138468Y120721D01*
X-138423Y120890D01*
X-138373Y121058D01*
X-138371Y121084D01*
X-138364Y121110D01*
X-138337Y121441D01*
X-138337Y132566D01*
X-136997Y133905D01*
X-133985Y133905D01*
X-133967Y133907D01*
X-133949Y133906D01*
X-133767Y133927D01*
X-133584Y133945D01*
X-133567Y133951D01*
X-133550Y133953D01*
X-133375Y134010D01*
X-133199Y134063D01*
X-133184Y134072D01*
X-133167Y134078D01*
X-133007Y134168D01*
X-132845Y134255D01*
X-132832Y134267D01*
X-132816Y134275D01*
X-132677Y134396D01*
X-132536Y134513D01*
X-132525Y134527D01*
X-132511Y134539D01*
X-132399Y134684D01*
X-132284Y134827D01*
X-132276Y134843D01*
X-132265Y134857D01*
X-132183Y135022D01*
X-132098Y135184D01*
X-132093Y135201D01*
X-132085Y135217D01*
X-132038Y135395D01*
X-131987Y135571D01*
X-131985Y135589D01*
X-131981Y135606D01*
X-131954Y135937D01*
X-131954Y178686D01*
X-131956Y178713D01*
X-131954Y178740D01*
X-131976Y178914D01*
X-131994Y179087D01*
X-132001Y179112D01*
X-132005Y179139D01*
X-132060Y179305D01*
X-132112Y179472D01*
X-132125Y179495D01*
X-132133Y179521D01*
X-132220Y179672D01*
X-132304Y179826D01*
X-132321Y179846D01*
X-132334Y179870D01*
X-132549Y180123D01*
X-133043Y180617D01*
X-133064Y180634D01*
X-133081Y180654D01*
X-133219Y180761D01*
X-133354Y180872D01*
X-133378Y180884D01*
X-133399Y180901D01*
X-133556Y180979D01*
X-133710Y181061D01*
X-133736Y181068D01*
X-133760Y181080D01*
X-133929Y181126D01*
X-134096Y181175D01*
X-134123Y181178D01*
X-134148Y181185D01*
X-134479Y181212D01*
X-143796Y181212D01*
X-143822Y181209D01*
X-143849Y181211D01*
X-144023Y181189D01*
X-144196Y181172D01*
X-144222Y181164D01*
X-144249Y181161D01*
X-144414Y181105D01*
X-144581Y181054D01*
X-144605Y181041D01*
X-144630Y181032D01*
X-144781Y180945D01*
X-144935Y180862D01*
X-144956Y180845D01*
X-144979Y180832D01*
X-145232Y180617D01*
X-147756Y178093D01*
X-147773Y178072D01*
X-147793Y178055D01*
X-147900Y177917D01*
X-148011Y177782D01*
X-148023Y177758D01*
X-148040Y177737D01*
X-148118Y177580D01*
X-148200Y177426D01*
X-148207Y177400D01*
X-148219Y177376D01*
X-148265Y177207D01*
X-148314Y177040D01*
X-148317Y177013D01*
X-148324Y176988D01*
X-148351Y176657D01*
X-148351Y170265D01*
X-148508Y170108D01*
X-148519Y170094D01*
X-148533Y170083D01*
X-148647Y169938D01*
X-148763Y169797D01*
X-148771Y169781D01*
X-148782Y169767D01*
X-148866Y169603D01*
X-148952Y169441D01*
X-148957Y169424D01*
X-148965Y169408D01*
X-149014Y169231D01*
X-149066Y169055D01*
X-149068Y169037D01*
X-149073Y169020D01*
X-149086Y168838D01*
X-149103Y168654D01*
X-149101Y168636D01*
X-149102Y168618D01*
X-149079Y168437D01*
X-149059Y168254D01*
X-149054Y168237D01*
X-149052Y168219D01*
X-148993Y168045D01*
X-148938Y167870D01*
X-148929Y167854D01*
X-148923Y167837D01*
X-148851Y167711D01*
X-148851Y154684D01*
X-150190Y153345D01*
X-153800Y153345D01*
X-153827Y153342D01*
X-153854Y153344D01*
X-154027Y153322D01*
X-154201Y153305D01*
X-154226Y153297D01*
X-154253Y153293D01*
X-154419Y153238D01*
X-154586Y153186D01*
X-154609Y153174D01*
X-154635Y153165D01*
X-154786Y153078D01*
X-154940Y152995D01*
X-154960Y152978D01*
X-154984Y152964D01*
X-155237Y152750D01*
X-168331Y139655D01*
X-168348Y139635D01*
X-168368Y139617D01*
X-168475Y139479D01*
X-168586Y139344D01*
X-168598Y139320D01*
X-168615Y139299D01*
X-168693Y139142D01*
X-168775Y138988D01*
X-168782Y138963D01*
X-168794Y138938D01*
X-168840Y138769D01*
X-168889Y138602D01*
X-168892Y138576D01*
X-168899Y138550D01*
X-168926Y138219D01*
X-168926Y136466D01*
X-168923Y136439D01*
X-168925Y136413D01*
X-168903Y136239D01*
X-168886Y136065D01*
X-168878Y136040D01*
X-168875Y136013D01*
X-168819Y135847D01*
X-168768Y135680D01*
X-168755Y135657D01*
X-168746Y135631D01*
X-168659Y135480D01*
X-168576Y135326D01*
X-168559Y135306D01*
X-168546Y135283D01*
X-168331Y135030D01*
X-165538Y132237D01*
X-165524Y132226D01*
X-165513Y132212D01*
X-165369Y132098D01*
X-165227Y131982D01*
X-165211Y131974D01*
X-165197Y131962D01*
X-165033Y131879D01*
X-164871Y131793D01*
X-164854Y131788D01*
X-164838Y131780D01*
X-164661Y131731D01*
X-164485Y131679D01*
X-164467Y131677D01*
X-164450Y131672D01*
X-164267Y131659D01*
X-164084Y131642D01*
X-164066Y131644D01*
X-164049Y131643D01*
X-163866Y131666D01*
X-163684Y131686D01*
X-163667Y131691D01*
X-163649Y131693D01*
X-163475Y131752D01*
X-163300Y131807D01*
X-163284Y131816D01*
X-163267Y131821D01*
X-163109Y131913D01*
X-162948Y132002D01*
X-162934Y132013D01*
X-162919Y132022D01*
X-162666Y132237D01*
X-160997Y133905D01*
X-155103Y133905D01*
X-153763Y132566D01*
X-153763Y124143D01*
X-153761Y124117D01*
X-153763Y124090D01*
X-153741Y123916D01*
X-153723Y123743D01*
X-153715Y123717D01*
X-153712Y123691D01*
X-153657Y123525D01*
X-153605Y123358D01*
X-153592Y123334D01*
X-153584Y123309D01*
X-153497Y123158D01*
X-153413Y123004D01*
X-153396Y122983D01*
X-153383Y122960D01*
X-153168Y122707D01*
X-146135Y115674D01*
X-146121Y115662D01*
X-146110Y115649D01*
X-145966Y115535D01*
X-145824Y115419D01*
X-145808Y115410D01*
X-145794Y115399D01*
X-145630Y115316D01*
X-145468Y115230D01*
X-145451Y115225D01*
X-145435Y115217D01*
X-145258Y115168D01*
X-145082Y115115D01*
X-145064Y115114D01*
X-145047Y115109D01*
X-144864Y115095D01*
X-144681Y115079D01*
X-144663Y115081D01*
G37*
G36*
X-98352Y-56578D02*
X-98352Y-56578D01*
X-98325Y-56578D01*
X-98227Y-56541D01*
X-98188Y-56530D01*
X-98180Y-56524D01*
X-98169Y-56520D01*
X-51369Y-29520D01*
X-51349Y-29502D01*
X-51324Y-29491D01*
X-51275Y-29437D01*
X-51220Y-29388D01*
X-51209Y-29364D01*
X-51190Y-29344D01*
X-51166Y-29275D01*
X-51134Y-29209D01*
X-51133Y-29182D01*
X-51124Y-29156D01*
X-51129Y-29083D01*
X-51126Y-29010D01*
X-51135Y-28985D01*
X-51137Y-28958D01*
X-51181Y-28862D01*
X-51195Y-28824D01*
X-51201Y-28817D01*
X-51206Y-28806D01*
X-53480Y-25470D01*
X-53502Y-25447D01*
X-53526Y-25411D01*
X-56271Y-22451D01*
X-56297Y-22432D01*
X-56326Y-22400D01*
X-59482Y-19881D01*
X-59510Y-19867D01*
X-59544Y-19839D01*
X-63040Y-17819D01*
X-63070Y-17809D01*
X-63107Y-17787D01*
X-66865Y-16311D01*
X-66897Y-16305D01*
X-66936Y-16289D01*
X-70873Y-15389D01*
X-70904Y-15388D01*
X-70946Y-15378D01*
X-74973Y-15075D01*
X-75004Y-15079D01*
X-75047Y-15075D01*
X-79074Y-15375D01*
X-79104Y-15384D01*
X-79148Y-15386D01*
X-83084Y-16283D01*
X-83113Y-16297D01*
X-83156Y-16305D01*
X-86915Y-17779D01*
X-86941Y-17797D01*
X-86982Y-17812D01*
X-90479Y-19829D01*
X-90503Y-19850D01*
X-90541Y-19871D01*
X-93698Y-22388D01*
X-93719Y-22412D01*
X-93753Y-22439D01*
X-96500Y-25397D01*
X-96517Y-25425D01*
X-96547Y-25456D01*
X-98823Y-28791D01*
X-98835Y-28820D01*
X-98860Y-28856D01*
X-100613Y-32493D01*
X-100621Y-32524D01*
X-100640Y-32562D01*
X-101832Y-36420D01*
X-101835Y-36452D01*
X-101848Y-36493D01*
X-102451Y-40485D01*
X-102450Y-40517D01*
X-102457Y-40560D01*
X-102458Y-44598D01*
X-102455Y-44612D01*
X-102457Y-44621D01*
X-102452Y-44641D01*
X-102453Y-44672D01*
X-101852Y-48665D01*
X-101841Y-48695D01*
X-101835Y-48737D01*
X-100647Y-52596D01*
X-100631Y-52624D01*
X-100619Y-52666D01*
X-98869Y-56304D01*
X-98852Y-56326D01*
X-98843Y-56351D01*
X-98793Y-56404D01*
X-98748Y-56462D01*
X-98725Y-56476D01*
X-98706Y-56496D01*
X-98639Y-56525D01*
X-98576Y-56561D01*
X-98549Y-56565D01*
X-98524Y-56576D01*
X-98451Y-56576D01*
X-98379Y-56585D01*
X-98352Y-56578D01*
G37*
G36*
X-75016Y189704D02*
X-75016Y189704D01*
X-74973Y189700D01*
X-70946Y190003D01*
X-70916Y190011D01*
X-70873Y190014D01*
X-66936Y190914D01*
X-66907Y190927D01*
X-66865Y190936D01*
X-63107Y192412D01*
X-63080Y192429D01*
X-63040Y192444D01*
X-59544Y194464D01*
X-59520Y194485D01*
X-59482Y194506D01*
X-56326Y197025D01*
X-56306Y197049D01*
X-56271Y197076D01*
X-53526Y200036D01*
X-53509Y200064D01*
X-53480Y200095D01*
X-51206Y203431D01*
X-51196Y203457D01*
X-51178Y203477D01*
X-51157Y203547D01*
X-51129Y203615D01*
X-51129Y203642D01*
X-51122Y203668D01*
X-51130Y203741D01*
X-51130Y203814D01*
X-51141Y203839D01*
X-51144Y203866D01*
X-51179Y203929D01*
X-51208Y203996D01*
X-51228Y204015D01*
X-51241Y204039D01*
X-51322Y204106D01*
X-51351Y204134D01*
X-51360Y204138D01*
X-51369Y204145D01*
X-98169Y231145D01*
X-98195Y231154D01*
X-98217Y231169D01*
X-98288Y231185D01*
X-98358Y231208D01*
X-98385Y231206D01*
X-98412Y231212D01*
X-98483Y231198D01*
X-98556Y231193D01*
X-98580Y231180D01*
X-98607Y231175D01*
X-98668Y231134D01*
X-98733Y231101D01*
X-98750Y231080D01*
X-98773Y231065D01*
X-98833Y230979D01*
X-98859Y230948D01*
X-98862Y230938D01*
X-98869Y230929D01*
X-100619Y227291D01*
X-100627Y227260D01*
X-100647Y227221D01*
X-101835Y223362D01*
X-101839Y223331D01*
X-101852Y223290D01*
X-102453Y219297D01*
X-102451Y219265D01*
X-102458Y219223D01*
X-102457Y215185D01*
X-102451Y215155D01*
X-102453Y215143D01*
X-102451Y215135D01*
X-102451Y215110D01*
X-101848Y211118D01*
X-101837Y211088D01*
X-101832Y211045D01*
X-100640Y207187D01*
X-100625Y207159D01*
X-100613Y207118D01*
X-98860Y203481D01*
X-98841Y203455D01*
X-98823Y203416D01*
X-96547Y200081D01*
X-96524Y200059D01*
X-96500Y200022D01*
X-93753Y197064D01*
X-93727Y197045D01*
X-93698Y197013D01*
X-90541Y194496D01*
X-90512Y194482D01*
X-90479Y194454D01*
X-86982Y192437D01*
X-86952Y192427D01*
X-86915Y192404D01*
X-83156Y190930D01*
X-83124Y190925D01*
X-83084Y190908D01*
X-79148Y190011D01*
X-79116Y190010D01*
X-79074Y190000D01*
X-75047Y189700D01*
X-75016Y189704D01*
G37*
G36*
X-201554Y-56573D02*
X-201554Y-56573D01*
X-201481Y-56568D01*
X-201457Y-56555D01*
X-201431Y-56550D01*
X-201370Y-56509D01*
X-201305Y-56476D01*
X-201288Y-56455D01*
X-201265Y-56440D01*
X-201204Y-56354D01*
X-201178Y-56323D01*
X-201176Y-56313D01*
X-201169Y-56304D01*
X-199418Y-52666D01*
X-199410Y-52635D01*
X-199391Y-52596D01*
X-198202Y-48737D01*
X-198199Y-48706D01*
X-198185Y-48665D01*
X-197585Y-44672D01*
X-197587Y-44640D01*
X-197579Y-44598D01*
X-197581Y-40560D01*
X-197587Y-40529D01*
X-197586Y-40485D01*
X-198189Y-36493D01*
X-198200Y-36463D01*
X-198206Y-36420D01*
X-199397Y-32562D01*
X-199413Y-32534D01*
X-199425Y-32493D01*
X-201178Y-28856D01*
X-201197Y-28830D01*
X-201215Y-28791D01*
X-203491Y-25456D01*
X-203513Y-25434D01*
X-203537Y-25397D01*
X-206284Y-22439D01*
X-206310Y-22420D01*
X-206339Y-22388D01*
X-209497Y-19871D01*
X-209525Y-19857D01*
X-209558Y-19829D01*
X-213056Y-17812D01*
X-213086Y-17802D01*
X-213123Y-17779D01*
X-216882Y-16305D01*
X-216913Y-16300D01*
X-216953Y-16283D01*
X-220890Y-15386D01*
X-220922Y-15385D01*
X-220964Y-15375D01*
X-224990Y-15075D01*
X-225022Y-15079D01*
X-225065Y-15075D01*
X-229091Y-15378D01*
X-229122Y-15386D01*
X-229165Y-15389D01*
X-233101Y-16289D01*
X-233130Y-16302D01*
X-233172Y-16311D01*
X-236930Y-17787D01*
X-236957Y-17804D01*
X-236998Y-17819D01*
X-240494Y-19839D01*
X-240518Y-19860D01*
X-240555Y-19881D01*
X-243711Y-22400D01*
X-243732Y-22424D01*
X-243766Y-22451D01*
X-246511Y-25411D01*
X-246528Y-25439D01*
X-246558Y-25470D01*
X-248831Y-28806D01*
X-248842Y-28832D01*
X-248859Y-28852D01*
X-248880Y-28922D01*
X-248908Y-28990D01*
X-248908Y-29017D01*
X-248916Y-29043D01*
X-248908Y-29116D01*
X-248908Y-29189D01*
X-248897Y-29214D01*
X-248894Y-29241D01*
X-248858Y-29304D01*
X-248829Y-29371D01*
X-248810Y-29390D01*
X-248796Y-29414D01*
X-248715Y-29481D01*
X-248686Y-29509D01*
X-248677Y-29513D01*
X-248668Y-29520D01*
X-201868Y-56520D01*
X-201842Y-56529D01*
X-201820Y-56544D01*
X-201749Y-56560D01*
X-201680Y-56583D01*
X-201652Y-56581D01*
X-201626Y-56587D01*
X-201554Y-56573D01*
G37*
G36*
X-220964Y190000D02*
X-220964Y190000D01*
X-220933Y190009D01*
X-220890Y190011D01*
X-216953Y190908D01*
X-216924Y190922D01*
X-216882Y190930D01*
X-213123Y192404D01*
X-213096Y192422D01*
X-213056Y192437D01*
X-209558Y194454D01*
X-209534Y194475D01*
X-209497Y194496D01*
X-206339Y197013D01*
X-206319Y197037D01*
X-206284Y197064D01*
X-203537Y200022D01*
X-203521Y200050D01*
X-203491Y200081D01*
X-201215Y203416D01*
X-201203Y203445D01*
X-201178Y203481D01*
X-199425Y207118D01*
X-199417Y207149D01*
X-199397Y207187D01*
X-198206Y211045D01*
X-198203Y211077D01*
X-198189Y211118D01*
X-197586Y215110D01*
X-197588Y215142D01*
X-197581Y215185D01*
X-197579Y219223D01*
X-197586Y219254D01*
X-197585Y219297D01*
X-198185Y223290D01*
X-198196Y223320D01*
X-198202Y223362D01*
X-199391Y227221D01*
X-199406Y227249D01*
X-199418Y227291D01*
X-201169Y230929D01*
X-201185Y230951D01*
X-201195Y230976D01*
X-201245Y231029D01*
X-201289Y231087D01*
X-201313Y231101D01*
X-201331Y231121D01*
X-201398Y231150D01*
X-201462Y231186D01*
X-201489Y231190D01*
X-201513Y231201D01*
X-201587Y231201D01*
X-201659Y231210D01*
X-201685Y231203D01*
X-201712Y231203D01*
X-201811Y231166D01*
X-201850Y231155D01*
X-201857Y231149D01*
X-201868Y231145D01*
X-248668Y204145D01*
X-248689Y204127D01*
X-248713Y204116D01*
X-248763Y204062D01*
X-248817Y204013D01*
X-248829Y203989D01*
X-248847Y203969D01*
X-248872Y203900D01*
X-248903Y203834D01*
X-248904Y203807D01*
X-248913Y203781D01*
X-248909Y203708D01*
X-248912Y203635D01*
X-248903Y203610D01*
X-248901Y203583D01*
X-248857Y203487D01*
X-248843Y203449D01*
X-248836Y203442D01*
X-248831Y203431D01*
X-246558Y200095D01*
X-246535Y200072D01*
X-246511Y200036D01*
X-243766Y197076D01*
X-243740Y197057D01*
X-243711Y197025D01*
X-240555Y194506D01*
X-240527Y194492D01*
X-240494Y194464D01*
X-236998Y192444D01*
X-236968Y192434D01*
X-236930Y192412D01*
X-233172Y190936D01*
X-233141Y190930D01*
X-233101Y190914D01*
X-229165Y190014D01*
X-229133Y190013D01*
X-229091Y190003D01*
X-225065Y189700D01*
X-225033Y189704D01*
X-224990Y189700D01*
X-220964Y190000D01*
G37*
G36*
X-299993Y59816D02*
X-299993Y59816D01*
X-299981Y59815D01*
X-295957Y60116D01*
X-295927Y60125D01*
X-295884Y60127D01*
X-291949Y61025D01*
X-291920Y61038D01*
X-291878Y61047D01*
X-288121Y62522D01*
X-288095Y62539D01*
X-288054Y62554D01*
X-284559Y64572D01*
X-284536Y64593D01*
X-284498Y64614D01*
X-281343Y67130D01*
X-281322Y67154D01*
X-281288Y67181D01*
X-278543Y70139D01*
X-278527Y70166D01*
X-278497Y70197D01*
X-276224Y73531D01*
X-276211Y73561D01*
X-276186Y73596D01*
X-274435Y77232D01*
X-274428Y77263D01*
X-274408Y77301D01*
X-273219Y81157D01*
X-273216Y81189D01*
X-273202Y81230D01*
X-272601Y85220D01*
X-272602Y85252D01*
X-272595Y85295D01*
X-272595Y89330D01*
X-272601Y89361D01*
X-272601Y89405D01*
X-273202Y93395D01*
X-273213Y93425D01*
X-273219Y93468D01*
X-274408Y97324D01*
X-274423Y97352D01*
X-274435Y97393D01*
X-276186Y101029D01*
X-276206Y101055D01*
X-276224Y101094D01*
X-278497Y104428D01*
X-278520Y104450D01*
X-278543Y104486D01*
X-281288Y107444D01*
X-281314Y107463D01*
X-281343Y107495D01*
X-284498Y110011D01*
X-284526Y110026D01*
X-284559Y110053D01*
X-288054Y112071D01*
X-288084Y112081D01*
X-288121Y112103D01*
X-291878Y113578D01*
X-291909Y113583D01*
X-291949Y113600D01*
X-295884Y114498D01*
X-295915Y114498D01*
X-295957Y114509D01*
X-299981Y114810D01*
X-300008Y114807D01*
X-300035Y114811D01*
X-300106Y114795D01*
X-300179Y114785D01*
X-300202Y114772D01*
X-300229Y114765D01*
X-300287Y114722D01*
X-300351Y114685D01*
X-300367Y114664D01*
X-300389Y114648D01*
X-300426Y114585D01*
X-300470Y114526D01*
X-300476Y114500D01*
X-300490Y114477D01*
X-300508Y114373D01*
X-300518Y114333D01*
X-300516Y114324D01*
X-300518Y114313D01*
X-300518Y60313D01*
X-300513Y60286D01*
X-300515Y60259D01*
X-300493Y60189D01*
X-300478Y60118D01*
X-300463Y60095D01*
X-300455Y60069D01*
X-300407Y60014D01*
X-300366Y59954D01*
X-300343Y59939D01*
X-300325Y59918D01*
X-300260Y59886D01*
X-300198Y59847D01*
X-300171Y59842D01*
X-300147Y59830D01*
X-300042Y59820D01*
X-300002Y59814D01*
X-299993Y59816D01*
G37*
G36*
X-197658Y33721D02*
X-197658Y33721D01*
X-197640Y33720D01*
X-197458Y33741D01*
X-197275Y33759D01*
X-197258Y33764D01*
X-197240Y33766D01*
X-197066Y33823D01*
X-196890Y33877D01*
X-196874Y33886D01*
X-196857Y33891D01*
X-196697Y33982D01*
X-196536Y34069D01*
X-196522Y34080D01*
X-196507Y34089D01*
X-196367Y34209D01*
X-196227Y34327D01*
X-196215Y34341D01*
X-196202Y34352D01*
X-196089Y34497D01*
X-195974Y34641D01*
X-195966Y34656D01*
X-195955Y34670D01*
X-195873Y34835D01*
X-195789Y34998D01*
X-195784Y35015D01*
X-195776Y35031D01*
X-195728Y35209D01*
X-195677Y35385D01*
X-195676Y35403D01*
X-195671Y35420D01*
X-195644Y35750D01*
X-195644Y66382D01*
X-195646Y66400D01*
X-195645Y66418D01*
X-195666Y66600D01*
X-195684Y66783D01*
X-195689Y66800D01*
X-195691Y66817D01*
X-195748Y66992D01*
X-195802Y67168D01*
X-195811Y67183D01*
X-195816Y67200D01*
X-195907Y67360D01*
X-195994Y67522D01*
X-196005Y67535D01*
X-196014Y67551D01*
X-196134Y67690D01*
X-196252Y67831D01*
X-196266Y67842D01*
X-196277Y67856D01*
X-196422Y67968D01*
X-196566Y68083D01*
X-196581Y68091D01*
X-196595Y68102D01*
X-196760Y68184D01*
X-196923Y68269D01*
X-196940Y68274D01*
X-196956Y68282D01*
X-197134Y68329D01*
X-197310Y68380D01*
X-197328Y68382D01*
X-197345Y68386D01*
X-197675Y68413D01*
X-210172Y68413D01*
X-211289Y69530D01*
X-211302Y69541D01*
X-211314Y69555D01*
X-211458Y69669D01*
X-211600Y69785D01*
X-211616Y69793D01*
X-211630Y69804D01*
X-211794Y69888D01*
X-211956Y69973D01*
X-211973Y69979D01*
X-211989Y69987D01*
X-212166Y70036D01*
X-212342Y70088D01*
X-212360Y70090D01*
X-212377Y70095D01*
X-212560Y70108D01*
X-212743Y70125D01*
X-212761Y70123D01*
X-212778Y70124D01*
X-212960Y70101D01*
X-213143Y70081D01*
X-213160Y70076D01*
X-213178Y70074D01*
X-213351Y70015D01*
X-213527Y69960D01*
X-213543Y69951D01*
X-213559Y69945D01*
X-213718Y69854D01*
X-213879Y69765D01*
X-213893Y69753D01*
X-213908Y69744D01*
X-214161Y69530D01*
X-215278Y68413D01*
X-227172Y68413D01*
X-228512Y69753D01*
X-228512Y73249D01*
X-228513Y73258D01*
X-228512Y73267D01*
X-228533Y73459D01*
X-228552Y73650D01*
X-228554Y73658D01*
X-228555Y73667D01*
X-228613Y73850D01*
X-228670Y74035D01*
X-228674Y74043D01*
X-228677Y74051D01*
X-228770Y74219D01*
X-228862Y74389D01*
X-228867Y74396D01*
X-228872Y74403D01*
X-228997Y74551D01*
X-229119Y74698D01*
X-229126Y74704D01*
X-229132Y74710D01*
X-229284Y74830D01*
X-229433Y74950D01*
X-229441Y74954D01*
X-229448Y74960D01*
X-229621Y75048D01*
X-229790Y75136D01*
X-229799Y75138D01*
X-229807Y75142D01*
X-229993Y75194D01*
X-230177Y75247D01*
X-230186Y75248D01*
X-230195Y75250D01*
X-230387Y75264D01*
X-230579Y75280D01*
X-230587Y75279D01*
X-230596Y75280D01*
X-230789Y75255D01*
X-230978Y75233D01*
X-230987Y75230D01*
X-230996Y75229D01*
X-231179Y75168D01*
X-231361Y75108D01*
X-231369Y75104D01*
X-231377Y75101D01*
X-231543Y75006D01*
X-231712Y74910D01*
X-231719Y74905D01*
X-231726Y74900D01*
X-231979Y74685D01*
X-234101Y72564D01*
X-234140Y72548D01*
X-234159Y72537D01*
X-234181Y72530D01*
X-234337Y72442D01*
X-234495Y72358D01*
X-234512Y72343D01*
X-234531Y72332D01*
X-234667Y72215D01*
X-234805Y72101D01*
X-234819Y72084D01*
X-234836Y72069D01*
X-234946Y71928D01*
X-235059Y71789D01*
X-235069Y71769D01*
X-235083Y71751D01*
X-235162Y71591D01*
X-235246Y71432D01*
X-235252Y71411D01*
X-235262Y71391D01*
X-235309Y71218D01*
X-235359Y71046D01*
X-235361Y71023D01*
X-235367Y71002D01*
X-235394Y70671D01*
X-235394Y65854D01*
X-235392Y65832D01*
X-235393Y65809D01*
X-235372Y65632D01*
X-235354Y65453D01*
X-235347Y65432D01*
X-235345Y65410D01*
X-235288Y65240D01*
X-235236Y65068D01*
X-235225Y65049D01*
X-235218Y65027D01*
X-235129Y64871D01*
X-235044Y64714D01*
X-235030Y64697D01*
X-235019Y64678D01*
X-234901Y64542D01*
X-234786Y64405D01*
X-234769Y64391D01*
X-234754Y64374D01*
X-234612Y64265D01*
X-234472Y64153D01*
X-234453Y64142D01*
X-234435Y64129D01*
X-234140Y63977D01*
X-234101Y63961D01*
X-231314Y61174D01*
X-229806Y57533D01*
X-229806Y53592D01*
X-229822Y53553D01*
X-229828Y53532D01*
X-229838Y53512D01*
X-229887Y53339D01*
X-229938Y53167D01*
X-229941Y53145D01*
X-229946Y53124D01*
X-229960Y52944D01*
X-229977Y52767D01*
X-229974Y52745D01*
X-229976Y52722D01*
X-229953Y52544D01*
X-229935Y52366D01*
X-229928Y52345D01*
X-229925Y52323D01*
X-229868Y52153D01*
X-229815Y51982D01*
X-229804Y51962D01*
X-229797Y51941D01*
X-229708Y51785D01*
X-229622Y51629D01*
X-229607Y51612D01*
X-229596Y51592D01*
X-229382Y51339D01*
X-222059Y44016D01*
X-222045Y44005D01*
X-222033Y43992D01*
X-221890Y43878D01*
X-221747Y43761D01*
X-221731Y43753D01*
X-221718Y43742D01*
X-221554Y43659D01*
X-221392Y43573D01*
X-221375Y43568D01*
X-221359Y43560D01*
X-221181Y43510D01*
X-221006Y43458D01*
X-220988Y43456D01*
X-220971Y43452D01*
X-220788Y43438D01*
X-220605Y43422D01*
X-220587Y43424D01*
X-220569Y43422D01*
X-220387Y43445D01*
X-220204Y43465D01*
X-220187Y43470D01*
X-220170Y43473D01*
X-219996Y43531D01*
X-219821Y43586D01*
X-219805Y43595D01*
X-219788Y43601D01*
X-219629Y43692D01*
X-219468Y43781D01*
X-219455Y43793D01*
X-219439Y43802D01*
X-219186Y44016D01*
X-218378Y44824D01*
X-205484Y44824D01*
X-204145Y43485D01*
X-204145Y35750D01*
X-204143Y35733D01*
X-204144Y35715D01*
X-204123Y35533D01*
X-204105Y35350D01*
X-204099Y35333D01*
X-204097Y35315D01*
X-204040Y35140D01*
X-203986Y34965D01*
X-203978Y34949D01*
X-203972Y34932D01*
X-203882Y34772D01*
X-203795Y34611D01*
X-203783Y34597D01*
X-203775Y34582D01*
X-203654Y34442D01*
X-203537Y34302D01*
X-203523Y34290D01*
X-203511Y34277D01*
X-203366Y34164D01*
X-203223Y34049D01*
X-203207Y34041D01*
X-203193Y34030D01*
X-203028Y33948D01*
X-202866Y33864D01*
X-202849Y33859D01*
X-202833Y33851D01*
X-202655Y33803D01*
X-202479Y33752D01*
X-202461Y33751D01*
X-202444Y33746D01*
X-202113Y33719D01*
X-197675Y33719D01*
X-197658Y33721D01*
G37*
G36*
X51019Y127076D02*
X51019Y127076D01*
X51046Y127074D01*
X51220Y127096D01*
X51393Y127113D01*
X51419Y127121D01*
X51445Y127124D01*
X51611Y127180D01*
X51778Y127231D01*
X51802Y127244D01*
X51827Y127253D01*
X51979Y127340D01*
X52132Y127423D01*
X52153Y127440D01*
X52176Y127453D01*
X52429Y127668D01*
X101065Y176304D01*
X101070Y176311D01*
X101077Y176317D01*
X101198Y176466D01*
X101320Y176615D01*
X101324Y176623D01*
X101330Y176630D01*
X101419Y176802D01*
X101508Y176971D01*
X101511Y176980D01*
X101515Y176988D01*
X101568Y177173D01*
X101623Y177357D01*
X101624Y177366D01*
X101627Y177375D01*
X101642Y177566D01*
X101660Y177758D01*
X101659Y177767D01*
X101659Y177776D01*
X101637Y177965D01*
X101616Y178158D01*
X101614Y178167D01*
X101613Y178176D01*
X101553Y178358D01*
X101495Y178542D01*
X101490Y178550D01*
X101488Y178558D01*
X101393Y178727D01*
X101300Y178894D01*
X101294Y178901D01*
X101290Y178909D01*
X101164Y179055D01*
X101039Y179201D01*
X101032Y179207D01*
X101027Y179214D01*
X100875Y179331D01*
X100724Y179451D01*
X100716Y179455D01*
X100709Y179461D01*
X100536Y179546D01*
X100365Y179633D01*
X100356Y179636D01*
X100348Y179640D01*
X100162Y179690D01*
X99977Y179741D01*
X99968Y179742D01*
X99959Y179744D01*
X99628Y179772D01*
X93133Y179772D01*
X93107Y179769D01*
X93080Y179771D01*
X92906Y179749D01*
X92733Y179732D01*
X92707Y179724D01*
X92681Y179720D01*
X92515Y179665D01*
X92348Y179613D01*
X92324Y179601D01*
X92299Y179592D01*
X92147Y179505D01*
X91994Y179422D01*
X91973Y179405D01*
X91950Y179391D01*
X91697Y179177D01*
X60609Y148089D01*
X57782Y145262D01*
X39187Y145262D01*
X39169Y145260D01*
X39151Y145261D01*
X38969Y145240D01*
X38786Y145222D01*
X38769Y145217D01*
X38751Y145215D01*
X38577Y145158D01*
X38401Y145104D01*
X38386Y145095D01*
X38369Y145090D01*
X38208Y144999D01*
X38047Y144912D01*
X38034Y144901D01*
X38018Y144892D01*
X37879Y144772D01*
X37738Y144654D01*
X37727Y144640D01*
X37713Y144629D01*
X37601Y144484D01*
X37486Y144340D01*
X37477Y144325D01*
X37466Y144311D01*
X37384Y144146D01*
X37300Y143983D01*
X37295Y143966D01*
X37287Y143950D01*
X37239Y143772D01*
X37189Y143596D01*
X37187Y143578D01*
X37183Y143561D01*
X37155Y143231D01*
X37155Y134315D01*
X36039Y133199D01*
X36028Y133185D01*
X36014Y133173D01*
X35900Y133029D01*
X35784Y132887D01*
X35776Y132872D01*
X35764Y132858D01*
X35681Y132693D01*
X35595Y132532D01*
X35590Y132515D01*
X35582Y132499D01*
X35533Y132321D01*
X35481Y132146D01*
X35479Y132128D01*
X35474Y132111D01*
X35461Y131928D01*
X35444Y131745D01*
X35446Y131727D01*
X35445Y131709D01*
X35468Y131526D01*
X35488Y131344D01*
X35493Y131327D01*
X35495Y131310D01*
X35554Y131136D01*
X35609Y130961D01*
X35618Y130945D01*
X35623Y130928D01*
X35715Y130769D01*
X35804Y130608D01*
X35815Y130595D01*
X35824Y130579D01*
X36039Y130326D01*
X37155Y129210D01*
X37155Y129104D01*
X37157Y129087D01*
X37156Y129069D01*
X37177Y128887D01*
X37195Y128704D01*
X37201Y128687D01*
X37203Y128669D01*
X37260Y128495D01*
X37314Y128319D01*
X37322Y128303D01*
X37328Y128286D01*
X37418Y128126D01*
X37505Y127965D01*
X37517Y127951D01*
X37525Y127936D01*
X37646Y127796D01*
X37763Y127656D01*
X37777Y127644D01*
X37789Y127631D01*
X37934Y127518D01*
X38077Y127403D01*
X38093Y127395D01*
X38107Y127384D01*
X38272Y127302D01*
X38434Y127218D01*
X38451Y127213D01*
X38467Y127205D01*
X38645Y127157D01*
X38821Y127106D01*
X38839Y127105D01*
X38856Y127100D01*
X39187Y127073D01*
X50993Y127073D01*
X51019Y127076D01*
G37*
%LPC*%
G36*
X206659Y53895D02*
X206659Y53895D01*
X205320Y55234D01*
X205320Y70128D01*
X206659Y71468D01*
X223572Y71468D01*
X223630Y71422D01*
X223772Y71306D01*
X223788Y71297D01*
X223802Y71286D01*
X223966Y71203D01*
X224128Y71117D01*
X224145Y71112D01*
X224161Y71104D01*
X224338Y71055D01*
X224514Y71002D01*
X224532Y71001D01*
X224549Y70996D01*
X224732Y70983D01*
X224915Y70966D01*
X224933Y70968D01*
X224951Y70967D01*
X225131Y70989D01*
X225315Y71009D01*
X225332Y71015D01*
X225350Y71017D01*
X225464Y71055D01*
X237722Y71055D01*
X238525Y70253D01*
X238542Y70239D01*
X238557Y70222D01*
X238698Y70111D01*
X238836Y69998D01*
X238856Y69987D01*
X238874Y69974D01*
X239034Y69893D01*
X239192Y69809D01*
X239213Y69803D01*
X239233Y69793D01*
X239406Y69746D01*
X239578Y69694D01*
X239600Y69692D01*
X239622Y69687D01*
X239799Y69674D01*
X239979Y69658D01*
X240001Y69660D01*
X240023Y69659D01*
X240200Y69682D01*
X240379Y69701D01*
X240401Y69708D01*
X240423Y69711D01*
X240738Y69813D01*
X240830Y69851D01*
X252088Y69851D01*
X254422Y68884D01*
X256209Y67097D01*
X257176Y64763D01*
X257176Y62237D01*
X256209Y59903D01*
X254422Y58116D01*
X252088Y57149D01*
X244088Y57149D01*
X244057Y57146D01*
X244026Y57148D01*
X243857Y57126D01*
X243687Y57109D01*
X243658Y57100D01*
X243627Y57096D01*
X243311Y56995D01*
X243126Y56918D01*
X240000Y56918D01*
X239973Y56915D01*
X239946Y56917D01*
X239772Y56895D01*
X239599Y56878D01*
X239573Y56870D01*
X239547Y56867D01*
X239381Y56811D01*
X239214Y56760D01*
X239190Y56747D01*
X239165Y56739D01*
X239014Y56652D01*
X238860Y56568D01*
X238839Y56551D01*
X238816Y56538D01*
X238563Y56323D01*
X237722Y55482D01*
X225982Y55482D01*
X225956Y55479D01*
X225929Y55481D01*
X225755Y55459D01*
X225582Y55442D01*
X225556Y55434D01*
X225530Y55431D01*
X225364Y55375D01*
X225197Y55324D01*
X225173Y55311D01*
X225148Y55303D01*
X224996Y55215D01*
X224843Y55132D01*
X224822Y55115D01*
X224799Y55102D01*
X224546Y54887D01*
X223553Y53895D01*
X206659Y53895D01*
G37*
%LPD*%
%LPC*%
G36*
X206659Y85695D02*
X206659Y85695D01*
X205320Y87034D01*
X205320Y101928D01*
X206659Y103268D01*
X223553Y103268D01*
X223752Y103069D01*
X223773Y103052D01*
X223790Y103032D01*
X223928Y102925D01*
X224064Y102814D01*
X224087Y102802D01*
X224109Y102785D01*
X224265Y102707D01*
X224419Y102625D01*
X224445Y102618D01*
X224469Y102606D01*
X224638Y102560D01*
X224805Y102511D01*
X224832Y102508D01*
X224858Y102501D01*
X225189Y102474D01*
X236928Y102474D01*
X237770Y101633D01*
X237790Y101616D01*
X237808Y101596D01*
X237946Y101489D01*
X238081Y101378D01*
X238105Y101366D01*
X238126Y101349D01*
X238283Y101271D01*
X238437Y101189D01*
X238462Y101182D01*
X238486Y101170D01*
X238656Y101124D01*
X238823Y101075D01*
X238849Y101072D01*
X238875Y101065D01*
X239206Y101038D01*
X243126Y101038D01*
X243311Y100962D01*
X243341Y100953D01*
X243369Y100939D01*
X243533Y100894D01*
X243696Y100845D01*
X243727Y100842D01*
X243757Y100834D01*
X244088Y100807D01*
X252088Y100807D01*
X254422Y99840D01*
X256209Y98054D01*
X257176Y95719D01*
X257176Y93193D01*
X256209Y90859D01*
X254422Y89072D01*
X252088Y88106D01*
X240831Y88106D01*
X240646Y88182D01*
X240616Y88191D01*
X240588Y88205D01*
X240423Y88249D01*
X240260Y88299D01*
X240229Y88302D01*
X240199Y88310D01*
X239868Y88337D01*
X239206Y88337D01*
X239179Y88334D01*
X239153Y88336D01*
X238979Y88314D01*
X238805Y88297D01*
X238780Y88289D01*
X238753Y88286D01*
X238587Y88230D01*
X238420Y88179D01*
X238397Y88166D01*
X238371Y88157D01*
X238220Y88070D01*
X238066Y87987D01*
X238046Y87970D01*
X238023Y87957D01*
X237770Y87742D01*
X236928Y86901D01*
X225601Y86901D01*
X225575Y86898D01*
X225548Y86900D01*
X225374Y86878D01*
X225200Y86861D01*
X225175Y86853D01*
X225148Y86850D01*
X224983Y86794D01*
X224816Y86743D01*
X224792Y86730D01*
X224767Y86721D01*
X224615Y86634D01*
X224462Y86551D01*
X224441Y86534D01*
X224418Y86521D01*
X224165Y86306D01*
X223553Y85695D01*
X206659Y85695D01*
G37*
%LPD*%
G36*
X-42787Y31595D02*
X-42787Y31595D01*
X-42760Y31593D01*
X-42586Y31615D01*
X-42413Y31632D01*
X-42387Y31640D01*
X-42361Y31643D01*
X-42195Y31699D01*
X-42028Y31750D01*
X-42004Y31763D01*
X-41979Y31771D01*
X-41827Y31859D01*
X-41674Y31942D01*
X-41654Y31959D01*
X-41630Y31972D01*
X-41377Y32187D01*
X-30407Y43158D01*
X-30390Y43178D01*
X-30369Y43196D01*
X-30262Y43334D01*
X-30152Y43469D01*
X-30139Y43493D01*
X-30123Y43514D01*
X-30045Y43671D01*
X-29963Y43825D01*
X-29955Y43850D01*
X-29943Y43874D01*
X-29898Y44044D01*
X-29848Y44211D01*
X-29846Y44237D01*
X-29839Y44263D01*
X-29812Y44594D01*
X-29812Y51998D01*
X-29814Y52016D01*
X-29812Y52034D01*
X-29833Y52216D01*
X-29852Y52399D01*
X-29857Y52416D01*
X-29859Y52433D01*
X-29916Y52608D01*
X-29970Y52784D01*
X-29978Y52799D01*
X-29984Y52816D01*
X-30074Y52976D01*
X-30162Y53138D01*
X-30173Y53151D01*
X-30182Y53167D01*
X-30302Y53306D01*
X-30419Y53447D01*
X-30433Y53458D01*
X-30445Y53472D01*
X-30589Y53584D01*
X-30733Y53699D01*
X-30749Y53707D01*
X-30763Y53718D01*
X-30928Y53800D01*
X-31090Y53885D01*
X-31107Y53890D01*
X-31123Y53898D01*
X-31302Y53945D01*
X-31477Y53996D01*
X-31495Y53998D01*
X-31512Y54002D01*
X-31843Y54029D01*
X-55846Y54029D01*
X-55872Y54027D01*
X-55899Y54029D01*
X-56073Y54007D01*
X-56246Y53989D01*
X-56272Y53982D01*
X-56299Y53978D01*
X-56464Y53923D01*
X-56631Y53871D01*
X-56655Y53858D01*
X-56680Y53850D01*
X-56832Y53763D01*
X-56985Y53679D01*
X-57006Y53662D01*
X-57029Y53649D01*
X-57282Y53434D01*
X-65375Y45342D01*
X-65392Y45321D01*
X-65412Y45304D01*
X-65519Y45166D01*
X-65630Y45030D01*
X-65642Y45007D01*
X-65659Y44986D01*
X-65737Y44829D01*
X-65818Y44675D01*
X-65826Y44649D01*
X-65838Y44625D01*
X-65883Y44456D01*
X-65933Y44289D01*
X-65935Y44262D01*
X-65942Y44236D01*
X-65970Y43906D01*
X-65970Y38003D01*
X-66420Y37552D01*
X-66432Y37538D01*
X-66445Y37527D01*
X-66559Y37383D01*
X-66675Y37240D01*
X-66684Y37225D01*
X-66695Y37211D01*
X-66778Y37047D01*
X-66864Y36885D01*
X-66869Y36868D01*
X-66877Y36852D01*
X-66927Y36675D01*
X-66979Y36499D01*
X-66980Y36481D01*
X-66985Y36464D01*
X-66999Y36281D01*
X-67015Y36098D01*
X-67013Y36080D01*
X-67015Y36062D01*
X-66992Y35881D01*
X-66972Y35698D01*
X-66966Y35680D01*
X-66964Y35663D01*
X-66906Y35489D01*
X-66850Y35314D01*
X-66842Y35298D01*
X-66836Y35281D01*
X-66744Y35122D01*
X-66656Y34961D01*
X-66644Y34948D01*
X-66635Y34932D01*
X-66420Y34679D01*
X-65970Y34228D01*
X-65970Y33623D01*
X-65968Y33605D01*
X-65969Y33588D01*
X-65948Y33405D01*
X-65930Y33223D01*
X-65924Y33206D01*
X-65922Y33188D01*
X-65865Y33013D01*
X-65811Y32838D01*
X-65803Y32822D01*
X-65797Y32805D01*
X-65707Y32645D01*
X-65620Y32484D01*
X-65608Y32470D01*
X-65600Y32454D01*
X-65479Y32315D01*
X-65362Y32174D01*
X-65348Y32163D01*
X-65336Y32150D01*
X-65191Y32037D01*
X-65048Y31922D01*
X-65032Y31914D01*
X-65018Y31903D01*
X-64853Y31821D01*
X-64691Y31737D01*
X-64674Y31732D01*
X-64658Y31724D01*
X-64480Y31676D01*
X-64304Y31625D01*
X-64286Y31624D01*
X-64269Y31619D01*
X-63938Y31592D01*
X-42814Y31592D01*
X-42787Y31595D01*
G37*
G36*
X-143993Y-19831D02*
X-143993Y-19831D01*
X-143966Y-19833D01*
X-143792Y-19811D01*
X-143619Y-19793D01*
X-143593Y-19786D01*
X-143567Y-19782D01*
X-143401Y-19727D01*
X-143234Y-19675D01*
X-143210Y-19662D01*
X-143185Y-19654D01*
X-143033Y-19567D01*
X-142880Y-19483D01*
X-142859Y-19466D01*
X-142836Y-19453D01*
X-142583Y-19238D01*
X-139377Y-16032D01*
X-139360Y-16011D01*
X-139340Y-15994D01*
X-139233Y-15856D01*
X-139122Y-15721D01*
X-139109Y-15697D01*
X-139093Y-15676D01*
X-139015Y-15519D01*
X-138933Y-15365D01*
X-138926Y-15339D01*
X-138914Y-15315D01*
X-138868Y-15146D01*
X-138818Y-14979D01*
X-138816Y-14952D01*
X-138809Y-14927D01*
X-138782Y-14596D01*
X-138782Y10890D01*
X-138785Y10916D01*
X-138783Y10943D01*
X-138805Y11117D01*
X-138822Y11290D01*
X-138830Y11316D01*
X-138833Y11342D01*
X-138889Y11508D01*
X-138940Y11675D01*
X-138953Y11699D01*
X-138961Y11724D01*
X-139049Y11876D01*
X-139132Y12029D01*
X-139149Y12050D01*
X-139162Y12073D01*
X-139377Y12326D01*
X-139393Y12342D01*
X-139414Y12359D01*
X-139431Y12379D01*
X-139569Y12486D01*
X-139704Y12597D01*
X-139728Y12609D01*
X-139749Y12626D01*
X-139906Y12704D01*
X-140060Y12786D01*
X-140086Y12793D01*
X-140110Y12805D01*
X-140279Y12851D01*
X-140446Y12900D01*
X-140473Y12903D01*
X-140498Y12910D01*
X-140829Y12937D01*
X-142072Y12937D01*
X-144396Y15261D01*
X-144411Y15305D01*
X-144463Y15472D01*
X-144475Y15496D01*
X-144484Y15521D01*
X-144571Y15673D01*
X-144654Y15826D01*
X-144671Y15847D01*
X-144685Y15870D01*
X-144899Y16123D01*
X-148126Y19350D01*
X-150138Y21362D01*
X-150145Y21368D01*
X-150151Y21374D01*
X-150300Y21495D01*
X-150450Y21617D01*
X-150458Y21621D01*
X-150465Y21627D01*
X-150635Y21715D01*
X-150805Y21806D01*
X-150814Y21808D01*
X-150822Y21812D01*
X-151006Y21865D01*
X-151191Y21920D01*
X-151200Y21921D01*
X-151209Y21924D01*
X-151400Y21939D01*
X-151592Y21957D01*
X-151601Y21956D01*
X-151610Y21957D01*
X-151799Y21934D01*
X-151993Y21913D01*
X-152001Y21911D01*
X-152010Y21910D01*
X-152192Y21850D01*
X-152376Y21792D01*
X-152384Y21788D01*
X-152393Y21785D01*
X-152560Y21691D01*
X-152729Y21597D01*
X-152736Y21591D01*
X-152743Y21587D01*
X-152888Y21462D01*
X-153036Y21337D01*
X-153041Y21330D01*
X-153048Y21324D01*
X-153165Y21173D01*
X-153285Y21021D01*
X-153289Y21013D01*
X-153295Y21006D01*
X-153380Y20834D01*
X-153468Y20662D01*
X-153470Y20653D01*
X-153474Y20645D01*
X-153524Y20459D01*
X-153576Y20274D01*
X-153576Y20265D01*
X-153579Y20256D01*
X-153606Y19926D01*
X-153606Y13608D01*
X-154106Y13108D01*
X-154123Y13087D01*
X-154143Y13070D01*
X-154250Y12932D01*
X-154361Y12796D01*
X-154373Y12773D01*
X-154390Y12752D01*
X-154468Y12595D01*
X-154550Y12441D01*
X-154557Y12415D01*
X-154569Y12391D01*
X-154615Y12222D01*
X-154664Y12055D01*
X-154667Y12028D01*
X-154674Y12002D01*
X-154701Y11672D01*
X-154701Y1990D01*
X-154900Y1791D01*
X-154917Y1771D01*
X-154937Y1753D01*
X-155044Y1615D01*
X-155155Y1480D01*
X-155167Y1456D01*
X-155184Y1435D01*
X-155262Y1278D01*
X-155343Y1124D01*
X-155351Y1099D01*
X-155363Y1075D01*
X-155408Y905D01*
X-155458Y738D01*
X-155460Y712D01*
X-155467Y686D01*
X-155495Y355D01*
X-155495Y-16386D01*
X-155609Y-16528D01*
X-155731Y-16677D01*
X-155735Y-16685D01*
X-155740Y-16692D01*
X-155829Y-16863D01*
X-155919Y-17033D01*
X-155922Y-17042D01*
X-155926Y-17049D01*
X-155979Y-17233D01*
X-156034Y-17419D01*
X-156035Y-17428D01*
X-156037Y-17436D01*
X-156053Y-17627D01*
X-156070Y-17820D01*
X-156069Y-17829D01*
X-156070Y-17838D01*
X-156048Y-18028D01*
X-156027Y-18220D01*
X-156024Y-18229D01*
X-156023Y-18237D01*
X-155964Y-18420D01*
X-155906Y-18604D01*
X-155901Y-18612D01*
X-155898Y-18620D01*
X-155803Y-18789D01*
X-155711Y-18956D01*
X-155705Y-18963D01*
X-155701Y-18971D01*
X-155575Y-19116D01*
X-155450Y-19263D01*
X-155443Y-19269D01*
X-155437Y-19276D01*
X-155286Y-19393D01*
X-155134Y-19513D01*
X-155126Y-19517D01*
X-155119Y-19522D01*
X-154947Y-19608D01*
X-154775Y-19695D01*
X-154767Y-19698D01*
X-154759Y-19702D01*
X-154571Y-19752D01*
X-154388Y-19803D01*
X-154379Y-19804D01*
X-154370Y-19806D01*
X-154039Y-19833D01*
X-144019Y-19833D01*
X-143993Y-19831D01*
G37*
G36*
X11631Y33181D02*
X11631Y33181D01*
X11649Y33180D01*
X11831Y33201D01*
X12014Y33219D01*
X12031Y33225D01*
X12049Y33227D01*
X12223Y33284D01*
X12399Y33338D01*
X12414Y33346D01*
X12431Y33352D01*
X12592Y33442D01*
X12753Y33529D01*
X12766Y33541D01*
X12782Y33549D01*
X12921Y33670D01*
X13062Y33787D01*
X13073Y33801D01*
X13087Y33813D01*
X13199Y33958D01*
X13314Y34101D01*
X13323Y34117D01*
X13334Y34131D01*
X13416Y34296D01*
X13500Y34458D01*
X13505Y34475D01*
X13513Y34491D01*
X13561Y34669D01*
X13611Y34845D01*
X13613Y34863D01*
X13617Y34880D01*
X13645Y35211D01*
X13645Y46660D01*
X14761Y47776D01*
X14772Y47790D01*
X14786Y47802D01*
X14900Y47946D01*
X15016Y48088D01*
X15024Y48103D01*
X15036Y48118D01*
X15119Y48282D01*
X15205Y48443D01*
X15210Y48460D01*
X15218Y48476D01*
X15267Y48654D01*
X15319Y48829D01*
X15321Y48847D01*
X15326Y48864D01*
X15339Y49047D01*
X15356Y49230D01*
X15354Y49248D01*
X15355Y49266D01*
X15332Y49447D01*
X15312Y49631D01*
X15307Y49648D01*
X15305Y49665D01*
X15247Y49839D01*
X15191Y50014D01*
X15182Y50030D01*
X15177Y50047D01*
X15085Y50207D01*
X14996Y50367D01*
X14985Y50380D01*
X14976Y50396D01*
X14761Y50649D01*
X13921Y51489D01*
X13907Y51500D01*
X13895Y51514D01*
X13751Y51628D01*
X13609Y51744D01*
X13593Y51753D01*
X13579Y51764D01*
X13416Y51847D01*
X13253Y51933D01*
X13236Y51938D01*
X13220Y51946D01*
X13043Y51995D01*
X12868Y52048D01*
X12850Y52049D01*
X12833Y52054D01*
X12649Y52067D01*
X12467Y52084D01*
X12449Y52082D01*
X12431Y52083D01*
X12248Y52060D01*
X12066Y52041D01*
X12049Y52035D01*
X12032Y52033D01*
X11857Y51974D01*
X11682Y51919D01*
X11667Y51910D01*
X11650Y51905D01*
X11492Y51814D01*
X11330Y51724D01*
X11316Y51713D01*
X11301Y51704D01*
X11048Y51489D01*
X9422Y49863D01*
X-6472Y49863D01*
X-7771Y51162D01*
X-7778Y51167D01*
X-7783Y51174D01*
X-7933Y51295D01*
X-8082Y51417D01*
X-8090Y51421D01*
X-8097Y51427D01*
X-8267Y51515D01*
X-8438Y51605D01*
X-8447Y51608D01*
X-8454Y51612D01*
X-8639Y51665D01*
X-8824Y51720D01*
X-8833Y51721D01*
X-8841Y51724D01*
X-9032Y51739D01*
X-9225Y51757D01*
X-9234Y51756D01*
X-9243Y51756D01*
X-9432Y51734D01*
X-9625Y51713D01*
X-9634Y51711D01*
X-9642Y51710D01*
X-9824Y51650D01*
X-10009Y51592D01*
X-10017Y51587D01*
X-10025Y51585D01*
X-10192Y51490D01*
X-10361Y51397D01*
X-10368Y51391D01*
X-10376Y51387D01*
X-10521Y51262D01*
X-10668Y51136D01*
X-10674Y51129D01*
X-10681Y51124D01*
X-10797Y50973D01*
X-10918Y50821D01*
X-10922Y50812D01*
X-10927Y50806D01*
X-11013Y50634D01*
X-11100Y50462D01*
X-11103Y50453D01*
X-11107Y50445D01*
X-11157Y50259D01*
X-11208Y50074D01*
X-11209Y50065D01*
X-11211Y50056D01*
X-11238Y49725D01*
X-11238Y41703D01*
X-12578Y40363D01*
X-21581Y40363D01*
X-21608Y40361D01*
X-21634Y40363D01*
X-21808Y40341D01*
X-21982Y40323D01*
X-22007Y40316D01*
X-22034Y40312D01*
X-22199Y40257D01*
X-22367Y40205D01*
X-22390Y40192D01*
X-22416Y40184D01*
X-22567Y40097D01*
X-22721Y40013D01*
X-22741Y39996D01*
X-22764Y39983D01*
X-23017Y39768D01*
X-26139Y36647D01*
X-26144Y36640D01*
X-26151Y36634D01*
X-26272Y36485D01*
X-26394Y36336D01*
X-26398Y36328D01*
X-26404Y36321D01*
X-26492Y36150D01*
X-26582Y35980D01*
X-26585Y35971D01*
X-26589Y35963D01*
X-26642Y35779D01*
X-26697Y35594D01*
X-26698Y35585D01*
X-26701Y35576D01*
X-26716Y35385D01*
X-26734Y35193D01*
X-26733Y35184D01*
X-26733Y35175D01*
X-26711Y34986D01*
X-26690Y34793D01*
X-26688Y34784D01*
X-26687Y34775D01*
X-26627Y34593D01*
X-26569Y34409D01*
X-26564Y34401D01*
X-26562Y34393D01*
X-26467Y34224D01*
X-26374Y34057D01*
X-26368Y34050D01*
X-26364Y34042D01*
X-26238Y33896D01*
X-26113Y33750D01*
X-26106Y33744D01*
X-26101Y33737D01*
X-25949Y33620D01*
X-25798Y33500D01*
X-25790Y33496D01*
X-25783Y33490D01*
X-25610Y33405D01*
X-25439Y33318D01*
X-25430Y33315D01*
X-25422Y33311D01*
X-25236Y33261D01*
X-25051Y33210D01*
X-25042Y33209D01*
X-25033Y33207D01*
X-24702Y33179D01*
X11613Y33179D01*
X11631Y33181D01*
G37*
G36*
X19569Y127075D02*
X19569Y127075D01*
X19586Y127074D01*
X19769Y127095D01*
X19951Y127113D01*
X19968Y127118D01*
X19986Y127120D01*
X20161Y127177D01*
X20336Y127231D01*
X20352Y127240D01*
X20369Y127245D01*
X20529Y127336D01*
X20690Y127423D01*
X20704Y127434D01*
X20720Y127443D01*
X20859Y127563D01*
X21000Y127681D01*
X21011Y127695D01*
X21024Y127706D01*
X21137Y127851D01*
X21252Y127995D01*
X21260Y128010D01*
X21271Y128024D01*
X21353Y128189D01*
X21437Y128352D01*
X21442Y128369D01*
X21450Y128385D01*
X21498Y128563D01*
X21549Y128739D01*
X21550Y128757D01*
X21555Y128774D01*
X21582Y129104D01*
X21582Y129210D01*
X22699Y130326D01*
X22710Y130340D01*
X22723Y130352D01*
X22837Y130496D01*
X22954Y130638D01*
X22962Y130653D01*
X22973Y130667D01*
X23056Y130832D01*
X23142Y130993D01*
X23147Y131010D01*
X23155Y131026D01*
X23205Y131203D01*
X23257Y131379D01*
X23259Y131397D01*
X23263Y131414D01*
X23277Y131597D01*
X23293Y131780D01*
X23291Y131798D01*
X23293Y131816D01*
X23270Y131998D01*
X23250Y132181D01*
X23245Y132198D01*
X23242Y132215D01*
X23184Y132388D01*
X23128Y132564D01*
X23120Y132580D01*
X23114Y132597D01*
X23023Y132756D01*
X22934Y132917D01*
X22922Y132930D01*
X22913Y132946D01*
X22699Y133199D01*
X21582Y134315D01*
X21582Y143231D01*
X21580Y143248D01*
X21582Y143266D01*
X21560Y143448D01*
X21542Y143631D01*
X21537Y143648D01*
X21535Y143666D01*
X21478Y143840D01*
X21424Y144016D01*
X21415Y144032D01*
X21410Y144049D01*
X21320Y144209D01*
X21232Y144370D01*
X21221Y144384D01*
X21212Y144399D01*
X21092Y144539D01*
X20974Y144679D01*
X20961Y144691D01*
X20949Y144704D01*
X20804Y144817D01*
X20661Y144932D01*
X20645Y144940D01*
X20631Y144951D01*
X20466Y145033D01*
X20303Y145117D01*
X20286Y145122D01*
X20270Y145130D01*
X20092Y145178D01*
X19916Y145229D01*
X19899Y145230D01*
X19881Y145235D01*
X19551Y145262D01*
X9373Y145262D01*
X9346Y145259D01*
X9320Y145261D01*
X9146Y145239D01*
X8972Y145222D01*
X8947Y145214D01*
X8920Y145211D01*
X8754Y145155D01*
X8587Y145104D01*
X8564Y145091D01*
X8538Y145082D01*
X8387Y144995D01*
X8233Y144912D01*
X8213Y144895D01*
X8190Y144882D01*
X7937Y144667D01*
X-2151Y134579D01*
X-2157Y134572D01*
X-2163Y134567D01*
X-2284Y134417D01*
X-2406Y134268D01*
X-2410Y134260D01*
X-2416Y134253D01*
X-2505Y134082D01*
X-2595Y133912D01*
X-2597Y133904D01*
X-2601Y133896D01*
X-2655Y133710D01*
X-2709Y133526D01*
X-2710Y133517D01*
X-2713Y133509D01*
X-2728Y133317D01*
X-2746Y133125D01*
X-2745Y133116D01*
X-2746Y133107D01*
X-2723Y132917D01*
X-2702Y132725D01*
X-2700Y132716D01*
X-2699Y132708D01*
X-2639Y132524D01*
X-2581Y132341D01*
X-2577Y132333D01*
X-2574Y132325D01*
X-2478Y132155D01*
X-2386Y131989D01*
X-2380Y131982D01*
X-2376Y131974D01*
X-2248Y131827D01*
X-2126Y131682D01*
X-2119Y131676D01*
X-2113Y131669D01*
X-1961Y131552D01*
X-1810Y131432D01*
X-1802Y131428D01*
X-1795Y131423D01*
X-1623Y131337D01*
X-1451Y131250D01*
X-1442Y131247D01*
X-1434Y131243D01*
X-1248Y131193D01*
X-1063Y131142D01*
X-1054Y131141D01*
X-1045Y131139D01*
X-715Y131112D01*
X7041Y131112D01*
X8380Y129772D01*
X8380Y129104D01*
X8382Y129087D01*
X8381Y129069D01*
X8402Y128887D01*
X8420Y128704D01*
X8426Y128687D01*
X8428Y128669D01*
X8485Y128495D01*
X8539Y128319D01*
X8547Y128303D01*
X8553Y128286D01*
X8643Y128126D01*
X8730Y127965D01*
X8742Y127951D01*
X8750Y127936D01*
X8871Y127796D01*
X8988Y127656D01*
X9002Y127644D01*
X9014Y127631D01*
X9159Y127518D01*
X9302Y127403D01*
X9318Y127395D01*
X9332Y127384D01*
X9497Y127302D01*
X9659Y127218D01*
X9676Y127213D01*
X9692Y127205D01*
X9870Y127157D01*
X10046Y127106D01*
X10064Y127105D01*
X10081Y127100D01*
X10412Y127073D01*
X19551Y127073D01*
X19569Y127075D01*
G37*
G36*
X-15349Y61653D02*
X-15349Y61653D01*
X-15331Y61651D01*
X-15149Y61672D01*
X-14966Y61691D01*
X-14949Y61696D01*
X-14932Y61698D01*
X-14757Y61755D01*
X-14581Y61809D01*
X-14566Y61817D01*
X-14549Y61823D01*
X-14389Y61913D01*
X-14227Y62001D01*
X-14214Y62012D01*
X-14198Y62021D01*
X-14059Y62141D01*
X-13918Y62258D01*
X-13907Y62272D01*
X-13893Y62284D01*
X-13781Y62429D01*
X-13666Y62572D01*
X-13658Y62588D01*
X-13647Y62602D01*
X-13565Y62767D01*
X-13480Y62929D01*
X-13475Y62946D01*
X-13467Y62962D01*
X-13420Y63141D01*
X-13369Y63316D01*
X-13367Y63334D01*
X-13363Y63351D01*
X-13336Y63682D01*
X-13336Y67460D01*
X-12614Y68182D01*
X-12608Y68189D01*
X-12601Y68194D01*
X-12480Y68345D01*
X-12359Y68493D01*
X-12354Y68501D01*
X-12349Y68508D01*
X-12261Y68678D01*
X-12170Y68849D01*
X-12167Y68858D01*
X-12163Y68865D01*
X-12110Y69050D01*
X-12055Y69235D01*
X-12054Y69244D01*
X-12052Y69252D01*
X-12036Y69443D01*
X-12019Y69636D01*
X-12020Y69645D01*
X-12019Y69654D01*
X-12041Y69843D01*
X-12062Y70036D01*
X-12065Y70045D01*
X-12066Y70053D01*
X-12125Y70234D01*
X-12184Y70420D01*
X-12188Y70428D01*
X-12191Y70436D01*
X-12285Y70603D01*
X-12379Y70772D01*
X-12384Y70779D01*
X-12389Y70787D01*
X-12514Y70932D01*
X-12639Y71079D01*
X-12646Y71085D01*
X-12652Y71092D01*
X-12802Y71208D01*
X-12955Y71329D01*
X-12963Y71333D01*
X-12970Y71338D01*
X-13141Y71423D01*
X-13314Y71511D01*
X-13323Y71514D01*
X-13331Y71518D01*
X-13516Y71567D01*
X-13702Y71619D01*
X-13711Y71620D01*
X-13719Y71622D01*
X-14050Y71649D01*
X-31446Y71649D01*
X-31472Y71647D01*
X-31499Y71649D01*
X-31673Y71627D01*
X-31846Y71609D01*
X-31872Y71602D01*
X-31899Y71598D01*
X-32064Y71543D01*
X-32231Y71491D01*
X-32255Y71478D01*
X-32280Y71470D01*
X-32432Y71383D01*
X-32585Y71299D01*
X-32606Y71282D01*
X-32629Y71269D01*
X-32882Y71054D01*
X-38818Y65118D01*
X-38824Y65111D01*
X-38831Y65106D01*
X-38951Y64956D01*
X-39073Y64807D01*
X-39077Y64799D01*
X-39083Y64792D01*
X-39171Y64622D01*
X-39262Y64451D01*
X-39264Y64442D01*
X-39269Y64435D01*
X-39322Y64250D01*
X-39377Y64065D01*
X-39377Y64056D01*
X-39380Y64048D01*
X-39396Y63856D01*
X-39413Y63664D01*
X-39412Y63655D01*
X-39413Y63646D01*
X-39391Y63457D01*
X-39370Y63264D01*
X-39367Y63255D01*
X-39366Y63247D01*
X-39306Y63064D01*
X-39248Y62880D01*
X-39244Y62872D01*
X-39241Y62864D01*
X-39146Y62695D01*
X-39053Y62528D01*
X-39048Y62521D01*
X-39043Y62513D01*
X-38917Y62367D01*
X-38793Y62221D01*
X-38786Y62215D01*
X-38780Y62208D01*
X-38629Y62091D01*
X-38477Y61971D01*
X-38469Y61967D01*
X-38462Y61962D01*
X-38290Y61876D01*
X-38118Y61789D01*
X-38109Y61786D01*
X-38101Y61782D01*
X-37915Y61732D01*
X-37730Y61681D01*
X-37721Y61680D01*
X-37713Y61678D01*
X-37382Y61651D01*
X-15367Y61651D01*
X-15349Y61653D01*
G37*
G36*
X-81721Y110852D02*
X-81721Y110852D01*
X-81703Y110851D01*
X-81521Y110874D01*
X-81338Y110894D01*
X-81321Y110899D01*
X-81303Y110901D01*
X-81130Y110960D01*
X-80954Y111015D01*
X-80939Y111024D01*
X-80922Y111030D01*
X-80763Y111121D01*
X-80602Y111210D01*
X-80588Y111222D01*
X-80573Y111231D01*
X-80320Y111445D01*
X-79203Y112562D01*
X-72200Y112562D01*
X-72174Y112564D01*
X-72147Y112562D01*
X-71973Y112584D01*
X-71799Y112602D01*
X-71774Y112609D01*
X-71747Y112613D01*
X-71582Y112668D01*
X-71415Y112720D01*
X-71391Y112733D01*
X-71366Y112741D01*
X-71214Y112828D01*
X-71061Y112912D01*
X-71040Y112929D01*
X-71017Y112942D01*
X-70764Y113157D01*
X-66176Y117745D01*
X-66170Y117752D01*
X-66163Y117757D01*
X-66043Y117907D01*
X-65921Y118056D01*
X-65916Y118064D01*
X-65911Y118071D01*
X-65822Y118241D01*
X-65732Y118412D01*
X-65729Y118421D01*
X-65725Y118428D01*
X-65672Y118613D01*
X-65617Y118798D01*
X-65616Y118807D01*
X-65614Y118815D01*
X-65598Y119007D01*
X-65581Y119199D01*
X-65582Y119208D01*
X-65581Y119217D01*
X-65603Y119405D01*
X-65624Y119599D01*
X-65627Y119608D01*
X-65628Y119616D01*
X-65687Y119798D01*
X-65746Y119983D01*
X-65750Y119991D01*
X-65753Y119999D01*
X-65848Y120168D01*
X-65941Y120335D01*
X-65946Y120342D01*
X-65951Y120350D01*
X-66077Y120496D01*
X-66201Y120642D01*
X-66208Y120648D01*
X-66214Y120655D01*
X-66365Y120772D01*
X-66517Y120892D01*
X-66525Y120896D01*
X-66532Y120901D01*
X-66704Y120987D01*
X-66876Y121074D01*
X-66884Y121077D01*
X-66893Y121081D01*
X-67078Y121131D01*
X-67264Y121182D01*
X-67273Y121183D01*
X-67281Y121185D01*
X-67612Y121212D01*
X-83477Y121212D01*
X-83503Y121210D01*
X-83530Y121212D01*
X-83704Y121190D01*
X-83877Y121172D01*
X-83903Y121165D01*
X-83929Y121161D01*
X-84095Y121106D01*
X-84262Y121054D01*
X-84286Y121041D01*
X-84311Y121033D01*
X-84462Y120946D01*
X-84616Y120862D01*
X-84637Y120845D01*
X-84660Y120832D01*
X-84913Y120617D01*
X-89501Y116029D01*
X-89507Y116022D01*
X-89513Y116017D01*
X-89634Y115867D01*
X-89756Y115718D01*
X-89760Y115710D01*
X-89766Y115703D01*
X-89854Y115533D01*
X-89945Y115362D01*
X-89947Y115353D01*
X-89951Y115346D01*
X-90005Y115159D01*
X-90059Y114976D01*
X-90060Y114967D01*
X-90063Y114959D01*
X-90078Y114767D01*
X-90096Y114575D01*
X-90095Y114566D01*
X-90096Y114557D01*
X-90073Y114368D01*
X-90052Y114175D01*
X-90050Y114166D01*
X-90049Y114158D01*
X-89989Y113976D01*
X-89931Y113791D01*
X-89927Y113783D01*
X-89924Y113775D01*
X-89829Y113606D01*
X-89736Y113439D01*
X-89730Y113432D01*
X-89726Y113424D01*
X-89600Y113278D01*
X-89476Y113132D01*
X-89469Y113126D01*
X-89463Y113119D01*
X-89311Y113002D01*
X-89160Y112882D01*
X-89152Y112878D01*
X-89145Y112873D01*
X-88972Y112787D01*
X-88801Y112700D01*
X-88792Y112697D01*
X-88784Y112693D01*
X-88598Y112643D01*
X-88413Y112592D01*
X-88404Y112591D01*
X-88395Y112589D01*
X-88065Y112562D01*
X-84309Y112562D01*
X-83193Y111445D01*
X-83179Y111434D01*
X-83167Y111420D01*
X-83023Y111306D01*
X-82881Y111190D01*
X-82865Y111182D01*
X-82851Y111171D01*
X-82687Y111087D01*
X-82525Y111002D01*
X-82508Y110996D01*
X-82492Y110988D01*
X-82315Y110939D01*
X-82139Y110887D01*
X-82122Y110885D01*
X-82104Y110880D01*
X-81921Y110867D01*
X-81738Y110850D01*
X-81721Y110852D01*
G37*
D10*
X-150019Y252513D03*
X701Y164833D03*
X701Y9793D03*
X-150019Y-77888D03*
X-221519Y211213D03*
X-78519Y211213D03*
X-78519Y-36588D03*
X-221519Y-36588D03*
X149981Y252513D03*
X293081Y169913D03*
X293081Y4713D03*
X149981Y-77888D03*
X-293086Y169913D03*
X-293086Y4713D03*
X-293119Y87313D03*
D11*
X-148431Y202406D03*
D12*
X-211931Y54538D03*
X-211931Y37538D03*
D13*
X-204225Y76200D03*
X-221225Y76200D03*
X-156138Y161131D03*
X-139138Y161131D03*
D12*
X-156138Y176213D03*
X-139138Y176213D03*
D13*
X-191294Y120881D03*
X-191294Y137881D03*
X-176213Y120881D03*
X-176213Y137881D03*
D12*
X-162488Y7938D03*
X-145488Y7938D03*
D14*
X-230981Y120675D03*
X-230981Y139675D03*
X-208756Y120675D03*
X-208756Y139675D03*
D15*
X-164281Y-7938D03*
X-145281Y-7938D03*
D13*
X-251850Y121444D03*
X-268850Y121444D03*
D16*
X-239713Y80963D03*
X-239713Y55563D03*
X-239713Y30163D03*
D13*
X231775Y63269D03*
X231775Y46269D03*
D14*
X215106Y62681D03*
X215106Y43681D03*
D13*
X-73256Y27781D03*
X-90256Y27781D03*
D17*
X-906Y123825D03*
X-22906Y133325D03*
X-22906Y114325D03*
X1475Y57150D03*
X-20525Y66650D03*
X-20525Y47650D03*
D13*
X-73256Y104775D03*
X-90256Y104775D03*
D12*
X29369Y123263D03*
X29369Y140263D03*
X21431Y57713D03*
X21431Y40713D03*
D13*
X230981Y94688D03*
X230981Y111688D03*
D14*
X215106Y94481D03*
X215106Y113481D03*
D12*
X129150Y7938D03*
X112150Y7938D03*
D15*
X130150Y23813D03*
X111150Y23813D03*
D13*
X-73256Y58738D03*
X-90256Y58738D03*
X-73256Y44450D03*
X-90256Y44450D03*
X-73256Y72231D03*
X-90256Y72231D03*
X-73256Y86519D03*
X-90256Y86519D03*
D18*
X-182257Y99251D03*
X-177256Y99251D03*
X-172254Y99251D03*
X-167253Y99251D03*
X-162252Y99251D03*
X-157251Y99251D03*
X-152249Y99251D03*
X-147248Y99251D03*
X-142247Y99251D03*
X-137246Y99251D03*
X-132244Y99251D03*
X-127243Y99251D03*
D19*
X-120206Y92214D03*
X-120206Y87213D03*
X-120206Y82211D03*
X-120206Y77210D03*
X-120206Y72209D03*
X-120206Y67208D03*
X-120206Y62206D03*
X-120206Y57205D03*
X-120206Y52204D03*
X-120206Y47203D03*
X-120206Y42201D03*
X-120206Y37200D03*
D18*
X-127243Y30163D03*
X-132244Y30163D03*
X-137246Y30163D03*
X-142247Y30163D03*
X-147248Y30163D03*
X-152249Y30163D03*
X-157251Y30163D03*
X-162252Y30163D03*
X-167253Y30163D03*
X-172254Y30163D03*
X-177256Y30163D03*
X-182257Y30163D03*
D19*
X-189294Y37200D03*
X-189294Y42201D03*
X-189294Y47203D03*
X-189294Y52204D03*
X-189294Y57205D03*
X-189294Y62206D03*
X-189294Y67208D03*
X-189294Y72209D03*
X-189294Y77210D03*
X-189294Y82211D03*
X-189294Y87213D03*
X-189294Y92214D03*
D20*
X-154750Y64707D03*
D21*
X-158050Y124619D03*
X-146050Y124619D03*
X-134050Y124619D03*
D22*
X215106Y62681D02*
X231188Y62681D01*
X231775Y63269D01*
X241863Y63269D01*
X242094Y63500D01*
D23*
X242094Y63500D03*
D22*
X250825Y63500D01*
D23*
X250825Y63500D03*
D22*
X230775Y94481D02*
X215106Y94481D01*
X230775Y94481D02*
X230981Y94688D01*
X241863Y94688D01*
X242094Y94456D01*
D23*
X242094Y94456D03*
D22*
X250825Y94456D01*
D23*
X250825Y94456D03*
D22*
X130150Y23813D02*
X130150Y8938D01*
X129150Y7938D01*
X129381Y7706D01*
D23*
X129381Y-2381D03*
X129381Y-11113D03*
D22*
X129381Y7706D01*
D24*
X-162488Y7938D02*
X-162488Y9756D01*
X-157163Y15081D01*
X-157163Y30075D01*
X-157251Y30163D01*
D25*
X-164281Y6144D02*
X-164281Y-7938D01*
X-164281Y6144D02*
X-162488Y7938D01*
D23*
X21431Y31750D03*
D25*
X21431Y40713D01*
X29369Y140263D02*
X28575Y141056D01*
X28575Y146844D01*
D23*
X28575Y146844D03*
D26*
X-164281Y-7938D02*
X-176829Y-7938D01*
X-184944Y-16052D01*
D23*
X-184944Y-16052D03*
D26*
X-268850Y121444D02*
X-276225Y121444D01*
D23*
X-276225Y121444D03*
D24*
X-145769Y8219D02*
X-145488Y7938D01*
X-145769Y8219D02*
X-152249Y14699D01*
X-152249Y30163D01*
D25*
X-145769Y-7450D02*
X-145281Y-7938D01*
X-145769Y-7450D02*
X-145769Y8219D01*
D23*
X-168275Y203200D03*
X-169069Y180181D03*
X59531Y177006D03*
X-105569Y153988D03*
X-140494Y74613D03*
X-167481Y76200D03*
X-140494Y54769D03*
X-165894Y54769D03*
X-200025Y61119D03*
X192881Y130175D03*
X175419Y130175D03*
X155575Y129381D03*
X135731Y130175D03*
X105569Y130969D03*
X90488Y145256D03*
X203200Y153194D03*
X219075Y143669D03*
X184944Y178594D03*
X208756Y179388D03*
X236538Y173038D03*
X168275Y196850D03*
X135731Y198438D03*
X104775Y197644D03*
X193675Y201613D03*
X169069Y215900D03*
X135731Y217488D03*
X79375Y188119D03*
X43656Y165894D03*
X186531Y102394D03*
X165100Y103981D03*
X134938Y107156D03*
X111919Y109538D03*
X187325Y73025D03*
X187325Y45244D03*
X163513Y46831D03*
X164306Y73025D03*
X138113Y73025D03*
X111125Y72231D03*
X89694Y30956D03*
X68263Y11906D03*
X41275Y17463D03*
X86519Y-11906D03*
X150813Y-23019D03*
X182563Y-22225D03*
X238125Y-4763D03*
X251619Y29369D03*
X210344Y22225D03*
X269081Y80963D03*
X269081Y112713D03*
X256381Y142081D03*
X-73025Y159544D03*
X-42863Y162719D03*
X-69056Y135731D03*
X-45244Y136525D03*
X-113506Y1588D03*
X-127794Y-27781D03*
X-150813Y-43656D03*
X-164306Y-37306D03*
X-236538Y7144D03*
X-263525Y36513D03*
X-254794Y8731D03*
X-260350Y153194D03*
X-249238Y169863D03*
X-191294Y173038D03*
X-173038Y190500D03*
X-109538Y167481D03*
X-277019Y135731D03*
X-30163Y13494D03*
X104775Y-27781D03*
X270669Y42069D03*
X-136525Y149225D03*
X-159544Y142081D03*
D24*
X-152249Y43014D02*
X-152249Y30163D01*
X-152249Y43014D02*
X-140494Y54769D01*
D23*
X-38894Y105569D03*
X12700Y111125D03*
X32544Y106363D03*
X48419Y112713D03*
X-34925Y46038D03*
X-46831Y35719D03*
X7144Y44450D03*
X-6350Y39688D03*
X53181Y140494D03*
X93663Y175419D03*
X76200Y157956D03*
X8731Y135731D03*
X-77788Y116681D03*
X51594Y38894D03*
X151606Y-42069D03*
X178594Y-38894D03*
X185738Y-7144D03*
X204788Y-22225D03*
X243681Y12700D03*
X243681Y130969D03*
X252413Y160338D03*
X184150Y88106D03*
X164306Y88900D03*
X185738Y117475D03*
X161131Y116681D03*
X135731Y119063D03*
X111919Y58738D03*
X137319Y59531D03*
X175419Y59531D03*
X-57944Y150813D03*
X-220663Y158750D03*
X-248444Y155575D03*
X-273050Y34131D03*
X-260350Y22225D03*
X-190500Y11906D03*
X-220663Y12700D03*
X60325Y-3969D03*
X219075Y189706D03*
X115094Y208756D03*
X-46831Y5556D03*
X-140494Y-35719D03*
X-214313Y94456D03*
X-174625Y171450D03*
X-40481Y82550D03*
X-25400Y83344D03*
X30956Y84138D03*
X48419Y84138D03*
X-32544Y65881D03*
X39688Y59531D03*
D25*
X-176213Y120881D02*
X-191294Y120881D01*
X-191500Y120675D01*
X-208756Y120675D01*
X-230981Y120675D01*
X-231750Y121444D02*
X-251850Y121444D01*
X-231750Y121444D02*
X-230981Y120675D01*
D24*
X-162252Y99251D02*
X-157251Y99251D01*
X-162252Y99251D02*
X-167253Y99251D01*
D25*
X-169194Y113863D02*
X-176213Y120881D01*
X-169194Y113863D02*
X-169194Y113831D01*
X-162252Y106889D01*
X-162252Y99251D01*
X-208756Y139675D02*
X-230981Y139675D01*
X-208756Y139675D02*
X-193088Y139675D01*
X-191294Y137881D01*
X-176213Y137881D01*
X-156138Y157956D01*
X-156138Y161131D01*
D24*
X-163606Y125275D02*
X-163606Y116146D01*
X-163606Y125275D02*
X-176213Y137881D01*
X-152249Y104788D02*
X-152249Y99251D01*
X-152249Y104788D02*
X-163606Y116146D01*
D26*
X-221225Y76200D02*
X-226219Y81194D01*
X-226219Y88106D01*
D23*
X-226219Y88106D03*
X-90936Y187462D03*
D26*
X-90936Y134352D01*
X-103913Y121375D01*
D24*
X-119550Y92869D02*
X-120206Y92214D01*
X-119550Y92869D02*
X-115505Y92869D01*
X-113506Y94868D01*
X-113506Y106162D01*
X-112649Y107019D01*
X-112649Y112639D01*
X-103913Y121375D01*
D26*
X-83344Y206388D02*
X-78519Y211213D01*
X-83344Y134401D02*
X-105697Y112047D01*
X-83344Y134401D02*
X-83344Y206388D01*
D24*
X-108680Y92869D02*
X-114337Y87213D01*
X-120206Y87213D01*
X-107823Y109921D02*
X-105697Y112047D01*
X-107823Y109921D02*
X-107823Y105020D01*
X-108680Y104163D01*
X-108680Y92869D01*
D26*
X-78519Y-19906D02*
X-78519Y-36588D01*
X-78519Y-19906D02*
X-86864Y-11561D01*
X-86864Y-9555D01*
D24*
X-114676Y42026D02*
X-120031Y42026D01*
X-120206Y42201D01*
X-109538Y36887D02*
X-109538Y31750D01*
X-109538Y36887D02*
X-114676Y42026D01*
D26*
X-109538Y31750D02*
X-107502Y29714D01*
X-107502Y11082D01*
X-86864Y-9555D01*
D24*
X-101600Y31852D02*
X-103638Y33891D01*
X-101600Y31852D02*
X-101600Y20638D01*
D26*
X-101600Y15012D01*
X-77520Y-9068D01*
D23*
X-77520Y-9068D03*
D24*
X-111653Y47203D02*
X-120206Y47203D01*
X-111653Y47203D02*
X-103638Y39188D01*
X-103638Y33891D01*
D23*
X-268754Y99583D03*
D26*
X-265943Y102394D01*
X-211138Y102394D02*
X-200025Y91281D01*
D24*
X-195956Y87213D01*
X-189294Y87213D01*
D26*
X-211138Y102394D02*
X-265943Y102394D01*
X-293119Y88106D02*
X-293119Y87313D01*
X-273497Y107728D02*
X-207904Y107728D01*
X-273497Y107728D02*
X-293119Y88106D01*
D24*
X-192390Y92214D02*
X-189294Y92214D01*
X-192390Y92214D02*
X-207904Y107728D01*
D26*
X-173831Y11100D02*
X-221519Y-36588D01*
X-173831Y11100D02*
X-173831Y14288D01*
X-169863Y18256D01*
X-165100Y18256D01*
D24*
X-162252Y21105D01*
X-162252Y30163D01*
D23*
X-197253Y-23644D03*
D26*
X-140494Y16748D02*
X-138409Y16748D01*
X-141600Y-23644D02*
X-197253Y-23644D01*
X-141600Y-23644D02*
X-134971Y-17016D01*
X-134971Y13309D01*
X-138409Y16748D01*
D24*
X-140494Y16748D02*
X-147248Y23501D01*
X-147248Y30163D01*
D23*
X-191941Y210764D03*
D26*
X-187302Y215404D01*
X-122809Y193847D02*
X-122809Y114300D01*
X-124397Y112713D01*
X-144366Y215404D02*
X-187302Y215404D01*
X-144366Y215404D02*
X-122809Y193847D01*
D24*
X-132069Y104780D02*
X-132069Y99426D01*
X-132244Y99251D01*
X-124397Y112452D02*
X-124397Y112713D01*
X-124397Y112452D02*
X-132069Y104780D01*
D26*
X-219138Y211213D02*
X-209613Y220738D01*
X-219138Y211213D02*
X-221519Y211213D01*
X-209613Y220738D02*
X-142156Y220738D01*
X-117475Y196056D02*
X-117475Y116681D01*
X-117475Y196056D02*
X-142156Y220738D01*
D24*
X-117475Y109018D02*
X-127243Y99251D01*
X-117475Y109018D02*
X-117475Y116681D01*
X-147423Y111931D02*
X-147423Y99426D01*
X-147248Y99251D01*
X-147423Y111931D02*
X-158050Y122559D01*
X-158050Y124619D01*
X-142072Y111835D02*
X-142072Y99426D01*
X-142247Y99251D01*
X-142072Y111835D02*
X-134050Y119856D01*
X-134050Y124619D01*
D26*
X-148431Y183919D02*
X-148431Y202406D01*
X-148431Y183919D02*
X-156138Y176213D01*
X-146216Y185023D02*
X-132059Y185023D01*
X-128143Y181106D01*
X-128143Y134687D01*
X-155026Y176213D02*
X-156138Y176213D01*
X-155026Y176213D02*
X-146216Y185023D01*
D24*
X-137246Y107048D02*
X-137246Y99251D01*
X-127889Y134433D02*
X-128143Y134687D01*
X-127889Y116404D02*
X-137246Y107048D01*
X-127889Y116404D02*
X-127889Y134433D01*
X-182257Y30163D02*
X-204556Y30163D01*
X-211931Y37538D01*
D25*
X-239713Y55563D02*
X-239713Y80963D01*
X-239713Y55563D02*
X-221688Y37538D01*
X-211931Y37538D01*
D24*
X-179521Y22543D02*
X-177431Y24633D01*
X-220085Y30163D02*
X-239713Y30163D01*
X-177431Y29988D02*
X-177256Y30163D01*
X-177431Y29988D02*
X-177431Y24633D01*
X-179521Y22543D02*
X-212465Y22543D01*
X-220085Y30163D01*
D23*
X168275Y169863D03*
D24*
X-120030Y82387D02*
X-120206Y82211D01*
X-120030Y82387D02*
X-110700Y82387D01*
X-103854Y89232D01*
X-14433Y124769D02*
X-13790Y125413D01*
X-12700Y125413D01*
X-14433Y124769D02*
X-85791Y124769D01*
D26*
X161549Y169863D02*
X168275Y169863D01*
X161549Y169863D02*
X147830Y183582D01*
X90714Y183582D01*
X-11716Y130403D02*
X-11716Y126396D01*
X-12700Y125413D01*
X-11716Y130403D02*
X6953Y149073D01*
X56204Y149073D02*
X90714Y183582D01*
D24*
X-103854Y102164D02*
X-103854Y89232D01*
X-103854Y102164D02*
X-102997Y103021D01*
X-102997Y107563D01*
X-85791Y124769D01*
D26*
X25430Y154436D02*
X31720Y154436D01*
X37083Y149073D02*
X56204Y149073D01*
X20067Y149073D02*
X6953Y149073D01*
X31720Y154436D02*
X37083Y149073D01*
X25430Y154436D02*
X20067Y149073D01*
D23*
X169069Y5556D03*
D26*
X160756Y5556D01*
X123186Y-18987D02*
X74831Y29369D01*
X136213Y-18987D02*
X160756Y5556D01*
X136213Y-18987D02*
X123186Y-18987D01*
X-40259Y22447D02*
X-47625Y15081D01*
D24*
X-115443Y15431D02*
X-115443Y32437D01*
X-120206Y37200D01*
D26*
X18287Y24158D02*
X24576Y24158D01*
X29787Y29369D02*
X74831Y29369D01*
X13076Y29369D02*
X-31263Y29369D01*
X24576Y24158D02*
X29787Y29369D01*
X18287Y24158D02*
X13076Y29369D01*
X-31263Y29369D02*
X-38184Y22447D01*
X-40259Y22447D01*
X-47625Y15081D02*
X-90488Y15081D01*
D23*
X-90488Y15081D03*
X-115094Y15081D03*
D26*
X-115443Y15431D01*
D23*
X150019Y5556D03*
D26*
X150019Y38100D01*
X139700Y48419D02*
X37306Y48419D01*
X28013Y57713D02*
X21431Y57713D01*
X139700Y48419D02*
X150019Y38100D01*
X37306Y48419D02*
X28013Y57713D01*
X21431Y57713D02*
X2038Y57713D01*
X1475Y57150D01*
D23*
X150019Y170656D03*
D26*
X29369Y123263D02*
X-344Y123263D01*
X-906Y123825D01*
X141706Y170656D02*
X150019Y170656D01*
X141706Y170656D02*
X134114Y178248D01*
X108398Y178248D01*
X53413Y123263D02*
X29369Y123263D01*
X53413Y123263D02*
X108398Y178248D01*
X-40394Y27781D02*
X-73256Y27781D01*
X-40394Y27781D02*
X-20525Y47650D01*
X-22906Y114325D02*
X-64206Y114325D01*
X-73256Y105275D01*
X-73256Y104775D01*
D24*
X-90256Y104775D02*
X-90256Y102688D01*
X-98895Y94049D01*
X-98895Y86808D01*
X-108493Y77210D01*
X-120206Y77210D01*
X-90759Y27781D02*
X-90256Y27781D01*
X-90759Y27781D02*
X-96774Y33797D01*
X-96774Y33851D01*
X-98812Y35890D01*
X-98812Y41187D01*
X-109829Y52204D01*
X-120206Y52204D01*
D23*
X68263Y68263D03*
D26*
X54375Y68263D01*
X-33866Y75460D02*
X-46152Y63174D01*
X47177Y75460D02*
X54375Y68263D01*
X47177Y75460D02*
X-33866Y75460D01*
X-46152Y63174D02*
X-60475Y63174D01*
X-64912Y58738D02*
X-73256Y58738D01*
X-64912Y58738D02*
X-60475Y63174D01*
D23*
X68263Y87313D03*
D26*
X-68279Y49428D02*
X-73256Y44450D01*
X-68279Y49428D02*
X-66678Y49428D01*
X-58266Y57840D01*
X-11947Y57840D02*
X-9525Y60262D01*
X-9525Y65881D01*
X-6350Y69056D01*
X46038Y69056D02*
X54769Y60325D01*
X76994Y60325D01*
X81756Y65088D01*
X81756Y74613D01*
X69056Y87313D02*
X68263Y87313D01*
X-11947Y57840D02*
X-58266Y57840D01*
X-6350Y69056D02*
X46038Y69056D01*
X69056Y87313D02*
X81756Y74613D01*
D24*
X-93724Y62206D02*
X-120206Y62206D01*
X-93724Y62206D02*
X-90256Y58738D01*
X-108005Y57205D02*
X-120206Y57205D01*
X-95250Y44450D02*
X-90256Y44450D01*
X-95250Y44450D02*
X-108005Y57205D01*
D23*
X67469Y104775D03*
D26*
X54538Y91844D01*
X-51989Y91844D01*
X-71601Y72231D01*
X-73256Y72231D01*
D23*
X130969Y170656D03*
D26*
X49532Y97575D02*
X-62700Y97575D01*
X-73256Y87019D01*
X-73256Y86519D01*
X130969Y143669D02*
X130969Y170656D01*
X65912Y113955D02*
X49532Y97575D01*
X65912Y113955D02*
X101255Y113955D01*
X130969Y143669D01*
D24*
X-90256Y72231D02*
X-92341Y72231D01*
X-97365Y67208D01*
X-120206Y67208D01*
X-95019Y81756D02*
X-90256Y86519D01*
X-95019Y81756D02*
X-97008Y81756D01*
X-106556Y72209D01*
X-120206Y72209D01*
X-189294Y77210D02*
X-189469Y77035D01*
X-194830Y77035D01*
X-195665Y76200D01*
X-204225Y76200D01*
M02*
