G04 EAGLE Gerber RS-274X export*
G75*
%MOMM*%
%FSLAX34Y34*%
%LPD*%
%INSilkscreen Bottom*%
%IPPOS*%
%AMOC8*
5,1,8,0,0,1.08239X$1,22.5*%
G01*
%ADD10C,0.152400*%
%ADD11C,0.101600*%
%ADD12C,0.254000*%
%ADD13C,0.076200*%
%ADD14R,0.584200X0.457200*%

G36*
X163905Y221617D02*
X163905Y221617D01*
X163907Y221616D01*
X163950Y221636D01*
X163994Y221654D01*
X163995Y221656D01*
X163997Y221657D01*
X164030Y221742D01*
X164030Y224282D01*
X164029Y224284D01*
X164029Y224286D01*
X164010Y224329D01*
X163991Y224373D01*
X163989Y224373D01*
X163988Y224375D01*
X163903Y224408D01*
X160093Y224408D01*
X160091Y224407D01*
X160089Y224408D01*
X160046Y224388D01*
X160003Y224370D01*
X160002Y224368D01*
X160000Y224367D01*
X159967Y224282D01*
X159967Y221742D01*
X159968Y221740D01*
X159967Y221738D01*
X159987Y221695D01*
X160005Y221651D01*
X160007Y221651D01*
X160008Y221649D01*
X160093Y221616D01*
X163903Y221616D01*
X163905Y221617D01*
G37*
G36*
X188184Y171062D02*
X188184Y171062D01*
X188186Y171061D01*
X188229Y171081D01*
X188273Y171099D01*
X188274Y171101D01*
X188276Y171102D01*
X188309Y171187D01*
X188309Y174997D01*
X188308Y174999D01*
X188308Y175001D01*
X188289Y175044D01*
X188270Y175088D01*
X188268Y175088D01*
X188267Y175090D01*
X188182Y175123D01*
X185642Y175123D01*
X185640Y175122D01*
X185638Y175123D01*
X185595Y175103D01*
X185552Y175085D01*
X185551Y175083D01*
X185549Y175082D01*
X185516Y174997D01*
X185516Y171187D01*
X185517Y171185D01*
X185516Y171183D01*
X185536Y171140D01*
X185554Y171096D01*
X185556Y171096D01*
X185557Y171094D01*
X185642Y171061D01*
X188182Y171061D01*
X188184Y171062D01*
G37*
G36*
X103348Y166061D02*
X103348Y166061D01*
X103350Y166060D01*
X103393Y166080D01*
X103437Y166098D01*
X103438Y166100D01*
X103440Y166101D01*
X103473Y166186D01*
X103473Y169996D01*
X103472Y169998D01*
X103472Y170000D01*
X103453Y170043D01*
X103434Y170087D01*
X103432Y170087D01*
X103431Y170089D01*
X103346Y170122D01*
X100806Y170122D01*
X100804Y170121D01*
X100802Y170122D01*
X100759Y170102D01*
X100716Y170084D01*
X100715Y170082D01*
X100713Y170081D01*
X100680Y169996D01*
X100680Y166186D01*
X100681Y166184D01*
X100680Y166182D01*
X100700Y166139D01*
X100718Y166095D01*
X100720Y166095D01*
X100721Y166093D01*
X100806Y166060D01*
X103346Y166060D01*
X103348Y166061D01*
G37*
G36*
X148902Y136781D02*
X148902Y136781D01*
X148904Y136780D01*
X148947Y136800D01*
X148991Y136818D01*
X148992Y136820D01*
X148994Y136821D01*
X149027Y136906D01*
X149027Y139446D01*
X149026Y139448D01*
X149026Y139450D01*
X149007Y139493D01*
X148988Y139537D01*
X148986Y139537D01*
X148985Y139539D01*
X148900Y139572D01*
X145090Y139572D01*
X145088Y139571D01*
X145086Y139572D01*
X145043Y139552D01*
X145000Y139534D01*
X144999Y139532D01*
X144997Y139531D01*
X144964Y139446D01*
X144964Y136906D01*
X144965Y136904D01*
X144964Y136902D01*
X144984Y136859D01*
X145002Y136815D01*
X145004Y136815D01*
X145005Y136813D01*
X145090Y136780D01*
X148900Y136780D01*
X148902Y136781D01*
G37*
D10*
X88932Y299212D02*
X88932Y316992D01*
X83993Y316992D01*
X83853Y316990D01*
X83714Y316984D01*
X83574Y316974D01*
X83435Y316960D01*
X83296Y316943D01*
X83158Y316921D01*
X83021Y316895D01*
X82884Y316866D01*
X82748Y316833D01*
X82614Y316796D01*
X82480Y316755D01*
X82348Y316710D01*
X82216Y316661D01*
X82087Y316609D01*
X81959Y316554D01*
X81832Y316494D01*
X81707Y316431D01*
X81584Y316365D01*
X81463Y316295D01*
X81344Y316222D01*
X81227Y316145D01*
X81113Y316065D01*
X81000Y315982D01*
X80890Y315896D01*
X80783Y315806D01*
X80678Y315714D01*
X80576Y315619D01*
X80476Y315521D01*
X80379Y315420D01*
X80285Y315316D01*
X80195Y315210D01*
X80107Y315101D01*
X80022Y314990D01*
X79941Y314876D01*
X79862Y314761D01*
X79787Y314643D01*
X79716Y314523D01*
X79648Y314400D01*
X79583Y314277D01*
X79522Y314151D01*
X79464Y314023D01*
X79410Y313895D01*
X79360Y313764D01*
X79313Y313632D01*
X79270Y313499D01*
X79231Y313365D01*
X79196Y313230D01*
X79165Y313094D01*
X79137Y312956D01*
X79114Y312819D01*
X79094Y312680D01*
X79078Y312541D01*
X79066Y312402D01*
X79058Y312263D01*
X79054Y312123D01*
X79054Y311983D01*
X79058Y311843D01*
X79066Y311704D01*
X79078Y311565D01*
X79094Y311426D01*
X79114Y311287D01*
X79137Y311150D01*
X79165Y311012D01*
X79196Y310876D01*
X79231Y310741D01*
X79270Y310607D01*
X79313Y310474D01*
X79360Y310342D01*
X79410Y310211D01*
X79464Y310083D01*
X79522Y309955D01*
X79583Y309829D01*
X79648Y309706D01*
X79716Y309584D01*
X79787Y309463D01*
X79862Y309345D01*
X79941Y309230D01*
X80022Y309116D01*
X80107Y309005D01*
X80195Y308896D01*
X80285Y308790D01*
X80379Y308686D01*
X80476Y308585D01*
X80576Y308487D01*
X80678Y308392D01*
X80783Y308300D01*
X80890Y308210D01*
X81000Y308124D01*
X81113Y308041D01*
X81227Y307961D01*
X81344Y307884D01*
X81463Y307811D01*
X81584Y307741D01*
X81707Y307675D01*
X81832Y307612D01*
X81959Y307552D01*
X82087Y307497D01*
X82216Y307445D01*
X82348Y307396D01*
X82480Y307351D01*
X82614Y307310D01*
X82748Y307273D01*
X82884Y307240D01*
X83021Y307211D01*
X83158Y307185D01*
X83296Y307163D01*
X83435Y307146D01*
X83574Y307132D01*
X83714Y307122D01*
X83853Y307116D01*
X83993Y307114D01*
X88932Y307114D01*
X72937Y313041D02*
X67998Y316992D01*
X67998Y299212D01*
X72937Y299212D02*
X63059Y299212D01*
X248516Y304285D02*
X248516Y310212D01*
X248516Y304285D02*
X245059Y299840D01*
X248516Y304285D02*
X251974Y299840D01*
X248516Y304285D02*
X243084Y306261D01*
X248516Y304285D02*
X253949Y306261D01*
X235391Y297371D02*
X235391Y315151D01*
X230452Y315151D01*
X230312Y315149D01*
X230173Y315143D01*
X230033Y315133D01*
X229894Y315119D01*
X229755Y315102D01*
X229617Y315080D01*
X229480Y315054D01*
X229343Y315025D01*
X229207Y314992D01*
X229073Y314955D01*
X228939Y314914D01*
X228807Y314869D01*
X228675Y314820D01*
X228546Y314768D01*
X228418Y314713D01*
X228291Y314653D01*
X228166Y314590D01*
X228043Y314524D01*
X227922Y314454D01*
X227803Y314381D01*
X227686Y314304D01*
X227572Y314224D01*
X227459Y314141D01*
X227349Y314055D01*
X227242Y313965D01*
X227137Y313873D01*
X227035Y313778D01*
X226935Y313680D01*
X226838Y313579D01*
X226744Y313475D01*
X226654Y313369D01*
X226566Y313260D01*
X226481Y313149D01*
X226400Y313035D01*
X226321Y312920D01*
X226246Y312802D01*
X226175Y312682D01*
X226107Y312559D01*
X226042Y312436D01*
X225981Y312310D01*
X225923Y312182D01*
X225869Y312054D01*
X225819Y311923D01*
X225772Y311791D01*
X225729Y311658D01*
X225690Y311524D01*
X225655Y311389D01*
X225624Y311253D01*
X225596Y311115D01*
X225573Y310978D01*
X225553Y310839D01*
X225537Y310700D01*
X225525Y310561D01*
X225517Y310422D01*
X225513Y310282D01*
X225513Y310142D01*
X225517Y310002D01*
X225525Y309863D01*
X225537Y309724D01*
X225553Y309585D01*
X225573Y309446D01*
X225596Y309309D01*
X225624Y309171D01*
X225655Y309035D01*
X225690Y308900D01*
X225729Y308766D01*
X225772Y308633D01*
X225819Y308501D01*
X225869Y308370D01*
X225923Y308242D01*
X225981Y308114D01*
X226042Y307988D01*
X226107Y307865D01*
X226175Y307743D01*
X226246Y307622D01*
X226321Y307504D01*
X226400Y307389D01*
X226481Y307275D01*
X226566Y307164D01*
X226654Y307055D01*
X226744Y306949D01*
X226838Y306845D01*
X226935Y306744D01*
X227035Y306646D01*
X227137Y306551D01*
X227242Y306459D01*
X227349Y306369D01*
X227459Y306283D01*
X227572Y306200D01*
X227686Y306120D01*
X227803Y306043D01*
X227922Y305970D01*
X228043Y305900D01*
X228166Y305834D01*
X228291Y305771D01*
X228418Y305711D01*
X228546Y305656D01*
X228675Y305604D01*
X228807Y305555D01*
X228939Y305510D01*
X229073Y305469D01*
X229207Y305432D01*
X229343Y305399D01*
X229480Y305370D01*
X229617Y305344D01*
X229755Y305322D01*
X229894Y305305D01*
X230033Y305291D01*
X230173Y305281D01*
X230312Y305275D01*
X230452Y305273D01*
X235391Y305273D01*
X213963Y315151D02*
X213831Y315149D01*
X213700Y315143D01*
X213568Y315133D01*
X213437Y315120D01*
X213307Y315102D01*
X213177Y315081D01*
X213047Y315056D01*
X212919Y315027D01*
X212791Y314994D01*
X212665Y314957D01*
X212539Y314917D01*
X212415Y314873D01*
X212292Y314825D01*
X212171Y314774D01*
X212051Y314719D01*
X211933Y314661D01*
X211817Y314599D01*
X211703Y314533D01*
X211590Y314465D01*
X211480Y314393D01*
X211372Y314318D01*
X211266Y314239D01*
X211162Y314158D01*
X211061Y314073D01*
X210963Y313986D01*
X210867Y313895D01*
X210774Y313802D01*
X210683Y313706D01*
X210596Y313608D01*
X210511Y313507D01*
X210430Y313403D01*
X210351Y313297D01*
X210276Y313189D01*
X210204Y313079D01*
X210136Y312966D01*
X210070Y312852D01*
X210008Y312736D01*
X209950Y312618D01*
X209895Y312498D01*
X209844Y312377D01*
X209796Y312254D01*
X209752Y312130D01*
X209712Y312004D01*
X209675Y311878D01*
X209642Y311750D01*
X209613Y311622D01*
X209588Y311492D01*
X209567Y311362D01*
X209549Y311232D01*
X209536Y311101D01*
X209526Y310969D01*
X209520Y310838D01*
X209518Y310706D01*
X213963Y315151D02*
X214113Y315149D01*
X214262Y315143D01*
X214411Y315133D01*
X214560Y315120D01*
X214709Y315102D01*
X214857Y315081D01*
X215005Y315055D01*
X215151Y315026D01*
X215297Y314993D01*
X215442Y314956D01*
X215586Y314915D01*
X215729Y314871D01*
X215871Y314823D01*
X216011Y314771D01*
X216150Y314716D01*
X216288Y314657D01*
X216423Y314594D01*
X216558Y314528D01*
X216690Y314458D01*
X216820Y314385D01*
X216949Y314308D01*
X217076Y314228D01*
X217200Y314145D01*
X217322Y314059D01*
X217442Y313969D01*
X217559Y313876D01*
X217674Y313781D01*
X217787Y313682D01*
X217897Y313580D01*
X218004Y313476D01*
X218108Y313369D01*
X218210Y313259D01*
X218308Y313146D01*
X218404Y313031D01*
X218496Y312913D01*
X218586Y312793D01*
X218672Y312671D01*
X218755Y312547D01*
X218835Y312420D01*
X218911Y312292D01*
X218984Y312161D01*
X219054Y312028D01*
X219120Y311894D01*
X219182Y311758D01*
X219241Y311621D01*
X219297Y311482D01*
X219348Y311341D01*
X219396Y311200D01*
X211001Y307249D02*
X210905Y307342D01*
X210813Y307438D01*
X210723Y307537D01*
X210636Y307638D01*
X210552Y307741D01*
X210470Y307846D01*
X210392Y307954D01*
X210317Y308064D01*
X210244Y308176D01*
X210175Y308290D01*
X210109Y308406D01*
X210047Y308524D01*
X209988Y308643D01*
X209932Y308764D01*
X209879Y308887D01*
X209830Y309011D01*
X209785Y309136D01*
X209742Y309263D01*
X209704Y309390D01*
X209669Y309519D01*
X209638Y309648D01*
X209610Y309779D01*
X209586Y309910D01*
X209565Y310042D01*
X209549Y310174D01*
X209536Y310307D01*
X209526Y310440D01*
X209521Y310573D01*
X209519Y310706D01*
X211000Y307248D02*
X219396Y297371D01*
X209518Y297371D01*
X35751Y197203D02*
X17971Y197203D01*
X35751Y197203D02*
X35751Y202142D01*
X35749Y202282D01*
X35743Y202421D01*
X35733Y202561D01*
X35719Y202700D01*
X35702Y202839D01*
X35680Y202977D01*
X35654Y203114D01*
X35625Y203251D01*
X35592Y203387D01*
X35555Y203521D01*
X35514Y203655D01*
X35469Y203787D01*
X35420Y203919D01*
X35368Y204048D01*
X35313Y204176D01*
X35253Y204303D01*
X35190Y204428D01*
X35124Y204551D01*
X35054Y204672D01*
X34981Y204791D01*
X34904Y204908D01*
X34824Y205022D01*
X34741Y205135D01*
X34655Y205245D01*
X34565Y205352D01*
X34473Y205457D01*
X34378Y205559D01*
X34280Y205659D01*
X34179Y205756D01*
X34075Y205850D01*
X33969Y205940D01*
X33860Y206028D01*
X33749Y206113D01*
X33635Y206194D01*
X33520Y206273D01*
X33402Y206348D01*
X33282Y206419D01*
X33159Y206487D01*
X33036Y206552D01*
X32910Y206613D01*
X32782Y206671D01*
X32654Y206725D01*
X32523Y206775D01*
X32391Y206822D01*
X32258Y206865D01*
X32124Y206904D01*
X31989Y206939D01*
X31853Y206970D01*
X31715Y206998D01*
X31578Y207021D01*
X31439Y207041D01*
X31300Y207057D01*
X31161Y207069D01*
X31022Y207077D01*
X30882Y207081D01*
X30742Y207081D01*
X30602Y207077D01*
X30463Y207069D01*
X30324Y207057D01*
X30185Y207041D01*
X30046Y207021D01*
X29909Y206998D01*
X29771Y206970D01*
X29635Y206939D01*
X29500Y206904D01*
X29366Y206865D01*
X29233Y206822D01*
X29101Y206775D01*
X28970Y206725D01*
X28842Y206671D01*
X28714Y206613D01*
X28588Y206552D01*
X28465Y206487D01*
X28342Y206419D01*
X28222Y206348D01*
X28104Y206273D01*
X27989Y206194D01*
X27875Y206113D01*
X27764Y206028D01*
X27655Y205940D01*
X27549Y205850D01*
X27445Y205756D01*
X27344Y205659D01*
X27246Y205559D01*
X27151Y205457D01*
X27059Y205352D01*
X26969Y205245D01*
X26883Y205135D01*
X26800Y205022D01*
X26720Y204908D01*
X26643Y204791D01*
X26570Y204672D01*
X26500Y204551D01*
X26434Y204428D01*
X26371Y204303D01*
X26311Y204176D01*
X26256Y204048D01*
X26204Y203919D01*
X26155Y203787D01*
X26110Y203655D01*
X26069Y203521D01*
X26032Y203387D01*
X25999Y203251D01*
X25970Y203114D01*
X25944Y202977D01*
X25922Y202839D01*
X25905Y202700D01*
X25891Y202561D01*
X25881Y202421D01*
X25875Y202282D01*
X25873Y202142D01*
X25873Y197203D01*
X17971Y213198D02*
X17971Y219124D01*
X17973Y219248D01*
X17979Y219372D01*
X17989Y219496D01*
X18002Y219619D01*
X18020Y219742D01*
X18041Y219864D01*
X18066Y219986D01*
X18095Y220107D01*
X18128Y220226D01*
X18164Y220345D01*
X18205Y220462D01*
X18248Y220578D01*
X18296Y220693D01*
X18347Y220806D01*
X18402Y220918D01*
X18460Y221027D01*
X18521Y221135D01*
X18586Y221241D01*
X18654Y221345D01*
X18726Y221446D01*
X18800Y221546D01*
X18878Y221642D01*
X18958Y221737D01*
X19042Y221829D01*
X19128Y221918D01*
X19217Y222004D01*
X19309Y222088D01*
X19404Y222168D01*
X19500Y222246D01*
X19600Y222320D01*
X19701Y222392D01*
X19805Y222460D01*
X19911Y222525D01*
X20019Y222586D01*
X20128Y222644D01*
X20240Y222699D01*
X20353Y222750D01*
X20468Y222798D01*
X20584Y222841D01*
X20701Y222882D01*
X20820Y222918D01*
X20939Y222951D01*
X21060Y222980D01*
X21182Y223005D01*
X21304Y223026D01*
X21427Y223044D01*
X21550Y223057D01*
X21674Y223067D01*
X21798Y223073D01*
X21922Y223075D01*
X21922Y223076D02*
X23897Y223076D01*
X23897Y223075D02*
X24021Y223073D01*
X24145Y223067D01*
X24269Y223057D01*
X24392Y223044D01*
X24515Y223026D01*
X24637Y223005D01*
X24759Y222980D01*
X24880Y222951D01*
X24999Y222918D01*
X25118Y222882D01*
X25235Y222841D01*
X25351Y222798D01*
X25466Y222750D01*
X25579Y222699D01*
X25691Y222644D01*
X25800Y222586D01*
X25908Y222525D01*
X26014Y222460D01*
X26118Y222392D01*
X26219Y222320D01*
X26319Y222246D01*
X26415Y222168D01*
X26510Y222088D01*
X26602Y222004D01*
X26691Y221918D01*
X26777Y221829D01*
X26861Y221737D01*
X26941Y221642D01*
X27019Y221546D01*
X27093Y221446D01*
X27165Y221345D01*
X27233Y221241D01*
X27298Y221135D01*
X27359Y221027D01*
X27417Y220918D01*
X27472Y220806D01*
X27523Y220693D01*
X27571Y220578D01*
X27614Y220462D01*
X27655Y220345D01*
X27691Y220226D01*
X27724Y220107D01*
X27753Y219986D01*
X27778Y219864D01*
X27799Y219742D01*
X27817Y219619D01*
X27830Y219496D01*
X27840Y219372D01*
X27846Y219248D01*
X27848Y219124D01*
X27848Y213198D01*
X35751Y213198D01*
X35751Y223076D01*
X106055Y92620D02*
X95857Y78055D01*
X106055Y92620D02*
X102009Y95452D01*
X102009Y95453D02*
X101893Y95531D01*
X101775Y95607D01*
X101656Y95678D01*
X101534Y95747D01*
X101410Y95812D01*
X101284Y95873D01*
X101157Y95931D01*
X101028Y95985D01*
X100898Y96036D01*
X100766Y96083D01*
X100633Y96126D01*
X100499Y96165D01*
X100364Y96201D01*
X100228Y96233D01*
X100091Y96261D01*
X99953Y96284D01*
X99815Y96305D01*
X99676Y96321D01*
X99537Y96333D01*
X99397Y96341D01*
X99258Y96345D01*
X99118Y96346D01*
X98978Y96342D01*
X98838Y96334D01*
X98699Y96323D01*
X98560Y96307D01*
X98422Y96288D01*
X98284Y96265D01*
X98147Y96238D01*
X98011Y96207D01*
X97875Y96172D01*
X97741Y96133D01*
X97608Y96090D01*
X97476Y96044D01*
X97345Y95994D01*
X97216Y95941D01*
X97089Y95883D01*
X96963Y95822D01*
X96839Y95758D01*
X96717Y95690D01*
X96596Y95619D01*
X96478Y95544D01*
X96362Y95466D01*
X96248Y95385D01*
X96137Y95300D01*
X96028Y95213D01*
X95922Y95122D01*
X95818Y95029D01*
X95717Y94932D01*
X95618Y94833D01*
X95523Y94731D01*
X95430Y94626D01*
X95341Y94519D01*
X95254Y94409D01*
X95171Y94297D01*
X95091Y94182D01*
X95014Y94066D01*
X94940Y93947D01*
X94870Y93826D01*
X94803Y93703D01*
X94740Y93578D01*
X94680Y93452D01*
X94624Y93324D01*
X94572Y93194D01*
X94523Y93063D01*
X94478Y92931D01*
X94437Y92797D01*
X94399Y92663D01*
X94366Y92527D01*
X94336Y92391D01*
X94310Y92253D01*
X94288Y92115D01*
X94270Y91977D01*
X94256Y91837D01*
X94246Y91698D01*
X94239Y91558D01*
X94237Y91419D01*
X94239Y91279D01*
X94244Y91139D01*
X94254Y91000D01*
X94267Y90861D01*
X94285Y90722D01*
X94306Y90584D01*
X94331Y90446D01*
X94360Y90310D01*
X94393Y90174D01*
X94430Y90039D01*
X94471Y89905D01*
X94515Y89773D01*
X94563Y89641D01*
X94615Y89512D01*
X94671Y89383D01*
X94730Y89257D01*
X94792Y89132D01*
X94859Y89008D01*
X94928Y88887D01*
X95001Y88768D01*
X95077Y88651D01*
X95157Y88536D01*
X95240Y88423D01*
X95326Y88313D01*
X95415Y88206D01*
X95507Y88100D01*
X95602Y87998D01*
X95700Y87898D01*
X95801Y87801D01*
X95904Y87707D01*
X96010Y87616D01*
X96119Y87528D01*
X96230Y87443D01*
X96343Y87361D01*
X96344Y87361D02*
X100389Y84528D01*
X85021Y90466D02*
X89716Y104060D01*
X85021Y90466D02*
X76929Y96132D01*
X81623Y97668D02*
X77090Y91195D01*
X212187Y108612D02*
X223616Y94991D01*
X212187Y108612D02*
X208404Y105437D01*
X208403Y105437D02*
X208297Y105346D01*
X208194Y105252D01*
X208094Y105155D01*
X207996Y105055D01*
X207901Y104952D01*
X207810Y104847D01*
X207721Y104739D01*
X207635Y104628D01*
X207552Y104515D01*
X207473Y104400D01*
X207397Y104283D01*
X207324Y104164D01*
X207255Y104042D01*
X207189Y103919D01*
X207127Y103794D01*
X207068Y103667D01*
X207013Y103539D01*
X206961Y103409D01*
X206913Y103277D01*
X206869Y103145D01*
X206829Y103011D01*
X206793Y102876D01*
X206760Y102740D01*
X206731Y102603D01*
X206706Y102466D01*
X206685Y102328D01*
X206668Y102189D01*
X206655Y102050D01*
X206646Y101910D01*
X206640Y101770D01*
X206639Y101631D01*
X206642Y101491D01*
X206648Y101351D01*
X206659Y101212D01*
X206673Y101073D01*
X206692Y100934D01*
X206714Y100796D01*
X206740Y100659D01*
X206770Y100523D01*
X206804Y100387D01*
X206842Y100252D01*
X206884Y100119D01*
X206929Y99987D01*
X206978Y99856D01*
X207031Y99726D01*
X207087Y99598D01*
X207147Y99472D01*
X207211Y99348D01*
X207278Y99225D01*
X207348Y99104D01*
X207422Y98986D01*
X207499Y98869D01*
X207580Y98755D01*
X207663Y98643D01*
X207750Y98533D01*
X207840Y98426D01*
X207933Y98322D01*
X208028Y98220D01*
X208127Y98121D01*
X208228Y98024D01*
X208332Y97931D01*
X208439Y97841D01*
X208548Y97753D01*
X208660Y97669D01*
X208774Y97588D01*
X208890Y97511D01*
X209008Y97436D01*
X209129Y97365D01*
X209251Y97298D01*
X209375Y97233D01*
X209501Y97173D01*
X209629Y97116D01*
X209758Y97063D01*
X209889Y97013D01*
X210021Y96967D01*
X210154Y96925D01*
X210288Y96886D01*
X210424Y96852D01*
X210560Y96821D01*
X210697Y96794D01*
X210835Y96771D01*
X210974Y96752D01*
X211113Y96737D01*
X211252Y96726D01*
X211392Y96719D01*
X211531Y96715D01*
X211671Y96716D01*
X211811Y96720D01*
X211950Y96729D01*
X212090Y96742D01*
X212228Y96758D01*
X212367Y96778D01*
X212504Y96803D01*
X212641Y96831D01*
X212777Y96863D01*
X212912Y96899D01*
X213047Y96938D01*
X213179Y96982D01*
X213311Y97029D01*
X213441Y97080D01*
X213570Y97134D01*
X213697Y97193D01*
X213822Y97254D01*
X213946Y97320D01*
X214068Y97388D01*
X214187Y97461D01*
X214305Y97536D01*
X214420Y97615D01*
X214534Y97697D01*
X214644Y97782D01*
X214753Y97871D01*
X214753Y97870D02*
X218536Y101045D01*
X211363Y84710D02*
X207580Y81535D01*
X207580Y81536D02*
X207471Y81447D01*
X207361Y81362D01*
X207247Y81280D01*
X207132Y81201D01*
X207014Y81126D01*
X206895Y81053D01*
X206773Y80985D01*
X206649Y80919D01*
X206524Y80858D01*
X206397Y80799D01*
X206268Y80745D01*
X206138Y80694D01*
X206006Y80647D01*
X205874Y80603D01*
X205739Y80564D01*
X205604Y80528D01*
X205468Y80496D01*
X205331Y80468D01*
X205194Y80443D01*
X205055Y80423D01*
X204917Y80407D01*
X204777Y80394D01*
X204638Y80385D01*
X204498Y80381D01*
X204358Y80380D01*
X204219Y80384D01*
X204079Y80391D01*
X203940Y80402D01*
X203801Y80417D01*
X203662Y80436D01*
X203524Y80459D01*
X203387Y80486D01*
X203251Y80517D01*
X203115Y80551D01*
X202981Y80590D01*
X202848Y80632D01*
X202716Y80678D01*
X202585Y80728D01*
X202456Y80781D01*
X202328Y80838D01*
X202202Y80898D01*
X202078Y80962D01*
X201956Y81030D01*
X201835Y81101D01*
X201717Y81176D01*
X201601Y81253D01*
X201487Y81334D01*
X201375Y81418D01*
X201266Y81506D01*
X201159Y81596D01*
X201055Y81689D01*
X200954Y81786D01*
X200855Y81885D01*
X200760Y81987D01*
X200667Y82091D01*
X200577Y82198D01*
X200490Y82308D01*
X200407Y82420D01*
X200326Y82534D01*
X200249Y82651D01*
X200175Y82769D01*
X200105Y82890D01*
X200038Y83013D01*
X199974Y83137D01*
X199914Y83263D01*
X199858Y83391D01*
X199805Y83521D01*
X199756Y83652D01*
X199711Y83784D01*
X199669Y83917D01*
X199631Y84052D01*
X199597Y84188D01*
X199567Y84324D01*
X199541Y84461D01*
X199519Y84599D01*
X199500Y84738D01*
X199486Y84877D01*
X199475Y85016D01*
X199469Y85156D01*
X199466Y85296D01*
X199467Y85435D01*
X199473Y85575D01*
X199482Y85715D01*
X199495Y85854D01*
X199512Y85993D01*
X199533Y86131D01*
X199558Y86268D01*
X199587Y86405D01*
X199620Y86541D01*
X199656Y86676D01*
X199696Y86810D01*
X199740Y86942D01*
X199788Y87074D01*
X199840Y87204D01*
X199895Y87332D01*
X199954Y87459D01*
X200016Y87584D01*
X200082Y87707D01*
X200151Y87829D01*
X200224Y87948D01*
X200300Y88065D01*
X200379Y88180D01*
X200462Y88293D01*
X200548Y88404D01*
X200637Y88512D01*
X200728Y88617D01*
X200823Y88720D01*
X200921Y88820D01*
X201021Y88917D01*
X201124Y89011D01*
X201230Y89102D01*
X195394Y94521D02*
X199934Y98330D01*
X195394Y94521D02*
X195301Y94439D01*
X195209Y94355D01*
X195121Y94268D01*
X195035Y94178D01*
X194952Y94086D01*
X194872Y93991D01*
X194795Y93894D01*
X194721Y93794D01*
X194651Y93692D01*
X194583Y93588D01*
X194519Y93481D01*
X194459Y93373D01*
X194401Y93263D01*
X194347Y93151D01*
X194297Y93038D01*
X194250Y92923D01*
X194207Y92806D01*
X194168Y92689D01*
X194132Y92570D01*
X194100Y92450D01*
X194072Y92329D01*
X194048Y92207D01*
X194027Y92085D01*
X194011Y91962D01*
X193998Y91838D01*
X193989Y91715D01*
X193984Y91591D01*
X193983Y91466D01*
X193986Y91342D01*
X193993Y91218D01*
X194003Y91095D01*
X194018Y90971D01*
X194036Y90849D01*
X194058Y90727D01*
X194084Y90605D01*
X194114Y90485D01*
X194148Y90365D01*
X194185Y90247D01*
X194226Y90130D01*
X194271Y90014D01*
X194319Y89900D01*
X194371Y89787D01*
X194426Y89676D01*
X194485Y89566D01*
X194547Y89459D01*
X194613Y89354D01*
X194682Y89250D01*
X194754Y89149D01*
X194829Y89051D01*
X194907Y88954D01*
X194989Y88861D01*
X195073Y88769D01*
X195160Y88681D01*
X195250Y88595D01*
X195342Y88512D01*
X195437Y88432D01*
X195534Y88355D01*
X195634Y88281D01*
X195736Y88211D01*
X195840Y88143D01*
X195947Y88079D01*
X196055Y88019D01*
X196165Y87961D01*
X196277Y87907D01*
X196390Y87857D01*
X196505Y87810D01*
X196622Y87767D01*
X196739Y87728D01*
X196858Y87692D01*
X196978Y87660D01*
X197099Y87632D01*
X197221Y87608D01*
X197343Y87587D01*
X197466Y87571D01*
X197590Y87558D01*
X197713Y87549D01*
X197837Y87544D01*
X197962Y87543D01*
X198086Y87546D01*
X198210Y87553D01*
X198333Y87563D01*
X198457Y87578D01*
X198579Y87596D01*
X198701Y87618D01*
X198823Y87644D01*
X198943Y87674D01*
X199063Y87708D01*
X199181Y87745D01*
X199298Y87786D01*
X199414Y87831D01*
X199528Y87879D01*
X199641Y87931D01*
X199752Y87986D01*
X199862Y88045D01*
X199969Y88107D01*
X200074Y88173D01*
X200178Y88242D01*
X200279Y88314D01*
X200377Y88389D01*
X200474Y88467D01*
X203500Y91007D01*
X446643Y198046D02*
X446643Y215826D01*
X446643Y207924D02*
X436765Y207924D01*
X436765Y215826D02*
X436765Y198046D01*
X429334Y211875D02*
X424396Y215826D01*
X424396Y198046D01*
X429334Y198046D02*
X419457Y198046D01*
X411997Y198046D02*
X411997Y215826D01*
X404095Y215826D01*
X404095Y207924D02*
X411997Y207924D01*
X397423Y215826D02*
X397423Y198046D01*
X397423Y215826D02*
X392484Y215826D01*
X392344Y215824D01*
X392205Y215818D01*
X392065Y215808D01*
X391926Y215794D01*
X391787Y215777D01*
X391649Y215755D01*
X391512Y215729D01*
X391375Y215700D01*
X391239Y215667D01*
X391105Y215630D01*
X390971Y215589D01*
X390839Y215544D01*
X390707Y215495D01*
X390578Y215443D01*
X390450Y215388D01*
X390323Y215328D01*
X390198Y215265D01*
X390075Y215199D01*
X389954Y215129D01*
X389835Y215056D01*
X389718Y214979D01*
X389604Y214899D01*
X389491Y214816D01*
X389381Y214730D01*
X389274Y214640D01*
X389169Y214548D01*
X389067Y214453D01*
X388967Y214355D01*
X388870Y214254D01*
X388776Y214150D01*
X388686Y214044D01*
X388598Y213935D01*
X388513Y213824D01*
X388432Y213710D01*
X388353Y213595D01*
X388278Y213477D01*
X388207Y213357D01*
X388139Y213234D01*
X388074Y213111D01*
X388013Y212985D01*
X387955Y212857D01*
X387901Y212729D01*
X387851Y212598D01*
X387804Y212466D01*
X387761Y212333D01*
X387722Y212199D01*
X387687Y212064D01*
X387656Y211928D01*
X387628Y211790D01*
X387605Y211653D01*
X387585Y211514D01*
X387569Y211375D01*
X387557Y211236D01*
X387549Y211097D01*
X387545Y210957D01*
X387545Y210817D01*
X387549Y210677D01*
X387557Y210538D01*
X387569Y210399D01*
X387585Y210260D01*
X387605Y210121D01*
X387628Y209984D01*
X387656Y209846D01*
X387687Y209710D01*
X387722Y209575D01*
X387761Y209441D01*
X387804Y209308D01*
X387851Y209176D01*
X387901Y209045D01*
X387955Y208917D01*
X388013Y208789D01*
X388074Y208663D01*
X388139Y208540D01*
X388207Y208417D01*
X388278Y208297D01*
X388353Y208179D01*
X388432Y208064D01*
X388513Y207950D01*
X388598Y207839D01*
X388686Y207730D01*
X388776Y207624D01*
X388870Y207520D01*
X388967Y207419D01*
X389067Y207321D01*
X389169Y207226D01*
X389274Y207134D01*
X389381Y207044D01*
X389491Y206958D01*
X389604Y206875D01*
X389718Y206795D01*
X389835Y206718D01*
X389954Y206645D01*
X390075Y206575D01*
X390198Y206509D01*
X390323Y206446D01*
X390450Y206386D01*
X390578Y206331D01*
X390707Y206279D01*
X390839Y206230D01*
X390971Y206185D01*
X391105Y206144D01*
X391239Y206107D01*
X391375Y206074D01*
X391512Y206045D01*
X391649Y206019D01*
X391787Y205997D01*
X391926Y205980D01*
X392065Y205966D01*
X392205Y205956D01*
X392344Y205950D01*
X392484Y205948D01*
X392484Y205949D02*
X397423Y205949D01*
X391496Y205949D02*
X387545Y198046D01*
X380758Y198046D02*
X374831Y198046D01*
X374707Y198048D01*
X374583Y198054D01*
X374459Y198064D01*
X374336Y198077D01*
X374213Y198095D01*
X374091Y198116D01*
X373969Y198141D01*
X373848Y198170D01*
X373729Y198203D01*
X373610Y198239D01*
X373493Y198280D01*
X373377Y198323D01*
X373262Y198371D01*
X373149Y198422D01*
X373037Y198477D01*
X372928Y198535D01*
X372820Y198596D01*
X372714Y198661D01*
X372610Y198729D01*
X372509Y198801D01*
X372409Y198875D01*
X372313Y198953D01*
X372218Y199033D01*
X372126Y199117D01*
X372037Y199203D01*
X371951Y199292D01*
X371867Y199384D01*
X371787Y199479D01*
X371709Y199575D01*
X371635Y199675D01*
X371563Y199776D01*
X371495Y199880D01*
X371430Y199986D01*
X371369Y200094D01*
X371311Y200203D01*
X371256Y200315D01*
X371205Y200428D01*
X371157Y200543D01*
X371114Y200659D01*
X371073Y200776D01*
X371037Y200895D01*
X371004Y201014D01*
X370975Y201135D01*
X370950Y201257D01*
X370929Y201379D01*
X370911Y201502D01*
X370898Y201625D01*
X370888Y201749D01*
X370882Y201873D01*
X370880Y201997D01*
X370880Y203973D01*
X370882Y204097D01*
X370888Y204221D01*
X370898Y204345D01*
X370911Y204468D01*
X370929Y204591D01*
X370950Y204713D01*
X370975Y204835D01*
X371004Y204956D01*
X371037Y205075D01*
X371073Y205194D01*
X371114Y205311D01*
X371157Y205427D01*
X371205Y205542D01*
X371256Y205655D01*
X371311Y205767D01*
X371369Y205876D01*
X371430Y205984D01*
X371495Y206090D01*
X371563Y206194D01*
X371635Y206295D01*
X371709Y206395D01*
X371787Y206491D01*
X371867Y206586D01*
X371951Y206678D01*
X372037Y206767D01*
X372126Y206853D01*
X372218Y206937D01*
X372313Y207017D01*
X372409Y207095D01*
X372509Y207169D01*
X372610Y207241D01*
X372714Y207309D01*
X372820Y207374D01*
X372928Y207435D01*
X373037Y207493D01*
X373149Y207548D01*
X373262Y207599D01*
X373377Y207647D01*
X373493Y207690D01*
X373610Y207731D01*
X373729Y207767D01*
X373848Y207800D01*
X373969Y207829D01*
X374091Y207854D01*
X374213Y207875D01*
X374336Y207893D01*
X374459Y207906D01*
X374583Y207916D01*
X374707Y207922D01*
X374831Y207924D01*
X380758Y207924D01*
X380758Y215826D01*
X370880Y215826D01*
X362526Y213357D02*
X362676Y213040D01*
X362818Y212721D01*
X362952Y212398D01*
X363079Y212072D01*
X363197Y211742D01*
X363308Y211411D01*
X363411Y211076D01*
X363506Y210740D01*
X363592Y210401D01*
X363671Y210060D01*
X363742Y209717D01*
X363804Y209373D01*
X363858Y209028D01*
X363904Y208681D01*
X363941Y208333D01*
X363970Y207984D01*
X363991Y207635D01*
X364004Y207286D01*
X364008Y206936D01*
X362526Y213357D02*
X362486Y213470D01*
X362442Y213580D01*
X362394Y213690D01*
X362343Y213797D01*
X362288Y213903D01*
X362230Y214008D01*
X362168Y214110D01*
X362103Y214210D01*
X362035Y214308D01*
X361964Y214404D01*
X361889Y214497D01*
X361812Y214588D01*
X361732Y214676D01*
X361649Y214761D01*
X361563Y214844D01*
X361474Y214924D01*
X361383Y215001D01*
X361289Y215075D01*
X361193Y215146D01*
X361095Y215214D01*
X360995Y215278D01*
X360892Y215340D01*
X360788Y215397D01*
X360682Y215452D01*
X360574Y215503D01*
X360464Y215550D01*
X360353Y215594D01*
X360241Y215634D01*
X360127Y215670D01*
X360013Y215703D01*
X359897Y215732D01*
X359780Y215757D01*
X359663Y215778D01*
X359545Y215796D01*
X359426Y215809D01*
X359307Y215819D01*
X359188Y215825D01*
X359069Y215827D01*
X358950Y215825D01*
X358831Y215819D01*
X358712Y215809D01*
X358593Y215796D01*
X358475Y215778D01*
X358358Y215757D01*
X358241Y215732D01*
X358125Y215703D01*
X358011Y215670D01*
X357897Y215634D01*
X357785Y215594D01*
X357674Y215550D01*
X357564Y215503D01*
X357456Y215452D01*
X357350Y215397D01*
X357246Y215340D01*
X357143Y215278D01*
X357043Y215214D01*
X356945Y215146D01*
X356849Y215075D01*
X356755Y215001D01*
X356664Y214924D01*
X356575Y214844D01*
X356490Y214761D01*
X356406Y214676D01*
X356326Y214588D01*
X356249Y214497D01*
X356174Y214404D01*
X356103Y214308D01*
X356035Y214210D01*
X355970Y214110D01*
X355908Y214008D01*
X355850Y213903D01*
X355795Y213798D01*
X355744Y213690D01*
X355696Y213580D01*
X355652Y213470D01*
X355612Y213357D01*
X355462Y213040D01*
X355320Y212721D01*
X355186Y212398D01*
X355059Y212072D01*
X354941Y211742D01*
X354830Y211411D01*
X354727Y211076D01*
X354632Y210740D01*
X354546Y210401D01*
X354467Y210060D01*
X354396Y209717D01*
X354334Y209373D01*
X354280Y209028D01*
X354234Y208681D01*
X354197Y208333D01*
X354168Y207984D01*
X354147Y207635D01*
X354134Y207286D01*
X354130Y206936D01*
X364008Y206936D02*
X364004Y206586D01*
X363991Y206237D01*
X363970Y205888D01*
X363941Y205539D01*
X363904Y205191D01*
X363858Y204844D01*
X363804Y204499D01*
X363742Y204155D01*
X363671Y203812D01*
X363592Y203471D01*
X363506Y203132D01*
X363411Y202796D01*
X363308Y202461D01*
X363197Y202130D01*
X363079Y201801D01*
X362952Y201474D01*
X362818Y201151D01*
X362676Y200832D01*
X362526Y200516D01*
X362486Y200403D01*
X362442Y200293D01*
X362394Y200183D01*
X362343Y200076D01*
X362288Y199970D01*
X362230Y199865D01*
X362168Y199763D01*
X362103Y199663D01*
X362035Y199565D01*
X361964Y199469D01*
X361889Y199376D01*
X361812Y199285D01*
X361732Y199197D01*
X361649Y199112D01*
X361563Y199029D01*
X361474Y198949D01*
X361383Y198872D01*
X361289Y198798D01*
X361193Y198727D01*
X361095Y198659D01*
X360995Y198595D01*
X360892Y198533D01*
X360788Y198476D01*
X360682Y198421D01*
X360574Y198370D01*
X360464Y198323D01*
X360353Y198279D01*
X360241Y198239D01*
X360127Y198203D01*
X360013Y198170D01*
X359897Y198141D01*
X359780Y198116D01*
X359663Y198095D01*
X359545Y198077D01*
X359426Y198064D01*
X359307Y198054D01*
X359188Y198048D01*
X359069Y198046D01*
X355612Y200516D02*
X355462Y200832D01*
X355320Y201151D01*
X355186Y201474D01*
X355059Y201801D01*
X354941Y202130D01*
X354830Y202461D01*
X354727Y202796D01*
X354632Y203132D01*
X354546Y203471D01*
X354467Y203812D01*
X354396Y204155D01*
X354334Y204499D01*
X354280Y204844D01*
X354234Y205191D01*
X354197Y205539D01*
X354168Y205888D01*
X354147Y206237D01*
X354134Y206586D01*
X354130Y206936D01*
X355612Y200516D02*
X355652Y200403D01*
X355696Y200293D01*
X355744Y200183D01*
X355795Y200075D01*
X355850Y199969D01*
X355908Y199865D01*
X355970Y199763D01*
X356035Y199663D01*
X356103Y199565D01*
X356174Y199469D01*
X356249Y199376D01*
X356326Y199285D01*
X356406Y199197D01*
X356490Y199112D01*
X356575Y199029D01*
X356664Y198949D01*
X356755Y198872D01*
X356849Y198798D01*
X356945Y198727D01*
X357043Y198659D01*
X357143Y198595D01*
X357246Y198533D01*
X357350Y198475D01*
X357456Y198421D01*
X357564Y198370D01*
X357674Y198323D01*
X357785Y198279D01*
X357897Y198239D01*
X358011Y198203D01*
X358125Y198170D01*
X358241Y198141D01*
X358358Y198116D01*
X358475Y198095D01*
X358593Y198077D01*
X358712Y198064D01*
X358831Y198054D01*
X358950Y198048D01*
X359069Y198046D01*
X363020Y201997D02*
X355118Y211875D01*
D11*
X161636Y351487D02*
X159688Y351487D01*
X159688Y344996D01*
X163583Y344996D01*
X163682Y344998D01*
X163782Y345004D01*
X163881Y345013D01*
X163979Y345026D01*
X164077Y345043D01*
X164175Y345064D01*
X164271Y345089D01*
X164366Y345117D01*
X164460Y345149D01*
X164553Y345184D01*
X164645Y345223D01*
X164735Y345266D01*
X164823Y345311D01*
X164910Y345361D01*
X164994Y345413D01*
X165077Y345469D01*
X165157Y345527D01*
X165235Y345589D01*
X165310Y345654D01*
X165383Y345722D01*
X165453Y345792D01*
X165521Y345865D01*
X165586Y345940D01*
X165648Y346018D01*
X165706Y346098D01*
X165762Y346181D01*
X165814Y346265D01*
X165864Y346352D01*
X165909Y346440D01*
X165952Y346530D01*
X165991Y346622D01*
X166026Y346715D01*
X166058Y346809D01*
X166086Y346904D01*
X166111Y347000D01*
X166132Y347098D01*
X166149Y347196D01*
X166162Y347294D01*
X166171Y347393D01*
X166177Y347493D01*
X166179Y347592D01*
X166180Y347592D02*
X166180Y354083D01*
X166179Y354083D02*
X166177Y354182D01*
X166171Y354282D01*
X166162Y354381D01*
X166149Y354479D01*
X166132Y354577D01*
X166111Y354675D01*
X166086Y354771D01*
X166058Y354866D01*
X166026Y354960D01*
X165991Y355053D01*
X165952Y355145D01*
X165909Y355235D01*
X165864Y355323D01*
X165814Y355410D01*
X165762Y355494D01*
X165706Y355577D01*
X165648Y355657D01*
X165586Y355735D01*
X165521Y355810D01*
X165453Y355883D01*
X165383Y355953D01*
X165310Y356021D01*
X165235Y356086D01*
X165157Y356148D01*
X165077Y356206D01*
X164994Y356262D01*
X164910Y356314D01*
X164823Y356364D01*
X164735Y356409D01*
X164645Y356452D01*
X164553Y356491D01*
X164460Y356526D01*
X164366Y356558D01*
X164271Y356586D01*
X164175Y356611D01*
X164077Y356632D01*
X163979Y356649D01*
X163881Y356662D01*
X163782Y356671D01*
X163682Y356677D01*
X163583Y356679D01*
X163583Y356680D02*
X159688Y356680D01*
X153988Y356680D02*
X153988Y344996D01*
X147496Y344996D02*
X153988Y356680D01*
X147496Y356680D02*
X147496Y344996D01*
X141796Y344996D02*
X141796Y356680D01*
X138550Y356680D01*
X138437Y356678D01*
X138324Y356672D01*
X138211Y356662D01*
X138098Y356648D01*
X137986Y356631D01*
X137875Y356609D01*
X137765Y356584D01*
X137655Y356554D01*
X137547Y356521D01*
X137440Y356484D01*
X137334Y356444D01*
X137230Y356399D01*
X137127Y356351D01*
X137026Y356300D01*
X136927Y356245D01*
X136830Y356187D01*
X136735Y356125D01*
X136642Y356060D01*
X136552Y355992D01*
X136464Y355921D01*
X136378Y355846D01*
X136295Y355769D01*
X136215Y355689D01*
X136138Y355606D01*
X136063Y355520D01*
X135992Y355432D01*
X135924Y355342D01*
X135859Y355249D01*
X135797Y355154D01*
X135739Y355057D01*
X135684Y354958D01*
X135633Y354857D01*
X135585Y354754D01*
X135540Y354650D01*
X135500Y354544D01*
X135463Y354437D01*
X135430Y354329D01*
X135400Y354219D01*
X135375Y354109D01*
X135353Y353998D01*
X135336Y353886D01*
X135322Y353773D01*
X135312Y353660D01*
X135306Y353547D01*
X135304Y353434D01*
X135304Y348241D01*
X135306Y348128D01*
X135312Y348015D01*
X135322Y347902D01*
X135336Y347789D01*
X135353Y347677D01*
X135375Y347566D01*
X135400Y347456D01*
X135430Y347346D01*
X135463Y347238D01*
X135500Y347131D01*
X135540Y347025D01*
X135585Y346921D01*
X135633Y346818D01*
X135684Y346717D01*
X135739Y346618D01*
X135797Y346521D01*
X135859Y346426D01*
X135924Y346333D01*
X135992Y346243D01*
X136063Y346155D01*
X136138Y346069D01*
X136215Y345986D01*
X136295Y345906D01*
X136378Y345829D01*
X136464Y345754D01*
X136552Y345683D01*
X136642Y345615D01*
X136735Y345550D01*
X136830Y345488D01*
X136927Y345430D01*
X137026Y345375D01*
X137127Y345324D01*
X137230Y345276D01*
X137334Y345231D01*
X137440Y345191D01*
X137547Y345154D01*
X137655Y345121D01*
X137765Y345091D01*
X137875Y345066D01*
X137986Y345044D01*
X138098Y345027D01*
X138211Y345013D01*
X138324Y345003D01*
X138437Y344997D01*
X138550Y344995D01*
X138550Y344996D02*
X141796Y344996D01*
X27400Y280378D02*
X25908Y279127D01*
X30080Y274154D01*
X33064Y276658D01*
X33139Y276724D01*
X33211Y276792D01*
X33281Y276863D01*
X33348Y276936D01*
X33412Y277012D01*
X33473Y277091D01*
X33531Y277172D01*
X33586Y277255D01*
X33638Y277339D01*
X33686Y277426D01*
X33731Y277515D01*
X33773Y277605D01*
X33811Y277697D01*
X33846Y277790D01*
X33877Y277885D01*
X33904Y277980D01*
X33928Y278077D01*
X33948Y278174D01*
X33964Y278273D01*
X33976Y278371D01*
X33985Y278470D01*
X33990Y278570D01*
X33991Y278669D01*
X33988Y278769D01*
X33982Y278868D01*
X33971Y278967D01*
X33957Y279065D01*
X33939Y279163D01*
X33918Y279260D01*
X33892Y279356D01*
X33863Y279451D01*
X33831Y279545D01*
X33794Y279638D01*
X33755Y279729D01*
X33712Y279819D01*
X33665Y279907D01*
X33615Y279993D01*
X33562Y280077D01*
X33506Y280159D01*
X33446Y280238D01*
X33384Y280316D01*
X29211Y285288D01*
X29146Y285363D01*
X29078Y285436D01*
X29007Y285505D01*
X28933Y285572D01*
X28857Y285637D01*
X28779Y285698D01*
X28698Y285756D01*
X28615Y285811D01*
X28530Y285863D01*
X28443Y285911D01*
X28354Y285956D01*
X28264Y285998D01*
X28172Y286036D01*
X28079Y286071D01*
X27984Y286102D01*
X27889Y286129D01*
X27792Y286153D01*
X27695Y286173D01*
X27597Y286189D01*
X27498Y286201D01*
X27399Y286210D01*
X27299Y286215D01*
X27200Y286216D01*
X27100Y286213D01*
X27001Y286207D01*
X26902Y286196D01*
X26804Y286182D01*
X26706Y286164D01*
X26609Y286143D01*
X26513Y286117D01*
X26417Y286088D01*
X26323Y286056D01*
X26231Y286019D01*
X26140Y285980D01*
X26050Y285936D01*
X25962Y285890D01*
X25876Y285840D01*
X25792Y285787D01*
X25710Y285730D01*
X25630Y285671D01*
X25553Y285608D01*
X22570Y283105D01*
X18203Y279440D02*
X25713Y270490D01*
X20741Y266317D02*
X18203Y279440D01*
X13230Y275268D02*
X20741Y266317D01*
X16374Y262653D02*
X8863Y271603D01*
X6377Y269517D01*
X6377Y269518D02*
X6291Y269443D01*
X6208Y269366D01*
X6128Y269286D01*
X6051Y269203D01*
X5976Y269118D01*
X5905Y269029D01*
X5837Y268939D01*
X5772Y268846D01*
X5710Y268751D01*
X5652Y268654D01*
X5597Y268555D01*
X5546Y268454D01*
X5498Y268351D01*
X5453Y268247D01*
X5413Y268141D01*
X5376Y268034D01*
X5343Y267926D01*
X5313Y267816D01*
X5288Y267706D01*
X5266Y267595D01*
X5249Y267483D01*
X5235Y267370D01*
X5225Y267257D01*
X5219Y267144D01*
X5217Y267031D01*
X5219Y266918D01*
X5225Y266805D01*
X5235Y266692D01*
X5249Y266579D01*
X5266Y266467D01*
X5288Y266356D01*
X5313Y266246D01*
X5343Y266136D01*
X5376Y266028D01*
X5413Y265921D01*
X5453Y265815D01*
X5498Y265711D01*
X5546Y265608D01*
X5597Y265507D01*
X5652Y265408D01*
X5710Y265311D01*
X5772Y265216D01*
X5837Y265123D01*
X5905Y265033D01*
X5976Y264945D01*
X5977Y264945D02*
X9315Y260967D01*
X9314Y260967D02*
X9389Y260881D01*
X9466Y260798D01*
X9546Y260718D01*
X9629Y260641D01*
X9715Y260566D01*
X9803Y260495D01*
X9893Y260427D01*
X9986Y260362D01*
X10081Y260300D01*
X10178Y260242D01*
X10277Y260187D01*
X10378Y260136D01*
X10481Y260088D01*
X10585Y260043D01*
X10691Y260003D01*
X10798Y259966D01*
X10906Y259933D01*
X11016Y259903D01*
X11126Y259878D01*
X11237Y259856D01*
X11349Y259839D01*
X11462Y259825D01*
X11575Y259815D01*
X11688Y259809D01*
X11801Y259807D01*
X11914Y259809D01*
X12027Y259815D01*
X12140Y259825D01*
X12253Y259839D01*
X12365Y259856D01*
X12476Y259878D01*
X12586Y259903D01*
X12696Y259933D01*
X12804Y259966D01*
X12911Y260003D01*
X13017Y260043D01*
X13121Y260088D01*
X13224Y260136D01*
X13325Y260187D01*
X13424Y260242D01*
X13521Y260300D01*
X13616Y260362D01*
X13709Y260427D01*
X13799Y260495D01*
X13888Y260566D01*
X13887Y260567D02*
X16374Y262653D01*
X31137Y120686D02*
X32111Y118999D01*
X31137Y120686D02*
X25515Y117440D01*
X27463Y114068D01*
X27514Y113983D01*
X27569Y113900D01*
X27626Y113819D01*
X27687Y113740D01*
X27751Y113664D01*
X27818Y113590D01*
X27887Y113519D01*
X27959Y113450D01*
X28034Y113384D01*
X28111Y113322D01*
X28190Y113262D01*
X28272Y113205D01*
X28356Y113152D01*
X28442Y113101D01*
X28529Y113054D01*
X28619Y113011D01*
X28710Y112971D01*
X28802Y112934D01*
X28896Y112901D01*
X28991Y112872D01*
X29087Y112846D01*
X29184Y112824D01*
X29282Y112806D01*
X29380Y112791D01*
X29479Y112780D01*
X29578Y112773D01*
X29678Y112770D01*
X29777Y112771D01*
X29877Y112775D01*
X29976Y112784D01*
X30075Y112796D01*
X30173Y112811D01*
X30270Y112831D01*
X30367Y112854D01*
X30463Y112881D01*
X30557Y112912D01*
X30651Y112946D01*
X30743Y112984D01*
X30833Y113025D01*
X30922Y113070D01*
X31009Y113118D01*
X31010Y113117D02*
X36631Y116363D01*
X36716Y116414D01*
X36799Y116469D01*
X36880Y116526D01*
X36959Y116587D01*
X37035Y116651D01*
X37109Y116718D01*
X37180Y116787D01*
X37249Y116859D01*
X37315Y116934D01*
X37377Y117011D01*
X37437Y117090D01*
X37494Y117172D01*
X37547Y117256D01*
X37598Y117342D01*
X37645Y117429D01*
X37688Y117519D01*
X37728Y117610D01*
X37765Y117702D01*
X37798Y117796D01*
X37827Y117891D01*
X37853Y117987D01*
X37875Y118084D01*
X37893Y118182D01*
X37908Y118280D01*
X37919Y118379D01*
X37926Y118478D01*
X37929Y118578D01*
X37928Y118677D01*
X37924Y118777D01*
X37915Y118876D01*
X37903Y118974D01*
X37888Y119073D01*
X37868Y119170D01*
X37845Y119267D01*
X37818Y119363D01*
X37787Y119457D01*
X37753Y119551D01*
X37715Y119643D01*
X37674Y119733D01*
X37629Y119822D01*
X37581Y119909D01*
X37581Y119910D02*
X35634Y123282D01*
X32784Y128219D02*
X22665Y122377D01*
X19419Y127999D02*
X32784Y128219D01*
X29538Y133841D02*
X19419Y127999D01*
X16569Y132936D02*
X26688Y138778D01*
X25065Y141589D01*
X25007Y141686D01*
X24945Y141781D01*
X24880Y141874D01*
X24812Y141964D01*
X24741Y142052D01*
X24666Y142138D01*
X24589Y142221D01*
X24509Y142301D01*
X24426Y142378D01*
X24340Y142453D01*
X24252Y142524D01*
X24162Y142592D01*
X24069Y142657D01*
X23974Y142719D01*
X23877Y142777D01*
X23778Y142832D01*
X23677Y142883D01*
X23574Y142931D01*
X23470Y142976D01*
X23364Y143016D01*
X23257Y143053D01*
X23149Y143086D01*
X23039Y143116D01*
X22929Y143141D01*
X22818Y143163D01*
X22706Y143180D01*
X22593Y143194D01*
X22480Y143204D01*
X22367Y143210D01*
X22254Y143212D01*
X22141Y143210D01*
X22028Y143204D01*
X21915Y143194D01*
X21802Y143180D01*
X21690Y143163D01*
X21579Y143141D01*
X21469Y143116D01*
X21359Y143086D01*
X21251Y143053D01*
X21144Y143016D01*
X21038Y142976D01*
X20934Y142931D01*
X20831Y142883D01*
X20730Y142832D01*
X20631Y142777D01*
X16134Y140180D01*
X16037Y140122D01*
X15942Y140060D01*
X15849Y139995D01*
X15759Y139927D01*
X15671Y139856D01*
X15585Y139781D01*
X15502Y139704D01*
X15422Y139624D01*
X15345Y139541D01*
X15270Y139455D01*
X15199Y139367D01*
X15131Y139277D01*
X15066Y139184D01*
X15004Y139089D01*
X14946Y138992D01*
X14891Y138893D01*
X14840Y138792D01*
X14792Y138689D01*
X14747Y138585D01*
X14707Y138479D01*
X14670Y138372D01*
X14637Y138264D01*
X14607Y138154D01*
X14582Y138044D01*
X14560Y137933D01*
X14543Y137821D01*
X14529Y137708D01*
X14519Y137595D01*
X14513Y137482D01*
X14511Y137369D01*
X14513Y137256D01*
X14519Y137143D01*
X14529Y137030D01*
X14543Y136917D01*
X14560Y136805D01*
X14582Y136694D01*
X14607Y136584D01*
X14637Y136474D01*
X14670Y136366D01*
X14707Y136259D01*
X14747Y136153D01*
X14792Y136049D01*
X14840Y135946D01*
X14891Y135845D01*
X14946Y135746D01*
X14946Y135747D02*
X16569Y132936D01*
X155067Y57005D02*
X157014Y57005D01*
X155067Y57005D02*
X155067Y50514D01*
X158962Y50514D01*
X158962Y50515D02*
X159061Y50517D01*
X159161Y50523D01*
X159260Y50532D01*
X159358Y50545D01*
X159456Y50562D01*
X159554Y50583D01*
X159650Y50608D01*
X159745Y50636D01*
X159839Y50668D01*
X159932Y50703D01*
X160024Y50742D01*
X160114Y50785D01*
X160202Y50830D01*
X160289Y50880D01*
X160373Y50932D01*
X160456Y50988D01*
X160536Y51046D01*
X160614Y51108D01*
X160689Y51173D01*
X160762Y51241D01*
X160832Y51311D01*
X160900Y51384D01*
X160965Y51459D01*
X161027Y51537D01*
X161085Y51617D01*
X161141Y51700D01*
X161193Y51784D01*
X161243Y51871D01*
X161288Y51959D01*
X161331Y52049D01*
X161370Y52141D01*
X161405Y52234D01*
X161437Y52328D01*
X161465Y52423D01*
X161490Y52519D01*
X161511Y52617D01*
X161528Y52715D01*
X161541Y52813D01*
X161550Y52912D01*
X161556Y53012D01*
X161558Y53111D01*
X161558Y59602D01*
X161556Y59701D01*
X161550Y59801D01*
X161541Y59900D01*
X161528Y59998D01*
X161511Y60096D01*
X161490Y60194D01*
X161465Y60290D01*
X161437Y60385D01*
X161405Y60479D01*
X161370Y60572D01*
X161331Y60664D01*
X161288Y60754D01*
X161243Y60842D01*
X161193Y60929D01*
X161141Y61013D01*
X161085Y61096D01*
X161027Y61176D01*
X160965Y61254D01*
X160900Y61329D01*
X160832Y61402D01*
X160762Y61472D01*
X160689Y61540D01*
X160614Y61605D01*
X160536Y61667D01*
X160456Y61725D01*
X160373Y61781D01*
X160289Y61833D01*
X160202Y61883D01*
X160114Y61928D01*
X160024Y61971D01*
X159932Y62010D01*
X159839Y62045D01*
X159745Y62077D01*
X159650Y62105D01*
X159554Y62130D01*
X159456Y62151D01*
X159358Y62168D01*
X159260Y62181D01*
X159161Y62190D01*
X159061Y62196D01*
X158962Y62198D01*
X155067Y62198D01*
X149366Y62198D02*
X149366Y50514D01*
X142875Y50514D02*
X149366Y62198D01*
X142875Y62198D02*
X142875Y50514D01*
X137174Y50514D02*
X137174Y62198D01*
X133929Y62198D01*
X133929Y62199D02*
X133816Y62197D01*
X133703Y62191D01*
X133590Y62181D01*
X133477Y62167D01*
X133365Y62150D01*
X133254Y62128D01*
X133144Y62103D01*
X133034Y62073D01*
X132926Y62040D01*
X132819Y62003D01*
X132713Y61963D01*
X132609Y61918D01*
X132506Y61870D01*
X132405Y61819D01*
X132306Y61764D01*
X132209Y61706D01*
X132114Y61644D01*
X132021Y61579D01*
X131931Y61511D01*
X131843Y61440D01*
X131757Y61365D01*
X131674Y61288D01*
X131594Y61208D01*
X131517Y61125D01*
X131442Y61039D01*
X131371Y60951D01*
X131303Y60861D01*
X131238Y60768D01*
X131176Y60673D01*
X131118Y60576D01*
X131063Y60477D01*
X131012Y60376D01*
X130964Y60273D01*
X130919Y60169D01*
X130879Y60063D01*
X130842Y59956D01*
X130809Y59848D01*
X130779Y59738D01*
X130754Y59628D01*
X130732Y59517D01*
X130715Y59405D01*
X130701Y59292D01*
X130691Y59179D01*
X130685Y59066D01*
X130683Y58953D01*
X130683Y53760D01*
X130685Y53647D01*
X130691Y53534D01*
X130701Y53421D01*
X130715Y53308D01*
X130732Y53196D01*
X130754Y53085D01*
X130779Y52975D01*
X130809Y52865D01*
X130842Y52757D01*
X130879Y52650D01*
X130919Y52544D01*
X130964Y52440D01*
X131012Y52337D01*
X131063Y52236D01*
X131118Y52137D01*
X131176Y52040D01*
X131238Y51945D01*
X131303Y51852D01*
X131371Y51762D01*
X131442Y51674D01*
X131517Y51588D01*
X131594Y51505D01*
X131674Y51425D01*
X131757Y51348D01*
X131843Y51273D01*
X131931Y51202D01*
X132021Y51134D01*
X132114Y51069D01*
X132209Y51007D01*
X132306Y50949D01*
X132405Y50894D01*
X132506Y50843D01*
X132609Y50795D01*
X132713Y50750D01*
X132819Y50710D01*
X132926Y50673D01*
X133034Y50640D01*
X133144Y50610D01*
X133254Y50585D01*
X133365Y50563D01*
X133477Y50546D01*
X133590Y50532D01*
X133703Y50522D01*
X133816Y50516D01*
X133929Y50514D01*
X137174Y50514D01*
X302704Y144318D02*
X304652Y144318D01*
X302704Y144318D02*
X302704Y137827D01*
X306599Y137827D01*
X306698Y137829D01*
X306798Y137835D01*
X306897Y137844D01*
X306995Y137857D01*
X307093Y137874D01*
X307191Y137895D01*
X307287Y137920D01*
X307382Y137948D01*
X307476Y137980D01*
X307569Y138015D01*
X307661Y138054D01*
X307751Y138097D01*
X307839Y138142D01*
X307926Y138192D01*
X308010Y138244D01*
X308093Y138300D01*
X308173Y138358D01*
X308251Y138420D01*
X308326Y138485D01*
X308399Y138553D01*
X308469Y138623D01*
X308537Y138696D01*
X308602Y138771D01*
X308664Y138849D01*
X308722Y138929D01*
X308778Y139012D01*
X308830Y139096D01*
X308880Y139183D01*
X308925Y139271D01*
X308968Y139361D01*
X309007Y139453D01*
X309042Y139546D01*
X309074Y139640D01*
X309102Y139735D01*
X309127Y139831D01*
X309148Y139929D01*
X309165Y140027D01*
X309178Y140125D01*
X309187Y140224D01*
X309193Y140324D01*
X309195Y140423D01*
X309196Y140423D02*
X309196Y146914D01*
X309195Y146914D02*
X309193Y147013D01*
X309187Y147113D01*
X309178Y147212D01*
X309165Y147310D01*
X309148Y147408D01*
X309127Y147506D01*
X309102Y147602D01*
X309074Y147697D01*
X309042Y147791D01*
X309007Y147884D01*
X308968Y147976D01*
X308925Y148066D01*
X308880Y148154D01*
X308830Y148241D01*
X308778Y148325D01*
X308722Y148408D01*
X308664Y148488D01*
X308602Y148566D01*
X308537Y148641D01*
X308469Y148714D01*
X308399Y148784D01*
X308326Y148852D01*
X308251Y148917D01*
X308173Y148979D01*
X308093Y149037D01*
X308010Y149093D01*
X307926Y149145D01*
X307839Y149195D01*
X307751Y149240D01*
X307661Y149283D01*
X307569Y149322D01*
X307476Y149357D01*
X307382Y149389D01*
X307287Y149417D01*
X307191Y149442D01*
X307093Y149463D01*
X306995Y149480D01*
X306897Y149493D01*
X306798Y149502D01*
X306698Y149508D01*
X306599Y149510D01*
X306599Y149511D02*
X302704Y149511D01*
X297004Y149511D02*
X297004Y137827D01*
X290512Y137827D02*
X297004Y149511D01*
X290512Y149511D02*
X290512Y137827D01*
X284812Y137827D02*
X284812Y149511D01*
X281566Y149511D01*
X281453Y149509D01*
X281340Y149503D01*
X281227Y149493D01*
X281114Y149479D01*
X281002Y149462D01*
X280891Y149440D01*
X280781Y149415D01*
X280671Y149385D01*
X280563Y149352D01*
X280456Y149315D01*
X280350Y149275D01*
X280246Y149230D01*
X280143Y149182D01*
X280042Y149131D01*
X279943Y149076D01*
X279846Y149018D01*
X279751Y148956D01*
X279658Y148891D01*
X279568Y148823D01*
X279480Y148752D01*
X279394Y148677D01*
X279311Y148600D01*
X279231Y148520D01*
X279154Y148437D01*
X279079Y148351D01*
X279008Y148263D01*
X278940Y148173D01*
X278875Y148080D01*
X278813Y147985D01*
X278755Y147888D01*
X278700Y147789D01*
X278649Y147688D01*
X278601Y147585D01*
X278556Y147481D01*
X278516Y147375D01*
X278479Y147268D01*
X278446Y147160D01*
X278416Y147050D01*
X278391Y146940D01*
X278369Y146829D01*
X278352Y146717D01*
X278338Y146604D01*
X278328Y146491D01*
X278322Y146378D01*
X278320Y146265D01*
X278321Y146265D02*
X278321Y141072D01*
X278320Y141072D02*
X278322Y140959D01*
X278328Y140846D01*
X278338Y140733D01*
X278352Y140620D01*
X278369Y140508D01*
X278391Y140397D01*
X278416Y140287D01*
X278446Y140177D01*
X278479Y140069D01*
X278516Y139962D01*
X278556Y139856D01*
X278601Y139752D01*
X278649Y139649D01*
X278700Y139548D01*
X278755Y139449D01*
X278813Y139352D01*
X278875Y139257D01*
X278940Y139164D01*
X279008Y139074D01*
X279079Y138986D01*
X279154Y138900D01*
X279231Y138817D01*
X279311Y138737D01*
X279394Y138660D01*
X279480Y138585D01*
X279568Y138514D01*
X279658Y138446D01*
X279751Y138381D01*
X279846Y138319D01*
X279943Y138261D01*
X280042Y138206D01*
X280143Y138155D01*
X280246Y138107D01*
X280350Y138062D01*
X280456Y138022D01*
X280563Y137985D01*
X280671Y137952D01*
X280781Y137922D01*
X280891Y137897D01*
X281002Y137875D01*
X281114Y137858D01*
X281227Y137844D01*
X281340Y137834D01*
X281453Y137828D01*
X281566Y137826D01*
X281566Y137827D02*
X284812Y137827D01*
X454311Y57005D02*
X456258Y57005D01*
X454311Y57005D02*
X454311Y50514D01*
X458205Y50514D01*
X458205Y50515D02*
X458304Y50517D01*
X458404Y50523D01*
X458503Y50532D01*
X458601Y50545D01*
X458699Y50562D01*
X458797Y50583D01*
X458893Y50608D01*
X458988Y50636D01*
X459082Y50668D01*
X459175Y50703D01*
X459267Y50742D01*
X459357Y50785D01*
X459445Y50830D01*
X459532Y50880D01*
X459616Y50932D01*
X459699Y50988D01*
X459779Y51046D01*
X459857Y51108D01*
X459932Y51173D01*
X460005Y51241D01*
X460075Y51311D01*
X460143Y51384D01*
X460208Y51459D01*
X460270Y51537D01*
X460328Y51617D01*
X460384Y51700D01*
X460436Y51784D01*
X460486Y51871D01*
X460531Y51959D01*
X460574Y52049D01*
X460613Y52141D01*
X460648Y52234D01*
X460680Y52328D01*
X460708Y52423D01*
X460733Y52519D01*
X460754Y52617D01*
X460771Y52715D01*
X460784Y52813D01*
X460793Y52912D01*
X460799Y53012D01*
X460801Y53111D01*
X460802Y53111D02*
X460802Y59602D01*
X460801Y59602D02*
X460799Y59701D01*
X460793Y59801D01*
X460784Y59900D01*
X460771Y59998D01*
X460754Y60096D01*
X460733Y60194D01*
X460708Y60290D01*
X460680Y60385D01*
X460648Y60479D01*
X460613Y60572D01*
X460574Y60664D01*
X460531Y60754D01*
X460486Y60842D01*
X460436Y60929D01*
X460384Y61013D01*
X460328Y61096D01*
X460270Y61176D01*
X460208Y61254D01*
X460143Y61329D01*
X460075Y61402D01*
X460005Y61472D01*
X459932Y61540D01*
X459857Y61605D01*
X459779Y61667D01*
X459699Y61725D01*
X459616Y61781D01*
X459532Y61833D01*
X459445Y61883D01*
X459357Y61928D01*
X459267Y61971D01*
X459175Y62010D01*
X459082Y62045D01*
X458988Y62077D01*
X458893Y62105D01*
X458797Y62130D01*
X458699Y62151D01*
X458601Y62168D01*
X458503Y62181D01*
X458404Y62190D01*
X458304Y62196D01*
X458205Y62198D01*
X454311Y62198D01*
X448610Y62198D02*
X448610Y50514D01*
X442119Y50514D02*
X448610Y62198D01*
X442119Y62198D02*
X442119Y50514D01*
X436418Y50514D02*
X436418Y62198D01*
X433172Y62198D01*
X433172Y62199D02*
X433059Y62197D01*
X432946Y62191D01*
X432833Y62181D01*
X432720Y62167D01*
X432608Y62150D01*
X432497Y62128D01*
X432387Y62103D01*
X432277Y62073D01*
X432169Y62040D01*
X432062Y62003D01*
X431956Y61963D01*
X431852Y61918D01*
X431749Y61870D01*
X431648Y61819D01*
X431549Y61764D01*
X431452Y61706D01*
X431357Y61644D01*
X431264Y61579D01*
X431174Y61511D01*
X431086Y61440D01*
X431000Y61365D01*
X430917Y61288D01*
X430837Y61208D01*
X430760Y61125D01*
X430685Y61039D01*
X430614Y60951D01*
X430546Y60861D01*
X430481Y60768D01*
X430419Y60673D01*
X430361Y60576D01*
X430306Y60477D01*
X430255Y60376D01*
X430207Y60273D01*
X430162Y60169D01*
X430122Y60063D01*
X430085Y59956D01*
X430052Y59848D01*
X430022Y59738D01*
X429997Y59628D01*
X429975Y59517D01*
X429958Y59405D01*
X429944Y59292D01*
X429934Y59179D01*
X429928Y59066D01*
X429926Y58953D01*
X429927Y58953D02*
X429927Y53760D01*
X429926Y53760D02*
X429928Y53647D01*
X429934Y53534D01*
X429944Y53421D01*
X429958Y53308D01*
X429975Y53196D01*
X429997Y53085D01*
X430022Y52975D01*
X430052Y52865D01*
X430085Y52757D01*
X430122Y52650D01*
X430162Y52544D01*
X430207Y52440D01*
X430255Y52337D01*
X430306Y52236D01*
X430361Y52137D01*
X430419Y52040D01*
X430481Y51945D01*
X430546Y51852D01*
X430614Y51762D01*
X430685Y51674D01*
X430760Y51588D01*
X430837Y51505D01*
X430917Y51425D01*
X431000Y51348D01*
X431086Y51273D01*
X431174Y51202D01*
X431264Y51134D01*
X431357Y51069D01*
X431452Y51007D01*
X431549Y50949D01*
X431648Y50894D01*
X431749Y50843D01*
X431852Y50795D01*
X431956Y50750D01*
X432062Y50710D01*
X432169Y50673D01*
X432277Y50640D01*
X432387Y50610D01*
X432497Y50585D01*
X432608Y50563D01*
X432720Y50546D01*
X432833Y50532D01*
X432946Y50522D01*
X433059Y50516D01*
X433172Y50514D01*
X436418Y50514D01*
X585414Y143669D02*
X586791Y145046D01*
X585414Y143669D02*
X590004Y139079D01*
X592758Y141833D01*
X592827Y141905D01*
X592893Y141979D01*
X592956Y142056D01*
X593016Y142135D01*
X593074Y142216D01*
X593128Y142300D01*
X593178Y142385D01*
X593226Y142473D01*
X593270Y142562D01*
X593311Y142653D01*
X593348Y142745D01*
X593382Y142838D01*
X593412Y142933D01*
X593438Y143029D01*
X593461Y143126D01*
X593480Y143224D01*
X593495Y143322D01*
X593506Y143421D01*
X593514Y143520D01*
X593518Y143619D01*
X593518Y143719D01*
X593514Y143818D01*
X593506Y143917D01*
X593495Y144016D01*
X593480Y144114D01*
X593461Y144212D01*
X593438Y144309D01*
X593412Y144405D01*
X593382Y144500D01*
X593348Y144593D01*
X593311Y144685D01*
X593270Y144776D01*
X593226Y144865D01*
X593178Y144953D01*
X593128Y145038D01*
X593074Y145122D01*
X593016Y145203D01*
X592956Y145282D01*
X592893Y145359D01*
X592827Y145433D01*
X592758Y145505D01*
X588168Y150095D01*
X588097Y150164D01*
X588022Y150231D01*
X587946Y150294D01*
X587867Y150354D01*
X587785Y150411D01*
X587702Y150465D01*
X587616Y150516D01*
X587529Y150564D01*
X587440Y150608D01*
X587349Y150649D01*
X587257Y150686D01*
X587163Y150720D01*
X587068Y150750D01*
X586972Y150776D01*
X586875Y150799D01*
X586778Y150817D01*
X586679Y150833D01*
X586580Y150844D01*
X586481Y150852D01*
X586382Y150856D01*
X586282Y150856D01*
X586183Y150852D01*
X586084Y150844D01*
X585985Y150833D01*
X585887Y150818D01*
X585789Y150799D01*
X585692Y150776D01*
X585596Y150750D01*
X585501Y150720D01*
X585408Y150686D01*
X585315Y150649D01*
X585224Y150608D01*
X585135Y150564D01*
X585048Y150516D01*
X584962Y150466D01*
X584879Y150411D01*
X584798Y150354D01*
X584718Y150294D01*
X584642Y150231D01*
X584567Y150164D01*
X584496Y150095D01*
X581742Y147341D01*
X577711Y143309D02*
X585973Y135048D01*
X581383Y130458D02*
X577711Y143309D01*
X573121Y138720D02*
X581383Y130458D01*
X577352Y126427D02*
X569090Y134688D01*
X566795Y132393D01*
X566795Y132394D02*
X566716Y132313D01*
X566640Y132229D01*
X566567Y132142D01*
X566498Y132052D01*
X566431Y131961D01*
X566368Y131867D01*
X566308Y131771D01*
X566251Y131673D01*
X566198Y131573D01*
X566148Y131471D01*
X566102Y131367D01*
X566060Y131262D01*
X566021Y131156D01*
X565986Y131048D01*
X565955Y130939D01*
X565927Y130829D01*
X565904Y130718D01*
X565884Y130607D01*
X565868Y130495D01*
X565856Y130382D01*
X565848Y130269D01*
X565844Y130156D01*
X565844Y130042D01*
X565848Y129929D01*
X565856Y129816D01*
X565868Y129703D01*
X565884Y129591D01*
X565904Y129480D01*
X565927Y129369D01*
X565955Y129259D01*
X565986Y129150D01*
X566021Y129042D01*
X566060Y128936D01*
X566102Y128831D01*
X566148Y128727D01*
X566198Y128625D01*
X566251Y128525D01*
X566308Y128427D01*
X566368Y128331D01*
X566431Y128237D01*
X566498Y128146D01*
X566567Y128056D01*
X566640Y127969D01*
X566716Y127885D01*
X566795Y127804D01*
X570467Y124132D01*
X570548Y124053D01*
X570632Y123977D01*
X570719Y123904D01*
X570809Y123835D01*
X570900Y123768D01*
X570994Y123705D01*
X571090Y123645D01*
X571188Y123588D01*
X571288Y123535D01*
X571390Y123485D01*
X571494Y123439D01*
X571599Y123397D01*
X571705Y123358D01*
X571813Y123323D01*
X571922Y123292D01*
X572032Y123264D01*
X572143Y123241D01*
X572254Y123221D01*
X572366Y123205D01*
X572479Y123193D01*
X572592Y123185D01*
X572705Y123181D01*
X572819Y123181D01*
X572932Y123185D01*
X573045Y123193D01*
X573158Y123205D01*
X573270Y123221D01*
X573381Y123241D01*
X573492Y123264D01*
X573602Y123292D01*
X573711Y123323D01*
X573819Y123358D01*
X573925Y123397D01*
X574030Y123439D01*
X574134Y123485D01*
X574236Y123535D01*
X574336Y123588D01*
X574434Y123645D01*
X574530Y123705D01*
X574624Y123768D01*
X574716Y123835D01*
X574805Y123904D01*
X574892Y123977D01*
X574976Y124053D01*
X575057Y124132D01*
X577352Y126427D01*
X583272Y268297D02*
X581895Y269674D01*
X577305Y265084D01*
X580059Y262330D01*
X580131Y262261D01*
X580205Y262195D01*
X580282Y262132D01*
X580361Y262072D01*
X580442Y262014D01*
X580526Y261960D01*
X580611Y261910D01*
X580699Y261862D01*
X580788Y261818D01*
X580879Y261777D01*
X580971Y261740D01*
X581064Y261706D01*
X581159Y261676D01*
X581255Y261650D01*
X581352Y261627D01*
X581450Y261608D01*
X581548Y261593D01*
X581647Y261582D01*
X581746Y261574D01*
X581845Y261570D01*
X581945Y261570D01*
X582044Y261574D01*
X582143Y261582D01*
X582242Y261593D01*
X582340Y261608D01*
X582438Y261627D01*
X582535Y261650D01*
X582631Y261676D01*
X582726Y261706D01*
X582819Y261740D01*
X582911Y261777D01*
X583002Y261818D01*
X583091Y261862D01*
X583179Y261910D01*
X583264Y261960D01*
X583348Y262014D01*
X583429Y262072D01*
X583508Y262132D01*
X583585Y262195D01*
X583659Y262261D01*
X583731Y262330D01*
X588321Y266920D01*
X588390Y266991D01*
X588457Y267066D01*
X588520Y267142D01*
X588580Y267221D01*
X588637Y267303D01*
X588691Y267386D01*
X588742Y267472D01*
X588790Y267559D01*
X588834Y267648D01*
X588875Y267739D01*
X588912Y267831D01*
X588946Y267925D01*
X588976Y268020D01*
X589002Y268116D01*
X589025Y268213D01*
X589043Y268310D01*
X589059Y268409D01*
X589070Y268508D01*
X589078Y268607D01*
X589082Y268706D01*
X589082Y268806D01*
X589078Y268905D01*
X589070Y269004D01*
X589059Y269103D01*
X589044Y269201D01*
X589025Y269299D01*
X589002Y269396D01*
X588976Y269492D01*
X588946Y269587D01*
X588912Y269680D01*
X588875Y269773D01*
X588834Y269864D01*
X588790Y269953D01*
X588742Y270040D01*
X588692Y270126D01*
X588637Y270209D01*
X588580Y270290D01*
X588520Y270370D01*
X588457Y270446D01*
X588390Y270521D01*
X588321Y270592D01*
X585567Y273346D01*
X581536Y277377D02*
X573274Y269115D01*
X568684Y273705D02*
X581536Y277377D01*
X576946Y281967D02*
X568684Y273705D01*
X564653Y277736D02*
X572915Y285998D01*
X570620Y288293D01*
X570539Y288372D01*
X570455Y288448D01*
X570368Y288521D01*
X570278Y288590D01*
X570187Y288657D01*
X570093Y288720D01*
X569997Y288780D01*
X569899Y288837D01*
X569799Y288890D01*
X569697Y288940D01*
X569593Y288986D01*
X569488Y289028D01*
X569382Y289067D01*
X569274Y289102D01*
X569165Y289133D01*
X569055Y289161D01*
X568944Y289184D01*
X568833Y289204D01*
X568721Y289220D01*
X568608Y289232D01*
X568495Y289240D01*
X568382Y289244D01*
X568268Y289244D01*
X568155Y289240D01*
X568042Y289232D01*
X567929Y289220D01*
X567817Y289204D01*
X567706Y289184D01*
X567595Y289161D01*
X567485Y289133D01*
X567376Y289102D01*
X567268Y289067D01*
X567162Y289028D01*
X567057Y288986D01*
X566953Y288940D01*
X566851Y288890D01*
X566751Y288837D01*
X566653Y288780D01*
X566557Y288720D01*
X566463Y288657D01*
X566372Y288590D01*
X566282Y288521D01*
X566195Y288448D01*
X566111Y288372D01*
X566030Y288293D01*
X562358Y284621D01*
X562279Y284540D01*
X562203Y284456D01*
X562130Y284369D01*
X562061Y284279D01*
X561994Y284188D01*
X561931Y284094D01*
X561871Y283998D01*
X561814Y283900D01*
X561761Y283800D01*
X561711Y283698D01*
X561665Y283594D01*
X561623Y283489D01*
X561584Y283383D01*
X561549Y283275D01*
X561518Y283166D01*
X561490Y283056D01*
X561467Y282945D01*
X561447Y282834D01*
X561431Y282722D01*
X561419Y282609D01*
X561411Y282496D01*
X561407Y282383D01*
X561407Y282269D01*
X561411Y282156D01*
X561419Y282043D01*
X561431Y281930D01*
X561447Y281818D01*
X561467Y281707D01*
X561490Y281596D01*
X561518Y281486D01*
X561549Y281377D01*
X561584Y281269D01*
X561623Y281163D01*
X561665Y281058D01*
X561711Y280954D01*
X561761Y280852D01*
X561814Y280752D01*
X561871Y280654D01*
X561931Y280558D01*
X561994Y280464D01*
X562061Y280373D01*
X562130Y280283D01*
X562203Y280196D01*
X562279Y280112D01*
X562358Y280031D01*
X564653Y277736D01*
X463261Y349899D02*
X461313Y349899D01*
X461313Y343408D01*
X465208Y343408D01*
X465307Y343410D01*
X465407Y343416D01*
X465506Y343425D01*
X465604Y343438D01*
X465702Y343455D01*
X465800Y343476D01*
X465896Y343501D01*
X465991Y343529D01*
X466085Y343561D01*
X466178Y343596D01*
X466270Y343635D01*
X466360Y343678D01*
X466448Y343723D01*
X466535Y343773D01*
X466619Y343825D01*
X466702Y343881D01*
X466782Y343939D01*
X466860Y344001D01*
X466935Y344066D01*
X467008Y344134D01*
X467078Y344204D01*
X467146Y344277D01*
X467211Y344352D01*
X467273Y344430D01*
X467331Y344510D01*
X467387Y344593D01*
X467439Y344677D01*
X467489Y344764D01*
X467534Y344852D01*
X467577Y344942D01*
X467616Y345034D01*
X467651Y345127D01*
X467683Y345221D01*
X467711Y345316D01*
X467736Y345412D01*
X467757Y345510D01*
X467774Y345608D01*
X467787Y345706D01*
X467796Y345805D01*
X467802Y345905D01*
X467804Y346004D01*
X467805Y346004D02*
X467805Y352496D01*
X467804Y352496D02*
X467802Y352595D01*
X467796Y352695D01*
X467787Y352794D01*
X467774Y352892D01*
X467757Y352990D01*
X467736Y353088D01*
X467711Y353184D01*
X467683Y353279D01*
X467651Y353373D01*
X467616Y353466D01*
X467577Y353558D01*
X467534Y353648D01*
X467489Y353736D01*
X467439Y353823D01*
X467387Y353907D01*
X467331Y353990D01*
X467273Y354070D01*
X467211Y354148D01*
X467146Y354223D01*
X467078Y354296D01*
X467008Y354366D01*
X466935Y354434D01*
X466860Y354499D01*
X466782Y354561D01*
X466702Y354619D01*
X466619Y354675D01*
X466535Y354727D01*
X466448Y354777D01*
X466360Y354822D01*
X466270Y354865D01*
X466178Y354904D01*
X466085Y354939D01*
X465991Y354971D01*
X465896Y354999D01*
X465800Y355024D01*
X465702Y355045D01*
X465604Y355062D01*
X465506Y355075D01*
X465407Y355084D01*
X465307Y355090D01*
X465208Y355092D01*
X461313Y355092D01*
X455613Y355092D02*
X455613Y343408D01*
X449121Y343408D02*
X455613Y355092D01*
X449121Y355092D02*
X449121Y343408D01*
X443421Y343408D02*
X443421Y355092D01*
X440175Y355092D01*
X440062Y355090D01*
X439949Y355084D01*
X439836Y355074D01*
X439723Y355060D01*
X439611Y355043D01*
X439500Y355021D01*
X439390Y354996D01*
X439280Y354966D01*
X439172Y354933D01*
X439065Y354896D01*
X438959Y354856D01*
X438855Y354811D01*
X438752Y354763D01*
X438651Y354712D01*
X438552Y354657D01*
X438455Y354599D01*
X438360Y354537D01*
X438267Y354472D01*
X438177Y354404D01*
X438089Y354333D01*
X438003Y354258D01*
X437920Y354181D01*
X437840Y354101D01*
X437763Y354018D01*
X437688Y353932D01*
X437617Y353844D01*
X437549Y353754D01*
X437484Y353661D01*
X437422Y353566D01*
X437364Y353469D01*
X437309Y353370D01*
X437258Y353269D01*
X437210Y353166D01*
X437165Y353062D01*
X437125Y352956D01*
X437088Y352849D01*
X437055Y352741D01*
X437025Y352631D01*
X437000Y352521D01*
X436978Y352410D01*
X436961Y352298D01*
X436947Y352185D01*
X436937Y352072D01*
X436931Y351959D01*
X436929Y351846D01*
X436929Y346654D01*
X436931Y346541D01*
X436937Y346428D01*
X436947Y346315D01*
X436961Y346202D01*
X436978Y346090D01*
X437000Y345979D01*
X437025Y345869D01*
X437055Y345759D01*
X437088Y345651D01*
X437125Y345544D01*
X437165Y345438D01*
X437210Y345334D01*
X437258Y345231D01*
X437309Y345130D01*
X437364Y345031D01*
X437422Y344934D01*
X437484Y344839D01*
X437549Y344746D01*
X437617Y344656D01*
X437688Y344568D01*
X437763Y344482D01*
X437840Y344399D01*
X437920Y344319D01*
X438003Y344242D01*
X438089Y344167D01*
X438177Y344096D01*
X438267Y344028D01*
X438360Y343963D01*
X438455Y343901D01*
X438552Y343843D01*
X438651Y343788D01*
X438752Y343737D01*
X438855Y343689D01*
X438959Y343644D01*
X439065Y343604D01*
X439172Y343567D01*
X439280Y343534D01*
X439390Y343504D01*
X439500Y343479D01*
X439611Y343457D01*
X439723Y343440D01*
X439836Y343426D01*
X439949Y343416D01*
X440062Y343410D01*
X440175Y343408D01*
X443421Y343408D01*
X312448Y264174D02*
X310501Y264174D01*
X310501Y257683D01*
X314396Y257683D01*
X314495Y257685D01*
X314595Y257691D01*
X314694Y257700D01*
X314792Y257713D01*
X314890Y257730D01*
X314988Y257751D01*
X315084Y257776D01*
X315179Y257804D01*
X315273Y257836D01*
X315366Y257871D01*
X315458Y257910D01*
X315548Y257953D01*
X315636Y257998D01*
X315723Y258048D01*
X315807Y258100D01*
X315890Y258156D01*
X315970Y258214D01*
X316048Y258276D01*
X316123Y258341D01*
X316196Y258409D01*
X316266Y258479D01*
X316334Y258552D01*
X316399Y258627D01*
X316461Y258705D01*
X316519Y258785D01*
X316575Y258868D01*
X316627Y258952D01*
X316677Y259039D01*
X316722Y259127D01*
X316765Y259217D01*
X316804Y259309D01*
X316839Y259402D01*
X316871Y259496D01*
X316899Y259591D01*
X316924Y259687D01*
X316945Y259785D01*
X316962Y259883D01*
X316975Y259981D01*
X316984Y260080D01*
X316990Y260180D01*
X316992Y260279D01*
X316992Y266771D01*
X316990Y266870D01*
X316984Y266970D01*
X316975Y267069D01*
X316962Y267167D01*
X316945Y267265D01*
X316924Y267363D01*
X316899Y267459D01*
X316871Y267554D01*
X316839Y267648D01*
X316804Y267741D01*
X316765Y267833D01*
X316722Y267923D01*
X316677Y268011D01*
X316627Y268098D01*
X316575Y268182D01*
X316519Y268265D01*
X316461Y268345D01*
X316399Y268423D01*
X316334Y268498D01*
X316266Y268571D01*
X316196Y268641D01*
X316123Y268709D01*
X316048Y268774D01*
X315970Y268836D01*
X315890Y268894D01*
X315807Y268950D01*
X315723Y269002D01*
X315636Y269052D01*
X315548Y269097D01*
X315458Y269140D01*
X315366Y269179D01*
X315273Y269214D01*
X315179Y269246D01*
X315084Y269274D01*
X314988Y269299D01*
X314890Y269320D01*
X314792Y269337D01*
X314694Y269350D01*
X314595Y269359D01*
X314495Y269365D01*
X314396Y269367D01*
X310501Y269367D01*
X304800Y269367D02*
X304800Y257683D01*
X298309Y257683D02*
X304800Y269367D01*
X298309Y269367D02*
X298309Y257683D01*
X292608Y257683D02*
X292608Y269367D01*
X289363Y269367D01*
X289250Y269365D01*
X289137Y269359D01*
X289024Y269349D01*
X288911Y269335D01*
X288799Y269318D01*
X288688Y269296D01*
X288578Y269271D01*
X288468Y269241D01*
X288360Y269208D01*
X288253Y269171D01*
X288147Y269131D01*
X288043Y269086D01*
X287940Y269038D01*
X287839Y268987D01*
X287740Y268932D01*
X287643Y268874D01*
X287548Y268812D01*
X287455Y268747D01*
X287365Y268679D01*
X287277Y268608D01*
X287191Y268533D01*
X287108Y268456D01*
X287028Y268376D01*
X286951Y268293D01*
X286876Y268207D01*
X286805Y268119D01*
X286737Y268029D01*
X286672Y267936D01*
X286610Y267841D01*
X286552Y267744D01*
X286497Y267645D01*
X286446Y267544D01*
X286398Y267441D01*
X286353Y267337D01*
X286313Y267231D01*
X286276Y267124D01*
X286243Y267016D01*
X286213Y266906D01*
X286188Y266796D01*
X286166Y266685D01*
X286149Y266573D01*
X286135Y266460D01*
X286125Y266347D01*
X286119Y266234D01*
X286117Y266121D01*
X286117Y260929D01*
X286119Y260816D01*
X286125Y260703D01*
X286135Y260590D01*
X286149Y260477D01*
X286166Y260365D01*
X286188Y260254D01*
X286213Y260144D01*
X286243Y260034D01*
X286276Y259926D01*
X286313Y259819D01*
X286353Y259713D01*
X286398Y259609D01*
X286446Y259506D01*
X286497Y259405D01*
X286552Y259306D01*
X286610Y259209D01*
X286672Y259114D01*
X286737Y259021D01*
X286805Y258931D01*
X286876Y258843D01*
X286951Y258757D01*
X287028Y258674D01*
X287108Y258594D01*
X287191Y258517D01*
X287277Y258442D01*
X287365Y258371D01*
X287455Y258303D01*
X287548Y258238D01*
X287643Y258176D01*
X287740Y258118D01*
X287839Y258063D01*
X287940Y258012D01*
X288043Y257964D01*
X288147Y257919D01*
X288253Y257879D01*
X288360Y257842D01*
X288468Y257809D01*
X288578Y257779D01*
X288688Y257754D01*
X288799Y257732D01*
X288911Y257715D01*
X289024Y257701D01*
X289137Y257691D01*
X289250Y257685D01*
X289363Y257683D01*
X292608Y257683D01*
D12*
X170974Y250666D02*
X135414Y250666D01*
X135414Y230346D01*
X170974Y230346D01*
X170974Y250666D01*
D13*
X160115Y254381D02*
X153850Y263779D01*
X160115Y263779D02*
X153850Y254381D01*
X150449Y261691D02*
X147839Y263779D01*
X147839Y254381D01*
X150449Y254381D02*
X145228Y254381D01*
X78994Y156761D02*
X69596Y156761D01*
X78994Y156761D02*
X78994Y159372D01*
X78992Y159473D01*
X78986Y159574D01*
X78976Y159675D01*
X78963Y159775D01*
X78945Y159875D01*
X78924Y159974D01*
X78898Y160072D01*
X78869Y160169D01*
X78837Y160265D01*
X78800Y160359D01*
X78760Y160452D01*
X78716Y160544D01*
X78669Y160633D01*
X78618Y160721D01*
X78564Y160807D01*
X78507Y160890D01*
X78447Y160972D01*
X78383Y161050D01*
X78317Y161127D01*
X78247Y161200D01*
X78175Y161271D01*
X78100Y161339D01*
X78022Y161404D01*
X77942Y161466D01*
X77860Y161525D01*
X77775Y161581D01*
X77689Y161633D01*
X77600Y161682D01*
X77509Y161728D01*
X77417Y161769D01*
X77323Y161808D01*
X77228Y161842D01*
X77132Y161873D01*
X77034Y161900D01*
X76936Y161924D01*
X76836Y161943D01*
X76736Y161959D01*
X76636Y161971D01*
X76535Y161979D01*
X76434Y161983D01*
X76332Y161983D01*
X76231Y161979D01*
X76130Y161971D01*
X76030Y161959D01*
X75930Y161943D01*
X75830Y161924D01*
X75732Y161900D01*
X75634Y161873D01*
X75538Y161842D01*
X75443Y161808D01*
X75349Y161769D01*
X75257Y161728D01*
X75166Y161682D01*
X75078Y161633D01*
X74991Y161581D01*
X74906Y161525D01*
X74824Y161466D01*
X74744Y161404D01*
X74666Y161339D01*
X74591Y161271D01*
X74519Y161200D01*
X74449Y161127D01*
X74383Y161050D01*
X74319Y160972D01*
X74259Y160890D01*
X74202Y160807D01*
X74148Y160721D01*
X74097Y160633D01*
X74050Y160544D01*
X74006Y160452D01*
X73966Y160359D01*
X73929Y160265D01*
X73897Y160169D01*
X73868Y160072D01*
X73842Y159974D01*
X73821Y159875D01*
X73803Y159775D01*
X73790Y159675D01*
X73780Y159574D01*
X73774Y159473D01*
X73772Y159372D01*
X73773Y159372D02*
X73773Y156761D01*
X73773Y159894D02*
X69596Y161982D01*
X76906Y165848D02*
X78994Y168458D01*
X69596Y168458D01*
X69596Y165848D02*
X69596Y171069D01*
X93282Y199612D02*
X93282Y209010D01*
X90671Y209010D01*
X90671Y209011D02*
X90570Y209009D01*
X90469Y209003D01*
X90368Y208993D01*
X90268Y208980D01*
X90168Y208962D01*
X90069Y208941D01*
X89971Y208915D01*
X89874Y208886D01*
X89778Y208854D01*
X89684Y208817D01*
X89591Y208777D01*
X89499Y208733D01*
X89410Y208686D01*
X89322Y208635D01*
X89236Y208581D01*
X89153Y208524D01*
X89071Y208464D01*
X88993Y208400D01*
X88916Y208334D01*
X88843Y208264D01*
X88772Y208192D01*
X88704Y208117D01*
X88639Y208039D01*
X88577Y207959D01*
X88518Y207877D01*
X88462Y207792D01*
X88410Y207706D01*
X88361Y207617D01*
X88315Y207526D01*
X88274Y207434D01*
X88235Y207340D01*
X88201Y207245D01*
X88170Y207149D01*
X88143Y207051D01*
X88119Y206953D01*
X88100Y206853D01*
X88084Y206753D01*
X88072Y206653D01*
X88064Y206552D01*
X88060Y206451D01*
X88060Y206349D01*
X88064Y206248D01*
X88072Y206147D01*
X88084Y206047D01*
X88100Y205947D01*
X88119Y205847D01*
X88143Y205749D01*
X88170Y205651D01*
X88201Y205555D01*
X88235Y205460D01*
X88274Y205366D01*
X88315Y205274D01*
X88361Y205183D01*
X88410Y205095D01*
X88462Y205008D01*
X88518Y204923D01*
X88577Y204841D01*
X88639Y204761D01*
X88704Y204683D01*
X88772Y204608D01*
X88843Y204536D01*
X88916Y204466D01*
X88993Y204400D01*
X89071Y204336D01*
X89153Y204276D01*
X89236Y204219D01*
X89322Y204165D01*
X89410Y204114D01*
X89499Y204067D01*
X89591Y204023D01*
X89684Y203983D01*
X89778Y203946D01*
X89874Y203914D01*
X89971Y203885D01*
X90069Y203859D01*
X90168Y203838D01*
X90268Y203820D01*
X90368Y203807D01*
X90469Y203797D01*
X90570Y203791D01*
X90671Y203789D01*
X93282Y203789D01*
X90149Y203789D02*
X88060Y199612D01*
X84195Y199612D02*
X81584Y199612D01*
X81483Y199614D01*
X81382Y199620D01*
X81281Y199630D01*
X81181Y199643D01*
X81081Y199661D01*
X80982Y199682D01*
X80884Y199708D01*
X80787Y199737D01*
X80691Y199769D01*
X80597Y199806D01*
X80504Y199846D01*
X80412Y199890D01*
X80323Y199937D01*
X80235Y199988D01*
X80149Y200042D01*
X80066Y200099D01*
X79984Y200159D01*
X79906Y200223D01*
X79829Y200289D01*
X79756Y200359D01*
X79685Y200431D01*
X79617Y200506D01*
X79552Y200584D01*
X79490Y200664D01*
X79431Y200746D01*
X79375Y200831D01*
X79323Y200918D01*
X79274Y201006D01*
X79228Y201097D01*
X79187Y201189D01*
X79148Y201283D01*
X79114Y201378D01*
X79083Y201474D01*
X79056Y201572D01*
X79032Y201670D01*
X79013Y201770D01*
X78997Y201870D01*
X78985Y201970D01*
X78977Y202071D01*
X78973Y202172D01*
X78973Y202274D01*
X78977Y202375D01*
X78985Y202476D01*
X78997Y202576D01*
X79013Y202676D01*
X79032Y202776D01*
X79056Y202874D01*
X79083Y202972D01*
X79114Y203068D01*
X79148Y203163D01*
X79187Y203257D01*
X79228Y203349D01*
X79274Y203440D01*
X79323Y203529D01*
X79375Y203615D01*
X79431Y203700D01*
X79490Y203782D01*
X79552Y203862D01*
X79617Y203940D01*
X79685Y204015D01*
X79756Y204087D01*
X79829Y204157D01*
X79906Y204223D01*
X79984Y204287D01*
X80066Y204347D01*
X80149Y204404D01*
X80235Y204458D01*
X80323Y204509D01*
X80412Y204556D01*
X80504Y204600D01*
X80597Y204640D01*
X80691Y204677D01*
X80787Y204709D01*
X80884Y204738D01*
X80982Y204764D01*
X81081Y204785D01*
X81181Y204803D01*
X81281Y204816D01*
X81382Y204826D01*
X81483Y204832D01*
X81584Y204834D01*
X81062Y209010D02*
X84195Y209010D01*
X81062Y209010D02*
X80972Y209008D01*
X80883Y209002D01*
X80793Y208993D01*
X80704Y208979D01*
X80616Y208962D01*
X80529Y208941D01*
X80442Y208916D01*
X80357Y208887D01*
X80273Y208855D01*
X80191Y208820D01*
X80110Y208780D01*
X80031Y208738D01*
X79954Y208692D01*
X79879Y208642D01*
X79806Y208590D01*
X79735Y208534D01*
X79667Y208476D01*
X79602Y208414D01*
X79539Y208350D01*
X79479Y208283D01*
X79422Y208214D01*
X79368Y208142D01*
X79317Y208068D01*
X79269Y207992D01*
X79225Y207914D01*
X79184Y207834D01*
X79146Y207752D01*
X79112Y207669D01*
X79082Y207584D01*
X79055Y207498D01*
X79032Y207412D01*
X79013Y207324D01*
X78998Y207235D01*
X78986Y207146D01*
X78978Y207057D01*
X78974Y206967D01*
X78974Y206877D01*
X78978Y206787D01*
X78986Y206698D01*
X78998Y206609D01*
X79013Y206520D01*
X79032Y206432D01*
X79055Y206346D01*
X79082Y206260D01*
X79112Y206175D01*
X79146Y206092D01*
X79184Y206010D01*
X79225Y205930D01*
X79269Y205852D01*
X79317Y205776D01*
X79368Y205702D01*
X79422Y205630D01*
X79479Y205561D01*
X79539Y205494D01*
X79602Y205430D01*
X79667Y205368D01*
X79735Y205310D01*
X79806Y205254D01*
X79879Y205202D01*
X79954Y205152D01*
X80031Y205106D01*
X80110Y205064D01*
X80191Y205024D01*
X80273Y204989D01*
X80357Y204957D01*
X80442Y204928D01*
X80529Y204903D01*
X80616Y204882D01*
X80704Y204865D01*
X80793Y204851D01*
X80883Y204842D01*
X80972Y204836D01*
X81062Y204834D01*
X81062Y204833D02*
X83150Y204833D01*
X181377Y271209D02*
X181377Y280607D01*
X178766Y280607D01*
X178665Y280605D01*
X178564Y280599D01*
X178463Y280589D01*
X178363Y280576D01*
X178263Y280558D01*
X178164Y280537D01*
X178066Y280511D01*
X177969Y280482D01*
X177873Y280450D01*
X177779Y280413D01*
X177686Y280373D01*
X177594Y280329D01*
X177505Y280282D01*
X177417Y280231D01*
X177331Y280177D01*
X177248Y280120D01*
X177166Y280060D01*
X177088Y279996D01*
X177011Y279930D01*
X176938Y279860D01*
X176867Y279788D01*
X176799Y279713D01*
X176734Y279635D01*
X176672Y279555D01*
X176613Y279473D01*
X176557Y279388D01*
X176505Y279302D01*
X176456Y279213D01*
X176410Y279122D01*
X176369Y279030D01*
X176330Y278936D01*
X176296Y278841D01*
X176265Y278745D01*
X176238Y278647D01*
X176214Y278549D01*
X176195Y278449D01*
X176179Y278349D01*
X176167Y278249D01*
X176159Y278148D01*
X176155Y278047D01*
X176155Y277945D01*
X176159Y277844D01*
X176167Y277743D01*
X176179Y277643D01*
X176195Y277543D01*
X176214Y277443D01*
X176238Y277345D01*
X176265Y277247D01*
X176296Y277151D01*
X176330Y277056D01*
X176369Y276962D01*
X176410Y276870D01*
X176456Y276779D01*
X176505Y276691D01*
X176557Y276604D01*
X176613Y276519D01*
X176672Y276437D01*
X176734Y276357D01*
X176799Y276279D01*
X176867Y276204D01*
X176938Y276132D01*
X177011Y276062D01*
X177088Y275996D01*
X177166Y275932D01*
X177248Y275872D01*
X177331Y275815D01*
X177417Y275761D01*
X177505Y275710D01*
X177594Y275663D01*
X177686Y275619D01*
X177779Y275579D01*
X177873Y275542D01*
X177969Y275510D01*
X178066Y275481D01*
X178164Y275455D01*
X178263Y275434D01*
X178363Y275416D01*
X178463Y275403D01*
X178564Y275393D01*
X178665Y275387D01*
X178766Y275385D01*
X181377Y275385D01*
X178244Y275385D02*
X176155Y271209D01*
X167068Y278257D02*
X167070Y278352D01*
X167076Y278446D01*
X167085Y278540D01*
X167098Y278634D01*
X167115Y278727D01*
X167136Y278819D01*
X167161Y278911D01*
X167189Y279001D01*
X167221Y279090D01*
X167256Y279178D01*
X167295Y279264D01*
X167337Y279349D01*
X167383Y279432D01*
X167432Y279513D01*
X167484Y279592D01*
X167539Y279669D01*
X167598Y279743D01*
X167659Y279815D01*
X167723Y279885D01*
X167790Y279952D01*
X167860Y280016D01*
X167932Y280077D01*
X168006Y280136D01*
X168083Y280191D01*
X168162Y280243D01*
X168243Y280292D01*
X168326Y280338D01*
X168411Y280380D01*
X168497Y280419D01*
X168585Y280454D01*
X168674Y280486D01*
X168764Y280514D01*
X168856Y280539D01*
X168948Y280560D01*
X169041Y280577D01*
X169135Y280590D01*
X169229Y280599D01*
X169323Y280605D01*
X169418Y280607D01*
X169418Y280606D02*
X169526Y280604D01*
X169635Y280598D01*
X169743Y280588D01*
X169850Y280575D01*
X169957Y280557D01*
X170064Y280536D01*
X170169Y280511D01*
X170274Y280482D01*
X170377Y280450D01*
X170479Y280413D01*
X170580Y280373D01*
X170679Y280330D01*
X170777Y280283D01*
X170873Y280232D01*
X170967Y280178D01*
X171059Y280121D01*
X171149Y280060D01*
X171237Y279996D01*
X171322Y279930D01*
X171405Y279860D01*
X171485Y279787D01*
X171563Y279711D01*
X171638Y279633D01*
X171710Y279552D01*
X171779Y279468D01*
X171845Y279382D01*
X171908Y279294D01*
X171967Y279203D01*
X172024Y279111D01*
X172077Y279016D01*
X172126Y278919D01*
X172172Y278821D01*
X172215Y278722D01*
X172254Y278620D01*
X172289Y278518D01*
X167851Y276429D02*
X167782Y276498D01*
X167716Y276569D01*
X167652Y276642D01*
X167591Y276718D01*
X167533Y276797D01*
X167479Y276877D01*
X167427Y276960D01*
X167379Y277044D01*
X167333Y277130D01*
X167292Y277218D01*
X167253Y277308D01*
X167218Y277399D01*
X167187Y277491D01*
X167159Y277584D01*
X167135Y277678D01*
X167115Y277773D01*
X167098Y277869D01*
X167085Y277966D01*
X167076Y278063D01*
X167070Y278160D01*
X167068Y278257D01*
X167852Y276430D02*
X172290Y271209D01*
X167069Y271209D01*
X175758Y286290D02*
X177847Y286290D01*
X177936Y286292D01*
X178024Y286298D01*
X178112Y286307D01*
X178200Y286320D01*
X178287Y286337D01*
X178373Y286357D01*
X178458Y286382D01*
X178543Y286409D01*
X178626Y286441D01*
X178707Y286475D01*
X178787Y286514D01*
X178865Y286555D01*
X178942Y286600D01*
X179016Y286648D01*
X179089Y286699D01*
X179159Y286753D01*
X179226Y286811D01*
X179292Y286871D01*
X179354Y286933D01*
X179414Y286999D01*
X179472Y287066D01*
X179526Y287136D01*
X179577Y287209D01*
X179625Y287283D01*
X179670Y287360D01*
X179711Y287438D01*
X179750Y287518D01*
X179784Y287599D01*
X179816Y287682D01*
X179843Y287767D01*
X179868Y287852D01*
X179888Y287938D01*
X179905Y288025D01*
X179918Y288113D01*
X179927Y288201D01*
X179933Y288289D01*
X179935Y288378D01*
X179935Y293599D01*
X179933Y293688D01*
X179927Y293776D01*
X179918Y293864D01*
X179905Y293952D01*
X179888Y294039D01*
X179868Y294125D01*
X179843Y294210D01*
X179816Y294295D01*
X179784Y294378D01*
X179750Y294459D01*
X179711Y294539D01*
X179670Y294617D01*
X179625Y294694D01*
X179577Y294768D01*
X179526Y294841D01*
X179472Y294911D01*
X179414Y294978D01*
X179354Y295044D01*
X179292Y295106D01*
X179226Y295166D01*
X179159Y295224D01*
X179089Y295278D01*
X179016Y295329D01*
X178942Y295377D01*
X178865Y295422D01*
X178787Y295463D01*
X178707Y295502D01*
X178626Y295536D01*
X178543Y295568D01*
X178458Y295595D01*
X178373Y295620D01*
X178287Y295640D01*
X178200Y295657D01*
X178112Y295670D01*
X178024Y295679D01*
X177936Y295685D01*
X177847Y295687D01*
X177847Y295688D02*
X175758Y295688D01*
X172290Y291511D02*
X169157Y291511D01*
X169157Y291510D02*
X169068Y291508D01*
X168980Y291502D01*
X168892Y291493D01*
X168804Y291480D01*
X168717Y291463D01*
X168631Y291443D01*
X168546Y291418D01*
X168461Y291391D01*
X168378Y291359D01*
X168297Y291325D01*
X168217Y291286D01*
X168139Y291245D01*
X168062Y291200D01*
X167988Y291152D01*
X167915Y291101D01*
X167845Y291047D01*
X167778Y290989D01*
X167712Y290929D01*
X167650Y290867D01*
X167590Y290801D01*
X167532Y290734D01*
X167478Y290664D01*
X167427Y290591D01*
X167379Y290517D01*
X167334Y290440D01*
X167293Y290362D01*
X167254Y290282D01*
X167220Y290201D01*
X167188Y290118D01*
X167161Y290033D01*
X167136Y289948D01*
X167116Y289862D01*
X167099Y289775D01*
X167086Y289687D01*
X167077Y289599D01*
X167071Y289511D01*
X167069Y289422D01*
X167069Y288900D01*
X167068Y288900D02*
X167070Y288799D01*
X167076Y288698D01*
X167086Y288597D01*
X167099Y288497D01*
X167117Y288397D01*
X167138Y288298D01*
X167164Y288200D01*
X167193Y288103D01*
X167225Y288007D01*
X167262Y287913D01*
X167302Y287820D01*
X167346Y287728D01*
X167393Y287639D01*
X167444Y287551D01*
X167498Y287465D01*
X167555Y287382D01*
X167615Y287300D01*
X167679Y287222D01*
X167745Y287145D01*
X167815Y287072D01*
X167887Y287001D01*
X167962Y286933D01*
X168040Y286868D01*
X168120Y286806D01*
X168202Y286747D01*
X168287Y286691D01*
X168374Y286639D01*
X168462Y286590D01*
X168553Y286544D01*
X168645Y286503D01*
X168739Y286464D01*
X168834Y286430D01*
X168930Y286399D01*
X169028Y286372D01*
X169126Y286348D01*
X169226Y286329D01*
X169326Y286313D01*
X169426Y286301D01*
X169527Y286293D01*
X169628Y286289D01*
X169730Y286289D01*
X169831Y286293D01*
X169932Y286301D01*
X170032Y286313D01*
X170132Y286329D01*
X170232Y286348D01*
X170330Y286372D01*
X170428Y286399D01*
X170524Y286430D01*
X170619Y286464D01*
X170713Y286503D01*
X170805Y286544D01*
X170896Y286590D01*
X170984Y286639D01*
X171071Y286691D01*
X171156Y286747D01*
X171238Y286806D01*
X171318Y286868D01*
X171396Y286933D01*
X171471Y287001D01*
X171543Y287072D01*
X171613Y287145D01*
X171679Y287222D01*
X171743Y287300D01*
X171803Y287382D01*
X171860Y287465D01*
X171914Y287551D01*
X171965Y287639D01*
X172012Y287728D01*
X172056Y287820D01*
X172096Y287913D01*
X172133Y288007D01*
X172165Y288103D01*
X172194Y288200D01*
X172220Y288298D01*
X172241Y288397D01*
X172259Y288497D01*
X172272Y288597D01*
X172282Y288698D01*
X172288Y288799D01*
X172290Y288900D01*
X172290Y291511D01*
X172288Y291637D01*
X172282Y291763D01*
X172273Y291889D01*
X172260Y292014D01*
X172242Y292139D01*
X172222Y292264D01*
X172197Y292388D01*
X172169Y292511D01*
X172137Y292633D01*
X172101Y292754D01*
X172062Y292874D01*
X172019Y292992D01*
X171972Y293109D01*
X171922Y293225D01*
X171868Y293340D01*
X171812Y293452D01*
X171751Y293563D01*
X171688Y293672D01*
X171621Y293779D01*
X171551Y293884D01*
X171477Y293987D01*
X171401Y294087D01*
X171322Y294185D01*
X171240Y294281D01*
X171154Y294374D01*
X171067Y294465D01*
X170976Y294552D01*
X170883Y294638D01*
X170787Y294720D01*
X170689Y294799D01*
X170589Y294875D01*
X170486Y294949D01*
X170381Y295019D01*
X170274Y295086D01*
X170165Y295149D01*
X170054Y295210D01*
X169942Y295266D01*
X169827Y295320D01*
X169711Y295370D01*
X169594Y295417D01*
X169476Y295460D01*
X169356Y295499D01*
X169235Y295535D01*
X169113Y295567D01*
X168990Y295595D01*
X168866Y295620D01*
X168741Y295640D01*
X168616Y295658D01*
X168491Y295671D01*
X168365Y295680D01*
X168239Y295686D01*
X168113Y295688D01*
X104362Y266495D02*
X104362Y264407D01*
X104363Y264407D02*
X104365Y264318D01*
X104371Y264230D01*
X104380Y264142D01*
X104393Y264054D01*
X104410Y263967D01*
X104430Y263881D01*
X104455Y263796D01*
X104482Y263711D01*
X104514Y263628D01*
X104548Y263547D01*
X104587Y263467D01*
X104628Y263389D01*
X104673Y263312D01*
X104721Y263238D01*
X104772Y263165D01*
X104826Y263095D01*
X104884Y263028D01*
X104944Y262962D01*
X105006Y262900D01*
X105072Y262840D01*
X105139Y262782D01*
X105209Y262728D01*
X105282Y262677D01*
X105356Y262629D01*
X105433Y262584D01*
X105511Y262543D01*
X105591Y262504D01*
X105672Y262470D01*
X105755Y262438D01*
X105840Y262411D01*
X105925Y262386D01*
X106011Y262366D01*
X106098Y262349D01*
X106186Y262336D01*
X106274Y262327D01*
X106362Y262321D01*
X106451Y262319D01*
X111672Y262319D01*
X111763Y262321D01*
X111854Y262327D01*
X111945Y262337D01*
X112035Y262351D01*
X112124Y262368D01*
X112212Y262390D01*
X112300Y262416D01*
X112386Y262445D01*
X112471Y262478D01*
X112554Y262515D01*
X112636Y262555D01*
X112716Y262599D01*
X112794Y262646D01*
X112870Y262697D01*
X112943Y262750D01*
X113014Y262807D01*
X113083Y262868D01*
X113148Y262931D01*
X113211Y262996D01*
X113271Y263065D01*
X113329Y263136D01*
X113382Y263209D01*
X113433Y263285D01*
X113480Y263363D01*
X113524Y263443D01*
X113564Y263525D01*
X113601Y263608D01*
X113634Y263693D01*
X113663Y263779D01*
X113689Y263867D01*
X113711Y263955D01*
X113728Y264044D01*
X113742Y264134D01*
X113752Y264225D01*
X113758Y264316D01*
X113760Y264407D01*
X113760Y266495D01*
X111672Y269964D02*
X113760Y272575D01*
X104362Y272575D01*
X104362Y275185D02*
X104362Y269964D01*
X119444Y265702D02*
X119444Y263613D01*
X119446Y263524D01*
X119452Y263436D01*
X119461Y263348D01*
X119474Y263260D01*
X119491Y263173D01*
X119511Y263087D01*
X119536Y263002D01*
X119563Y262917D01*
X119595Y262834D01*
X119629Y262753D01*
X119668Y262673D01*
X119709Y262595D01*
X119754Y262518D01*
X119802Y262444D01*
X119853Y262371D01*
X119907Y262301D01*
X119965Y262234D01*
X120025Y262168D01*
X120087Y262106D01*
X120153Y262046D01*
X120220Y261988D01*
X120290Y261934D01*
X120363Y261883D01*
X120437Y261835D01*
X120514Y261790D01*
X120592Y261749D01*
X120672Y261710D01*
X120753Y261676D01*
X120836Y261644D01*
X120921Y261617D01*
X121006Y261592D01*
X121092Y261572D01*
X121179Y261555D01*
X121267Y261542D01*
X121355Y261533D01*
X121443Y261527D01*
X121532Y261525D01*
X126753Y261525D01*
X126844Y261527D01*
X126935Y261533D01*
X127026Y261543D01*
X127116Y261557D01*
X127205Y261574D01*
X127293Y261596D01*
X127381Y261622D01*
X127467Y261651D01*
X127552Y261684D01*
X127635Y261721D01*
X127717Y261761D01*
X127797Y261805D01*
X127875Y261852D01*
X127951Y261903D01*
X128024Y261956D01*
X128095Y262013D01*
X128164Y262074D01*
X128229Y262137D01*
X128292Y262202D01*
X128352Y262271D01*
X128410Y262342D01*
X128463Y262415D01*
X128514Y262491D01*
X128561Y262569D01*
X128605Y262649D01*
X128645Y262731D01*
X128682Y262814D01*
X128715Y262899D01*
X128744Y262985D01*
X128770Y263073D01*
X128792Y263161D01*
X128809Y263250D01*
X128823Y263340D01*
X128833Y263431D01*
X128839Y263522D01*
X128841Y263613D01*
X128842Y263613D02*
X128842Y265702D01*
X119444Y269170D02*
X119444Y271781D01*
X119443Y271781D02*
X119445Y271882D01*
X119451Y271983D01*
X119461Y272084D01*
X119474Y272184D01*
X119492Y272284D01*
X119513Y272383D01*
X119539Y272481D01*
X119568Y272578D01*
X119600Y272674D01*
X119637Y272768D01*
X119677Y272861D01*
X119721Y272953D01*
X119768Y273042D01*
X119819Y273130D01*
X119873Y273216D01*
X119930Y273299D01*
X119990Y273381D01*
X120054Y273459D01*
X120120Y273536D01*
X120190Y273609D01*
X120262Y273680D01*
X120337Y273748D01*
X120415Y273813D01*
X120495Y273875D01*
X120577Y273934D01*
X120662Y273990D01*
X120749Y274042D01*
X120837Y274091D01*
X120928Y274137D01*
X121020Y274178D01*
X121114Y274217D01*
X121209Y274251D01*
X121305Y274282D01*
X121403Y274309D01*
X121501Y274333D01*
X121601Y274352D01*
X121701Y274368D01*
X121801Y274380D01*
X121902Y274388D01*
X122003Y274392D01*
X122105Y274392D01*
X122206Y274388D01*
X122307Y274380D01*
X122407Y274368D01*
X122507Y274352D01*
X122607Y274333D01*
X122705Y274309D01*
X122803Y274282D01*
X122899Y274251D01*
X122994Y274217D01*
X123088Y274178D01*
X123180Y274137D01*
X123271Y274091D01*
X123360Y274042D01*
X123446Y273990D01*
X123531Y273934D01*
X123613Y273875D01*
X123693Y273813D01*
X123771Y273748D01*
X123846Y273680D01*
X123918Y273609D01*
X123988Y273536D01*
X124054Y273459D01*
X124118Y273381D01*
X124178Y273299D01*
X124235Y273216D01*
X124289Y273130D01*
X124340Y273042D01*
X124387Y272953D01*
X124431Y272861D01*
X124471Y272768D01*
X124508Y272674D01*
X124540Y272578D01*
X124569Y272481D01*
X124595Y272383D01*
X124616Y272284D01*
X124634Y272184D01*
X124647Y272084D01*
X124657Y271983D01*
X124663Y271882D01*
X124665Y271781D01*
X128842Y272303D02*
X128842Y269170D01*
X128841Y272303D02*
X128839Y272393D01*
X128833Y272482D01*
X128824Y272572D01*
X128810Y272661D01*
X128793Y272749D01*
X128772Y272836D01*
X128747Y272923D01*
X128718Y273008D01*
X128686Y273092D01*
X128651Y273174D01*
X128611Y273255D01*
X128569Y273334D01*
X128523Y273411D01*
X128473Y273486D01*
X128421Y273559D01*
X128365Y273630D01*
X128307Y273698D01*
X128245Y273763D01*
X128181Y273826D01*
X128114Y273886D01*
X128045Y273943D01*
X127973Y273997D01*
X127899Y274048D01*
X127823Y274096D01*
X127745Y274140D01*
X127665Y274181D01*
X127583Y274219D01*
X127500Y274253D01*
X127415Y274283D01*
X127329Y274310D01*
X127243Y274333D01*
X127155Y274352D01*
X127066Y274367D01*
X126977Y274379D01*
X126888Y274387D01*
X126798Y274391D01*
X126708Y274391D01*
X126618Y274387D01*
X126529Y274379D01*
X126440Y274367D01*
X126351Y274352D01*
X126263Y274333D01*
X126177Y274310D01*
X126091Y274283D01*
X126006Y274253D01*
X125923Y274219D01*
X125841Y274181D01*
X125761Y274140D01*
X125683Y274096D01*
X125607Y274048D01*
X125533Y273997D01*
X125461Y273943D01*
X125392Y273886D01*
X125325Y273826D01*
X125261Y273763D01*
X125199Y273698D01*
X125141Y273630D01*
X125085Y273559D01*
X125033Y273486D01*
X124983Y273411D01*
X124937Y273334D01*
X124895Y273255D01*
X124855Y273174D01*
X124820Y273092D01*
X124788Y273008D01*
X124759Y272923D01*
X124734Y272836D01*
X124713Y272749D01*
X124696Y272661D01*
X124682Y272572D01*
X124673Y272482D01*
X124667Y272393D01*
X124665Y272303D01*
X124665Y270215D01*
X174830Y122619D02*
X176918Y122619D01*
X177007Y122621D01*
X177095Y122627D01*
X177183Y122636D01*
X177271Y122649D01*
X177358Y122666D01*
X177444Y122686D01*
X177529Y122711D01*
X177614Y122738D01*
X177697Y122770D01*
X177778Y122804D01*
X177858Y122843D01*
X177936Y122884D01*
X178013Y122929D01*
X178087Y122977D01*
X178160Y123028D01*
X178230Y123082D01*
X178297Y123140D01*
X178363Y123200D01*
X178425Y123262D01*
X178485Y123328D01*
X178543Y123395D01*
X178597Y123465D01*
X178648Y123538D01*
X178696Y123612D01*
X178741Y123689D01*
X178782Y123767D01*
X178821Y123847D01*
X178855Y123928D01*
X178887Y124011D01*
X178914Y124096D01*
X178939Y124181D01*
X178959Y124267D01*
X178976Y124354D01*
X178989Y124442D01*
X178998Y124530D01*
X179004Y124618D01*
X179006Y124707D01*
X179007Y124707D02*
X179007Y129928D01*
X179006Y129928D02*
X179004Y130017D01*
X178998Y130105D01*
X178989Y130193D01*
X178976Y130281D01*
X178959Y130368D01*
X178939Y130454D01*
X178914Y130539D01*
X178887Y130624D01*
X178855Y130707D01*
X178821Y130788D01*
X178782Y130868D01*
X178741Y130946D01*
X178696Y131023D01*
X178648Y131097D01*
X178597Y131170D01*
X178543Y131240D01*
X178485Y131307D01*
X178425Y131373D01*
X178363Y131435D01*
X178297Y131495D01*
X178230Y131553D01*
X178160Y131607D01*
X178087Y131658D01*
X178013Y131706D01*
X177936Y131751D01*
X177858Y131792D01*
X177778Y131831D01*
X177697Y131865D01*
X177614Y131897D01*
X177529Y131924D01*
X177444Y131949D01*
X177358Y131969D01*
X177271Y131986D01*
X177183Y131999D01*
X177095Y132008D01*
X177007Y132014D01*
X176918Y132016D01*
X176918Y132017D02*
X174830Y132017D01*
X171361Y122619D02*
X168228Y122619D01*
X168139Y122621D01*
X168051Y122627D01*
X167963Y122636D01*
X167875Y122649D01*
X167788Y122666D01*
X167702Y122686D01*
X167617Y122711D01*
X167532Y122738D01*
X167449Y122770D01*
X167368Y122804D01*
X167288Y122843D01*
X167210Y122884D01*
X167133Y122929D01*
X167059Y122977D01*
X166986Y123028D01*
X166916Y123082D01*
X166849Y123140D01*
X166783Y123200D01*
X166721Y123262D01*
X166661Y123328D01*
X166603Y123395D01*
X166549Y123465D01*
X166498Y123538D01*
X166450Y123612D01*
X166405Y123689D01*
X166364Y123767D01*
X166325Y123847D01*
X166291Y123928D01*
X166259Y124011D01*
X166232Y124096D01*
X166207Y124181D01*
X166187Y124267D01*
X166170Y124354D01*
X166157Y124442D01*
X166148Y124530D01*
X166142Y124618D01*
X166140Y124707D01*
X166140Y125751D01*
X166142Y125840D01*
X166148Y125928D01*
X166157Y126016D01*
X166170Y126104D01*
X166187Y126191D01*
X166207Y126277D01*
X166232Y126362D01*
X166259Y126447D01*
X166291Y126530D01*
X166325Y126611D01*
X166364Y126691D01*
X166405Y126769D01*
X166450Y126846D01*
X166498Y126920D01*
X166549Y126993D01*
X166603Y127063D01*
X166661Y127130D01*
X166721Y127196D01*
X166783Y127258D01*
X166849Y127318D01*
X166916Y127376D01*
X166986Y127430D01*
X167059Y127481D01*
X167133Y127529D01*
X167210Y127574D01*
X167288Y127615D01*
X167368Y127654D01*
X167449Y127688D01*
X167532Y127720D01*
X167617Y127747D01*
X167702Y127772D01*
X167788Y127792D01*
X167875Y127809D01*
X167963Y127822D01*
X168051Y127831D01*
X168139Y127837D01*
X168228Y127839D01*
X168228Y127840D02*
X171361Y127840D01*
X171361Y132017D01*
X166140Y132017D01*
D10*
X78219Y225908D02*
X58090Y225908D01*
D13*
X64040Y269034D02*
X64040Y271123D01*
X64040Y269034D02*
X64042Y268945D01*
X64048Y268857D01*
X64057Y268769D01*
X64070Y268681D01*
X64087Y268594D01*
X64107Y268508D01*
X64132Y268423D01*
X64159Y268338D01*
X64191Y268255D01*
X64225Y268174D01*
X64264Y268094D01*
X64305Y268016D01*
X64350Y267939D01*
X64398Y267865D01*
X64449Y267792D01*
X64503Y267722D01*
X64561Y267655D01*
X64621Y267589D01*
X64683Y267527D01*
X64749Y267467D01*
X64816Y267409D01*
X64886Y267355D01*
X64959Y267304D01*
X65033Y267256D01*
X65110Y267211D01*
X65188Y267170D01*
X65268Y267131D01*
X65349Y267097D01*
X65432Y267065D01*
X65517Y267038D01*
X65602Y267013D01*
X65688Y266993D01*
X65775Y266976D01*
X65863Y266963D01*
X65951Y266954D01*
X66039Y266948D01*
X66128Y266946D01*
X71349Y266946D01*
X71440Y266948D01*
X71531Y266954D01*
X71622Y266964D01*
X71712Y266978D01*
X71801Y266995D01*
X71889Y267017D01*
X71977Y267043D01*
X72063Y267072D01*
X72148Y267105D01*
X72231Y267142D01*
X72313Y267182D01*
X72393Y267226D01*
X72471Y267273D01*
X72547Y267324D01*
X72620Y267377D01*
X72691Y267434D01*
X72760Y267495D01*
X72825Y267558D01*
X72888Y267623D01*
X72948Y267692D01*
X73006Y267763D01*
X73059Y267836D01*
X73110Y267912D01*
X73157Y267990D01*
X73201Y268070D01*
X73241Y268152D01*
X73278Y268235D01*
X73311Y268320D01*
X73340Y268406D01*
X73366Y268494D01*
X73388Y268582D01*
X73405Y268671D01*
X73419Y268761D01*
X73429Y268852D01*
X73435Y268943D01*
X73437Y269034D01*
X73438Y269034D02*
X73438Y271123D01*
X73438Y277463D02*
X73436Y277558D01*
X73430Y277652D01*
X73421Y277746D01*
X73408Y277840D01*
X73391Y277933D01*
X73370Y278025D01*
X73345Y278117D01*
X73317Y278207D01*
X73285Y278296D01*
X73250Y278384D01*
X73211Y278470D01*
X73169Y278555D01*
X73123Y278638D01*
X73074Y278719D01*
X73022Y278798D01*
X72967Y278875D01*
X72908Y278949D01*
X72847Y279021D01*
X72783Y279091D01*
X72716Y279158D01*
X72646Y279222D01*
X72574Y279283D01*
X72500Y279342D01*
X72423Y279397D01*
X72344Y279449D01*
X72263Y279498D01*
X72180Y279544D01*
X72095Y279586D01*
X72009Y279625D01*
X71921Y279660D01*
X71832Y279692D01*
X71742Y279720D01*
X71650Y279745D01*
X71558Y279766D01*
X71465Y279783D01*
X71371Y279796D01*
X71277Y279805D01*
X71183Y279811D01*
X71088Y279813D01*
X73437Y277463D02*
X73435Y277355D01*
X73429Y277246D01*
X73419Y277138D01*
X73406Y277031D01*
X73388Y276924D01*
X73367Y276817D01*
X73342Y276712D01*
X73313Y276607D01*
X73281Y276504D01*
X73244Y276402D01*
X73204Y276301D01*
X73161Y276202D01*
X73114Y276104D01*
X73063Y276008D01*
X73009Y275914D01*
X72952Y275822D01*
X72891Y275732D01*
X72827Y275644D01*
X72761Y275559D01*
X72691Y275476D01*
X72618Y275396D01*
X72542Y275318D01*
X72464Y275243D01*
X72383Y275171D01*
X72299Y275102D01*
X72213Y275036D01*
X72125Y274973D01*
X72034Y274914D01*
X71942Y274857D01*
X71847Y274804D01*
X71751Y274755D01*
X71652Y274709D01*
X71553Y274666D01*
X71451Y274627D01*
X71349Y274592D01*
X69260Y279030D02*
X69329Y279099D01*
X69400Y279165D01*
X69473Y279229D01*
X69549Y279290D01*
X69628Y279348D01*
X69708Y279402D01*
X69791Y279454D01*
X69875Y279502D01*
X69961Y279548D01*
X70049Y279589D01*
X70139Y279628D01*
X70230Y279663D01*
X70322Y279694D01*
X70415Y279722D01*
X70509Y279746D01*
X70604Y279766D01*
X70700Y279783D01*
X70797Y279796D01*
X70894Y279805D01*
X70991Y279811D01*
X71088Y279813D01*
X69261Y279030D02*
X64040Y274592D01*
X64040Y279813D01*
D10*
X80315Y225908D02*
X100444Y225908D01*
D13*
X86900Y266788D02*
X86900Y268877D01*
X86900Y266788D02*
X86902Y266699D01*
X86908Y266611D01*
X86917Y266523D01*
X86930Y266435D01*
X86947Y266348D01*
X86967Y266262D01*
X86992Y266177D01*
X87019Y266092D01*
X87051Y266009D01*
X87085Y265928D01*
X87124Y265848D01*
X87165Y265770D01*
X87210Y265693D01*
X87258Y265619D01*
X87309Y265546D01*
X87363Y265476D01*
X87421Y265409D01*
X87481Y265343D01*
X87543Y265281D01*
X87609Y265221D01*
X87676Y265163D01*
X87746Y265109D01*
X87819Y265058D01*
X87893Y265010D01*
X87970Y264965D01*
X88048Y264924D01*
X88128Y264885D01*
X88209Y264851D01*
X88292Y264819D01*
X88377Y264792D01*
X88462Y264767D01*
X88548Y264747D01*
X88635Y264730D01*
X88723Y264717D01*
X88811Y264708D01*
X88899Y264702D01*
X88988Y264700D01*
X94209Y264700D01*
X94300Y264702D01*
X94391Y264708D01*
X94482Y264718D01*
X94572Y264732D01*
X94661Y264749D01*
X94749Y264771D01*
X94837Y264797D01*
X94923Y264826D01*
X95008Y264859D01*
X95091Y264896D01*
X95173Y264936D01*
X95253Y264980D01*
X95331Y265027D01*
X95407Y265078D01*
X95480Y265131D01*
X95551Y265188D01*
X95620Y265249D01*
X95685Y265312D01*
X95748Y265377D01*
X95808Y265446D01*
X95866Y265517D01*
X95919Y265590D01*
X95970Y265666D01*
X96017Y265744D01*
X96061Y265824D01*
X96101Y265906D01*
X96138Y265989D01*
X96171Y266074D01*
X96200Y266160D01*
X96226Y266248D01*
X96248Y266336D01*
X96265Y266425D01*
X96279Y266515D01*
X96289Y266606D01*
X96295Y266697D01*
X96297Y266788D01*
X96298Y266788D02*
X96298Y268877D01*
X96298Y274434D02*
X88988Y272345D01*
X88988Y277567D01*
X86900Y276000D02*
X91077Y276000D01*
D10*
X124308Y118123D02*
X124308Y97993D01*
D13*
X177211Y102775D02*
X179299Y102775D01*
X179388Y102777D01*
X179476Y102783D01*
X179564Y102792D01*
X179652Y102805D01*
X179739Y102822D01*
X179825Y102842D01*
X179910Y102867D01*
X179995Y102894D01*
X180078Y102926D01*
X180159Y102960D01*
X180239Y102999D01*
X180317Y103040D01*
X180394Y103085D01*
X180468Y103133D01*
X180541Y103184D01*
X180611Y103238D01*
X180678Y103296D01*
X180744Y103356D01*
X180806Y103418D01*
X180866Y103484D01*
X180924Y103551D01*
X180978Y103621D01*
X181029Y103694D01*
X181077Y103768D01*
X181122Y103845D01*
X181163Y103923D01*
X181202Y104003D01*
X181236Y104084D01*
X181268Y104167D01*
X181295Y104252D01*
X181320Y104337D01*
X181340Y104423D01*
X181357Y104510D01*
X181370Y104598D01*
X181379Y104686D01*
X181385Y104774D01*
X181387Y104863D01*
X181388Y104863D02*
X181388Y110084D01*
X181387Y110084D02*
X181385Y110173D01*
X181379Y110261D01*
X181370Y110349D01*
X181357Y110437D01*
X181340Y110524D01*
X181320Y110610D01*
X181295Y110695D01*
X181268Y110780D01*
X181236Y110863D01*
X181202Y110944D01*
X181163Y111024D01*
X181122Y111102D01*
X181077Y111179D01*
X181029Y111253D01*
X180978Y111326D01*
X180924Y111396D01*
X180866Y111463D01*
X180806Y111529D01*
X180744Y111591D01*
X180678Y111651D01*
X180611Y111709D01*
X180541Y111763D01*
X180468Y111814D01*
X180394Y111862D01*
X180317Y111907D01*
X180239Y111948D01*
X180159Y111987D01*
X180078Y112021D01*
X179995Y112053D01*
X179910Y112080D01*
X179825Y112105D01*
X179739Y112125D01*
X179652Y112142D01*
X179564Y112155D01*
X179476Y112164D01*
X179388Y112170D01*
X179299Y112172D01*
X179299Y112173D02*
X177211Y112173D01*
X173742Y112173D02*
X173742Y111129D01*
X173742Y112173D02*
X168521Y112173D01*
X171132Y102775D01*
X52007Y251206D02*
X52007Y260604D01*
X47830Y260604D01*
X47830Y256427D02*
X52007Y256427D01*
X43968Y256427D02*
X41357Y256427D01*
X41357Y256428D02*
X41256Y256426D01*
X41155Y256420D01*
X41054Y256410D01*
X40954Y256397D01*
X40854Y256379D01*
X40755Y256358D01*
X40657Y256332D01*
X40560Y256303D01*
X40464Y256271D01*
X40370Y256234D01*
X40277Y256194D01*
X40185Y256150D01*
X40096Y256103D01*
X40008Y256052D01*
X39922Y255998D01*
X39839Y255941D01*
X39757Y255881D01*
X39679Y255817D01*
X39602Y255751D01*
X39529Y255681D01*
X39458Y255609D01*
X39390Y255534D01*
X39325Y255456D01*
X39263Y255376D01*
X39204Y255294D01*
X39148Y255209D01*
X39096Y255123D01*
X39047Y255034D01*
X39001Y254943D01*
X38960Y254851D01*
X38921Y254757D01*
X38887Y254662D01*
X38856Y254566D01*
X38829Y254468D01*
X38805Y254370D01*
X38786Y254270D01*
X38770Y254170D01*
X38758Y254070D01*
X38750Y253969D01*
X38746Y253868D01*
X38746Y253766D01*
X38750Y253665D01*
X38758Y253564D01*
X38770Y253464D01*
X38786Y253364D01*
X38805Y253264D01*
X38829Y253166D01*
X38856Y253068D01*
X38887Y252972D01*
X38921Y252877D01*
X38960Y252783D01*
X39001Y252691D01*
X39047Y252600D01*
X39096Y252512D01*
X39148Y252425D01*
X39204Y252340D01*
X39263Y252258D01*
X39325Y252178D01*
X39390Y252100D01*
X39458Y252025D01*
X39529Y251953D01*
X39602Y251883D01*
X39679Y251817D01*
X39757Y251753D01*
X39839Y251693D01*
X39922Y251636D01*
X40008Y251582D01*
X40096Y251531D01*
X40185Y251484D01*
X40277Y251440D01*
X40370Y251400D01*
X40464Y251363D01*
X40560Y251331D01*
X40657Y251302D01*
X40755Y251276D01*
X40854Y251255D01*
X40954Y251237D01*
X41054Y251224D01*
X41155Y251214D01*
X41256Y251208D01*
X41357Y251206D01*
X43968Y251206D01*
X43968Y260604D01*
X41357Y260604D01*
X41267Y260602D01*
X41178Y260596D01*
X41088Y260587D01*
X40999Y260573D01*
X40911Y260556D01*
X40824Y260535D01*
X40737Y260510D01*
X40652Y260481D01*
X40568Y260449D01*
X40486Y260414D01*
X40405Y260374D01*
X40326Y260332D01*
X40249Y260286D01*
X40174Y260236D01*
X40101Y260184D01*
X40030Y260128D01*
X39962Y260070D01*
X39897Y260008D01*
X39834Y259944D01*
X39774Y259877D01*
X39717Y259808D01*
X39663Y259736D01*
X39612Y259662D01*
X39564Y259586D01*
X39520Y259508D01*
X39479Y259428D01*
X39441Y259346D01*
X39407Y259263D01*
X39377Y259178D01*
X39350Y259092D01*
X39327Y259006D01*
X39308Y258918D01*
X39293Y258829D01*
X39281Y258740D01*
X39273Y258651D01*
X39269Y258561D01*
X39269Y258471D01*
X39273Y258381D01*
X39281Y258292D01*
X39293Y258203D01*
X39308Y258114D01*
X39327Y258026D01*
X39350Y257940D01*
X39377Y257854D01*
X39407Y257769D01*
X39441Y257686D01*
X39479Y257604D01*
X39520Y257524D01*
X39564Y257446D01*
X39612Y257370D01*
X39663Y257296D01*
X39717Y257224D01*
X39774Y257155D01*
X39834Y257088D01*
X39897Y257024D01*
X39962Y256962D01*
X40030Y256904D01*
X40101Y256848D01*
X40174Y256796D01*
X40249Y256746D01*
X40326Y256700D01*
X40405Y256658D01*
X40486Y256618D01*
X40568Y256583D01*
X40652Y256551D01*
X40737Y256522D01*
X40824Y256497D01*
X40911Y256476D01*
X40999Y256459D01*
X41088Y256445D01*
X41178Y256436D01*
X41267Y256430D01*
X41357Y256428D01*
X35260Y258516D02*
X32650Y260604D01*
X32650Y251206D01*
X35260Y251206D02*
X30039Y251206D01*
X538702Y168729D02*
X538702Y166641D01*
X538703Y166641D02*
X538705Y166552D01*
X538711Y166464D01*
X538720Y166376D01*
X538733Y166288D01*
X538750Y166201D01*
X538770Y166115D01*
X538795Y166030D01*
X538822Y165945D01*
X538854Y165862D01*
X538888Y165781D01*
X538927Y165701D01*
X538968Y165623D01*
X539013Y165546D01*
X539061Y165472D01*
X539112Y165399D01*
X539166Y165329D01*
X539224Y165262D01*
X539284Y165196D01*
X539346Y165134D01*
X539412Y165074D01*
X539479Y165016D01*
X539549Y164962D01*
X539622Y164911D01*
X539696Y164863D01*
X539773Y164818D01*
X539851Y164777D01*
X539931Y164738D01*
X540012Y164704D01*
X540095Y164672D01*
X540180Y164645D01*
X540265Y164620D01*
X540351Y164600D01*
X540438Y164583D01*
X540526Y164570D01*
X540614Y164561D01*
X540702Y164555D01*
X540791Y164553D01*
X540791Y164552D02*
X546012Y164552D01*
X546012Y164553D02*
X546103Y164555D01*
X546194Y164561D01*
X546285Y164571D01*
X546375Y164585D01*
X546464Y164602D01*
X546552Y164624D01*
X546640Y164650D01*
X546726Y164679D01*
X546811Y164712D01*
X546894Y164749D01*
X546976Y164789D01*
X547056Y164833D01*
X547134Y164880D01*
X547210Y164931D01*
X547283Y164984D01*
X547354Y165041D01*
X547423Y165102D01*
X547488Y165165D01*
X547551Y165230D01*
X547611Y165299D01*
X547669Y165370D01*
X547722Y165443D01*
X547773Y165519D01*
X547820Y165597D01*
X547864Y165677D01*
X547904Y165759D01*
X547941Y165842D01*
X547974Y165927D01*
X548003Y166013D01*
X548029Y166101D01*
X548051Y166189D01*
X548068Y166278D01*
X548082Y166368D01*
X548092Y166459D01*
X548098Y166550D01*
X548100Y166641D01*
X548100Y168729D01*
X541313Y172197D02*
X541414Y172199D01*
X541515Y172205D01*
X541616Y172215D01*
X541716Y172228D01*
X541816Y172246D01*
X541915Y172267D01*
X542013Y172293D01*
X542110Y172322D01*
X542206Y172354D01*
X542300Y172391D01*
X542393Y172431D01*
X542485Y172475D01*
X542574Y172522D01*
X542662Y172573D01*
X542748Y172627D01*
X542831Y172684D01*
X542913Y172744D01*
X542991Y172808D01*
X543068Y172874D01*
X543141Y172944D01*
X543212Y173016D01*
X543280Y173091D01*
X543345Y173169D01*
X543407Y173249D01*
X543466Y173331D01*
X543522Y173416D01*
X543574Y173502D01*
X543623Y173591D01*
X543669Y173682D01*
X543710Y173774D01*
X543749Y173868D01*
X543783Y173963D01*
X543814Y174059D01*
X543841Y174157D01*
X543865Y174255D01*
X543884Y174355D01*
X543900Y174455D01*
X543912Y174555D01*
X543920Y174656D01*
X543924Y174757D01*
X543924Y174859D01*
X543920Y174960D01*
X543912Y175061D01*
X543900Y175161D01*
X543884Y175261D01*
X543865Y175361D01*
X543841Y175459D01*
X543814Y175557D01*
X543783Y175653D01*
X543749Y175748D01*
X543710Y175842D01*
X543669Y175934D01*
X543623Y176025D01*
X543574Y176113D01*
X543522Y176200D01*
X543466Y176285D01*
X543407Y176367D01*
X543345Y176447D01*
X543280Y176525D01*
X543212Y176600D01*
X543141Y176672D01*
X543068Y176742D01*
X542991Y176808D01*
X542913Y176872D01*
X542831Y176932D01*
X542748Y176989D01*
X542662Y177043D01*
X542574Y177094D01*
X542485Y177141D01*
X542393Y177185D01*
X542300Y177225D01*
X542206Y177262D01*
X542110Y177294D01*
X542013Y177323D01*
X541915Y177349D01*
X541816Y177370D01*
X541716Y177388D01*
X541616Y177401D01*
X541515Y177411D01*
X541414Y177417D01*
X541313Y177419D01*
X541212Y177417D01*
X541111Y177411D01*
X541010Y177401D01*
X540910Y177388D01*
X540810Y177370D01*
X540711Y177349D01*
X540613Y177323D01*
X540516Y177294D01*
X540420Y177262D01*
X540326Y177225D01*
X540233Y177185D01*
X540141Y177141D01*
X540052Y177094D01*
X539964Y177043D01*
X539878Y176989D01*
X539795Y176932D01*
X539713Y176872D01*
X539635Y176808D01*
X539558Y176742D01*
X539485Y176672D01*
X539414Y176600D01*
X539346Y176525D01*
X539281Y176447D01*
X539219Y176367D01*
X539160Y176285D01*
X539104Y176200D01*
X539052Y176114D01*
X539003Y176025D01*
X538957Y175934D01*
X538916Y175842D01*
X538877Y175748D01*
X538843Y175653D01*
X538812Y175557D01*
X538785Y175459D01*
X538761Y175361D01*
X538742Y175261D01*
X538726Y175161D01*
X538714Y175061D01*
X538706Y174960D01*
X538702Y174859D01*
X538702Y174757D01*
X538706Y174656D01*
X538714Y174555D01*
X538726Y174455D01*
X538742Y174355D01*
X538761Y174255D01*
X538785Y174157D01*
X538812Y174059D01*
X538843Y173963D01*
X538877Y173868D01*
X538916Y173774D01*
X538957Y173682D01*
X539003Y173591D01*
X539052Y173503D01*
X539104Y173416D01*
X539160Y173331D01*
X539219Y173249D01*
X539281Y173169D01*
X539346Y173091D01*
X539414Y173016D01*
X539485Y172944D01*
X539558Y172874D01*
X539635Y172808D01*
X539713Y172744D01*
X539795Y172684D01*
X539878Y172627D01*
X539964Y172573D01*
X540052Y172522D01*
X540141Y172475D01*
X540233Y172431D01*
X540326Y172391D01*
X540420Y172354D01*
X540516Y172322D01*
X540613Y172293D01*
X540711Y172267D01*
X540810Y172246D01*
X540910Y172228D01*
X541010Y172215D01*
X541111Y172205D01*
X541212Y172199D01*
X541313Y172197D01*
X546012Y172720D02*
X546102Y172722D01*
X546191Y172728D01*
X546281Y172737D01*
X546370Y172751D01*
X546458Y172768D01*
X546545Y172789D01*
X546632Y172814D01*
X546717Y172843D01*
X546801Y172875D01*
X546883Y172910D01*
X546964Y172950D01*
X547043Y172992D01*
X547120Y173038D01*
X547195Y173088D01*
X547268Y173140D01*
X547339Y173196D01*
X547407Y173254D01*
X547472Y173316D01*
X547535Y173380D01*
X547595Y173447D01*
X547652Y173516D01*
X547706Y173588D01*
X547757Y173662D01*
X547805Y173738D01*
X547849Y173816D01*
X547890Y173896D01*
X547928Y173978D01*
X547962Y174061D01*
X547992Y174146D01*
X548019Y174232D01*
X548042Y174318D01*
X548061Y174406D01*
X548076Y174495D01*
X548088Y174584D01*
X548096Y174673D01*
X548100Y174763D01*
X548100Y174853D01*
X548096Y174943D01*
X548088Y175032D01*
X548076Y175121D01*
X548061Y175210D01*
X548042Y175298D01*
X548019Y175384D01*
X547992Y175470D01*
X547962Y175555D01*
X547928Y175638D01*
X547890Y175720D01*
X547849Y175800D01*
X547805Y175878D01*
X547757Y175954D01*
X547706Y176028D01*
X547652Y176100D01*
X547595Y176169D01*
X547535Y176236D01*
X547472Y176300D01*
X547407Y176362D01*
X547339Y176420D01*
X547268Y176476D01*
X547195Y176528D01*
X547120Y176578D01*
X547043Y176624D01*
X546964Y176666D01*
X546883Y176706D01*
X546801Y176741D01*
X546717Y176773D01*
X546632Y176802D01*
X546545Y176827D01*
X546458Y176848D01*
X546370Y176865D01*
X546281Y176879D01*
X546191Y176888D01*
X546102Y176894D01*
X546012Y176896D01*
X545922Y176894D01*
X545833Y176888D01*
X545743Y176879D01*
X545654Y176865D01*
X545566Y176848D01*
X545479Y176827D01*
X545392Y176802D01*
X545307Y176773D01*
X545223Y176741D01*
X545141Y176706D01*
X545060Y176666D01*
X544981Y176624D01*
X544904Y176578D01*
X544829Y176528D01*
X544756Y176476D01*
X544685Y176420D01*
X544617Y176362D01*
X544552Y176300D01*
X544489Y176236D01*
X544429Y176169D01*
X544372Y176100D01*
X544318Y176028D01*
X544267Y175954D01*
X544219Y175878D01*
X544175Y175800D01*
X544134Y175720D01*
X544096Y175638D01*
X544062Y175555D01*
X544032Y175470D01*
X544005Y175384D01*
X543982Y175298D01*
X543963Y175210D01*
X543948Y175121D01*
X543936Y175032D01*
X543928Y174943D01*
X543924Y174853D01*
X543924Y174763D01*
X543928Y174673D01*
X543936Y174584D01*
X543948Y174495D01*
X543963Y174406D01*
X543982Y174318D01*
X544005Y174232D01*
X544032Y174146D01*
X544062Y174061D01*
X544096Y173978D01*
X544134Y173896D01*
X544175Y173816D01*
X544219Y173738D01*
X544267Y173662D01*
X544318Y173588D01*
X544372Y173516D01*
X544429Y173447D01*
X544489Y173380D01*
X544552Y173316D01*
X544617Y173254D01*
X544685Y173196D01*
X544756Y173140D01*
X544829Y173088D01*
X544904Y173038D01*
X544981Y172992D01*
X545060Y172950D01*
X545141Y172910D01*
X545223Y172875D01*
X545307Y172843D01*
X545392Y172814D01*
X545479Y172789D01*
X545566Y172768D01*
X545654Y172751D01*
X545743Y172737D01*
X545833Y172728D01*
X545922Y172722D01*
X546012Y172720D01*
D10*
X524523Y189224D02*
X504393Y189224D01*
D13*
X493459Y168729D02*
X493459Y166641D01*
X493461Y166552D01*
X493467Y166464D01*
X493476Y166376D01*
X493489Y166288D01*
X493506Y166201D01*
X493526Y166115D01*
X493551Y166030D01*
X493578Y165945D01*
X493610Y165862D01*
X493644Y165781D01*
X493683Y165701D01*
X493724Y165623D01*
X493769Y165546D01*
X493817Y165472D01*
X493868Y165399D01*
X493922Y165329D01*
X493980Y165262D01*
X494040Y165196D01*
X494102Y165134D01*
X494168Y165074D01*
X494235Y165016D01*
X494305Y164962D01*
X494378Y164911D01*
X494452Y164863D01*
X494529Y164818D01*
X494607Y164777D01*
X494687Y164738D01*
X494768Y164704D01*
X494851Y164672D01*
X494936Y164645D01*
X495021Y164620D01*
X495107Y164600D01*
X495194Y164583D01*
X495282Y164570D01*
X495370Y164561D01*
X495458Y164555D01*
X495547Y164553D01*
X495547Y164552D02*
X500768Y164552D01*
X500768Y164553D02*
X500859Y164555D01*
X500950Y164561D01*
X501041Y164571D01*
X501131Y164585D01*
X501220Y164602D01*
X501308Y164624D01*
X501396Y164650D01*
X501482Y164679D01*
X501567Y164712D01*
X501650Y164749D01*
X501732Y164789D01*
X501812Y164833D01*
X501890Y164880D01*
X501966Y164931D01*
X502039Y164984D01*
X502110Y165041D01*
X502179Y165102D01*
X502244Y165165D01*
X502307Y165230D01*
X502367Y165299D01*
X502425Y165370D01*
X502478Y165443D01*
X502529Y165519D01*
X502576Y165597D01*
X502620Y165677D01*
X502660Y165759D01*
X502697Y165842D01*
X502730Y165927D01*
X502759Y166013D01*
X502785Y166101D01*
X502807Y166189D01*
X502824Y166278D01*
X502838Y166368D01*
X502848Y166459D01*
X502854Y166550D01*
X502856Y166641D01*
X502857Y166641D02*
X502857Y168729D01*
X497635Y174286D02*
X497635Y177419D01*
X497636Y174286D02*
X497638Y174197D01*
X497644Y174109D01*
X497653Y174021D01*
X497666Y173933D01*
X497683Y173846D01*
X497703Y173760D01*
X497728Y173675D01*
X497755Y173590D01*
X497787Y173507D01*
X497821Y173426D01*
X497860Y173346D01*
X497901Y173268D01*
X497946Y173191D01*
X497994Y173117D01*
X498045Y173044D01*
X498099Y172974D01*
X498157Y172907D01*
X498217Y172841D01*
X498279Y172779D01*
X498345Y172719D01*
X498412Y172661D01*
X498482Y172607D01*
X498555Y172556D01*
X498629Y172508D01*
X498706Y172463D01*
X498784Y172422D01*
X498864Y172383D01*
X498945Y172349D01*
X499028Y172317D01*
X499113Y172290D01*
X499198Y172265D01*
X499284Y172245D01*
X499371Y172228D01*
X499459Y172215D01*
X499547Y172206D01*
X499635Y172200D01*
X499724Y172198D01*
X500246Y172198D01*
X500246Y172197D02*
X500347Y172199D01*
X500448Y172205D01*
X500549Y172215D01*
X500649Y172228D01*
X500749Y172246D01*
X500848Y172267D01*
X500946Y172293D01*
X501043Y172322D01*
X501139Y172354D01*
X501233Y172391D01*
X501326Y172431D01*
X501418Y172475D01*
X501507Y172522D01*
X501595Y172573D01*
X501681Y172627D01*
X501764Y172684D01*
X501846Y172744D01*
X501924Y172808D01*
X502001Y172874D01*
X502074Y172944D01*
X502145Y173016D01*
X502213Y173091D01*
X502278Y173169D01*
X502340Y173249D01*
X502399Y173331D01*
X502455Y173416D01*
X502507Y173502D01*
X502556Y173591D01*
X502602Y173682D01*
X502643Y173774D01*
X502682Y173868D01*
X502716Y173963D01*
X502747Y174059D01*
X502774Y174157D01*
X502798Y174255D01*
X502817Y174355D01*
X502833Y174455D01*
X502845Y174555D01*
X502853Y174656D01*
X502857Y174757D01*
X502857Y174859D01*
X502853Y174960D01*
X502845Y175061D01*
X502833Y175161D01*
X502817Y175261D01*
X502798Y175361D01*
X502774Y175459D01*
X502747Y175557D01*
X502716Y175653D01*
X502682Y175748D01*
X502643Y175842D01*
X502602Y175934D01*
X502556Y176025D01*
X502507Y176113D01*
X502455Y176200D01*
X502399Y176285D01*
X502340Y176367D01*
X502278Y176447D01*
X502213Y176525D01*
X502145Y176600D01*
X502074Y176672D01*
X502001Y176742D01*
X501924Y176808D01*
X501846Y176872D01*
X501764Y176932D01*
X501681Y176989D01*
X501595Y177043D01*
X501507Y177094D01*
X501418Y177141D01*
X501326Y177185D01*
X501233Y177225D01*
X501139Y177262D01*
X501043Y177294D01*
X500946Y177323D01*
X500848Y177349D01*
X500749Y177370D01*
X500649Y177388D01*
X500549Y177401D01*
X500448Y177411D01*
X500347Y177417D01*
X500246Y177419D01*
X497635Y177419D01*
X497509Y177417D01*
X497383Y177411D01*
X497257Y177402D01*
X497132Y177389D01*
X497007Y177371D01*
X496882Y177351D01*
X496758Y177326D01*
X496635Y177298D01*
X496513Y177266D01*
X496392Y177230D01*
X496272Y177191D01*
X496154Y177148D01*
X496037Y177101D01*
X495921Y177051D01*
X495806Y176997D01*
X495694Y176941D01*
X495583Y176880D01*
X495474Y176817D01*
X495367Y176750D01*
X495262Y176680D01*
X495159Y176606D01*
X495059Y176530D01*
X494961Y176451D01*
X494865Y176369D01*
X494772Y176283D01*
X494681Y176196D01*
X494594Y176105D01*
X494508Y176012D01*
X494426Y175916D01*
X494347Y175818D01*
X494271Y175718D01*
X494197Y175615D01*
X494127Y175510D01*
X494060Y175403D01*
X493997Y175294D01*
X493936Y175183D01*
X493880Y175071D01*
X493826Y174956D01*
X493776Y174840D01*
X493729Y174723D01*
X493686Y174605D01*
X493647Y174485D01*
X493611Y174364D01*
X493579Y174242D01*
X493551Y174119D01*
X493526Y173995D01*
X493506Y173870D01*
X493488Y173745D01*
X493475Y173620D01*
X493466Y173494D01*
X493460Y173368D01*
X493458Y173242D01*
X250444Y147098D02*
X250444Y137700D01*
X250444Y147098D02*
X247833Y147098D01*
X247732Y147096D01*
X247631Y147090D01*
X247530Y147080D01*
X247430Y147067D01*
X247330Y147049D01*
X247231Y147028D01*
X247133Y147002D01*
X247036Y146973D01*
X246940Y146941D01*
X246846Y146904D01*
X246753Y146864D01*
X246661Y146820D01*
X246572Y146773D01*
X246484Y146722D01*
X246398Y146668D01*
X246315Y146611D01*
X246233Y146551D01*
X246155Y146487D01*
X246078Y146421D01*
X246005Y146351D01*
X245934Y146279D01*
X245866Y146204D01*
X245801Y146126D01*
X245739Y146046D01*
X245680Y145964D01*
X245624Y145879D01*
X245572Y145793D01*
X245523Y145704D01*
X245477Y145613D01*
X245436Y145521D01*
X245397Y145427D01*
X245363Y145332D01*
X245332Y145236D01*
X245305Y145138D01*
X245281Y145040D01*
X245262Y144940D01*
X245246Y144840D01*
X245234Y144740D01*
X245226Y144639D01*
X245222Y144538D01*
X245222Y144436D01*
X245226Y144335D01*
X245234Y144234D01*
X245246Y144134D01*
X245262Y144034D01*
X245281Y143934D01*
X245305Y143836D01*
X245332Y143738D01*
X245363Y143642D01*
X245397Y143547D01*
X245436Y143453D01*
X245477Y143361D01*
X245523Y143270D01*
X245572Y143182D01*
X245624Y143095D01*
X245680Y143010D01*
X245739Y142928D01*
X245801Y142848D01*
X245866Y142770D01*
X245934Y142695D01*
X246005Y142623D01*
X246078Y142553D01*
X246155Y142487D01*
X246233Y142423D01*
X246315Y142363D01*
X246398Y142306D01*
X246484Y142252D01*
X246572Y142201D01*
X246661Y142154D01*
X246753Y142110D01*
X246846Y142070D01*
X246940Y142033D01*
X247036Y142001D01*
X247133Y141972D01*
X247231Y141946D01*
X247330Y141925D01*
X247430Y141907D01*
X247530Y141894D01*
X247631Y141884D01*
X247732Y141878D01*
X247833Y141876D01*
X247833Y141877D02*
X250444Y141877D01*
X247311Y141877D02*
X245223Y137700D01*
X241357Y139788D02*
X239269Y147098D01*
X241357Y139788D02*
X236136Y139788D01*
X237702Y141877D02*
X237702Y137700D01*
D10*
X280734Y253937D02*
X293942Y253937D01*
X280734Y253937D02*
X280734Y225489D01*
X293942Y225489D01*
X293942Y253937D01*
D14*
X297371Y239713D03*
X277305Y249111D03*
X277305Y230315D03*
D13*
X294075Y220414D02*
X294075Y216237D01*
X294075Y220414D02*
X294073Y220515D01*
X294067Y220616D01*
X294057Y220717D01*
X294044Y220817D01*
X294026Y220917D01*
X294005Y221016D01*
X293979Y221114D01*
X293950Y221211D01*
X293918Y221307D01*
X293881Y221401D01*
X293841Y221494D01*
X293797Y221586D01*
X293750Y221675D01*
X293699Y221763D01*
X293645Y221849D01*
X293588Y221932D01*
X293528Y222014D01*
X293464Y222092D01*
X293398Y222169D01*
X293328Y222242D01*
X293256Y222313D01*
X293181Y222381D01*
X293103Y222446D01*
X293023Y222508D01*
X292941Y222567D01*
X292856Y222623D01*
X292770Y222675D01*
X292681Y222724D01*
X292590Y222770D01*
X292498Y222811D01*
X292404Y222850D01*
X292309Y222884D01*
X292213Y222915D01*
X292115Y222942D01*
X292017Y222966D01*
X291917Y222985D01*
X291817Y223001D01*
X291717Y223013D01*
X291616Y223021D01*
X291515Y223025D01*
X291413Y223025D01*
X291312Y223021D01*
X291211Y223013D01*
X291111Y223001D01*
X291011Y222985D01*
X290911Y222966D01*
X290813Y222942D01*
X290715Y222915D01*
X290619Y222884D01*
X290524Y222850D01*
X290430Y222811D01*
X290338Y222770D01*
X290247Y222724D01*
X290159Y222675D01*
X290072Y222623D01*
X289987Y222567D01*
X289905Y222508D01*
X289825Y222446D01*
X289747Y222381D01*
X289672Y222313D01*
X289600Y222242D01*
X289530Y222169D01*
X289464Y222092D01*
X289400Y222014D01*
X289340Y221932D01*
X289283Y221849D01*
X289229Y221763D01*
X289178Y221675D01*
X289131Y221586D01*
X289087Y221494D01*
X289047Y221401D01*
X289010Y221307D01*
X288978Y221211D01*
X288949Y221114D01*
X288923Y221016D01*
X288902Y220917D01*
X288884Y220817D01*
X288871Y220717D01*
X288861Y220616D01*
X288855Y220515D01*
X288853Y220414D01*
X288854Y220414D02*
X288854Y216237D01*
X288853Y216237D02*
X288855Y216136D01*
X288861Y216035D01*
X288871Y215934D01*
X288884Y215834D01*
X288902Y215734D01*
X288923Y215635D01*
X288949Y215537D01*
X288978Y215440D01*
X289010Y215344D01*
X289047Y215250D01*
X289087Y215157D01*
X289131Y215065D01*
X289178Y214976D01*
X289229Y214888D01*
X289283Y214802D01*
X289340Y214719D01*
X289400Y214637D01*
X289464Y214559D01*
X289530Y214482D01*
X289600Y214409D01*
X289672Y214338D01*
X289747Y214270D01*
X289825Y214205D01*
X289905Y214143D01*
X289987Y214084D01*
X290072Y214028D01*
X290159Y213976D01*
X290247Y213927D01*
X290338Y213881D01*
X290430Y213840D01*
X290524Y213801D01*
X290619Y213767D01*
X290715Y213736D01*
X290813Y213709D01*
X290911Y213685D01*
X291011Y213666D01*
X291111Y213650D01*
X291211Y213638D01*
X291312Y213630D01*
X291413Y213626D01*
X291515Y213626D01*
X291616Y213630D01*
X291717Y213638D01*
X291817Y213650D01*
X291917Y213666D01*
X292017Y213685D01*
X292115Y213709D01*
X292213Y213736D01*
X292309Y213767D01*
X292404Y213801D01*
X292498Y213840D01*
X292590Y213881D01*
X292681Y213927D01*
X292769Y213976D01*
X292856Y214028D01*
X292941Y214084D01*
X293023Y214143D01*
X293103Y214205D01*
X293181Y214270D01*
X293256Y214338D01*
X293328Y214409D01*
X293398Y214482D01*
X293464Y214559D01*
X293528Y214637D01*
X293588Y214719D01*
X293645Y214802D01*
X293699Y214888D01*
X293750Y214976D01*
X293797Y215065D01*
X293841Y215157D01*
X293881Y215250D01*
X293918Y215344D01*
X293950Y215440D01*
X293979Y215537D01*
X294005Y215635D01*
X294026Y215734D01*
X294044Y215834D01*
X294057Y215934D01*
X294067Y216035D01*
X294073Y216136D01*
X294075Y216237D01*
X289898Y215715D02*
X287810Y213627D01*
X285143Y220936D02*
X282533Y223025D01*
X282533Y213627D01*
X285143Y213627D02*
X279922Y213627D01*
D10*
X283115Y187262D02*
X296323Y187262D01*
X283115Y187262D02*
X283115Y158814D01*
X296323Y158814D01*
X296323Y187262D01*
D14*
X299752Y173038D03*
X279686Y182436D03*
X279686Y163640D03*
D13*
X297250Y195600D02*
X297250Y199777D01*
X297248Y199878D01*
X297242Y199979D01*
X297232Y200080D01*
X297219Y200180D01*
X297201Y200280D01*
X297180Y200379D01*
X297154Y200477D01*
X297125Y200574D01*
X297093Y200670D01*
X297056Y200764D01*
X297016Y200857D01*
X296972Y200949D01*
X296925Y201038D01*
X296874Y201126D01*
X296820Y201212D01*
X296763Y201295D01*
X296703Y201377D01*
X296639Y201455D01*
X296573Y201532D01*
X296503Y201605D01*
X296431Y201676D01*
X296356Y201744D01*
X296278Y201809D01*
X296198Y201871D01*
X296116Y201930D01*
X296031Y201986D01*
X295945Y202038D01*
X295856Y202087D01*
X295765Y202133D01*
X295673Y202174D01*
X295579Y202213D01*
X295484Y202247D01*
X295388Y202278D01*
X295290Y202305D01*
X295192Y202329D01*
X295092Y202348D01*
X294992Y202364D01*
X294892Y202376D01*
X294791Y202384D01*
X294690Y202388D01*
X294588Y202388D01*
X294487Y202384D01*
X294386Y202376D01*
X294286Y202364D01*
X294186Y202348D01*
X294086Y202329D01*
X293988Y202305D01*
X293890Y202278D01*
X293794Y202247D01*
X293699Y202213D01*
X293605Y202174D01*
X293513Y202133D01*
X293422Y202087D01*
X293334Y202038D01*
X293247Y201986D01*
X293162Y201930D01*
X293080Y201871D01*
X293000Y201809D01*
X292922Y201744D01*
X292847Y201676D01*
X292775Y201605D01*
X292705Y201532D01*
X292639Y201455D01*
X292575Y201377D01*
X292515Y201295D01*
X292458Y201212D01*
X292404Y201126D01*
X292353Y201038D01*
X292306Y200949D01*
X292262Y200857D01*
X292222Y200764D01*
X292185Y200670D01*
X292153Y200574D01*
X292124Y200477D01*
X292098Y200379D01*
X292077Y200280D01*
X292059Y200180D01*
X292046Y200080D01*
X292036Y199979D01*
X292030Y199878D01*
X292028Y199777D01*
X292029Y199777D02*
X292029Y195600D01*
X292028Y195600D02*
X292030Y195499D01*
X292036Y195398D01*
X292046Y195297D01*
X292059Y195197D01*
X292077Y195097D01*
X292098Y194998D01*
X292124Y194900D01*
X292153Y194803D01*
X292185Y194707D01*
X292222Y194613D01*
X292262Y194520D01*
X292306Y194428D01*
X292353Y194339D01*
X292404Y194251D01*
X292458Y194165D01*
X292515Y194082D01*
X292575Y194000D01*
X292639Y193922D01*
X292705Y193845D01*
X292775Y193772D01*
X292847Y193701D01*
X292922Y193633D01*
X293000Y193568D01*
X293080Y193506D01*
X293162Y193447D01*
X293247Y193391D01*
X293334Y193339D01*
X293422Y193290D01*
X293513Y193244D01*
X293605Y193203D01*
X293699Y193164D01*
X293794Y193130D01*
X293890Y193099D01*
X293988Y193072D01*
X294086Y193048D01*
X294186Y193029D01*
X294286Y193013D01*
X294386Y193001D01*
X294487Y192993D01*
X294588Y192989D01*
X294690Y192989D01*
X294791Y192993D01*
X294892Y193001D01*
X294992Y193013D01*
X295092Y193029D01*
X295192Y193048D01*
X295290Y193072D01*
X295388Y193099D01*
X295484Y193130D01*
X295579Y193164D01*
X295673Y193203D01*
X295765Y193244D01*
X295856Y193290D01*
X295944Y193339D01*
X296031Y193391D01*
X296116Y193447D01*
X296198Y193506D01*
X296278Y193568D01*
X296356Y193633D01*
X296431Y193701D01*
X296503Y193772D01*
X296573Y193845D01*
X296639Y193922D01*
X296703Y194000D01*
X296763Y194082D01*
X296820Y194165D01*
X296874Y194251D01*
X296925Y194339D01*
X296972Y194428D01*
X297016Y194520D01*
X297056Y194613D01*
X297093Y194707D01*
X297125Y194803D01*
X297154Y194900D01*
X297180Y194998D01*
X297201Y195097D01*
X297219Y195197D01*
X297232Y195297D01*
X297242Y195398D01*
X297248Y195499D01*
X297250Y195600D01*
X293073Y195078D02*
X290985Y192989D01*
X283096Y200038D02*
X283098Y200133D01*
X283104Y200227D01*
X283113Y200321D01*
X283126Y200415D01*
X283143Y200508D01*
X283164Y200600D01*
X283189Y200692D01*
X283217Y200782D01*
X283249Y200871D01*
X283284Y200959D01*
X283323Y201045D01*
X283365Y201130D01*
X283411Y201213D01*
X283460Y201294D01*
X283512Y201373D01*
X283567Y201450D01*
X283626Y201524D01*
X283687Y201596D01*
X283751Y201666D01*
X283818Y201733D01*
X283888Y201797D01*
X283960Y201858D01*
X284034Y201917D01*
X284111Y201972D01*
X284190Y202024D01*
X284271Y202073D01*
X284354Y202119D01*
X284439Y202161D01*
X284525Y202200D01*
X284613Y202235D01*
X284702Y202267D01*
X284792Y202295D01*
X284884Y202320D01*
X284976Y202341D01*
X285069Y202358D01*
X285163Y202371D01*
X285257Y202380D01*
X285351Y202386D01*
X285446Y202388D01*
X285446Y202387D02*
X285554Y202385D01*
X285663Y202379D01*
X285771Y202369D01*
X285878Y202356D01*
X285985Y202338D01*
X286092Y202317D01*
X286197Y202292D01*
X286302Y202263D01*
X286405Y202231D01*
X286507Y202194D01*
X286608Y202154D01*
X286707Y202111D01*
X286805Y202064D01*
X286901Y202013D01*
X286995Y201959D01*
X287087Y201902D01*
X287177Y201841D01*
X287265Y201777D01*
X287350Y201711D01*
X287433Y201641D01*
X287513Y201568D01*
X287591Y201492D01*
X287666Y201414D01*
X287738Y201333D01*
X287807Y201249D01*
X287873Y201163D01*
X287936Y201075D01*
X287995Y200984D01*
X288052Y200892D01*
X288105Y200797D01*
X288154Y200700D01*
X288200Y200602D01*
X288243Y200503D01*
X288282Y200401D01*
X288317Y200299D01*
X283880Y198210D02*
X283811Y198279D01*
X283745Y198350D01*
X283681Y198423D01*
X283620Y198499D01*
X283562Y198578D01*
X283508Y198658D01*
X283456Y198741D01*
X283408Y198825D01*
X283362Y198911D01*
X283321Y198999D01*
X283282Y199089D01*
X283247Y199180D01*
X283216Y199272D01*
X283188Y199365D01*
X283164Y199459D01*
X283144Y199554D01*
X283127Y199650D01*
X283114Y199747D01*
X283105Y199844D01*
X283099Y199941D01*
X283097Y200038D01*
X283880Y198210D02*
X288318Y192989D01*
X283097Y192989D01*
X252032Y216281D02*
X252032Y225679D01*
X249421Y225679D01*
X249320Y225677D01*
X249219Y225671D01*
X249118Y225661D01*
X249018Y225648D01*
X248918Y225630D01*
X248819Y225609D01*
X248721Y225583D01*
X248624Y225554D01*
X248528Y225522D01*
X248434Y225485D01*
X248341Y225445D01*
X248249Y225401D01*
X248160Y225354D01*
X248072Y225303D01*
X247986Y225249D01*
X247903Y225192D01*
X247821Y225132D01*
X247743Y225068D01*
X247666Y225002D01*
X247593Y224932D01*
X247522Y224860D01*
X247454Y224785D01*
X247389Y224707D01*
X247327Y224627D01*
X247268Y224545D01*
X247212Y224460D01*
X247160Y224374D01*
X247111Y224285D01*
X247065Y224194D01*
X247024Y224102D01*
X246985Y224008D01*
X246951Y223913D01*
X246920Y223817D01*
X246893Y223719D01*
X246869Y223621D01*
X246850Y223521D01*
X246834Y223421D01*
X246822Y223321D01*
X246814Y223220D01*
X246810Y223119D01*
X246810Y223017D01*
X246814Y222916D01*
X246822Y222815D01*
X246834Y222715D01*
X246850Y222615D01*
X246869Y222515D01*
X246893Y222417D01*
X246920Y222319D01*
X246951Y222223D01*
X246985Y222128D01*
X247024Y222034D01*
X247065Y221942D01*
X247111Y221851D01*
X247160Y221763D01*
X247212Y221676D01*
X247268Y221591D01*
X247327Y221509D01*
X247389Y221429D01*
X247454Y221351D01*
X247522Y221276D01*
X247593Y221204D01*
X247666Y221134D01*
X247743Y221068D01*
X247821Y221004D01*
X247903Y220944D01*
X247986Y220887D01*
X248072Y220833D01*
X248160Y220782D01*
X248249Y220735D01*
X248341Y220691D01*
X248434Y220651D01*
X248528Y220614D01*
X248624Y220582D01*
X248721Y220553D01*
X248819Y220527D01*
X248918Y220506D01*
X249018Y220488D01*
X249118Y220475D01*
X249219Y220465D01*
X249320Y220459D01*
X249421Y220457D01*
X249421Y220458D02*
X252032Y220458D01*
X248899Y220458D02*
X246810Y216281D01*
X242945Y216281D02*
X239812Y216281D01*
X239723Y216283D01*
X239635Y216289D01*
X239547Y216298D01*
X239459Y216311D01*
X239372Y216328D01*
X239286Y216348D01*
X239201Y216373D01*
X239116Y216400D01*
X239033Y216432D01*
X238952Y216466D01*
X238872Y216505D01*
X238794Y216546D01*
X238717Y216591D01*
X238643Y216639D01*
X238570Y216690D01*
X238500Y216744D01*
X238433Y216802D01*
X238367Y216862D01*
X238305Y216924D01*
X238245Y216990D01*
X238187Y217057D01*
X238133Y217127D01*
X238082Y217200D01*
X238034Y217274D01*
X237989Y217351D01*
X237948Y217429D01*
X237909Y217509D01*
X237875Y217590D01*
X237843Y217673D01*
X237816Y217758D01*
X237791Y217843D01*
X237771Y217929D01*
X237754Y218016D01*
X237741Y218104D01*
X237732Y218192D01*
X237726Y218280D01*
X237724Y218369D01*
X237724Y219414D01*
X237726Y219503D01*
X237732Y219591D01*
X237741Y219679D01*
X237754Y219767D01*
X237771Y219854D01*
X237791Y219940D01*
X237816Y220025D01*
X237843Y220110D01*
X237875Y220193D01*
X237909Y220274D01*
X237948Y220354D01*
X237989Y220432D01*
X238034Y220509D01*
X238082Y220583D01*
X238133Y220656D01*
X238187Y220726D01*
X238245Y220793D01*
X238305Y220859D01*
X238367Y220921D01*
X238433Y220981D01*
X238500Y221039D01*
X238570Y221093D01*
X238643Y221144D01*
X238717Y221192D01*
X238794Y221237D01*
X238872Y221278D01*
X238952Y221317D01*
X239033Y221351D01*
X239116Y221383D01*
X239201Y221410D01*
X239286Y221435D01*
X239372Y221455D01*
X239459Y221472D01*
X239547Y221485D01*
X239635Y221494D01*
X239723Y221500D01*
X239812Y221502D01*
X242945Y221502D01*
X242945Y225679D01*
X237724Y225679D01*
X335344Y241681D02*
X344742Y241681D01*
X344742Y244292D01*
X344740Y244393D01*
X344734Y244494D01*
X344724Y244595D01*
X344711Y244695D01*
X344693Y244795D01*
X344672Y244894D01*
X344646Y244992D01*
X344617Y245089D01*
X344585Y245185D01*
X344548Y245279D01*
X344508Y245372D01*
X344464Y245464D01*
X344417Y245553D01*
X344366Y245641D01*
X344312Y245727D01*
X344255Y245810D01*
X344195Y245892D01*
X344131Y245970D01*
X344065Y246047D01*
X343995Y246120D01*
X343923Y246191D01*
X343848Y246259D01*
X343770Y246324D01*
X343690Y246386D01*
X343608Y246445D01*
X343523Y246501D01*
X343437Y246553D01*
X343348Y246602D01*
X343257Y246648D01*
X343165Y246689D01*
X343071Y246728D01*
X342976Y246762D01*
X342880Y246793D01*
X342782Y246820D01*
X342684Y246844D01*
X342584Y246863D01*
X342484Y246879D01*
X342384Y246891D01*
X342283Y246899D01*
X342182Y246903D01*
X342080Y246903D01*
X341979Y246899D01*
X341878Y246891D01*
X341778Y246879D01*
X341678Y246863D01*
X341578Y246844D01*
X341480Y246820D01*
X341382Y246793D01*
X341286Y246762D01*
X341191Y246728D01*
X341097Y246689D01*
X341005Y246648D01*
X340914Y246602D01*
X340826Y246553D01*
X340739Y246501D01*
X340654Y246445D01*
X340572Y246386D01*
X340492Y246324D01*
X340414Y246259D01*
X340339Y246191D01*
X340267Y246120D01*
X340197Y246047D01*
X340131Y245970D01*
X340067Y245892D01*
X340007Y245810D01*
X339950Y245727D01*
X339896Y245641D01*
X339845Y245553D01*
X339798Y245464D01*
X339754Y245372D01*
X339714Y245279D01*
X339677Y245185D01*
X339645Y245089D01*
X339616Y244992D01*
X339590Y244894D01*
X339569Y244795D01*
X339551Y244695D01*
X339538Y244595D01*
X339528Y244494D01*
X339522Y244393D01*
X339520Y244292D01*
X339520Y241681D01*
X339520Y244814D02*
X335344Y246902D01*
X340565Y250768D02*
X340565Y253901D01*
X340564Y253901D02*
X340562Y253990D01*
X340556Y254078D01*
X340547Y254166D01*
X340534Y254254D01*
X340517Y254341D01*
X340497Y254427D01*
X340472Y254512D01*
X340445Y254597D01*
X340413Y254680D01*
X340379Y254761D01*
X340340Y254841D01*
X340299Y254919D01*
X340254Y254996D01*
X340206Y255070D01*
X340155Y255143D01*
X340101Y255213D01*
X340043Y255280D01*
X339983Y255346D01*
X339921Y255408D01*
X339855Y255468D01*
X339788Y255526D01*
X339718Y255580D01*
X339645Y255631D01*
X339571Y255679D01*
X339494Y255724D01*
X339416Y255765D01*
X339336Y255804D01*
X339255Y255838D01*
X339172Y255870D01*
X339087Y255897D01*
X339002Y255922D01*
X338916Y255942D01*
X338829Y255959D01*
X338741Y255972D01*
X338653Y255981D01*
X338565Y255987D01*
X338476Y255989D01*
X337954Y255989D01*
X337853Y255987D01*
X337752Y255981D01*
X337651Y255971D01*
X337551Y255958D01*
X337451Y255940D01*
X337352Y255919D01*
X337254Y255893D01*
X337157Y255864D01*
X337061Y255832D01*
X336967Y255795D01*
X336874Y255755D01*
X336782Y255711D01*
X336693Y255664D01*
X336605Y255613D01*
X336519Y255559D01*
X336436Y255502D01*
X336354Y255442D01*
X336276Y255378D01*
X336199Y255312D01*
X336126Y255242D01*
X336055Y255170D01*
X335987Y255095D01*
X335922Y255017D01*
X335860Y254937D01*
X335801Y254855D01*
X335745Y254770D01*
X335693Y254684D01*
X335644Y254595D01*
X335598Y254504D01*
X335557Y254412D01*
X335518Y254318D01*
X335484Y254223D01*
X335453Y254127D01*
X335426Y254029D01*
X335402Y253931D01*
X335383Y253831D01*
X335367Y253731D01*
X335355Y253631D01*
X335347Y253530D01*
X335343Y253429D01*
X335343Y253327D01*
X335347Y253226D01*
X335355Y253125D01*
X335367Y253025D01*
X335383Y252925D01*
X335402Y252825D01*
X335426Y252727D01*
X335453Y252629D01*
X335484Y252533D01*
X335518Y252438D01*
X335557Y252344D01*
X335598Y252252D01*
X335644Y252161D01*
X335693Y252073D01*
X335745Y251986D01*
X335801Y251901D01*
X335860Y251819D01*
X335922Y251739D01*
X335987Y251661D01*
X336055Y251586D01*
X336126Y251514D01*
X336199Y251444D01*
X336276Y251378D01*
X336354Y251314D01*
X336436Y251254D01*
X336519Y251197D01*
X336605Y251143D01*
X336693Y251092D01*
X336782Y251045D01*
X336874Y251001D01*
X336967Y250961D01*
X337061Y250924D01*
X337157Y250892D01*
X337254Y250863D01*
X337352Y250837D01*
X337451Y250816D01*
X337551Y250798D01*
X337651Y250785D01*
X337752Y250775D01*
X337853Y250769D01*
X337954Y250767D01*
X337954Y250768D02*
X340565Y250768D01*
X340694Y250770D01*
X340822Y250776D01*
X340950Y250786D01*
X341078Y250800D01*
X341206Y250817D01*
X341333Y250839D01*
X341459Y250865D01*
X341584Y250894D01*
X341708Y250927D01*
X341831Y250965D01*
X341953Y251005D01*
X342074Y251050D01*
X342193Y251098D01*
X342311Y251150D01*
X342427Y251206D01*
X342541Y251265D01*
X342653Y251328D01*
X342764Y251394D01*
X342872Y251463D01*
X342978Y251536D01*
X343082Y251612D01*
X343184Y251691D01*
X343283Y251773D01*
X343379Y251858D01*
X343473Y251946D01*
X343564Y252037D01*
X343652Y252131D01*
X343737Y252227D01*
X343819Y252326D01*
X343898Y252428D01*
X343974Y252532D01*
X344047Y252638D01*
X344116Y252746D01*
X344182Y252856D01*
X344245Y252969D01*
X344304Y253083D01*
X344360Y253199D01*
X344412Y253317D01*
X344460Y253436D01*
X344505Y253557D01*
X344545Y253679D01*
X344583Y253802D01*
X344616Y253926D01*
X344645Y254051D01*
X344671Y254177D01*
X344693Y254304D01*
X344710Y254432D01*
X344724Y254560D01*
X344734Y254688D01*
X344740Y254816D01*
X344742Y254945D01*
X338550Y159142D02*
X329152Y159142D01*
X338550Y159142D02*
X338550Y161753D01*
X338551Y161753D02*
X338549Y161854D01*
X338543Y161955D01*
X338533Y162056D01*
X338520Y162156D01*
X338502Y162256D01*
X338481Y162355D01*
X338455Y162453D01*
X338426Y162550D01*
X338394Y162646D01*
X338357Y162740D01*
X338317Y162833D01*
X338273Y162925D01*
X338226Y163014D01*
X338175Y163102D01*
X338121Y163188D01*
X338064Y163271D01*
X338004Y163353D01*
X337940Y163431D01*
X337874Y163508D01*
X337804Y163581D01*
X337732Y163652D01*
X337657Y163720D01*
X337579Y163785D01*
X337499Y163847D01*
X337417Y163906D01*
X337332Y163962D01*
X337246Y164014D01*
X337157Y164063D01*
X337066Y164109D01*
X336974Y164150D01*
X336880Y164189D01*
X336785Y164223D01*
X336689Y164254D01*
X336591Y164281D01*
X336493Y164305D01*
X336393Y164324D01*
X336293Y164340D01*
X336193Y164352D01*
X336092Y164360D01*
X335991Y164364D01*
X335889Y164364D01*
X335788Y164360D01*
X335687Y164352D01*
X335587Y164340D01*
X335487Y164324D01*
X335387Y164305D01*
X335289Y164281D01*
X335191Y164254D01*
X335095Y164223D01*
X335000Y164189D01*
X334906Y164150D01*
X334814Y164109D01*
X334723Y164063D01*
X334635Y164014D01*
X334548Y163962D01*
X334463Y163906D01*
X334381Y163847D01*
X334301Y163785D01*
X334223Y163720D01*
X334148Y163652D01*
X334076Y163581D01*
X334006Y163508D01*
X333940Y163431D01*
X333876Y163353D01*
X333816Y163271D01*
X333759Y163188D01*
X333705Y163102D01*
X333654Y163014D01*
X333607Y162925D01*
X333563Y162833D01*
X333523Y162740D01*
X333486Y162646D01*
X333454Y162550D01*
X333425Y162453D01*
X333399Y162355D01*
X333378Y162256D01*
X333360Y162156D01*
X333347Y162056D01*
X333337Y161955D01*
X333331Y161854D01*
X333329Y161753D01*
X333329Y159142D01*
X333329Y162275D02*
X329152Y164363D01*
X337506Y168229D02*
X338550Y168229D01*
X338550Y173450D01*
X329152Y170840D01*
X539337Y213607D02*
X539337Y215695D01*
X539338Y213607D02*
X539340Y213518D01*
X539346Y213430D01*
X539355Y213342D01*
X539368Y213254D01*
X539385Y213167D01*
X539405Y213081D01*
X539430Y212996D01*
X539457Y212911D01*
X539489Y212828D01*
X539523Y212747D01*
X539562Y212667D01*
X539603Y212589D01*
X539648Y212512D01*
X539696Y212438D01*
X539747Y212365D01*
X539801Y212295D01*
X539859Y212228D01*
X539919Y212162D01*
X539981Y212100D01*
X540047Y212040D01*
X540114Y211982D01*
X540184Y211928D01*
X540257Y211877D01*
X540331Y211829D01*
X540408Y211784D01*
X540486Y211743D01*
X540566Y211704D01*
X540647Y211670D01*
X540730Y211638D01*
X540815Y211611D01*
X540900Y211586D01*
X540986Y211566D01*
X541073Y211549D01*
X541161Y211536D01*
X541249Y211527D01*
X541337Y211521D01*
X541426Y211519D01*
X546647Y211519D01*
X546738Y211521D01*
X546829Y211527D01*
X546920Y211537D01*
X547010Y211551D01*
X547099Y211568D01*
X547187Y211590D01*
X547275Y211616D01*
X547361Y211645D01*
X547446Y211678D01*
X547529Y211715D01*
X547611Y211755D01*
X547691Y211799D01*
X547769Y211846D01*
X547845Y211897D01*
X547918Y211950D01*
X547989Y212007D01*
X548058Y212068D01*
X548123Y212131D01*
X548186Y212196D01*
X548246Y212265D01*
X548304Y212336D01*
X548357Y212409D01*
X548408Y212485D01*
X548455Y212563D01*
X548499Y212643D01*
X548539Y212725D01*
X548576Y212808D01*
X548609Y212893D01*
X548638Y212979D01*
X548664Y213067D01*
X548686Y213155D01*
X548703Y213244D01*
X548717Y213334D01*
X548727Y213425D01*
X548733Y213516D01*
X548735Y213607D01*
X548735Y215695D01*
X546647Y219164D02*
X548735Y221775D01*
X539337Y221775D01*
X539337Y224385D02*
X539337Y219164D01*
X544036Y228308D02*
X544221Y228310D01*
X544406Y228317D01*
X544590Y228328D01*
X544774Y228343D01*
X544958Y228363D01*
X545142Y228387D01*
X545324Y228416D01*
X545506Y228449D01*
X545687Y228486D01*
X545867Y228528D01*
X546047Y228574D01*
X546225Y228624D01*
X546401Y228678D01*
X546577Y228737D01*
X546751Y228799D01*
X546923Y228866D01*
X547094Y228937D01*
X547263Y229012D01*
X547430Y229091D01*
X547510Y229121D01*
X547589Y229154D01*
X547666Y229191D01*
X547742Y229231D01*
X547816Y229274D01*
X547888Y229320D01*
X547957Y229370D01*
X548025Y229422D01*
X548090Y229478D01*
X548153Y229536D01*
X548212Y229598D01*
X548270Y229661D01*
X548324Y229728D01*
X548375Y229796D01*
X548423Y229867D01*
X548468Y229940D01*
X548510Y230014D01*
X548548Y230091D01*
X548583Y230169D01*
X548615Y230248D01*
X548643Y230329D01*
X548667Y230411D01*
X548688Y230495D01*
X548705Y230578D01*
X548718Y230663D01*
X548727Y230748D01*
X548733Y230833D01*
X548735Y230919D01*
X548733Y231005D01*
X548727Y231090D01*
X548718Y231175D01*
X548705Y231260D01*
X548688Y231343D01*
X548667Y231427D01*
X548643Y231509D01*
X548615Y231590D01*
X548583Y231669D01*
X548548Y231747D01*
X548510Y231824D01*
X548468Y231898D01*
X548423Y231971D01*
X548375Y232042D01*
X548324Y232110D01*
X548270Y232177D01*
X548212Y232240D01*
X548153Y232302D01*
X548090Y232360D01*
X548025Y232416D01*
X547957Y232468D01*
X547888Y232518D01*
X547816Y232564D01*
X547742Y232607D01*
X547666Y232647D01*
X547589Y232684D01*
X547510Y232717D01*
X547430Y232747D01*
X547263Y232826D01*
X547094Y232901D01*
X546923Y232972D01*
X546751Y233039D01*
X546577Y233101D01*
X546401Y233160D01*
X546225Y233214D01*
X546047Y233264D01*
X545867Y233310D01*
X545687Y233352D01*
X545506Y233389D01*
X545324Y233422D01*
X545142Y233451D01*
X544958Y233475D01*
X544774Y233495D01*
X544590Y233510D01*
X544406Y233521D01*
X544221Y233528D01*
X544036Y233530D01*
X544036Y228308D02*
X543851Y228310D01*
X543666Y228317D01*
X543482Y228328D01*
X543298Y228343D01*
X543114Y228363D01*
X542930Y228387D01*
X542748Y228416D01*
X542566Y228449D01*
X542385Y228486D01*
X542205Y228528D01*
X542025Y228574D01*
X541847Y228624D01*
X541671Y228678D01*
X541495Y228737D01*
X541321Y228799D01*
X541149Y228866D01*
X540978Y228937D01*
X540809Y229012D01*
X540642Y229091D01*
X540562Y229121D01*
X540483Y229154D01*
X540406Y229191D01*
X540330Y229231D01*
X540256Y229274D01*
X540184Y229320D01*
X540115Y229370D01*
X540047Y229423D01*
X539982Y229478D01*
X539919Y229537D01*
X539860Y229598D01*
X539802Y229661D01*
X539748Y229728D01*
X539697Y229796D01*
X539649Y229867D01*
X539604Y229940D01*
X539562Y230014D01*
X539524Y230091D01*
X539489Y230169D01*
X539457Y230248D01*
X539429Y230329D01*
X539405Y230411D01*
X539384Y230495D01*
X539367Y230578D01*
X539354Y230663D01*
X539345Y230748D01*
X539339Y230833D01*
X539337Y230919D01*
X540642Y232746D02*
X540809Y232825D01*
X540978Y232900D01*
X541149Y232971D01*
X541321Y233038D01*
X541495Y233100D01*
X541671Y233159D01*
X541847Y233213D01*
X542025Y233263D01*
X542205Y233309D01*
X542385Y233351D01*
X542566Y233388D01*
X542748Y233421D01*
X542930Y233450D01*
X543114Y233474D01*
X543298Y233494D01*
X543482Y233509D01*
X543666Y233520D01*
X543851Y233527D01*
X544036Y233529D01*
X540642Y232747D02*
X540562Y232717D01*
X540483Y232684D01*
X540406Y232647D01*
X540330Y232607D01*
X540256Y232564D01*
X540184Y232518D01*
X540115Y232468D01*
X540047Y232416D01*
X539982Y232360D01*
X539919Y232302D01*
X539860Y232240D01*
X539802Y232177D01*
X539748Y232110D01*
X539697Y232042D01*
X539649Y231971D01*
X539604Y231898D01*
X539562Y231824D01*
X539524Y231747D01*
X539489Y231669D01*
X539457Y231590D01*
X539429Y231509D01*
X539405Y231427D01*
X539384Y231343D01*
X539367Y231260D01*
X539354Y231175D01*
X539345Y231090D01*
X539339Y231005D01*
X539337Y230919D01*
X541426Y228830D02*
X546647Y233007D01*
D10*
X524307Y199714D02*
X504177Y199714D01*
D13*
X493300Y208051D02*
X493300Y210139D01*
X493300Y208051D02*
X493302Y207962D01*
X493308Y207874D01*
X493317Y207786D01*
X493330Y207698D01*
X493347Y207611D01*
X493367Y207525D01*
X493392Y207440D01*
X493419Y207355D01*
X493451Y207272D01*
X493485Y207191D01*
X493524Y207111D01*
X493565Y207033D01*
X493610Y206956D01*
X493658Y206882D01*
X493709Y206809D01*
X493763Y206739D01*
X493821Y206672D01*
X493881Y206606D01*
X493943Y206544D01*
X494009Y206484D01*
X494076Y206426D01*
X494146Y206372D01*
X494219Y206321D01*
X494293Y206273D01*
X494370Y206228D01*
X494448Y206187D01*
X494528Y206148D01*
X494609Y206114D01*
X494692Y206082D01*
X494777Y206055D01*
X494862Y206030D01*
X494948Y206010D01*
X495035Y205993D01*
X495123Y205980D01*
X495211Y205971D01*
X495299Y205965D01*
X495388Y205963D01*
X495388Y205962D02*
X500609Y205962D01*
X500609Y205963D02*
X500700Y205965D01*
X500791Y205971D01*
X500882Y205981D01*
X500972Y205995D01*
X501061Y206012D01*
X501149Y206034D01*
X501237Y206060D01*
X501323Y206089D01*
X501408Y206122D01*
X501491Y206159D01*
X501573Y206199D01*
X501653Y206243D01*
X501731Y206290D01*
X501807Y206341D01*
X501880Y206394D01*
X501951Y206451D01*
X502020Y206512D01*
X502085Y206575D01*
X502148Y206640D01*
X502208Y206709D01*
X502266Y206780D01*
X502319Y206853D01*
X502370Y206929D01*
X502417Y207007D01*
X502461Y207087D01*
X502501Y207169D01*
X502538Y207252D01*
X502571Y207337D01*
X502600Y207423D01*
X502626Y207511D01*
X502648Y207599D01*
X502665Y207688D01*
X502679Y207778D01*
X502689Y207869D01*
X502695Y207960D01*
X502697Y208051D01*
X502698Y208051D02*
X502698Y210139D01*
X500609Y213608D02*
X502698Y216218D01*
X493300Y216218D01*
X493300Y213608D02*
X493300Y218829D01*
X500609Y222752D02*
X502698Y225362D01*
X493300Y225362D01*
X493300Y222752D02*
X493300Y227973D01*
X429331Y101981D02*
X427242Y101981D01*
X429331Y101981D02*
X429420Y101983D01*
X429508Y101989D01*
X429596Y101998D01*
X429684Y102011D01*
X429771Y102028D01*
X429857Y102048D01*
X429942Y102073D01*
X430027Y102100D01*
X430110Y102132D01*
X430191Y102166D01*
X430271Y102205D01*
X430349Y102246D01*
X430426Y102291D01*
X430500Y102339D01*
X430573Y102390D01*
X430643Y102444D01*
X430710Y102502D01*
X430776Y102562D01*
X430838Y102624D01*
X430898Y102690D01*
X430956Y102757D01*
X431010Y102827D01*
X431061Y102900D01*
X431109Y102974D01*
X431154Y103051D01*
X431195Y103129D01*
X431234Y103209D01*
X431268Y103290D01*
X431300Y103373D01*
X431327Y103458D01*
X431352Y103543D01*
X431372Y103629D01*
X431389Y103716D01*
X431402Y103804D01*
X431411Y103892D01*
X431417Y103980D01*
X431419Y104069D01*
X431419Y109291D01*
X431417Y109380D01*
X431411Y109468D01*
X431402Y109556D01*
X431389Y109644D01*
X431372Y109731D01*
X431352Y109817D01*
X431327Y109902D01*
X431300Y109987D01*
X431268Y110070D01*
X431234Y110151D01*
X431195Y110231D01*
X431154Y110309D01*
X431109Y110386D01*
X431061Y110460D01*
X431010Y110533D01*
X430956Y110603D01*
X430898Y110670D01*
X430838Y110736D01*
X430776Y110798D01*
X430710Y110858D01*
X430643Y110916D01*
X430573Y110970D01*
X430500Y111021D01*
X430426Y111069D01*
X430349Y111114D01*
X430271Y111155D01*
X430191Y111194D01*
X430110Y111228D01*
X430027Y111260D01*
X429942Y111287D01*
X429857Y111312D01*
X429771Y111332D01*
X429684Y111349D01*
X429596Y111362D01*
X429508Y111371D01*
X429420Y111377D01*
X429331Y111379D01*
X427242Y111379D01*
X423773Y109291D02*
X421163Y111379D01*
X421163Y101981D01*
X423773Y101981D02*
X418552Y101981D01*
X409408Y109030D02*
X409410Y109125D01*
X409416Y109219D01*
X409425Y109313D01*
X409438Y109407D01*
X409455Y109500D01*
X409476Y109592D01*
X409501Y109684D01*
X409529Y109774D01*
X409561Y109863D01*
X409596Y109951D01*
X409635Y110037D01*
X409677Y110122D01*
X409723Y110205D01*
X409772Y110286D01*
X409824Y110365D01*
X409879Y110442D01*
X409938Y110516D01*
X409999Y110588D01*
X410063Y110658D01*
X410130Y110725D01*
X410200Y110789D01*
X410272Y110850D01*
X410346Y110909D01*
X410423Y110964D01*
X410502Y111016D01*
X410583Y111065D01*
X410666Y111111D01*
X410751Y111153D01*
X410837Y111192D01*
X410925Y111227D01*
X411014Y111259D01*
X411104Y111287D01*
X411196Y111312D01*
X411288Y111333D01*
X411381Y111350D01*
X411475Y111363D01*
X411569Y111372D01*
X411663Y111378D01*
X411758Y111380D01*
X411758Y111379D02*
X411866Y111377D01*
X411975Y111371D01*
X412083Y111361D01*
X412190Y111348D01*
X412297Y111330D01*
X412404Y111309D01*
X412509Y111284D01*
X412614Y111255D01*
X412717Y111223D01*
X412819Y111186D01*
X412920Y111146D01*
X413019Y111103D01*
X413117Y111056D01*
X413213Y111005D01*
X413307Y110951D01*
X413399Y110894D01*
X413489Y110833D01*
X413577Y110769D01*
X413662Y110703D01*
X413745Y110633D01*
X413825Y110560D01*
X413903Y110484D01*
X413978Y110406D01*
X414050Y110325D01*
X414119Y110241D01*
X414185Y110155D01*
X414248Y110067D01*
X414307Y109976D01*
X414364Y109884D01*
X414417Y109789D01*
X414466Y109692D01*
X414512Y109594D01*
X414555Y109495D01*
X414594Y109393D01*
X414629Y109291D01*
X410191Y107202D02*
X410122Y107271D01*
X410056Y107342D01*
X409992Y107415D01*
X409931Y107491D01*
X409873Y107570D01*
X409819Y107650D01*
X409767Y107733D01*
X409719Y107817D01*
X409673Y107903D01*
X409632Y107991D01*
X409593Y108081D01*
X409558Y108172D01*
X409527Y108264D01*
X409499Y108357D01*
X409475Y108451D01*
X409455Y108546D01*
X409438Y108642D01*
X409425Y108739D01*
X409416Y108836D01*
X409410Y108933D01*
X409408Y109030D01*
X410191Y107202D02*
X414629Y101981D01*
X409408Y101981D01*
D10*
X440049Y129527D02*
X440049Y149657D01*
D13*
X430124Y152781D02*
X428036Y152781D01*
X430124Y152781D02*
X430213Y152783D01*
X430301Y152789D01*
X430389Y152798D01*
X430477Y152811D01*
X430564Y152828D01*
X430650Y152848D01*
X430735Y152873D01*
X430820Y152900D01*
X430903Y152932D01*
X430984Y152966D01*
X431064Y153005D01*
X431142Y153046D01*
X431219Y153091D01*
X431293Y153139D01*
X431366Y153190D01*
X431436Y153244D01*
X431503Y153302D01*
X431569Y153362D01*
X431631Y153424D01*
X431691Y153490D01*
X431749Y153557D01*
X431803Y153627D01*
X431854Y153700D01*
X431902Y153774D01*
X431947Y153851D01*
X431988Y153929D01*
X432027Y154009D01*
X432061Y154090D01*
X432093Y154173D01*
X432120Y154258D01*
X432145Y154343D01*
X432165Y154429D01*
X432182Y154516D01*
X432195Y154604D01*
X432204Y154692D01*
X432210Y154780D01*
X432212Y154869D01*
X432213Y154869D02*
X432213Y160091D01*
X432212Y160091D02*
X432210Y160180D01*
X432204Y160268D01*
X432195Y160356D01*
X432182Y160444D01*
X432165Y160531D01*
X432145Y160617D01*
X432120Y160702D01*
X432093Y160787D01*
X432061Y160870D01*
X432027Y160951D01*
X431988Y161031D01*
X431947Y161109D01*
X431902Y161186D01*
X431854Y161260D01*
X431803Y161333D01*
X431749Y161403D01*
X431691Y161470D01*
X431631Y161536D01*
X431569Y161598D01*
X431503Y161658D01*
X431436Y161716D01*
X431366Y161770D01*
X431293Y161821D01*
X431219Y161869D01*
X431142Y161914D01*
X431064Y161955D01*
X430984Y161994D01*
X430903Y162028D01*
X430820Y162060D01*
X430735Y162087D01*
X430650Y162112D01*
X430564Y162132D01*
X430477Y162149D01*
X430389Y162162D01*
X430301Y162171D01*
X430213Y162177D01*
X430124Y162179D01*
X428036Y162179D01*
X424567Y160091D02*
X421957Y162179D01*
X421957Y152781D01*
X424567Y152781D02*
X419346Y152781D01*
X415423Y152781D02*
X412813Y152781D01*
X412712Y152783D01*
X412611Y152789D01*
X412510Y152799D01*
X412410Y152812D01*
X412310Y152830D01*
X412211Y152851D01*
X412113Y152877D01*
X412016Y152906D01*
X411920Y152938D01*
X411826Y152975D01*
X411733Y153015D01*
X411641Y153059D01*
X411552Y153106D01*
X411464Y153157D01*
X411378Y153211D01*
X411295Y153268D01*
X411213Y153328D01*
X411135Y153392D01*
X411058Y153458D01*
X410985Y153528D01*
X410914Y153600D01*
X410846Y153675D01*
X410781Y153753D01*
X410719Y153833D01*
X410660Y153915D01*
X410604Y154000D01*
X410552Y154087D01*
X410503Y154175D01*
X410457Y154266D01*
X410416Y154358D01*
X410377Y154452D01*
X410343Y154547D01*
X410312Y154643D01*
X410285Y154741D01*
X410261Y154839D01*
X410242Y154939D01*
X410226Y155039D01*
X410214Y155139D01*
X410206Y155240D01*
X410202Y155341D01*
X410202Y155443D01*
X410206Y155544D01*
X410214Y155645D01*
X410226Y155745D01*
X410242Y155845D01*
X410261Y155945D01*
X410285Y156043D01*
X410312Y156141D01*
X410343Y156237D01*
X410377Y156332D01*
X410416Y156426D01*
X410457Y156518D01*
X410503Y156609D01*
X410552Y156698D01*
X410604Y156784D01*
X410660Y156869D01*
X410719Y156951D01*
X410781Y157031D01*
X410846Y157109D01*
X410914Y157184D01*
X410985Y157256D01*
X411058Y157326D01*
X411135Y157392D01*
X411213Y157456D01*
X411295Y157516D01*
X411378Y157573D01*
X411464Y157627D01*
X411552Y157678D01*
X411641Y157725D01*
X411733Y157769D01*
X411826Y157809D01*
X411920Y157846D01*
X412016Y157878D01*
X412113Y157907D01*
X412211Y157933D01*
X412310Y157954D01*
X412410Y157972D01*
X412510Y157985D01*
X412611Y157995D01*
X412712Y158001D01*
X412813Y158003D01*
X412290Y162179D02*
X415423Y162179D01*
X412290Y162179D02*
X412200Y162177D01*
X412111Y162171D01*
X412021Y162162D01*
X411932Y162148D01*
X411844Y162131D01*
X411757Y162110D01*
X411670Y162085D01*
X411585Y162056D01*
X411501Y162024D01*
X411419Y161989D01*
X411338Y161949D01*
X411259Y161907D01*
X411182Y161861D01*
X411107Y161811D01*
X411034Y161759D01*
X410963Y161703D01*
X410895Y161645D01*
X410830Y161583D01*
X410767Y161519D01*
X410707Y161452D01*
X410650Y161383D01*
X410596Y161311D01*
X410545Y161237D01*
X410497Y161161D01*
X410453Y161083D01*
X410412Y161003D01*
X410374Y160921D01*
X410340Y160838D01*
X410310Y160753D01*
X410283Y160667D01*
X410260Y160581D01*
X410241Y160493D01*
X410226Y160404D01*
X410214Y160315D01*
X410206Y160226D01*
X410202Y160136D01*
X410202Y160046D01*
X410206Y159956D01*
X410214Y159867D01*
X410226Y159778D01*
X410241Y159689D01*
X410260Y159601D01*
X410283Y159515D01*
X410310Y159429D01*
X410340Y159344D01*
X410374Y159261D01*
X410412Y159179D01*
X410453Y159099D01*
X410497Y159021D01*
X410545Y158945D01*
X410596Y158871D01*
X410650Y158799D01*
X410707Y158730D01*
X410767Y158663D01*
X410830Y158599D01*
X410895Y158537D01*
X410963Y158479D01*
X411034Y158423D01*
X411107Y158371D01*
X411182Y158321D01*
X411259Y158275D01*
X411338Y158233D01*
X411419Y158193D01*
X411501Y158158D01*
X411585Y158126D01*
X411670Y158097D01*
X411757Y158072D01*
X411844Y158051D01*
X411932Y158034D01*
X412021Y158020D01*
X412111Y158011D01*
X412200Y158005D01*
X412290Y158003D01*
X412290Y158002D02*
X414379Y158002D01*
X259175Y169450D02*
X259175Y178848D01*
X254998Y178848D01*
X254998Y174671D02*
X259175Y174671D01*
X251137Y174671D02*
X248526Y174671D01*
X248425Y174669D01*
X248324Y174663D01*
X248223Y174653D01*
X248123Y174640D01*
X248023Y174622D01*
X247924Y174601D01*
X247826Y174575D01*
X247729Y174546D01*
X247633Y174514D01*
X247539Y174477D01*
X247446Y174437D01*
X247354Y174393D01*
X247265Y174346D01*
X247177Y174295D01*
X247091Y174241D01*
X247008Y174184D01*
X246926Y174124D01*
X246848Y174060D01*
X246771Y173994D01*
X246698Y173924D01*
X246627Y173852D01*
X246559Y173777D01*
X246494Y173699D01*
X246432Y173619D01*
X246373Y173537D01*
X246317Y173452D01*
X246265Y173366D01*
X246216Y173277D01*
X246170Y173186D01*
X246129Y173094D01*
X246090Y173000D01*
X246056Y172905D01*
X246025Y172809D01*
X245998Y172711D01*
X245974Y172613D01*
X245955Y172513D01*
X245939Y172413D01*
X245927Y172313D01*
X245919Y172212D01*
X245915Y172111D01*
X245915Y172009D01*
X245919Y171908D01*
X245927Y171807D01*
X245939Y171707D01*
X245955Y171607D01*
X245974Y171507D01*
X245998Y171409D01*
X246025Y171311D01*
X246056Y171215D01*
X246090Y171120D01*
X246129Y171026D01*
X246170Y170934D01*
X246216Y170843D01*
X246265Y170755D01*
X246317Y170668D01*
X246373Y170583D01*
X246432Y170501D01*
X246494Y170421D01*
X246559Y170343D01*
X246627Y170268D01*
X246698Y170196D01*
X246771Y170126D01*
X246848Y170060D01*
X246926Y169996D01*
X247008Y169936D01*
X247091Y169879D01*
X247177Y169825D01*
X247265Y169774D01*
X247354Y169727D01*
X247446Y169683D01*
X247539Y169643D01*
X247633Y169606D01*
X247729Y169574D01*
X247826Y169545D01*
X247924Y169519D01*
X248023Y169498D01*
X248123Y169480D01*
X248223Y169467D01*
X248324Y169457D01*
X248425Y169451D01*
X248526Y169449D01*
X248526Y169450D02*
X251137Y169450D01*
X251137Y178848D01*
X248526Y178848D01*
X248526Y178847D02*
X248436Y178845D01*
X248347Y178839D01*
X248257Y178830D01*
X248168Y178816D01*
X248080Y178799D01*
X247993Y178778D01*
X247906Y178753D01*
X247821Y178724D01*
X247737Y178692D01*
X247655Y178657D01*
X247574Y178617D01*
X247495Y178575D01*
X247418Y178529D01*
X247343Y178479D01*
X247270Y178427D01*
X247199Y178371D01*
X247131Y178313D01*
X247066Y178251D01*
X247003Y178187D01*
X246943Y178120D01*
X246886Y178051D01*
X246832Y177979D01*
X246781Y177905D01*
X246733Y177829D01*
X246689Y177751D01*
X246648Y177671D01*
X246610Y177589D01*
X246576Y177506D01*
X246546Y177421D01*
X246519Y177335D01*
X246496Y177249D01*
X246477Y177161D01*
X246462Y177072D01*
X246450Y176983D01*
X246442Y176894D01*
X246438Y176804D01*
X246438Y176714D01*
X246442Y176624D01*
X246450Y176535D01*
X246462Y176446D01*
X246477Y176357D01*
X246496Y176269D01*
X246519Y176183D01*
X246546Y176097D01*
X246576Y176012D01*
X246610Y175929D01*
X246648Y175847D01*
X246689Y175767D01*
X246733Y175689D01*
X246781Y175613D01*
X246832Y175539D01*
X246886Y175467D01*
X246943Y175398D01*
X247003Y175331D01*
X247066Y175267D01*
X247131Y175205D01*
X247199Y175147D01*
X247270Y175091D01*
X247343Y175039D01*
X247418Y174989D01*
X247495Y174943D01*
X247574Y174901D01*
X247655Y174861D01*
X247737Y174826D01*
X247821Y174794D01*
X247906Y174765D01*
X247993Y174740D01*
X248080Y174719D01*
X248168Y174702D01*
X248257Y174688D01*
X248347Y174679D01*
X248436Y174673D01*
X248526Y174671D01*
X239557Y178848D02*
X239462Y178846D01*
X239368Y178840D01*
X239274Y178831D01*
X239180Y178818D01*
X239087Y178801D01*
X238995Y178780D01*
X238903Y178755D01*
X238813Y178727D01*
X238724Y178695D01*
X238636Y178660D01*
X238550Y178621D01*
X238465Y178579D01*
X238382Y178533D01*
X238301Y178484D01*
X238222Y178432D01*
X238145Y178377D01*
X238071Y178318D01*
X237999Y178257D01*
X237929Y178193D01*
X237862Y178126D01*
X237798Y178056D01*
X237737Y177984D01*
X237678Y177910D01*
X237623Y177833D01*
X237571Y177754D01*
X237522Y177673D01*
X237476Y177590D01*
X237434Y177505D01*
X237395Y177419D01*
X237360Y177331D01*
X237328Y177242D01*
X237300Y177152D01*
X237275Y177060D01*
X237254Y176968D01*
X237237Y176875D01*
X237224Y176781D01*
X237215Y176687D01*
X237209Y176593D01*
X237207Y176498D01*
X239557Y178847D02*
X239665Y178845D01*
X239774Y178839D01*
X239882Y178829D01*
X239989Y178816D01*
X240096Y178798D01*
X240203Y178777D01*
X240308Y178752D01*
X240413Y178723D01*
X240516Y178691D01*
X240618Y178654D01*
X240719Y178614D01*
X240818Y178571D01*
X240916Y178524D01*
X241012Y178473D01*
X241106Y178419D01*
X241198Y178362D01*
X241288Y178301D01*
X241376Y178237D01*
X241461Y178171D01*
X241544Y178101D01*
X241624Y178028D01*
X241702Y177952D01*
X241777Y177874D01*
X241849Y177793D01*
X241918Y177709D01*
X241984Y177623D01*
X242047Y177535D01*
X242106Y177444D01*
X242163Y177352D01*
X242216Y177257D01*
X242265Y177160D01*
X242311Y177062D01*
X242354Y176963D01*
X242393Y176861D01*
X242428Y176759D01*
X237990Y174670D02*
X237921Y174739D01*
X237855Y174810D01*
X237791Y174883D01*
X237730Y174959D01*
X237672Y175038D01*
X237618Y175118D01*
X237566Y175201D01*
X237518Y175285D01*
X237472Y175371D01*
X237431Y175459D01*
X237392Y175549D01*
X237357Y175640D01*
X237326Y175732D01*
X237298Y175825D01*
X237274Y175919D01*
X237254Y176014D01*
X237237Y176110D01*
X237224Y176207D01*
X237215Y176304D01*
X237209Y176401D01*
X237207Y176498D01*
X237991Y174671D02*
X242429Y169450D01*
X237208Y169450D01*
X259175Y164560D02*
X259175Y155162D01*
X259175Y164560D02*
X254998Y164560D01*
X254998Y160383D02*
X259175Y160383D01*
X251137Y160383D02*
X248526Y160383D01*
X248526Y160384D02*
X248425Y160382D01*
X248324Y160376D01*
X248223Y160366D01*
X248123Y160353D01*
X248023Y160335D01*
X247924Y160314D01*
X247826Y160288D01*
X247729Y160259D01*
X247633Y160227D01*
X247539Y160190D01*
X247446Y160150D01*
X247354Y160106D01*
X247265Y160059D01*
X247177Y160008D01*
X247091Y159954D01*
X247008Y159897D01*
X246926Y159837D01*
X246848Y159773D01*
X246771Y159707D01*
X246698Y159637D01*
X246627Y159565D01*
X246559Y159490D01*
X246494Y159412D01*
X246432Y159332D01*
X246373Y159250D01*
X246317Y159165D01*
X246265Y159079D01*
X246216Y158990D01*
X246170Y158899D01*
X246129Y158807D01*
X246090Y158713D01*
X246056Y158618D01*
X246025Y158522D01*
X245998Y158424D01*
X245974Y158326D01*
X245955Y158226D01*
X245939Y158126D01*
X245927Y158026D01*
X245919Y157925D01*
X245915Y157824D01*
X245915Y157722D01*
X245919Y157621D01*
X245927Y157520D01*
X245939Y157420D01*
X245955Y157320D01*
X245974Y157220D01*
X245998Y157122D01*
X246025Y157024D01*
X246056Y156928D01*
X246090Y156833D01*
X246129Y156739D01*
X246170Y156647D01*
X246216Y156556D01*
X246265Y156468D01*
X246317Y156381D01*
X246373Y156296D01*
X246432Y156214D01*
X246494Y156134D01*
X246559Y156056D01*
X246627Y155981D01*
X246698Y155909D01*
X246771Y155839D01*
X246848Y155773D01*
X246926Y155709D01*
X247008Y155649D01*
X247091Y155592D01*
X247177Y155538D01*
X247265Y155487D01*
X247354Y155440D01*
X247446Y155396D01*
X247539Y155356D01*
X247633Y155319D01*
X247729Y155287D01*
X247826Y155258D01*
X247924Y155232D01*
X248023Y155211D01*
X248123Y155193D01*
X248223Y155180D01*
X248324Y155170D01*
X248425Y155164D01*
X248526Y155162D01*
X251137Y155162D01*
X251137Y164560D01*
X248526Y164560D01*
X248436Y164558D01*
X248347Y164552D01*
X248257Y164543D01*
X248168Y164529D01*
X248080Y164512D01*
X247993Y164491D01*
X247906Y164466D01*
X247821Y164437D01*
X247737Y164405D01*
X247655Y164370D01*
X247574Y164330D01*
X247495Y164288D01*
X247418Y164242D01*
X247343Y164192D01*
X247270Y164140D01*
X247199Y164084D01*
X247131Y164026D01*
X247066Y163964D01*
X247003Y163900D01*
X246943Y163833D01*
X246886Y163764D01*
X246832Y163692D01*
X246781Y163618D01*
X246733Y163542D01*
X246689Y163464D01*
X246648Y163384D01*
X246610Y163302D01*
X246576Y163219D01*
X246546Y163134D01*
X246519Y163048D01*
X246496Y162962D01*
X246477Y162874D01*
X246462Y162785D01*
X246450Y162696D01*
X246442Y162607D01*
X246438Y162517D01*
X246438Y162427D01*
X246442Y162337D01*
X246450Y162248D01*
X246462Y162159D01*
X246477Y162070D01*
X246496Y161982D01*
X246519Y161896D01*
X246546Y161810D01*
X246576Y161725D01*
X246610Y161642D01*
X246648Y161560D01*
X246689Y161480D01*
X246733Y161402D01*
X246781Y161326D01*
X246832Y161252D01*
X246886Y161180D01*
X246943Y161111D01*
X247003Y161044D01*
X247066Y160980D01*
X247131Y160918D01*
X247199Y160860D01*
X247270Y160804D01*
X247343Y160752D01*
X247418Y160702D01*
X247495Y160656D01*
X247574Y160614D01*
X247655Y160574D01*
X247737Y160539D01*
X247821Y160507D01*
X247906Y160478D01*
X247993Y160453D01*
X248080Y160432D01*
X248168Y160415D01*
X248257Y160401D01*
X248347Y160392D01*
X248436Y160386D01*
X248526Y160384D01*
X242429Y155162D02*
X239818Y155162D01*
X239717Y155164D01*
X239616Y155170D01*
X239515Y155180D01*
X239415Y155193D01*
X239315Y155211D01*
X239216Y155232D01*
X239118Y155258D01*
X239021Y155287D01*
X238925Y155319D01*
X238831Y155356D01*
X238738Y155396D01*
X238646Y155440D01*
X238557Y155487D01*
X238469Y155538D01*
X238383Y155592D01*
X238300Y155649D01*
X238218Y155709D01*
X238140Y155773D01*
X238063Y155839D01*
X237990Y155909D01*
X237919Y155981D01*
X237851Y156056D01*
X237786Y156134D01*
X237724Y156214D01*
X237665Y156296D01*
X237609Y156381D01*
X237557Y156468D01*
X237508Y156556D01*
X237462Y156647D01*
X237421Y156739D01*
X237382Y156833D01*
X237348Y156928D01*
X237317Y157024D01*
X237290Y157122D01*
X237266Y157220D01*
X237247Y157320D01*
X237231Y157420D01*
X237219Y157520D01*
X237211Y157621D01*
X237207Y157722D01*
X237207Y157824D01*
X237211Y157925D01*
X237219Y158026D01*
X237231Y158126D01*
X237247Y158226D01*
X237266Y158326D01*
X237290Y158424D01*
X237317Y158522D01*
X237348Y158618D01*
X237382Y158713D01*
X237421Y158807D01*
X237462Y158899D01*
X237508Y158990D01*
X237557Y159079D01*
X237609Y159165D01*
X237665Y159250D01*
X237724Y159332D01*
X237786Y159412D01*
X237851Y159490D01*
X237919Y159565D01*
X237990Y159637D01*
X238063Y159707D01*
X238140Y159773D01*
X238218Y159837D01*
X238300Y159897D01*
X238383Y159954D01*
X238469Y160008D01*
X238557Y160059D01*
X238646Y160106D01*
X238738Y160150D01*
X238831Y160190D01*
X238925Y160227D01*
X239021Y160259D01*
X239118Y160288D01*
X239216Y160314D01*
X239315Y160335D01*
X239415Y160353D01*
X239515Y160366D01*
X239616Y160376D01*
X239717Y160382D01*
X239818Y160384D01*
X239296Y164560D02*
X242429Y164560D01*
X239296Y164560D02*
X239206Y164558D01*
X239117Y164552D01*
X239027Y164543D01*
X238938Y164529D01*
X238850Y164512D01*
X238763Y164491D01*
X238676Y164466D01*
X238591Y164437D01*
X238507Y164405D01*
X238425Y164370D01*
X238344Y164330D01*
X238265Y164288D01*
X238188Y164242D01*
X238113Y164192D01*
X238040Y164140D01*
X237969Y164084D01*
X237901Y164026D01*
X237836Y163964D01*
X237773Y163900D01*
X237713Y163833D01*
X237656Y163764D01*
X237602Y163692D01*
X237551Y163618D01*
X237503Y163542D01*
X237459Y163464D01*
X237418Y163384D01*
X237380Y163302D01*
X237346Y163219D01*
X237316Y163134D01*
X237289Y163048D01*
X237266Y162962D01*
X237247Y162874D01*
X237232Y162785D01*
X237220Y162696D01*
X237212Y162607D01*
X237208Y162517D01*
X237208Y162427D01*
X237212Y162337D01*
X237220Y162248D01*
X237232Y162159D01*
X237247Y162070D01*
X237266Y161982D01*
X237289Y161896D01*
X237316Y161810D01*
X237346Y161725D01*
X237380Y161642D01*
X237418Y161560D01*
X237459Y161480D01*
X237503Y161402D01*
X237551Y161326D01*
X237602Y161252D01*
X237656Y161180D01*
X237713Y161111D01*
X237773Y161044D01*
X237836Y160980D01*
X237901Y160918D01*
X237969Y160860D01*
X238040Y160804D01*
X238113Y160752D01*
X238188Y160702D01*
X238265Y160656D01*
X238344Y160614D01*
X238425Y160574D01*
X238507Y160539D01*
X238591Y160507D01*
X238676Y160478D01*
X238763Y160453D01*
X238850Y160432D01*
X238938Y160415D01*
X239027Y160401D01*
X239117Y160392D01*
X239206Y160386D01*
X239296Y160384D01*
X239296Y160383D02*
X241385Y160383D01*
X251238Y183737D02*
X251238Y193135D01*
X248627Y193135D01*
X248627Y193136D02*
X248526Y193134D01*
X248425Y193128D01*
X248324Y193118D01*
X248224Y193105D01*
X248124Y193087D01*
X248025Y193066D01*
X247927Y193040D01*
X247830Y193011D01*
X247734Y192979D01*
X247640Y192942D01*
X247547Y192902D01*
X247455Y192858D01*
X247366Y192811D01*
X247278Y192760D01*
X247192Y192706D01*
X247109Y192649D01*
X247027Y192589D01*
X246949Y192525D01*
X246872Y192459D01*
X246799Y192389D01*
X246728Y192317D01*
X246660Y192242D01*
X246595Y192164D01*
X246533Y192084D01*
X246474Y192002D01*
X246418Y191917D01*
X246366Y191831D01*
X246317Y191742D01*
X246271Y191651D01*
X246230Y191559D01*
X246191Y191465D01*
X246157Y191370D01*
X246126Y191274D01*
X246099Y191176D01*
X246075Y191078D01*
X246056Y190978D01*
X246040Y190878D01*
X246028Y190778D01*
X246020Y190677D01*
X246016Y190576D01*
X246016Y190474D01*
X246020Y190373D01*
X246028Y190272D01*
X246040Y190172D01*
X246056Y190072D01*
X246075Y189972D01*
X246099Y189874D01*
X246126Y189776D01*
X246157Y189680D01*
X246191Y189585D01*
X246230Y189491D01*
X246271Y189399D01*
X246317Y189308D01*
X246366Y189220D01*
X246418Y189133D01*
X246474Y189048D01*
X246533Y188966D01*
X246595Y188886D01*
X246660Y188808D01*
X246728Y188733D01*
X246799Y188661D01*
X246872Y188591D01*
X246949Y188525D01*
X247027Y188461D01*
X247109Y188401D01*
X247192Y188344D01*
X247278Y188290D01*
X247366Y188239D01*
X247455Y188192D01*
X247547Y188148D01*
X247640Y188108D01*
X247734Y188071D01*
X247830Y188039D01*
X247927Y188010D01*
X248025Y187984D01*
X248124Y187963D01*
X248224Y187945D01*
X248324Y187932D01*
X248425Y187922D01*
X248526Y187916D01*
X248627Y187914D01*
X251238Y187914D01*
X248105Y187914D02*
X246017Y183737D01*
X242151Y186348D02*
X242149Y186449D01*
X242143Y186550D01*
X242133Y186651D01*
X242120Y186751D01*
X242102Y186851D01*
X242081Y186950D01*
X242055Y187048D01*
X242026Y187145D01*
X241994Y187241D01*
X241957Y187335D01*
X241917Y187428D01*
X241873Y187520D01*
X241826Y187609D01*
X241775Y187697D01*
X241721Y187783D01*
X241664Y187866D01*
X241604Y187948D01*
X241540Y188026D01*
X241474Y188103D01*
X241404Y188176D01*
X241332Y188247D01*
X241257Y188315D01*
X241179Y188380D01*
X241099Y188442D01*
X241017Y188501D01*
X240932Y188557D01*
X240846Y188609D01*
X240757Y188658D01*
X240666Y188704D01*
X240574Y188745D01*
X240480Y188784D01*
X240385Y188818D01*
X240289Y188849D01*
X240191Y188876D01*
X240093Y188900D01*
X239993Y188919D01*
X239893Y188935D01*
X239793Y188947D01*
X239692Y188955D01*
X239591Y188959D01*
X239489Y188959D01*
X239388Y188955D01*
X239287Y188947D01*
X239187Y188935D01*
X239087Y188919D01*
X238987Y188900D01*
X238889Y188876D01*
X238791Y188849D01*
X238695Y188818D01*
X238600Y188784D01*
X238506Y188745D01*
X238414Y188704D01*
X238323Y188658D01*
X238235Y188609D01*
X238148Y188557D01*
X238063Y188501D01*
X237981Y188442D01*
X237901Y188380D01*
X237823Y188315D01*
X237748Y188247D01*
X237676Y188176D01*
X237606Y188103D01*
X237540Y188026D01*
X237476Y187948D01*
X237416Y187866D01*
X237359Y187783D01*
X237305Y187697D01*
X237254Y187609D01*
X237207Y187520D01*
X237163Y187428D01*
X237123Y187335D01*
X237086Y187241D01*
X237054Y187145D01*
X237025Y187048D01*
X236999Y186950D01*
X236978Y186851D01*
X236960Y186751D01*
X236947Y186651D01*
X236937Y186550D01*
X236931Y186449D01*
X236929Y186348D01*
X236931Y186247D01*
X236937Y186146D01*
X236947Y186045D01*
X236960Y185945D01*
X236978Y185845D01*
X236999Y185746D01*
X237025Y185648D01*
X237054Y185551D01*
X237086Y185455D01*
X237123Y185361D01*
X237163Y185268D01*
X237207Y185176D01*
X237254Y185087D01*
X237305Y184999D01*
X237359Y184913D01*
X237416Y184830D01*
X237476Y184748D01*
X237540Y184670D01*
X237606Y184593D01*
X237676Y184520D01*
X237748Y184449D01*
X237823Y184381D01*
X237901Y184316D01*
X237981Y184254D01*
X238063Y184195D01*
X238148Y184139D01*
X238235Y184087D01*
X238323Y184038D01*
X238414Y183992D01*
X238506Y183951D01*
X238600Y183912D01*
X238695Y183878D01*
X238791Y183847D01*
X238889Y183820D01*
X238987Y183796D01*
X239087Y183777D01*
X239187Y183761D01*
X239287Y183749D01*
X239388Y183741D01*
X239489Y183737D01*
X239591Y183737D01*
X239692Y183741D01*
X239793Y183749D01*
X239893Y183761D01*
X239993Y183777D01*
X240093Y183796D01*
X240191Y183820D01*
X240289Y183847D01*
X240385Y183878D01*
X240480Y183912D01*
X240574Y183951D01*
X240666Y183992D01*
X240757Y184038D01*
X240845Y184087D01*
X240932Y184139D01*
X241017Y184195D01*
X241099Y184254D01*
X241179Y184316D01*
X241257Y184381D01*
X241332Y184449D01*
X241404Y184520D01*
X241474Y184593D01*
X241540Y184670D01*
X241604Y184748D01*
X241664Y184830D01*
X241721Y184913D01*
X241775Y184999D01*
X241826Y185087D01*
X241873Y185176D01*
X241917Y185268D01*
X241957Y185361D01*
X241994Y185455D01*
X242026Y185551D01*
X242055Y185648D01*
X242081Y185746D01*
X242102Y185845D01*
X242120Y185945D01*
X242133Y186045D01*
X242143Y186146D01*
X242149Y186247D01*
X242151Y186348D01*
X241628Y191047D02*
X241626Y191137D01*
X241620Y191226D01*
X241611Y191316D01*
X241597Y191405D01*
X241580Y191493D01*
X241559Y191580D01*
X241534Y191667D01*
X241505Y191752D01*
X241473Y191836D01*
X241438Y191918D01*
X241398Y191999D01*
X241356Y192078D01*
X241310Y192155D01*
X241260Y192230D01*
X241208Y192303D01*
X241152Y192374D01*
X241094Y192442D01*
X241032Y192507D01*
X240968Y192570D01*
X240901Y192630D01*
X240832Y192687D01*
X240760Y192741D01*
X240686Y192792D01*
X240610Y192840D01*
X240532Y192884D01*
X240452Y192925D01*
X240370Y192963D01*
X240287Y192997D01*
X240202Y193027D01*
X240116Y193054D01*
X240030Y193077D01*
X239942Y193096D01*
X239853Y193111D01*
X239764Y193123D01*
X239675Y193131D01*
X239585Y193135D01*
X239495Y193135D01*
X239405Y193131D01*
X239316Y193123D01*
X239227Y193111D01*
X239138Y193096D01*
X239050Y193077D01*
X238964Y193054D01*
X238878Y193027D01*
X238793Y192997D01*
X238710Y192963D01*
X238628Y192925D01*
X238548Y192884D01*
X238470Y192840D01*
X238394Y192792D01*
X238320Y192741D01*
X238248Y192687D01*
X238179Y192630D01*
X238112Y192570D01*
X238048Y192507D01*
X237986Y192442D01*
X237928Y192374D01*
X237872Y192303D01*
X237820Y192230D01*
X237770Y192155D01*
X237724Y192078D01*
X237682Y191999D01*
X237642Y191918D01*
X237607Y191836D01*
X237575Y191752D01*
X237546Y191667D01*
X237521Y191580D01*
X237500Y191493D01*
X237483Y191405D01*
X237469Y191316D01*
X237460Y191226D01*
X237454Y191137D01*
X237452Y191047D01*
X237454Y190957D01*
X237460Y190868D01*
X237469Y190778D01*
X237483Y190689D01*
X237500Y190601D01*
X237521Y190514D01*
X237546Y190427D01*
X237575Y190342D01*
X237607Y190258D01*
X237642Y190176D01*
X237682Y190095D01*
X237724Y190016D01*
X237770Y189939D01*
X237820Y189864D01*
X237872Y189791D01*
X237928Y189720D01*
X237986Y189652D01*
X238048Y189587D01*
X238112Y189524D01*
X238179Y189464D01*
X238248Y189407D01*
X238320Y189353D01*
X238394Y189302D01*
X238470Y189254D01*
X238548Y189210D01*
X238628Y189169D01*
X238710Y189131D01*
X238793Y189097D01*
X238878Y189067D01*
X238964Y189040D01*
X239050Y189017D01*
X239138Y188998D01*
X239227Y188983D01*
X239316Y188971D01*
X239405Y188963D01*
X239495Y188959D01*
X239585Y188959D01*
X239675Y188963D01*
X239764Y188971D01*
X239853Y188983D01*
X239942Y188998D01*
X240030Y189017D01*
X240116Y189040D01*
X240202Y189067D01*
X240287Y189097D01*
X240370Y189131D01*
X240452Y189169D01*
X240532Y189210D01*
X240610Y189254D01*
X240686Y189302D01*
X240760Y189353D01*
X240832Y189407D01*
X240901Y189464D01*
X240968Y189524D01*
X241032Y189587D01*
X241094Y189652D01*
X241152Y189720D01*
X241208Y189791D01*
X241260Y189864D01*
X241310Y189939D01*
X241356Y190016D01*
X241398Y190095D01*
X241438Y190176D01*
X241473Y190258D01*
X241505Y190342D01*
X241534Y190427D01*
X241559Y190514D01*
X241580Y190601D01*
X241597Y190689D01*
X241611Y190778D01*
X241620Y190868D01*
X241626Y190957D01*
X241628Y191047D01*
X252032Y198025D02*
X252032Y207423D01*
X249421Y207423D01*
X249320Y207421D01*
X249219Y207415D01*
X249118Y207405D01*
X249018Y207392D01*
X248918Y207374D01*
X248819Y207353D01*
X248721Y207327D01*
X248624Y207298D01*
X248528Y207266D01*
X248434Y207229D01*
X248341Y207189D01*
X248249Y207145D01*
X248160Y207098D01*
X248072Y207047D01*
X247986Y206993D01*
X247903Y206936D01*
X247821Y206876D01*
X247743Y206812D01*
X247666Y206746D01*
X247593Y206676D01*
X247522Y206604D01*
X247454Y206529D01*
X247389Y206451D01*
X247327Y206371D01*
X247268Y206289D01*
X247212Y206204D01*
X247160Y206118D01*
X247111Y206029D01*
X247065Y205938D01*
X247024Y205846D01*
X246985Y205752D01*
X246951Y205657D01*
X246920Y205561D01*
X246893Y205463D01*
X246869Y205365D01*
X246850Y205265D01*
X246834Y205165D01*
X246822Y205065D01*
X246814Y204964D01*
X246810Y204863D01*
X246810Y204761D01*
X246814Y204660D01*
X246822Y204559D01*
X246834Y204459D01*
X246850Y204359D01*
X246869Y204259D01*
X246893Y204161D01*
X246920Y204063D01*
X246951Y203967D01*
X246985Y203872D01*
X247024Y203778D01*
X247065Y203686D01*
X247111Y203595D01*
X247160Y203507D01*
X247212Y203420D01*
X247268Y203335D01*
X247327Y203253D01*
X247389Y203173D01*
X247454Y203095D01*
X247522Y203020D01*
X247593Y202948D01*
X247666Y202878D01*
X247743Y202812D01*
X247821Y202748D01*
X247903Y202688D01*
X247986Y202631D01*
X248072Y202577D01*
X248160Y202526D01*
X248249Y202479D01*
X248341Y202435D01*
X248434Y202395D01*
X248528Y202358D01*
X248624Y202326D01*
X248721Y202297D01*
X248819Y202271D01*
X248918Y202250D01*
X249018Y202232D01*
X249118Y202219D01*
X249219Y202209D01*
X249320Y202203D01*
X249421Y202201D01*
X249421Y202202D02*
X252032Y202202D01*
X248899Y202202D02*
X246810Y198025D01*
X240856Y202202D02*
X237724Y202202D01*
X240856Y202202D02*
X240945Y202204D01*
X241033Y202210D01*
X241121Y202219D01*
X241209Y202232D01*
X241296Y202249D01*
X241382Y202269D01*
X241467Y202294D01*
X241552Y202321D01*
X241635Y202353D01*
X241716Y202387D01*
X241796Y202426D01*
X241874Y202467D01*
X241951Y202512D01*
X242025Y202560D01*
X242098Y202611D01*
X242168Y202665D01*
X242235Y202723D01*
X242301Y202783D01*
X242363Y202845D01*
X242423Y202911D01*
X242481Y202978D01*
X242535Y203048D01*
X242586Y203121D01*
X242634Y203195D01*
X242679Y203272D01*
X242720Y203350D01*
X242759Y203430D01*
X242793Y203511D01*
X242825Y203594D01*
X242852Y203679D01*
X242877Y203764D01*
X242897Y203850D01*
X242914Y203937D01*
X242927Y204025D01*
X242936Y204113D01*
X242942Y204201D01*
X242944Y204290D01*
X242945Y204290D02*
X242945Y204812D01*
X242943Y204913D01*
X242937Y205014D01*
X242927Y205115D01*
X242914Y205215D01*
X242896Y205315D01*
X242875Y205414D01*
X242849Y205512D01*
X242820Y205609D01*
X242788Y205705D01*
X242751Y205799D01*
X242711Y205892D01*
X242667Y205984D01*
X242620Y206073D01*
X242569Y206161D01*
X242515Y206247D01*
X242458Y206330D01*
X242398Y206412D01*
X242334Y206490D01*
X242268Y206567D01*
X242198Y206640D01*
X242126Y206711D01*
X242051Y206779D01*
X241973Y206844D01*
X241893Y206906D01*
X241811Y206965D01*
X241726Y207021D01*
X241640Y207073D01*
X241551Y207122D01*
X241460Y207168D01*
X241368Y207209D01*
X241274Y207248D01*
X241179Y207282D01*
X241083Y207313D01*
X240985Y207340D01*
X240887Y207364D01*
X240787Y207383D01*
X240687Y207399D01*
X240587Y207411D01*
X240486Y207419D01*
X240385Y207423D01*
X240283Y207423D01*
X240182Y207419D01*
X240081Y207411D01*
X239981Y207399D01*
X239881Y207383D01*
X239781Y207364D01*
X239683Y207340D01*
X239585Y207313D01*
X239489Y207282D01*
X239394Y207248D01*
X239300Y207209D01*
X239208Y207168D01*
X239117Y207122D01*
X239029Y207073D01*
X238942Y207021D01*
X238857Y206965D01*
X238775Y206906D01*
X238695Y206844D01*
X238617Y206779D01*
X238542Y206711D01*
X238470Y206640D01*
X238400Y206567D01*
X238334Y206490D01*
X238270Y206412D01*
X238210Y206330D01*
X238153Y206247D01*
X238099Y206161D01*
X238048Y206073D01*
X238001Y205984D01*
X237957Y205892D01*
X237917Y205799D01*
X237880Y205705D01*
X237848Y205609D01*
X237819Y205512D01*
X237793Y205414D01*
X237772Y205315D01*
X237754Y205215D01*
X237741Y205115D01*
X237731Y205014D01*
X237725Y204913D01*
X237723Y204812D01*
X237724Y204812D02*
X237724Y202202D01*
X237723Y202202D02*
X237725Y202076D01*
X237731Y201950D01*
X237740Y201824D01*
X237753Y201699D01*
X237771Y201574D01*
X237791Y201449D01*
X237816Y201325D01*
X237844Y201202D01*
X237876Y201080D01*
X237912Y200959D01*
X237951Y200839D01*
X237994Y200721D01*
X238041Y200604D01*
X238091Y200488D01*
X238145Y200373D01*
X238201Y200261D01*
X238262Y200150D01*
X238325Y200041D01*
X238392Y199934D01*
X238462Y199829D01*
X238536Y199726D01*
X238612Y199626D01*
X238691Y199528D01*
X238773Y199432D01*
X238859Y199339D01*
X238946Y199248D01*
X239037Y199161D01*
X239130Y199075D01*
X239226Y198993D01*
X239324Y198914D01*
X239424Y198838D01*
X239527Y198764D01*
X239632Y198694D01*
X239739Y198627D01*
X239848Y198564D01*
X239959Y198503D01*
X240071Y198447D01*
X240186Y198393D01*
X240302Y198343D01*
X240419Y198296D01*
X240537Y198253D01*
X240657Y198214D01*
X240778Y198178D01*
X240900Y198146D01*
X241023Y198118D01*
X241147Y198093D01*
X241272Y198073D01*
X241397Y198055D01*
X241522Y198042D01*
X241648Y198033D01*
X241774Y198027D01*
X241900Y198025D01*
D10*
X181324Y212698D02*
X181324Y217424D01*
X181324Y143764D02*
X176598Y143764D01*
X107664Y143764D02*
X107664Y148490D01*
X107664Y217424D02*
X112390Y217424D01*
X176598Y217424D02*
X181324Y217424D01*
X181324Y148490D02*
X181324Y143764D01*
X112390Y143764D02*
X107664Y143764D01*
X107664Y212698D02*
X107664Y217424D01*
D13*
X116462Y225762D02*
X120441Y225762D01*
X116462Y225762D02*
X113477Y228084D01*
X116462Y225762D02*
X113477Y223441D01*
X116462Y225762D02*
X117788Y229410D01*
X116462Y225762D02*
X117788Y222115D01*
M02*
