G04 EAGLE Gerber RS-274X export*
G75*
%MOMM*%
%FSLAX34Y34*%
%LPD*%
%INSilkscreen Bottom*%
%IPPOS*%
%AMOC8*
5,1,8,0,0,1.08239X$1,22.5*%
G01*
%ADD10C,0.152400*%
%ADD11C,0.101600*%
%ADD12C,0.076200*%
%ADD13C,0.254000*%
%ADD14C,0.150000*%
%ADD15C,0.600000*%
%ADD16C,0.250000*%


D10*
X-49487Y125666D02*
X-54426Y125666D01*
X-54566Y125664D01*
X-54705Y125658D01*
X-54845Y125648D01*
X-54984Y125634D01*
X-55123Y125617D01*
X-55261Y125595D01*
X-55398Y125569D01*
X-55535Y125540D01*
X-55671Y125507D01*
X-55805Y125470D01*
X-55939Y125429D01*
X-56071Y125384D01*
X-56203Y125335D01*
X-56332Y125283D01*
X-56460Y125228D01*
X-56587Y125168D01*
X-56712Y125105D01*
X-56835Y125039D01*
X-56956Y124969D01*
X-57075Y124896D01*
X-57192Y124819D01*
X-57306Y124739D01*
X-57419Y124656D01*
X-57529Y124570D01*
X-57636Y124480D01*
X-57741Y124388D01*
X-57843Y124293D01*
X-57943Y124195D01*
X-58040Y124094D01*
X-58134Y123990D01*
X-58224Y123884D01*
X-58312Y123775D01*
X-58397Y123664D01*
X-58478Y123550D01*
X-58557Y123435D01*
X-58632Y123317D01*
X-58703Y123196D01*
X-58771Y123074D01*
X-58836Y122951D01*
X-58897Y122825D01*
X-58955Y122697D01*
X-59009Y122569D01*
X-59059Y122438D01*
X-59106Y122306D01*
X-59149Y122173D01*
X-59188Y122039D01*
X-59223Y121904D01*
X-59254Y121768D01*
X-59282Y121630D01*
X-59305Y121493D01*
X-59325Y121354D01*
X-59341Y121215D01*
X-59353Y121076D01*
X-59361Y120937D01*
X-59365Y120797D01*
X-59365Y120657D01*
X-59361Y120517D01*
X-59353Y120378D01*
X-59341Y120239D01*
X-59325Y120100D01*
X-59305Y119961D01*
X-59282Y119824D01*
X-59254Y119686D01*
X-59223Y119550D01*
X-59188Y119415D01*
X-59149Y119281D01*
X-59106Y119148D01*
X-59059Y119016D01*
X-59009Y118885D01*
X-58955Y118757D01*
X-58897Y118629D01*
X-58836Y118503D01*
X-58771Y118380D01*
X-58703Y118257D01*
X-58632Y118137D01*
X-58557Y118019D01*
X-58478Y117904D01*
X-58397Y117790D01*
X-58312Y117679D01*
X-58224Y117570D01*
X-58134Y117464D01*
X-58040Y117360D01*
X-57943Y117259D01*
X-57843Y117161D01*
X-57741Y117066D01*
X-57636Y116974D01*
X-57529Y116884D01*
X-57419Y116798D01*
X-57306Y116715D01*
X-57192Y116635D01*
X-57075Y116558D01*
X-56956Y116485D01*
X-56835Y116415D01*
X-56712Y116349D01*
X-56587Y116286D01*
X-56460Y116226D01*
X-56332Y116171D01*
X-56203Y116119D01*
X-56071Y116070D01*
X-55939Y116025D01*
X-55805Y115984D01*
X-55671Y115947D01*
X-55535Y115914D01*
X-55398Y115885D01*
X-55261Y115859D01*
X-55123Y115837D01*
X-54984Y115820D01*
X-54845Y115806D01*
X-54705Y115796D01*
X-54566Y115790D01*
X-54426Y115788D01*
X-49487Y115788D01*
X-49487Y133568D01*
X-54426Y133568D01*
X-54550Y133566D01*
X-54674Y133560D01*
X-54798Y133550D01*
X-54921Y133537D01*
X-55044Y133519D01*
X-55166Y133498D01*
X-55288Y133473D01*
X-55409Y133444D01*
X-55528Y133411D01*
X-55647Y133375D01*
X-55764Y133334D01*
X-55880Y133291D01*
X-55995Y133243D01*
X-56108Y133192D01*
X-56220Y133137D01*
X-56329Y133079D01*
X-56437Y133018D01*
X-56543Y132953D01*
X-56647Y132885D01*
X-56748Y132813D01*
X-56848Y132739D01*
X-56944Y132661D01*
X-57039Y132581D01*
X-57131Y132497D01*
X-57220Y132411D01*
X-57306Y132322D01*
X-57390Y132230D01*
X-57470Y132135D01*
X-57548Y132039D01*
X-57622Y131939D01*
X-57694Y131838D01*
X-57762Y131734D01*
X-57827Y131628D01*
X-57888Y131520D01*
X-57946Y131411D01*
X-58001Y131299D01*
X-58052Y131186D01*
X-58100Y131071D01*
X-58143Y130955D01*
X-58184Y130838D01*
X-58220Y130719D01*
X-58253Y130600D01*
X-58282Y130479D01*
X-58307Y130357D01*
X-58328Y130235D01*
X-58346Y130112D01*
X-58359Y129989D01*
X-58369Y129865D01*
X-58375Y129741D01*
X-58377Y129617D01*
X-58375Y129493D01*
X-58369Y129369D01*
X-58359Y129245D01*
X-58346Y129122D01*
X-58328Y128999D01*
X-58307Y128877D01*
X-58282Y128755D01*
X-58253Y128634D01*
X-58220Y128515D01*
X-58184Y128396D01*
X-58143Y128279D01*
X-58100Y128163D01*
X-58052Y128048D01*
X-58001Y127935D01*
X-57946Y127823D01*
X-57888Y127714D01*
X-57827Y127606D01*
X-57762Y127500D01*
X-57694Y127396D01*
X-57622Y127295D01*
X-57548Y127195D01*
X-57470Y127099D01*
X-57390Y127004D01*
X-57306Y126912D01*
X-57220Y126823D01*
X-57131Y126737D01*
X-57039Y126653D01*
X-56944Y126573D01*
X-56848Y126495D01*
X-56748Y126421D01*
X-56647Y126349D01*
X-56543Y126281D01*
X-56437Y126216D01*
X-56329Y126155D01*
X-56220Y126097D01*
X-56108Y126042D01*
X-55995Y125991D01*
X-55880Y125943D01*
X-55764Y125900D01*
X-55647Y125859D01*
X-55528Y125823D01*
X-55409Y125790D01*
X-55288Y125761D01*
X-55166Y125736D01*
X-55044Y125715D01*
X-54921Y125697D01*
X-54798Y125684D01*
X-54674Y125674D01*
X-54550Y125668D01*
X-54426Y125666D01*
X48359Y131511D02*
X48359Y113731D01*
X48359Y131511D02*
X43420Y131511D01*
X43280Y131509D01*
X43141Y131503D01*
X43001Y131493D01*
X42862Y131479D01*
X42723Y131462D01*
X42585Y131440D01*
X42448Y131414D01*
X42311Y131385D01*
X42175Y131352D01*
X42041Y131315D01*
X41907Y131274D01*
X41775Y131229D01*
X41643Y131180D01*
X41514Y131128D01*
X41386Y131073D01*
X41259Y131013D01*
X41134Y130950D01*
X41011Y130884D01*
X40890Y130814D01*
X40771Y130741D01*
X40654Y130664D01*
X40540Y130584D01*
X40427Y130501D01*
X40317Y130415D01*
X40210Y130325D01*
X40105Y130233D01*
X40003Y130138D01*
X39903Y130040D01*
X39806Y129939D01*
X39712Y129835D01*
X39622Y129729D01*
X39534Y129620D01*
X39449Y129509D01*
X39368Y129395D01*
X39289Y129280D01*
X39214Y129162D01*
X39143Y129041D01*
X39075Y128919D01*
X39010Y128796D01*
X38949Y128670D01*
X38891Y128542D01*
X38837Y128414D01*
X38787Y128283D01*
X38740Y128151D01*
X38697Y128018D01*
X38658Y127884D01*
X38623Y127749D01*
X38592Y127613D01*
X38564Y127475D01*
X38541Y127338D01*
X38521Y127199D01*
X38505Y127060D01*
X38493Y126921D01*
X38485Y126782D01*
X38481Y126642D01*
X38481Y126502D01*
X38485Y126362D01*
X38493Y126223D01*
X38505Y126084D01*
X38521Y125945D01*
X38541Y125806D01*
X38564Y125669D01*
X38592Y125531D01*
X38623Y125395D01*
X38658Y125260D01*
X38697Y125126D01*
X38740Y124993D01*
X38787Y124861D01*
X38837Y124730D01*
X38891Y124602D01*
X38949Y124474D01*
X39010Y124348D01*
X39075Y124225D01*
X39143Y124102D01*
X39214Y123982D01*
X39289Y123864D01*
X39368Y123749D01*
X39449Y123635D01*
X39534Y123524D01*
X39622Y123415D01*
X39712Y123309D01*
X39806Y123205D01*
X39903Y123104D01*
X40003Y123006D01*
X40105Y122911D01*
X40210Y122819D01*
X40317Y122729D01*
X40427Y122643D01*
X40540Y122560D01*
X40654Y122480D01*
X40771Y122403D01*
X40890Y122330D01*
X41011Y122260D01*
X41134Y122194D01*
X41259Y122131D01*
X41386Y122071D01*
X41514Y122016D01*
X41643Y121964D01*
X41775Y121915D01*
X41907Y121870D01*
X42041Y121829D01*
X42175Y121792D01*
X42311Y121759D01*
X42448Y121730D01*
X42585Y121704D01*
X42723Y121682D01*
X42862Y121665D01*
X43001Y121651D01*
X43141Y121641D01*
X43280Y121635D01*
X43420Y121633D01*
X48359Y121633D01*
X42432Y121633D02*
X38481Y113731D01*
X-76320Y31890D02*
X-76320Y14110D01*
X-76320Y31890D02*
X-81259Y31890D01*
X-81398Y31888D01*
X-81536Y31882D01*
X-81674Y31873D01*
X-81812Y31859D01*
X-81949Y31842D01*
X-82086Y31820D01*
X-82223Y31795D01*
X-82358Y31766D01*
X-82493Y31733D01*
X-82626Y31697D01*
X-82759Y31657D01*
X-82890Y31613D01*
X-83020Y31565D01*
X-83149Y31514D01*
X-83276Y31459D01*
X-83402Y31401D01*
X-83526Y31339D01*
X-83648Y31274D01*
X-83768Y31205D01*
X-83887Y31133D01*
X-84003Y31058D01*
X-84117Y30979D01*
X-84229Y30897D01*
X-84338Y30812D01*
X-84446Y30725D01*
X-84550Y30634D01*
X-84652Y30540D01*
X-84751Y30443D01*
X-84848Y30344D01*
X-84942Y30242D01*
X-85033Y30138D01*
X-85120Y30030D01*
X-85205Y29921D01*
X-85287Y29809D01*
X-85366Y29695D01*
X-85441Y29579D01*
X-85513Y29460D01*
X-85582Y29340D01*
X-85647Y29218D01*
X-85709Y29094D01*
X-85767Y28968D01*
X-85822Y28841D01*
X-85873Y28712D01*
X-85921Y28582D01*
X-85965Y28451D01*
X-86005Y28318D01*
X-86041Y28185D01*
X-86074Y28050D01*
X-86103Y27915D01*
X-86128Y27778D01*
X-86150Y27641D01*
X-86167Y27504D01*
X-86181Y27366D01*
X-86190Y27228D01*
X-86196Y27090D01*
X-86198Y26951D01*
X-86197Y26951D02*
X-86197Y19049D01*
X-86198Y19049D02*
X-86196Y18910D01*
X-86190Y18772D01*
X-86181Y18634D01*
X-86167Y18496D01*
X-86150Y18359D01*
X-86128Y18222D01*
X-86103Y18085D01*
X-86074Y17950D01*
X-86041Y17815D01*
X-86005Y17682D01*
X-85965Y17549D01*
X-85921Y17418D01*
X-85873Y17288D01*
X-85822Y17159D01*
X-85767Y17032D01*
X-85709Y16906D01*
X-85647Y16782D01*
X-85582Y16660D01*
X-85513Y16540D01*
X-85441Y16421D01*
X-85366Y16305D01*
X-85287Y16191D01*
X-85205Y16079D01*
X-85120Y15970D01*
X-85033Y15862D01*
X-84942Y15758D01*
X-84848Y15656D01*
X-84751Y15557D01*
X-84652Y15460D01*
X-84550Y15366D01*
X-84446Y15275D01*
X-84338Y15188D01*
X-84229Y15103D01*
X-84117Y15021D01*
X-84003Y14942D01*
X-83887Y14867D01*
X-83768Y14795D01*
X-83648Y14726D01*
X-83526Y14661D01*
X-83402Y14599D01*
X-83276Y14541D01*
X-83149Y14486D01*
X-83020Y14435D01*
X-82890Y14387D01*
X-82759Y14343D01*
X-82626Y14303D01*
X-82493Y14267D01*
X-82358Y14234D01*
X-82223Y14205D01*
X-82086Y14180D01*
X-81949Y14158D01*
X-81812Y14141D01*
X-81674Y14127D01*
X-81536Y14118D01*
X-81398Y14112D01*
X-81259Y14110D01*
X-76320Y14110D01*
X-80242Y40556D02*
X-84193Y40556D01*
X-80242Y40556D02*
X-80118Y40558D01*
X-79994Y40564D01*
X-79870Y40574D01*
X-79747Y40587D01*
X-79624Y40605D01*
X-79502Y40626D01*
X-79380Y40651D01*
X-79259Y40680D01*
X-79140Y40713D01*
X-79021Y40749D01*
X-78904Y40790D01*
X-78788Y40833D01*
X-78673Y40881D01*
X-78560Y40932D01*
X-78448Y40987D01*
X-78339Y41045D01*
X-78231Y41106D01*
X-78125Y41171D01*
X-78021Y41239D01*
X-77920Y41311D01*
X-77820Y41385D01*
X-77724Y41463D01*
X-77629Y41543D01*
X-77537Y41627D01*
X-77448Y41713D01*
X-77362Y41802D01*
X-77278Y41894D01*
X-77198Y41989D01*
X-77120Y42085D01*
X-77046Y42185D01*
X-76974Y42286D01*
X-76906Y42390D01*
X-76841Y42496D01*
X-76780Y42604D01*
X-76722Y42713D01*
X-76667Y42825D01*
X-76616Y42938D01*
X-76568Y43053D01*
X-76525Y43169D01*
X-76484Y43286D01*
X-76448Y43405D01*
X-76415Y43524D01*
X-76386Y43645D01*
X-76361Y43767D01*
X-76340Y43889D01*
X-76322Y44012D01*
X-76309Y44135D01*
X-76299Y44259D01*
X-76293Y44383D01*
X-76291Y44507D01*
X-76291Y54385D01*
X-76293Y54509D01*
X-76299Y54633D01*
X-76309Y54757D01*
X-76322Y54880D01*
X-76340Y55003D01*
X-76361Y55125D01*
X-76386Y55247D01*
X-76415Y55368D01*
X-76448Y55487D01*
X-76484Y55606D01*
X-76525Y55723D01*
X-76568Y55839D01*
X-76616Y55954D01*
X-76667Y56067D01*
X-76722Y56179D01*
X-76780Y56288D01*
X-76841Y56396D01*
X-76906Y56502D01*
X-76974Y56606D01*
X-77046Y56707D01*
X-77120Y56807D01*
X-77198Y56903D01*
X-77278Y56998D01*
X-77362Y57090D01*
X-77448Y57179D01*
X-77537Y57265D01*
X-77629Y57349D01*
X-77724Y57429D01*
X-77820Y57507D01*
X-77920Y57581D01*
X-78021Y57653D01*
X-78125Y57721D01*
X-78231Y57786D01*
X-78339Y57847D01*
X-78448Y57905D01*
X-78560Y57960D01*
X-78673Y58011D01*
X-78788Y58059D01*
X-78904Y58102D01*
X-79021Y58143D01*
X-79140Y58179D01*
X-79259Y58212D01*
X-79380Y58241D01*
X-79502Y58266D01*
X-79624Y58287D01*
X-79747Y58305D01*
X-79870Y58318D01*
X-79994Y58328D01*
X-80118Y58334D01*
X-80242Y58336D01*
X-84193Y58336D01*
D11*
X-141554Y-310065D02*
X-141554Y-312013D01*
X-141554Y-310065D02*
X-148045Y-310065D01*
X-148045Y-313960D01*
X-148043Y-314059D01*
X-148037Y-314159D01*
X-148028Y-314258D01*
X-148015Y-314356D01*
X-147998Y-314454D01*
X-147977Y-314552D01*
X-147952Y-314648D01*
X-147924Y-314743D01*
X-147892Y-314837D01*
X-147857Y-314930D01*
X-147818Y-315022D01*
X-147775Y-315112D01*
X-147730Y-315200D01*
X-147680Y-315287D01*
X-147628Y-315371D01*
X-147572Y-315454D01*
X-147514Y-315534D01*
X-147452Y-315612D01*
X-147387Y-315687D01*
X-147319Y-315760D01*
X-147249Y-315830D01*
X-147176Y-315898D01*
X-147101Y-315963D01*
X-147023Y-316025D01*
X-146943Y-316083D01*
X-146860Y-316139D01*
X-146776Y-316191D01*
X-146689Y-316241D01*
X-146601Y-316286D01*
X-146511Y-316329D01*
X-146419Y-316368D01*
X-146326Y-316403D01*
X-146232Y-316435D01*
X-146137Y-316463D01*
X-146041Y-316488D01*
X-145943Y-316509D01*
X-145845Y-316526D01*
X-145747Y-316539D01*
X-145648Y-316548D01*
X-145548Y-316554D01*
X-145449Y-316556D01*
X-145449Y-316557D02*
X-138957Y-316557D01*
X-138858Y-316555D01*
X-138758Y-316549D01*
X-138659Y-316540D01*
X-138561Y-316527D01*
X-138463Y-316509D01*
X-138365Y-316489D01*
X-138269Y-316464D01*
X-138173Y-316436D01*
X-138079Y-316404D01*
X-137986Y-316369D01*
X-137895Y-316330D01*
X-137805Y-316287D01*
X-137716Y-316242D01*
X-137630Y-316192D01*
X-137545Y-316140D01*
X-137463Y-316084D01*
X-137383Y-316025D01*
X-137305Y-315964D01*
X-137229Y-315899D01*
X-137156Y-315831D01*
X-137086Y-315761D01*
X-137018Y-315688D01*
X-136953Y-315612D01*
X-136892Y-315534D01*
X-136833Y-315454D01*
X-136777Y-315372D01*
X-136725Y-315287D01*
X-136676Y-315201D01*
X-136630Y-315112D01*
X-136587Y-315022D01*
X-136548Y-314931D01*
X-136513Y-314838D01*
X-136481Y-314744D01*
X-136453Y-314648D01*
X-136428Y-314552D01*
X-136408Y-314454D01*
X-136390Y-314356D01*
X-136377Y-314258D01*
X-136368Y-314159D01*
X-136362Y-314060D01*
X-136360Y-313960D01*
X-136361Y-313960D02*
X-136361Y-310065D01*
X-136361Y-304365D02*
X-148045Y-304365D01*
X-148045Y-297873D02*
X-136361Y-304365D01*
X-136361Y-297873D02*
X-148045Y-297873D01*
X-148045Y-292173D02*
X-136361Y-292173D01*
X-136361Y-288927D01*
X-136363Y-288814D01*
X-136369Y-288701D01*
X-136379Y-288588D01*
X-136393Y-288475D01*
X-136410Y-288363D01*
X-136432Y-288252D01*
X-136457Y-288142D01*
X-136487Y-288032D01*
X-136520Y-287924D01*
X-136557Y-287817D01*
X-136597Y-287711D01*
X-136642Y-287607D01*
X-136690Y-287504D01*
X-136741Y-287403D01*
X-136796Y-287304D01*
X-136854Y-287207D01*
X-136916Y-287112D01*
X-136981Y-287019D01*
X-137049Y-286929D01*
X-137120Y-286841D01*
X-137195Y-286755D01*
X-137272Y-286672D01*
X-137352Y-286592D01*
X-137435Y-286515D01*
X-137521Y-286440D01*
X-137609Y-286369D01*
X-137699Y-286301D01*
X-137792Y-286236D01*
X-137887Y-286174D01*
X-137984Y-286116D01*
X-138083Y-286061D01*
X-138184Y-286010D01*
X-138287Y-285962D01*
X-138391Y-285917D01*
X-138497Y-285877D01*
X-138604Y-285840D01*
X-138712Y-285807D01*
X-138822Y-285777D01*
X-138932Y-285752D01*
X-139043Y-285730D01*
X-139155Y-285713D01*
X-139268Y-285699D01*
X-139381Y-285689D01*
X-139494Y-285683D01*
X-139607Y-285681D01*
X-144799Y-285681D01*
X-144912Y-285683D01*
X-145025Y-285689D01*
X-145138Y-285699D01*
X-145251Y-285713D01*
X-145363Y-285730D01*
X-145474Y-285752D01*
X-145584Y-285777D01*
X-145694Y-285807D01*
X-145802Y-285840D01*
X-145909Y-285877D01*
X-146015Y-285917D01*
X-146119Y-285962D01*
X-146222Y-286010D01*
X-146323Y-286061D01*
X-146422Y-286116D01*
X-146519Y-286174D01*
X-146614Y-286236D01*
X-146707Y-286301D01*
X-146797Y-286369D01*
X-146885Y-286440D01*
X-146971Y-286515D01*
X-147054Y-286592D01*
X-147134Y-286672D01*
X-147211Y-286755D01*
X-147286Y-286841D01*
X-147357Y-286929D01*
X-147425Y-287019D01*
X-147490Y-287112D01*
X-147552Y-287207D01*
X-147610Y-287304D01*
X-147665Y-287403D01*
X-147716Y-287504D01*
X-147764Y-287607D01*
X-147809Y-287711D01*
X-147849Y-287817D01*
X-147886Y-287924D01*
X-147919Y-288032D01*
X-147949Y-288142D01*
X-147974Y-288252D01*
X-147996Y-288363D01*
X-148013Y-288475D01*
X-148027Y-288588D01*
X-148037Y-288701D01*
X-148043Y-288814D01*
X-148045Y-288927D01*
X-148045Y-292173D01*
X79808Y-417473D02*
X81403Y-416356D01*
X79808Y-417473D02*
X83531Y-422790D01*
X86722Y-420556D01*
X86721Y-420556D02*
X86801Y-420497D01*
X86879Y-420435D01*
X86955Y-420371D01*
X87028Y-420303D01*
X87099Y-420233D01*
X87166Y-420160D01*
X87231Y-420085D01*
X87293Y-420007D01*
X87352Y-419927D01*
X87408Y-419845D01*
X87461Y-419760D01*
X87510Y-419674D01*
X87556Y-419586D01*
X87599Y-419496D01*
X87638Y-419405D01*
X87673Y-419312D01*
X87705Y-419218D01*
X87734Y-419122D01*
X87758Y-419026D01*
X87779Y-418929D01*
X87797Y-418831D01*
X87810Y-418732D01*
X87820Y-418633D01*
X87826Y-418534D01*
X87828Y-418435D01*
X87826Y-418335D01*
X87821Y-418236D01*
X87812Y-418137D01*
X87798Y-418038D01*
X87782Y-417940D01*
X87761Y-417843D01*
X87737Y-417746D01*
X87709Y-417651D01*
X87677Y-417557D01*
X87642Y-417464D01*
X87603Y-417372D01*
X87561Y-417282D01*
X87515Y-417194D01*
X87466Y-417107D01*
X87414Y-417023D01*
X87359Y-416940D01*
X83636Y-411623D01*
X83577Y-411543D01*
X83515Y-411465D01*
X83451Y-411389D01*
X83383Y-411316D01*
X83313Y-411245D01*
X83240Y-411178D01*
X83165Y-411113D01*
X83087Y-411051D01*
X83007Y-410992D01*
X82925Y-410936D01*
X82840Y-410883D01*
X82754Y-410834D01*
X82666Y-410788D01*
X82576Y-410745D01*
X82485Y-410706D01*
X82392Y-410671D01*
X82298Y-410639D01*
X82202Y-410610D01*
X82106Y-410586D01*
X82009Y-410565D01*
X81911Y-410547D01*
X81812Y-410534D01*
X81713Y-410524D01*
X81614Y-410518D01*
X81515Y-410516D01*
X81415Y-410518D01*
X81316Y-410523D01*
X81217Y-410532D01*
X81118Y-410546D01*
X81020Y-410562D01*
X80923Y-410583D01*
X80826Y-410607D01*
X80731Y-410635D01*
X80637Y-410667D01*
X80544Y-410702D01*
X80452Y-410741D01*
X80362Y-410783D01*
X80274Y-410829D01*
X80187Y-410878D01*
X80103Y-410930D01*
X80020Y-410985D01*
X76830Y-413219D01*
X72160Y-416489D02*
X78861Y-426060D01*
X73544Y-429783D02*
X72160Y-416489D01*
X66843Y-420212D02*
X73544Y-429783D01*
X68874Y-433053D02*
X62173Y-423482D01*
X59514Y-425343D01*
X59423Y-425410D01*
X59333Y-425479D01*
X59246Y-425552D01*
X59162Y-425628D01*
X59081Y-425707D01*
X59002Y-425788D01*
X58926Y-425872D01*
X58853Y-425959D01*
X58784Y-426048D01*
X58717Y-426140D01*
X58654Y-426234D01*
X58594Y-426330D01*
X58537Y-426428D01*
X58484Y-426528D01*
X58434Y-426630D01*
X58388Y-426734D01*
X58346Y-426839D01*
X58307Y-426945D01*
X58272Y-427053D01*
X58241Y-427162D01*
X58213Y-427272D01*
X58190Y-427383D01*
X58170Y-427494D01*
X58154Y-427606D01*
X58142Y-427719D01*
X58134Y-427832D01*
X58130Y-427945D01*
X58130Y-428059D01*
X58134Y-428172D01*
X58142Y-428285D01*
X58154Y-428398D01*
X58170Y-428510D01*
X58190Y-428621D01*
X58213Y-428732D01*
X58241Y-428842D01*
X58272Y-428951D01*
X58307Y-429059D01*
X58346Y-429165D01*
X58388Y-429270D01*
X58434Y-429374D01*
X58484Y-429476D01*
X58537Y-429576D01*
X58594Y-429674D01*
X58654Y-429770D01*
X58717Y-429864D01*
X61696Y-434117D01*
X61695Y-434118D02*
X61762Y-434209D01*
X61831Y-434299D01*
X61904Y-434386D01*
X61980Y-434470D01*
X62059Y-434551D01*
X62140Y-434630D01*
X62224Y-434706D01*
X62311Y-434779D01*
X62401Y-434848D01*
X62492Y-434915D01*
X62586Y-434978D01*
X62682Y-435038D01*
X62780Y-435095D01*
X62880Y-435148D01*
X62982Y-435198D01*
X63086Y-435244D01*
X63191Y-435286D01*
X63297Y-435325D01*
X63405Y-435360D01*
X63514Y-435391D01*
X63624Y-435419D01*
X63735Y-435442D01*
X63846Y-435462D01*
X63958Y-435478D01*
X64071Y-435490D01*
X64184Y-435498D01*
X64297Y-435502D01*
X64411Y-435502D01*
X64524Y-435498D01*
X64637Y-435490D01*
X64750Y-435478D01*
X64862Y-435462D01*
X64973Y-435442D01*
X65084Y-435419D01*
X65194Y-435391D01*
X65303Y-435360D01*
X65411Y-435325D01*
X65517Y-435286D01*
X65622Y-435244D01*
X65726Y-435198D01*
X65828Y-435148D01*
X65928Y-435095D01*
X66026Y-435038D01*
X66122Y-434978D01*
X66216Y-434915D01*
X66216Y-434914D02*
X68874Y-433053D01*
X-62036Y-424916D02*
X-63631Y-423799D01*
X-67354Y-429116D01*
X-64164Y-431350D01*
X-64081Y-431405D01*
X-63997Y-431457D01*
X-63910Y-431506D01*
X-63822Y-431552D01*
X-63732Y-431594D01*
X-63640Y-431633D01*
X-63547Y-431668D01*
X-63453Y-431700D01*
X-63358Y-431728D01*
X-63261Y-431752D01*
X-63164Y-431773D01*
X-63066Y-431789D01*
X-62967Y-431802D01*
X-62868Y-431812D01*
X-62769Y-431817D01*
X-62669Y-431819D01*
X-62570Y-431817D01*
X-62471Y-431811D01*
X-62372Y-431801D01*
X-62273Y-431788D01*
X-62175Y-431770D01*
X-62078Y-431749D01*
X-61982Y-431725D01*
X-61886Y-431696D01*
X-61792Y-431664D01*
X-61699Y-431629D01*
X-61608Y-431590D01*
X-61518Y-431547D01*
X-61430Y-431501D01*
X-61344Y-431452D01*
X-61259Y-431399D01*
X-61177Y-431343D01*
X-61097Y-431284D01*
X-61019Y-431222D01*
X-60944Y-431157D01*
X-60871Y-431090D01*
X-60801Y-431019D01*
X-60733Y-430946D01*
X-60669Y-430870D01*
X-60607Y-430792D01*
X-60548Y-430712D01*
X-56825Y-425395D01*
X-56825Y-425396D02*
X-56769Y-425313D01*
X-56717Y-425228D01*
X-56668Y-425142D01*
X-56622Y-425053D01*
X-56580Y-424963D01*
X-56541Y-424872D01*
X-56506Y-424779D01*
X-56474Y-424684D01*
X-56446Y-424589D01*
X-56422Y-424492D01*
X-56401Y-424395D01*
X-56385Y-424297D01*
X-56372Y-424198D01*
X-56362Y-424099D01*
X-56357Y-424000D01*
X-56355Y-423900D01*
X-56357Y-423801D01*
X-56363Y-423702D01*
X-56373Y-423603D01*
X-56386Y-423504D01*
X-56404Y-423406D01*
X-56425Y-423309D01*
X-56449Y-423213D01*
X-56478Y-423117D01*
X-56510Y-423023D01*
X-56545Y-422930D01*
X-56584Y-422839D01*
X-56627Y-422749D01*
X-56673Y-422661D01*
X-56723Y-422574D01*
X-56775Y-422490D01*
X-56831Y-422407D01*
X-56890Y-422327D01*
X-56952Y-422249D01*
X-57017Y-422174D01*
X-57085Y-422101D01*
X-57155Y-422031D01*
X-57228Y-421964D01*
X-57304Y-421899D01*
X-57382Y-421837D01*
X-57462Y-421779D01*
X-60653Y-419545D01*
X-65323Y-416275D02*
X-72024Y-425846D01*
X-77342Y-422123D02*
X-65323Y-416275D01*
X-70640Y-412552D02*
X-77342Y-422123D01*
X-82011Y-418853D02*
X-75310Y-409282D01*
X-77968Y-407420D01*
X-78062Y-407357D01*
X-78158Y-407297D01*
X-78256Y-407240D01*
X-78356Y-407187D01*
X-78458Y-407137D01*
X-78562Y-407091D01*
X-78667Y-407049D01*
X-78773Y-407010D01*
X-78881Y-406975D01*
X-78990Y-406944D01*
X-79100Y-406916D01*
X-79211Y-406893D01*
X-79322Y-406873D01*
X-79434Y-406857D01*
X-79547Y-406845D01*
X-79660Y-406837D01*
X-79773Y-406833D01*
X-79887Y-406833D01*
X-80000Y-406837D01*
X-80113Y-406845D01*
X-80226Y-406857D01*
X-80338Y-406873D01*
X-80449Y-406893D01*
X-80560Y-406916D01*
X-80670Y-406944D01*
X-80779Y-406975D01*
X-80887Y-407010D01*
X-80993Y-407049D01*
X-81098Y-407091D01*
X-81202Y-407137D01*
X-81304Y-407187D01*
X-81404Y-407240D01*
X-81502Y-407297D01*
X-81598Y-407357D01*
X-81692Y-407420D01*
X-81783Y-407487D01*
X-81873Y-407556D01*
X-81960Y-407629D01*
X-82044Y-407705D01*
X-82125Y-407784D01*
X-82204Y-407865D01*
X-82280Y-407949D01*
X-82353Y-408036D01*
X-82422Y-408126D01*
X-82489Y-408217D01*
X-85467Y-412471D01*
X-85468Y-412471D02*
X-85531Y-412565D01*
X-85591Y-412661D01*
X-85648Y-412759D01*
X-85701Y-412859D01*
X-85751Y-412961D01*
X-85797Y-413065D01*
X-85839Y-413170D01*
X-85878Y-413276D01*
X-85913Y-413384D01*
X-85944Y-413493D01*
X-85972Y-413603D01*
X-85995Y-413714D01*
X-86015Y-413825D01*
X-86031Y-413937D01*
X-86043Y-414050D01*
X-86051Y-414163D01*
X-86055Y-414276D01*
X-86055Y-414390D01*
X-86051Y-414503D01*
X-86043Y-414616D01*
X-86031Y-414729D01*
X-86015Y-414841D01*
X-85995Y-414952D01*
X-85972Y-415063D01*
X-85944Y-415173D01*
X-85913Y-415282D01*
X-85878Y-415390D01*
X-85839Y-415496D01*
X-85797Y-415601D01*
X-85751Y-415705D01*
X-85701Y-415807D01*
X-85648Y-415907D01*
X-85591Y-416005D01*
X-85531Y-416101D01*
X-85468Y-416195D01*
X-85401Y-416287D01*
X-85332Y-416376D01*
X-85259Y-416463D01*
X-85183Y-416547D01*
X-85104Y-416628D01*
X-85023Y-416707D01*
X-84939Y-416783D01*
X-84852Y-416856D01*
X-84762Y-416925D01*
X-84671Y-416992D01*
X-84670Y-416991D02*
X-82011Y-418853D01*
X141070Y-310235D02*
X141070Y-308287D01*
X134579Y-308287D01*
X134579Y-312182D01*
X134581Y-312281D01*
X134587Y-312381D01*
X134596Y-312480D01*
X134609Y-312578D01*
X134626Y-312676D01*
X134647Y-312774D01*
X134672Y-312870D01*
X134700Y-312965D01*
X134732Y-313059D01*
X134767Y-313152D01*
X134806Y-313244D01*
X134849Y-313334D01*
X134894Y-313422D01*
X134944Y-313509D01*
X134996Y-313593D01*
X135052Y-313676D01*
X135110Y-313756D01*
X135172Y-313834D01*
X135237Y-313909D01*
X135305Y-313982D01*
X135375Y-314052D01*
X135448Y-314120D01*
X135523Y-314185D01*
X135601Y-314247D01*
X135681Y-314305D01*
X135764Y-314361D01*
X135848Y-314413D01*
X135935Y-314463D01*
X136023Y-314508D01*
X136113Y-314551D01*
X136205Y-314590D01*
X136298Y-314625D01*
X136392Y-314657D01*
X136487Y-314685D01*
X136583Y-314710D01*
X136681Y-314731D01*
X136779Y-314748D01*
X136877Y-314761D01*
X136976Y-314770D01*
X137076Y-314776D01*
X137175Y-314778D01*
X137175Y-314779D02*
X143667Y-314779D01*
X143667Y-314778D02*
X143766Y-314776D01*
X143866Y-314770D01*
X143965Y-314761D01*
X144063Y-314748D01*
X144161Y-314731D01*
X144259Y-314710D01*
X144355Y-314685D01*
X144450Y-314657D01*
X144544Y-314625D01*
X144637Y-314590D01*
X144729Y-314551D01*
X144819Y-314508D01*
X144907Y-314463D01*
X144994Y-314413D01*
X145078Y-314361D01*
X145161Y-314305D01*
X145241Y-314247D01*
X145319Y-314185D01*
X145394Y-314120D01*
X145467Y-314052D01*
X145537Y-313982D01*
X145605Y-313909D01*
X145670Y-313834D01*
X145732Y-313756D01*
X145790Y-313676D01*
X145846Y-313593D01*
X145898Y-313509D01*
X145948Y-313422D01*
X145993Y-313334D01*
X146036Y-313244D01*
X146075Y-313152D01*
X146110Y-313060D01*
X146142Y-312965D01*
X146170Y-312870D01*
X146195Y-312774D01*
X146216Y-312676D01*
X146233Y-312578D01*
X146246Y-312480D01*
X146255Y-312381D01*
X146261Y-312281D01*
X146263Y-312182D01*
X146263Y-308287D01*
X146263Y-302587D02*
X134579Y-302587D01*
X134579Y-296095D02*
X146263Y-302587D01*
X146263Y-296095D02*
X134579Y-296095D01*
X134579Y-290395D02*
X146263Y-290395D01*
X146263Y-287149D01*
X146261Y-287036D01*
X146255Y-286923D01*
X146245Y-286810D01*
X146231Y-286697D01*
X146214Y-286585D01*
X146192Y-286474D01*
X146167Y-286364D01*
X146137Y-286254D01*
X146104Y-286146D01*
X146067Y-286039D01*
X146027Y-285933D01*
X145982Y-285829D01*
X145934Y-285726D01*
X145883Y-285625D01*
X145828Y-285526D01*
X145770Y-285429D01*
X145708Y-285334D01*
X145643Y-285241D01*
X145575Y-285151D01*
X145504Y-285063D01*
X145429Y-284977D01*
X145352Y-284894D01*
X145272Y-284814D01*
X145189Y-284737D01*
X145103Y-284662D01*
X145015Y-284591D01*
X144925Y-284523D01*
X144832Y-284458D01*
X144737Y-284396D01*
X144640Y-284338D01*
X144541Y-284283D01*
X144440Y-284232D01*
X144337Y-284184D01*
X144233Y-284139D01*
X144127Y-284099D01*
X144020Y-284062D01*
X143912Y-284029D01*
X143802Y-283999D01*
X143692Y-283974D01*
X143581Y-283952D01*
X143469Y-283935D01*
X143356Y-283921D01*
X143243Y-283911D01*
X143130Y-283905D01*
X143017Y-283903D01*
X137825Y-283903D01*
X137712Y-283905D01*
X137599Y-283911D01*
X137486Y-283921D01*
X137373Y-283935D01*
X137261Y-283952D01*
X137150Y-283974D01*
X137040Y-283999D01*
X136930Y-284029D01*
X136822Y-284062D01*
X136715Y-284099D01*
X136609Y-284139D01*
X136505Y-284184D01*
X136402Y-284232D01*
X136301Y-284283D01*
X136202Y-284338D01*
X136105Y-284396D01*
X136010Y-284458D01*
X135917Y-284523D01*
X135827Y-284591D01*
X135739Y-284662D01*
X135653Y-284737D01*
X135570Y-284814D01*
X135490Y-284894D01*
X135413Y-284977D01*
X135338Y-285063D01*
X135267Y-285151D01*
X135199Y-285241D01*
X135134Y-285334D01*
X135072Y-285429D01*
X135014Y-285526D01*
X134959Y-285625D01*
X134908Y-285726D01*
X134860Y-285829D01*
X134815Y-285933D01*
X134775Y-286039D01*
X134738Y-286146D01*
X134705Y-286254D01*
X134675Y-286364D01*
X134650Y-286474D01*
X134628Y-286585D01*
X134611Y-286697D01*
X134597Y-286810D01*
X134587Y-286923D01*
X134581Y-287036D01*
X134579Y-287149D01*
X134579Y-290395D01*
D10*
X41304Y-264683D02*
X41304Y-246903D01*
X41304Y-254806D02*
X31426Y-254806D01*
X31426Y-246903D02*
X31426Y-264683D01*
X23995Y-250854D02*
X19056Y-246903D01*
X19056Y-264683D01*
X23995Y-264683D02*
X14117Y-264683D01*
X6657Y-264683D02*
X6657Y-246903D01*
X-1245Y-246903D01*
X-1245Y-254806D02*
X6657Y-254806D01*
X-7916Y-246903D02*
X-7916Y-264683D01*
X-7916Y-246903D02*
X-12855Y-246903D01*
X-12995Y-246905D01*
X-13134Y-246911D01*
X-13274Y-246921D01*
X-13413Y-246935D01*
X-13552Y-246952D01*
X-13690Y-246974D01*
X-13827Y-247000D01*
X-13964Y-247029D01*
X-14100Y-247062D01*
X-14234Y-247099D01*
X-14368Y-247140D01*
X-14500Y-247185D01*
X-14632Y-247234D01*
X-14761Y-247286D01*
X-14889Y-247341D01*
X-15016Y-247401D01*
X-15141Y-247464D01*
X-15264Y-247530D01*
X-15385Y-247600D01*
X-15504Y-247673D01*
X-15621Y-247750D01*
X-15735Y-247830D01*
X-15848Y-247913D01*
X-15958Y-247999D01*
X-16065Y-248089D01*
X-16170Y-248181D01*
X-16272Y-248276D01*
X-16372Y-248374D01*
X-16469Y-248475D01*
X-16563Y-248579D01*
X-16653Y-248685D01*
X-16741Y-248794D01*
X-16826Y-248905D01*
X-16907Y-249019D01*
X-16986Y-249134D01*
X-17061Y-249252D01*
X-17132Y-249373D01*
X-17200Y-249495D01*
X-17265Y-249618D01*
X-17326Y-249744D01*
X-17384Y-249872D01*
X-17438Y-250000D01*
X-17488Y-250131D01*
X-17535Y-250263D01*
X-17578Y-250396D01*
X-17617Y-250530D01*
X-17652Y-250665D01*
X-17683Y-250801D01*
X-17711Y-250939D01*
X-17734Y-251076D01*
X-17754Y-251215D01*
X-17770Y-251354D01*
X-17782Y-251493D01*
X-17790Y-251632D01*
X-17794Y-251772D01*
X-17794Y-251912D01*
X-17790Y-252052D01*
X-17782Y-252191D01*
X-17770Y-252330D01*
X-17754Y-252469D01*
X-17734Y-252608D01*
X-17711Y-252745D01*
X-17683Y-252883D01*
X-17652Y-253019D01*
X-17617Y-253154D01*
X-17578Y-253288D01*
X-17535Y-253421D01*
X-17488Y-253553D01*
X-17438Y-253684D01*
X-17384Y-253812D01*
X-17326Y-253940D01*
X-17265Y-254066D01*
X-17200Y-254189D01*
X-17132Y-254312D01*
X-17061Y-254432D01*
X-16986Y-254550D01*
X-16907Y-254665D01*
X-16826Y-254779D01*
X-16741Y-254890D01*
X-16653Y-254999D01*
X-16563Y-255105D01*
X-16469Y-255209D01*
X-16372Y-255310D01*
X-16272Y-255408D01*
X-16170Y-255503D01*
X-16065Y-255595D01*
X-15958Y-255685D01*
X-15848Y-255771D01*
X-15735Y-255854D01*
X-15621Y-255934D01*
X-15504Y-256011D01*
X-15385Y-256084D01*
X-15264Y-256154D01*
X-15141Y-256220D01*
X-15016Y-256283D01*
X-14889Y-256343D01*
X-14761Y-256398D01*
X-14632Y-256450D01*
X-14500Y-256499D01*
X-14368Y-256544D01*
X-14234Y-256585D01*
X-14100Y-256622D01*
X-13964Y-256655D01*
X-13827Y-256684D01*
X-13690Y-256710D01*
X-13552Y-256732D01*
X-13413Y-256749D01*
X-13274Y-256763D01*
X-13134Y-256773D01*
X-12995Y-256779D01*
X-12855Y-256781D01*
X-7916Y-256781D01*
X-13843Y-256781D02*
X-17794Y-264683D01*
X-24581Y-264683D02*
X-30508Y-264683D01*
X-30632Y-264681D01*
X-30756Y-264675D01*
X-30880Y-264665D01*
X-31003Y-264652D01*
X-31126Y-264634D01*
X-31248Y-264613D01*
X-31370Y-264588D01*
X-31491Y-264559D01*
X-31610Y-264526D01*
X-31729Y-264490D01*
X-31846Y-264449D01*
X-31962Y-264406D01*
X-32077Y-264358D01*
X-32190Y-264307D01*
X-32302Y-264252D01*
X-32411Y-264194D01*
X-32519Y-264133D01*
X-32625Y-264068D01*
X-32729Y-264000D01*
X-32830Y-263928D01*
X-32930Y-263854D01*
X-33026Y-263776D01*
X-33121Y-263696D01*
X-33213Y-263612D01*
X-33302Y-263526D01*
X-33388Y-263437D01*
X-33472Y-263345D01*
X-33552Y-263250D01*
X-33630Y-263154D01*
X-33704Y-263054D01*
X-33776Y-262953D01*
X-33844Y-262849D01*
X-33909Y-262743D01*
X-33970Y-262635D01*
X-34028Y-262526D01*
X-34083Y-262414D01*
X-34134Y-262301D01*
X-34182Y-262186D01*
X-34225Y-262070D01*
X-34266Y-261953D01*
X-34302Y-261834D01*
X-34335Y-261715D01*
X-34364Y-261594D01*
X-34389Y-261472D01*
X-34410Y-261350D01*
X-34428Y-261227D01*
X-34441Y-261104D01*
X-34451Y-260980D01*
X-34457Y-260856D01*
X-34459Y-260732D01*
X-34459Y-258757D01*
X-34457Y-258633D01*
X-34451Y-258509D01*
X-34441Y-258385D01*
X-34428Y-258262D01*
X-34410Y-258139D01*
X-34389Y-258017D01*
X-34364Y-257895D01*
X-34335Y-257774D01*
X-34302Y-257655D01*
X-34266Y-257536D01*
X-34225Y-257419D01*
X-34182Y-257303D01*
X-34134Y-257188D01*
X-34083Y-257075D01*
X-34028Y-256963D01*
X-33970Y-256854D01*
X-33909Y-256746D01*
X-33844Y-256640D01*
X-33776Y-256536D01*
X-33704Y-256435D01*
X-33630Y-256335D01*
X-33552Y-256239D01*
X-33472Y-256144D01*
X-33388Y-256052D01*
X-33302Y-255963D01*
X-33213Y-255877D01*
X-33121Y-255793D01*
X-33026Y-255713D01*
X-32930Y-255635D01*
X-32830Y-255561D01*
X-32729Y-255489D01*
X-32625Y-255421D01*
X-32519Y-255356D01*
X-32411Y-255295D01*
X-32302Y-255237D01*
X-32190Y-255182D01*
X-32077Y-255131D01*
X-31962Y-255083D01*
X-31846Y-255040D01*
X-31729Y-254999D01*
X-31610Y-254963D01*
X-31491Y-254930D01*
X-31370Y-254901D01*
X-31248Y-254876D01*
X-31126Y-254855D01*
X-31003Y-254837D01*
X-30880Y-254824D01*
X-30756Y-254814D01*
X-30632Y-254808D01*
X-30508Y-254806D01*
X-24581Y-254806D01*
X-24581Y-246903D01*
X-34459Y-246903D01*
X-42814Y-249372D02*
X-42664Y-249689D01*
X-42522Y-250008D01*
X-42388Y-250331D01*
X-42261Y-250658D01*
X-42143Y-250987D01*
X-42032Y-251318D01*
X-41929Y-251653D01*
X-41834Y-251989D01*
X-41748Y-252328D01*
X-41669Y-252669D01*
X-41598Y-253012D01*
X-41536Y-253356D01*
X-41482Y-253701D01*
X-41436Y-254048D01*
X-41399Y-254396D01*
X-41370Y-254745D01*
X-41349Y-255094D01*
X-41336Y-255443D01*
X-41332Y-255793D01*
X-42814Y-249373D02*
X-42854Y-249260D01*
X-42898Y-249150D01*
X-42946Y-249040D01*
X-42997Y-248933D01*
X-43052Y-248827D01*
X-43110Y-248722D01*
X-43172Y-248620D01*
X-43237Y-248520D01*
X-43305Y-248422D01*
X-43376Y-248326D01*
X-43451Y-248233D01*
X-43528Y-248142D01*
X-43608Y-248054D01*
X-43691Y-247969D01*
X-43777Y-247886D01*
X-43866Y-247806D01*
X-43957Y-247729D01*
X-44051Y-247655D01*
X-44147Y-247584D01*
X-44245Y-247516D01*
X-44345Y-247452D01*
X-44448Y-247390D01*
X-44552Y-247333D01*
X-44658Y-247278D01*
X-44766Y-247227D01*
X-44876Y-247180D01*
X-44987Y-247136D01*
X-45099Y-247096D01*
X-45213Y-247060D01*
X-45327Y-247027D01*
X-45443Y-246998D01*
X-45560Y-246973D01*
X-45677Y-246952D01*
X-45795Y-246934D01*
X-45914Y-246921D01*
X-46033Y-246911D01*
X-46152Y-246905D01*
X-46271Y-246903D01*
X-46390Y-246905D01*
X-46509Y-246911D01*
X-46628Y-246921D01*
X-46747Y-246934D01*
X-46865Y-246952D01*
X-46982Y-246973D01*
X-47099Y-246998D01*
X-47215Y-247027D01*
X-47329Y-247060D01*
X-47443Y-247096D01*
X-47555Y-247136D01*
X-47666Y-247180D01*
X-47776Y-247227D01*
X-47884Y-247278D01*
X-47990Y-247333D01*
X-48094Y-247390D01*
X-48197Y-247452D01*
X-48297Y-247516D01*
X-48395Y-247584D01*
X-48491Y-247655D01*
X-48585Y-247729D01*
X-48676Y-247806D01*
X-48765Y-247886D01*
X-48851Y-247969D01*
X-48934Y-248054D01*
X-49014Y-248142D01*
X-49091Y-248233D01*
X-49166Y-248327D01*
X-49237Y-248422D01*
X-49305Y-248520D01*
X-49370Y-248620D01*
X-49432Y-248722D01*
X-49490Y-248827D01*
X-49545Y-248933D01*
X-49596Y-249040D01*
X-49644Y-249150D01*
X-49688Y-249260D01*
X-49728Y-249373D01*
X-49878Y-249689D01*
X-50020Y-250008D01*
X-50154Y-250331D01*
X-50281Y-250658D01*
X-50399Y-250987D01*
X-50510Y-251318D01*
X-50613Y-251653D01*
X-50708Y-251989D01*
X-50794Y-252328D01*
X-50873Y-252669D01*
X-50944Y-253012D01*
X-51006Y-253356D01*
X-51060Y-253701D01*
X-51106Y-254048D01*
X-51143Y-254396D01*
X-51172Y-254745D01*
X-51193Y-255094D01*
X-51206Y-255443D01*
X-51210Y-255793D01*
X-41332Y-255793D02*
X-41336Y-256143D01*
X-41349Y-256492D01*
X-41370Y-256841D01*
X-41399Y-257190D01*
X-41436Y-257538D01*
X-41482Y-257885D01*
X-41536Y-258230D01*
X-41598Y-258574D01*
X-41669Y-258917D01*
X-41748Y-259258D01*
X-41834Y-259597D01*
X-41929Y-259933D01*
X-42032Y-260268D01*
X-42143Y-260599D01*
X-42261Y-260928D01*
X-42388Y-261255D01*
X-42522Y-261578D01*
X-42664Y-261897D01*
X-42814Y-262213D01*
X-42854Y-262326D01*
X-42898Y-262436D01*
X-42946Y-262546D01*
X-42997Y-262654D01*
X-43052Y-262760D01*
X-43110Y-262864D01*
X-43172Y-262966D01*
X-43237Y-263066D01*
X-43305Y-263164D01*
X-43376Y-263260D01*
X-43451Y-263353D01*
X-43528Y-263444D01*
X-43608Y-263532D01*
X-43692Y-263617D01*
X-43777Y-263700D01*
X-43866Y-263780D01*
X-43957Y-263857D01*
X-44051Y-263931D01*
X-44147Y-264002D01*
X-44245Y-264070D01*
X-44345Y-264134D01*
X-44448Y-264196D01*
X-44552Y-264254D01*
X-44658Y-264308D01*
X-44766Y-264359D01*
X-44876Y-264406D01*
X-44987Y-264450D01*
X-45099Y-264490D01*
X-45213Y-264526D01*
X-45327Y-264559D01*
X-45443Y-264588D01*
X-45560Y-264613D01*
X-45677Y-264634D01*
X-45795Y-264652D01*
X-45914Y-264665D01*
X-46033Y-264675D01*
X-46152Y-264681D01*
X-46271Y-264683D01*
X-49727Y-262213D02*
X-49877Y-261897D01*
X-50019Y-261578D01*
X-50153Y-261255D01*
X-50280Y-260928D01*
X-50398Y-260599D01*
X-50509Y-260268D01*
X-50612Y-259933D01*
X-50707Y-259597D01*
X-50793Y-259258D01*
X-50872Y-258917D01*
X-50943Y-258574D01*
X-51005Y-258230D01*
X-51059Y-257885D01*
X-51105Y-257538D01*
X-51142Y-257190D01*
X-51171Y-256841D01*
X-51192Y-256492D01*
X-51205Y-256143D01*
X-51209Y-255793D01*
X-49728Y-262214D02*
X-49688Y-262327D01*
X-49644Y-262437D01*
X-49596Y-262547D01*
X-49545Y-262654D01*
X-49490Y-262760D01*
X-49432Y-262865D01*
X-49370Y-262967D01*
X-49305Y-263067D01*
X-49237Y-263165D01*
X-49166Y-263261D01*
X-49091Y-263354D01*
X-49014Y-263445D01*
X-48934Y-263533D01*
X-48851Y-263618D01*
X-48765Y-263701D01*
X-48676Y-263781D01*
X-48585Y-263858D01*
X-48491Y-263932D01*
X-48395Y-264003D01*
X-48297Y-264071D01*
X-48197Y-264135D01*
X-48094Y-264197D01*
X-47990Y-264254D01*
X-47884Y-264309D01*
X-47776Y-264360D01*
X-47666Y-264407D01*
X-47555Y-264451D01*
X-47443Y-264491D01*
X-47329Y-264527D01*
X-47215Y-264560D01*
X-47099Y-264589D01*
X-46982Y-264614D01*
X-46865Y-264635D01*
X-46747Y-264653D01*
X-46628Y-264666D01*
X-46509Y-264676D01*
X-46390Y-264682D01*
X-46271Y-264684D01*
X-42320Y-260732D02*
X-50222Y-250854D01*
D11*
X142340Y-10007D02*
X142340Y-8059D01*
X135849Y-8059D01*
X135849Y-11954D01*
X135851Y-12053D01*
X135857Y-12153D01*
X135866Y-12252D01*
X135879Y-12350D01*
X135896Y-12448D01*
X135917Y-12546D01*
X135942Y-12642D01*
X135970Y-12737D01*
X136002Y-12831D01*
X136037Y-12924D01*
X136076Y-13016D01*
X136119Y-13106D01*
X136164Y-13194D01*
X136214Y-13281D01*
X136266Y-13365D01*
X136322Y-13448D01*
X136380Y-13528D01*
X136442Y-13606D01*
X136507Y-13681D01*
X136575Y-13754D01*
X136645Y-13824D01*
X136718Y-13892D01*
X136793Y-13957D01*
X136871Y-14019D01*
X136951Y-14077D01*
X137034Y-14133D01*
X137118Y-14185D01*
X137205Y-14235D01*
X137293Y-14280D01*
X137383Y-14323D01*
X137475Y-14362D01*
X137568Y-14397D01*
X137662Y-14429D01*
X137757Y-14457D01*
X137853Y-14482D01*
X137951Y-14503D01*
X138049Y-14520D01*
X138147Y-14533D01*
X138246Y-14542D01*
X138346Y-14548D01*
X138445Y-14550D01*
X138445Y-14551D02*
X144937Y-14551D01*
X144937Y-14550D02*
X145036Y-14548D01*
X145136Y-14542D01*
X145235Y-14533D01*
X145333Y-14520D01*
X145431Y-14503D01*
X145529Y-14482D01*
X145625Y-14457D01*
X145720Y-14429D01*
X145814Y-14397D01*
X145907Y-14362D01*
X145999Y-14323D01*
X146089Y-14280D01*
X146177Y-14235D01*
X146264Y-14185D01*
X146348Y-14133D01*
X146431Y-14077D01*
X146511Y-14019D01*
X146589Y-13957D01*
X146664Y-13892D01*
X146737Y-13824D01*
X146807Y-13754D01*
X146875Y-13681D01*
X146940Y-13606D01*
X147002Y-13528D01*
X147060Y-13448D01*
X147116Y-13365D01*
X147168Y-13281D01*
X147218Y-13194D01*
X147263Y-13106D01*
X147306Y-13016D01*
X147345Y-12924D01*
X147380Y-12832D01*
X147412Y-12737D01*
X147440Y-12642D01*
X147465Y-12546D01*
X147486Y-12448D01*
X147503Y-12350D01*
X147516Y-12252D01*
X147525Y-12153D01*
X147531Y-12053D01*
X147533Y-11954D01*
X147533Y-8059D01*
X147533Y-2359D02*
X135849Y-2359D01*
X135849Y4133D02*
X147533Y-2359D01*
X147533Y4133D02*
X135849Y4133D01*
X135849Y9833D02*
X147533Y9833D01*
X147533Y13079D01*
X147531Y13192D01*
X147525Y13305D01*
X147515Y13418D01*
X147501Y13531D01*
X147484Y13643D01*
X147462Y13754D01*
X147437Y13864D01*
X147407Y13974D01*
X147374Y14082D01*
X147337Y14189D01*
X147297Y14295D01*
X147252Y14399D01*
X147204Y14502D01*
X147153Y14603D01*
X147098Y14702D01*
X147040Y14799D01*
X146978Y14894D01*
X146913Y14987D01*
X146845Y15077D01*
X146774Y15165D01*
X146699Y15251D01*
X146622Y15334D01*
X146542Y15414D01*
X146459Y15491D01*
X146373Y15566D01*
X146285Y15637D01*
X146195Y15705D01*
X146102Y15770D01*
X146007Y15832D01*
X145910Y15890D01*
X145811Y15945D01*
X145710Y15996D01*
X145607Y16044D01*
X145503Y16089D01*
X145397Y16129D01*
X145290Y16166D01*
X145182Y16199D01*
X145072Y16229D01*
X144962Y16254D01*
X144851Y16276D01*
X144739Y16293D01*
X144626Y16307D01*
X144513Y16317D01*
X144400Y16323D01*
X144287Y16325D01*
X139095Y16325D01*
X138982Y16323D01*
X138869Y16317D01*
X138756Y16307D01*
X138643Y16293D01*
X138531Y16276D01*
X138420Y16254D01*
X138310Y16229D01*
X138200Y16199D01*
X138092Y16166D01*
X137985Y16129D01*
X137879Y16089D01*
X137775Y16044D01*
X137672Y15996D01*
X137571Y15945D01*
X137472Y15890D01*
X137375Y15832D01*
X137280Y15770D01*
X137187Y15705D01*
X137097Y15637D01*
X137009Y15566D01*
X136923Y15491D01*
X136840Y15414D01*
X136760Y15334D01*
X136683Y15251D01*
X136608Y15165D01*
X136537Y15077D01*
X136469Y14987D01*
X136404Y14894D01*
X136342Y14799D01*
X136284Y14702D01*
X136229Y14603D01*
X136178Y14502D01*
X136130Y14399D01*
X136085Y14295D01*
X136045Y14189D01*
X136008Y14082D01*
X135975Y13974D01*
X135945Y13864D01*
X135920Y13754D01*
X135898Y13643D01*
X135881Y13531D01*
X135867Y13418D01*
X135857Y13305D01*
X135851Y13192D01*
X135849Y13079D01*
X135849Y9833D01*
X-143664Y-9583D02*
X-143664Y-11531D01*
X-143664Y-9583D02*
X-150155Y-9583D01*
X-150155Y-13478D01*
X-150153Y-13577D01*
X-150147Y-13677D01*
X-150138Y-13776D01*
X-150125Y-13874D01*
X-150108Y-13972D01*
X-150087Y-14070D01*
X-150062Y-14166D01*
X-150034Y-14261D01*
X-150002Y-14355D01*
X-149967Y-14448D01*
X-149928Y-14540D01*
X-149885Y-14630D01*
X-149840Y-14718D01*
X-149790Y-14805D01*
X-149738Y-14889D01*
X-149682Y-14972D01*
X-149624Y-15052D01*
X-149562Y-15130D01*
X-149497Y-15205D01*
X-149429Y-15278D01*
X-149359Y-15348D01*
X-149286Y-15416D01*
X-149211Y-15481D01*
X-149133Y-15543D01*
X-149053Y-15601D01*
X-148970Y-15657D01*
X-148886Y-15709D01*
X-148799Y-15759D01*
X-148711Y-15804D01*
X-148621Y-15847D01*
X-148529Y-15886D01*
X-148436Y-15921D01*
X-148342Y-15953D01*
X-148247Y-15981D01*
X-148151Y-16006D01*
X-148053Y-16027D01*
X-147955Y-16044D01*
X-147857Y-16057D01*
X-147758Y-16066D01*
X-147658Y-16072D01*
X-147559Y-16074D01*
X-147559Y-16075D02*
X-141067Y-16075D01*
X-140968Y-16073D01*
X-140868Y-16067D01*
X-140769Y-16058D01*
X-140671Y-16045D01*
X-140573Y-16027D01*
X-140475Y-16007D01*
X-140379Y-15982D01*
X-140283Y-15954D01*
X-140189Y-15922D01*
X-140096Y-15887D01*
X-140005Y-15848D01*
X-139915Y-15805D01*
X-139826Y-15760D01*
X-139740Y-15710D01*
X-139655Y-15658D01*
X-139573Y-15602D01*
X-139493Y-15543D01*
X-139415Y-15482D01*
X-139339Y-15417D01*
X-139266Y-15349D01*
X-139196Y-15279D01*
X-139128Y-15206D01*
X-139063Y-15130D01*
X-139002Y-15052D01*
X-138943Y-14972D01*
X-138887Y-14890D01*
X-138835Y-14805D01*
X-138786Y-14719D01*
X-138740Y-14630D01*
X-138697Y-14540D01*
X-138658Y-14449D01*
X-138623Y-14356D01*
X-138591Y-14262D01*
X-138563Y-14166D01*
X-138538Y-14070D01*
X-138518Y-13972D01*
X-138500Y-13874D01*
X-138487Y-13776D01*
X-138478Y-13677D01*
X-138472Y-13578D01*
X-138470Y-13478D01*
X-138471Y-13478D02*
X-138471Y-9583D01*
X-138471Y-3883D02*
X-150155Y-3883D01*
X-150155Y2609D02*
X-138471Y-3883D01*
X-138471Y2609D02*
X-150155Y2609D01*
X-150155Y8309D02*
X-138471Y8309D01*
X-138471Y11555D01*
X-138473Y11668D01*
X-138479Y11781D01*
X-138489Y11894D01*
X-138503Y12007D01*
X-138520Y12119D01*
X-138542Y12230D01*
X-138567Y12340D01*
X-138597Y12450D01*
X-138630Y12558D01*
X-138667Y12665D01*
X-138707Y12771D01*
X-138752Y12875D01*
X-138800Y12978D01*
X-138851Y13079D01*
X-138906Y13178D01*
X-138964Y13275D01*
X-139026Y13370D01*
X-139091Y13463D01*
X-139159Y13553D01*
X-139230Y13641D01*
X-139305Y13727D01*
X-139382Y13810D01*
X-139462Y13890D01*
X-139545Y13967D01*
X-139631Y14042D01*
X-139719Y14113D01*
X-139809Y14181D01*
X-139902Y14246D01*
X-139997Y14308D01*
X-140094Y14366D01*
X-140193Y14421D01*
X-140294Y14472D01*
X-140397Y14520D01*
X-140501Y14565D01*
X-140607Y14605D01*
X-140714Y14642D01*
X-140822Y14675D01*
X-140932Y14705D01*
X-141042Y14730D01*
X-141153Y14752D01*
X-141265Y14769D01*
X-141378Y14783D01*
X-141491Y14793D01*
X-141604Y14799D01*
X-141717Y14801D01*
X-146909Y14801D01*
X-147022Y14799D01*
X-147135Y14793D01*
X-147248Y14783D01*
X-147361Y14769D01*
X-147473Y14752D01*
X-147584Y14730D01*
X-147694Y14705D01*
X-147804Y14675D01*
X-147912Y14642D01*
X-148019Y14605D01*
X-148125Y14565D01*
X-148229Y14520D01*
X-148332Y14472D01*
X-148433Y14421D01*
X-148532Y14366D01*
X-148629Y14308D01*
X-148724Y14246D01*
X-148817Y14181D01*
X-148907Y14113D01*
X-148995Y14042D01*
X-149081Y13967D01*
X-149164Y13890D01*
X-149244Y13810D01*
X-149321Y13727D01*
X-149396Y13641D01*
X-149467Y13553D01*
X-149535Y13463D01*
X-149600Y13370D01*
X-149662Y13275D01*
X-149720Y13178D01*
X-149775Y13079D01*
X-149826Y12978D01*
X-149874Y12875D01*
X-149919Y12771D01*
X-149959Y12665D01*
X-149996Y12558D01*
X-150029Y12450D01*
X-150059Y12340D01*
X-150084Y12230D01*
X-150106Y12119D01*
X-150123Y12007D01*
X-150137Y11894D01*
X-150147Y11781D01*
X-150153Y11668D01*
X-150155Y11555D01*
X-150155Y8309D01*
X-39820Y142340D02*
X-37872Y142340D01*
X-39820Y142340D02*
X-39820Y135849D01*
X-35925Y135849D01*
X-35826Y135851D01*
X-35726Y135857D01*
X-35627Y135866D01*
X-35529Y135879D01*
X-35431Y135896D01*
X-35333Y135917D01*
X-35237Y135942D01*
X-35142Y135970D01*
X-35048Y136002D01*
X-34955Y136037D01*
X-34863Y136076D01*
X-34773Y136119D01*
X-34685Y136164D01*
X-34598Y136214D01*
X-34514Y136266D01*
X-34431Y136322D01*
X-34351Y136380D01*
X-34273Y136442D01*
X-34198Y136507D01*
X-34125Y136575D01*
X-34055Y136645D01*
X-33987Y136718D01*
X-33922Y136793D01*
X-33860Y136871D01*
X-33802Y136951D01*
X-33746Y137034D01*
X-33694Y137118D01*
X-33644Y137205D01*
X-33599Y137293D01*
X-33556Y137383D01*
X-33517Y137475D01*
X-33482Y137568D01*
X-33450Y137662D01*
X-33422Y137757D01*
X-33397Y137853D01*
X-33376Y137951D01*
X-33359Y138049D01*
X-33346Y138147D01*
X-33337Y138246D01*
X-33331Y138346D01*
X-33329Y138445D01*
X-33329Y144937D01*
X-33331Y145036D01*
X-33337Y145136D01*
X-33346Y145235D01*
X-33359Y145333D01*
X-33376Y145431D01*
X-33397Y145529D01*
X-33422Y145625D01*
X-33450Y145720D01*
X-33482Y145814D01*
X-33517Y145907D01*
X-33556Y145999D01*
X-33599Y146089D01*
X-33644Y146177D01*
X-33694Y146264D01*
X-33746Y146348D01*
X-33802Y146431D01*
X-33860Y146511D01*
X-33922Y146589D01*
X-33987Y146664D01*
X-34055Y146737D01*
X-34125Y146807D01*
X-34198Y146875D01*
X-34273Y146940D01*
X-34351Y147002D01*
X-34431Y147060D01*
X-34514Y147116D01*
X-34598Y147168D01*
X-34685Y147218D01*
X-34773Y147263D01*
X-34863Y147306D01*
X-34955Y147345D01*
X-35047Y147380D01*
X-35142Y147412D01*
X-35237Y147440D01*
X-35333Y147465D01*
X-35431Y147486D01*
X-35529Y147503D01*
X-35627Y147516D01*
X-35726Y147525D01*
X-35826Y147531D01*
X-35925Y147533D01*
X-39820Y147533D01*
X-45520Y147533D02*
X-45520Y135849D01*
X-52012Y135849D02*
X-45520Y147533D01*
X-52012Y147533D02*
X-52012Y135849D01*
X-57712Y135849D02*
X-57712Y147533D01*
X-60958Y147533D01*
X-61071Y147531D01*
X-61184Y147525D01*
X-61297Y147515D01*
X-61410Y147501D01*
X-61522Y147484D01*
X-61633Y147462D01*
X-61743Y147437D01*
X-61853Y147407D01*
X-61961Y147374D01*
X-62068Y147337D01*
X-62174Y147297D01*
X-62278Y147252D01*
X-62381Y147204D01*
X-62482Y147153D01*
X-62581Y147098D01*
X-62678Y147040D01*
X-62773Y146978D01*
X-62866Y146913D01*
X-62956Y146845D01*
X-63044Y146774D01*
X-63130Y146699D01*
X-63213Y146622D01*
X-63293Y146542D01*
X-63370Y146459D01*
X-63445Y146373D01*
X-63516Y146285D01*
X-63584Y146195D01*
X-63649Y146102D01*
X-63711Y146007D01*
X-63769Y145910D01*
X-63824Y145811D01*
X-63875Y145710D01*
X-63923Y145607D01*
X-63968Y145503D01*
X-64008Y145397D01*
X-64045Y145290D01*
X-64078Y145182D01*
X-64108Y145072D01*
X-64133Y144962D01*
X-64155Y144851D01*
X-64172Y144739D01*
X-64186Y144626D01*
X-64196Y144513D01*
X-64202Y144400D01*
X-64204Y144287D01*
X-64204Y139095D01*
X-64202Y138982D01*
X-64196Y138869D01*
X-64186Y138756D01*
X-64172Y138643D01*
X-64155Y138531D01*
X-64133Y138420D01*
X-64108Y138310D01*
X-64078Y138200D01*
X-64045Y138092D01*
X-64008Y137985D01*
X-63968Y137879D01*
X-63923Y137775D01*
X-63875Y137672D01*
X-63824Y137571D01*
X-63769Y137472D01*
X-63711Y137375D01*
X-63649Y137280D01*
X-63584Y137187D01*
X-63516Y137097D01*
X-63445Y137009D01*
X-63370Y136923D01*
X-63293Y136840D01*
X-63213Y136760D01*
X-63130Y136683D01*
X-63044Y136608D01*
X-62956Y136537D01*
X-62866Y136469D01*
X-62773Y136404D01*
X-62678Y136342D01*
X-62581Y136284D01*
X-62482Y136229D01*
X-62381Y136178D01*
X-62278Y136130D01*
X-62174Y136085D01*
X-62068Y136045D01*
X-61961Y136008D01*
X-61853Y135975D01*
X-61743Y135945D01*
X-61633Y135920D01*
X-61522Y135898D01*
X-61410Y135881D01*
X-61297Y135867D01*
X-61184Y135857D01*
X-61071Y135851D01*
X-60958Y135849D01*
X-57712Y135849D01*
X56823Y141914D02*
X58771Y141914D01*
X56823Y141914D02*
X56823Y135423D01*
X60718Y135423D01*
X60817Y135425D01*
X60917Y135431D01*
X61016Y135440D01*
X61114Y135453D01*
X61212Y135470D01*
X61310Y135491D01*
X61406Y135516D01*
X61501Y135544D01*
X61595Y135576D01*
X61688Y135611D01*
X61780Y135650D01*
X61870Y135693D01*
X61958Y135738D01*
X62045Y135788D01*
X62129Y135840D01*
X62212Y135896D01*
X62292Y135954D01*
X62370Y136016D01*
X62445Y136081D01*
X62518Y136149D01*
X62588Y136219D01*
X62656Y136292D01*
X62721Y136367D01*
X62783Y136445D01*
X62841Y136525D01*
X62897Y136608D01*
X62949Y136692D01*
X62999Y136779D01*
X63044Y136867D01*
X63087Y136957D01*
X63126Y137049D01*
X63161Y137142D01*
X63193Y137236D01*
X63221Y137331D01*
X63246Y137427D01*
X63267Y137525D01*
X63284Y137623D01*
X63297Y137721D01*
X63306Y137820D01*
X63312Y137920D01*
X63314Y138019D01*
X63315Y138019D02*
X63315Y144511D01*
X63314Y144511D02*
X63312Y144610D01*
X63306Y144710D01*
X63297Y144809D01*
X63284Y144907D01*
X63267Y145005D01*
X63246Y145103D01*
X63221Y145199D01*
X63193Y145294D01*
X63161Y145388D01*
X63126Y145481D01*
X63087Y145573D01*
X63044Y145663D01*
X62999Y145751D01*
X62949Y145838D01*
X62897Y145922D01*
X62841Y146005D01*
X62783Y146085D01*
X62721Y146163D01*
X62656Y146238D01*
X62588Y146311D01*
X62518Y146381D01*
X62445Y146449D01*
X62370Y146514D01*
X62292Y146576D01*
X62212Y146634D01*
X62129Y146690D01*
X62045Y146742D01*
X61958Y146792D01*
X61870Y146837D01*
X61780Y146880D01*
X61688Y146919D01*
X61595Y146954D01*
X61501Y146986D01*
X61406Y147014D01*
X61310Y147039D01*
X61212Y147060D01*
X61114Y147077D01*
X61016Y147090D01*
X60917Y147099D01*
X60817Y147105D01*
X60718Y147107D01*
X56823Y147107D01*
X51123Y147107D02*
X51123Y135423D01*
X44631Y135423D02*
X51123Y147107D01*
X44631Y147107D02*
X44631Y135423D01*
X38931Y135423D02*
X38931Y147107D01*
X35685Y147107D01*
X35572Y147105D01*
X35459Y147099D01*
X35346Y147089D01*
X35233Y147075D01*
X35121Y147058D01*
X35010Y147036D01*
X34900Y147011D01*
X34790Y146981D01*
X34682Y146948D01*
X34575Y146911D01*
X34469Y146871D01*
X34365Y146826D01*
X34262Y146778D01*
X34161Y146727D01*
X34062Y146672D01*
X33965Y146614D01*
X33870Y146552D01*
X33777Y146487D01*
X33687Y146419D01*
X33599Y146348D01*
X33513Y146273D01*
X33430Y146196D01*
X33350Y146116D01*
X33273Y146033D01*
X33198Y145947D01*
X33127Y145859D01*
X33059Y145769D01*
X32994Y145676D01*
X32932Y145581D01*
X32874Y145484D01*
X32819Y145385D01*
X32768Y145284D01*
X32720Y145181D01*
X32675Y145077D01*
X32635Y144971D01*
X32598Y144864D01*
X32565Y144756D01*
X32535Y144646D01*
X32510Y144536D01*
X32488Y144425D01*
X32471Y144313D01*
X32457Y144200D01*
X32447Y144087D01*
X32441Y143974D01*
X32439Y143861D01*
X32440Y143861D02*
X32440Y138669D01*
X32439Y138669D02*
X32441Y138556D01*
X32447Y138443D01*
X32457Y138330D01*
X32471Y138217D01*
X32488Y138105D01*
X32510Y137994D01*
X32535Y137884D01*
X32565Y137774D01*
X32598Y137666D01*
X32635Y137559D01*
X32675Y137453D01*
X32720Y137349D01*
X32768Y137246D01*
X32819Y137145D01*
X32874Y137046D01*
X32932Y136949D01*
X32994Y136854D01*
X33059Y136761D01*
X33127Y136671D01*
X33198Y136583D01*
X33273Y136497D01*
X33350Y136414D01*
X33430Y136334D01*
X33513Y136257D01*
X33599Y136182D01*
X33687Y136111D01*
X33777Y136043D01*
X33870Y135978D01*
X33965Y135916D01*
X34062Y135858D01*
X34161Y135803D01*
X34262Y135752D01*
X34365Y135704D01*
X34469Y135659D01*
X34575Y135619D01*
X34682Y135582D01*
X34790Y135549D01*
X34900Y135519D01*
X35010Y135494D01*
X35121Y135472D01*
X35233Y135455D01*
X35346Y135441D01*
X35459Y135431D01*
X35572Y135425D01*
X35685Y135423D01*
X38931Y135423D01*
D10*
X138258Y52353D02*
X138258Y34573D01*
X138258Y52353D02*
X133320Y52353D01*
X133180Y52351D01*
X133041Y52345D01*
X132901Y52335D01*
X132762Y52321D01*
X132623Y52304D01*
X132485Y52282D01*
X132348Y52256D01*
X132211Y52227D01*
X132075Y52194D01*
X131941Y52157D01*
X131807Y52116D01*
X131675Y52071D01*
X131543Y52022D01*
X131414Y51970D01*
X131286Y51915D01*
X131159Y51855D01*
X131034Y51792D01*
X130911Y51726D01*
X130790Y51656D01*
X130671Y51583D01*
X130554Y51506D01*
X130440Y51426D01*
X130327Y51343D01*
X130217Y51257D01*
X130110Y51167D01*
X130005Y51075D01*
X129903Y50980D01*
X129803Y50882D01*
X129706Y50781D01*
X129612Y50677D01*
X129522Y50571D01*
X129434Y50462D01*
X129349Y50351D01*
X129268Y50237D01*
X129189Y50122D01*
X129114Y50004D01*
X129043Y49883D01*
X128975Y49761D01*
X128910Y49638D01*
X128849Y49512D01*
X128791Y49384D01*
X128737Y49256D01*
X128687Y49125D01*
X128640Y48993D01*
X128597Y48860D01*
X128558Y48726D01*
X128523Y48591D01*
X128492Y48455D01*
X128464Y48317D01*
X128441Y48180D01*
X128421Y48041D01*
X128405Y47902D01*
X128393Y47763D01*
X128385Y47624D01*
X128381Y47484D01*
X128381Y47344D01*
X128385Y47204D01*
X128393Y47065D01*
X128405Y46926D01*
X128421Y46787D01*
X128441Y46648D01*
X128464Y46511D01*
X128492Y46373D01*
X128523Y46237D01*
X128558Y46102D01*
X128597Y45968D01*
X128640Y45835D01*
X128687Y45703D01*
X128737Y45572D01*
X128791Y45444D01*
X128849Y45316D01*
X128910Y45190D01*
X128975Y45067D01*
X129043Y44944D01*
X129114Y44824D01*
X129189Y44706D01*
X129268Y44591D01*
X129349Y44477D01*
X129434Y44366D01*
X129522Y44257D01*
X129612Y44151D01*
X129706Y44047D01*
X129803Y43946D01*
X129903Y43848D01*
X130005Y43753D01*
X130110Y43661D01*
X130217Y43571D01*
X130327Y43485D01*
X130440Y43402D01*
X130554Y43322D01*
X130671Y43245D01*
X130790Y43172D01*
X130911Y43102D01*
X131034Y43036D01*
X131159Y42973D01*
X131286Y42913D01*
X131414Y42858D01*
X131543Y42806D01*
X131675Y42757D01*
X131807Y42712D01*
X131941Y42671D01*
X132075Y42634D01*
X132211Y42601D01*
X132348Y42572D01*
X132485Y42546D01*
X132623Y42524D01*
X132762Y42507D01*
X132901Y42493D01*
X133041Y42483D01*
X133180Y42477D01*
X133320Y42475D01*
X138258Y42475D01*
X122263Y48402D02*
X117324Y52353D01*
X117324Y34573D01*
X112386Y34573D02*
X122263Y34573D01*
X13671Y112170D02*
X13671Y129950D01*
X8733Y129950D01*
X8593Y129948D01*
X8454Y129942D01*
X8314Y129932D01*
X8175Y129918D01*
X8036Y129901D01*
X7898Y129879D01*
X7761Y129853D01*
X7624Y129824D01*
X7488Y129791D01*
X7354Y129754D01*
X7220Y129713D01*
X7088Y129668D01*
X6956Y129619D01*
X6827Y129567D01*
X6699Y129512D01*
X6572Y129452D01*
X6447Y129389D01*
X6324Y129323D01*
X6203Y129253D01*
X6084Y129180D01*
X5967Y129103D01*
X5853Y129023D01*
X5740Y128940D01*
X5630Y128854D01*
X5523Y128764D01*
X5418Y128672D01*
X5316Y128577D01*
X5216Y128479D01*
X5119Y128378D01*
X5025Y128274D01*
X4935Y128168D01*
X4847Y128059D01*
X4762Y127948D01*
X4681Y127834D01*
X4602Y127719D01*
X4527Y127601D01*
X4456Y127480D01*
X4388Y127358D01*
X4323Y127235D01*
X4262Y127109D01*
X4204Y126981D01*
X4150Y126853D01*
X4100Y126722D01*
X4053Y126590D01*
X4010Y126457D01*
X3971Y126323D01*
X3936Y126188D01*
X3905Y126052D01*
X3877Y125914D01*
X3854Y125777D01*
X3834Y125638D01*
X3818Y125499D01*
X3806Y125360D01*
X3798Y125221D01*
X3794Y125081D01*
X3794Y124941D01*
X3798Y124801D01*
X3806Y124662D01*
X3818Y124523D01*
X3834Y124384D01*
X3854Y124245D01*
X3877Y124108D01*
X3905Y123970D01*
X3936Y123834D01*
X3971Y123699D01*
X4010Y123565D01*
X4053Y123432D01*
X4100Y123300D01*
X4150Y123169D01*
X4204Y123041D01*
X4262Y122913D01*
X4323Y122787D01*
X4388Y122664D01*
X4456Y122541D01*
X4527Y122421D01*
X4602Y122303D01*
X4681Y122188D01*
X4762Y122074D01*
X4847Y121963D01*
X4935Y121854D01*
X5025Y121748D01*
X5119Y121644D01*
X5216Y121543D01*
X5316Y121445D01*
X5418Y121350D01*
X5523Y121258D01*
X5630Y121168D01*
X5740Y121082D01*
X5853Y120999D01*
X5967Y120919D01*
X6084Y120842D01*
X6203Y120769D01*
X6324Y120699D01*
X6447Y120633D01*
X6572Y120570D01*
X6699Y120510D01*
X6827Y120455D01*
X6956Y120403D01*
X7088Y120354D01*
X7220Y120309D01*
X7354Y120268D01*
X7488Y120231D01*
X7624Y120198D01*
X7761Y120169D01*
X7898Y120143D01*
X8036Y120121D01*
X8175Y120104D01*
X8314Y120090D01*
X8454Y120080D01*
X8593Y120074D01*
X8733Y120072D01*
X13671Y120072D01*
X-2324Y127974D02*
X-2324Y129950D01*
X-12201Y129950D01*
X-7263Y112170D01*
X104476Y-82202D02*
X104476Y-99982D01*
X104476Y-82202D02*
X99538Y-82202D01*
X99398Y-82204D01*
X99259Y-82210D01*
X99119Y-82220D01*
X98980Y-82234D01*
X98841Y-82251D01*
X98703Y-82273D01*
X98566Y-82299D01*
X98429Y-82328D01*
X98293Y-82361D01*
X98159Y-82398D01*
X98025Y-82439D01*
X97893Y-82484D01*
X97761Y-82533D01*
X97632Y-82585D01*
X97504Y-82640D01*
X97377Y-82700D01*
X97252Y-82763D01*
X97129Y-82829D01*
X97008Y-82899D01*
X96889Y-82972D01*
X96772Y-83049D01*
X96658Y-83129D01*
X96545Y-83212D01*
X96435Y-83298D01*
X96328Y-83388D01*
X96223Y-83480D01*
X96121Y-83575D01*
X96021Y-83673D01*
X95924Y-83774D01*
X95830Y-83878D01*
X95740Y-83984D01*
X95652Y-84093D01*
X95567Y-84204D01*
X95486Y-84318D01*
X95407Y-84433D01*
X95332Y-84551D01*
X95261Y-84672D01*
X95193Y-84794D01*
X95128Y-84917D01*
X95067Y-85043D01*
X95009Y-85171D01*
X94955Y-85299D01*
X94905Y-85430D01*
X94858Y-85562D01*
X94815Y-85695D01*
X94776Y-85829D01*
X94741Y-85964D01*
X94710Y-86100D01*
X94682Y-86238D01*
X94659Y-86375D01*
X94639Y-86514D01*
X94623Y-86653D01*
X94611Y-86792D01*
X94603Y-86931D01*
X94599Y-87071D01*
X94599Y-87211D01*
X94603Y-87351D01*
X94611Y-87490D01*
X94623Y-87629D01*
X94639Y-87768D01*
X94659Y-87907D01*
X94682Y-88044D01*
X94710Y-88182D01*
X94741Y-88318D01*
X94776Y-88453D01*
X94815Y-88587D01*
X94858Y-88720D01*
X94905Y-88852D01*
X94955Y-88983D01*
X95009Y-89111D01*
X95067Y-89239D01*
X95128Y-89365D01*
X95193Y-89488D01*
X95261Y-89611D01*
X95332Y-89731D01*
X95407Y-89849D01*
X95486Y-89964D01*
X95567Y-90078D01*
X95652Y-90189D01*
X95740Y-90298D01*
X95830Y-90404D01*
X95924Y-90508D01*
X96021Y-90609D01*
X96121Y-90707D01*
X96223Y-90802D01*
X96328Y-90894D01*
X96435Y-90984D01*
X96545Y-91070D01*
X96658Y-91153D01*
X96772Y-91233D01*
X96889Y-91310D01*
X97008Y-91383D01*
X97129Y-91453D01*
X97252Y-91519D01*
X97377Y-91582D01*
X97504Y-91642D01*
X97632Y-91697D01*
X97761Y-91749D01*
X97893Y-91798D01*
X98025Y-91843D01*
X98159Y-91884D01*
X98293Y-91921D01*
X98429Y-91954D01*
X98566Y-91983D01*
X98703Y-92009D01*
X98841Y-92031D01*
X98980Y-92048D01*
X99119Y-92062D01*
X99259Y-92072D01*
X99398Y-92078D01*
X99538Y-92080D01*
X104476Y-92080D01*
X83049Y-82202D02*
X82917Y-82204D01*
X82786Y-82210D01*
X82654Y-82220D01*
X82523Y-82233D01*
X82393Y-82251D01*
X82263Y-82272D01*
X82133Y-82297D01*
X82005Y-82326D01*
X81877Y-82359D01*
X81751Y-82396D01*
X81625Y-82436D01*
X81501Y-82480D01*
X81378Y-82528D01*
X81257Y-82579D01*
X81137Y-82634D01*
X81019Y-82692D01*
X80903Y-82754D01*
X80789Y-82820D01*
X80676Y-82888D01*
X80566Y-82960D01*
X80458Y-83035D01*
X80352Y-83114D01*
X80248Y-83195D01*
X80147Y-83280D01*
X80049Y-83367D01*
X79953Y-83458D01*
X79860Y-83551D01*
X79769Y-83647D01*
X79682Y-83745D01*
X79597Y-83846D01*
X79516Y-83950D01*
X79437Y-84056D01*
X79362Y-84164D01*
X79290Y-84274D01*
X79222Y-84387D01*
X79156Y-84501D01*
X79094Y-84617D01*
X79036Y-84735D01*
X78981Y-84855D01*
X78930Y-84976D01*
X78882Y-85099D01*
X78838Y-85223D01*
X78798Y-85349D01*
X78761Y-85475D01*
X78728Y-85603D01*
X78699Y-85731D01*
X78674Y-85861D01*
X78653Y-85991D01*
X78635Y-86121D01*
X78622Y-86252D01*
X78612Y-86384D01*
X78606Y-86515D01*
X78604Y-86647D01*
X83049Y-82202D02*
X83199Y-82204D01*
X83348Y-82210D01*
X83497Y-82220D01*
X83646Y-82233D01*
X83795Y-82251D01*
X83943Y-82272D01*
X84091Y-82298D01*
X84237Y-82327D01*
X84383Y-82360D01*
X84528Y-82397D01*
X84672Y-82438D01*
X84815Y-82482D01*
X84957Y-82530D01*
X85097Y-82582D01*
X85236Y-82637D01*
X85374Y-82696D01*
X85509Y-82759D01*
X85644Y-82825D01*
X85776Y-82895D01*
X85906Y-82968D01*
X86035Y-83045D01*
X86162Y-83125D01*
X86286Y-83208D01*
X86408Y-83294D01*
X86528Y-83384D01*
X86645Y-83477D01*
X86760Y-83572D01*
X86873Y-83671D01*
X86983Y-83773D01*
X87090Y-83877D01*
X87194Y-83984D01*
X87296Y-84094D01*
X87394Y-84207D01*
X87490Y-84322D01*
X87582Y-84440D01*
X87672Y-84560D01*
X87758Y-84682D01*
X87841Y-84806D01*
X87921Y-84933D01*
X87997Y-85061D01*
X88070Y-85192D01*
X88140Y-85325D01*
X88206Y-85459D01*
X88268Y-85595D01*
X88327Y-85732D01*
X88383Y-85871D01*
X88434Y-86012D01*
X88482Y-86153D01*
X80086Y-90104D02*
X79990Y-90011D01*
X79898Y-89915D01*
X79808Y-89816D01*
X79721Y-89715D01*
X79637Y-89612D01*
X79555Y-89507D01*
X79477Y-89399D01*
X79402Y-89289D01*
X79329Y-89177D01*
X79260Y-89063D01*
X79194Y-88947D01*
X79132Y-88829D01*
X79073Y-88710D01*
X79017Y-88589D01*
X78964Y-88466D01*
X78915Y-88342D01*
X78870Y-88217D01*
X78827Y-88090D01*
X78789Y-87963D01*
X78754Y-87834D01*
X78723Y-87705D01*
X78695Y-87574D01*
X78671Y-87443D01*
X78650Y-87311D01*
X78634Y-87179D01*
X78621Y-87046D01*
X78611Y-86913D01*
X78606Y-86780D01*
X78604Y-86647D01*
X80085Y-90104D02*
X88481Y-99982D01*
X78604Y-99982D01*
X118966Y-241144D02*
X118966Y-258924D01*
X118966Y-241144D02*
X114027Y-241144D01*
X113887Y-241146D01*
X113748Y-241152D01*
X113608Y-241162D01*
X113469Y-241176D01*
X113330Y-241193D01*
X113192Y-241215D01*
X113055Y-241241D01*
X112918Y-241270D01*
X112782Y-241303D01*
X112648Y-241340D01*
X112514Y-241381D01*
X112382Y-241426D01*
X112250Y-241475D01*
X112121Y-241527D01*
X111993Y-241582D01*
X111866Y-241642D01*
X111741Y-241705D01*
X111618Y-241771D01*
X111497Y-241841D01*
X111378Y-241914D01*
X111261Y-241991D01*
X111147Y-242071D01*
X111034Y-242154D01*
X110924Y-242240D01*
X110817Y-242330D01*
X110712Y-242422D01*
X110610Y-242517D01*
X110510Y-242615D01*
X110413Y-242716D01*
X110319Y-242820D01*
X110229Y-242926D01*
X110141Y-243035D01*
X110056Y-243146D01*
X109975Y-243260D01*
X109896Y-243375D01*
X109821Y-243493D01*
X109750Y-243614D01*
X109682Y-243736D01*
X109617Y-243859D01*
X109556Y-243985D01*
X109498Y-244113D01*
X109444Y-244241D01*
X109394Y-244372D01*
X109347Y-244504D01*
X109304Y-244637D01*
X109265Y-244771D01*
X109230Y-244906D01*
X109199Y-245042D01*
X109171Y-245180D01*
X109148Y-245317D01*
X109128Y-245456D01*
X109112Y-245595D01*
X109100Y-245734D01*
X109092Y-245873D01*
X109088Y-246013D01*
X109088Y-246153D01*
X109092Y-246293D01*
X109100Y-246432D01*
X109112Y-246571D01*
X109128Y-246710D01*
X109148Y-246849D01*
X109171Y-246986D01*
X109199Y-247124D01*
X109230Y-247260D01*
X109265Y-247395D01*
X109304Y-247529D01*
X109347Y-247662D01*
X109394Y-247794D01*
X109444Y-247925D01*
X109498Y-248053D01*
X109556Y-248181D01*
X109617Y-248307D01*
X109682Y-248430D01*
X109750Y-248553D01*
X109821Y-248673D01*
X109896Y-248791D01*
X109975Y-248906D01*
X110056Y-249020D01*
X110141Y-249131D01*
X110229Y-249240D01*
X110319Y-249346D01*
X110413Y-249450D01*
X110510Y-249551D01*
X110610Y-249649D01*
X110712Y-249744D01*
X110817Y-249836D01*
X110924Y-249926D01*
X111034Y-250012D01*
X111147Y-250095D01*
X111261Y-250175D01*
X111378Y-250252D01*
X111497Y-250325D01*
X111618Y-250395D01*
X111741Y-250461D01*
X111866Y-250524D01*
X111993Y-250584D01*
X112121Y-250639D01*
X112250Y-250691D01*
X112382Y-250740D01*
X112514Y-250785D01*
X112648Y-250826D01*
X112782Y-250863D01*
X112918Y-250896D01*
X113055Y-250925D01*
X113192Y-250951D01*
X113330Y-250973D01*
X113469Y-250990D01*
X113608Y-251004D01*
X113748Y-251014D01*
X113887Y-251020D01*
X114027Y-251022D01*
X118966Y-251022D01*
X102971Y-258924D02*
X98032Y-258924D01*
X97892Y-258922D01*
X97753Y-258916D01*
X97613Y-258906D01*
X97474Y-258892D01*
X97335Y-258875D01*
X97197Y-258853D01*
X97060Y-258827D01*
X96923Y-258798D01*
X96787Y-258765D01*
X96653Y-258728D01*
X96519Y-258687D01*
X96387Y-258642D01*
X96255Y-258593D01*
X96126Y-258541D01*
X95998Y-258486D01*
X95871Y-258426D01*
X95746Y-258363D01*
X95623Y-258297D01*
X95502Y-258227D01*
X95383Y-258154D01*
X95266Y-258077D01*
X95152Y-257997D01*
X95039Y-257914D01*
X94929Y-257828D01*
X94822Y-257738D01*
X94717Y-257646D01*
X94615Y-257551D01*
X94515Y-257453D01*
X94418Y-257352D01*
X94324Y-257248D01*
X94234Y-257142D01*
X94146Y-257033D01*
X94061Y-256922D01*
X93980Y-256808D01*
X93901Y-256693D01*
X93826Y-256575D01*
X93755Y-256455D01*
X93687Y-256332D01*
X93622Y-256209D01*
X93561Y-256083D01*
X93503Y-255955D01*
X93449Y-255827D01*
X93399Y-255696D01*
X93352Y-255564D01*
X93309Y-255431D01*
X93270Y-255297D01*
X93235Y-255162D01*
X93204Y-255026D01*
X93176Y-254888D01*
X93153Y-254751D01*
X93133Y-254612D01*
X93117Y-254473D01*
X93105Y-254334D01*
X93097Y-254195D01*
X93093Y-254055D01*
X93093Y-253915D01*
X93097Y-253775D01*
X93105Y-253636D01*
X93117Y-253497D01*
X93133Y-253358D01*
X93153Y-253219D01*
X93176Y-253082D01*
X93204Y-252944D01*
X93235Y-252808D01*
X93270Y-252673D01*
X93309Y-252539D01*
X93352Y-252406D01*
X93399Y-252274D01*
X93449Y-252143D01*
X93503Y-252015D01*
X93561Y-251887D01*
X93622Y-251761D01*
X93687Y-251638D01*
X93755Y-251516D01*
X93826Y-251395D01*
X93901Y-251277D01*
X93980Y-251162D01*
X94061Y-251048D01*
X94146Y-250937D01*
X94234Y-250828D01*
X94324Y-250722D01*
X94418Y-250618D01*
X94515Y-250517D01*
X94615Y-250419D01*
X94717Y-250324D01*
X94822Y-250232D01*
X94929Y-250142D01*
X95039Y-250056D01*
X95152Y-249973D01*
X95266Y-249893D01*
X95383Y-249816D01*
X95502Y-249743D01*
X95623Y-249673D01*
X95746Y-249607D01*
X95871Y-249544D01*
X95998Y-249484D01*
X96126Y-249429D01*
X96255Y-249377D01*
X96387Y-249328D01*
X96519Y-249283D01*
X96653Y-249242D01*
X96787Y-249205D01*
X96923Y-249172D01*
X97060Y-249143D01*
X97197Y-249117D01*
X97335Y-249095D01*
X97474Y-249078D01*
X97613Y-249064D01*
X97753Y-249054D01*
X97892Y-249048D01*
X98032Y-249046D01*
X97044Y-241144D02*
X102971Y-241144D01*
X97044Y-241144D02*
X96920Y-241146D01*
X96796Y-241152D01*
X96672Y-241162D01*
X96549Y-241175D01*
X96426Y-241193D01*
X96304Y-241214D01*
X96182Y-241239D01*
X96061Y-241268D01*
X95942Y-241301D01*
X95823Y-241337D01*
X95706Y-241378D01*
X95590Y-241421D01*
X95475Y-241469D01*
X95362Y-241520D01*
X95250Y-241575D01*
X95141Y-241633D01*
X95033Y-241694D01*
X94927Y-241759D01*
X94823Y-241827D01*
X94722Y-241899D01*
X94622Y-241973D01*
X94526Y-242051D01*
X94431Y-242131D01*
X94339Y-242215D01*
X94250Y-242301D01*
X94164Y-242390D01*
X94080Y-242482D01*
X94000Y-242577D01*
X93922Y-242673D01*
X93848Y-242773D01*
X93776Y-242874D01*
X93708Y-242978D01*
X93643Y-243084D01*
X93582Y-243192D01*
X93524Y-243301D01*
X93469Y-243413D01*
X93418Y-243526D01*
X93370Y-243641D01*
X93327Y-243757D01*
X93286Y-243874D01*
X93250Y-243993D01*
X93217Y-244112D01*
X93188Y-244233D01*
X93163Y-244355D01*
X93142Y-244477D01*
X93124Y-244600D01*
X93111Y-244723D01*
X93101Y-244847D01*
X93095Y-244971D01*
X93093Y-245095D01*
X93095Y-245219D01*
X93101Y-245343D01*
X93111Y-245467D01*
X93124Y-245590D01*
X93142Y-245713D01*
X93163Y-245835D01*
X93188Y-245957D01*
X93217Y-246078D01*
X93250Y-246197D01*
X93286Y-246316D01*
X93327Y-246433D01*
X93370Y-246549D01*
X93418Y-246664D01*
X93469Y-246777D01*
X93524Y-246889D01*
X93582Y-246998D01*
X93643Y-247106D01*
X93708Y-247212D01*
X93776Y-247316D01*
X93848Y-247417D01*
X93922Y-247517D01*
X94000Y-247613D01*
X94080Y-247708D01*
X94164Y-247800D01*
X94250Y-247889D01*
X94339Y-247975D01*
X94431Y-248059D01*
X94526Y-248139D01*
X94622Y-248217D01*
X94722Y-248291D01*
X94823Y-248363D01*
X94927Y-248431D01*
X95033Y-248496D01*
X95141Y-248557D01*
X95250Y-248615D01*
X95362Y-248670D01*
X95475Y-248721D01*
X95590Y-248769D01*
X95706Y-248812D01*
X95823Y-248853D01*
X95942Y-248889D01*
X96061Y-248922D01*
X96182Y-248951D01*
X96304Y-248976D01*
X96426Y-248997D01*
X96549Y-249015D01*
X96672Y-249028D01*
X96796Y-249038D01*
X96920Y-249044D01*
X97044Y-249046D01*
X100995Y-249046D01*
X80723Y-246083D02*
X80723Y-252010D01*
X77266Y-256455D01*
X80723Y-252010D02*
X84180Y-256455D01*
X80723Y-252010D02*
X75290Y-250034D01*
X80723Y-252010D02*
X86156Y-250034D01*
X-114472Y33495D02*
X-114472Y51275D01*
X-119411Y51275D01*
X-119551Y51273D01*
X-119690Y51267D01*
X-119830Y51257D01*
X-119969Y51243D01*
X-120108Y51226D01*
X-120246Y51204D01*
X-120383Y51178D01*
X-120520Y51149D01*
X-120656Y51116D01*
X-120790Y51079D01*
X-120924Y51038D01*
X-121056Y50993D01*
X-121188Y50944D01*
X-121317Y50892D01*
X-121445Y50837D01*
X-121572Y50777D01*
X-121697Y50714D01*
X-121820Y50648D01*
X-121941Y50578D01*
X-122060Y50505D01*
X-122177Y50428D01*
X-122291Y50348D01*
X-122404Y50265D01*
X-122514Y50179D01*
X-122621Y50089D01*
X-122726Y49997D01*
X-122828Y49902D01*
X-122928Y49804D01*
X-123025Y49703D01*
X-123119Y49599D01*
X-123209Y49493D01*
X-123297Y49384D01*
X-123382Y49273D01*
X-123463Y49159D01*
X-123542Y49044D01*
X-123617Y48926D01*
X-123688Y48805D01*
X-123756Y48683D01*
X-123821Y48560D01*
X-123882Y48434D01*
X-123940Y48306D01*
X-123994Y48178D01*
X-124044Y48047D01*
X-124091Y47915D01*
X-124134Y47782D01*
X-124173Y47648D01*
X-124208Y47513D01*
X-124239Y47377D01*
X-124267Y47239D01*
X-124290Y47102D01*
X-124310Y46963D01*
X-124326Y46824D01*
X-124338Y46685D01*
X-124346Y46546D01*
X-124350Y46406D01*
X-124350Y46266D01*
X-124346Y46126D01*
X-124338Y45987D01*
X-124326Y45848D01*
X-124310Y45709D01*
X-124290Y45570D01*
X-124267Y45433D01*
X-124239Y45295D01*
X-124208Y45159D01*
X-124173Y45024D01*
X-124134Y44890D01*
X-124091Y44757D01*
X-124044Y44625D01*
X-123994Y44494D01*
X-123940Y44366D01*
X-123882Y44238D01*
X-123821Y44112D01*
X-123756Y43989D01*
X-123688Y43866D01*
X-123617Y43746D01*
X-123542Y43628D01*
X-123463Y43513D01*
X-123382Y43399D01*
X-123297Y43288D01*
X-123209Y43179D01*
X-123119Y43073D01*
X-123025Y42969D01*
X-122928Y42868D01*
X-122828Y42770D01*
X-122726Y42675D01*
X-122621Y42583D01*
X-122514Y42493D01*
X-122404Y42407D01*
X-122291Y42324D01*
X-122177Y42244D01*
X-122060Y42167D01*
X-121941Y42094D01*
X-121820Y42024D01*
X-121697Y41958D01*
X-121572Y41895D01*
X-121445Y41835D01*
X-121317Y41780D01*
X-121188Y41728D01*
X-121056Y41679D01*
X-120924Y41634D01*
X-120790Y41593D01*
X-120656Y41556D01*
X-120520Y41523D01*
X-120383Y41494D01*
X-120246Y41468D01*
X-120108Y41446D01*
X-119969Y41429D01*
X-119830Y41415D01*
X-119690Y41405D01*
X-119551Y41399D01*
X-119411Y41397D01*
X-114472Y41397D01*
X-130467Y43373D02*
X-136393Y43373D01*
X-136517Y43371D01*
X-136641Y43365D01*
X-136765Y43355D01*
X-136888Y43342D01*
X-137011Y43324D01*
X-137133Y43303D01*
X-137255Y43278D01*
X-137376Y43249D01*
X-137495Y43216D01*
X-137614Y43180D01*
X-137731Y43139D01*
X-137847Y43096D01*
X-137962Y43048D01*
X-138075Y42997D01*
X-138187Y42942D01*
X-138296Y42884D01*
X-138404Y42823D01*
X-138510Y42758D01*
X-138614Y42690D01*
X-138715Y42618D01*
X-138815Y42544D01*
X-138911Y42466D01*
X-139006Y42386D01*
X-139098Y42302D01*
X-139187Y42216D01*
X-139273Y42127D01*
X-139357Y42035D01*
X-139437Y41940D01*
X-139515Y41844D01*
X-139589Y41744D01*
X-139661Y41643D01*
X-139729Y41539D01*
X-139794Y41433D01*
X-139855Y41325D01*
X-139913Y41216D01*
X-139968Y41104D01*
X-140019Y40991D01*
X-140067Y40876D01*
X-140110Y40760D01*
X-140151Y40643D01*
X-140187Y40524D01*
X-140220Y40405D01*
X-140249Y40284D01*
X-140274Y40162D01*
X-140295Y40040D01*
X-140313Y39917D01*
X-140326Y39794D01*
X-140336Y39670D01*
X-140342Y39546D01*
X-140344Y39422D01*
X-140344Y38434D01*
X-140345Y38434D02*
X-140343Y38294D01*
X-140337Y38155D01*
X-140327Y38015D01*
X-140313Y37876D01*
X-140296Y37737D01*
X-140274Y37599D01*
X-140248Y37462D01*
X-140219Y37325D01*
X-140186Y37189D01*
X-140149Y37055D01*
X-140108Y36921D01*
X-140063Y36789D01*
X-140014Y36657D01*
X-139962Y36528D01*
X-139907Y36400D01*
X-139847Y36273D01*
X-139784Y36148D01*
X-139718Y36025D01*
X-139648Y35904D01*
X-139575Y35785D01*
X-139498Y35668D01*
X-139418Y35554D01*
X-139335Y35441D01*
X-139249Y35331D01*
X-139159Y35224D01*
X-139067Y35119D01*
X-138972Y35017D01*
X-138874Y34917D01*
X-138773Y34820D01*
X-138669Y34726D01*
X-138563Y34636D01*
X-138454Y34548D01*
X-138343Y34463D01*
X-138229Y34382D01*
X-138114Y34303D01*
X-137996Y34228D01*
X-137876Y34157D01*
X-137753Y34089D01*
X-137630Y34024D01*
X-137504Y33963D01*
X-137376Y33905D01*
X-137248Y33851D01*
X-137117Y33801D01*
X-136985Y33754D01*
X-136852Y33711D01*
X-136718Y33672D01*
X-136583Y33637D01*
X-136447Y33606D01*
X-136309Y33578D01*
X-136172Y33555D01*
X-136033Y33535D01*
X-135894Y33519D01*
X-135755Y33507D01*
X-135616Y33499D01*
X-135476Y33495D01*
X-135336Y33495D01*
X-135196Y33499D01*
X-135057Y33507D01*
X-134918Y33519D01*
X-134779Y33535D01*
X-134640Y33555D01*
X-134503Y33578D01*
X-134365Y33606D01*
X-134229Y33637D01*
X-134094Y33672D01*
X-133960Y33711D01*
X-133827Y33754D01*
X-133695Y33801D01*
X-133564Y33851D01*
X-133436Y33905D01*
X-133308Y33963D01*
X-133182Y34024D01*
X-133059Y34089D01*
X-132936Y34157D01*
X-132816Y34228D01*
X-132698Y34303D01*
X-132583Y34382D01*
X-132469Y34463D01*
X-132358Y34548D01*
X-132249Y34636D01*
X-132143Y34726D01*
X-132039Y34820D01*
X-131938Y34917D01*
X-131840Y35017D01*
X-131745Y35119D01*
X-131653Y35224D01*
X-131563Y35331D01*
X-131477Y35441D01*
X-131394Y35554D01*
X-131314Y35668D01*
X-131237Y35785D01*
X-131164Y35904D01*
X-131094Y36025D01*
X-131028Y36148D01*
X-130965Y36273D01*
X-130905Y36400D01*
X-130850Y36528D01*
X-130798Y36657D01*
X-130749Y36789D01*
X-130704Y36921D01*
X-130663Y37055D01*
X-130626Y37189D01*
X-130593Y37325D01*
X-130564Y37462D01*
X-130538Y37599D01*
X-130516Y37737D01*
X-130499Y37876D01*
X-130485Y38015D01*
X-130475Y38155D01*
X-130469Y38294D01*
X-130467Y38434D01*
X-130467Y43373D01*
X-130469Y43567D01*
X-130477Y43761D01*
X-130488Y43954D01*
X-130505Y44148D01*
X-130526Y44340D01*
X-130553Y44532D01*
X-130583Y44724D01*
X-130619Y44915D01*
X-130659Y45104D01*
X-130704Y45293D01*
X-130753Y45481D01*
X-130807Y45667D01*
X-130866Y45852D01*
X-130929Y46035D01*
X-130996Y46217D01*
X-131069Y46397D01*
X-131145Y46575D01*
X-131226Y46752D01*
X-131311Y46926D01*
X-131400Y47098D01*
X-131494Y47268D01*
X-131591Y47435D01*
X-131693Y47601D01*
X-131799Y47763D01*
X-131908Y47923D01*
X-132022Y48080D01*
X-132139Y48235D01*
X-132261Y48386D01*
X-132386Y48534D01*
X-132514Y48680D01*
X-132646Y48822D01*
X-132781Y48961D01*
X-132920Y49096D01*
X-133062Y49228D01*
X-133208Y49356D01*
X-133356Y49481D01*
X-133507Y49603D01*
X-133662Y49720D01*
X-133819Y49834D01*
X-133979Y49943D01*
X-134141Y50049D01*
X-134307Y50151D01*
X-134474Y50248D01*
X-134644Y50342D01*
X-134816Y50431D01*
X-134990Y50516D01*
X-135167Y50597D01*
X-135345Y50673D01*
X-135525Y50746D01*
X-135707Y50813D01*
X-135890Y50876D01*
X-136075Y50935D01*
X-136261Y50989D01*
X-136449Y51038D01*
X-136638Y51083D01*
X-136827Y51123D01*
X-137018Y51159D01*
X-137210Y51189D01*
X-137402Y51216D01*
X-137594Y51237D01*
X-137788Y51254D01*
X-137981Y51265D01*
X-138175Y51273D01*
X-138369Y51275D01*
X-82214Y-82013D02*
X-82214Y-99793D01*
X-82214Y-82013D02*
X-87153Y-82013D01*
X-87293Y-82015D01*
X-87432Y-82021D01*
X-87572Y-82031D01*
X-87711Y-82045D01*
X-87850Y-82062D01*
X-87988Y-82084D01*
X-88125Y-82110D01*
X-88262Y-82139D01*
X-88398Y-82172D01*
X-88532Y-82209D01*
X-88666Y-82250D01*
X-88798Y-82295D01*
X-88930Y-82344D01*
X-89059Y-82396D01*
X-89187Y-82451D01*
X-89314Y-82511D01*
X-89439Y-82574D01*
X-89562Y-82640D01*
X-89683Y-82710D01*
X-89802Y-82783D01*
X-89919Y-82860D01*
X-90033Y-82940D01*
X-90146Y-83023D01*
X-90256Y-83109D01*
X-90363Y-83199D01*
X-90468Y-83291D01*
X-90570Y-83386D01*
X-90670Y-83484D01*
X-90767Y-83585D01*
X-90861Y-83689D01*
X-90951Y-83795D01*
X-91039Y-83904D01*
X-91124Y-84015D01*
X-91205Y-84129D01*
X-91284Y-84244D01*
X-91359Y-84362D01*
X-91430Y-84483D01*
X-91498Y-84605D01*
X-91563Y-84728D01*
X-91624Y-84854D01*
X-91682Y-84982D01*
X-91736Y-85110D01*
X-91786Y-85241D01*
X-91833Y-85373D01*
X-91876Y-85506D01*
X-91915Y-85640D01*
X-91950Y-85775D01*
X-91981Y-85911D01*
X-92009Y-86049D01*
X-92032Y-86186D01*
X-92052Y-86325D01*
X-92068Y-86464D01*
X-92080Y-86603D01*
X-92088Y-86742D01*
X-92092Y-86882D01*
X-92092Y-87022D01*
X-92088Y-87162D01*
X-92080Y-87301D01*
X-92068Y-87440D01*
X-92052Y-87579D01*
X-92032Y-87718D01*
X-92009Y-87855D01*
X-91981Y-87993D01*
X-91950Y-88129D01*
X-91915Y-88264D01*
X-91876Y-88398D01*
X-91833Y-88531D01*
X-91786Y-88663D01*
X-91736Y-88794D01*
X-91682Y-88922D01*
X-91624Y-89050D01*
X-91563Y-89176D01*
X-91498Y-89299D01*
X-91430Y-89422D01*
X-91359Y-89542D01*
X-91284Y-89660D01*
X-91205Y-89775D01*
X-91124Y-89889D01*
X-91039Y-90000D01*
X-90951Y-90109D01*
X-90861Y-90215D01*
X-90767Y-90319D01*
X-90670Y-90420D01*
X-90570Y-90518D01*
X-90468Y-90613D01*
X-90363Y-90705D01*
X-90256Y-90795D01*
X-90146Y-90881D01*
X-90033Y-90964D01*
X-89919Y-91044D01*
X-89802Y-91121D01*
X-89683Y-91194D01*
X-89562Y-91264D01*
X-89439Y-91330D01*
X-89314Y-91393D01*
X-89187Y-91453D01*
X-89059Y-91508D01*
X-88930Y-91560D01*
X-88798Y-91609D01*
X-88666Y-91654D01*
X-88532Y-91695D01*
X-88398Y-91732D01*
X-88262Y-91765D01*
X-88125Y-91794D01*
X-87988Y-91820D01*
X-87850Y-91842D01*
X-87711Y-91859D01*
X-87572Y-91873D01*
X-87432Y-91883D01*
X-87293Y-91889D01*
X-87153Y-91891D01*
X-82214Y-91891D01*
X-98209Y-99793D02*
X-104135Y-99793D01*
X-104259Y-99791D01*
X-104383Y-99785D01*
X-104507Y-99775D01*
X-104630Y-99762D01*
X-104753Y-99744D01*
X-104875Y-99723D01*
X-104997Y-99698D01*
X-105118Y-99669D01*
X-105237Y-99636D01*
X-105356Y-99600D01*
X-105473Y-99559D01*
X-105589Y-99516D01*
X-105704Y-99468D01*
X-105817Y-99417D01*
X-105929Y-99362D01*
X-106038Y-99304D01*
X-106146Y-99243D01*
X-106252Y-99178D01*
X-106356Y-99110D01*
X-106457Y-99038D01*
X-106557Y-98964D01*
X-106653Y-98886D01*
X-106748Y-98806D01*
X-106840Y-98722D01*
X-106929Y-98636D01*
X-107015Y-98547D01*
X-107099Y-98455D01*
X-107179Y-98360D01*
X-107257Y-98264D01*
X-107331Y-98164D01*
X-107403Y-98063D01*
X-107471Y-97959D01*
X-107536Y-97853D01*
X-107597Y-97745D01*
X-107655Y-97636D01*
X-107710Y-97524D01*
X-107761Y-97411D01*
X-107809Y-97296D01*
X-107852Y-97180D01*
X-107893Y-97063D01*
X-107929Y-96944D01*
X-107962Y-96825D01*
X-107991Y-96704D01*
X-108016Y-96582D01*
X-108037Y-96460D01*
X-108055Y-96337D01*
X-108068Y-96214D01*
X-108078Y-96090D01*
X-108084Y-95966D01*
X-108086Y-95842D01*
X-108086Y-93866D01*
X-108084Y-93742D01*
X-108078Y-93618D01*
X-108068Y-93494D01*
X-108055Y-93371D01*
X-108037Y-93248D01*
X-108016Y-93126D01*
X-107991Y-93004D01*
X-107962Y-92883D01*
X-107929Y-92764D01*
X-107893Y-92645D01*
X-107852Y-92528D01*
X-107809Y-92412D01*
X-107761Y-92297D01*
X-107710Y-92184D01*
X-107655Y-92072D01*
X-107597Y-91963D01*
X-107536Y-91855D01*
X-107471Y-91749D01*
X-107403Y-91645D01*
X-107331Y-91544D01*
X-107257Y-91444D01*
X-107179Y-91348D01*
X-107099Y-91253D01*
X-107015Y-91161D01*
X-106929Y-91072D01*
X-106840Y-90986D01*
X-106748Y-90902D01*
X-106653Y-90822D01*
X-106557Y-90744D01*
X-106457Y-90670D01*
X-106356Y-90598D01*
X-106252Y-90530D01*
X-106146Y-90465D01*
X-106038Y-90404D01*
X-105929Y-90346D01*
X-105817Y-90291D01*
X-105704Y-90240D01*
X-105589Y-90192D01*
X-105473Y-90149D01*
X-105356Y-90108D01*
X-105237Y-90072D01*
X-105118Y-90039D01*
X-104997Y-90010D01*
X-104875Y-89985D01*
X-104753Y-89964D01*
X-104630Y-89946D01*
X-104507Y-89933D01*
X-104383Y-89923D01*
X-104259Y-89917D01*
X-104135Y-89915D01*
X-98209Y-89915D01*
X-98209Y-82013D01*
X-108086Y-82013D01*
X-85885Y-241906D02*
X-85885Y-259686D01*
X-85885Y-241906D02*
X-90824Y-241906D01*
X-90964Y-241908D01*
X-91103Y-241914D01*
X-91243Y-241924D01*
X-91382Y-241938D01*
X-91521Y-241955D01*
X-91659Y-241977D01*
X-91796Y-242003D01*
X-91933Y-242032D01*
X-92069Y-242065D01*
X-92203Y-242102D01*
X-92337Y-242143D01*
X-92469Y-242188D01*
X-92601Y-242237D01*
X-92730Y-242289D01*
X-92858Y-242344D01*
X-92985Y-242404D01*
X-93110Y-242467D01*
X-93233Y-242533D01*
X-93354Y-242603D01*
X-93473Y-242676D01*
X-93590Y-242753D01*
X-93704Y-242833D01*
X-93817Y-242916D01*
X-93927Y-243002D01*
X-94034Y-243092D01*
X-94139Y-243184D01*
X-94241Y-243279D01*
X-94341Y-243377D01*
X-94438Y-243478D01*
X-94532Y-243582D01*
X-94622Y-243688D01*
X-94710Y-243797D01*
X-94795Y-243908D01*
X-94876Y-244022D01*
X-94955Y-244137D01*
X-95030Y-244255D01*
X-95101Y-244376D01*
X-95169Y-244498D01*
X-95234Y-244621D01*
X-95295Y-244747D01*
X-95353Y-244875D01*
X-95407Y-245003D01*
X-95457Y-245134D01*
X-95504Y-245266D01*
X-95547Y-245399D01*
X-95586Y-245533D01*
X-95621Y-245668D01*
X-95652Y-245804D01*
X-95680Y-245942D01*
X-95703Y-246079D01*
X-95723Y-246218D01*
X-95739Y-246357D01*
X-95751Y-246496D01*
X-95759Y-246635D01*
X-95763Y-246775D01*
X-95763Y-246915D01*
X-95759Y-247055D01*
X-95751Y-247194D01*
X-95739Y-247333D01*
X-95723Y-247472D01*
X-95703Y-247611D01*
X-95680Y-247748D01*
X-95652Y-247886D01*
X-95621Y-248022D01*
X-95586Y-248157D01*
X-95547Y-248291D01*
X-95504Y-248424D01*
X-95457Y-248556D01*
X-95407Y-248687D01*
X-95353Y-248815D01*
X-95295Y-248943D01*
X-95234Y-249069D01*
X-95169Y-249192D01*
X-95101Y-249315D01*
X-95030Y-249435D01*
X-94955Y-249553D01*
X-94876Y-249668D01*
X-94795Y-249782D01*
X-94710Y-249893D01*
X-94622Y-250002D01*
X-94532Y-250108D01*
X-94438Y-250212D01*
X-94341Y-250313D01*
X-94241Y-250411D01*
X-94139Y-250506D01*
X-94034Y-250598D01*
X-93927Y-250688D01*
X-93817Y-250774D01*
X-93704Y-250857D01*
X-93590Y-250937D01*
X-93473Y-251014D01*
X-93354Y-251087D01*
X-93233Y-251157D01*
X-93110Y-251223D01*
X-92985Y-251286D01*
X-92858Y-251346D01*
X-92730Y-251401D01*
X-92601Y-251453D01*
X-92469Y-251502D01*
X-92337Y-251547D01*
X-92203Y-251588D01*
X-92069Y-251625D01*
X-91933Y-251658D01*
X-91796Y-251687D01*
X-91659Y-251713D01*
X-91521Y-251735D01*
X-91382Y-251752D01*
X-91243Y-251766D01*
X-91103Y-251776D01*
X-90964Y-251782D01*
X-90824Y-251784D01*
X-85885Y-251784D01*
X-101880Y-255735D02*
X-105831Y-241906D01*
X-101880Y-255735D02*
X-111758Y-255735D01*
X-108795Y-251784D02*
X-108795Y-259686D01*
X-124128Y-252772D02*
X-124128Y-246845D01*
X-124128Y-252772D02*
X-127585Y-257217D01*
X-124128Y-252772D02*
X-120671Y-257217D01*
X-124128Y-252772D02*
X-129561Y-250796D01*
X-124128Y-252772D02*
X-118695Y-250796D01*
D12*
X79643Y113389D02*
X81732Y113389D01*
X81821Y113391D01*
X81909Y113397D01*
X81997Y113406D01*
X82085Y113419D01*
X82172Y113436D01*
X82258Y113456D01*
X82343Y113481D01*
X82428Y113508D01*
X82511Y113540D01*
X82592Y113574D01*
X82672Y113613D01*
X82750Y113654D01*
X82827Y113699D01*
X82901Y113747D01*
X82974Y113798D01*
X83044Y113852D01*
X83111Y113910D01*
X83177Y113970D01*
X83239Y114032D01*
X83299Y114098D01*
X83357Y114165D01*
X83411Y114235D01*
X83462Y114308D01*
X83510Y114382D01*
X83555Y114459D01*
X83596Y114537D01*
X83635Y114617D01*
X83669Y114698D01*
X83701Y114781D01*
X83728Y114866D01*
X83753Y114951D01*
X83773Y115037D01*
X83790Y115124D01*
X83803Y115212D01*
X83812Y115300D01*
X83818Y115388D01*
X83820Y115477D01*
X83820Y120698D01*
X83818Y120787D01*
X83812Y120875D01*
X83803Y120963D01*
X83790Y121051D01*
X83773Y121138D01*
X83753Y121224D01*
X83728Y121309D01*
X83701Y121394D01*
X83669Y121477D01*
X83635Y121558D01*
X83596Y121638D01*
X83555Y121716D01*
X83510Y121793D01*
X83462Y121867D01*
X83411Y121940D01*
X83357Y122010D01*
X83299Y122077D01*
X83239Y122143D01*
X83177Y122205D01*
X83111Y122265D01*
X83044Y122323D01*
X82974Y122377D01*
X82901Y122428D01*
X82827Y122476D01*
X82750Y122521D01*
X82672Y122562D01*
X82592Y122601D01*
X82511Y122635D01*
X82428Y122667D01*
X82343Y122694D01*
X82258Y122719D01*
X82172Y122739D01*
X82085Y122756D01*
X81997Y122769D01*
X81909Y122778D01*
X81821Y122784D01*
X81732Y122786D01*
X81732Y122787D02*
X79643Y122787D01*
X76175Y115999D02*
X76173Y116100D01*
X76167Y116201D01*
X76157Y116302D01*
X76144Y116402D01*
X76126Y116502D01*
X76105Y116601D01*
X76079Y116699D01*
X76050Y116796D01*
X76018Y116892D01*
X75981Y116986D01*
X75941Y117079D01*
X75897Y117171D01*
X75850Y117260D01*
X75799Y117348D01*
X75745Y117434D01*
X75688Y117517D01*
X75628Y117599D01*
X75564Y117677D01*
X75498Y117754D01*
X75428Y117827D01*
X75356Y117898D01*
X75281Y117966D01*
X75203Y118031D01*
X75123Y118093D01*
X75041Y118152D01*
X74956Y118208D01*
X74870Y118260D01*
X74781Y118309D01*
X74690Y118355D01*
X74598Y118396D01*
X74504Y118435D01*
X74409Y118469D01*
X74313Y118500D01*
X74215Y118527D01*
X74117Y118551D01*
X74017Y118570D01*
X73917Y118586D01*
X73817Y118598D01*
X73716Y118606D01*
X73615Y118610D01*
X73513Y118610D01*
X73412Y118606D01*
X73311Y118598D01*
X73211Y118586D01*
X73111Y118570D01*
X73011Y118551D01*
X72913Y118527D01*
X72815Y118500D01*
X72719Y118469D01*
X72624Y118435D01*
X72530Y118396D01*
X72438Y118355D01*
X72347Y118309D01*
X72259Y118260D01*
X72172Y118208D01*
X72087Y118152D01*
X72005Y118093D01*
X71925Y118031D01*
X71847Y117966D01*
X71772Y117898D01*
X71700Y117827D01*
X71630Y117754D01*
X71564Y117677D01*
X71500Y117599D01*
X71440Y117517D01*
X71383Y117434D01*
X71329Y117348D01*
X71278Y117260D01*
X71231Y117171D01*
X71187Y117079D01*
X71147Y116986D01*
X71110Y116892D01*
X71078Y116796D01*
X71049Y116699D01*
X71023Y116601D01*
X71002Y116502D01*
X70984Y116402D01*
X70971Y116302D01*
X70961Y116201D01*
X70955Y116100D01*
X70953Y115999D01*
X70955Y115898D01*
X70961Y115797D01*
X70971Y115696D01*
X70984Y115596D01*
X71002Y115496D01*
X71023Y115397D01*
X71049Y115299D01*
X71078Y115202D01*
X71110Y115106D01*
X71147Y115012D01*
X71187Y114919D01*
X71231Y114827D01*
X71278Y114738D01*
X71329Y114650D01*
X71383Y114564D01*
X71440Y114481D01*
X71500Y114399D01*
X71564Y114321D01*
X71630Y114244D01*
X71700Y114171D01*
X71772Y114100D01*
X71847Y114032D01*
X71925Y113967D01*
X72005Y113905D01*
X72087Y113846D01*
X72172Y113790D01*
X72259Y113738D01*
X72347Y113689D01*
X72438Y113643D01*
X72530Y113602D01*
X72624Y113563D01*
X72719Y113529D01*
X72815Y113498D01*
X72913Y113471D01*
X73011Y113447D01*
X73111Y113428D01*
X73211Y113412D01*
X73311Y113400D01*
X73412Y113392D01*
X73513Y113388D01*
X73615Y113388D01*
X73716Y113392D01*
X73817Y113400D01*
X73917Y113412D01*
X74017Y113428D01*
X74117Y113447D01*
X74215Y113471D01*
X74313Y113498D01*
X74409Y113529D01*
X74504Y113563D01*
X74598Y113602D01*
X74690Y113643D01*
X74781Y113689D01*
X74869Y113738D01*
X74956Y113790D01*
X75041Y113846D01*
X75123Y113905D01*
X75203Y113967D01*
X75281Y114032D01*
X75356Y114100D01*
X75428Y114171D01*
X75498Y114244D01*
X75564Y114321D01*
X75628Y114399D01*
X75688Y114481D01*
X75745Y114564D01*
X75799Y114650D01*
X75850Y114738D01*
X75897Y114827D01*
X75941Y114919D01*
X75981Y115012D01*
X76018Y115106D01*
X76050Y115202D01*
X76079Y115299D01*
X76105Y115397D01*
X76126Y115496D01*
X76144Y115596D01*
X76157Y115696D01*
X76167Y115797D01*
X76173Y115898D01*
X76175Y115999D01*
X75652Y120698D02*
X75650Y120788D01*
X75644Y120877D01*
X75635Y120967D01*
X75621Y121056D01*
X75604Y121144D01*
X75583Y121231D01*
X75558Y121318D01*
X75529Y121403D01*
X75497Y121487D01*
X75462Y121569D01*
X75422Y121650D01*
X75380Y121729D01*
X75334Y121806D01*
X75284Y121881D01*
X75232Y121954D01*
X75176Y122025D01*
X75118Y122093D01*
X75056Y122158D01*
X74992Y122221D01*
X74925Y122281D01*
X74856Y122338D01*
X74784Y122392D01*
X74710Y122443D01*
X74634Y122491D01*
X74556Y122535D01*
X74476Y122576D01*
X74394Y122614D01*
X74311Y122648D01*
X74226Y122678D01*
X74140Y122705D01*
X74054Y122728D01*
X73966Y122747D01*
X73877Y122762D01*
X73788Y122774D01*
X73699Y122782D01*
X73609Y122786D01*
X73519Y122786D01*
X73429Y122782D01*
X73340Y122774D01*
X73251Y122762D01*
X73162Y122747D01*
X73074Y122728D01*
X72988Y122705D01*
X72902Y122678D01*
X72817Y122648D01*
X72734Y122614D01*
X72652Y122576D01*
X72572Y122535D01*
X72494Y122491D01*
X72418Y122443D01*
X72344Y122392D01*
X72272Y122338D01*
X72203Y122281D01*
X72136Y122221D01*
X72072Y122158D01*
X72010Y122093D01*
X71952Y122025D01*
X71896Y121954D01*
X71844Y121881D01*
X71794Y121806D01*
X71748Y121729D01*
X71706Y121650D01*
X71666Y121569D01*
X71631Y121487D01*
X71599Y121403D01*
X71570Y121318D01*
X71545Y121231D01*
X71524Y121144D01*
X71507Y121056D01*
X71493Y120967D01*
X71484Y120877D01*
X71478Y120788D01*
X71476Y120698D01*
X71478Y120608D01*
X71484Y120519D01*
X71493Y120429D01*
X71507Y120340D01*
X71524Y120252D01*
X71545Y120165D01*
X71570Y120078D01*
X71599Y119993D01*
X71631Y119909D01*
X71666Y119827D01*
X71706Y119746D01*
X71748Y119667D01*
X71794Y119590D01*
X71844Y119515D01*
X71896Y119442D01*
X71952Y119371D01*
X72010Y119303D01*
X72072Y119238D01*
X72136Y119175D01*
X72203Y119115D01*
X72272Y119058D01*
X72344Y119004D01*
X72418Y118953D01*
X72494Y118905D01*
X72572Y118861D01*
X72652Y118820D01*
X72734Y118782D01*
X72817Y118748D01*
X72902Y118718D01*
X72988Y118691D01*
X73074Y118668D01*
X73162Y118649D01*
X73251Y118634D01*
X73340Y118622D01*
X73429Y118614D01*
X73519Y118610D01*
X73609Y118610D01*
X73699Y118614D01*
X73788Y118622D01*
X73877Y118634D01*
X73966Y118649D01*
X74054Y118668D01*
X74140Y118691D01*
X74226Y118718D01*
X74311Y118748D01*
X74394Y118782D01*
X74476Y118820D01*
X74556Y118861D01*
X74634Y118905D01*
X74710Y118953D01*
X74784Y119004D01*
X74856Y119058D01*
X74925Y119115D01*
X74992Y119175D01*
X75056Y119238D01*
X75118Y119303D01*
X75176Y119371D01*
X75232Y119442D01*
X75284Y119515D01*
X75334Y119590D01*
X75380Y119667D01*
X75422Y119746D01*
X75462Y119827D01*
X75497Y119909D01*
X75529Y119993D01*
X75558Y120078D01*
X75583Y120165D01*
X75604Y120252D01*
X75621Y120340D01*
X75635Y120429D01*
X75644Y120519D01*
X75650Y120608D01*
X75652Y120698D01*
D10*
X-54865Y118805D02*
X-54865Y98676D01*
D12*
X-59647Y86823D02*
X-61736Y86823D01*
X-59647Y86823D02*
X-59558Y86825D01*
X-59470Y86831D01*
X-59382Y86840D01*
X-59294Y86853D01*
X-59207Y86870D01*
X-59121Y86890D01*
X-59036Y86915D01*
X-58951Y86942D01*
X-58868Y86974D01*
X-58787Y87008D01*
X-58707Y87047D01*
X-58629Y87088D01*
X-58552Y87133D01*
X-58478Y87181D01*
X-58405Y87232D01*
X-58335Y87286D01*
X-58268Y87344D01*
X-58202Y87404D01*
X-58140Y87466D01*
X-58080Y87532D01*
X-58022Y87599D01*
X-57968Y87669D01*
X-57917Y87742D01*
X-57869Y87816D01*
X-57824Y87893D01*
X-57783Y87971D01*
X-57744Y88051D01*
X-57710Y88132D01*
X-57678Y88215D01*
X-57651Y88300D01*
X-57626Y88385D01*
X-57606Y88471D01*
X-57589Y88558D01*
X-57576Y88646D01*
X-57567Y88734D01*
X-57561Y88822D01*
X-57559Y88911D01*
X-57559Y94133D01*
X-57561Y94224D01*
X-57567Y94315D01*
X-57577Y94406D01*
X-57591Y94496D01*
X-57608Y94585D01*
X-57630Y94673D01*
X-57656Y94761D01*
X-57685Y94847D01*
X-57718Y94932D01*
X-57755Y95015D01*
X-57795Y95097D01*
X-57839Y95177D01*
X-57886Y95255D01*
X-57937Y95331D01*
X-57990Y95404D01*
X-58047Y95475D01*
X-58108Y95544D01*
X-58171Y95609D01*
X-58236Y95672D01*
X-58305Y95732D01*
X-58376Y95790D01*
X-58449Y95843D01*
X-58525Y95894D01*
X-58603Y95941D01*
X-58683Y95985D01*
X-58765Y96025D01*
X-58848Y96062D01*
X-58933Y96095D01*
X-59019Y96124D01*
X-59107Y96150D01*
X-59195Y96172D01*
X-59284Y96189D01*
X-59374Y96203D01*
X-59465Y96213D01*
X-59556Y96219D01*
X-59647Y96221D01*
X-61736Y96221D01*
X-68076Y96222D02*
X-68171Y96220D01*
X-68265Y96214D01*
X-68359Y96205D01*
X-68453Y96192D01*
X-68546Y96175D01*
X-68638Y96154D01*
X-68730Y96129D01*
X-68820Y96101D01*
X-68909Y96069D01*
X-68997Y96034D01*
X-69083Y95995D01*
X-69168Y95953D01*
X-69251Y95907D01*
X-69332Y95858D01*
X-69411Y95806D01*
X-69488Y95751D01*
X-69562Y95692D01*
X-69634Y95631D01*
X-69704Y95567D01*
X-69771Y95500D01*
X-69835Y95430D01*
X-69896Y95358D01*
X-69955Y95284D01*
X-70010Y95207D01*
X-70062Y95128D01*
X-70111Y95047D01*
X-70157Y94964D01*
X-70199Y94879D01*
X-70238Y94793D01*
X-70273Y94705D01*
X-70305Y94616D01*
X-70333Y94526D01*
X-70358Y94434D01*
X-70379Y94342D01*
X-70396Y94249D01*
X-70409Y94155D01*
X-70418Y94061D01*
X-70424Y93967D01*
X-70426Y93872D01*
X-68076Y96221D02*
X-67968Y96219D01*
X-67859Y96213D01*
X-67751Y96203D01*
X-67644Y96190D01*
X-67537Y96172D01*
X-67430Y96151D01*
X-67325Y96126D01*
X-67220Y96097D01*
X-67117Y96065D01*
X-67015Y96028D01*
X-66914Y95988D01*
X-66815Y95945D01*
X-66717Y95898D01*
X-66621Y95847D01*
X-66527Y95793D01*
X-66435Y95736D01*
X-66345Y95675D01*
X-66257Y95611D01*
X-66172Y95545D01*
X-66089Y95475D01*
X-66009Y95402D01*
X-65931Y95326D01*
X-65856Y95248D01*
X-65784Y95167D01*
X-65715Y95083D01*
X-65649Y94997D01*
X-65586Y94909D01*
X-65527Y94818D01*
X-65470Y94726D01*
X-65417Y94631D01*
X-65368Y94535D01*
X-65322Y94436D01*
X-65279Y94337D01*
X-65240Y94235D01*
X-65205Y94133D01*
X-69643Y92044D02*
X-69712Y92113D01*
X-69778Y92184D01*
X-69842Y92257D01*
X-69903Y92333D01*
X-69961Y92412D01*
X-70015Y92492D01*
X-70067Y92575D01*
X-70115Y92659D01*
X-70161Y92745D01*
X-70202Y92833D01*
X-70241Y92923D01*
X-70276Y93014D01*
X-70307Y93106D01*
X-70335Y93199D01*
X-70359Y93293D01*
X-70379Y93388D01*
X-70396Y93484D01*
X-70409Y93581D01*
X-70418Y93678D01*
X-70424Y93775D01*
X-70426Y93872D01*
X-69642Y92044D02*
X-65204Y86823D01*
X-70426Y86823D01*
D13*
X60292Y66530D02*
X60292Y30970D01*
X80612Y30970D01*
X80612Y66530D01*
X60292Y66530D01*
D12*
X73170Y19308D02*
X63772Y13043D01*
X63772Y19308D02*
X73170Y13043D01*
X71081Y22709D02*
X73170Y25320D01*
X63772Y25320D01*
X63772Y27930D02*
X63772Y22709D01*
X-5946Y100681D02*
X-5946Y110079D01*
X-8557Y110079D01*
X-8658Y110077D01*
X-8759Y110071D01*
X-8860Y110061D01*
X-8960Y110048D01*
X-9060Y110030D01*
X-9159Y110009D01*
X-9257Y109983D01*
X-9354Y109954D01*
X-9450Y109922D01*
X-9544Y109885D01*
X-9637Y109845D01*
X-9729Y109801D01*
X-9818Y109754D01*
X-9906Y109703D01*
X-9992Y109649D01*
X-10075Y109592D01*
X-10157Y109532D01*
X-10235Y109468D01*
X-10312Y109402D01*
X-10385Y109332D01*
X-10456Y109260D01*
X-10524Y109185D01*
X-10589Y109107D01*
X-10651Y109027D01*
X-10710Y108945D01*
X-10766Y108860D01*
X-10818Y108774D01*
X-10867Y108685D01*
X-10913Y108594D01*
X-10954Y108502D01*
X-10993Y108408D01*
X-11027Y108313D01*
X-11058Y108217D01*
X-11085Y108119D01*
X-11109Y108021D01*
X-11128Y107921D01*
X-11144Y107821D01*
X-11156Y107721D01*
X-11164Y107620D01*
X-11168Y107519D01*
X-11168Y107417D01*
X-11164Y107316D01*
X-11156Y107215D01*
X-11144Y107115D01*
X-11128Y107015D01*
X-11109Y106915D01*
X-11085Y106817D01*
X-11058Y106719D01*
X-11027Y106623D01*
X-10993Y106528D01*
X-10954Y106434D01*
X-10913Y106342D01*
X-10867Y106251D01*
X-10818Y106163D01*
X-10766Y106076D01*
X-10710Y105991D01*
X-10651Y105909D01*
X-10589Y105829D01*
X-10524Y105751D01*
X-10456Y105676D01*
X-10385Y105604D01*
X-10312Y105534D01*
X-10235Y105468D01*
X-10157Y105404D01*
X-10075Y105344D01*
X-9992Y105287D01*
X-9906Y105233D01*
X-9818Y105182D01*
X-9729Y105135D01*
X-9637Y105091D01*
X-9544Y105051D01*
X-9450Y105014D01*
X-9354Y104982D01*
X-9257Y104953D01*
X-9159Y104927D01*
X-9060Y104906D01*
X-8960Y104888D01*
X-8860Y104875D01*
X-8759Y104865D01*
X-8658Y104859D01*
X-8557Y104857D01*
X-5946Y104857D01*
X-9079Y104857D02*
X-11167Y100681D01*
X-20255Y107729D02*
X-20253Y107824D01*
X-20247Y107918D01*
X-20238Y108012D01*
X-20225Y108106D01*
X-20208Y108199D01*
X-20187Y108291D01*
X-20162Y108383D01*
X-20134Y108473D01*
X-20102Y108562D01*
X-20067Y108650D01*
X-20028Y108736D01*
X-19986Y108821D01*
X-19940Y108904D01*
X-19891Y108985D01*
X-19839Y109064D01*
X-19784Y109141D01*
X-19725Y109215D01*
X-19664Y109287D01*
X-19600Y109357D01*
X-19533Y109424D01*
X-19463Y109488D01*
X-19391Y109549D01*
X-19317Y109608D01*
X-19240Y109663D01*
X-19161Y109715D01*
X-19080Y109764D01*
X-18997Y109810D01*
X-18912Y109852D01*
X-18826Y109891D01*
X-18738Y109926D01*
X-18649Y109958D01*
X-18559Y109986D01*
X-18467Y110011D01*
X-18375Y110032D01*
X-18282Y110049D01*
X-18188Y110062D01*
X-18094Y110071D01*
X-18000Y110077D01*
X-17905Y110079D01*
X-17905Y110078D02*
X-17797Y110076D01*
X-17688Y110070D01*
X-17580Y110060D01*
X-17473Y110047D01*
X-17366Y110029D01*
X-17259Y110008D01*
X-17154Y109983D01*
X-17049Y109954D01*
X-16946Y109922D01*
X-16844Y109885D01*
X-16743Y109845D01*
X-16644Y109802D01*
X-16546Y109755D01*
X-16450Y109704D01*
X-16356Y109650D01*
X-16264Y109593D01*
X-16174Y109532D01*
X-16086Y109468D01*
X-16001Y109402D01*
X-15918Y109332D01*
X-15838Y109259D01*
X-15760Y109183D01*
X-15685Y109105D01*
X-15613Y109024D01*
X-15544Y108940D01*
X-15478Y108854D01*
X-15415Y108766D01*
X-15356Y108675D01*
X-15299Y108583D01*
X-15246Y108488D01*
X-15197Y108392D01*
X-15151Y108293D01*
X-15108Y108194D01*
X-15069Y108092D01*
X-15034Y107990D01*
X-19471Y105901D02*
X-19540Y105970D01*
X-19606Y106041D01*
X-19670Y106114D01*
X-19731Y106190D01*
X-19789Y106269D01*
X-19843Y106349D01*
X-19895Y106432D01*
X-19943Y106516D01*
X-19989Y106602D01*
X-20030Y106690D01*
X-20069Y106780D01*
X-20104Y106871D01*
X-20135Y106963D01*
X-20163Y107056D01*
X-20187Y107150D01*
X-20207Y107245D01*
X-20224Y107341D01*
X-20237Y107438D01*
X-20246Y107535D01*
X-20252Y107632D01*
X-20254Y107729D01*
X-19471Y105902D02*
X-15033Y100681D01*
X-20254Y100681D01*
D10*
X80312Y-63960D02*
X100442Y-63960D01*
D12*
X102306Y-47564D02*
X102306Y-45475D01*
X102307Y-47564D02*
X102309Y-47653D01*
X102315Y-47741D01*
X102324Y-47829D01*
X102337Y-47917D01*
X102354Y-48004D01*
X102374Y-48090D01*
X102399Y-48175D01*
X102426Y-48260D01*
X102458Y-48343D01*
X102492Y-48424D01*
X102531Y-48504D01*
X102572Y-48582D01*
X102617Y-48659D01*
X102665Y-48733D01*
X102716Y-48806D01*
X102770Y-48876D01*
X102828Y-48943D01*
X102888Y-49009D01*
X102950Y-49071D01*
X103016Y-49131D01*
X103083Y-49189D01*
X103153Y-49243D01*
X103226Y-49294D01*
X103300Y-49342D01*
X103377Y-49387D01*
X103455Y-49428D01*
X103535Y-49467D01*
X103616Y-49501D01*
X103699Y-49533D01*
X103784Y-49560D01*
X103869Y-49585D01*
X103955Y-49605D01*
X104042Y-49622D01*
X104130Y-49635D01*
X104218Y-49644D01*
X104306Y-49650D01*
X104395Y-49652D01*
X109616Y-49652D01*
X109707Y-49650D01*
X109798Y-49644D01*
X109889Y-49634D01*
X109979Y-49620D01*
X110068Y-49603D01*
X110156Y-49581D01*
X110244Y-49555D01*
X110330Y-49526D01*
X110415Y-49493D01*
X110498Y-49456D01*
X110580Y-49416D01*
X110660Y-49372D01*
X110738Y-49325D01*
X110814Y-49274D01*
X110887Y-49221D01*
X110958Y-49164D01*
X111027Y-49103D01*
X111092Y-49040D01*
X111155Y-48975D01*
X111215Y-48906D01*
X111273Y-48835D01*
X111326Y-48762D01*
X111377Y-48686D01*
X111424Y-48608D01*
X111468Y-48528D01*
X111508Y-48446D01*
X111545Y-48363D01*
X111578Y-48278D01*
X111607Y-48192D01*
X111633Y-48104D01*
X111655Y-48016D01*
X111672Y-47927D01*
X111686Y-47837D01*
X111696Y-47746D01*
X111702Y-47655D01*
X111704Y-47564D01*
X111704Y-45475D01*
X111704Y-39918D02*
X104395Y-42006D01*
X104395Y-36785D01*
X106483Y-38352D02*
X102306Y-38352D01*
D10*
X-74470Y-21745D02*
X-94600Y-21745D01*
D12*
X-88329Y-15565D02*
X-88329Y-13476D01*
X-88328Y-15565D02*
X-88326Y-15654D01*
X-88320Y-15742D01*
X-88311Y-15830D01*
X-88298Y-15918D01*
X-88281Y-16005D01*
X-88261Y-16091D01*
X-88236Y-16176D01*
X-88209Y-16261D01*
X-88177Y-16344D01*
X-88143Y-16425D01*
X-88104Y-16505D01*
X-88063Y-16583D01*
X-88018Y-16660D01*
X-87970Y-16734D01*
X-87919Y-16807D01*
X-87865Y-16877D01*
X-87807Y-16944D01*
X-87747Y-17010D01*
X-87685Y-17072D01*
X-87619Y-17132D01*
X-87552Y-17190D01*
X-87482Y-17244D01*
X-87409Y-17295D01*
X-87335Y-17343D01*
X-87258Y-17388D01*
X-87180Y-17429D01*
X-87100Y-17468D01*
X-87019Y-17502D01*
X-86936Y-17534D01*
X-86851Y-17561D01*
X-86766Y-17586D01*
X-86680Y-17606D01*
X-86593Y-17623D01*
X-86505Y-17636D01*
X-86417Y-17645D01*
X-86329Y-17651D01*
X-86240Y-17653D01*
X-81019Y-17653D01*
X-81019Y-17654D02*
X-80928Y-17652D01*
X-80837Y-17646D01*
X-80746Y-17636D01*
X-80656Y-17622D01*
X-80567Y-17604D01*
X-80478Y-17583D01*
X-80391Y-17557D01*
X-80305Y-17528D01*
X-80220Y-17495D01*
X-80136Y-17458D01*
X-80054Y-17418D01*
X-79975Y-17374D01*
X-79897Y-17327D01*
X-79821Y-17276D01*
X-79747Y-17222D01*
X-79676Y-17165D01*
X-79608Y-17105D01*
X-79542Y-17042D01*
X-79479Y-16976D01*
X-79419Y-16908D01*
X-79362Y-16837D01*
X-79308Y-16763D01*
X-79257Y-16687D01*
X-79210Y-16610D01*
X-79166Y-16530D01*
X-79126Y-16448D01*
X-79089Y-16364D01*
X-79056Y-16280D01*
X-79027Y-16193D01*
X-79001Y-16106D01*
X-78980Y-16017D01*
X-78962Y-15928D01*
X-78948Y-15838D01*
X-78938Y-15747D01*
X-78932Y-15656D01*
X-78930Y-15565D01*
X-78931Y-15565D02*
X-78931Y-13476D01*
X-78931Y-10008D02*
X-79975Y-10008D01*
X-78931Y-10008D02*
X-78931Y-4787D01*
X-88329Y-7397D01*
X-104991Y82092D02*
X-104991Y84181D01*
X-104990Y82092D02*
X-104988Y82003D01*
X-104982Y81915D01*
X-104973Y81827D01*
X-104960Y81739D01*
X-104943Y81652D01*
X-104923Y81566D01*
X-104898Y81481D01*
X-104871Y81396D01*
X-104839Y81313D01*
X-104805Y81232D01*
X-104766Y81152D01*
X-104725Y81074D01*
X-104680Y80997D01*
X-104632Y80923D01*
X-104581Y80850D01*
X-104527Y80780D01*
X-104469Y80713D01*
X-104409Y80647D01*
X-104347Y80585D01*
X-104281Y80525D01*
X-104214Y80467D01*
X-104144Y80413D01*
X-104071Y80362D01*
X-103997Y80314D01*
X-103920Y80269D01*
X-103842Y80228D01*
X-103762Y80189D01*
X-103681Y80155D01*
X-103598Y80123D01*
X-103513Y80096D01*
X-103428Y80071D01*
X-103342Y80051D01*
X-103255Y80034D01*
X-103167Y80021D01*
X-103079Y80012D01*
X-102991Y80006D01*
X-102902Y80004D01*
X-97681Y80004D01*
X-97681Y80003D02*
X-97590Y80005D01*
X-97499Y80011D01*
X-97408Y80021D01*
X-97318Y80035D01*
X-97229Y80053D01*
X-97140Y80074D01*
X-97053Y80100D01*
X-96967Y80129D01*
X-96882Y80162D01*
X-96798Y80199D01*
X-96716Y80239D01*
X-96637Y80283D01*
X-96559Y80330D01*
X-96483Y80381D01*
X-96409Y80435D01*
X-96338Y80492D01*
X-96270Y80552D01*
X-96204Y80615D01*
X-96141Y80681D01*
X-96081Y80749D01*
X-96024Y80820D01*
X-95970Y80894D01*
X-95919Y80970D01*
X-95872Y81047D01*
X-95828Y81127D01*
X-95788Y81209D01*
X-95751Y81293D01*
X-95718Y81377D01*
X-95689Y81464D01*
X-95663Y81551D01*
X-95642Y81640D01*
X-95624Y81729D01*
X-95610Y81819D01*
X-95600Y81910D01*
X-95594Y82001D01*
X-95592Y82092D01*
X-95593Y82092D02*
X-95593Y84181D01*
X-97681Y87649D02*
X-95593Y90260D01*
X-104991Y90260D01*
X-104991Y87649D02*
X-104991Y92871D01*
X48072Y-48007D02*
X48072Y-50095D01*
X48074Y-50184D01*
X48080Y-50272D01*
X48089Y-50360D01*
X48102Y-50448D01*
X48119Y-50535D01*
X48139Y-50621D01*
X48164Y-50706D01*
X48191Y-50791D01*
X48223Y-50874D01*
X48257Y-50955D01*
X48296Y-51035D01*
X48337Y-51113D01*
X48382Y-51190D01*
X48430Y-51264D01*
X48481Y-51337D01*
X48535Y-51407D01*
X48593Y-51474D01*
X48653Y-51540D01*
X48715Y-51602D01*
X48781Y-51662D01*
X48848Y-51720D01*
X48918Y-51774D01*
X48991Y-51825D01*
X49065Y-51873D01*
X49142Y-51918D01*
X49220Y-51959D01*
X49300Y-51998D01*
X49381Y-52032D01*
X49464Y-52064D01*
X49549Y-52091D01*
X49634Y-52116D01*
X49720Y-52136D01*
X49807Y-52153D01*
X49895Y-52166D01*
X49983Y-52175D01*
X50071Y-52181D01*
X50160Y-52183D01*
X55382Y-52183D01*
X55473Y-52181D01*
X55564Y-52175D01*
X55655Y-52165D01*
X55745Y-52151D01*
X55834Y-52134D01*
X55922Y-52112D01*
X56010Y-52086D01*
X56096Y-52057D01*
X56181Y-52024D01*
X56264Y-51987D01*
X56346Y-51947D01*
X56426Y-51903D01*
X56504Y-51856D01*
X56580Y-51805D01*
X56653Y-51752D01*
X56724Y-51695D01*
X56793Y-51634D01*
X56858Y-51571D01*
X56921Y-51506D01*
X56981Y-51437D01*
X57039Y-51366D01*
X57092Y-51293D01*
X57143Y-51217D01*
X57190Y-51139D01*
X57234Y-51059D01*
X57274Y-50977D01*
X57311Y-50894D01*
X57344Y-50809D01*
X57373Y-50723D01*
X57399Y-50635D01*
X57421Y-50547D01*
X57438Y-50458D01*
X57452Y-50368D01*
X57462Y-50277D01*
X57468Y-50186D01*
X57470Y-50095D01*
X57470Y-48007D01*
X48072Y-44538D02*
X48072Y-41927D01*
X48074Y-41826D01*
X48080Y-41725D01*
X48090Y-41624D01*
X48103Y-41524D01*
X48121Y-41424D01*
X48142Y-41325D01*
X48168Y-41227D01*
X48197Y-41130D01*
X48229Y-41034D01*
X48266Y-40940D01*
X48306Y-40847D01*
X48350Y-40755D01*
X48397Y-40666D01*
X48448Y-40578D01*
X48502Y-40492D01*
X48559Y-40409D01*
X48619Y-40327D01*
X48683Y-40249D01*
X48749Y-40172D01*
X48819Y-40099D01*
X48891Y-40028D01*
X48966Y-39960D01*
X49044Y-39895D01*
X49124Y-39833D01*
X49206Y-39774D01*
X49291Y-39718D01*
X49378Y-39666D01*
X49466Y-39617D01*
X49557Y-39571D01*
X49649Y-39530D01*
X49743Y-39491D01*
X49838Y-39457D01*
X49934Y-39426D01*
X50032Y-39399D01*
X50130Y-39375D01*
X50230Y-39356D01*
X50330Y-39340D01*
X50430Y-39328D01*
X50531Y-39320D01*
X50632Y-39316D01*
X50734Y-39316D01*
X50835Y-39320D01*
X50936Y-39328D01*
X51036Y-39340D01*
X51136Y-39356D01*
X51236Y-39375D01*
X51334Y-39399D01*
X51432Y-39426D01*
X51528Y-39457D01*
X51623Y-39491D01*
X51717Y-39530D01*
X51809Y-39571D01*
X51900Y-39617D01*
X51989Y-39666D01*
X52075Y-39718D01*
X52160Y-39774D01*
X52242Y-39833D01*
X52322Y-39895D01*
X52400Y-39960D01*
X52475Y-40028D01*
X52547Y-40099D01*
X52617Y-40172D01*
X52683Y-40249D01*
X52747Y-40327D01*
X52807Y-40409D01*
X52864Y-40492D01*
X52918Y-40578D01*
X52969Y-40666D01*
X53016Y-40755D01*
X53060Y-40847D01*
X53100Y-40940D01*
X53137Y-41034D01*
X53169Y-41130D01*
X53198Y-41227D01*
X53224Y-41325D01*
X53245Y-41424D01*
X53263Y-41524D01*
X53276Y-41624D01*
X53286Y-41725D01*
X53292Y-41826D01*
X53294Y-41927D01*
X57470Y-41405D02*
X57470Y-44538D01*
X57470Y-41405D02*
X57468Y-41315D01*
X57462Y-41226D01*
X57453Y-41136D01*
X57439Y-41047D01*
X57422Y-40959D01*
X57401Y-40872D01*
X57376Y-40785D01*
X57347Y-40700D01*
X57315Y-40616D01*
X57280Y-40534D01*
X57240Y-40453D01*
X57198Y-40374D01*
X57152Y-40297D01*
X57102Y-40222D01*
X57050Y-40149D01*
X56994Y-40078D01*
X56936Y-40010D01*
X56874Y-39945D01*
X56810Y-39882D01*
X56743Y-39822D01*
X56674Y-39765D01*
X56602Y-39711D01*
X56528Y-39660D01*
X56452Y-39612D01*
X56374Y-39568D01*
X56294Y-39527D01*
X56212Y-39489D01*
X56129Y-39455D01*
X56044Y-39425D01*
X55958Y-39398D01*
X55872Y-39375D01*
X55784Y-39356D01*
X55695Y-39341D01*
X55606Y-39329D01*
X55517Y-39321D01*
X55427Y-39317D01*
X55337Y-39317D01*
X55247Y-39321D01*
X55158Y-39329D01*
X55069Y-39341D01*
X54980Y-39356D01*
X54892Y-39375D01*
X54806Y-39398D01*
X54720Y-39425D01*
X54635Y-39455D01*
X54552Y-39489D01*
X54470Y-39527D01*
X54390Y-39568D01*
X54312Y-39612D01*
X54236Y-39660D01*
X54162Y-39711D01*
X54090Y-39765D01*
X54021Y-39822D01*
X53954Y-39882D01*
X53890Y-39945D01*
X53828Y-40010D01*
X53770Y-40078D01*
X53714Y-40149D01*
X53662Y-40222D01*
X53612Y-40297D01*
X53566Y-40374D01*
X53524Y-40453D01*
X53484Y-40534D01*
X53449Y-40616D01*
X53417Y-40700D01*
X53388Y-40785D01*
X53363Y-40872D01*
X53342Y-40959D01*
X53325Y-41047D01*
X53311Y-41136D01*
X53302Y-41226D01*
X53296Y-41315D01*
X53294Y-41405D01*
X53293Y-41405D02*
X53293Y-43494D01*
X112652Y-9142D02*
X114741Y-9142D01*
X114741Y-9141D02*
X114830Y-9139D01*
X114918Y-9133D01*
X115006Y-9124D01*
X115094Y-9111D01*
X115181Y-9094D01*
X115267Y-9074D01*
X115352Y-9049D01*
X115437Y-9022D01*
X115520Y-8990D01*
X115601Y-8956D01*
X115681Y-8917D01*
X115759Y-8876D01*
X115836Y-8831D01*
X115910Y-8783D01*
X115983Y-8732D01*
X116053Y-8678D01*
X116120Y-8620D01*
X116186Y-8560D01*
X116248Y-8498D01*
X116308Y-8432D01*
X116366Y-8365D01*
X116420Y-8295D01*
X116471Y-8222D01*
X116519Y-8148D01*
X116564Y-8071D01*
X116605Y-7993D01*
X116644Y-7913D01*
X116678Y-7832D01*
X116710Y-7749D01*
X116737Y-7664D01*
X116762Y-7579D01*
X116782Y-7493D01*
X116799Y-7406D01*
X116812Y-7318D01*
X116821Y-7230D01*
X116827Y-7142D01*
X116829Y-7053D01*
X116829Y-1832D01*
X116830Y-1832D02*
X116828Y-1741D01*
X116822Y-1650D01*
X116812Y-1559D01*
X116798Y-1469D01*
X116780Y-1380D01*
X116759Y-1291D01*
X116733Y-1204D01*
X116704Y-1118D01*
X116671Y-1033D01*
X116634Y-949D01*
X116594Y-867D01*
X116550Y-788D01*
X116503Y-710D01*
X116452Y-634D01*
X116398Y-560D01*
X116341Y-489D01*
X116281Y-421D01*
X116218Y-355D01*
X116152Y-292D01*
X116084Y-232D01*
X116013Y-175D01*
X115939Y-121D01*
X115863Y-70D01*
X115786Y-23D01*
X115706Y21D01*
X115624Y61D01*
X115540Y98D01*
X115456Y131D01*
X115369Y160D01*
X115282Y186D01*
X115193Y207D01*
X115104Y225D01*
X115014Y239D01*
X114923Y249D01*
X114832Y255D01*
X114741Y257D01*
X114741Y256D02*
X112652Y256D01*
X109183Y-9142D02*
X106051Y-9142D01*
X106051Y-9141D02*
X105962Y-9139D01*
X105874Y-9133D01*
X105786Y-9124D01*
X105698Y-9111D01*
X105611Y-9094D01*
X105525Y-9074D01*
X105440Y-9049D01*
X105355Y-9022D01*
X105272Y-8990D01*
X105191Y-8956D01*
X105111Y-8917D01*
X105033Y-8876D01*
X104956Y-8831D01*
X104882Y-8783D01*
X104809Y-8732D01*
X104739Y-8678D01*
X104672Y-8620D01*
X104606Y-8560D01*
X104544Y-8498D01*
X104484Y-8432D01*
X104426Y-8365D01*
X104372Y-8295D01*
X104321Y-8222D01*
X104273Y-8148D01*
X104228Y-8071D01*
X104187Y-7993D01*
X104148Y-7913D01*
X104114Y-7832D01*
X104082Y-7749D01*
X104055Y-7664D01*
X104030Y-7579D01*
X104010Y-7493D01*
X103993Y-7406D01*
X103980Y-7318D01*
X103971Y-7230D01*
X103965Y-7142D01*
X103963Y-7053D01*
X103962Y-7053D02*
X103962Y-6009D01*
X103963Y-6009D02*
X103965Y-5920D01*
X103971Y-5832D01*
X103980Y-5744D01*
X103993Y-5656D01*
X104010Y-5569D01*
X104030Y-5483D01*
X104055Y-5398D01*
X104082Y-5313D01*
X104114Y-5230D01*
X104148Y-5149D01*
X104187Y-5069D01*
X104228Y-4991D01*
X104273Y-4914D01*
X104321Y-4840D01*
X104372Y-4767D01*
X104426Y-4697D01*
X104484Y-4630D01*
X104544Y-4564D01*
X104606Y-4502D01*
X104672Y-4442D01*
X104739Y-4384D01*
X104809Y-4330D01*
X104882Y-4279D01*
X104956Y-4231D01*
X105033Y-4186D01*
X105111Y-4145D01*
X105191Y-4106D01*
X105272Y-4072D01*
X105355Y-4040D01*
X105440Y-4013D01*
X105525Y-3988D01*
X105611Y-3968D01*
X105698Y-3951D01*
X105786Y-3938D01*
X105874Y-3929D01*
X105962Y-3923D01*
X106051Y-3921D01*
X109183Y-3921D01*
X109183Y256D01*
X103962Y256D01*
X25095Y96244D02*
X23007Y96244D01*
X25095Y96244D02*
X25184Y96246D01*
X25272Y96252D01*
X25360Y96261D01*
X25448Y96274D01*
X25535Y96291D01*
X25621Y96311D01*
X25706Y96336D01*
X25791Y96363D01*
X25874Y96395D01*
X25955Y96429D01*
X26035Y96468D01*
X26113Y96509D01*
X26190Y96554D01*
X26264Y96602D01*
X26337Y96653D01*
X26407Y96707D01*
X26474Y96765D01*
X26540Y96825D01*
X26602Y96887D01*
X26662Y96953D01*
X26720Y97020D01*
X26774Y97090D01*
X26825Y97163D01*
X26873Y97237D01*
X26918Y97314D01*
X26959Y97392D01*
X26998Y97472D01*
X27032Y97553D01*
X27064Y97636D01*
X27091Y97721D01*
X27116Y97806D01*
X27136Y97892D01*
X27153Y97979D01*
X27166Y98067D01*
X27175Y98155D01*
X27181Y98243D01*
X27183Y98332D01*
X27184Y98332D02*
X27184Y103553D01*
X27183Y103553D02*
X27181Y103642D01*
X27175Y103730D01*
X27166Y103818D01*
X27153Y103906D01*
X27136Y103993D01*
X27116Y104079D01*
X27091Y104164D01*
X27064Y104249D01*
X27032Y104332D01*
X26998Y104413D01*
X26959Y104493D01*
X26918Y104571D01*
X26873Y104648D01*
X26825Y104722D01*
X26774Y104795D01*
X26720Y104865D01*
X26662Y104932D01*
X26602Y104998D01*
X26540Y105060D01*
X26474Y105120D01*
X26407Y105178D01*
X26337Y105232D01*
X26264Y105283D01*
X26190Y105331D01*
X26113Y105376D01*
X26035Y105417D01*
X25955Y105456D01*
X25874Y105490D01*
X25791Y105522D01*
X25706Y105549D01*
X25621Y105574D01*
X25535Y105594D01*
X25448Y105611D01*
X25360Y105624D01*
X25272Y105633D01*
X25184Y105639D01*
X25095Y105641D01*
X25095Y105642D02*
X23007Y105642D01*
X19538Y101465D02*
X16405Y101465D01*
X16405Y101464D02*
X16316Y101462D01*
X16228Y101456D01*
X16140Y101447D01*
X16052Y101434D01*
X15965Y101417D01*
X15879Y101397D01*
X15794Y101372D01*
X15709Y101345D01*
X15626Y101313D01*
X15545Y101279D01*
X15465Y101240D01*
X15387Y101199D01*
X15310Y101154D01*
X15236Y101106D01*
X15163Y101055D01*
X15093Y101001D01*
X15026Y100943D01*
X14960Y100883D01*
X14898Y100821D01*
X14838Y100755D01*
X14780Y100688D01*
X14726Y100618D01*
X14675Y100545D01*
X14627Y100471D01*
X14582Y100394D01*
X14541Y100316D01*
X14502Y100236D01*
X14468Y100155D01*
X14436Y100072D01*
X14409Y99987D01*
X14384Y99902D01*
X14364Y99816D01*
X14347Y99729D01*
X14334Y99641D01*
X14325Y99553D01*
X14319Y99465D01*
X14317Y99376D01*
X14317Y98854D01*
X14316Y98854D02*
X14318Y98753D01*
X14324Y98652D01*
X14334Y98551D01*
X14347Y98451D01*
X14365Y98351D01*
X14386Y98252D01*
X14412Y98154D01*
X14441Y98057D01*
X14473Y97961D01*
X14510Y97867D01*
X14550Y97774D01*
X14594Y97682D01*
X14641Y97593D01*
X14692Y97505D01*
X14746Y97419D01*
X14803Y97336D01*
X14863Y97254D01*
X14927Y97176D01*
X14993Y97099D01*
X15063Y97026D01*
X15135Y96955D01*
X15210Y96887D01*
X15288Y96822D01*
X15368Y96760D01*
X15450Y96701D01*
X15535Y96645D01*
X15621Y96593D01*
X15710Y96544D01*
X15801Y96498D01*
X15893Y96457D01*
X15987Y96418D01*
X16082Y96384D01*
X16178Y96353D01*
X16276Y96326D01*
X16374Y96302D01*
X16474Y96283D01*
X16574Y96267D01*
X16674Y96255D01*
X16775Y96247D01*
X16876Y96243D01*
X16978Y96243D01*
X17079Y96247D01*
X17180Y96255D01*
X17280Y96267D01*
X17380Y96283D01*
X17480Y96302D01*
X17578Y96326D01*
X17676Y96353D01*
X17772Y96384D01*
X17867Y96418D01*
X17961Y96457D01*
X18053Y96498D01*
X18144Y96544D01*
X18232Y96593D01*
X18319Y96645D01*
X18404Y96701D01*
X18486Y96760D01*
X18566Y96822D01*
X18644Y96887D01*
X18719Y96955D01*
X18791Y97026D01*
X18861Y97099D01*
X18927Y97176D01*
X18991Y97254D01*
X19051Y97336D01*
X19108Y97419D01*
X19162Y97505D01*
X19213Y97593D01*
X19260Y97682D01*
X19304Y97774D01*
X19344Y97867D01*
X19381Y97961D01*
X19413Y98057D01*
X19442Y98154D01*
X19468Y98252D01*
X19489Y98351D01*
X19507Y98451D01*
X19520Y98551D01*
X19530Y98652D01*
X19536Y98753D01*
X19538Y98854D01*
X19538Y101465D01*
X19536Y101591D01*
X19530Y101717D01*
X19521Y101843D01*
X19508Y101968D01*
X19490Y102093D01*
X19470Y102218D01*
X19445Y102342D01*
X19417Y102465D01*
X19385Y102587D01*
X19349Y102708D01*
X19310Y102828D01*
X19267Y102946D01*
X19220Y103063D01*
X19170Y103179D01*
X19116Y103294D01*
X19060Y103406D01*
X18999Y103517D01*
X18936Y103626D01*
X18869Y103733D01*
X18799Y103838D01*
X18725Y103941D01*
X18649Y104041D01*
X18570Y104139D01*
X18488Y104235D01*
X18402Y104328D01*
X18315Y104419D01*
X18224Y104506D01*
X18131Y104592D01*
X18035Y104674D01*
X17937Y104753D01*
X17837Y104829D01*
X17734Y104903D01*
X17629Y104973D01*
X17522Y105040D01*
X17413Y105103D01*
X17302Y105164D01*
X17190Y105220D01*
X17075Y105274D01*
X16959Y105324D01*
X16842Y105371D01*
X16724Y105414D01*
X16604Y105453D01*
X16483Y105489D01*
X16361Y105521D01*
X16238Y105549D01*
X16114Y105574D01*
X15989Y105594D01*
X15864Y105612D01*
X15739Y105625D01*
X15613Y105634D01*
X15487Y105640D01*
X15361Y105642D01*
X102056Y75768D02*
X104145Y75768D01*
X104145Y75769D02*
X104234Y75771D01*
X104322Y75777D01*
X104410Y75786D01*
X104498Y75799D01*
X104585Y75816D01*
X104671Y75836D01*
X104756Y75861D01*
X104841Y75888D01*
X104924Y75920D01*
X105005Y75954D01*
X105085Y75993D01*
X105163Y76034D01*
X105240Y76079D01*
X105314Y76127D01*
X105387Y76178D01*
X105457Y76232D01*
X105524Y76290D01*
X105590Y76350D01*
X105652Y76412D01*
X105712Y76478D01*
X105770Y76545D01*
X105824Y76615D01*
X105875Y76688D01*
X105923Y76762D01*
X105968Y76839D01*
X106009Y76917D01*
X106048Y76997D01*
X106082Y77078D01*
X106114Y77161D01*
X106141Y77246D01*
X106166Y77331D01*
X106186Y77417D01*
X106203Y77504D01*
X106216Y77592D01*
X106225Y77680D01*
X106231Y77768D01*
X106233Y77857D01*
X106233Y83078D01*
X106231Y83167D01*
X106225Y83255D01*
X106216Y83343D01*
X106203Y83431D01*
X106186Y83518D01*
X106166Y83604D01*
X106141Y83689D01*
X106114Y83774D01*
X106082Y83857D01*
X106048Y83938D01*
X106009Y84018D01*
X105968Y84096D01*
X105923Y84173D01*
X105875Y84247D01*
X105824Y84320D01*
X105770Y84390D01*
X105712Y84457D01*
X105652Y84523D01*
X105590Y84585D01*
X105524Y84645D01*
X105457Y84703D01*
X105387Y84757D01*
X105314Y84808D01*
X105240Y84856D01*
X105163Y84901D01*
X105085Y84942D01*
X105005Y84981D01*
X104924Y85015D01*
X104841Y85047D01*
X104756Y85074D01*
X104671Y85099D01*
X104585Y85119D01*
X104498Y85136D01*
X104410Y85149D01*
X104322Y85158D01*
X104234Y85164D01*
X104145Y85166D01*
X102056Y85166D01*
X96499Y79945D02*
X93366Y79945D01*
X96499Y79946D02*
X96588Y79948D01*
X96676Y79954D01*
X96764Y79963D01*
X96852Y79976D01*
X96939Y79993D01*
X97025Y80013D01*
X97110Y80038D01*
X97195Y80065D01*
X97278Y80097D01*
X97359Y80131D01*
X97439Y80170D01*
X97517Y80211D01*
X97594Y80256D01*
X97668Y80304D01*
X97741Y80355D01*
X97811Y80409D01*
X97878Y80467D01*
X97944Y80527D01*
X98006Y80589D01*
X98066Y80655D01*
X98124Y80722D01*
X98178Y80792D01*
X98229Y80865D01*
X98277Y80939D01*
X98322Y81016D01*
X98363Y81094D01*
X98402Y81174D01*
X98436Y81255D01*
X98468Y81338D01*
X98495Y81423D01*
X98520Y81508D01*
X98540Y81594D01*
X98557Y81681D01*
X98570Y81769D01*
X98579Y81857D01*
X98585Y81945D01*
X98587Y82034D01*
X98587Y82556D01*
X98588Y82556D02*
X98586Y82657D01*
X98580Y82758D01*
X98570Y82859D01*
X98557Y82959D01*
X98539Y83059D01*
X98518Y83158D01*
X98492Y83256D01*
X98463Y83353D01*
X98431Y83449D01*
X98394Y83543D01*
X98354Y83636D01*
X98310Y83728D01*
X98263Y83817D01*
X98212Y83905D01*
X98158Y83991D01*
X98101Y84074D01*
X98041Y84156D01*
X97977Y84234D01*
X97911Y84311D01*
X97841Y84384D01*
X97769Y84455D01*
X97694Y84523D01*
X97616Y84588D01*
X97536Y84650D01*
X97454Y84709D01*
X97369Y84765D01*
X97283Y84817D01*
X97194Y84866D01*
X97103Y84912D01*
X97011Y84953D01*
X96917Y84992D01*
X96822Y85026D01*
X96726Y85057D01*
X96628Y85084D01*
X96530Y85108D01*
X96430Y85127D01*
X96330Y85143D01*
X96230Y85155D01*
X96129Y85163D01*
X96028Y85167D01*
X95926Y85167D01*
X95825Y85163D01*
X95724Y85155D01*
X95624Y85143D01*
X95524Y85127D01*
X95424Y85108D01*
X95326Y85084D01*
X95228Y85057D01*
X95132Y85026D01*
X95037Y84992D01*
X94943Y84953D01*
X94851Y84912D01*
X94760Y84866D01*
X94672Y84817D01*
X94585Y84765D01*
X94500Y84709D01*
X94418Y84650D01*
X94338Y84588D01*
X94260Y84523D01*
X94185Y84455D01*
X94113Y84384D01*
X94043Y84311D01*
X93977Y84234D01*
X93913Y84156D01*
X93853Y84074D01*
X93796Y83991D01*
X93742Y83905D01*
X93691Y83817D01*
X93644Y83728D01*
X93600Y83636D01*
X93560Y83543D01*
X93523Y83449D01*
X93491Y83353D01*
X93462Y83256D01*
X93436Y83158D01*
X93415Y83059D01*
X93397Y82959D01*
X93384Y82859D01*
X93374Y82758D01*
X93368Y82657D01*
X93366Y82556D01*
X93366Y79945D01*
X93368Y79819D01*
X93374Y79693D01*
X93383Y79567D01*
X93396Y79442D01*
X93414Y79317D01*
X93434Y79192D01*
X93459Y79068D01*
X93487Y78945D01*
X93519Y78823D01*
X93555Y78702D01*
X93594Y78582D01*
X93637Y78464D01*
X93684Y78347D01*
X93734Y78231D01*
X93788Y78116D01*
X93844Y78004D01*
X93905Y77893D01*
X93968Y77784D01*
X94035Y77677D01*
X94105Y77572D01*
X94179Y77469D01*
X94255Y77369D01*
X94334Y77271D01*
X94416Y77175D01*
X94502Y77082D01*
X94589Y76991D01*
X94680Y76904D01*
X94773Y76818D01*
X94869Y76736D01*
X94967Y76657D01*
X95067Y76581D01*
X95170Y76507D01*
X95275Y76437D01*
X95382Y76370D01*
X95491Y76307D01*
X95602Y76246D01*
X95714Y76190D01*
X95829Y76136D01*
X95945Y76086D01*
X96062Y76039D01*
X96180Y75996D01*
X96300Y75957D01*
X96421Y75921D01*
X96543Y75889D01*
X96666Y75861D01*
X96790Y75836D01*
X96915Y75816D01*
X97040Y75798D01*
X97165Y75785D01*
X97291Y75776D01*
X97417Y75770D01*
X97543Y75768D01*
D14*
X38380Y-21870D02*
X-53620Y-21870D01*
X-53620Y70130D02*
X38380Y70130D01*
X-53620Y70130D02*
X-53620Y-21870D01*
X38380Y-21870D02*
X38380Y70130D01*
D15*
X25380Y60130D02*
X25382Y60239D01*
X25388Y60348D01*
X25398Y60456D01*
X25412Y60564D01*
X25429Y60672D01*
X25451Y60779D01*
X25476Y60885D01*
X25506Y60989D01*
X25539Y61093D01*
X25576Y61196D01*
X25616Y61297D01*
X25660Y61396D01*
X25708Y61494D01*
X25760Y61591D01*
X25814Y61685D01*
X25872Y61777D01*
X25934Y61867D01*
X25999Y61954D01*
X26066Y62040D01*
X26137Y62123D01*
X26211Y62203D01*
X26288Y62280D01*
X26367Y62355D01*
X26449Y62426D01*
X26534Y62495D01*
X26621Y62560D01*
X26710Y62623D01*
X26802Y62681D01*
X26896Y62737D01*
X26991Y62789D01*
X27089Y62838D01*
X27188Y62883D01*
X27289Y62925D01*
X27391Y62962D01*
X27494Y62996D01*
X27599Y63027D01*
X27705Y63053D01*
X27811Y63076D01*
X27919Y63094D01*
X28027Y63109D01*
X28135Y63120D01*
X28244Y63127D01*
X28353Y63130D01*
X28462Y63129D01*
X28571Y63124D01*
X28679Y63115D01*
X28787Y63102D01*
X28895Y63085D01*
X29002Y63065D01*
X29108Y63040D01*
X29213Y63012D01*
X29317Y62980D01*
X29420Y62944D01*
X29522Y62904D01*
X29622Y62861D01*
X29720Y62814D01*
X29817Y62764D01*
X29911Y62710D01*
X30004Y62652D01*
X30095Y62592D01*
X30183Y62528D01*
X30269Y62461D01*
X30352Y62391D01*
X30433Y62318D01*
X30511Y62242D01*
X30586Y62163D01*
X30659Y62081D01*
X30728Y61997D01*
X30794Y61911D01*
X30857Y61822D01*
X30917Y61731D01*
X30974Y61638D01*
X31027Y61543D01*
X31076Y61446D01*
X31122Y61347D01*
X31164Y61247D01*
X31203Y61145D01*
X31238Y61041D01*
X31269Y60937D01*
X31297Y60832D01*
X31320Y60725D01*
X31340Y60618D01*
X31356Y60510D01*
X31368Y60402D01*
X31376Y60293D01*
X31380Y60184D01*
X31380Y60076D01*
X31376Y59967D01*
X31368Y59858D01*
X31356Y59750D01*
X31340Y59642D01*
X31320Y59535D01*
X31297Y59428D01*
X31269Y59323D01*
X31238Y59219D01*
X31203Y59115D01*
X31164Y59013D01*
X31122Y58913D01*
X31076Y58814D01*
X31027Y58717D01*
X30974Y58622D01*
X30917Y58529D01*
X30857Y58438D01*
X30794Y58349D01*
X30728Y58263D01*
X30659Y58179D01*
X30586Y58097D01*
X30511Y58018D01*
X30433Y57942D01*
X30352Y57869D01*
X30269Y57799D01*
X30183Y57732D01*
X30095Y57668D01*
X30004Y57608D01*
X29911Y57550D01*
X29817Y57496D01*
X29720Y57446D01*
X29622Y57399D01*
X29522Y57356D01*
X29420Y57316D01*
X29317Y57280D01*
X29213Y57248D01*
X29108Y57220D01*
X29002Y57195D01*
X28895Y57175D01*
X28787Y57158D01*
X28679Y57145D01*
X28571Y57136D01*
X28462Y57131D01*
X28353Y57130D01*
X28244Y57133D01*
X28135Y57140D01*
X28027Y57151D01*
X27919Y57166D01*
X27811Y57184D01*
X27705Y57207D01*
X27599Y57233D01*
X27494Y57264D01*
X27391Y57298D01*
X27289Y57335D01*
X27188Y57377D01*
X27089Y57422D01*
X26991Y57471D01*
X26896Y57523D01*
X26802Y57579D01*
X26710Y57637D01*
X26621Y57700D01*
X26534Y57765D01*
X26449Y57834D01*
X26367Y57905D01*
X26288Y57980D01*
X26211Y58057D01*
X26137Y58137D01*
X26066Y58220D01*
X25999Y58306D01*
X25934Y58393D01*
X25872Y58483D01*
X25814Y58575D01*
X25760Y58669D01*
X25708Y58766D01*
X25660Y58864D01*
X25616Y58963D01*
X25576Y59064D01*
X25539Y59167D01*
X25506Y59271D01*
X25476Y59375D01*
X25451Y59481D01*
X25429Y59588D01*
X25412Y59696D01*
X25398Y59804D01*
X25388Y59912D01*
X25382Y60021D01*
X25380Y60130D01*
D16*
X47630Y68630D02*
X47632Y68700D01*
X47638Y68770D01*
X47648Y68839D01*
X47661Y68908D01*
X47679Y68976D01*
X47700Y69043D01*
X47725Y69108D01*
X47754Y69172D01*
X47786Y69235D01*
X47822Y69295D01*
X47861Y69353D01*
X47903Y69409D01*
X47948Y69463D01*
X47996Y69514D01*
X48047Y69562D01*
X48101Y69607D01*
X48157Y69649D01*
X48215Y69688D01*
X48275Y69724D01*
X48338Y69756D01*
X48402Y69785D01*
X48467Y69810D01*
X48534Y69831D01*
X48602Y69849D01*
X48671Y69862D01*
X48740Y69872D01*
X48810Y69878D01*
X48880Y69880D01*
X48950Y69878D01*
X49020Y69872D01*
X49089Y69862D01*
X49158Y69849D01*
X49226Y69831D01*
X49293Y69810D01*
X49358Y69785D01*
X49422Y69756D01*
X49485Y69724D01*
X49545Y69688D01*
X49603Y69649D01*
X49659Y69607D01*
X49713Y69562D01*
X49764Y69514D01*
X49812Y69463D01*
X49857Y69409D01*
X49899Y69353D01*
X49938Y69295D01*
X49974Y69235D01*
X50006Y69172D01*
X50035Y69108D01*
X50060Y69043D01*
X50081Y68976D01*
X50099Y68908D01*
X50112Y68839D01*
X50122Y68770D01*
X50128Y68700D01*
X50130Y68630D01*
X50128Y68560D01*
X50122Y68490D01*
X50112Y68421D01*
X50099Y68352D01*
X50081Y68284D01*
X50060Y68217D01*
X50035Y68152D01*
X50006Y68088D01*
X49974Y68025D01*
X49938Y67965D01*
X49899Y67907D01*
X49857Y67851D01*
X49812Y67797D01*
X49764Y67746D01*
X49713Y67698D01*
X49659Y67653D01*
X49603Y67611D01*
X49545Y67572D01*
X49485Y67536D01*
X49422Y67504D01*
X49358Y67475D01*
X49293Y67450D01*
X49226Y67429D01*
X49158Y67411D01*
X49089Y67398D01*
X49020Y67388D01*
X48950Y67382D01*
X48880Y67380D01*
X48810Y67382D01*
X48740Y67388D01*
X48671Y67398D01*
X48602Y67411D01*
X48534Y67429D01*
X48467Y67450D01*
X48402Y67475D01*
X48338Y67504D01*
X48275Y67536D01*
X48215Y67572D01*
X48157Y67611D01*
X48101Y67653D01*
X48047Y67698D01*
X47996Y67746D01*
X47948Y67797D01*
X47903Y67851D01*
X47861Y67907D01*
X47822Y67965D01*
X47786Y68025D01*
X47754Y68088D01*
X47725Y68152D01*
X47700Y68217D01*
X47679Y68284D01*
X47661Y68352D01*
X47648Y68421D01*
X47638Y68490D01*
X47632Y68560D01*
X47630Y68630D01*
D12*
X48961Y79754D02*
X48961Y86426D01*
X48961Y79754D02*
X48959Y79655D01*
X48953Y79555D01*
X48944Y79456D01*
X48930Y79358D01*
X48913Y79260D01*
X48892Y79162D01*
X48867Y79066D01*
X48838Y78971D01*
X48806Y78876D01*
X48770Y78784D01*
X48731Y78692D01*
X48688Y78602D01*
X48642Y78514D01*
X48592Y78428D01*
X48539Y78344D01*
X48483Y78262D01*
X48423Y78182D01*
X48361Y78105D01*
X48295Y78030D01*
X48227Y77957D01*
X48156Y77888D01*
X48082Y77821D01*
X48006Y77757D01*
X47927Y77696D01*
X47846Y77638D01*
X47763Y77583D01*
X47678Y77532D01*
X47591Y77484D01*
X47502Y77439D01*
X47411Y77398D01*
X47319Y77360D01*
X47226Y77326D01*
X47131Y77296D01*
X47035Y77269D01*
X46938Y77246D01*
X46841Y77227D01*
X46742Y77212D01*
X46643Y77200D01*
X46544Y77192D01*
X46445Y77188D01*
X46345Y77188D01*
X46246Y77192D01*
X46147Y77200D01*
X46048Y77212D01*
X45949Y77227D01*
X45852Y77246D01*
X45755Y77269D01*
X45659Y77296D01*
X45564Y77326D01*
X45471Y77360D01*
X45379Y77398D01*
X45288Y77439D01*
X45199Y77484D01*
X45112Y77532D01*
X45027Y77583D01*
X44944Y77638D01*
X44863Y77696D01*
X44784Y77757D01*
X44708Y77821D01*
X44634Y77888D01*
X44563Y77957D01*
X44495Y78030D01*
X44429Y78105D01*
X44367Y78182D01*
X44307Y78262D01*
X44251Y78344D01*
X44198Y78428D01*
X44148Y78514D01*
X44102Y78602D01*
X44059Y78692D01*
X44020Y78784D01*
X43984Y78876D01*
X43952Y78971D01*
X43923Y79066D01*
X43898Y79162D01*
X43877Y79260D01*
X43860Y79358D01*
X43846Y79456D01*
X43837Y79555D01*
X43831Y79655D01*
X43829Y79754D01*
X43829Y86426D01*
X39661Y84373D02*
X37095Y86426D01*
X37095Y77188D01*
X39661Y77188D02*
X34529Y77188D01*
M02*
