G04 EAGLE Gerber RS-274X export*
G75*
%MOMM*%
%FSLAX34Y34*%
%LPD*%
%INSilkscreen Top*%
%IPPOS*%
%AMOC8*
5,1,8,0,0,1.08239X$1,22.5*%
G01*
%ADD10C,0.152400*%
%ADD11R,0.751331X0.014731*%
%ADD12R,0.883919X0.014731*%
%ADD13R,1.001775X0.014731*%
%ADD14R,1.119631X0.014731*%
%ADD15R,1.134363X0.014731*%
%ADD16R,1.149094X0.014731*%
%ADD17R,1.163825X0.014731*%
%ADD18R,1.178556X0.014731*%
%ADD19R,1.193288X0.014731*%
%ADD20R,1.222756X0.014731*%
%ADD21R,1.237488X0.014731*%
%ADD22R,1.266950X0.014731*%
%ADD23R,1.281681X0.014731*%
%ADD24R,1.311144X0.014731*%
%ADD25R,1.325881X0.014731*%
%ADD26R,1.355344X0.014731*%
%ADD27R,1.370075X0.014731*%
%ADD28R,1.384806X0.014731*%
%ADD29R,1.399538X0.014731*%
%ADD30R,1.414275X0.014731*%
%ADD31R,1.443738X0.014731*%
%ADD32R,1.458469X0.014731*%
%ADD33R,1.487931X0.014731*%
%ADD34R,1.502663X0.014731*%
%ADD35R,1.517394X0.014731*%
%ADD36R,1.532125X0.014731*%
%ADD37R,1.546856X0.014731*%
%ADD38R,1.576319X0.014731*%
%ADD39R,1.605788X0.014731*%
%ADD40R,1.620519X0.014731*%
%ADD41R,1.649981X0.014731*%
%ADD42R,1.664713X0.014731*%
%ADD43R,1.694175X0.014731*%
%ADD44R,1.708913X0.014731*%
%ADD45R,1.738375X0.014731*%
%ADD46R,1.753106X0.014731*%
%ADD47R,1.767838X0.014731*%
%ADD48R,1.782569X0.014731*%
%ADD49R,1.797306X0.014731*%
%ADD50R,0.117856X0.014731*%
%ADD51R,1.826769X0.014731*%
%ADD52R,0.235713X0.014731*%
%ADD53R,0.353569X0.014731*%
%ADD54R,1.856231X0.014731*%
%ADD55R,0.486156X0.014731*%
%ADD56R,1.870963X0.014731*%
%ADD57R,0.604013X0.014731*%
%ADD58R,0.721869X0.014731*%
%ADD59R,1.885694X0.014731*%
%ADD60R,0.839719X0.014731*%
%ADD61R,0.972306X0.014731*%
%ADD62R,1.090169X0.014731*%
%ADD63R,1.208025X0.014731*%
%ADD64R,1.252219X0.014731*%
%ADD65R,1.296412X0.014731*%
%ADD66R,1.340612X0.014731*%
%ADD67R,1.826763X0.014731*%
%ADD68R,1.414269X0.014731*%
%ADD69R,1.812031X0.014731*%
%ADD70R,1.429000X0.014731*%
%ADD71R,1.458462X0.014731*%
%ADD72R,1.473200X0.014731*%
%ADD73R,1.723644X0.014731*%
%ADD74R,1.694181X0.014731*%
%ADD75R,1.679450X0.014731*%
%ADD76R,1.561594X0.014731*%
%ADD77R,1.576325X0.014731*%
%ADD78R,1.591056X0.014731*%
%ADD79R,1.635250X0.014731*%
%ADD80R,1.561588X0.014731*%
%ADD81R,1.443731X0.014731*%
%ADD82R,1.797300X0.014731*%
%ADD83R,1.841500X0.014731*%
%ADD84R,1.311150X0.014731*%
%ADD85R,1.296419X0.014731*%
%ADD86R,1.193294X0.014731*%
%ADD87R,0.957575X0.014731*%
%ADD88R,0.589281X0.014731*%
%ADD89R,0.471425X0.014731*%
%ADD90R,0.220975X0.014731*%
%ADD91R,1.812038X0.014731*%
%ADD92R,0.103119X0.014731*%
%ADD93R,0.029463X0.014731*%
%ADD94R,0.162050X0.014731*%
%ADD95R,0.265175X0.014731*%
%ADD96R,0.397763X0.014731*%
%ADD97R,0.515619X0.014731*%
%ADD98R,0.648206X0.014731*%
%ADD99R,1.679444X0.014731*%
%ADD100R,1.016506X0.014731*%
%ADD101R,1.104900X0.014731*%
%ADD102R,1.222750X0.014731*%
%ADD103R,1.429006X0.014731*%
%ADD104R,1.208019X0.014731*%
%ADD105R,0.987044X0.014731*%
%ADD106R,0.854456X0.014731*%
%ADD107R,0.618744X0.014731*%
%ADD108R,0.500888X0.014731*%
%ADD109R,0.368300X0.014731*%
%ADD110R,0.132587X0.014731*%
%ADD111R,0.014731X0.014731*%
%ADD112R,1.664719X0.014731*%
%ADD113R,1.075438X0.014731*%
%ADD114R,0.942844X0.014731*%
%ADD115R,0.707131X0.014731*%
%ADD116R,0.456694X0.014731*%
%ADD117R,0.088388X0.014731*%
%ADD118C,0.101600*%
%ADD119C,0.127000*%
%ADD120C,0.406400*%
%ADD121C,0.076200*%


D10*
X-220694Y181737D02*
X-220694Y199517D01*
X-215755Y199517D01*
X-215615Y199515D01*
X-215476Y199509D01*
X-215336Y199499D01*
X-215197Y199485D01*
X-215058Y199468D01*
X-214920Y199446D01*
X-214783Y199420D01*
X-214646Y199391D01*
X-214510Y199358D01*
X-214376Y199321D01*
X-214242Y199280D01*
X-214110Y199235D01*
X-213978Y199186D01*
X-213849Y199134D01*
X-213721Y199079D01*
X-213594Y199019D01*
X-213469Y198956D01*
X-213346Y198890D01*
X-213225Y198820D01*
X-213106Y198747D01*
X-212989Y198670D01*
X-212875Y198590D01*
X-212762Y198507D01*
X-212652Y198421D01*
X-212545Y198331D01*
X-212440Y198239D01*
X-212338Y198144D01*
X-212238Y198046D01*
X-212141Y197945D01*
X-212047Y197841D01*
X-211957Y197735D01*
X-211869Y197626D01*
X-211784Y197515D01*
X-211703Y197401D01*
X-211624Y197286D01*
X-211549Y197168D01*
X-211478Y197048D01*
X-211410Y196925D01*
X-211345Y196802D01*
X-211284Y196676D01*
X-211226Y196548D01*
X-211172Y196420D01*
X-211122Y196289D01*
X-211075Y196157D01*
X-211032Y196024D01*
X-210993Y195890D01*
X-210958Y195755D01*
X-210927Y195619D01*
X-210899Y195481D01*
X-210876Y195344D01*
X-210856Y195205D01*
X-210840Y195066D01*
X-210828Y194927D01*
X-210820Y194788D01*
X-210816Y194648D01*
X-210816Y194508D01*
X-210820Y194368D01*
X-210828Y194229D01*
X-210840Y194090D01*
X-210856Y193951D01*
X-210876Y193812D01*
X-210899Y193675D01*
X-210927Y193537D01*
X-210958Y193401D01*
X-210993Y193266D01*
X-211032Y193132D01*
X-211075Y192999D01*
X-211122Y192867D01*
X-211172Y192736D01*
X-211226Y192608D01*
X-211284Y192480D01*
X-211345Y192354D01*
X-211410Y192231D01*
X-211478Y192109D01*
X-211549Y191988D01*
X-211624Y191870D01*
X-211703Y191755D01*
X-211784Y191641D01*
X-211869Y191530D01*
X-211957Y191421D01*
X-212047Y191315D01*
X-212141Y191211D01*
X-212238Y191110D01*
X-212338Y191012D01*
X-212440Y190917D01*
X-212545Y190825D01*
X-212652Y190735D01*
X-212762Y190649D01*
X-212875Y190566D01*
X-212989Y190486D01*
X-213106Y190409D01*
X-213225Y190336D01*
X-213346Y190266D01*
X-213469Y190200D01*
X-213594Y190137D01*
X-213721Y190077D01*
X-213849Y190022D01*
X-213978Y189970D01*
X-214110Y189921D01*
X-214242Y189876D01*
X-214376Y189835D01*
X-214510Y189798D01*
X-214646Y189765D01*
X-214783Y189736D01*
X-214920Y189710D01*
X-215058Y189688D01*
X-215197Y189671D01*
X-215336Y189657D01*
X-215476Y189647D01*
X-215615Y189641D01*
X-215755Y189639D01*
X-220694Y189639D01*
X-204699Y195566D02*
X-199760Y199517D01*
X-199760Y181737D01*
X-204699Y181737D02*
X-194821Y181737D01*
X-98498Y185222D02*
X-98498Y191149D01*
X-98498Y185222D02*
X-95040Y180777D01*
X-98498Y185222D02*
X-101955Y180777D01*
X-98498Y185222D02*
X-93065Y187198D01*
X-98498Y185222D02*
X-103930Y187198D01*
X-85372Y178308D02*
X-85372Y196088D01*
X-80433Y196088D01*
X-80293Y196086D01*
X-80154Y196080D01*
X-80014Y196070D01*
X-79875Y196056D01*
X-79736Y196039D01*
X-79598Y196017D01*
X-79461Y195991D01*
X-79324Y195962D01*
X-79188Y195929D01*
X-79054Y195892D01*
X-78920Y195851D01*
X-78788Y195806D01*
X-78656Y195757D01*
X-78527Y195705D01*
X-78399Y195650D01*
X-78272Y195590D01*
X-78147Y195527D01*
X-78024Y195461D01*
X-77903Y195391D01*
X-77784Y195318D01*
X-77667Y195241D01*
X-77553Y195161D01*
X-77440Y195078D01*
X-77330Y194992D01*
X-77223Y194902D01*
X-77118Y194810D01*
X-77016Y194715D01*
X-76916Y194617D01*
X-76819Y194516D01*
X-76725Y194412D01*
X-76635Y194306D01*
X-76547Y194197D01*
X-76462Y194086D01*
X-76381Y193972D01*
X-76302Y193857D01*
X-76227Y193739D01*
X-76156Y193619D01*
X-76088Y193496D01*
X-76023Y193373D01*
X-75962Y193247D01*
X-75904Y193119D01*
X-75850Y192991D01*
X-75800Y192860D01*
X-75753Y192728D01*
X-75710Y192595D01*
X-75671Y192461D01*
X-75636Y192326D01*
X-75605Y192190D01*
X-75577Y192052D01*
X-75554Y191915D01*
X-75534Y191776D01*
X-75518Y191637D01*
X-75506Y191498D01*
X-75498Y191359D01*
X-75494Y191219D01*
X-75494Y191079D01*
X-75498Y190939D01*
X-75506Y190800D01*
X-75518Y190661D01*
X-75534Y190522D01*
X-75554Y190383D01*
X-75577Y190246D01*
X-75605Y190108D01*
X-75636Y189972D01*
X-75671Y189837D01*
X-75710Y189703D01*
X-75753Y189570D01*
X-75800Y189438D01*
X-75850Y189307D01*
X-75904Y189179D01*
X-75962Y189051D01*
X-76023Y188925D01*
X-76088Y188802D01*
X-76156Y188680D01*
X-76227Y188559D01*
X-76302Y188441D01*
X-76381Y188326D01*
X-76462Y188212D01*
X-76547Y188101D01*
X-76635Y187992D01*
X-76725Y187886D01*
X-76819Y187782D01*
X-76916Y187681D01*
X-77016Y187583D01*
X-77118Y187488D01*
X-77223Y187396D01*
X-77330Y187306D01*
X-77440Y187220D01*
X-77553Y187137D01*
X-77667Y187057D01*
X-77784Y186980D01*
X-77903Y186907D01*
X-78024Y186837D01*
X-78147Y186771D01*
X-78272Y186708D01*
X-78399Y186648D01*
X-78527Y186593D01*
X-78656Y186541D01*
X-78788Y186492D01*
X-78920Y186447D01*
X-79054Y186406D01*
X-79188Y186369D01*
X-79324Y186336D01*
X-79461Y186307D01*
X-79598Y186281D01*
X-79736Y186259D01*
X-79875Y186242D01*
X-80014Y186228D01*
X-80154Y186218D01*
X-80293Y186212D01*
X-80433Y186210D01*
X-85372Y186210D01*
X-63945Y196088D02*
X-63813Y196086D01*
X-63682Y196080D01*
X-63550Y196070D01*
X-63419Y196057D01*
X-63289Y196039D01*
X-63159Y196018D01*
X-63029Y195993D01*
X-62901Y195964D01*
X-62773Y195931D01*
X-62647Y195894D01*
X-62521Y195854D01*
X-62397Y195810D01*
X-62274Y195762D01*
X-62153Y195711D01*
X-62033Y195656D01*
X-61915Y195598D01*
X-61799Y195536D01*
X-61685Y195470D01*
X-61572Y195402D01*
X-61462Y195330D01*
X-61354Y195255D01*
X-61248Y195176D01*
X-61144Y195095D01*
X-61043Y195010D01*
X-60945Y194923D01*
X-60849Y194832D01*
X-60756Y194739D01*
X-60665Y194643D01*
X-60578Y194545D01*
X-60493Y194444D01*
X-60412Y194340D01*
X-60333Y194234D01*
X-60258Y194126D01*
X-60186Y194016D01*
X-60118Y193903D01*
X-60052Y193789D01*
X-59990Y193673D01*
X-59932Y193555D01*
X-59877Y193435D01*
X-59826Y193314D01*
X-59778Y193191D01*
X-59734Y193067D01*
X-59694Y192941D01*
X-59657Y192815D01*
X-59624Y192687D01*
X-59595Y192559D01*
X-59570Y192429D01*
X-59549Y192299D01*
X-59531Y192169D01*
X-59518Y192038D01*
X-59508Y191906D01*
X-59502Y191775D01*
X-59500Y191643D01*
X-63945Y196088D02*
X-64095Y196086D01*
X-64244Y196080D01*
X-64393Y196070D01*
X-64542Y196057D01*
X-64691Y196039D01*
X-64839Y196018D01*
X-64987Y195992D01*
X-65133Y195963D01*
X-65279Y195930D01*
X-65424Y195893D01*
X-65568Y195852D01*
X-65711Y195808D01*
X-65853Y195760D01*
X-65993Y195708D01*
X-66132Y195653D01*
X-66270Y195594D01*
X-66405Y195531D01*
X-66540Y195465D01*
X-66672Y195395D01*
X-66802Y195322D01*
X-66931Y195245D01*
X-67058Y195165D01*
X-67182Y195082D01*
X-67304Y194996D01*
X-67424Y194906D01*
X-67541Y194813D01*
X-67656Y194718D01*
X-67769Y194619D01*
X-67879Y194517D01*
X-67986Y194413D01*
X-68090Y194306D01*
X-68192Y194196D01*
X-68290Y194083D01*
X-68386Y193968D01*
X-68478Y193850D01*
X-68568Y193730D01*
X-68654Y193608D01*
X-68737Y193484D01*
X-68817Y193357D01*
X-68893Y193229D01*
X-68966Y193098D01*
X-69036Y192965D01*
X-69102Y192831D01*
X-69164Y192695D01*
X-69223Y192558D01*
X-69279Y192419D01*
X-69330Y192278D01*
X-69378Y192137D01*
X-60982Y188186D02*
X-60886Y188279D01*
X-60794Y188375D01*
X-60704Y188474D01*
X-60617Y188575D01*
X-60533Y188678D01*
X-60451Y188783D01*
X-60373Y188891D01*
X-60298Y189001D01*
X-60225Y189113D01*
X-60156Y189227D01*
X-60090Y189343D01*
X-60028Y189461D01*
X-59969Y189580D01*
X-59913Y189701D01*
X-59860Y189824D01*
X-59811Y189948D01*
X-59766Y190073D01*
X-59723Y190200D01*
X-59685Y190327D01*
X-59650Y190456D01*
X-59619Y190585D01*
X-59591Y190716D01*
X-59567Y190847D01*
X-59546Y190979D01*
X-59530Y191111D01*
X-59517Y191244D01*
X-59507Y191377D01*
X-59502Y191510D01*
X-59500Y191643D01*
X-60981Y188186D02*
X-69377Y178308D01*
X-59500Y178308D01*
X-263493Y75375D02*
X-281273Y75375D01*
X-281273Y80313D01*
X-281271Y80453D01*
X-281265Y80592D01*
X-281255Y80732D01*
X-281241Y80871D01*
X-281224Y81010D01*
X-281202Y81148D01*
X-281176Y81285D01*
X-281147Y81422D01*
X-281114Y81558D01*
X-281077Y81692D01*
X-281036Y81826D01*
X-280991Y81958D01*
X-280942Y82090D01*
X-280890Y82219D01*
X-280835Y82347D01*
X-280775Y82474D01*
X-280712Y82599D01*
X-280646Y82722D01*
X-280576Y82843D01*
X-280503Y82962D01*
X-280426Y83079D01*
X-280346Y83193D01*
X-280263Y83306D01*
X-280177Y83416D01*
X-280087Y83523D01*
X-279995Y83628D01*
X-279900Y83730D01*
X-279802Y83830D01*
X-279701Y83927D01*
X-279597Y84021D01*
X-279491Y84111D01*
X-279382Y84199D01*
X-279271Y84284D01*
X-279157Y84365D01*
X-279042Y84444D01*
X-278924Y84519D01*
X-278804Y84590D01*
X-278681Y84658D01*
X-278558Y84723D01*
X-278432Y84784D01*
X-278304Y84842D01*
X-278176Y84896D01*
X-278045Y84946D01*
X-277913Y84993D01*
X-277780Y85036D01*
X-277646Y85075D01*
X-277511Y85110D01*
X-277375Y85141D01*
X-277237Y85169D01*
X-277100Y85192D01*
X-276961Y85212D01*
X-276822Y85228D01*
X-276683Y85240D01*
X-276544Y85248D01*
X-276404Y85252D01*
X-276264Y85252D01*
X-276124Y85248D01*
X-275985Y85240D01*
X-275846Y85228D01*
X-275707Y85212D01*
X-275568Y85192D01*
X-275431Y85169D01*
X-275293Y85141D01*
X-275157Y85110D01*
X-275022Y85075D01*
X-274888Y85036D01*
X-274755Y84993D01*
X-274623Y84946D01*
X-274492Y84896D01*
X-274364Y84842D01*
X-274236Y84784D01*
X-274110Y84723D01*
X-273987Y84658D01*
X-273865Y84590D01*
X-273744Y84519D01*
X-273626Y84444D01*
X-273511Y84365D01*
X-273397Y84284D01*
X-273286Y84199D01*
X-273177Y84111D01*
X-273071Y84021D01*
X-272967Y83927D01*
X-272866Y83830D01*
X-272768Y83730D01*
X-272673Y83628D01*
X-272581Y83523D01*
X-272491Y83416D01*
X-272405Y83306D01*
X-272322Y83193D01*
X-272242Y83079D01*
X-272165Y82962D01*
X-272092Y82843D01*
X-272022Y82722D01*
X-271956Y82599D01*
X-271893Y82474D01*
X-271833Y82347D01*
X-271778Y82219D01*
X-271726Y82090D01*
X-271677Y81958D01*
X-271632Y81826D01*
X-271591Y81692D01*
X-271554Y81558D01*
X-271521Y81422D01*
X-271492Y81285D01*
X-271466Y81148D01*
X-271444Y81010D01*
X-271427Y80871D01*
X-271413Y80732D01*
X-271403Y80592D01*
X-271397Y80453D01*
X-271395Y80313D01*
X-271395Y75375D01*
X-263493Y91370D02*
X-263493Y97296D01*
X-263495Y97420D01*
X-263501Y97544D01*
X-263511Y97668D01*
X-263524Y97791D01*
X-263542Y97914D01*
X-263563Y98036D01*
X-263588Y98158D01*
X-263617Y98279D01*
X-263650Y98398D01*
X-263686Y98517D01*
X-263727Y98634D01*
X-263770Y98750D01*
X-263818Y98865D01*
X-263869Y98978D01*
X-263924Y99090D01*
X-263982Y99199D01*
X-264043Y99307D01*
X-264108Y99413D01*
X-264176Y99517D01*
X-264248Y99618D01*
X-264322Y99718D01*
X-264400Y99814D01*
X-264480Y99909D01*
X-264564Y100001D01*
X-264650Y100090D01*
X-264739Y100176D01*
X-264831Y100260D01*
X-264926Y100340D01*
X-265022Y100418D01*
X-265122Y100492D01*
X-265223Y100564D01*
X-265327Y100632D01*
X-265433Y100697D01*
X-265541Y100758D01*
X-265650Y100816D01*
X-265762Y100871D01*
X-265875Y100922D01*
X-265990Y100970D01*
X-266106Y101013D01*
X-266223Y101054D01*
X-266342Y101090D01*
X-266461Y101123D01*
X-266582Y101152D01*
X-266704Y101177D01*
X-266826Y101198D01*
X-266949Y101216D01*
X-267072Y101229D01*
X-267196Y101239D01*
X-267320Y101245D01*
X-267444Y101247D01*
X-269420Y101247D01*
X-269544Y101245D01*
X-269668Y101239D01*
X-269792Y101229D01*
X-269915Y101216D01*
X-270038Y101198D01*
X-270160Y101177D01*
X-270282Y101152D01*
X-270403Y101123D01*
X-270522Y101090D01*
X-270641Y101054D01*
X-270758Y101013D01*
X-270874Y100970D01*
X-270989Y100922D01*
X-271102Y100871D01*
X-271214Y100816D01*
X-271323Y100758D01*
X-271431Y100697D01*
X-271537Y100632D01*
X-271641Y100564D01*
X-271742Y100492D01*
X-271842Y100418D01*
X-271938Y100340D01*
X-272033Y100260D01*
X-272125Y100176D01*
X-272214Y100090D01*
X-272300Y100001D01*
X-272384Y99909D01*
X-272464Y99814D01*
X-272542Y99718D01*
X-272616Y99618D01*
X-272688Y99517D01*
X-272756Y99413D01*
X-272821Y99307D01*
X-272882Y99199D01*
X-272940Y99090D01*
X-272995Y98978D01*
X-273046Y98865D01*
X-273094Y98750D01*
X-273137Y98634D01*
X-273178Y98517D01*
X-273214Y98398D01*
X-273247Y98279D01*
X-273276Y98158D01*
X-273301Y98036D01*
X-273322Y97914D01*
X-273340Y97791D01*
X-273353Y97668D01*
X-273363Y97544D01*
X-273369Y97420D01*
X-273371Y97296D01*
X-273371Y91370D01*
X-281273Y91370D01*
X-281273Y101247D01*
X-228632Y-2889D02*
X-228632Y-20669D01*
X-228632Y-2889D02*
X-223693Y-2889D01*
X-223553Y-2891D01*
X-223414Y-2897D01*
X-223274Y-2907D01*
X-223135Y-2921D01*
X-222996Y-2938D01*
X-222858Y-2960D01*
X-222721Y-2986D01*
X-222584Y-3015D01*
X-222448Y-3048D01*
X-222314Y-3085D01*
X-222180Y-3126D01*
X-222048Y-3171D01*
X-221916Y-3220D01*
X-221787Y-3272D01*
X-221659Y-3327D01*
X-221532Y-3387D01*
X-221407Y-3450D01*
X-221284Y-3516D01*
X-221163Y-3586D01*
X-221044Y-3659D01*
X-220927Y-3736D01*
X-220813Y-3816D01*
X-220700Y-3899D01*
X-220590Y-3985D01*
X-220483Y-4075D01*
X-220378Y-4167D01*
X-220276Y-4262D01*
X-220176Y-4360D01*
X-220079Y-4461D01*
X-219985Y-4565D01*
X-219895Y-4671D01*
X-219807Y-4780D01*
X-219722Y-4891D01*
X-219641Y-5005D01*
X-219562Y-5120D01*
X-219487Y-5238D01*
X-219416Y-5358D01*
X-219348Y-5481D01*
X-219283Y-5604D01*
X-219222Y-5730D01*
X-219164Y-5858D01*
X-219110Y-5986D01*
X-219060Y-6117D01*
X-219013Y-6249D01*
X-218970Y-6382D01*
X-218931Y-6516D01*
X-218896Y-6651D01*
X-218865Y-6787D01*
X-218837Y-6925D01*
X-218814Y-7062D01*
X-218794Y-7201D01*
X-218778Y-7340D01*
X-218766Y-7479D01*
X-218758Y-7618D01*
X-218754Y-7758D01*
X-218754Y-7898D01*
X-218758Y-8038D01*
X-218766Y-8177D01*
X-218778Y-8316D01*
X-218794Y-8455D01*
X-218814Y-8594D01*
X-218837Y-8731D01*
X-218865Y-8869D01*
X-218896Y-9005D01*
X-218931Y-9140D01*
X-218970Y-9274D01*
X-219013Y-9407D01*
X-219060Y-9539D01*
X-219110Y-9670D01*
X-219164Y-9798D01*
X-219222Y-9926D01*
X-219283Y-10052D01*
X-219348Y-10175D01*
X-219416Y-10297D01*
X-219487Y-10418D01*
X-219562Y-10536D01*
X-219641Y-10651D01*
X-219722Y-10765D01*
X-219807Y-10876D01*
X-219895Y-10985D01*
X-219985Y-11091D01*
X-220079Y-11195D01*
X-220176Y-11296D01*
X-220276Y-11394D01*
X-220378Y-11489D01*
X-220483Y-11581D01*
X-220590Y-11671D01*
X-220700Y-11757D01*
X-220813Y-11840D01*
X-220927Y-11920D01*
X-221044Y-11997D01*
X-221163Y-12070D01*
X-221284Y-12140D01*
X-221407Y-12206D01*
X-221532Y-12269D01*
X-221659Y-12329D01*
X-221787Y-12384D01*
X-221916Y-12436D01*
X-222048Y-12485D01*
X-222180Y-12530D01*
X-222314Y-12571D01*
X-222448Y-12608D01*
X-222584Y-12641D01*
X-222721Y-12670D01*
X-222858Y-12696D01*
X-222996Y-12718D01*
X-223135Y-12735D01*
X-223274Y-12749D01*
X-223414Y-12759D01*
X-223553Y-12765D01*
X-223693Y-12767D01*
X-228632Y-12767D01*
X-212637Y-16718D02*
X-208686Y-2889D01*
X-212637Y-16718D02*
X-202759Y-16718D01*
X-205722Y-12767D02*
X-205722Y-20669D01*
X-94488Y-22257D02*
X-94488Y-4477D01*
X-89549Y-4477D01*
X-89409Y-4479D01*
X-89270Y-4485D01*
X-89130Y-4495D01*
X-88991Y-4509D01*
X-88852Y-4526D01*
X-88714Y-4548D01*
X-88577Y-4574D01*
X-88440Y-4603D01*
X-88304Y-4636D01*
X-88170Y-4673D01*
X-88036Y-4714D01*
X-87904Y-4759D01*
X-87772Y-4808D01*
X-87643Y-4860D01*
X-87515Y-4915D01*
X-87388Y-4975D01*
X-87263Y-5038D01*
X-87140Y-5104D01*
X-87019Y-5174D01*
X-86900Y-5247D01*
X-86783Y-5324D01*
X-86669Y-5404D01*
X-86556Y-5487D01*
X-86446Y-5573D01*
X-86339Y-5663D01*
X-86234Y-5755D01*
X-86132Y-5850D01*
X-86032Y-5948D01*
X-85935Y-6049D01*
X-85841Y-6153D01*
X-85751Y-6259D01*
X-85663Y-6368D01*
X-85578Y-6479D01*
X-85497Y-6593D01*
X-85418Y-6708D01*
X-85343Y-6826D01*
X-85272Y-6946D01*
X-85204Y-7069D01*
X-85139Y-7192D01*
X-85078Y-7318D01*
X-85020Y-7446D01*
X-84966Y-7574D01*
X-84916Y-7705D01*
X-84869Y-7837D01*
X-84826Y-7970D01*
X-84787Y-8104D01*
X-84752Y-8239D01*
X-84721Y-8375D01*
X-84693Y-8513D01*
X-84670Y-8650D01*
X-84650Y-8789D01*
X-84634Y-8928D01*
X-84622Y-9067D01*
X-84614Y-9206D01*
X-84610Y-9346D01*
X-84610Y-9486D01*
X-84614Y-9626D01*
X-84622Y-9765D01*
X-84634Y-9904D01*
X-84650Y-10043D01*
X-84670Y-10182D01*
X-84693Y-10319D01*
X-84721Y-10457D01*
X-84752Y-10593D01*
X-84787Y-10728D01*
X-84826Y-10862D01*
X-84869Y-10995D01*
X-84916Y-11127D01*
X-84966Y-11258D01*
X-85020Y-11386D01*
X-85078Y-11514D01*
X-85139Y-11640D01*
X-85204Y-11763D01*
X-85272Y-11885D01*
X-85343Y-12006D01*
X-85418Y-12124D01*
X-85497Y-12239D01*
X-85578Y-12353D01*
X-85663Y-12464D01*
X-85751Y-12573D01*
X-85841Y-12679D01*
X-85935Y-12783D01*
X-86032Y-12884D01*
X-86132Y-12982D01*
X-86234Y-13077D01*
X-86339Y-13169D01*
X-86446Y-13259D01*
X-86556Y-13345D01*
X-86669Y-13428D01*
X-86783Y-13508D01*
X-86900Y-13585D01*
X-87019Y-13658D01*
X-87140Y-13728D01*
X-87263Y-13794D01*
X-87388Y-13857D01*
X-87515Y-13917D01*
X-87643Y-13972D01*
X-87772Y-14024D01*
X-87904Y-14073D01*
X-88036Y-14118D01*
X-88170Y-14159D01*
X-88304Y-14196D01*
X-88440Y-14229D01*
X-88577Y-14258D01*
X-88714Y-14284D01*
X-88852Y-14306D01*
X-88991Y-14323D01*
X-89130Y-14337D01*
X-89270Y-14347D01*
X-89409Y-14353D01*
X-89549Y-14355D01*
X-94488Y-14355D01*
X-78493Y-22257D02*
X-73554Y-22257D01*
X-73414Y-22255D01*
X-73275Y-22249D01*
X-73135Y-22239D01*
X-72996Y-22225D01*
X-72857Y-22208D01*
X-72719Y-22186D01*
X-72582Y-22160D01*
X-72445Y-22131D01*
X-72309Y-22098D01*
X-72175Y-22061D01*
X-72041Y-22020D01*
X-71909Y-21975D01*
X-71777Y-21926D01*
X-71648Y-21874D01*
X-71520Y-21819D01*
X-71393Y-21759D01*
X-71268Y-21696D01*
X-71145Y-21630D01*
X-71024Y-21560D01*
X-70905Y-21487D01*
X-70788Y-21410D01*
X-70674Y-21330D01*
X-70561Y-21247D01*
X-70451Y-21161D01*
X-70344Y-21071D01*
X-70239Y-20979D01*
X-70137Y-20884D01*
X-70037Y-20786D01*
X-69940Y-20685D01*
X-69846Y-20581D01*
X-69756Y-20475D01*
X-69668Y-20366D01*
X-69583Y-20255D01*
X-69502Y-20141D01*
X-69423Y-20026D01*
X-69348Y-19908D01*
X-69277Y-19787D01*
X-69209Y-19665D01*
X-69144Y-19542D01*
X-69083Y-19416D01*
X-69025Y-19288D01*
X-68971Y-19160D01*
X-68921Y-19029D01*
X-68874Y-18897D01*
X-68831Y-18764D01*
X-68792Y-18630D01*
X-68757Y-18495D01*
X-68726Y-18359D01*
X-68698Y-18221D01*
X-68675Y-18084D01*
X-68655Y-17945D01*
X-68639Y-17806D01*
X-68627Y-17667D01*
X-68619Y-17528D01*
X-68615Y-17388D01*
X-68615Y-17248D01*
X-68619Y-17108D01*
X-68627Y-16969D01*
X-68639Y-16830D01*
X-68655Y-16691D01*
X-68675Y-16552D01*
X-68698Y-16415D01*
X-68726Y-16277D01*
X-68757Y-16141D01*
X-68792Y-16006D01*
X-68831Y-15872D01*
X-68874Y-15739D01*
X-68921Y-15607D01*
X-68971Y-15476D01*
X-69025Y-15348D01*
X-69083Y-15220D01*
X-69144Y-15094D01*
X-69209Y-14971D01*
X-69277Y-14848D01*
X-69348Y-14728D01*
X-69423Y-14610D01*
X-69502Y-14495D01*
X-69583Y-14381D01*
X-69668Y-14270D01*
X-69756Y-14161D01*
X-69846Y-14055D01*
X-69940Y-13951D01*
X-70037Y-13850D01*
X-70137Y-13752D01*
X-70239Y-13657D01*
X-70344Y-13565D01*
X-70451Y-13475D01*
X-70561Y-13389D01*
X-70674Y-13306D01*
X-70788Y-13226D01*
X-70905Y-13149D01*
X-71024Y-13076D01*
X-71145Y-13006D01*
X-71268Y-12940D01*
X-71393Y-12877D01*
X-71520Y-12817D01*
X-71648Y-12762D01*
X-71777Y-12710D01*
X-71909Y-12661D01*
X-72041Y-12616D01*
X-72175Y-12575D01*
X-72309Y-12538D01*
X-72445Y-12505D01*
X-72582Y-12476D01*
X-72719Y-12450D01*
X-72857Y-12428D01*
X-72996Y-12411D01*
X-73135Y-12397D01*
X-73275Y-12387D01*
X-73414Y-12381D01*
X-73554Y-12379D01*
X-72566Y-4477D02*
X-78493Y-4477D01*
X-72566Y-4477D02*
X-72442Y-4479D01*
X-72318Y-4485D01*
X-72194Y-4495D01*
X-72071Y-4508D01*
X-71948Y-4526D01*
X-71826Y-4547D01*
X-71704Y-4572D01*
X-71583Y-4601D01*
X-71464Y-4634D01*
X-71345Y-4670D01*
X-71228Y-4711D01*
X-71112Y-4754D01*
X-70997Y-4802D01*
X-70884Y-4853D01*
X-70772Y-4908D01*
X-70663Y-4966D01*
X-70555Y-5027D01*
X-70449Y-5092D01*
X-70345Y-5160D01*
X-70244Y-5232D01*
X-70144Y-5306D01*
X-70048Y-5384D01*
X-69953Y-5464D01*
X-69861Y-5548D01*
X-69772Y-5634D01*
X-69686Y-5723D01*
X-69602Y-5815D01*
X-69522Y-5910D01*
X-69444Y-6006D01*
X-69370Y-6106D01*
X-69298Y-6207D01*
X-69230Y-6311D01*
X-69165Y-6417D01*
X-69104Y-6525D01*
X-69046Y-6634D01*
X-68991Y-6746D01*
X-68940Y-6859D01*
X-68892Y-6974D01*
X-68849Y-7090D01*
X-68808Y-7207D01*
X-68772Y-7326D01*
X-68739Y-7445D01*
X-68710Y-7566D01*
X-68685Y-7688D01*
X-68664Y-7810D01*
X-68646Y-7933D01*
X-68633Y-8056D01*
X-68623Y-8180D01*
X-68617Y-8304D01*
X-68615Y-8428D01*
X-68617Y-8552D01*
X-68623Y-8676D01*
X-68633Y-8800D01*
X-68646Y-8923D01*
X-68664Y-9046D01*
X-68685Y-9168D01*
X-68710Y-9290D01*
X-68739Y-9411D01*
X-68772Y-9530D01*
X-68808Y-9649D01*
X-68849Y-9766D01*
X-68892Y-9882D01*
X-68940Y-9997D01*
X-68991Y-10110D01*
X-69046Y-10222D01*
X-69104Y-10331D01*
X-69165Y-10439D01*
X-69230Y-10545D01*
X-69298Y-10649D01*
X-69370Y-10750D01*
X-69444Y-10850D01*
X-69522Y-10946D01*
X-69602Y-11041D01*
X-69686Y-11133D01*
X-69772Y-11222D01*
X-69861Y-11308D01*
X-69953Y-11392D01*
X-70048Y-11472D01*
X-70144Y-11550D01*
X-70244Y-11624D01*
X-70345Y-11696D01*
X-70449Y-11764D01*
X-70555Y-11829D01*
X-70663Y-11890D01*
X-70772Y-11948D01*
X-70884Y-12003D01*
X-70997Y-12054D01*
X-71112Y-12102D01*
X-71228Y-12145D01*
X-71345Y-12186D01*
X-71464Y-12222D01*
X-71583Y-12255D01*
X-71704Y-12284D01*
X-71826Y-12309D01*
X-71948Y-12330D01*
X-72071Y-12348D01*
X-72194Y-12361D01*
X-72318Y-12371D01*
X-72442Y-12377D01*
X-72566Y-12379D01*
X-76517Y-12379D01*
D11*
X-3103Y70015D03*
D12*
X-3618Y70162D03*
D13*
X-4060Y70310D03*
D14*
X-4502Y70457D03*
D15*
X-4576Y70604D03*
D16*
X-4502Y70752D03*
D17*
X-4429Y70899D03*
D18*
X-4502Y71046D03*
D19*
X-4429Y71194D03*
D20*
X-4429Y71341D03*
D21*
X-4355Y71488D03*
X-4355Y71636D03*
D22*
X-4355Y71783D03*
D23*
X-4281Y71930D03*
D24*
X-4281Y72078D03*
X-4281Y72225D03*
D25*
X-4208Y72372D03*
D26*
X-4208Y72520D03*
D27*
X-4134Y72667D03*
D28*
X-4208Y72814D03*
D29*
X-4134Y72962D03*
D30*
X-4060Y73109D03*
D31*
X-4060Y73256D03*
X-4060Y73403D03*
D32*
X-3987Y73551D03*
D33*
X-3987Y73698D03*
D34*
X-3913Y73845D03*
D35*
X-3987Y73993D03*
D36*
X-3913Y74140D03*
D37*
X-3839Y74287D03*
D38*
X-3839Y74435D03*
X-3839Y74582D03*
D39*
X-3839Y74729D03*
D40*
X-3766Y74877D03*
X-3766Y75024D03*
D41*
X-3766Y75171D03*
D42*
X-3692Y75319D03*
D43*
X-3692Y75466D03*
X-3692Y75613D03*
D44*
X-3618Y75761D03*
D45*
X-3618Y75908D03*
D46*
X-3545Y76055D03*
D47*
X-3618Y76203D03*
D48*
X-3545Y76350D03*
D49*
X-3471Y76497D03*
D50*
X17007Y76497D03*
D51*
X-3471Y76645D03*
D52*
X16417Y76645D03*
D51*
X-3471Y76792D03*
D53*
X15975Y76792D03*
D54*
X-3471Y76939D03*
D55*
X15460Y76939D03*
D56*
X-3397Y77086D03*
D57*
X15018Y77086D03*
D56*
X-3397Y77234D03*
D58*
X14428Y77234D03*
D59*
X-3471Y77381D03*
D60*
X13987Y77381D03*
D59*
X-3471Y77528D03*
D61*
X13471Y77528D03*
D56*
X-3545Y77676D03*
D62*
X13029Y77676D03*
D59*
X-3618Y77823D03*
D14*
X12882Y77823D03*
D59*
X-3618Y77970D03*
D16*
X12882Y77970D03*
D59*
X-3766Y78118D03*
D17*
X12955Y78118D03*
D59*
X-3766Y78265D03*
D18*
X13029Y78265D03*
D56*
X-3839Y78412D03*
D19*
X12955Y78412D03*
D59*
X-3913Y78560D03*
D63*
X13029Y78560D03*
D59*
X-3913Y78707D03*
D21*
X13029Y78707D03*
D59*
X-4060Y78854D03*
D64*
X13103Y78854D03*
D59*
X-4060Y79002D03*
D64*
X13103Y79002D03*
D56*
X-4134Y79149D03*
D23*
X13103Y79149D03*
D59*
X-4208Y79296D03*
D65*
X13176Y79296D03*
D59*
X-4208Y79444D03*
D25*
X13176Y79444D03*
D59*
X-4355Y79591D03*
D25*
X13176Y79591D03*
D59*
X-4355Y79738D03*
D66*
X13250Y79738D03*
D56*
X-4429Y79886D03*
D27*
X13250Y79886D03*
D54*
X-4355Y80033D03*
D28*
X13324Y80033D03*
D54*
X-4355Y80180D03*
D29*
X13250Y80180D03*
D67*
X-4355Y80328D03*
D68*
X13324Y80328D03*
D69*
X-4281Y80475D03*
D70*
X13397Y80475D03*
D48*
X-4281Y80622D03*
D71*
X13397Y80622D03*
D48*
X-4281Y80769D03*
D71*
X13397Y80769D03*
D47*
X-4208Y80917D03*
D72*
X13471Y80917D03*
D45*
X-4208Y81064D03*
D34*
X13471Y81064D03*
D73*
X-4134Y81211D03*
D34*
X13471Y81211D03*
D44*
X-4208Y81359D03*
D36*
X13471Y81359D03*
D74*
X-4134Y81506D03*
D37*
X13545Y81506D03*
D75*
X-4060Y81653D03*
D76*
X13618Y81653D03*
D41*
X-4060Y81801D03*
D77*
X13545Y81801D03*
D41*
X-4060Y81948D03*
D78*
X13618Y81948D03*
D79*
X-3987Y82095D03*
D40*
X13618Y82095D03*
D39*
X-3987Y82243D03*
D79*
X13692Y82243D03*
D39*
X-3987Y82390D03*
D79*
X13692Y82390D03*
D77*
X-3987Y82537D03*
D42*
X13692Y82537D03*
D80*
X-3913Y82685D03*
D75*
X13766Y82685D03*
D37*
X-3839Y82832D03*
D44*
X13766Y82832D03*
D36*
X-3913Y82979D03*
D44*
X13766Y82979D03*
D35*
X-3839Y83127D03*
D73*
X13839Y83127D03*
D33*
X-3839Y83274D03*
D46*
X13839Y83274D03*
D72*
X-3766Y83421D03*
D47*
X13913Y83421D03*
D72*
X-3766Y83569D03*
D48*
X13839Y83569D03*
D81*
X-3766Y83716D03*
D82*
X13913Y83716D03*
D70*
X-3692Y83863D03*
D69*
X13987Y83863D03*
D29*
X-3692Y84011D03*
D83*
X13987Y84011D03*
D29*
X-3692Y84158D03*
D83*
X13987Y84158D03*
D28*
X-3618Y84305D03*
D56*
X13987Y84305D03*
D26*
X-3618Y84452D03*
D59*
X14060Y84452D03*
D66*
X-3545Y84600D03*
D56*
X13987Y84600D03*
D25*
X-3618Y84747D03*
D59*
X13913Y84747D03*
D84*
X-3545Y84894D03*
D59*
X13913Y84894D03*
D85*
X-3471Y85042D03*
D56*
X13839Y85042D03*
D22*
X-3471Y85189D03*
D59*
X13766Y85189D03*
D22*
X-3471Y85336D03*
D59*
X13766Y85336D03*
D64*
X-3397Y85484D03*
D59*
X13618Y85484D03*
D20*
X-3397Y85631D03*
D59*
X13618Y85631D03*
D63*
X-3324Y85778D03*
D56*
X13545Y85778D03*
D86*
X-3397Y85926D03*
D59*
X13471Y85926D03*
D18*
X-3324Y86073D03*
D59*
X13471Y86073D03*
D17*
X-3250Y86220D03*
D59*
X13324Y86220D03*
D16*
X-3324Y86368D03*
D59*
X13324Y86368D03*
D15*
X-3250Y86515D03*
D56*
X13250Y86515D03*
D62*
X-3324Y86662D03*
D59*
X13176Y86662D03*
D87*
X-3839Y86810D03*
D59*
X13176Y86810D03*
D60*
X-4429Y86957D03*
D59*
X13029Y86957D03*
D58*
X-4870Y87104D03*
D59*
X13029Y87104D03*
D88*
X-5386Y87252D03*
D54*
X13029Y87252D03*
D89*
X-5828Y87399D03*
D83*
X13103Y87399D03*
D53*
X-6417Y87546D03*
D83*
X13103Y87546D03*
D90*
X-6933Y87694D03*
D91*
X13103Y87694D03*
D92*
X-7375Y87841D03*
D49*
X13176Y87841D03*
D93*
X2422Y87988D03*
D48*
X13103Y87988D03*
D94*
X1906Y88135D03*
D47*
X13176Y88135D03*
D95*
X1391Y88283D03*
D46*
X13250Y88283D03*
D96*
X875Y88430D03*
D73*
X13250Y88430D03*
D97*
X433Y88577D03*
D73*
X13250Y88577D03*
D98*
X-83Y88725D03*
D74*
X13250Y88725D03*
D11*
X-598Y88872D03*
D99*
X13324Y88872D03*
D12*
X-1114Y89019D03*
D42*
X13397Y89019D03*
D100*
X-1629Y89167D03*
D41*
X13324Y89167D03*
D101*
X-2071Y89314D03*
D79*
X13397Y89314D03*
D15*
X-2071Y89461D03*
D40*
X13471Y89461D03*
D16*
X-1998Y89609D03*
D78*
X13471Y89609D03*
D17*
X-1924Y89756D03*
D78*
X13471Y89756D03*
D18*
X-1998Y89903D03*
D80*
X13471Y89903D03*
D19*
X-1924Y90051D03*
D37*
X13545Y90051D03*
D102*
X-1924Y90198D03*
D36*
X13618Y90198D03*
D21*
X-1850Y90345D03*
D35*
X13545Y90345D03*
D21*
X-1850Y90493D03*
D34*
X13618Y90493D03*
D22*
X-1850Y90640D03*
D72*
X13618Y90640D03*
D23*
X-1777Y90787D03*
D32*
X13692Y90787D03*
D24*
X-1777Y90935D03*
D32*
X13692Y90935D03*
D24*
X-1777Y91082D03*
D103*
X13775Y91084D03*
D25*
X-1703Y91229D03*
D68*
X13766Y91229D03*
D26*
X-1703Y91377D03*
D28*
X13766Y91377D03*
D27*
X-1629Y91524D03*
D28*
X13766Y91524D03*
X-1703Y91671D03*
D27*
X13839Y91671D03*
D29*
X-1629Y91818D03*
D66*
X13839Y91818D03*
D68*
X-1556Y91966D03*
D66*
X13839Y91966D03*
D31*
X-1556Y92113D03*
D84*
X13839Y92113D03*
D31*
X-1556Y92260D03*
D65*
X13913Y92260D03*
D72*
X-1556Y92408D03*
D23*
X13987Y92408D03*
D33*
X-1482Y92555D03*
D22*
X13913Y92555D03*
D34*
X-1408Y92702D03*
D64*
X13987Y92702D03*
D35*
X-1482Y92850D03*
D20*
X13987Y92850D03*
D36*
X-1408Y92997D03*
D104*
X14060Y92997D03*
D80*
X-1408Y93144D03*
D104*
X14060Y93144D03*
D38*
X-1335Y93292D03*
D18*
X14060Y93292D03*
D38*
X-1335Y93439D03*
D17*
X14134Y93439D03*
D39*
X-1335Y93586D03*
D16*
X14207Y93586D03*
D40*
X-1261Y93734D03*
D15*
X14134Y93734D03*
D40*
X-1261Y93881D03*
D101*
X14134Y93881D03*
D41*
X-1261Y94028D03*
D105*
X13692Y94028D03*
D42*
X-1187Y94176D03*
D106*
X13176Y94176D03*
D43*
X-1187Y94323D03*
D11*
X12661Y94323D03*
D43*
X-1187Y94470D03*
D107*
X12145Y94470D03*
D44*
X-1114Y94618D03*
D108*
X11703Y94618D03*
D45*
X-1114Y94765D03*
D109*
X11187Y94765D03*
D46*
X-1040Y94912D03*
D95*
X10672Y94912D03*
D47*
X-1114Y95060D03*
D110*
X10156Y95060D03*
D48*
X-1040Y95207D03*
D111*
X9714Y95207D03*
D49*
X-966Y95354D03*
D51*
X-966Y95501D03*
X-966Y95649D03*
D54*
X-966Y95796D03*
D56*
X-893Y95943D03*
X-893Y96091D03*
D59*
X-966Y96238D03*
X-966Y96385D03*
X-1114Y96533D03*
X-1114Y96680D03*
D56*
X-1187Y96827D03*
D59*
X-1261Y96975D03*
X-1261Y97122D03*
X-1408Y97269D03*
X-1408Y97417D03*
D56*
X-1482Y97564D03*
D59*
X-1556Y97711D03*
X-1556Y97859D03*
D56*
X-1629Y98006D03*
D59*
X-1703Y98153D03*
X-1703Y98301D03*
X-1850Y98448D03*
X-1850Y98595D03*
D56*
X-1924Y98743D03*
D54*
X-1850Y98890D03*
X-1850Y99037D03*
D67*
X-1850Y99184D03*
D69*
X-1777Y99332D03*
D48*
X-1777Y99479D03*
X-1777Y99626D03*
D47*
X-1703Y99774D03*
D45*
X-1703Y99921D03*
D73*
X-1629Y100068D03*
D44*
X-1703Y100216D03*
D74*
X-1629Y100363D03*
D75*
X-1556Y100510D03*
D112*
X-1629Y100658D03*
D41*
X-1556Y100805D03*
D40*
X-1556Y100952D03*
D39*
X-1482Y101100D03*
X-1482Y101247D03*
D77*
X-1482Y101394D03*
D80*
X-1408Y101542D03*
D36*
X-1408Y101689D03*
X-1408Y101836D03*
D35*
X-1335Y101984D03*
D33*
X-1335Y102131D03*
D72*
X-1261Y102278D03*
X-1261Y102426D03*
D81*
X-1261Y102573D03*
D70*
X-1187Y102720D03*
D29*
X-1187Y102867D03*
X-1187Y103015D03*
D28*
X-1114Y103162D03*
D26*
X-1114Y103309D03*
D66*
X-1040Y103457D03*
D25*
X-1114Y103604D03*
D84*
X-1040Y103751D03*
D85*
X-966Y103899D03*
D22*
X-966Y104046D03*
X-966Y104193D03*
D21*
X-966Y104341D03*
D20*
X-893Y104488D03*
D63*
X-819Y104635D03*
D86*
X-893Y104783D03*
D18*
X-819Y104930D03*
D16*
X-819Y105077D03*
X-819Y105225D03*
D15*
X-746Y105372D03*
D113*
X-893Y105519D03*
D114*
X-1408Y105667D03*
D60*
X-1924Y105814D03*
D115*
X-2440Y105961D03*
D88*
X-2882Y106109D03*
D116*
X-3397Y106256D03*
D53*
X-3913Y106403D03*
D90*
X-4429Y106550D03*
D117*
X-4944Y106698D03*
D50*
X-443Y69169D03*
D52*
X-1033Y69317D03*
D53*
X-1474Y69464D03*
D55*
X-1990Y69611D03*
D57*
X-2432Y69759D03*
D58*
X-3021Y69906D03*
D60*
X-3463Y70053D03*
D61*
X-3979Y70201D03*
D62*
X-4421Y70348D03*
D14*
X-4568Y70495D03*
D10*
X-125734Y193389D02*
X-125734Y211169D01*
X-120795Y211169D01*
X-120655Y211167D01*
X-120516Y211161D01*
X-120376Y211151D01*
X-120237Y211137D01*
X-120098Y211120D01*
X-119960Y211098D01*
X-119823Y211072D01*
X-119686Y211043D01*
X-119550Y211010D01*
X-119416Y210973D01*
X-119282Y210932D01*
X-119150Y210887D01*
X-119018Y210838D01*
X-118889Y210786D01*
X-118761Y210731D01*
X-118634Y210671D01*
X-118509Y210608D01*
X-118386Y210542D01*
X-118265Y210472D01*
X-118146Y210399D01*
X-118029Y210322D01*
X-117915Y210242D01*
X-117802Y210159D01*
X-117692Y210073D01*
X-117585Y209983D01*
X-117480Y209891D01*
X-117378Y209796D01*
X-117278Y209698D01*
X-117181Y209597D01*
X-117087Y209493D01*
X-116997Y209387D01*
X-116909Y209278D01*
X-116824Y209167D01*
X-116743Y209053D01*
X-116664Y208938D01*
X-116589Y208820D01*
X-116518Y208700D01*
X-116450Y208577D01*
X-116385Y208454D01*
X-116324Y208328D01*
X-116266Y208200D01*
X-116212Y208072D01*
X-116162Y207941D01*
X-116115Y207809D01*
X-116072Y207676D01*
X-116033Y207542D01*
X-115998Y207407D01*
X-115967Y207271D01*
X-115939Y207133D01*
X-115916Y206996D01*
X-115896Y206857D01*
X-115880Y206718D01*
X-115868Y206579D01*
X-115860Y206440D01*
X-115856Y206300D01*
X-115856Y206160D01*
X-115860Y206020D01*
X-115868Y205881D01*
X-115880Y205742D01*
X-115896Y205603D01*
X-115916Y205464D01*
X-115939Y205327D01*
X-115967Y205189D01*
X-115998Y205053D01*
X-116033Y204918D01*
X-116072Y204784D01*
X-116115Y204651D01*
X-116162Y204519D01*
X-116212Y204388D01*
X-116266Y204260D01*
X-116324Y204132D01*
X-116385Y204006D01*
X-116450Y203883D01*
X-116518Y203761D01*
X-116589Y203640D01*
X-116664Y203522D01*
X-116743Y203407D01*
X-116824Y203293D01*
X-116909Y203182D01*
X-116997Y203073D01*
X-117087Y202967D01*
X-117181Y202863D01*
X-117278Y202762D01*
X-117378Y202664D01*
X-117480Y202569D01*
X-117585Y202477D01*
X-117692Y202387D01*
X-117802Y202301D01*
X-117915Y202218D01*
X-118029Y202138D01*
X-118146Y202061D01*
X-118265Y201988D01*
X-118386Y201918D01*
X-118509Y201852D01*
X-118634Y201789D01*
X-118761Y201729D01*
X-118889Y201674D01*
X-119018Y201622D01*
X-119150Y201573D01*
X-119282Y201528D01*
X-119416Y201487D01*
X-119550Y201450D01*
X-119686Y201417D01*
X-119823Y201388D01*
X-119960Y201362D01*
X-120098Y201340D01*
X-120237Y201323D01*
X-120376Y201309D01*
X-120516Y201299D01*
X-120655Y201293D01*
X-120795Y201291D01*
X-125734Y201291D01*
X-119807Y201291D02*
X-115856Y193389D01*
X-213586Y46800D02*
X-217537Y46800D01*
X-217661Y46802D01*
X-217785Y46808D01*
X-217909Y46818D01*
X-218032Y46831D01*
X-218155Y46849D01*
X-218277Y46870D01*
X-218399Y46895D01*
X-218520Y46924D01*
X-218639Y46957D01*
X-218758Y46993D01*
X-218875Y47034D01*
X-218991Y47077D01*
X-219106Y47125D01*
X-219219Y47176D01*
X-219331Y47231D01*
X-219440Y47289D01*
X-219548Y47350D01*
X-219654Y47415D01*
X-219758Y47483D01*
X-219859Y47555D01*
X-219959Y47629D01*
X-220055Y47707D01*
X-220150Y47787D01*
X-220242Y47871D01*
X-220331Y47957D01*
X-220417Y48046D01*
X-220501Y48138D01*
X-220581Y48233D01*
X-220659Y48329D01*
X-220733Y48429D01*
X-220805Y48530D01*
X-220873Y48634D01*
X-220938Y48740D01*
X-220999Y48848D01*
X-221057Y48957D01*
X-221112Y49069D01*
X-221163Y49182D01*
X-221211Y49297D01*
X-221254Y49413D01*
X-221295Y49530D01*
X-221331Y49649D01*
X-221364Y49768D01*
X-221393Y49889D01*
X-221418Y50011D01*
X-221439Y50133D01*
X-221457Y50256D01*
X-221470Y50379D01*
X-221480Y50503D01*
X-221486Y50627D01*
X-221488Y50751D01*
X-221488Y60628D01*
X-221486Y60752D01*
X-221480Y60876D01*
X-221470Y61000D01*
X-221457Y61123D01*
X-221439Y61246D01*
X-221418Y61368D01*
X-221393Y61490D01*
X-221364Y61611D01*
X-221331Y61730D01*
X-221295Y61849D01*
X-221254Y61966D01*
X-221211Y62082D01*
X-221163Y62197D01*
X-221112Y62310D01*
X-221057Y62422D01*
X-220999Y62531D01*
X-220938Y62639D01*
X-220873Y62745D01*
X-220805Y62849D01*
X-220733Y62950D01*
X-220659Y63050D01*
X-220581Y63146D01*
X-220501Y63241D01*
X-220417Y63333D01*
X-220331Y63422D01*
X-220242Y63508D01*
X-220150Y63592D01*
X-220055Y63672D01*
X-219959Y63750D01*
X-219859Y63824D01*
X-219758Y63896D01*
X-219654Y63964D01*
X-219548Y64029D01*
X-219440Y64090D01*
X-219331Y64148D01*
X-219219Y64203D01*
X-219106Y64254D01*
X-218992Y64302D01*
X-218875Y64345D01*
X-218758Y64386D01*
X-218639Y64422D01*
X-218520Y64455D01*
X-218399Y64484D01*
X-218277Y64509D01*
X-218155Y64530D01*
X-218032Y64548D01*
X-217909Y64561D01*
X-217785Y64571D01*
X-217661Y64577D01*
X-217537Y64579D01*
X-217537Y64580D02*
X-213586Y64580D01*
X-216549Y83665D02*
X-221488Y83665D01*
X-216549Y83665D02*
X-216409Y83663D01*
X-216270Y83657D01*
X-216130Y83647D01*
X-215991Y83633D01*
X-215852Y83616D01*
X-215714Y83594D01*
X-215577Y83568D01*
X-215440Y83539D01*
X-215304Y83506D01*
X-215170Y83469D01*
X-215036Y83428D01*
X-214904Y83383D01*
X-214772Y83334D01*
X-214643Y83282D01*
X-214515Y83227D01*
X-214388Y83167D01*
X-214263Y83104D01*
X-214140Y83038D01*
X-214019Y82968D01*
X-213900Y82895D01*
X-213783Y82818D01*
X-213669Y82738D01*
X-213556Y82655D01*
X-213446Y82569D01*
X-213339Y82479D01*
X-213234Y82387D01*
X-213132Y82292D01*
X-213032Y82194D01*
X-212935Y82093D01*
X-212841Y81989D01*
X-212751Y81883D01*
X-212663Y81774D01*
X-212578Y81663D01*
X-212497Y81549D01*
X-212418Y81434D01*
X-212343Y81316D01*
X-212272Y81196D01*
X-212204Y81073D01*
X-212139Y80950D01*
X-212078Y80824D01*
X-212020Y80696D01*
X-211966Y80568D01*
X-211916Y80437D01*
X-211869Y80305D01*
X-211826Y80172D01*
X-211787Y80038D01*
X-211752Y79903D01*
X-211721Y79767D01*
X-211693Y79629D01*
X-211670Y79492D01*
X-211650Y79353D01*
X-211634Y79214D01*
X-211622Y79075D01*
X-211614Y78936D01*
X-211610Y78796D01*
X-211610Y78656D01*
X-211614Y78516D01*
X-211622Y78377D01*
X-211634Y78238D01*
X-211650Y78099D01*
X-211670Y77960D01*
X-211693Y77823D01*
X-211721Y77685D01*
X-211752Y77549D01*
X-211787Y77414D01*
X-211826Y77280D01*
X-211869Y77147D01*
X-211916Y77015D01*
X-211966Y76884D01*
X-212020Y76756D01*
X-212078Y76628D01*
X-212139Y76502D01*
X-212204Y76379D01*
X-212272Y76257D01*
X-212343Y76136D01*
X-212418Y76018D01*
X-212497Y75903D01*
X-212578Y75789D01*
X-212663Y75678D01*
X-212751Y75569D01*
X-212841Y75463D01*
X-212935Y75359D01*
X-213032Y75258D01*
X-213132Y75160D01*
X-213234Y75065D01*
X-213339Y74973D01*
X-213446Y74883D01*
X-213556Y74797D01*
X-213669Y74714D01*
X-213783Y74634D01*
X-213900Y74557D01*
X-214019Y74484D01*
X-214140Y74414D01*
X-214263Y74348D01*
X-214388Y74285D01*
X-214515Y74225D01*
X-214643Y74170D01*
X-214772Y74118D01*
X-214904Y74069D01*
X-215036Y74024D01*
X-215170Y73983D01*
X-215304Y73946D01*
X-215440Y73913D01*
X-215577Y73884D01*
X-215714Y73858D01*
X-215852Y73836D01*
X-215991Y73819D01*
X-216130Y73805D01*
X-216270Y73795D01*
X-216409Y73789D01*
X-216549Y73787D01*
X-221488Y73787D01*
X-221488Y91567D01*
X-216549Y91567D01*
X-216425Y91565D01*
X-216301Y91559D01*
X-216177Y91549D01*
X-216054Y91536D01*
X-215931Y91518D01*
X-215809Y91497D01*
X-215687Y91472D01*
X-215566Y91443D01*
X-215447Y91410D01*
X-215328Y91374D01*
X-215211Y91333D01*
X-215095Y91290D01*
X-214980Y91242D01*
X-214867Y91191D01*
X-214755Y91136D01*
X-214646Y91078D01*
X-214538Y91017D01*
X-214432Y90952D01*
X-214328Y90884D01*
X-214227Y90812D01*
X-214127Y90738D01*
X-214031Y90660D01*
X-213936Y90580D01*
X-213844Y90496D01*
X-213755Y90410D01*
X-213669Y90321D01*
X-213585Y90229D01*
X-213505Y90134D01*
X-213427Y90038D01*
X-213353Y89938D01*
X-213281Y89837D01*
X-213213Y89733D01*
X-213148Y89627D01*
X-213087Y89519D01*
X-213029Y89410D01*
X-212974Y89298D01*
X-212923Y89185D01*
X-212875Y89070D01*
X-212832Y88954D01*
X-212791Y88837D01*
X-212755Y88718D01*
X-212722Y88599D01*
X-212693Y88478D01*
X-212668Y88356D01*
X-212647Y88234D01*
X-212629Y88111D01*
X-212616Y87988D01*
X-212606Y87864D01*
X-212600Y87740D01*
X-212598Y87616D01*
X-212600Y87492D01*
X-212606Y87368D01*
X-212616Y87244D01*
X-212629Y87121D01*
X-212647Y86998D01*
X-212668Y86876D01*
X-212693Y86754D01*
X-212722Y86633D01*
X-212755Y86514D01*
X-212791Y86395D01*
X-212832Y86278D01*
X-212875Y86162D01*
X-212923Y86047D01*
X-212974Y85934D01*
X-213029Y85822D01*
X-213087Y85713D01*
X-213148Y85605D01*
X-213213Y85499D01*
X-213281Y85395D01*
X-213353Y85294D01*
X-213427Y85194D01*
X-213505Y85098D01*
X-213585Y85003D01*
X-213669Y84911D01*
X-213755Y84822D01*
X-213844Y84736D01*
X-213936Y84652D01*
X-214031Y84572D01*
X-214127Y84494D01*
X-214227Y84420D01*
X-214328Y84348D01*
X-214432Y84280D01*
X-214538Y84215D01*
X-214646Y84154D01*
X-214755Y84096D01*
X-214867Y84041D01*
X-214980Y83990D01*
X-215095Y83942D01*
X-215211Y83899D01*
X-215328Y83858D01*
X-215447Y83822D01*
X-215566Y83789D01*
X-215687Y83760D01*
X-215809Y83735D01*
X-215931Y83714D01*
X-216054Y83696D01*
X-216177Y83683D01*
X-216301Y83673D01*
X-216425Y83667D01*
X-216549Y83665D01*
X-220694Y39180D02*
X-220694Y21400D01*
X-220694Y39180D02*
X-215755Y39180D01*
X-215616Y39178D01*
X-215478Y39172D01*
X-215340Y39163D01*
X-215202Y39149D01*
X-215065Y39132D01*
X-214928Y39110D01*
X-214791Y39085D01*
X-214656Y39056D01*
X-214521Y39023D01*
X-214388Y38987D01*
X-214255Y38947D01*
X-214124Y38903D01*
X-213994Y38855D01*
X-213865Y38804D01*
X-213738Y38749D01*
X-213612Y38691D01*
X-213488Y38629D01*
X-213366Y38564D01*
X-213246Y38495D01*
X-213127Y38423D01*
X-213011Y38348D01*
X-212897Y38269D01*
X-212785Y38187D01*
X-212676Y38102D01*
X-212568Y38015D01*
X-212464Y37924D01*
X-212362Y37830D01*
X-212263Y37733D01*
X-212166Y37634D01*
X-212072Y37532D01*
X-211981Y37428D01*
X-211894Y37320D01*
X-211809Y37211D01*
X-211727Y37099D01*
X-211648Y36985D01*
X-211573Y36869D01*
X-211501Y36750D01*
X-211432Y36630D01*
X-211367Y36508D01*
X-211305Y36384D01*
X-211247Y36258D01*
X-211192Y36131D01*
X-211141Y36002D01*
X-211093Y35872D01*
X-211049Y35741D01*
X-211009Y35608D01*
X-210973Y35475D01*
X-210940Y35340D01*
X-210911Y35205D01*
X-210886Y35068D01*
X-210864Y34931D01*
X-210847Y34794D01*
X-210833Y34656D01*
X-210824Y34518D01*
X-210818Y34380D01*
X-210816Y34241D01*
X-210817Y34241D02*
X-210817Y26338D01*
X-210816Y26338D02*
X-210818Y26199D01*
X-210824Y26061D01*
X-210833Y25923D01*
X-210847Y25785D01*
X-210864Y25648D01*
X-210886Y25511D01*
X-210911Y25374D01*
X-210940Y25239D01*
X-210973Y25104D01*
X-211009Y24971D01*
X-211049Y24838D01*
X-211093Y24707D01*
X-211141Y24577D01*
X-211192Y24448D01*
X-211247Y24321D01*
X-211305Y24195D01*
X-211367Y24071D01*
X-211432Y23949D01*
X-211501Y23829D01*
X-211573Y23710D01*
X-211648Y23594D01*
X-211727Y23480D01*
X-211809Y23368D01*
X-211894Y23259D01*
X-211981Y23151D01*
X-212072Y23047D01*
X-212166Y22945D01*
X-212263Y22846D01*
X-212362Y22749D01*
X-212464Y22655D01*
X-212568Y22564D01*
X-212676Y22477D01*
X-212785Y22392D01*
X-212897Y22310D01*
X-213011Y22231D01*
X-213127Y22156D01*
X-213246Y22084D01*
X-213366Y22015D01*
X-213488Y21950D01*
X-213612Y21888D01*
X-213738Y21830D01*
X-213865Y21775D01*
X-213994Y21724D01*
X-214124Y21676D01*
X-214255Y21632D01*
X-214388Y21592D01*
X-214521Y21556D01*
X-214656Y21523D01*
X-214791Y21494D01*
X-214928Y21469D01*
X-215065Y21447D01*
X-215202Y21430D01*
X-215340Y21416D01*
X-215478Y21407D01*
X-215616Y21401D01*
X-215755Y21399D01*
X-215755Y21400D02*
X-220694Y21400D01*
D118*
X-163798Y228314D02*
X-160553Y228314D01*
X-160440Y228316D01*
X-160327Y228322D01*
X-160214Y228332D01*
X-160101Y228346D01*
X-159989Y228363D01*
X-159878Y228385D01*
X-159768Y228410D01*
X-159658Y228440D01*
X-159550Y228473D01*
X-159443Y228510D01*
X-159337Y228550D01*
X-159233Y228595D01*
X-159130Y228643D01*
X-159029Y228694D01*
X-158930Y228749D01*
X-158833Y228807D01*
X-158738Y228869D01*
X-158645Y228934D01*
X-158555Y229002D01*
X-158467Y229073D01*
X-158381Y229148D01*
X-158298Y229225D01*
X-158218Y229305D01*
X-158141Y229388D01*
X-158066Y229474D01*
X-157995Y229562D01*
X-157927Y229652D01*
X-157862Y229745D01*
X-157800Y229840D01*
X-157742Y229937D01*
X-157687Y230036D01*
X-157636Y230137D01*
X-157588Y230240D01*
X-157543Y230344D01*
X-157503Y230450D01*
X-157466Y230557D01*
X-157433Y230665D01*
X-157403Y230775D01*
X-157378Y230885D01*
X-157356Y230996D01*
X-157339Y231108D01*
X-157325Y231221D01*
X-157315Y231334D01*
X-157309Y231447D01*
X-157307Y231560D01*
X-157309Y231673D01*
X-157315Y231786D01*
X-157325Y231899D01*
X-157339Y232012D01*
X-157356Y232124D01*
X-157378Y232235D01*
X-157403Y232345D01*
X-157433Y232455D01*
X-157466Y232563D01*
X-157503Y232670D01*
X-157543Y232776D01*
X-157588Y232880D01*
X-157636Y232983D01*
X-157687Y233084D01*
X-157742Y233183D01*
X-157800Y233280D01*
X-157862Y233375D01*
X-157927Y233468D01*
X-157995Y233558D01*
X-158066Y233646D01*
X-158141Y233732D01*
X-158218Y233815D01*
X-158298Y233895D01*
X-158381Y233972D01*
X-158467Y234047D01*
X-158555Y234118D01*
X-158645Y234186D01*
X-158738Y234251D01*
X-158833Y234313D01*
X-158930Y234371D01*
X-159029Y234426D01*
X-159130Y234477D01*
X-159233Y234525D01*
X-159337Y234570D01*
X-159443Y234610D01*
X-159550Y234647D01*
X-159658Y234680D01*
X-159768Y234710D01*
X-159878Y234735D01*
X-159989Y234757D01*
X-160101Y234774D01*
X-160214Y234788D01*
X-160327Y234798D01*
X-160440Y234804D01*
X-160553Y234806D01*
X-159904Y239998D02*
X-163798Y239998D01*
X-159904Y239998D02*
X-159803Y239996D01*
X-159703Y239990D01*
X-159603Y239980D01*
X-159503Y239967D01*
X-159404Y239949D01*
X-159305Y239928D01*
X-159208Y239903D01*
X-159111Y239874D01*
X-159016Y239841D01*
X-158922Y239805D01*
X-158830Y239765D01*
X-158739Y239722D01*
X-158650Y239675D01*
X-158563Y239625D01*
X-158477Y239571D01*
X-158394Y239514D01*
X-158314Y239454D01*
X-158235Y239391D01*
X-158159Y239324D01*
X-158086Y239255D01*
X-158016Y239183D01*
X-157948Y239109D01*
X-157883Y239032D01*
X-157822Y238952D01*
X-157763Y238870D01*
X-157708Y238786D01*
X-157656Y238700D01*
X-157607Y238612D01*
X-157562Y238522D01*
X-157520Y238430D01*
X-157482Y238337D01*
X-157448Y238242D01*
X-157417Y238147D01*
X-157390Y238050D01*
X-157367Y237952D01*
X-157347Y237853D01*
X-157332Y237753D01*
X-157320Y237653D01*
X-157312Y237553D01*
X-157308Y237452D01*
X-157308Y237352D01*
X-157312Y237251D01*
X-157320Y237151D01*
X-157332Y237051D01*
X-157347Y236951D01*
X-157367Y236852D01*
X-157390Y236754D01*
X-157417Y236657D01*
X-157448Y236562D01*
X-157482Y236467D01*
X-157520Y236374D01*
X-157562Y236282D01*
X-157607Y236192D01*
X-157656Y236104D01*
X-157708Y236018D01*
X-157763Y235934D01*
X-157822Y235852D01*
X-157883Y235772D01*
X-157948Y235695D01*
X-158016Y235621D01*
X-158086Y235549D01*
X-158159Y235480D01*
X-158235Y235413D01*
X-158314Y235350D01*
X-158394Y235290D01*
X-158477Y235233D01*
X-158563Y235179D01*
X-158650Y235129D01*
X-158739Y235082D01*
X-158830Y235039D01*
X-158922Y234999D01*
X-159016Y234963D01*
X-159111Y234930D01*
X-159208Y234901D01*
X-159305Y234876D01*
X-159404Y234855D01*
X-159503Y234837D01*
X-159603Y234824D01*
X-159703Y234814D01*
X-159803Y234808D01*
X-159904Y234806D01*
X-159904Y234805D02*
X-162500Y234805D01*
X-153017Y239998D02*
X-149123Y228314D01*
X-145228Y239998D01*
X-140938Y228314D02*
X-137693Y228314D01*
X-137580Y228316D01*
X-137467Y228322D01*
X-137354Y228332D01*
X-137241Y228346D01*
X-137129Y228363D01*
X-137018Y228385D01*
X-136908Y228410D01*
X-136798Y228440D01*
X-136690Y228473D01*
X-136583Y228510D01*
X-136477Y228550D01*
X-136373Y228595D01*
X-136270Y228643D01*
X-136169Y228694D01*
X-136070Y228749D01*
X-135973Y228807D01*
X-135878Y228869D01*
X-135785Y228934D01*
X-135695Y229002D01*
X-135607Y229073D01*
X-135521Y229148D01*
X-135438Y229225D01*
X-135358Y229305D01*
X-135281Y229388D01*
X-135206Y229474D01*
X-135135Y229562D01*
X-135067Y229652D01*
X-135002Y229745D01*
X-134940Y229840D01*
X-134882Y229937D01*
X-134827Y230036D01*
X-134776Y230137D01*
X-134728Y230240D01*
X-134683Y230344D01*
X-134643Y230450D01*
X-134606Y230557D01*
X-134573Y230665D01*
X-134543Y230775D01*
X-134518Y230885D01*
X-134496Y230996D01*
X-134479Y231108D01*
X-134465Y231221D01*
X-134455Y231334D01*
X-134449Y231447D01*
X-134447Y231560D01*
X-134449Y231673D01*
X-134455Y231786D01*
X-134465Y231899D01*
X-134479Y232012D01*
X-134496Y232124D01*
X-134518Y232235D01*
X-134543Y232345D01*
X-134573Y232455D01*
X-134606Y232563D01*
X-134643Y232670D01*
X-134683Y232776D01*
X-134728Y232880D01*
X-134776Y232983D01*
X-134827Y233084D01*
X-134882Y233183D01*
X-134940Y233280D01*
X-135002Y233375D01*
X-135067Y233468D01*
X-135135Y233558D01*
X-135206Y233646D01*
X-135281Y233732D01*
X-135358Y233815D01*
X-135438Y233895D01*
X-135521Y233972D01*
X-135607Y234047D01*
X-135695Y234118D01*
X-135785Y234186D01*
X-135878Y234251D01*
X-135973Y234313D01*
X-136070Y234371D01*
X-136169Y234426D01*
X-136270Y234477D01*
X-136373Y234525D01*
X-136477Y234570D01*
X-136583Y234610D01*
X-136690Y234647D01*
X-136798Y234680D01*
X-136908Y234710D01*
X-137018Y234735D01*
X-137129Y234757D01*
X-137241Y234774D01*
X-137354Y234788D01*
X-137467Y234798D01*
X-137580Y234804D01*
X-137693Y234806D01*
X-137044Y239998D02*
X-140938Y239998D01*
X-137044Y239998D02*
X-136943Y239996D01*
X-136843Y239990D01*
X-136743Y239980D01*
X-136643Y239967D01*
X-136544Y239949D01*
X-136445Y239928D01*
X-136348Y239903D01*
X-136251Y239874D01*
X-136156Y239841D01*
X-136062Y239805D01*
X-135970Y239765D01*
X-135879Y239722D01*
X-135790Y239675D01*
X-135703Y239625D01*
X-135617Y239571D01*
X-135534Y239514D01*
X-135454Y239454D01*
X-135375Y239391D01*
X-135299Y239324D01*
X-135226Y239255D01*
X-135156Y239183D01*
X-135088Y239109D01*
X-135023Y239032D01*
X-134962Y238952D01*
X-134903Y238870D01*
X-134848Y238786D01*
X-134796Y238700D01*
X-134747Y238612D01*
X-134702Y238522D01*
X-134660Y238430D01*
X-134622Y238337D01*
X-134588Y238242D01*
X-134557Y238147D01*
X-134530Y238050D01*
X-134507Y237952D01*
X-134487Y237853D01*
X-134472Y237753D01*
X-134460Y237653D01*
X-134452Y237553D01*
X-134448Y237452D01*
X-134448Y237352D01*
X-134452Y237251D01*
X-134460Y237151D01*
X-134472Y237051D01*
X-134487Y236951D01*
X-134507Y236852D01*
X-134530Y236754D01*
X-134557Y236657D01*
X-134588Y236562D01*
X-134622Y236467D01*
X-134660Y236374D01*
X-134702Y236282D01*
X-134747Y236192D01*
X-134796Y236104D01*
X-134848Y236018D01*
X-134903Y235934D01*
X-134962Y235852D01*
X-135023Y235772D01*
X-135088Y235695D01*
X-135156Y235621D01*
X-135226Y235549D01*
X-135299Y235480D01*
X-135375Y235413D01*
X-135454Y235350D01*
X-135534Y235290D01*
X-135617Y235233D01*
X-135703Y235179D01*
X-135790Y235129D01*
X-135879Y235082D01*
X-135970Y235039D01*
X-136062Y234999D01*
X-136156Y234963D01*
X-136251Y234930D01*
X-136348Y234901D01*
X-136445Y234876D01*
X-136544Y234855D01*
X-136643Y234837D01*
X-136743Y234824D01*
X-136843Y234814D01*
X-136943Y234808D01*
X-137044Y234806D01*
X-137044Y234805D02*
X-139640Y234805D01*
X-16161Y141796D02*
X-12915Y141796D01*
X-12915Y141795D02*
X-12802Y141797D01*
X-12689Y141803D01*
X-12576Y141813D01*
X-12463Y141827D01*
X-12351Y141844D01*
X-12240Y141866D01*
X-12130Y141891D01*
X-12020Y141921D01*
X-11912Y141954D01*
X-11805Y141991D01*
X-11699Y142031D01*
X-11595Y142076D01*
X-11492Y142124D01*
X-11391Y142175D01*
X-11292Y142230D01*
X-11195Y142288D01*
X-11100Y142350D01*
X-11007Y142415D01*
X-10917Y142483D01*
X-10829Y142554D01*
X-10743Y142629D01*
X-10660Y142706D01*
X-10580Y142786D01*
X-10503Y142869D01*
X-10428Y142955D01*
X-10357Y143043D01*
X-10289Y143133D01*
X-10224Y143226D01*
X-10162Y143321D01*
X-10104Y143418D01*
X-10049Y143517D01*
X-9998Y143618D01*
X-9950Y143721D01*
X-9905Y143825D01*
X-9865Y143931D01*
X-9828Y144038D01*
X-9795Y144146D01*
X-9765Y144256D01*
X-9740Y144366D01*
X-9718Y144477D01*
X-9701Y144589D01*
X-9687Y144702D01*
X-9677Y144815D01*
X-9671Y144928D01*
X-9669Y145041D01*
X-9671Y145154D01*
X-9677Y145267D01*
X-9687Y145380D01*
X-9701Y145493D01*
X-9718Y145605D01*
X-9740Y145716D01*
X-9765Y145826D01*
X-9795Y145936D01*
X-9828Y146044D01*
X-9865Y146151D01*
X-9905Y146257D01*
X-9950Y146361D01*
X-9998Y146464D01*
X-10049Y146565D01*
X-10104Y146664D01*
X-10162Y146761D01*
X-10224Y146856D01*
X-10289Y146949D01*
X-10357Y147039D01*
X-10428Y147127D01*
X-10503Y147213D01*
X-10580Y147296D01*
X-10660Y147376D01*
X-10743Y147453D01*
X-10829Y147528D01*
X-10917Y147599D01*
X-11007Y147667D01*
X-11100Y147732D01*
X-11195Y147794D01*
X-11292Y147852D01*
X-11391Y147907D01*
X-11492Y147958D01*
X-11595Y148006D01*
X-11699Y148051D01*
X-11805Y148091D01*
X-11912Y148128D01*
X-12020Y148161D01*
X-12130Y148191D01*
X-12240Y148216D01*
X-12351Y148238D01*
X-12463Y148255D01*
X-12576Y148269D01*
X-12689Y148279D01*
X-12802Y148285D01*
X-12915Y148287D01*
X-12266Y153480D02*
X-16161Y153480D01*
X-12266Y153479D02*
X-12165Y153477D01*
X-12065Y153471D01*
X-11965Y153461D01*
X-11865Y153448D01*
X-11766Y153430D01*
X-11667Y153409D01*
X-11570Y153384D01*
X-11473Y153355D01*
X-11378Y153322D01*
X-11284Y153286D01*
X-11192Y153246D01*
X-11101Y153203D01*
X-11012Y153156D01*
X-10925Y153106D01*
X-10839Y153052D01*
X-10756Y152995D01*
X-10676Y152935D01*
X-10597Y152872D01*
X-10521Y152805D01*
X-10448Y152736D01*
X-10378Y152664D01*
X-10310Y152590D01*
X-10245Y152513D01*
X-10184Y152433D01*
X-10125Y152351D01*
X-10070Y152267D01*
X-10018Y152181D01*
X-9969Y152093D01*
X-9924Y152003D01*
X-9882Y151911D01*
X-9844Y151818D01*
X-9810Y151723D01*
X-9779Y151628D01*
X-9752Y151531D01*
X-9729Y151433D01*
X-9709Y151334D01*
X-9694Y151234D01*
X-9682Y151134D01*
X-9674Y151034D01*
X-9670Y150933D01*
X-9670Y150833D01*
X-9674Y150732D01*
X-9682Y150632D01*
X-9694Y150532D01*
X-9709Y150432D01*
X-9729Y150333D01*
X-9752Y150235D01*
X-9779Y150138D01*
X-9810Y150043D01*
X-9844Y149948D01*
X-9882Y149855D01*
X-9924Y149763D01*
X-9969Y149673D01*
X-10018Y149585D01*
X-10070Y149499D01*
X-10125Y149415D01*
X-10184Y149333D01*
X-10245Y149253D01*
X-10310Y149176D01*
X-10378Y149102D01*
X-10448Y149030D01*
X-10521Y148961D01*
X-10597Y148894D01*
X-10676Y148831D01*
X-10756Y148771D01*
X-10839Y148714D01*
X-10925Y148660D01*
X-11012Y148610D01*
X-11101Y148563D01*
X-11192Y148520D01*
X-11284Y148480D01*
X-11378Y148444D01*
X-11473Y148411D01*
X-11570Y148382D01*
X-11667Y148357D01*
X-11766Y148336D01*
X-11865Y148318D01*
X-11965Y148305D01*
X-12065Y148295D01*
X-12165Y148289D01*
X-12266Y148287D01*
X-14863Y148287D01*
X-5380Y153480D02*
X-1485Y141796D01*
X2409Y153480D01*
X6699Y141796D02*
X9945Y141796D01*
X9945Y141795D02*
X10058Y141797D01*
X10171Y141803D01*
X10284Y141813D01*
X10397Y141827D01*
X10509Y141844D01*
X10620Y141866D01*
X10730Y141891D01*
X10840Y141921D01*
X10948Y141954D01*
X11055Y141991D01*
X11161Y142031D01*
X11265Y142076D01*
X11368Y142124D01*
X11469Y142175D01*
X11568Y142230D01*
X11665Y142288D01*
X11760Y142350D01*
X11853Y142415D01*
X11943Y142483D01*
X12031Y142554D01*
X12117Y142629D01*
X12200Y142706D01*
X12280Y142786D01*
X12357Y142869D01*
X12432Y142955D01*
X12503Y143043D01*
X12571Y143133D01*
X12636Y143226D01*
X12698Y143321D01*
X12756Y143418D01*
X12811Y143517D01*
X12862Y143618D01*
X12910Y143721D01*
X12955Y143825D01*
X12995Y143931D01*
X13032Y144038D01*
X13065Y144146D01*
X13095Y144256D01*
X13120Y144366D01*
X13142Y144477D01*
X13159Y144589D01*
X13173Y144702D01*
X13183Y144815D01*
X13189Y144928D01*
X13191Y145041D01*
X13189Y145154D01*
X13183Y145267D01*
X13173Y145380D01*
X13159Y145493D01*
X13142Y145605D01*
X13120Y145716D01*
X13095Y145826D01*
X13065Y145936D01*
X13032Y146044D01*
X12995Y146151D01*
X12955Y146257D01*
X12910Y146361D01*
X12862Y146464D01*
X12811Y146565D01*
X12756Y146664D01*
X12698Y146761D01*
X12636Y146856D01*
X12571Y146949D01*
X12503Y147039D01*
X12432Y147127D01*
X12357Y147213D01*
X12280Y147296D01*
X12200Y147376D01*
X12117Y147453D01*
X12031Y147528D01*
X11943Y147599D01*
X11853Y147667D01*
X11760Y147732D01*
X11665Y147794D01*
X11568Y147852D01*
X11469Y147907D01*
X11368Y147958D01*
X11265Y148006D01*
X11161Y148051D01*
X11055Y148091D01*
X10948Y148128D01*
X10840Y148161D01*
X10730Y148191D01*
X10620Y148216D01*
X10509Y148238D01*
X10397Y148255D01*
X10284Y148269D01*
X10171Y148279D01*
X10058Y148285D01*
X9945Y148287D01*
X10594Y153480D02*
X6699Y153480D01*
X10594Y153479D02*
X10695Y153477D01*
X10795Y153471D01*
X10895Y153461D01*
X10995Y153448D01*
X11094Y153430D01*
X11193Y153409D01*
X11290Y153384D01*
X11387Y153355D01*
X11482Y153322D01*
X11576Y153286D01*
X11668Y153246D01*
X11759Y153203D01*
X11848Y153156D01*
X11935Y153106D01*
X12021Y153052D01*
X12104Y152995D01*
X12184Y152935D01*
X12263Y152872D01*
X12339Y152805D01*
X12412Y152736D01*
X12482Y152664D01*
X12550Y152590D01*
X12615Y152513D01*
X12676Y152433D01*
X12735Y152351D01*
X12790Y152267D01*
X12842Y152181D01*
X12891Y152093D01*
X12936Y152003D01*
X12978Y151911D01*
X13016Y151818D01*
X13050Y151723D01*
X13081Y151628D01*
X13108Y151531D01*
X13131Y151433D01*
X13151Y151334D01*
X13166Y151234D01*
X13178Y151134D01*
X13186Y151034D01*
X13190Y150933D01*
X13190Y150833D01*
X13186Y150732D01*
X13178Y150632D01*
X13166Y150532D01*
X13151Y150432D01*
X13131Y150333D01*
X13108Y150235D01*
X13081Y150138D01*
X13050Y150043D01*
X13016Y149948D01*
X12978Y149855D01*
X12936Y149763D01*
X12891Y149673D01*
X12842Y149585D01*
X12790Y149499D01*
X12735Y149415D01*
X12676Y149333D01*
X12615Y149253D01*
X12550Y149176D01*
X12482Y149102D01*
X12412Y149030D01*
X12339Y148961D01*
X12263Y148894D01*
X12184Y148831D01*
X12104Y148771D01*
X12021Y148714D01*
X11935Y148660D01*
X11848Y148610D01*
X11759Y148563D01*
X11668Y148520D01*
X11576Y148480D01*
X11482Y148444D01*
X11387Y148411D01*
X11290Y148382D01*
X11193Y148357D01*
X11094Y148336D01*
X10995Y148318D01*
X10895Y148305D01*
X10795Y148295D01*
X10695Y148289D01*
X10594Y148287D01*
X7997Y148287D01*
X135446Y227521D02*
X138691Y227521D01*
X138691Y227520D02*
X138804Y227522D01*
X138917Y227528D01*
X139030Y227538D01*
X139143Y227552D01*
X139255Y227569D01*
X139366Y227591D01*
X139476Y227616D01*
X139586Y227646D01*
X139694Y227679D01*
X139801Y227716D01*
X139907Y227756D01*
X140011Y227801D01*
X140114Y227849D01*
X140215Y227900D01*
X140314Y227955D01*
X140411Y228013D01*
X140506Y228075D01*
X140599Y228140D01*
X140689Y228208D01*
X140777Y228279D01*
X140863Y228354D01*
X140946Y228431D01*
X141026Y228511D01*
X141103Y228594D01*
X141178Y228680D01*
X141249Y228768D01*
X141317Y228858D01*
X141382Y228951D01*
X141444Y229046D01*
X141502Y229143D01*
X141557Y229242D01*
X141608Y229343D01*
X141656Y229446D01*
X141701Y229550D01*
X141741Y229656D01*
X141778Y229763D01*
X141811Y229871D01*
X141841Y229981D01*
X141866Y230091D01*
X141888Y230202D01*
X141905Y230314D01*
X141919Y230427D01*
X141929Y230540D01*
X141935Y230653D01*
X141937Y230766D01*
X141935Y230879D01*
X141929Y230992D01*
X141919Y231105D01*
X141905Y231218D01*
X141888Y231330D01*
X141866Y231441D01*
X141841Y231551D01*
X141811Y231661D01*
X141778Y231769D01*
X141741Y231876D01*
X141701Y231982D01*
X141656Y232086D01*
X141608Y232189D01*
X141557Y232290D01*
X141502Y232389D01*
X141444Y232486D01*
X141382Y232581D01*
X141317Y232674D01*
X141249Y232764D01*
X141178Y232852D01*
X141103Y232938D01*
X141026Y233021D01*
X140946Y233101D01*
X140863Y233178D01*
X140777Y233253D01*
X140689Y233324D01*
X140599Y233392D01*
X140506Y233457D01*
X140411Y233519D01*
X140314Y233577D01*
X140215Y233632D01*
X140114Y233683D01*
X140011Y233731D01*
X139907Y233776D01*
X139801Y233816D01*
X139694Y233853D01*
X139586Y233886D01*
X139476Y233916D01*
X139366Y233941D01*
X139255Y233963D01*
X139143Y233980D01*
X139030Y233994D01*
X138917Y234004D01*
X138804Y234010D01*
X138691Y234012D01*
X139340Y239205D02*
X135446Y239205D01*
X139340Y239204D02*
X139441Y239202D01*
X139541Y239196D01*
X139641Y239186D01*
X139741Y239173D01*
X139840Y239155D01*
X139939Y239134D01*
X140036Y239109D01*
X140133Y239080D01*
X140228Y239047D01*
X140322Y239011D01*
X140414Y238971D01*
X140505Y238928D01*
X140594Y238881D01*
X140681Y238831D01*
X140767Y238777D01*
X140850Y238720D01*
X140930Y238660D01*
X141009Y238597D01*
X141085Y238530D01*
X141158Y238461D01*
X141228Y238389D01*
X141296Y238315D01*
X141361Y238238D01*
X141422Y238158D01*
X141481Y238076D01*
X141536Y237992D01*
X141588Y237906D01*
X141637Y237818D01*
X141682Y237728D01*
X141724Y237636D01*
X141762Y237543D01*
X141796Y237448D01*
X141827Y237353D01*
X141854Y237256D01*
X141877Y237158D01*
X141897Y237059D01*
X141912Y236959D01*
X141924Y236859D01*
X141932Y236759D01*
X141936Y236658D01*
X141936Y236558D01*
X141932Y236457D01*
X141924Y236357D01*
X141912Y236257D01*
X141897Y236157D01*
X141877Y236058D01*
X141854Y235960D01*
X141827Y235863D01*
X141796Y235768D01*
X141762Y235673D01*
X141724Y235580D01*
X141682Y235488D01*
X141637Y235398D01*
X141588Y235310D01*
X141536Y235224D01*
X141481Y235140D01*
X141422Y235058D01*
X141361Y234978D01*
X141296Y234901D01*
X141228Y234827D01*
X141158Y234755D01*
X141085Y234686D01*
X141009Y234619D01*
X140930Y234556D01*
X140850Y234496D01*
X140767Y234439D01*
X140681Y234385D01*
X140594Y234335D01*
X140505Y234288D01*
X140414Y234245D01*
X140322Y234205D01*
X140228Y234169D01*
X140133Y234136D01*
X140036Y234107D01*
X139939Y234082D01*
X139840Y234061D01*
X139741Y234043D01*
X139641Y234030D01*
X139541Y234020D01*
X139441Y234014D01*
X139340Y234012D01*
X136744Y234012D01*
X146226Y239205D02*
X150121Y227521D01*
X154016Y239205D01*
X158305Y227521D02*
X161551Y227521D01*
X161551Y227520D02*
X161664Y227522D01*
X161777Y227528D01*
X161890Y227538D01*
X162003Y227552D01*
X162115Y227569D01*
X162226Y227591D01*
X162336Y227616D01*
X162446Y227646D01*
X162554Y227679D01*
X162661Y227716D01*
X162767Y227756D01*
X162871Y227801D01*
X162974Y227849D01*
X163075Y227900D01*
X163174Y227955D01*
X163271Y228013D01*
X163366Y228075D01*
X163459Y228140D01*
X163549Y228208D01*
X163637Y228279D01*
X163723Y228354D01*
X163806Y228431D01*
X163886Y228511D01*
X163963Y228594D01*
X164038Y228680D01*
X164109Y228768D01*
X164177Y228858D01*
X164242Y228951D01*
X164304Y229046D01*
X164362Y229143D01*
X164417Y229242D01*
X164468Y229343D01*
X164516Y229446D01*
X164561Y229550D01*
X164601Y229656D01*
X164638Y229763D01*
X164671Y229871D01*
X164701Y229981D01*
X164726Y230091D01*
X164748Y230202D01*
X164765Y230314D01*
X164779Y230427D01*
X164789Y230540D01*
X164795Y230653D01*
X164797Y230766D01*
X164795Y230879D01*
X164789Y230992D01*
X164779Y231105D01*
X164765Y231218D01*
X164748Y231330D01*
X164726Y231441D01*
X164701Y231551D01*
X164671Y231661D01*
X164638Y231769D01*
X164601Y231876D01*
X164561Y231982D01*
X164516Y232086D01*
X164468Y232189D01*
X164417Y232290D01*
X164362Y232389D01*
X164304Y232486D01*
X164242Y232581D01*
X164177Y232674D01*
X164109Y232764D01*
X164038Y232852D01*
X163963Y232938D01*
X163886Y233021D01*
X163806Y233101D01*
X163723Y233178D01*
X163637Y233253D01*
X163549Y233324D01*
X163459Y233392D01*
X163366Y233457D01*
X163271Y233519D01*
X163174Y233577D01*
X163075Y233632D01*
X162974Y233683D01*
X162871Y233731D01*
X162767Y233776D01*
X162661Y233816D01*
X162554Y233853D01*
X162446Y233886D01*
X162336Y233916D01*
X162226Y233941D01*
X162115Y233963D01*
X162003Y233980D01*
X161890Y233994D01*
X161777Y234004D01*
X161664Y234010D01*
X161551Y234012D01*
X162200Y239205D02*
X158305Y239205D01*
X162200Y239204D02*
X162301Y239202D01*
X162401Y239196D01*
X162501Y239186D01*
X162601Y239173D01*
X162700Y239155D01*
X162799Y239134D01*
X162896Y239109D01*
X162993Y239080D01*
X163088Y239047D01*
X163182Y239011D01*
X163274Y238971D01*
X163365Y238928D01*
X163454Y238881D01*
X163541Y238831D01*
X163627Y238777D01*
X163710Y238720D01*
X163790Y238660D01*
X163869Y238597D01*
X163945Y238530D01*
X164018Y238461D01*
X164088Y238389D01*
X164156Y238315D01*
X164221Y238238D01*
X164282Y238158D01*
X164341Y238076D01*
X164396Y237992D01*
X164448Y237906D01*
X164497Y237818D01*
X164542Y237728D01*
X164584Y237636D01*
X164622Y237543D01*
X164656Y237448D01*
X164687Y237353D01*
X164714Y237256D01*
X164737Y237158D01*
X164757Y237059D01*
X164772Y236959D01*
X164784Y236859D01*
X164792Y236759D01*
X164796Y236658D01*
X164796Y236558D01*
X164792Y236457D01*
X164784Y236357D01*
X164772Y236257D01*
X164757Y236157D01*
X164737Y236058D01*
X164714Y235960D01*
X164687Y235863D01*
X164656Y235768D01*
X164622Y235673D01*
X164584Y235580D01*
X164542Y235488D01*
X164497Y235398D01*
X164448Y235310D01*
X164396Y235224D01*
X164341Y235140D01*
X164282Y235058D01*
X164221Y234978D01*
X164156Y234901D01*
X164088Y234827D01*
X164018Y234755D01*
X163945Y234686D01*
X163869Y234619D01*
X163790Y234556D01*
X163710Y234496D01*
X163627Y234439D01*
X163541Y234385D01*
X163454Y234335D01*
X163365Y234288D01*
X163274Y234245D01*
X163182Y234205D01*
X163088Y234169D01*
X162993Y234136D01*
X162896Y234107D01*
X162799Y234082D01*
X162700Y234061D01*
X162601Y234043D01*
X162501Y234030D01*
X162401Y234020D01*
X162301Y234014D01*
X162200Y234012D01*
X159604Y234012D01*
X263953Y163305D02*
X266248Y161010D01*
X266329Y160931D01*
X266413Y160855D01*
X266500Y160782D01*
X266589Y160713D01*
X266681Y160646D01*
X266775Y160583D01*
X266871Y160523D01*
X266969Y160466D01*
X267069Y160413D01*
X267171Y160363D01*
X267275Y160317D01*
X267380Y160275D01*
X267486Y160236D01*
X267594Y160201D01*
X267703Y160170D01*
X267813Y160142D01*
X267924Y160119D01*
X268035Y160099D01*
X268147Y160083D01*
X268260Y160071D01*
X268373Y160063D01*
X268486Y160059D01*
X268600Y160059D01*
X268713Y160063D01*
X268826Y160071D01*
X268939Y160083D01*
X269051Y160099D01*
X269162Y160119D01*
X269273Y160142D01*
X269383Y160170D01*
X269492Y160201D01*
X269600Y160236D01*
X269706Y160275D01*
X269811Y160317D01*
X269915Y160363D01*
X270017Y160413D01*
X270117Y160466D01*
X270215Y160523D01*
X270311Y160583D01*
X270405Y160646D01*
X270496Y160713D01*
X270586Y160782D01*
X270673Y160855D01*
X270757Y160931D01*
X270838Y161010D01*
X270917Y161091D01*
X270993Y161175D01*
X271066Y161262D01*
X271135Y161352D01*
X271202Y161443D01*
X271265Y161537D01*
X271325Y161633D01*
X271382Y161731D01*
X271435Y161831D01*
X271485Y161933D01*
X271531Y162037D01*
X271573Y162142D01*
X271612Y162248D01*
X271647Y162356D01*
X271678Y162465D01*
X271706Y162575D01*
X271729Y162686D01*
X271749Y162797D01*
X271765Y162909D01*
X271777Y163022D01*
X271785Y163135D01*
X271789Y163248D01*
X271789Y163362D01*
X271785Y163475D01*
X271777Y163588D01*
X271765Y163701D01*
X271749Y163813D01*
X271729Y163924D01*
X271706Y164035D01*
X271678Y164145D01*
X271647Y164254D01*
X271612Y164362D01*
X271573Y164468D01*
X271531Y164573D01*
X271485Y164677D01*
X271435Y164779D01*
X271382Y164879D01*
X271325Y164977D01*
X271265Y165073D01*
X271202Y165167D01*
X271135Y165259D01*
X271066Y165348D01*
X270993Y165435D01*
X270917Y165519D01*
X270838Y165600D01*
X274969Y168813D02*
X272215Y171567D01*
X274969Y168813D02*
X275038Y168740D01*
X275105Y168665D01*
X275169Y168587D01*
X275230Y168507D01*
X275288Y168424D01*
X275342Y168340D01*
X275394Y168253D01*
X275441Y168165D01*
X275486Y168074D01*
X275527Y167982D01*
X275564Y167888D01*
X275597Y167794D01*
X275627Y167697D01*
X275653Y167600D01*
X275675Y167502D01*
X275694Y167403D01*
X275708Y167303D01*
X275719Y167203D01*
X275726Y167103D01*
X275729Y167002D01*
X275728Y166901D01*
X275723Y166801D01*
X275714Y166701D01*
X275702Y166601D01*
X275685Y166501D01*
X275665Y166403D01*
X275641Y166305D01*
X275613Y166208D01*
X275581Y166113D01*
X275546Y166019D01*
X275507Y165926D01*
X275464Y165834D01*
X275418Y165745D01*
X275369Y165657D01*
X275316Y165572D01*
X275260Y165488D01*
X275200Y165407D01*
X275138Y165328D01*
X275072Y165251D01*
X275004Y165177D01*
X274933Y165106D01*
X274859Y165038D01*
X274782Y164972D01*
X274703Y164910D01*
X274622Y164850D01*
X274538Y164794D01*
X274453Y164741D01*
X274365Y164692D01*
X274276Y164646D01*
X274184Y164603D01*
X274091Y164564D01*
X273997Y164529D01*
X273902Y164497D01*
X273805Y164469D01*
X273707Y164445D01*
X273609Y164425D01*
X273509Y164408D01*
X273409Y164396D01*
X273309Y164387D01*
X273209Y164382D01*
X273108Y164381D01*
X273007Y164384D01*
X272907Y164391D01*
X272807Y164402D01*
X272707Y164416D01*
X272608Y164435D01*
X272510Y164457D01*
X272413Y164483D01*
X272316Y164513D01*
X272222Y164546D01*
X272128Y164583D01*
X272036Y164624D01*
X271945Y164669D01*
X271857Y164716D01*
X271770Y164768D01*
X271686Y164822D01*
X271603Y164880D01*
X271523Y164941D01*
X271445Y165005D01*
X271370Y165072D01*
X271297Y165141D01*
X269461Y166977D01*
X279838Y163944D02*
X274330Y152928D01*
X285346Y158436D01*
X280117Y147140D02*
X282412Y144846D01*
X282412Y144845D02*
X282493Y144766D01*
X282577Y144690D01*
X282664Y144617D01*
X282753Y144548D01*
X282845Y144481D01*
X282939Y144418D01*
X283035Y144358D01*
X283133Y144301D01*
X283233Y144248D01*
X283335Y144198D01*
X283439Y144152D01*
X283544Y144110D01*
X283650Y144071D01*
X283758Y144036D01*
X283867Y144005D01*
X283977Y143977D01*
X284088Y143954D01*
X284199Y143934D01*
X284311Y143918D01*
X284424Y143906D01*
X284537Y143898D01*
X284650Y143894D01*
X284764Y143894D01*
X284877Y143898D01*
X284990Y143906D01*
X285103Y143918D01*
X285215Y143934D01*
X285326Y143954D01*
X285437Y143977D01*
X285547Y144005D01*
X285656Y144036D01*
X285764Y144071D01*
X285870Y144110D01*
X285975Y144152D01*
X286079Y144198D01*
X286181Y144248D01*
X286281Y144301D01*
X286379Y144358D01*
X286475Y144418D01*
X286569Y144481D01*
X286660Y144548D01*
X286750Y144617D01*
X286837Y144690D01*
X286921Y144766D01*
X287002Y144845D01*
X287081Y144926D01*
X287157Y145010D01*
X287230Y145097D01*
X287299Y145187D01*
X287366Y145278D01*
X287429Y145372D01*
X287489Y145468D01*
X287546Y145566D01*
X287599Y145666D01*
X287649Y145768D01*
X287695Y145872D01*
X287737Y145977D01*
X287776Y146083D01*
X287811Y146191D01*
X287842Y146300D01*
X287870Y146410D01*
X287893Y146521D01*
X287913Y146632D01*
X287929Y146744D01*
X287941Y146857D01*
X287949Y146970D01*
X287953Y147083D01*
X287953Y147197D01*
X287949Y147310D01*
X287941Y147423D01*
X287929Y147536D01*
X287913Y147648D01*
X287893Y147759D01*
X287870Y147870D01*
X287842Y147980D01*
X287811Y148089D01*
X287776Y148197D01*
X287737Y148303D01*
X287695Y148408D01*
X287649Y148512D01*
X287599Y148614D01*
X287546Y148714D01*
X287489Y148812D01*
X287429Y148908D01*
X287366Y149002D01*
X287299Y149094D01*
X287230Y149183D01*
X287157Y149270D01*
X287081Y149354D01*
X287002Y149435D01*
X291133Y152648D02*
X288379Y155402D01*
X291133Y152648D02*
X291202Y152575D01*
X291269Y152500D01*
X291333Y152422D01*
X291394Y152342D01*
X291452Y152259D01*
X291506Y152175D01*
X291558Y152088D01*
X291605Y152000D01*
X291650Y151909D01*
X291691Y151817D01*
X291728Y151723D01*
X291761Y151629D01*
X291791Y151532D01*
X291817Y151435D01*
X291839Y151337D01*
X291858Y151238D01*
X291872Y151138D01*
X291883Y151038D01*
X291890Y150938D01*
X291893Y150837D01*
X291892Y150736D01*
X291887Y150636D01*
X291878Y150536D01*
X291866Y150436D01*
X291849Y150336D01*
X291829Y150238D01*
X291805Y150140D01*
X291777Y150043D01*
X291745Y149948D01*
X291710Y149854D01*
X291671Y149761D01*
X291628Y149669D01*
X291582Y149580D01*
X291533Y149492D01*
X291480Y149407D01*
X291424Y149323D01*
X291364Y149242D01*
X291302Y149163D01*
X291236Y149086D01*
X291168Y149012D01*
X291097Y148941D01*
X291023Y148873D01*
X290946Y148807D01*
X290867Y148745D01*
X290786Y148685D01*
X290702Y148629D01*
X290617Y148576D01*
X290529Y148527D01*
X290440Y148481D01*
X290348Y148438D01*
X290255Y148399D01*
X290161Y148364D01*
X290066Y148332D01*
X289969Y148304D01*
X289871Y148280D01*
X289773Y148260D01*
X289673Y148243D01*
X289573Y148231D01*
X289473Y148222D01*
X289373Y148217D01*
X289272Y148216D01*
X289171Y148219D01*
X289071Y148226D01*
X288971Y148237D01*
X288871Y148251D01*
X288772Y148270D01*
X288674Y148292D01*
X288577Y148318D01*
X288480Y148348D01*
X288386Y148381D01*
X288292Y148418D01*
X288200Y148459D01*
X288109Y148504D01*
X288021Y148551D01*
X287934Y148603D01*
X287850Y148657D01*
X287767Y148715D01*
X287687Y148776D01*
X287609Y148840D01*
X287534Y148907D01*
X287461Y148976D01*
X285625Y150812D01*
X272964Y6188D02*
X270669Y3893D01*
X272964Y6188D02*
X273043Y6269D01*
X273119Y6353D01*
X273192Y6440D01*
X273261Y6530D01*
X273328Y6621D01*
X273391Y6715D01*
X273451Y6811D01*
X273508Y6909D01*
X273561Y7009D01*
X273611Y7111D01*
X273657Y7215D01*
X273699Y7320D01*
X273738Y7426D01*
X273773Y7534D01*
X273804Y7643D01*
X273832Y7753D01*
X273855Y7864D01*
X273875Y7975D01*
X273891Y8087D01*
X273903Y8200D01*
X273911Y8313D01*
X273915Y8426D01*
X273915Y8540D01*
X273911Y8653D01*
X273903Y8766D01*
X273891Y8879D01*
X273875Y8991D01*
X273855Y9102D01*
X273832Y9213D01*
X273804Y9323D01*
X273773Y9432D01*
X273738Y9540D01*
X273699Y9646D01*
X273657Y9751D01*
X273611Y9855D01*
X273561Y9957D01*
X273508Y10057D01*
X273451Y10155D01*
X273391Y10251D01*
X273328Y10345D01*
X273261Y10436D01*
X273192Y10526D01*
X273119Y10613D01*
X273043Y10697D01*
X272964Y10778D01*
X272883Y10857D01*
X272799Y10933D01*
X272712Y11006D01*
X272623Y11075D01*
X272531Y11142D01*
X272437Y11205D01*
X272341Y11265D01*
X272243Y11322D01*
X272143Y11375D01*
X272041Y11425D01*
X271937Y11471D01*
X271832Y11513D01*
X271726Y11552D01*
X271618Y11587D01*
X271509Y11618D01*
X271399Y11646D01*
X271288Y11669D01*
X271177Y11689D01*
X271065Y11705D01*
X270952Y11717D01*
X270839Y11725D01*
X270726Y11729D01*
X270612Y11729D01*
X270499Y11725D01*
X270386Y11717D01*
X270273Y11705D01*
X270161Y11689D01*
X270050Y11669D01*
X269939Y11646D01*
X269829Y11618D01*
X269720Y11587D01*
X269612Y11552D01*
X269506Y11513D01*
X269401Y11471D01*
X269297Y11425D01*
X269195Y11375D01*
X269095Y11322D01*
X268997Y11265D01*
X268901Y11205D01*
X268807Y11142D01*
X268716Y11075D01*
X268626Y11006D01*
X268539Y10933D01*
X268455Y10857D01*
X268374Y10778D01*
X265161Y14909D02*
X262407Y12155D01*
X265161Y14909D02*
X265234Y14978D01*
X265309Y15045D01*
X265387Y15109D01*
X265467Y15170D01*
X265550Y15228D01*
X265634Y15282D01*
X265721Y15334D01*
X265809Y15381D01*
X265900Y15426D01*
X265992Y15467D01*
X266086Y15504D01*
X266180Y15537D01*
X266277Y15567D01*
X266374Y15593D01*
X266472Y15615D01*
X266571Y15634D01*
X266671Y15648D01*
X266771Y15659D01*
X266871Y15666D01*
X266972Y15669D01*
X267073Y15668D01*
X267173Y15663D01*
X267273Y15654D01*
X267373Y15642D01*
X267473Y15625D01*
X267571Y15605D01*
X267669Y15581D01*
X267766Y15553D01*
X267861Y15521D01*
X267955Y15486D01*
X268048Y15447D01*
X268140Y15404D01*
X268229Y15358D01*
X268317Y15309D01*
X268402Y15256D01*
X268486Y15200D01*
X268567Y15140D01*
X268646Y15078D01*
X268723Y15012D01*
X268797Y14944D01*
X268868Y14873D01*
X268936Y14799D01*
X269002Y14722D01*
X269064Y14643D01*
X269124Y14562D01*
X269180Y14478D01*
X269233Y14393D01*
X269282Y14305D01*
X269328Y14216D01*
X269371Y14124D01*
X269410Y14031D01*
X269445Y13937D01*
X269477Y13842D01*
X269505Y13745D01*
X269529Y13647D01*
X269549Y13549D01*
X269566Y13449D01*
X269578Y13349D01*
X269587Y13249D01*
X269592Y13149D01*
X269593Y13048D01*
X269590Y12947D01*
X269583Y12847D01*
X269572Y12747D01*
X269558Y12647D01*
X269539Y12548D01*
X269517Y12450D01*
X269491Y12353D01*
X269461Y12256D01*
X269428Y12162D01*
X269391Y12068D01*
X269350Y11976D01*
X269305Y11885D01*
X269258Y11797D01*
X269206Y11710D01*
X269152Y11626D01*
X269094Y11543D01*
X269033Y11463D01*
X268969Y11385D01*
X268902Y11310D01*
X268833Y11237D01*
X266997Y9401D01*
X270030Y19778D02*
X281046Y14271D01*
X275538Y25286D01*
X286833Y20058D02*
X289128Y22353D01*
X289207Y22434D01*
X289283Y22518D01*
X289356Y22605D01*
X289425Y22695D01*
X289492Y22786D01*
X289555Y22880D01*
X289615Y22976D01*
X289672Y23074D01*
X289725Y23174D01*
X289775Y23276D01*
X289821Y23380D01*
X289863Y23485D01*
X289902Y23591D01*
X289937Y23699D01*
X289968Y23808D01*
X289996Y23918D01*
X290019Y24029D01*
X290039Y24140D01*
X290055Y24252D01*
X290067Y24365D01*
X290075Y24478D01*
X290079Y24591D01*
X290079Y24705D01*
X290075Y24818D01*
X290067Y24931D01*
X290055Y25044D01*
X290039Y25156D01*
X290019Y25267D01*
X289996Y25378D01*
X289968Y25488D01*
X289937Y25597D01*
X289902Y25705D01*
X289863Y25811D01*
X289821Y25916D01*
X289775Y26020D01*
X289725Y26122D01*
X289672Y26222D01*
X289615Y26320D01*
X289555Y26416D01*
X289492Y26510D01*
X289425Y26601D01*
X289356Y26691D01*
X289283Y26778D01*
X289207Y26862D01*
X289128Y26943D01*
X289047Y27022D01*
X288963Y27098D01*
X288876Y27171D01*
X288787Y27240D01*
X288695Y27307D01*
X288601Y27370D01*
X288505Y27430D01*
X288407Y27487D01*
X288307Y27540D01*
X288205Y27590D01*
X288101Y27636D01*
X287996Y27678D01*
X287890Y27717D01*
X287782Y27752D01*
X287673Y27783D01*
X287563Y27811D01*
X287452Y27834D01*
X287341Y27854D01*
X287229Y27870D01*
X287116Y27882D01*
X287003Y27890D01*
X286890Y27894D01*
X286776Y27894D01*
X286663Y27890D01*
X286550Y27882D01*
X286437Y27870D01*
X286325Y27854D01*
X286214Y27834D01*
X286103Y27811D01*
X285993Y27783D01*
X285884Y27752D01*
X285776Y27717D01*
X285670Y27678D01*
X285565Y27636D01*
X285461Y27590D01*
X285359Y27540D01*
X285259Y27487D01*
X285161Y27430D01*
X285065Y27370D01*
X284971Y27307D01*
X284880Y27240D01*
X284790Y27171D01*
X284703Y27098D01*
X284619Y27022D01*
X284538Y26943D01*
X281325Y31073D02*
X278571Y28320D01*
X281325Y31074D02*
X281398Y31143D01*
X281473Y31210D01*
X281551Y31274D01*
X281631Y31335D01*
X281714Y31393D01*
X281798Y31447D01*
X281885Y31499D01*
X281973Y31546D01*
X282064Y31591D01*
X282156Y31632D01*
X282250Y31669D01*
X282344Y31702D01*
X282441Y31732D01*
X282538Y31758D01*
X282636Y31780D01*
X282735Y31799D01*
X282835Y31813D01*
X282935Y31824D01*
X283035Y31831D01*
X283136Y31834D01*
X283237Y31833D01*
X283337Y31828D01*
X283437Y31819D01*
X283537Y31807D01*
X283637Y31790D01*
X283735Y31770D01*
X283833Y31746D01*
X283930Y31718D01*
X284025Y31686D01*
X284119Y31651D01*
X284212Y31612D01*
X284304Y31569D01*
X284393Y31523D01*
X284481Y31474D01*
X284566Y31421D01*
X284650Y31365D01*
X284731Y31305D01*
X284810Y31243D01*
X284887Y31177D01*
X284961Y31109D01*
X285032Y31038D01*
X285100Y30964D01*
X285166Y30887D01*
X285228Y30808D01*
X285288Y30727D01*
X285344Y30643D01*
X285397Y30558D01*
X285446Y30470D01*
X285492Y30381D01*
X285535Y30289D01*
X285574Y30196D01*
X285609Y30102D01*
X285641Y30007D01*
X285669Y29910D01*
X285693Y29812D01*
X285713Y29714D01*
X285730Y29614D01*
X285742Y29514D01*
X285751Y29414D01*
X285756Y29314D01*
X285757Y29213D01*
X285754Y29112D01*
X285747Y29012D01*
X285736Y28912D01*
X285722Y28812D01*
X285703Y28713D01*
X285681Y28615D01*
X285655Y28518D01*
X285625Y28421D01*
X285592Y28327D01*
X285555Y28233D01*
X285514Y28141D01*
X285469Y28050D01*
X285422Y27962D01*
X285370Y27875D01*
X285316Y27791D01*
X285258Y27708D01*
X285197Y27628D01*
X285133Y27550D01*
X285066Y27475D01*
X284997Y27402D01*
X283161Y25566D01*
X137104Y-64580D02*
X133858Y-64580D01*
X137104Y-64580D02*
X137217Y-64578D01*
X137330Y-64572D01*
X137443Y-64562D01*
X137556Y-64548D01*
X137668Y-64531D01*
X137779Y-64509D01*
X137889Y-64484D01*
X137999Y-64454D01*
X138107Y-64421D01*
X138214Y-64384D01*
X138320Y-64344D01*
X138424Y-64299D01*
X138527Y-64251D01*
X138628Y-64200D01*
X138727Y-64145D01*
X138824Y-64087D01*
X138919Y-64025D01*
X139012Y-63960D01*
X139102Y-63892D01*
X139190Y-63821D01*
X139276Y-63746D01*
X139359Y-63669D01*
X139439Y-63589D01*
X139516Y-63506D01*
X139591Y-63420D01*
X139662Y-63332D01*
X139730Y-63242D01*
X139795Y-63149D01*
X139857Y-63054D01*
X139915Y-62957D01*
X139970Y-62858D01*
X140021Y-62757D01*
X140069Y-62654D01*
X140114Y-62550D01*
X140154Y-62444D01*
X140191Y-62337D01*
X140224Y-62229D01*
X140254Y-62119D01*
X140279Y-62009D01*
X140301Y-61898D01*
X140318Y-61786D01*
X140332Y-61673D01*
X140342Y-61560D01*
X140348Y-61447D01*
X140350Y-61334D01*
X140348Y-61221D01*
X140342Y-61108D01*
X140332Y-60995D01*
X140318Y-60882D01*
X140301Y-60770D01*
X140279Y-60659D01*
X140254Y-60549D01*
X140224Y-60439D01*
X140191Y-60331D01*
X140154Y-60224D01*
X140114Y-60118D01*
X140069Y-60014D01*
X140021Y-59911D01*
X139970Y-59810D01*
X139915Y-59711D01*
X139857Y-59614D01*
X139795Y-59519D01*
X139730Y-59426D01*
X139662Y-59336D01*
X139591Y-59248D01*
X139516Y-59162D01*
X139439Y-59079D01*
X139359Y-58999D01*
X139276Y-58922D01*
X139190Y-58847D01*
X139102Y-58776D01*
X139012Y-58708D01*
X138919Y-58643D01*
X138824Y-58581D01*
X138727Y-58523D01*
X138628Y-58468D01*
X138527Y-58417D01*
X138424Y-58369D01*
X138320Y-58324D01*
X138214Y-58284D01*
X138107Y-58247D01*
X137999Y-58214D01*
X137889Y-58184D01*
X137779Y-58159D01*
X137668Y-58137D01*
X137556Y-58120D01*
X137443Y-58106D01*
X137330Y-58096D01*
X137217Y-58090D01*
X137104Y-58088D01*
X137753Y-52896D02*
X133858Y-52896D01*
X137753Y-52896D02*
X137854Y-52898D01*
X137954Y-52904D01*
X138054Y-52914D01*
X138154Y-52927D01*
X138253Y-52945D01*
X138352Y-52966D01*
X138449Y-52991D01*
X138546Y-53020D01*
X138641Y-53053D01*
X138735Y-53089D01*
X138827Y-53129D01*
X138918Y-53172D01*
X139007Y-53219D01*
X139094Y-53269D01*
X139180Y-53323D01*
X139263Y-53380D01*
X139343Y-53440D01*
X139422Y-53503D01*
X139498Y-53570D01*
X139571Y-53639D01*
X139641Y-53711D01*
X139709Y-53785D01*
X139774Y-53862D01*
X139835Y-53942D01*
X139894Y-54024D01*
X139949Y-54108D01*
X140001Y-54194D01*
X140050Y-54282D01*
X140095Y-54372D01*
X140137Y-54464D01*
X140175Y-54557D01*
X140209Y-54652D01*
X140240Y-54747D01*
X140267Y-54844D01*
X140290Y-54942D01*
X140310Y-55041D01*
X140325Y-55141D01*
X140337Y-55241D01*
X140345Y-55341D01*
X140349Y-55442D01*
X140349Y-55542D01*
X140345Y-55643D01*
X140337Y-55743D01*
X140325Y-55843D01*
X140310Y-55943D01*
X140290Y-56042D01*
X140267Y-56140D01*
X140240Y-56237D01*
X140209Y-56332D01*
X140175Y-56427D01*
X140137Y-56520D01*
X140095Y-56612D01*
X140050Y-56702D01*
X140001Y-56790D01*
X139949Y-56876D01*
X139894Y-56960D01*
X139835Y-57042D01*
X139774Y-57122D01*
X139709Y-57199D01*
X139641Y-57273D01*
X139571Y-57345D01*
X139498Y-57414D01*
X139422Y-57481D01*
X139343Y-57544D01*
X139263Y-57604D01*
X139180Y-57661D01*
X139094Y-57715D01*
X139007Y-57765D01*
X138918Y-57812D01*
X138827Y-57855D01*
X138735Y-57895D01*
X138641Y-57931D01*
X138546Y-57964D01*
X138449Y-57993D01*
X138352Y-58018D01*
X138253Y-58039D01*
X138154Y-58057D01*
X138054Y-58070D01*
X137954Y-58080D01*
X137854Y-58086D01*
X137753Y-58088D01*
X135156Y-58088D01*
X144639Y-52896D02*
X148534Y-64580D01*
X152428Y-52896D01*
X156718Y-64580D02*
X159964Y-64580D01*
X160077Y-64578D01*
X160190Y-64572D01*
X160303Y-64562D01*
X160416Y-64548D01*
X160528Y-64531D01*
X160639Y-64509D01*
X160749Y-64484D01*
X160859Y-64454D01*
X160967Y-64421D01*
X161074Y-64384D01*
X161180Y-64344D01*
X161284Y-64299D01*
X161387Y-64251D01*
X161488Y-64200D01*
X161587Y-64145D01*
X161684Y-64087D01*
X161779Y-64025D01*
X161872Y-63960D01*
X161962Y-63892D01*
X162050Y-63821D01*
X162136Y-63746D01*
X162219Y-63669D01*
X162299Y-63589D01*
X162376Y-63506D01*
X162451Y-63420D01*
X162522Y-63332D01*
X162590Y-63242D01*
X162655Y-63149D01*
X162717Y-63054D01*
X162775Y-62957D01*
X162830Y-62858D01*
X162881Y-62757D01*
X162929Y-62654D01*
X162974Y-62550D01*
X163014Y-62444D01*
X163051Y-62337D01*
X163084Y-62229D01*
X163114Y-62119D01*
X163139Y-62009D01*
X163161Y-61898D01*
X163178Y-61786D01*
X163192Y-61673D01*
X163202Y-61560D01*
X163208Y-61447D01*
X163210Y-61334D01*
X163208Y-61221D01*
X163202Y-61108D01*
X163192Y-60995D01*
X163178Y-60882D01*
X163161Y-60770D01*
X163139Y-60659D01*
X163114Y-60549D01*
X163084Y-60439D01*
X163051Y-60331D01*
X163014Y-60224D01*
X162974Y-60118D01*
X162929Y-60014D01*
X162881Y-59911D01*
X162830Y-59810D01*
X162775Y-59711D01*
X162717Y-59614D01*
X162655Y-59519D01*
X162590Y-59426D01*
X162522Y-59336D01*
X162451Y-59248D01*
X162376Y-59162D01*
X162299Y-59079D01*
X162219Y-58999D01*
X162136Y-58922D01*
X162050Y-58847D01*
X161962Y-58776D01*
X161872Y-58708D01*
X161779Y-58643D01*
X161684Y-58581D01*
X161587Y-58523D01*
X161488Y-58468D01*
X161387Y-58417D01*
X161284Y-58369D01*
X161180Y-58324D01*
X161074Y-58284D01*
X160967Y-58247D01*
X160859Y-58214D01*
X160749Y-58184D01*
X160639Y-58159D01*
X160528Y-58137D01*
X160416Y-58120D01*
X160303Y-58106D01*
X160190Y-58096D01*
X160077Y-58090D01*
X159964Y-58088D01*
X160613Y-52896D02*
X156718Y-52896D01*
X160613Y-52896D02*
X160714Y-52898D01*
X160814Y-52904D01*
X160914Y-52914D01*
X161014Y-52927D01*
X161113Y-52945D01*
X161212Y-52966D01*
X161309Y-52991D01*
X161406Y-53020D01*
X161501Y-53053D01*
X161595Y-53089D01*
X161687Y-53129D01*
X161778Y-53172D01*
X161867Y-53219D01*
X161954Y-53269D01*
X162040Y-53323D01*
X162123Y-53380D01*
X162203Y-53440D01*
X162282Y-53503D01*
X162358Y-53570D01*
X162431Y-53639D01*
X162501Y-53711D01*
X162569Y-53785D01*
X162634Y-53862D01*
X162695Y-53942D01*
X162754Y-54024D01*
X162809Y-54108D01*
X162861Y-54194D01*
X162910Y-54282D01*
X162955Y-54372D01*
X162997Y-54464D01*
X163035Y-54557D01*
X163069Y-54652D01*
X163100Y-54747D01*
X163127Y-54844D01*
X163150Y-54942D01*
X163170Y-55041D01*
X163185Y-55141D01*
X163197Y-55241D01*
X163205Y-55341D01*
X163209Y-55442D01*
X163209Y-55542D01*
X163205Y-55643D01*
X163197Y-55743D01*
X163185Y-55843D01*
X163170Y-55943D01*
X163150Y-56042D01*
X163127Y-56140D01*
X163100Y-56237D01*
X163069Y-56332D01*
X163035Y-56427D01*
X162997Y-56520D01*
X162955Y-56612D01*
X162910Y-56702D01*
X162861Y-56790D01*
X162809Y-56876D01*
X162754Y-56960D01*
X162695Y-57042D01*
X162634Y-57122D01*
X162569Y-57199D01*
X162501Y-57273D01*
X162431Y-57345D01*
X162358Y-57414D01*
X162282Y-57481D01*
X162203Y-57544D01*
X162123Y-57604D01*
X162040Y-57661D01*
X161954Y-57715D01*
X161867Y-57765D01*
X161778Y-57812D01*
X161687Y-57855D01*
X161595Y-57895D01*
X161501Y-57931D01*
X161406Y-57964D01*
X161309Y-57993D01*
X161212Y-58018D01*
X161113Y-58039D01*
X161014Y-58057D01*
X160914Y-58070D01*
X160814Y-58080D01*
X160714Y-58086D01*
X160613Y-58088D01*
X158016Y-58088D01*
X-14503Y21939D02*
X-17748Y21939D01*
X-14503Y21939D02*
X-14390Y21941D01*
X-14277Y21947D01*
X-14164Y21957D01*
X-14051Y21971D01*
X-13939Y21988D01*
X-13828Y22010D01*
X-13718Y22035D01*
X-13608Y22065D01*
X-13500Y22098D01*
X-13393Y22135D01*
X-13287Y22175D01*
X-13183Y22220D01*
X-13080Y22268D01*
X-12979Y22319D01*
X-12880Y22374D01*
X-12783Y22432D01*
X-12688Y22494D01*
X-12595Y22559D01*
X-12505Y22627D01*
X-12417Y22698D01*
X-12331Y22773D01*
X-12248Y22850D01*
X-12168Y22930D01*
X-12091Y23013D01*
X-12016Y23099D01*
X-11945Y23187D01*
X-11877Y23277D01*
X-11812Y23370D01*
X-11750Y23465D01*
X-11692Y23562D01*
X-11637Y23661D01*
X-11586Y23762D01*
X-11538Y23865D01*
X-11493Y23969D01*
X-11453Y24075D01*
X-11416Y24182D01*
X-11383Y24290D01*
X-11353Y24400D01*
X-11328Y24510D01*
X-11306Y24621D01*
X-11289Y24733D01*
X-11275Y24846D01*
X-11265Y24959D01*
X-11259Y25072D01*
X-11257Y25185D01*
X-11259Y25298D01*
X-11265Y25411D01*
X-11275Y25524D01*
X-11289Y25637D01*
X-11306Y25749D01*
X-11328Y25860D01*
X-11353Y25970D01*
X-11383Y26080D01*
X-11416Y26188D01*
X-11453Y26295D01*
X-11493Y26401D01*
X-11538Y26505D01*
X-11586Y26608D01*
X-11637Y26709D01*
X-11692Y26808D01*
X-11750Y26905D01*
X-11812Y27000D01*
X-11877Y27093D01*
X-11945Y27183D01*
X-12016Y27271D01*
X-12091Y27357D01*
X-12168Y27440D01*
X-12248Y27520D01*
X-12331Y27597D01*
X-12417Y27672D01*
X-12505Y27743D01*
X-12595Y27811D01*
X-12688Y27876D01*
X-12783Y27938D01*
X-12880Y27996D01*
X-12979Y28051D01*
X-13080Y28102D01*
X-13183Y28150D01*
X-13287Y28195D01*
X-13393Y28235D01*
X-13500Y28272D01*
X-13608Y28305D01*
X-13718Y28335D01*
X-13828Y28360D01*
X-13939Y28382D01*
X-14051Y28399D01*
X-14164Y28413D01*
X-14277Y28423D01*
X-14390Y28429D01*
X-14503Y28431D01*
X-13854Y33623D02*
X-17748Y33623D01*
X-13854Y33623D02*
X-13753Y33621D01*
X-13653Y33615D01*
X-13553Y33605D01*
X-13453Y33592D01*
X-13354Y33574D01*
X-13255Y33553D01*
X-13158Y33528D01*
X-13061Y33499D01*
X-12966Y33466D01*
X-12872Y33430D01*
X-12780Y33390D01*
X-12689Y33347D01*
X-12600Y33300D01*
X-12513Y33250D01*
X-12427Y33196D01*
X-12344Y33139D01*
X-12264Y33079D01*
X-12185Y33016D01*
X-12109Y32949D01*
X-12036Y32880D01*
X-11966Y32808D01*
X-11898Y32734D01*
X-11833Y32657D01*
X-11772Y32577D01*
X-11713Y32495D01*
X-11658Y32411D01*
X-11606Y32325D01*
X-11557Y32237D01*
X-11512Y32147D01*
X-11470Y32055D01*
X-11432Y31962D01*
X-11398Y31867D01*
X-11367Y31772D01*
X-11340Y31675D01*
X-11317Y31577D01*
X-11297Y31478D01*
X-11282Y31378D01*
X-11270Y31278D01*
X-11262Y31178D01*
X-11258Y31077D01*
X-11258Y30977D01*
X-11262Y30876D01*
X-11270Y30776D01*
X-11282Y30676D01*
X-11297Y30576D01*
X-11317Y30477D01*
X-11340Y30379D01*
X-11367Y30282D01*
X-11398Y30187D01*
X-11432Y30092D01*
X-11470Y29999D01*
X-11512Y29907D01*
X-11557Y29817D01*
X-11606Y29729D01*
X-11658Y29643D01*
X-11713Y29559D01*
X-11772Y29477D01*
X-11833Y29397D01*
X-11898Y29320D01*
X-11966Y29246D01*
X-12036Y29174D01*
X-12109Y29105D01*
X-12185Y29038D01*
X-12264Y28975D01*
X-12344Y28915D01*
X-12427Y28858D01*
X-12513Y28804D01*
X-12600Y28754D01*
X-12689Y28707D01*
X-12780Y28664D01*
X-12872Y28624D01*
X-12966Y28588D01*
X-13061Y28555D01*
X-13158Y28526D01*
X-13255Y28501D01*
X-13354Y28480D01*
X-13453Y28462D01*
X-13553Y28449D01*
X-13653Y28439D01*
X-13753Y28433D01*
X-13854Y28431D01*
X-13854Y28430D02*
X-16450Y28430D01*
X-6967Y33623D02*
X-3073Y21939D01*
X822Y33623D01*
X5112Y21939D02*
X8357Y21939D01*
X8470Y21941D01*
X8583Y21947D01*
X8696Y21957D01*
X8809Y21971D01*
X8921Y21988D01*
X9032Y22010D01*
X9142Y22035D01*
X9252Y22065D01*
X9360Y22098D01*
X9467Y22135D01*
X9573Y22175D01*
X9677Y22220D01*
X9780Y22268D01*
X9881Y22319D01*
X9980Y22374D01*
X10077Y22432D01*
X10172Y22494D01*
X10265Y22559D01*
X10355Y22627D01*
X10443Y22698D01*
X10529Y22773D01*
X10612Y22850D01*
X10692Y22930D01*
X10769Y23013D01*
X10844Y23099D01*
X10915Y23187D01*
X10983Y23277D01*
X11048Y23370D01*
X11110Y23465D01*
X11168Y23562D01*
X11223Y23661D01*
X11274Y23762D01*
X11322Y23865D01*
X11367Y23969D01*
X11407Y24075D01*
X11444Y24182D01*
X11477Y24290D01*
X11507Y24400D01*
X11532Y24510D01*
X11554Y24621D01*
X11571Y24733D01*
X11585Y24846D01*
X11595Y24959D01*
X11601Y25072D01*
X11603Y25185D01*
X11601Y25298D01*
X11595Y25411D01*
X11585Y25524D01*
X11571Y25637D01*
X11554Y25749D01*
X11532Y25860D01*
X11507Y25970D01*
X11477Y26080D01*
X11444Y26188D01*
X11407Y26295D01*
X11367Y26401D01*
X11322Y26505D01*
X11274Y26608D01*
X11223Y26709D01*
X11168Y26808D01*
X11110Y26905D01*
X11048Y27000D01*
X10983Y27093D01*
X10915Y27183D01*
X10844Y27271D01*
X10769Y27357D01*
X10692Y27440D01*
X10612Y27520D01*
X10529Y27597D01*
X10443Y27672D01*
X10355Y27743D01*
X10265Y27811D01*
X10172Y27876D01*
X10077Y27938D01*
X9980Y27996D01*
X9881Y28051D01*
X9780Y28102D01*
X9677Y28150D01*
X9573Y28195D01*
X9467Y28235D01*
X9360Y28272D01*
X9252Y28305D01*
X9142Y28335D01*
X9032Y28360D01*
X8921Y28382D01*
X8809Y28399D01*
X8696Y28413D01*
X8583Y28423D01*
X8470Y28429D01*
X8357Y28431D01*
X9006Y33623D02*
X5112Y33623D01*
X9006Y33623D02*
X9107Y33621D01*
X9207Y33615D01*
X9307Y33605D01*
X9407Y33592D01*
X9506Y33574D01*
X9605Y33553D01*
X9702Y33528D01*
X9799Y33499D01*
X9894Y33466D01*
X9988Y33430D01*
X10080Y33390D01*
X10171Y33347D01*
X10260Y33300D01*
X10347Y33250D01*
X10433Y33196D01*
X10516Y33139D01*
X10596Y33079D01*
X10675Y33016D01*
X10751Y32949D01*
X10824Y32880D01*
X10894Y32808D01*
X10962Y32734D01*
X11027Y32657D01*
X11088Y32577D01*
X11147Y32495D01*
X11202Y32411D01*
X11254Y32325D01*
X11303Y32237D01*
X11348Y32147D01*
X11390Y32055D01*
X11428Y31962D01*
X11462Y31867D01*
X11493Y31772D01*
X11520Y31675D01*
X11543Y31577D01*
X11563Y31478D01*
X11578Y31378D01*
X11590Y31278D01*
X11598Y31178D01*
X11602Y31077D01*
X11602Y30977D01*
X11598Y30876D01*
X11590Y30776D01*
X11578Y30676D01*
X11563Y30576D01*
X11543Y30477D01*
X11520Y30379D01*
X11493Y30282D01*
X11462Y30187D01*
X11428Y30092D01*
X11390Y29999D01*
X11348Y29907D01*
X11303Y29817D01*
X11254Y29729D01*
X11202Y29643D01*
X11147Y29559D01*
X11088Y29477D01*
X11027Y29397D01*
X10962Y29320D01*
X10894Y29246D01*
X10824Y29174D01*
X10751Y29105D01*
X10675Y29038D01*
X10596Y28975D01*
X10516Y28915D01*
X10433Y28858D01*
X10347Y28804D01*
X10260Y28754D01*
X10171Y28707D01*
X10080Y28664D01*
X9988Y28624D01*
X9894Y28588D01*
X9799Y28555D01*
X9702Y28526D01*
X9605Y28501D01*
X9506Y28480D01*
X9407Y28462D01*
X9307Y28449D01*
X9207Y28439D01*
X9107Y28433D01*
X9006Y28431D01*
X9006Y28430D02*
X6410Y28430D01*
X-162140Y-64580D02*
X-165386Y-64580D01*
X-162140Y-64580D02*
X-162027Y-64578D01*
X-161914Y-64572D01*
X-161801Y-64562D01*
X-161688Y-64548D01*
X-161576Y-64531D01*
X-161465Y-64509D01*
X-161355Y-64484D01*
X-161245Y-64454D01*
X-161137Y-64421D01*
X-161030Y-64384D01*
X-160924Y-64344D01*
X-160820Y-64299D01*
X-160717Y-64251D01*
X-160616Y-64200D01*
X-160517Y-64145D01*
X-160420Y-64087D01*
X-160325Y-64025D01*
X-160232Y-63960D01*
X-160142Y-63892D01*
X-160054Y-63821D01*
X-159968Y-63746D01*
X-159885Y-63669D01*
X-159805Y-63589D01*
X-159728Y-63506D01*
X-159653Y-63420D01*
X-159582Y-63332D01*
X-159514Y-63242D01*
X-159449Y-63149D01*
X-159387Y-63054D01*
X-159329Y-62957D01*
X-159274Y-62858D01*
X-159223Y-62757D01*
X-159175Y-62654D01*
X-159130Y-62550D01*
X-159090Y-62444D01*
X-159053Y-62337D01*
X-159020Y-62229D01*
X-158990Y-62119D01*
X-158965Y-62009D01*
X-158943Y-61898D01*
X-158926Y-61786D01*
X-158912Y-61673D01*
X-158902Y-61560D01*
X-158896Y-61447D01*
X-158894Y-61334D01*
X-158896Y-61221D01*
X-158902Y-61108D01*
X-158912Y-60995D01*
X-158926Y-60882D01*
X-158943Y-60770D01*
X-158965Y-60659D01*
X-158990Y-60549D01*
X-159020Y-60439D01*
X-159053Y-60331D01*
X-159090Y-60224D01*
X-159130Y-60118D01*
X-159175Y-60014D01*
X-159223Y-59911D01*
X-159274Y-59810D01*
X-159329Y-59711D01*
X-159387Y-59614D01*
X-159449Y-59519D01*
X-159514Y-59426D01*
X-159582Y-59336D01*
X-159653Y-59248D01*
X-159728Y-59162D01*
X-159805Y-59079D01*
X-159885Y-58999D01*
X-159968Y-58922D01*
X-160054Y-58847D01*
X-160142Y-58776D01*
X-160232Y-58708D01*
X-160325Y-58643D01*
X-160420Y-58581D01*
X-160517Y-58523D01*
X-160616Y-58468D01*
X-160717Y-58417D01*
X-160820Y-58369D01*
X-160924Y-58324D01*
X-161030Y-58284D01*
X-161137Y-58247D01*
X-161245Y-58214D01*
X-161355Y-58184D01*
X-161465Y-58159D01*
X-161576Y-58137D01*
X-161688Y-58120D01*
X-161801Y-58106D01*
X-161914Y-58096D01*
X-162027Y-58090D01*
X-162140Y-58088D01*
X-161491Y-52896D02*
X-165386Y-52896D01*
X-161491Y-52896D02*
X-161390Y-52898D01*
X-161290Y-52904D01*
X-161190Y-52914D01*
X-161090Y-52927D01*
X-160991Y-52945D01*
X-160892Y-52966D01*
X-160795Y-52991D01*
X-160698Y-53020D01*
X-160603Y-53053D01*
X-160509Y-53089D01*
X-160417Y-53129D01*
X-160326Y-53172D01*
X-160237Y-53219D01*
X-160150Y-53269D01*
X-160064Y-53323D01*
X-159981Y-53380D01*
X-159901Y-53440D01*
X-159822Y-53503D01*
X-159746Y-53570D01*
X-159673Y-53639D01*
X-159603Y-53711D01*
X-159535Y-53785D01*
X-159470Y-53862D01*
X-159409Y-53942D01*
X-159350Y-54024D01*
X-159295Y-54108D01*
X-159243Y-54194D01*
X-159194Y-54282D01*
X-159149Y-54372D01*
X-159107Y-54464D01*
X-159069Y-54557D01*
X-159035Y-54652D01*
X-159004Y-54747D01*
X-158977Y-54844D01*
X-158954Y-54942D01*
X-158934Y-55041D01*
X-158919Y-55141D01*
X-158907Y-55241D01*
X-158899Y-55341D01*
X-158895Y-55442D01*
X-158895Y-55542D01*
X-158899Y-55643D01*
X-158907Y-55743D01*
X-158919Y-55843D01*
X-158934Y-55943D01*
X-158954Y-56042D01*
X-158977Y-56140D01*
X-159004Y-56237D01*
X-159035Y-56332D01*
X-159069Y-56427D01*
X-159107Y-56520D01*
X-159149Y-56612D01*
X-159194Y-56702D01*
X-159243Y-56790D01*
X-159295Y-56876D01*
X-159350Y-56960D01*
X-159409Y-57042D01*
X-159470Y-57122D01*
X-159535Y-57199D01*
X-159603Y-57273D01*
X-159673Y-57345D01*
X-159746Y-57414D01*
X-159822Y-57481D01*
X-159901Y-57544D01*
X-159981Y-57604D01*
X-160064Y-57661D01*
X-160150Y-57715D01*
X-160237Y-57765D01*
X-160326Y-57812D01*
X-160417Y-57855D01*
X-160509Y-57895D01*
X-160603Y-57931D01*
X-160698Y-57964D01*
X-160795Y-57993D01*
X-160892Y-58018D01*
X-160991Y-58039D01*
X-161090Y-58057D01*
X-161190Y-58070D01*
X-161290Y-58080D01*
X-161390Y-58086D01*
X-161491Y-58088D01*
X-164088Y-58088D01*
X-154605Y-52896D02*
X-150710Y-64580D01*
X-146816Y-52896D01*
X-142526Y-64580D02*
X-139280Y-64580D01*
X-139167Y-64578D01*
X-139054Y-64572D01*
X-138941Y-64562D01*
X-138828Y-64548D01*
X-138716Y-64531D01*
X-138605Y-64509D01*
X-138495Y-64484D01*
X-138385Y-64454D01*
X-138277Y-64421D01*
X-138170Y-64384D01*
X-138064Y-64344D01*
X-137960Y-64299D01*
X-137857Y-64251D01*
X-137756Y-64200D01*
X-137657Y-64145D01*
X-137560Y-64087D01*
X-137465Y-64025D01*
X-137372Y-63960D01*
X-137282Y-63892D01*
X-137194Y-63821D01*
X-137108Y-63746D01*
X-137025Y-63669D01*
X-136945Y-63589D01*
X-136868Y-63506D01*
X-136793Y-63420D01*
X-136722Y-63332D01*
X-136654Y-63242D01*
X-136589Y-63149D01*
X-136527Y-63054D01*
X-136469Y-62957D01*
X-136414Y-62858D01*
X-136363Y-62757D01*
X-136315Y-62654D01*
X-136270Y-62550D01*
X-136230Y-62444D01*
X-136193Y-62337D01*
X-136160Y-62229D01*
X-136130Y-62119D01*
X-136105Y-62009D01*
X-136083Y-61898D01*
X-136066Y-61786D01*
X-136052Y-61673D01*
X-136042Y-61560D01*
X-136036Y-61447D01*
X-136034Y-61334D01*
X-136036Y-61221D01*
X-136042Y-61108D01*
X-136052Y-60995D01*
X-136066Y-60882D01*
X-136083Y-60770D01*
X-136105Y-60659D01*
X-136130Y-60549D01*
X-136160Y-60439D01*
X-136193Y-60331D01*
X-136230Y-60224D01*
X-136270Y-60118D01*
X-136315Y-60014D01*
X-136363Y-59911D01*
X-136414Y-59810D01*
X-136469Y-59711D01*
X-136527Y-59614D01*
X-136589Y-59519D01*
X-136654Y-59426D01*
X-136722Y-59336D01*
X-136793Y-59248D01*
X-136868Y-59162D01*
X-136945Y-59079D01*
X-137025Y-58999D01*
X-137108Y-58922D01*
X-137194Y-58847D01*
X-137282Y-58776D01*
X-137372Y-58708D01*
X-137465Y-58643D01*
X-137560Y-58581D01*
X-137657Y-58523D01*
X-137756Y-58468D01*
X-137857Y-58417D01*
X-137960Y-58369D01*
X-138064Y-58324D01*
X-138170Y-58284D01*
X-138277Y-58247D01*
X-138385Y-58214D01*
X-138495Y-58184D01*
X-138605Y-58159D01*
X-138716Y-58137D01*
X-138828Y-58120D01*
X-138941Y-58106D01*
X-139054Y-58096D01*
X-139167Y-58090D01*
X-139280Y-58088D01*
X-138631Y-52896D02*
X-142526Y-52896D01*
X-138631Y-52896D02*
X-138530Y-52898D01*
X-138430Y-52904D01*
X-138330Y-52914D01*
X-138230Y-52927D01*
X-138131Y-52945D01*
X-138032Y-52966D01*
X-137935Y-52991D01*
X-137838Y-53020D01*
X-137743Y-53053D01*
X-137649Y-53089D01*
X-137557Y-53129D01*
X-137466Y-53172D01*
X-137377Y-53219D01*
X-137290Y-53269D01*
X-137204Y-53323D01*
X-137121Y-53380D01*
X-137041Y-53440D01*
X-136962Y-53503D01*
X-136886Y-53570D01*
X-136813Y-53639D01*
X-136743Y-53711D01*
X-136675Y-53785D01*
X-136610Y-53862D01*
X-136549Y-53942D01*
X-136490Y-54024D01*
X-136435Y-54108D01*
X-136383Y-54194D01*
X-136334Y-54282D01*
X-136289Y-54372D01*
X-136247Y-54464D01*
X-136209Y-54557D01*
X-136175Y-54652D01*
X-136144Y-54747D01*
X-136117Y-54844D01*
X-136094Y-54942D01*
X-136074Y-55041D01*
X-136059Y-55141D01*
X-136047Y-55241D01*
X-136039Y-55341D01*
X-136035Y-55442D01*
X-136035Y-55542D01*
X-136039Y-55643D01*
X-136047Y-55743D01*
X-136059Y-55843D01*
X-136074Y-55943D01*
X-136094Y-56042D01*
X-136117Y-56140D01*
X-136144Y-56237D01*
X-136175Y-56332D01*
X-136209Y-56427D01*
X-136247Y-56520D01*
X-136289Y-56612D01*
X-136334Y-56702D01*
X-136383Y-56790D01*
X-136435Y-56876D01*
X-136490Y-56960D01*
X-136549Y-57042D01*
X-136610Y-57122D01*
X-136675Y-57199D01*
X-136743Y-57273D01*
X-136813Y-57345D01*
X-136886Y-57414D01*
X-136962Y-57481D01*
X-137041Y-57544D01*
X-137121Y-57604D01*
X-137204Y-57661D01*
X-137290Y-57715D01*
X-137377Y-57765D01*
X-137466Y-57812D01*
X-137557Y-57855D01*
X-137649Y-57895D01*
X-137743Y-57931D01*
X-137838Y-57964D01*
X-137935Y-57993D01*
X-138032Y-58018D01*
X-138131Y-58039D01*
X-138230Y-58057D01*
X-138330Y-58070D01*
X-138430Y-58080D01*
X-138530Y-58086D01*
X-138631Y-58088D01*
X-141228Y-58088D01*
X-285815Y22403D02*
X-287437Y25214D01*
X-285815Y22403D02*
X-285757Y22306D01*
X-285695Y22211D01*
X-285630Y22118D01*
X-285562Y22028D01*
X-285491Y21940D01*
X-285416Y21854D01*
X-285339Y21771D01*
X-285259Y21691D01*
X-285176Y21614D01*
X-285090Y21539D01*
X-285002Y21468D01*
X-284912Y21400D01*
X-284819Y21335D01*
X-284724Y21273D01*
X-284627Y21215D01*
X-284528Y21160D01*
X-284427Y21109D01*
X-284324Y21061D01*
X-284220Y21016D01*
X-284114Y20976D01*
X-284007Y20939D01*
X-283899Y20906D01*
X-283789Y20876D01*
X-283679Y20851D01*
X-283568Y20829D01*
X-283456Y20812D01*
X-283343Y20798D01*
X-283230Y20788D01*
X-283117Y20782D01*
X-283004Y20780D01*
X-282891Y20782D01*
X-282778Y20788D01*
X-282665Y20798D01*
X-282552Y20812D01*
X-282440Y20829D01*
X-282329Y20851D01*
X-282219Y20876D01*
X-282109Y20906D01*
X-282001Y20939D01*
X-281894Y20976D01*
X-281788Y21016D01*
X-281684Y21061D01*
X-281581Y21109D01*
X-281480Y21160D01*
X-281381Y21215D01*
X-281284Y21273D01*
X-281189Y21335D01*
X-281096Y21400D01*
X-281006Y21468D01*
X-280918Y21539D01*
X-280832Y21614D01*
X-280749Y21691D01*
X-280669Y21771D01*
X-280592Y21854D01*
X-280517Y21940D01*
X-280446Y22028D01*
X-280378Y22118D01*
X-280313Y22211D01*
X-280251Y22306D01*
X-280193Y22403D01*
X-280138Y22502D01*
X-280087Y22603D01*
X-280039Y22706D01*
X-279994Y22810D01*
X-279954Y22916D01*
X-279917Y23023D01*
X-279884Y23131D01*
X-279854Y23241D01*
X-279829Y23351D01*
X-279807Y23462D01*
X-279790Y23574D01*
X-279776Y23687D01*
X-279766Y23800D01*
X-279760Y23913D01*
X-279758Y24026D01*
X-279760Y24139D01*
X-279766Y24252D01*
X-279776Y24365D01*
X-279790Y24478D01*
X-279807Y24590D01*
X-279829Y24701D01*
X-279854Y24811D01*
X-279884Y24921D01*
X-279917Y25029D01*
X-279954Y25136D01*
X-279994Y25242D01*
X-280039Y25346D01*
X-280087Y25449D01*
X-280138Y25550D01*
X-280193Y25649D01*
X-275371Y27683D02*
X-277319Y31056D01*
X-275372Y27683D02*
X-275323Y27595D01*
X-275278Y27505D01*
X-275236Y27413D01*
X-275198Y27320D01*
X-275164Y27225D01*
X-275133Y27130D01*
X-275106Y27033D01*
X-275083Y26935D01*
X-275063Y26836D01*
X-275048Y26736D01*
X-275036Y26636D01*
X-275028Y26536D01*
X-275024Y26435D01*
X-275024Y26335D01*
X-275028Y26234D01*
X-275036Y26134D01*
X-275048Y26034D01*
X-275063Y25934D01*
X-275083Y25835D01*
X-275106Y25737D01*
X-275133Y25640D01*
X-275164Y25545D01*
X-275198Y25450D01*
X-275236Y25357D01*
X-275278Y25265D01*
X-275323Y25175D01*
X-275372Y25087D01*
X-275424Y25001D01*
X-275479Y24917D01*
X-275538Y24835D01*
X-275599Y24755D01*
X-275664Y24678D01*
X-275732Y24604D01*
X-275802Y24532D01*
X-275875Y24463D01*
X-275951Y24396D01*
X-276030Y24333D01*
X-276110Y24273D01*
X-276193Y24216D01*
X-276279Y24162D01*
X-276366Y24112D01*
X-276455Y24065D01*
X-276546Y24022D01*
X-276638Y23982D01*
X-276732Y23946D01*
X-276827Y23913D01*
X-276924Y23884D01*
X-277021Y23859D01*
X-277120Y23838D01*
X-277219Y23820D01*
X-277319Y23807D01*
X-277419Y23797D01*
X-277519Y23791D01*
X-277620Y23789D01*
X-277721Y23791D01*
X-277821Y23797D01*
X-277921Y23807D01*
X-278021Y23820D01*
X-278120Y23838D01*
X-278219Y23859D01*
X-278316Y23884D01*
X-278413Y23913D01*
X-278508Y23946D01*
X-278602Y23982D01*
X-278694Y24022D01*
X-278785Y24065D01*
X-278874Y24112D01*
X-278961Y24162D01*
X-279047Y24216D01*
X-279130Y24273D01*
X-279210Y24333D01*
X-279289Y24396D01*
X-279365Y24463D01*
X-279438Y24532D01*
X-279508Y24604D01*
X-279576Y24678D01*
X-279641Y24755D01*
X-279702Y24835D01*
X-279761Y24917D01*
X-279816Y25001D01*
X-279868Y25087D01*
X-279869Y25087D02*
X-281167Y27335D01*
X-271928Y21720D02*
X-280099Y12505D01*
X-268034Y14974D01*
X-276007Y5417D02*
X-274384Y2606D01*
X-274385Y2606D02*
X-274327Y2509D01*
X-274265Y2414D01*
X-274200Y2321D01*
X-274132Y2231D01*
X-274061Y2143D01*
X-273986Y2057D01*
X-273909Y1974D01*
X-273829Y1894D01*
X-273746Y1817D01*
X-273660Y1742D01*
X-273572Y1671D01*
X-273482Y1603D01*
X-273389Y1538D01*
X-273294Y1476D01*
X-273197Y1418D01*
X-273098Y1363D01*
X-272997Y1312D01*
X-272894Y1264D01*
X-272790Y1219D01*
X-272684Y1179D01*
X-272577Y1142D01*
X-272469Y1109D01*
X-272359Y1079D01*
X-272249Y1054D01*
X-272138Y1032D01*
X-272026Y1015D01*
X-271913Y1001D01*
X-271800Y991D01*
X-271687Y985D01*
X-271574Y983D01*
X-271461Y985D01*
X-271348Y991D01*
X-271235Y1001D01*
X-271122Y1015D01*
X-271010Y1032D01*
X-270899Y1054D01*
X-270789Y1079D01*
X-270679Y1109D01*
X-270571Y1142D01*
X-270464Y1179D01*
X-270358Y1219D01*
X-270254Y1264D01*
X-270151Y1312D01*
X-270050Y1363D01*
X-269951Y1418D01*
X-269854Y1476D01*
X-269759Y1538D01*
X-269666Y1603D01*
X-269576Y1671D01*
X-269488Y1742D01*
X-269402Y1817D01*
X-269319Y1894D01*
X-269239Y1974D01*
X-269162Y2057D01*
X-269087Y2143D01*
X-269016Y2231D01*
X-268948Y2321D01*
X-268883Y2414D01*
X-268821Y2509D01*
X-268763Y2606D01*
X-268708Y2705D01*
X-268657Y2806D01*
X-268609Y2909D01*
X-268564Y3013D01*
X-268524Y3119D01*
X-268487Y3226D01*
X-268454Y3334D01*
X-268424Y3444D01*
X-268399Y3554D01*
X-268377Y3665D01*
X-268360Y3777D01*
X-268346Y3890D01*
X-268336Y4003D01*
X-268330Y4116D01*
X-268328Y4229D01*
X-268330Y4342D01*
X-268336Y4455D01*
X-268346Y4568D01*
X-268360Y4681D01*
X-268377Y4793D01*
X-268399Y4904D01*
X-268424Y5014D01*
X-268454Y5124D01*
X-268487Y5232D01*
X-268524Y5339D01*
X-268564Y5445D01*
X-268609Y5549D01*
X-268657Y5652D01*
X-268708Y5753D01*
X-268763Y5852D01*
X-263941Y7886D02*
X-265889Y11259D01*
X-263942Y7886D02*
X-263893Y7798D01*
X-263848Y7708D01*
X-263806Y7616D01*
X-263768Y7523D01*
X-263734Y7428D01*
X-263703Y7333D01*
X-263676Y7236D01*
X-263653Y7138D01*
X-263633Y7039D01*
X-263618Y6939D01*
X-263606Y6839D01*
X-263598Y6739D01*
X-263594Y6638D01*
X-263594Y6538D01*
X-263598Y6437D01*
X-263606Y6337D01*
X-263618Y6237D01*
X-263633Y6137D01*
X-263653Y6038D01*
X-263676Y5940D01*
X-263703Y5843D01*
X-263734Y5748D01*
X-263768Y5653D01*
X-263806Y5560D01*
X-263848Y5468D01*
X-263893Y5378D01*
X-263942Y5290D01*
X-263994Y5204D01*
X-264049Y5120D01*
X-264108Y5038D01*
X-264169Y4958D01*
X-264234Y4881D01*
X-264302Y4807D01*
X-264372Y4735D01*
X-264445Y4666D01*
X-264521Y4599D01*
X-264600Y4536D01*
X-264680Y4476D01*
X-264763Y4419D01*
X-264849Y4365D01*
X-264936Y4315D01*
X-265025Y4268D01*
X-265116Y4225D01*
X-265208Y4185D01*
X-265302Y4149D01*
X-265397Y4116D01*
X-265494Y4087D01*
X-265591Y4062D01*
X-265690Y4041D01*
X-265789Y4023D01*
X-265889Y4010D01*
X-265989Y4000D01*
X-266089Y3994D01*
X-266190Y3992D01*
X-266291Y3994D01*
X-266391Y4000D01*
X-266491Y4010D01*
X-266591Y4023D01*
X-266690Y4041D01*
X-266789Y4062D01*
X-266886Y4087D01*
X-266983Y4116D01*
X-267078Y4149D01*
X-267172Y4185D01*
X-267264Y4225D01*
X-267355Y4268D01*
X-267444Y4315D01*
X-267531Y4365D01*
X-267617Y4419D01*
X-267700Y4476D01*
X-267780Y4536D01*
X-267859Y4599D01*
X-267935Y4666D01*
X-268008Y4735D01*
X-268078Y4807D01*
X-268146Y4881D01*
X-268211Y4958D01*
X-268272Y5038D01*
X-268331Y5120D01*
X-268386Y5204D01*
X-268438Y5290D01*
X-268438Y5289D02*
X-269737Y7538D01*
X-282903Y141533D02*
X-280817Y144020D01*
X-280816Y144020D02*
X-280745Y144108D01*
X-280677Y144198D01*
X-280612Y144291D01*
X-280550Y144386D01*
X-280492Y144483D01*
X-280437Y144582D01*
X-280386Y144683D01*
X-280338Y144786D01*
X-280293Y144890D01*
X-280253Y144996D01*
X-280216Y145103D01*
X-280183Y145211D01*
X-280153Y145321D01*
X-280128Y145431D01*
X-280106Y145542D01*
X-280089Y145654D01*
X-280075Y145767D01*
X-280065Y145880D01*
X-280059Y145993D01*
X-280057Y146106D01*
X-280059Y146219D01*
X-280065Y146332D01*
X-280075Y146445D01*
X-280089Y146558D01*
X-280106Y146670D01*
X-280128Y146781D01*
X-280153Y146891D01*
X-280183Y147001D01*
X-280216Y147109D01*
X-280253Y147216D01*
X-280293Y147322D01*
X-280338Y147426D01*
X-280386Y147529D01*
X-280437Y147630D01*
X-280492Y147729D01*
X-280550Y147826D01*
X-280612Y147921D01*
X-280677Y148014D01*
X-280745Y148104D01*
X-280816Y148192D01*
X-280891Y148278D01*
X-280968Y148361D01*
X-281048Y148441D01*
X-281131Y148518D01*
X-281217Y148593D01*
X-281305Y148664D01*
X-281395Y148732D01*
X-281488Y148797D01*
X-281583Y148859D01*
X-281680Y148917D01*
X-281779Y148972D01*
X-281880Y149023D01*
X-281983Y149071D01*
X-282087Y149116D01*
X-282193Y149156D01*
X-282300Y149193D01*
X-282408Y149226D01*
X-282518Y149256D01*
X-282628Y149281D01*
X-282739Y149303D01*
X-282851Y149320D01*
X-282964Y149334D01*
X-283077Y149344D01*
X-283190Y149350D01*
X-283303Y149352D01*
X-283416Y149350D01*
X-283529Y149344D01*
X-283642Y149334D01*
X-283755Y149320D01*
X-283867Y149303D01*
X-283978Y149281D01*
X-284088Y149256D01*
X-284198Y149226D01*
X-284306Y149193D01*
X-284413Y149156D01*
X-284519Y149116D01*
X-284623Y149071D01*
X-284726Y149023D01*
X-284827Y148972D01*
X-284926Y148917D01*
X-285023Y148859D01*
X-285118Y148797D01*
X-285211Y148732D01*
X-285301Y148664D01*
X-285389Y148593D01*
X-285475Y148518D01*
X-285558Y148441D01*
X-285638Y148361D01*
X-285715Y148278D01*
X-285790Y148192D01*
X-289350Y152027D02*
X-291854Y149044D01*
X-289350Y152027D02*
X-289283Y152103D01*
X-289214Y152176D01*
X-289142Y152246D01*
X-289068Y152314D01*
X-288991Y152379D01*
X-288911Y152440D01*
X-288829Y152499D01*
X-288745Y152554D01*
X-288659Y152606D01*
X-288571Y152655D01*
X-288481Y152700D01*
X-288389Y152742D01*
X-288296Y152780D01*
X-288201Y152814D01*
X-288106Y152845D01*
X-288009Y152872D01*
X-287911Y152895D01*
X-287812Y152915D01*
X-287712Y152930D01*
X-287612Y152942D01*
X-287512Y152950D01*
X-287411Y152954D01*
X-287311Y152954D01*
X-287210Y152950D01*
X-287110Y152942D01*
X-287010Y152930D01*
X-286910Y152915D01*
X-286811Y152895D01*
X-286713Y152872D01*
X-286616Y152845D01*
X-286521Y152814D01*
X-286426Y152780D01*
X-286333Y152742D01*
X-286241Y152700D01*
X-286151Y152655D01*
X-286063Y152606D01*
X-285977Y152554D01*
X-285893Y152499D01*
X-285811Y152440D01*
X-285731Y152379D01*
X-285654Y152314D01*
X-285580Y152246D01*
X-285508Y152176D01*
X-285439Y152103D01*
X-285372Y152027D01*
X-285309Y151948D01*
X-285249Y151868D01*
X-285192Y151785D01*
X-285138Y151699D01*
X-285088Y151612D01*
X-285041Y151523D01*
X-284998Y151432D01*
X-284958Y151340D01*
X-284922Y151246D01*
X-284889Y151151D01*
X-284860Y151054D01*
X-284835Y150957D01*
X-284814Y150858D01*
X-284796Y150759D01*
X-284783Y150659D01*
X-284773Y150559D01*
X-284767Y150459D01*
X-284765Y150358D01*
X-284767Y150257D01*
X-284773Y150157D01*
X-284783Y150057D01*
X-284796Y149957D01*
X-284814Y149858D01*
X-284835Y149759D01*
X-284860Y149662D01*
X-284889Y149565D01*
X-284922Y149470D01*
X-284958Y149376D01*
X-284998Y149284D01*
X-285041Y149193D01*
X-285088Y149104D01*
X-285138Y149017D01*
X-285192Y148931D01*
X-285249Y148848D01*
X-285309Y148768D01*
X-285372Y148689D01*
X-287041Y146700D01*
X-284924Y157302D02*
X-273470Y152776D01*
X-279917Y163269D01*
X-268209Y159045D02*
X-266123Y161531D01*
X-266122Y161532D02*
X-266051Y161620D01*
X-265983Y161710D01*
X-265918Y161803D01*
X-265856Y161898D01*
X-265798Y161995D01*
X-265743Y162094D01*
X-265692Y162195D01*
X-265644Y162298D01*
X-265599Y162402D01*
X-265559Y162508D01*
X-265522Y162615D01*
X-265489Y162723D01*
X-265459Y162833D01*
X-265434Y162943D01*
X-265412Y163054D01*
X-265395Y163166D01*
X-265381Y163279D01*
X-265371Y163392D01*
X-265365Y163505D01*
X-265363Y163618D01*
X-265365Y163731D01*
X-265371Y163844D01*
X-265381Y163957D01*
X-265395Y164070D01*
X-265412Y164182D01*
X-265434Y164293D01*
X-265459Y164403D01*
X-265489Y164513D01*
X-265522Y164621D01*
X-265559Y164728D01*
X-265599Y164834D01*
X-265644Y164938D01*
X-265692Y165041D01*
X-265743Y165142D01*
X-265798Y165241D01*
X-265856Y165338D01*
X-265918Y165433D01*
X-265983Y165526D01*
X-266051Y165616D01*
X-266122Y165704D01*
X-266197Y165790D01*
X-266274Y165873D01*
X-266354Y165953D01*
X-266437Y166030D01*
X-266523Y166105D01*
X-266611Y166176D01*
X-266701Y166244D01*
X-266794Y166309D01*
X-266889Y166371D01*
X-266986Y166429D01*
X-267085Y166484D01*
X-267186Y166535D01*
X-267289Y166583D01*
X-267393Y166628D01*
X-267499Y166668D01*
X-267606Y166705D01*
X-267714Y166738D01*
X-267824Y166768D01*
X-267934Y166793D01*
X-268045Y166815D01*
X-268157Y166832D01*
X-268270Y166846D01*
X-268383Y166856D01*
X-268496Y166862D01*
X-268609Y166864D01*
X-268722Y166862D01*
X-268835Y166856D01*
X-268948Y166846D01*
X-269061Y166832D01*
X-269173Y166815D01*
X-269284Y166793D01*
X-269394Y166768D01*
X-269504Y166738D01*
X-269612Y166705D01*
X-269719Y166668D01*
X-269825Y166628D01*
X-269929Y166583D01*
X-270032Y166535D01*
X-270133Y166484D01*
X-270232Y166429D01*
X-270329Y166371D01*
X-270424Y166309D01*
X-270517Y166244D01*
X-270607Y166176D01*
X-270695Y166105D01*
X-270781Y166030D01*
X-270864Y165953D01*
X-270944Y165873D01*
X-271021Y165790D01*
X-271096Y165704D01*
X-274656Y169539D02*
X-277160Y166555D01*
X-274656Y169539D02*
X-274589Y169615D01*
X-274520Y169688D01*
X-274448Y169758D01*
X-274374Y169826D01*
X-274297Y169891D01*
X-274217Y169952D01*
X-274135Y170011D01*
X-274051Y170066D01*
X-273965Y170118D01*
X-273877Y170167D01*
X-273787Y170212D01*
X-273695Y170254D01*
X-273602Y170292D01*
X-273507Y170326D01*
X-273412Y170357D01*
X-273315Y170384D01*
X-273217Y170407D01*
X-273118Y170427D01*
X-273018Y170442D01*
X-272918Y170454D01*
X-272818Y170462D01*
X-272717Y170466D01*
X-272617Y170466D01*
X-272516Y170462D01*
X-272416Y170454D01*
X-272316Y170442D01*
X-272216Y170427D01*
X-272117Y170407D01*
X-272019Y170384D01*
X-271922Y170357D01*
X-271827Y170326D01*
X-271732Y170292D01*
X-271639Y170254D01*
X-271547Y170212D01*
X-271457Y170167D01*
X-271369Y170118D01*
X-271283Y170066D01*
X-271199Y170011D01*
X-271117Y169952D01*
X-271037Y169891D01*
X-270960Y169826D01*
X-270886Y169758D01*
X-270814Y169688D01*
X-270745Y169615D01*
X-270678Y169539D01*
X-270615Y169460D01*
X-270555Y169380D01*
X-270498Y169297D01*
X-270444Y169211D01*
X-270394Y169124D01*
X-270347Y169035D01*
X-270304Y168944D01*
X-270264Y168852D01*
X-270228Y168758D01*
X-270195Y168663D01*
X-270166Y168566D01*
X-270141Y168469D01*
X-270120Y168370D01*
X-270102Y168271D01*
X-270089Y168171D01*
X-270079Y168071D01*
X-270073Y167971D01*
X-270071Y167870D01*
X-270073Y167769D01*
X-270079Y167669D01*
X-270089Y167569D01*
X-270102Y167469D01*
X-270120Y167370D01*
X-270141Y167271D01*
X-270166Y167174D01*
X-270195Y167077D01*
X-270228Y166982D01*
X-270264Y166888D01*
X-270304Y166796D01*
X-270347Y166705D01*
X-270394Y166616D01*
X-270444Y166529D01*
X-270498Y166443D01*
X-270555Y166360D01*
X-270615Y166280D01*
X-270678Y166201D01*
X-272347Y164212D01*
D10*
X-154781Y215106D02*
X-142081Y215106D01*
X-135731Y208756D01*
X-135731Y196056D01*
X-142081Y189706D01*
X-161131Y196056D02*
X-161131Y208756D01*
X-154781Y215106D01*
X-161131Y196056D02*
X-154781Y189706D01*
X-142081Y189706D01*
X-227013Y87313D02*
X-227013Y74613D01*
X-233363Y68263D01*
X-246063Y68263D01*
X-252413Y74613D01*
X-233363Y68263D02*
X-227013Y61913D01*
X-227013Y49213D01*
X-233363Y42863D01*
X-246063Y42863D01*
X-252413Y49213D01*
X-252413Y61913D01*
X-246063Y68263D01*
X-246063Y93663D02*
X-233363Y93663D01*
X-227013Y87313D01*
X-246063Y93663D02*
X-252413Y87313D01*
X-252413Y74613D01*
X-233363Y42863D02*
X-227013Y36513D01*
X-227013Y23813D01*
X-233363Y17463D01*
X-246063Y17463D01*
X-252413Y23813D01*
X-252413Y36513D01*
X-246063Y42863D01*
D119*
X227519Y38613D02*
X227519Y9813D01*
X227519Y136013D02*
X227519Y164813D01*
X227519Y9813D02*
X198719Y9813D01*
X101319Y9813D02*
X72519Y9813D01*
X72519Y38613D01*
X72519Y136013D02*
X72519Y164813D01*
X198719Y164813D02*
X227519Y164813D01*
X101319Y164813D02*
X72519Y164813D01*
D120*
X233765Y2831D02*
X233767Y2894D01*
X233773Y2956D01*
X233783Y3018D01*
X233796Y3080D01*
X233814Y3140D01*
X233835Y3199D01*
X233860Y3257D01*
X233889Y3313D01*
X233921Y3367D01*
X233956Y3419D01*
X233994Y3468D01*
X234036Y3516D01*
X234080Y3560D01*
X234128Y3602D01*
X234177Y3640D01*
X234229Y3675D01*
X234283Y3707D01*
X234339Y3736D01*
X234397Y3761D01*
X234456Y3782D01*
X234516Y3800D01*
X234578Y3813D01*
X234640Y3823D01*
X234702Y3829D01*
X234765Y3831D01*
X234828Y3829D01*
X234890Y3823D01*
X234952Y3813D01*
X235014Y3800D01*
X235074Y3782D01*
X235133Y3761D01*
X235191Y3736D01*
X235247Y3707D01*
X235301Y3675D01*
X235353Y3640D01*
X235402Y3602D01*
X235450Y3560D01*
X235494Y3516D01*
X235536Y3468D01*
X235574Y3419D01*
X235609Y3367D01*
X235641Y3313D01*
X235670Y3257D01*
X235695Y3199D01*
X235716Y3140D01*
X235734Y3080D01*
X235747Y3018D01*
X235757Y2956D01*
X235763Y2894D01*
X235765Y2831D01*
X235763Y2768D01*
X235757Y2706D01*
X235747Y2644D01*
X235734Y2582D01*
X235716Y2522D01*
X235695Y2463D01*
X235670Y2405D01*
X235641Y2349D01*
X235609Y2295D01*
X235574Y2243D01*
X235536Y2194D01*
X235494Y2146D01*
X235450Y2102D01*
X235402Y2060D01*
X235353Y2022D01*
X235301Y1987D01*
X235247Y1955D01*
X235191Y1926D01*
X235133Y1901D01*
X235074Y1880D01*
X235014Y1862D01*
X234952Y1849D01*
X234890Y1839D01*
X234828Y1833D01*
X234765Y1831D01*
X234702Y1833D01*
X234640Y1839D01*
X234578Y1849D01*
X234516Y1862D01*
X234456Y1880D01*
X234397Y1901D01*
X234339Y1926D01*
X234283Y1955D01*
X234229Y1987D01*
X234177Y2022D01*
X234128Y2060D01*
X234080Y2102D01*
X234036Y2146D01*
X233994Y2194D01*
X233956Y2243D01*
X233921Y2295D01*
X233889Y2349D01*
X233860Y2405D01*
X233835Y2463D01*
X233814Y2522D01*
X233796Y2582D01*
X233783Y2644D01*
X233773Y2706D01*
X233767Y2768D01*
X233765Y2831D01*
D118*
X204333Y-2402D02*
X204333Y-10840D01*
X204335Y-10953D01*
X204341Y-11066D01*
X204351Y-11179D01*
X204365Y-11292D01*
X204382Y-11404D01*
X204404Y-11515D01*
X204429Y-11625D01*
X204459Y-11735D01*
X204492Y-11843D01*
X204529Y-11950D01*
X204569Y-12056D01*
X204614Y-12160D01*
X204662Y-12263D01*
X204713Y-12364D01*
X204768Y-12463D01*
X204826Y-12560D01*
X204888Y-12655D01*
X204953Y-12748D01*
X205021Y-12838D01*
X205092Y-12926D01*
X205167Y-13012D01*
X205244Y-13095D01*
X205324Y-13175D01*
X205407Y-13252D01*
X205493Y-13327D01*
X205581Y-13398D01*
X205671Y-13466D01*
X205764Y-13531D01*
X205859Y-13593D01*
X205956Y-13651D01*
X206055Y-13706D01*
X206156Y-13757D01*
X206259Y-13805D01*
X206363Y-13850D01*
X206469Y-13890D01*
X206576Y-13927D01*
X206684Y-13960D01*
X206794Y-13990D01*
X206904Y-14015D01*
X207015Y-14037D01*
X207127Y-14054D01*
X207240Y-14068D01*
X207353Y-14078D01*
X207466Y-14084D01*
X207579Y-14086D01*
X207692Y-14084D01*
X207805Y-14078D01*
X207918Y-14068D01*
X208031Y-14054D01*
X208143Y-14037D01*
X208254Y-14015D01*
X208364Y-13990D01*
X208474Y-13960D01*
X208582Y-13927D01*
X208689Y-13890D01*
X208795Y-13850D01*
X208899Y-13805D01*
X209002Y-13757D01*
X209103Y-13706D01*
X209202Y-13651D01*
X209299Y-13593D01*
X209394Y-13531D01*
X209487Y-13466D01*
X209577Y-13398D01*
X209665Y-13327D01*
X209751Y-13252D01*
X209834Y-13175D01*
X209914Y-13095D01*
X209991Y-13012D01*
X210066Y-12926D01*
X210137Y-12838D01*
X210205Y-12748D01*
X210270Y-12655D01*
X210332Y-12560D01*
X210390Y-12463D01*
X210445Y-12364D01*
X210496Y-12263D01*
X210544Y-12160D01*
X210589Y-12056D01*
X210629Y-11950D01*
X210666Y-11843D01*
X210699Y-11735D01*
X210729Y-11625D01*
X210754Y-11515D01*
X210776Y-11404D01*
X210793Y-11292D01*
X210807Y-11179D01*
X210817Y-11066D01*
X210823Y-10953D01*
X210825Y-10840D01*
X210824Y-10840D02*
X210824Y-2402D01*
X219714Y-2402D02*
X219821Y-2404D01*
X219927Y-2410D01*
X220033Y-2420D01*
X220139Y-2433D01*
X220245Y-2451D01*
X220349Y-2472D01*
X220453Y-2497D01*
X220556Y-2526D01*
X220657Y-2558D01*
X220757Y-2595D01*
X220856Y-2635D01*
X220954Y-2678D01*
X221050Y-2725D01*
X221144Y-2776D01*
X221236Y-2830D01*
X221326Y-2887D01*
X221414Y-2947D01*
X221499Y-3011D01*
X221582Y-3078D01*
X221663Y-3148D01*
X221741Y-3220D01*
X221817Y-3296D01*
X221889Y-3374D01*
X221959Y-3455D01*
X222026Y-3538D01*
X222090Y-3623D01*
X222150Y-3711D01*
X222207Y-3801D01*
X222261Y-3893D01*
X222312Y-3987D01*
X222359Y-4083D01*
X222402Y-4181D01*
X222442Y-4280D01*
X222479Y-4380D01*
X222511Y-4481D01*
X222540Y-4584D01*
X222565Y-4688D01*
X222586Y-4792D01*
X222604Y-4898D01*
X222617Y-5004D01*
X222627Y-5110D01*
X222633Y-5216D01*
X222635Y-5323D01*
X219714Y-2401D02*
X219593Y-2403D01*
X219472Y-2409D01*
X219352Y-2419D01*
X219231Y-2432D01*
X219112Y-2450D01*
X218992Y-2471D01*
X218874Y-2496D01*
X218757Y-2525D01*
X218640Y-2558D01*
X218525Y-2594D01*
X218411Y-2635D01*
X218298Y-2678D01*
X218186Y-2726D01*
X218077Y-2777D01*
X217969Y-2832D01*
X217862Y-2890D01*
X217758Y-2951D01*
X217656Y-3016D01*
X217556Y-3084D01*
X217458Y-3155D01*
X217362Y-3229D01*
X217269Y-3306D01*
X217179Y-3387D01*
X217091Y-3470D01*
X217006Y-3556D01*
X216923Y-3645D01*
X216844Y-3736D01*
X216767Y-3830D01*
X216694Y-3926D01*
X216624Y-4024D01*
X216557Y-4125D01*
X216493Y-4228D01*
X216433Y-4333D01*
X216375Y-4440D01*
X216322Y-4548D01*
X216272Y-4658D01*
X216226Y-4770D01*
X216183Y-4883D01*
X216144Y-4998D01*
X221661Y-7595D02*
X221740Y-7517D01*
X221816Y-7437D01*
X221889Y-7354D01*
X221959Y-7268D01*
X222026Y-7181D01*
X222090Y-7090D01*
X222150Y-6998D01*
X222208Y-6904D01*
X222262Y-6807D01*
X222312Y-6709D01*
X222359Y-6609D01*
X222403Y-6508D01*
X222443Y-6405D01*
X222479Y-6300D01*
X222511Y-6195D01*
X222540Y-6088D01*
X222565Y-5981D01*
X222587Y-5872D01*
X222604Y-5763D01*
X222618Y-5654D01*
X222627Y-5544D01*
X222633Y-5433D01*
X222635Y-5323D01*
X221661Y-7595D02*
X216144Y-14086D01*
X222635Y-14086D01*
D119*
X-210225Y103069D02*
X-210225Y105569D01*
X-210225Y108069D01*
X-210225Y105569D02*
X-215225Y103069D01*
X-215225Y108069D02*
X-210225Y105569D01*
X-215225Y108069D02*
X-215225Y103069D01*
X-225225Y100569D02*
X-225225Y110569D01*
X-200225Y110569D01*
X-200225Y100569D01*
X-225225Y100569D01*
D121*
X-219682Y114921D02*
X-219682Y124319D01*
X-217072Y124319D01*
X-216972Y124317D01*
X-216872Y124311D01*
X-216773Y124302D01*
X-216673Y124288D01*
X-216575Y124271D01*
X-216477Y124250D01*
X-216380Y124226D01*
X-216284Y124197D01*
X-216189Y124165D01*
X-216096Y124130D01*
X-216004Y124091D01*
X-215913Y124048D01*
X-215825Y124002D01*
X-215738Y123952D01*
X-215653Y123900D01*
X-215570Y123844D01*
X-215489Y123785D01*
X-215411Y123722D01*
X-215335Y123657D01*
X-215261Y123589D01*
X-215191Y123519D01*
X-215123Y123445D01*
X-215058Y123369D01*
X-214995Y123291D01*
X-214936Y123210D01*
X-214880Y123127D01*
X-214828Y123042D01*
X-214778Y122955D01*
X-214732Y122867D01*
X-214689Y122776D01*
X-214650Y122684D01*
X-214615Y122591D01*
X-214583Y122496D01*
X-214554Y122400D01*
X-214530Y122303D01*
X-214509Y122205D01*
X-214492Y122107D01*
X-214478Y122007D01*
X-214469Y121908D01*
X-214463Y121808D01*
X-214461Y121708D01*
X-214461Y117532D01*
X-214463Y117432D01*
X-214469Y117332D01*
X-214478Y117233D01*
X-214492Y117133D01*
X-214509Y117035D01*
X-214530Y116937D01*
X-214554Y116840D01*
X-214583Y116744D01*
X-214615Y116649D01*
X-214650Y116556D01*
X-214689Y116464D01*
X-214732Y116373D01*
X-214778Y116285D01*
X-214828Y116198D01*
X-214880Y116113D01*
X-214936Y116030D01*
X-214995Y115949D01*
X-215058Y115871D01*
X-215123Y115795D01*
X-215191Y115721D01*
X-215261Y115651D01*
X-215335Y115583D01*
X-215411Y115518D01*
X-215489Y115455D01*
X-215570Y115396D01*
X-215653Y115340D01*
X-215738Y115288D01*
X-215825Y115238D01*
X-215913Y115192D01*
X-216004Y115149D01*
X-216096Y115110D01*
X-216189Y115075D01*
X-216284Y115043D01*
X-216380Y115014D01*
X-216477Y114990D01*
X-216575Y114969D01*
X-216673Y114952D01*
X-216773Y114938D01*
X-216872Y114929D01*
X-216972Y114923D01*
X-217072Y114921D01*
X-219682Y114921D01*
X-210233Y122231D02*
X-207623Y124319D01*
X-207623Y114921D01*
X-210233Y114921D02*
X-205012Y114921D01*
M02*
