G04 EAGLE Gerber RS-274X export*
G75*
%MOMM*%
%FSLAX34Y34*%
%LPD*%
%INSolderpaste Top*%
%IPPOS*%
%AMOC8*
5,1,8,0,0,1.08239X$1,22.5*%
G01*
%ADD10R,0.580000X0.720000*%
%ADD11R,0.720000X0.580000*%
%ADD12R,0.800000X0.800000*%


D10*
X192269Y148313D03*
X183769Y148313D03*
X183769Y158313D03*
X192269Y158313D03*
D11*
X211019Y129563D03*
X211019Y121063D03*
X221019Y121063D03*
X221019Y129563D03*
D10*
X173269Y148313D03*
X164769Y148313D03*
X164769Y158313D03*
X173269Y158313D03*
X154269Y148313D03*
X145769Y148313D03*
X145769Y158313D03*
X154269Y158313D03*
X135269Y148313D03*
X126769Y148313D03*
X126769Y158313D03*
X135269Y158313D03*
X116269Y148313D03*
X107769Y148313D03*
X107769Y158313D03*
X116269Y158313D03*
D11*
X211019Y110563D03*
X211019Y102063D03*
X221019Y102063D03*
X221019Y110563D03*
X211019Y91563D03*
X211019Y83063D03*
X221019Y83063D03*
X221019Y91563D03*
X211019Y72563D03*
X211019Y64063D03*
X221019Y64063D03*
X221019Y72563D03*
X211019Y53563D03*
X211019Y45063D03*
X221019Y45063D03*
X221019Y53563D03*
X79019Y129563D03*
X79019Y121063D03*
X89019Y121063D03*
X89019Y129563D03*
D10*
X192269Y16313D03*
X183769Y16313D03*
X183769Y26313D03*
X192269Y26313D03*
X173269Y16313D03*
X164769Y16313D03*
X164769Y26313D03*
X173269Y26313D03*
X154269Y16313D03*
X145769Y16313D03*
X145769Y26313D03*
X154269Y26313D03*
X135269Y16313D03*
X126769Y16313D03*
X126769Y26313D03*
X135269Y26313D03*
X116269Y16313D03*
X107769Y16313D03*
X107769Y26313D03*
X116269Y26313D03*
D11*
X79019Y110563D03*
X79019Y102063D03*
X89019Y102063D03*
X89019Y110563D03*
X79019Y91563D03*
X79019Y83063D03*
X89019Y83063D03*
X89019Y91563D03*
X79019Y72563D03*
X79019Y64063D03*
X89019Y64063D03*
X89019Y72563D03*
X79019Y53563D03*
X79019Y45063D03*
X89019Y45063D03*
X89019Y53563D03*
D12*
X-220225Y105569D03*
X-205225Y105569D03*
M02*
