G04 EAGLE Gerber RS-274X export*
G75*
%MOMM*%
%FSLAX34Y34*%
%LPD*%
%INSolderpaste Bottom*%
%IPPOS*%
%AMOC8*
5,1,8,0,0,1.08239X$1,22.5*%
G01*
%ADD10R,1.100000X1.000000*%
%ADD11R,1.000000X1.100000*%
%ADD12R,1.500000X1.300000*%
%ADD13R,1.300000X1.500000*%
%ADD14R,1.400000X1.000000*%
%ADD15R,0.254000X0.812800*%
%ADD16R,0.812800X0.254000*%
%ADD17R,0.400000X1.399997*%

G36*
X-127300Y79805D02*
X-127300Y79805D01*
X-127297Y79804D01*
X-127254Y79824D01*
X-127211Y79843D01*
X-127210Y79845D01*
X-127208Y79846D01*
X-127175Y79931D01*
X-127175Y92155D01*
X-127176Y92157D01*
X-127175Y92159D01*
X-127195Y92202D01*
X-127214Y92245D01*
X-127216Y92246D01*
X-127217Y92248D01*
X-127302Y92281D01*
X-139526Y92281D01*
X-139528Y92280D01*
X-139530Y92281D01*
X-139573Y92261D01*
X-139616Y92242D01*
X-139617Y92240D01*
X-139619Y92239D01*
X-139652Y92155D01*
X-139652Y79931D01*
X-139651Y79929D01*
X-139652Y79926D01*
X-139632Y79883D01*
X-139613Y79840D01*
X-139611Y79839D01*
X-139610Y79837D01*
X-139526Y79804D01*
X-127302Y79804D01*
X-127300Y79805D01*
G37*
G36*
X-141524Y79805D02*
X-141524Y79805D01*
X-141521Y79804D01*
X-141478Y79824D01*
X-141435Y79843D01*
X-141434Y79845D01*
X-141432Y79846D01*
X-141399Y79931D01*
X-141399Y92155D01*
X-141400Y92157D01*
X-141399Y92159D01*
X-141419Y92202D01*
X-141438Y92245D01*
X-141440Y92246D01*
X-141441Y92248D01*
X-141526Y92281D01*
X-153750Y92281D01*
X-153752Y92280D01*
X-153754Y92281D01*
X-153797Y92261D01*
X-153840Y92242D01*
X-153841Y92240D01*
X-153843Y92239D01*
X-153876Y92155D01*
X-153876Y79931D01*
X-153875Y79929D01*
X-153876Y79926D01*
X-153856Y79883D01*
X-153837Y79840D01*
X-153835Y79839D01*
X-153834Y79837D01*
X-153750Y79804D01*
X-141526Y79804D01*
X-141524Y79805D01*
G37*
G36*
X-155748Y79805D02*
X-155748Y79805D01*
X-155745Y79804D01*
X-155702Y79824D01*
X-155659Y79843D01*
X-155658Y79845D01*
X-155656Y79846D01*
X-155623Y79931D01*
X-155623Y92155D01*
X-155624Y92157D01*
X-155623Y92159D01*
X-155643Y92202D01*
X-155662Y92245D01*
X-155664Y92246D01*
X-155665Y92248D01*
X-155750Y92281D01*
X-167974Y92281D01*
X-167976Y92280D01*
X-167978Y92281D01*
X-168021Y92261D01*
X-168064Y92242D01*
X-168065Y92240D01*
X-168067Y92239D01*
X-168100Y92155D01*
X-168100Y79931D01*
X-168099Y79929D01*
X-168100Y79926D01*
X-168080Y79883D01*
X-168061Y79840D01*
X-168059Y79839D01*
X-168058Y79837D01*
X-167974Y79804D01*
X-155750Y79804D01*
X-155748Y79805D01*
G37*
G36*
X-169972Y79805D02*
X-169972Y79805D01*
X-169969Y79804D01*
X-169926Y79824D01*
X-169883Y79843D01*
X-169882Y79845D01*
X-169880Y79846D01*
X-169847Y79931D01*
X-169847Y92155D01*
X-169848Y92157D01*
X-169847Y92159D01*
X-169867Y92202D01*
X-169886Y92245D01*
X-169888Y92246D01*
X-169889Y92248D01*
X-169974Y92281D01*
X-182198Y92281D01*
X-182200Y92280D01*
X-182202Y92281D01*
X-182245Y92261D01*
X-182288Y92242D01*
X-182289Y92240D01*
X-182291Y92239D01*
X-182324Y92155D01*
X-182324Y79931D01*
X-182323Y79929D01*
X-182324Y79926D01*
X-182304Y79883D01*
X-182285Y79840D01*
X-182283Y79839D01*
X-182282Y79837D01*
X-182198Y79804D01*
X-169974Y79804D01*
X-169972Y79805D01*
G37*
G36*
X-127300Y65581D02*
X-127300Y65581D01*
X-127297Y65580D01*
X-127254Y65600D01*
X-127211Y65619D01*
X-127210Y65621D01*
X-127208Y65622D01*
X-127175Y65707D01*
X-127175Y77931D01*
X-127176Y77933D01*
X-127175Y77935D01*
X-127195Y77978D01*
X-127214Y78021D01*
X-127216Y78022D01*
X-127217Y78024D01*
X-127302Y78057D01*
X-139526Y78057D01*
X-139528Y78056D01*
X-139530Y78057D01*
X-139573Y78037D01*
X-139616Y78018D01*
X-139617Y78016D01*
X-139619Y78015D01*
X-139652Y77931D01*
X-139652Y65707D01*
X-139651Y65705D01*
X-139652Y65702D01*
X-139632Y65659D01*
X-139613Y65616D01*
X-139611Y65615D01*
X-139610Y65613D01*
X-139526Y65580D01*
X-127302Y65580D01*
X-127300Y65581D01*
G37*
G36*
X-169972Y65581D02*
X-169972Y65581D01*
X-169969Y65580D01*
X-169926Y65600D01*
X-169883Y65619D01*
X-169882Y65621D01*
X-169880Y65622D01*
X-169847Y65707D01*
X-169847Y77931D01*
X-169848Y77933D01*
X-169847Y77935D01*
X-169867Y77978D01*
X-169886Y78021D01*
X-169888Y78022D01*
X-169889Y78024D01*
X-169974Y78057D01*
X-182198Y78057D01*
X-182200Y78056D01*
X-182202Y78057D01*
X-182245Y78037D01*
X-182288Y78018D01*
X-182289Y78016D01*
X-182291Y78015D01*
X-182324Y77931D01*
X-182324Y65707D01*
X-182323Y65705D01*
X-182324Y65702D01*
X-182304Y65659D01*
X-182285Y65616D01*
X-182283Y65615D01*
X-182282Y65613D01*
X-182198Y65580D01*
X-169974Y65580D01*
X-169972Y65581D01*
G37*
G36*
X-155748Y65581D02*
X-155748Y65581D01*
X-155745Y65580D01*
X-155702Y65600D01*
X-155659Y65619D01*
X-155658Y65621D01*
X-155656Y65622D01*
X-155623Y65707D01*
X-155623Y77931D01*
X-155624Y77933D01*
X-155623Y77935D01*
X-155643Y77978D01*
X-155662Y78021D01*
X-155664Y78022D01*
X-155665Y78024D01*
X-155750Y78057D01*
X-167974Y78057D01*
X-167976Y78056D01*
X-167978Y78057D01*
X-168021Y78037D01*
X-168064Y78018D01*
X-168065Y78016D01*
X-168067Y78015D01*
X-168100Y77931D01*
X-168100Y65707D01*
X-168099Y65705D01*
X-168100Y65702D01*
X-168080Y65659D01*
X-168061Y65616D01*
X-168059Y65615D01*
X-168058Y65613D01*
X-167974Y65580D01*
X-155750Y65580D01*
X-155748Y65581D01*
G37*
G36*
X-141524Y65581D02*
X-141524Y65581D01*
X-141521Y65580D01*
X-141478Y65600D01*
X-141435Y65619D01*
X-141434Y65621D01*
X-141432Y65622D01*
X-141399Y65707D01*
X-141399Y77931D01*
X-141400Y77933D01*
X-141399Y77935D01*
X-141419Y77978D01*
X-141438Y78021D01*
X-141440Y78022D01*
X-141441Y78024D01*
X-141526Y78057D01*
X-153750Y78057D01*
X-153752Y78056D01*
X-153754Y78057D01*
X-153797Y78037D01*
X-153840Y78018D01*
X-153841Y78016D01*
X-153843Y78015D01*
X-153876Y77931D01*
X-153876Y65707D01*
X-153875Y65705D01*
X-153876Y65702D01*
X-153856Y65659D01*
X-153837Y65616D01*
X-153835Y65615D01*
X-153834Y65613D01*
X-153750Y65580D01*
X-141526Y65580D01*
X-141524Y65581D01*
G37*
G36*
X-155748Y51357D02*
X-155748Y51357D01*
X-155745Y51356D01*
X-155702Y51376D01*
X-155659Y51395D01*
X-155658Y51397D01*
X-155656Y51398D01*
X-155623Y51483D01*
X-155623Y63707D01*
X-155624Y63709D01*
X-155623Y63711D01*
X-155643Y63754D01*
X-155662Y63797D01*
X-155664Y63798D01*
X-155665Y63800D01*
X-155750Y63833D01*
X-167974Y63833D01*
X-167976Y63832D01*
X-167978Y63833D01*
X-168021Y63813D01*
X-168064Y63794D01*
X-168065Y63792D01*
X-168067Y63791D01*
X-168100Y63707D01*
X-168100Y51483D01*
X-168099Y51481D01*
X-168100Y51478D01*
X-168080Y51435D01*
X-168061Y51392D01*
X-168059Y51391D01*
X-168058Y51389D01*
X-167974Y51356D01*
X-155750Y51356D01*
X-155748Y51357D01*
G37*
G36*
X-127300Y51357D02*
X-127300Y51357D01*
X-127297Y51356D01*
X-127254Y51376D01*
X-127211Y51395D01*
X-127210Y51397D01*
X-127208Y51398D01*
X-127175Y51483D01*
X-127175Y63707D01*
X-127176Y63709D01*
X-127175Y63711D01*
X-127195Y63754D01*
X-127214Y63797D01*
X-127216Y63798D01*
X-127217Y63800D01*
X-127302Y63833D01*
X-139526Y63833D01*
X-139528Y63832D01*
X-139530Y63833D01*
X-139573Y63813D01*
X-139616Y63794D01*
X-139617Y63792D01*
X-139619Y63791D01*
X-139652Y63707D01*
X-139652Y51483D01*
X-139651Y51481D01*
X-139652Y51478D01*
X-139632Y51435D01*
X-139613Y51392D01*
X-139611Y51391D01*
X-139610Y51389D01*
X-139526Y51356D01*
X-127302Y51356D01*
X-127300Y51357D01*
G37*
G36*
X-141524Y51357D02*
X-141524Y51357D01*
X-141521Y51356D01*
X-141478Y51376D01*
X-141435Y51395D01*
X-141434Y51397D01*
X-141432Y51398D01*
X-141399Y51483D01*
X-141399Y63707D01*
X-141400Y63709D01*
X-141399Y63711D01*
X-141419Y63754D01*
X-141438Y63797D01*
X-141440Y63798D01*
X-141441Y63800D01*
X-141526Y63833D01*
X-153750Y63833D01*
X-153752Y63832D01*
X-153754Y63833D01*
X-153797Y63813D01*
X-153840Y63794D01*
X-153841Y63792D01*
X-153843Y63791D01*
X-153876Y63707D01*
X-153876Y51483D01*
X-153875Y51481D01*
X-153876Y51478D01*
X-153856Y51435D01*
X-153837Y51392D01*
X-153835Y51391D01*
X-153834Y51389D01*
X-153750Y51356D01*
X-141526Y51356D01*
X-141524Y51357D01*
G37*
G36*
X-169972Y51357D02*
X-169972Y51357D01*
X-169969Y51356D01*
X-169926Y51376D01*
X-169883Y51395D01*
X-169882Y51397D01*
X-169880Y51398D01*
X-169847Y51483D01*
X-169847Y63707D01*
X-169848Y63709D01*
X-169847Y63711D01*
X-169867Y63754D01*
X-169886Y63797D01*
X-169888Y63798D01*
X-169889Y63800D01*
X-169974Y63833D01*
X-182198Y63833D01*
X-182200Y63832D01*
X-182202Y63833D01*
X-182245Y63813D01*
X-182288Y63794D01*
X-182289Y63792D01*
X-182291Y63791D01*
X-182324Y63707D01*
X-182324Y51483D01*
X-182323Y51481D01*
X-182324Y51478D01*
X-182304Y51435D01*
X-182285Y51392D01*
X-182283Y51391D01*
X-182282Y51389D01*
X-182198Y51356D01*
X-169974Y51356D01*
X-169972Y51357D01*
G37*
G36*
X-141524Y37133D02*
X-141524Y37133D01*
X-141521Y37132D01*
X-141478Y37152D01*
X-141435Y37171D01*
X-141434Y37173D01*
X-141432Y37174D01*
X-141399Y37259D01*
X-141399Y49483D01*
X-141400Y49485D01*
X-141399Y49487D01*
X-141419Y49530D01*
X-141438Y49573D01*
X-141440Y49574D01*
X-141441Y49576D01*
X-141526Y49609D01*
X-153750Y49609D01*
X-153752Y49608D01*
X-153754Y49609D01*
X-153797Y49589D01*
X-153840Y49570D01*
X-153841Y49568D01*
X-153843Y49567D01*
X-153876Y49483D01*
X-153876Y37259D01*
X-153875Y37257D01*
X-153876Y37254D01*
X-153856Y37211D01*
X-153837Y37168D01*
X-153835Y37167D01*
X-153834Y37165D01*
X-153750Y37132D01*
X-141526Y37132D01*
X-141524Y37133D01*
G37*
G36*
X-155748Y37133D02*
X-155748Y37133D01*
X-155745Y37132D01*
X-155702Y37152D01*
X-155659Y37171D01*
X-155658Y37173D01*
X-155656Y37174D01*
X-155623Y37259D01*
X-155623Y49483D01*
X-155624Y49485D01*
X-155623Y49487D01*
X-155643Y49530D01*
X-155662Y49573D01*
X-155664Y49574D01*
X-155665Y49576D01*
X-155750Y49609D01*
X-167974Y49609D01*
X-167976Y49608D01*
X-167978Y49609D01*
X-168021Y49589D01*
X-168064Y49570D01*
X-168065Y49568D01*
X-168067Y49567D01*
X-168100Y49483D01*
X-168100Y37259D01*
X-168099Y37257D01*
X-168100Y37254D01*
X-168080Y37211D01*
X-168061Y37168D01*
X-168059Y37167D01*
X-168058Y37165D01*
X-167974Y37132D01*
X-155750Y37132D01*
X-155748Y37133D01*
G37*
G36*
X-169972Y37133D02*
X-169972Y37133D01*
X-169969Y37132D01*
X-169926Y37152D01*
X-169883Y37171D01*
X-169882Y37173D01*
X-169880Y37174D01*
X-169847Y37259D01*
X-169847Y49483D01*
X-169848Y49485D01*
X-169847Y49487D01*
X-169867Y49530D01*
X-169886Y49573D01*
X-169888Y49574D01*
X-169889Y49576D01*
X-169974Y49609D01*
X-182198Y49609D01*
X-182200Y49608D01*
X-182202Y49609D01*
X-182245Y49589D01*
X-182288Y49570D01*
X-182289Y49568D01*
X-182291Y49567D01*
X-182324Y49483D01*
X-182324Y37259D01*
X-182323Y37257D01*
X-182324Y37254D01*
X-182304Y37211D01*
X-182285Y37168D01*
X-182283Y37167D01*
X-182282Y37165D01*
X-182198Y37132D01*
X-169974Y37132D01*
X-169972Y37133D01*
G37*
G36*
X-127300Y37133D02*
X-127300Y37133D01*
X-127297Y37132D01*
X-127254Y37152D01*
X-127211Y37171D01*
X-127210Y37173D01*
X-127208Y37174D01*
X-127175Y37259D01*
X-127175Y49483D01*
X-127176Y49485D01*
X-127175Y49487D01*
X-127195Y49530D01*
X-127214Y49573D01*
X-127216Y49574D01*
X-127217Y49576D01*
X-127302Y49609D01*
X-139526Y49609D01*
X-139528Y49608D01*
X-139530Y49609D01*
X-139573Y49589D01*
X-139616Y49570D01*
X-139617Y49568D01*
X-139619Y49567D01*
X-139652Y49483D01*
X-139652Y37259D01*
X-139651Y37257D01*
X-139652Y37254D01*
X-139632Y37211D01*
X-139613Y37168D01*
X-139611Y37167D01*
X-139610Y37165D01*
X-139526Y37132D01*
X-127302Y37132D01*
X-127300Y37133D01*
G37*
D10*
X-211931Y54538D03*
X-211931Y37538D03*
D11*
X-204225Y76200D03*
X-221225Y76200D03*
X-156138Y161131D03*
X-139138Y161131D03*
D10*
X-156138Y176213D03*
X-139138Y176213D03*
D11*
X-191294Y120881D03*
X-191294Y137881D03*
X-176213Y120881D03*
X-176213Y137881D03*
D10*
X-162488Y7938D03*
X-145488Y7938D03*
D12*
X-230981Y120675D03*
X-230981Y139675D03*
X-208756Y120675D03*
X-208756Y139675D03*
D13*
X-164281Y-7938D03*
X-145281Y-7938D03*
D11*
X-251850Y121444D03*
X-268850Y121444D03*
X231775Y63269D03*
X231775Y46269D03*
D12*
X215106Y62681D03*
X215106Y43681D03*
D11*
X-73256Y27781D03*
X-90256Y27781D03*
D14*
X-906Y123825D03*
X-22906Y133325D03*
X-22906Y114325D03*
X1475Y57150D03*
X-20525Y66650D03*
X-20525Y47650D03*
D11*
X-73256Y104775D03*
X-90256Y104775D03*
D10*
X29369Y123263D03*
X29369Y140263D03*
X21431Y57713D03*
X21431Y40713D03*
D11*
X230981Y94688D03*
X230981Y111688D03*
D12*
X215106Y94481D03*
X215106Y113481D03*
D10*
X129150Y7938D03*
X112150Y7938D03*
D13*
X130150Y23813D03*
X111150Y23813D03*
D11*
X-73256Y58738D03*
X-90256Y58738D03*
X-73256Y44450D03*
X-90256Y44450D03*
X-73256Y72231D03*
X-90256Y72231D03*
X-73256Y86519D03*
X-90256Y86519D03*
D15*
X-182257Y99251D03*
X-177256Y99251D03*
X-172254Y99251D03*
X-167253Y99251D03*
X-162252Y99251D03*
X-157251Y99251D03*
X-152249Y99251D03*
X-147248Y99251D03*
X-142247Y99251D03*
X-137246Y99251D03*
X-132244Y99251D03*
X-127243Y99251D03*
D16*
X-120206Y92214D03*
X-120206Y87213D03*
X-120206Y82211D03*
X-120206Y77210D03*
X-120206Y72209D03*
X-120206Y67208D03*
X-120206Y62206D03*
X-120206Y57205D03*
X-120206Y52204D03*
X-120206Y47203D03*
X-120206Y42201D03*
X-120206Y37200D03*
D15*
X-127243Y30163D03*
X-132244Y30163D03*
X-137246Y30163D03*
X-142247Y30163D03*
X-147248Y30163D03*
X-152249Y30163D03*
X-157251Y30163D03*
X-162252Y30163D03*
X-167253Y30163D03*
X-172254Y30163D03*
X-177256Y30163D03*
X-182257Y30163D03*
D16*
X-189294Y37200D03*
X-189294Y42201D03*
X-189294Y47203D03*
X-189294Y52204D03*
X-189294Y57205D03*
X-189294Y62206D03*
X-189294Y67208D03*
X-189294Y72209D03*
X-189294Y77210D03*
X-189294Y82211D03*
X-189294Y87213D03*
X-189294Y92214D03*
D17*
X-158050Y124619D03*
X-146050Y124619D03*
X-134050Y124619D03*
M02*
