G04 EAGLE Gerber RS-274X export*
G75*
%MOMM*%
%FSLAX34Y34*%
%LPD*%
%INSoldermask Bottom*%
%IPPOS*%
%AMOC8*
5,1,8,0,0,1.08239X$1,22.5*%
G01*
%ADD10C,1.203200*%
%ADD11P,1.869504X8X22.500000*%
%ADD12R,1.303200X1.203200*%
%ADD13R,1.203200X1.303200*%
%ADD14R,1.703200X1.503200*%
%ADD15R,1.503200X1.703200*%
%ADD16C,1.727200*%
%ADD17R,1.603200X1.203200*%
%ADD18R,0.457200X1.016000*%
%ADD19R,1.016000X0.457200*%
%ADD20R,5.588000X5.588000*%
%ADD21R,0.603200X1.603197*%

G36*
X8Y154416D02*
X8Y154416D01*
X21Y154415D01*
X3071Y154657D01*
X3104Y154667D01*
X3150Y154670D01*
X6122Y155399D01*
X6153Y155413D01*
X6198Y155424D01*
X6262Y155451D01*
X7438Y155951D01*
X8614Y156450D01*
X9015Y156620D01*
X9043Y156639D01*
X9086Y156657D01*
X11674Y158290D01*
X11699Y158313D01*
X11738Y158338D01*
X14031Y160364D01*
X14052Y160391D01*
X14087Y160422D01*
X16025Y162790D01*
X16041Y162820D01*
X16071Y162856D01*
X17604Y165504D01*
X17615Y165536D01*
X17638Y165577D01*
X17691Y165716D01*
X17692Y165716D01*
X17692Y165717D01*
X18452Y167713D01*
X18452Y167714D01*
X18642Y168213D01*
X18727Y168436D01*
X18732Y168470D01*
X18749Y168514D01*
X19365Y171511D01*
X19365Y171545D01*
X19375Y171591D01*
X19501Y174648D01*
X19496Y174681D01*
X19498Y174728D01*
X19133Y177766D01*
X19123Y177798D01*
X19117Y177845D01*
X18269Y180785D01*
X18254Y180815D01*
X18241Y180860D01*
X16933Y183626D01*
X16915Y183649D01*
X16905Y183676D01*
X16856Y183728D01*
X16813Y183785D01*
X16789Y183800D01*
X16769Y183820D01*
X16703Y183849D01*
X16642Y183885D01*
X16613Y183889D01*
X16587Y183900D01*
X16515Y183901D01*
X16444Y183910D01*
X16417Y183903D01*
X16388Y183903D01*
X16294Y183868D01*
X16253Y183857D01*
X16245Y183850D01*
X16232Y183845D01*
X-19Y174489D01*
X-16270Y183845D01*
X-16297Y183854D01*
X-16320Y183871D01*
X-16391Y183885D01*
X-16458Y183908D01*
X-16487Y183906D01*
X-16515Y183912D01*
X-16585Y183898D01*
X-16657Y183892D01*
X-16682Y183879D01*
X-16710Y183874D01*
X-16769Y183834D01*
X-16833Y183801D01*
X-16851Y183778D01*
X-16875Y183762D01*
X-16933Y183680D01*
X-16959Y183647D01*
X-16962Y183637D01*
X-16970Y183626D01*
X-18279Y180860D01*
X-18287Y180827D01*
X-18307Y180785D01*
X-19155Y177845D01*
X-19157Y177811D01*
X-19171Y177766D01*
X-19536Y174728D01*
X-19533Y174694D01*
X-19539Y174648D01*
X-19412Y171591D01*
X-19404Y171558D01*
X-19402Y171511D01*
X-18787Y168514D01*
X-18773Y168482D01*
X-18764Y168436D01*
X-17676Y165577D01*
X-17658Y165548D01*
X-17641Y165504D01*
X-16108Y162856D01*
X-16086Y162831D01*
X-16062Y162790D01*
X-14124Y160422D01*
X-14098Y160401D01*
X-14069Y160364D01*
X-11776Y158338D01*
X-11747Y158321D01*
X-11712Y158290D01*
X-9124Y156657D01*
X-9092Y156645D01*
X-9052Y156620D01*
X-6236Y155424D01*
X-6203Y155417D01*
X-6160Y155399D01*
X-3188Y154670D01*
X-3154Y154669D01*
X-3109Y154657D01*
X-58Y154415D01*
X-30Y154418D01*
X-2Y154414D01*
X8Y154416D01*
G37*
G36*
X16548Y-9273D02*
X16548Y-9273D01*
X16619Y-9267D01*
X16644Y-9254D01*
X16673Y-9249D01*
X16732Y-9209D01*
X16795Y-9176D01*
X16814Y-9153D01*
X16837Y-9137D01*
X16895Y-9055D01*
X16922Y-9022D01*
X16925Y-9012D01*
X16933Y-9001D01*
X18241Y-6235D01*
X18249Y-6202D01*
X18269Y-6160D01*
X19117Y-3220D01*
X19120Y-3186D01*
X19133Y-3141D01*
X19498Y-103D01*
X19496Y-69D01*
X19501Y-23D01*
X19375Y3034D01*
X19366Y3067D01*
X19365Y3114D01*
X18749Y6111D01*
X18736Y6143D01*
X18727Y6189D01*
X17638Y9048D01*
X17620Y9077D01*
X17604Y9121D01*
X16071Y11769D01*
X16048Y11794D01*
X16025Y11835D01*
X14087Y14203D01*
X14061Y14224D01*
X14031Y14261D01*
X11738Y16287D01*
X11709Y16304D01*
X11674Y16335D01*
X9086Y17968D01*
X9054Y17980D01*
X9015Y18005D01*
X6198Y19201D01*
X6165Y19208D01*
X6122Y19226D01*
X3150Y19955D01*
X3116Y19956D01*
X3071Y19968D01*
X21Y20210D01*
X-7Y20207D01*
X-35Y20211D01*
X-45Y20209D01*
X-58Y20210D01*
X-3109Y19968D01*
X-3141Y19958D01*
X-3188Y19955D01*
X-6160Y19226D01*
X-6190Y19212D01*
X-6236Y19201D01*
X-6400Y19131D01*
X-7576Y18632D01*
X-8752Y18132D01*
X-9052Y18005D01*
X-9080Y17986D01*
X-9124Y17968D01*
X-11712Y16335D01*
X-11736Y16312D01*
X-11776Y16287D01*
X-14069Y14261D01*
X-14089Y14234D01*
X-14124Y14203D01*
X-16062Y11835D01*
X-16078Y11805D01*
X-16108Y11769D01*
X-17641Y9121D01*
X-17652Y9089D01*
X-17676Y9048D01*
X-18764Y6189D01*
X-18770Y6155D01*
X-18787Y6111D01*
X-19402Y3114D01*
X-19402Y3080D01*
X-19412Y3034D01*
X-19539Y-23D01*
X-19534Y-56D01*
X-19536Y-103D01*
X-19171Y-3141D01*
X-19160Y-3173D01*
X-19155Y-3220D01*
X-18307Y-6160D01*
X-18291Y-6190D01*
X-18279Y-6235D01*
X-16970Y-9001D01*
X-16953Y-9024D01*
X-16943Y-9051D01*
X-16894Y-9103D01*
X-16851Y-9160D01*
X-16826Y-9175D01*
X-16807Y-9195D01*
X-16741Y-9224D01*
X-16679Y-9260D01*
X-16651Y-9264D01*
X-16624Y-9275D01*
X-16553Y-9276D01*
X-16482Y-9285D01*
X-16454Y-9278D01*
X-16426Y-9278D01*
X-16331Y-9243D01*
X-16290Y-9232D01*
X-16282Y-9225D01*
X-16270Y-9220D01*
X-19Y136D01*
X16232Y-9220D01*
X16259Y-9229D01*
X16283Y-9246D01*
X16353Y-9260D01*
X16421Y-9283D01*
X16449Y-9281D01*
X16477Y-9287D01*
X16548Y-9273D01*
G37*
G36*
X-299991Y69816D02*
X-299991Y69816D01*
X-299978Y69815D01*
X-297179Y70047D01*
X-297146Y70057D01*
X-297098Y70060D01*
X-294376Y70750D01*
X-294345Y70765D01*
X-294298Y70776D01*
X-291727Y71904D01*
X-291699Y71924D01*
X-291655Y71943D01*
X-289304Y73479D01*
X-289279Y73504D01*
X-289239Y73530D01*
X-287173Y75431D01*
X-287161Y75448D01*
X-287148Y75457D01*
X-287138Y75473D01*
X-287117Y75492D01*
X-285393Y77708D01*
X-285378Y77739D01*
X-285348Y77777D01*
X-284012Y80246D01*
X-284001Y80279D01*
X-283978Y80322D01*
X-283067Y82977D01*
X-283062Y83012D01*
X-283047Y83057D01*
X-282584Y85826D01*
X-282586Y85861D01*
X-282578Y85909D01*
X-282578Y88716D01*
X-282584Y88750D01*
X-282584Y88799D01*
X-283047Y91568D01*
X-283059Y91600D01*
X-283067Y91648D01*
X-283978Y94303D01*
X-283996Y94333D01*
X-284012Y94379D01*
X-285348Y96848D01*
X-285370Y96875D01*
X-285393Y96917D01*
X-287117Y99133D01*
X-287144Y99156D01*
X-287173Y99194D01*
X-289239Y101095D01*
X-289269Y101113D01*
X-289304Y101146D01*
X-291655Y102682D01*
X-291687Y102694D01*
X-291727Y102721D01*
X-294298Y103849D01*
X-294332Y103856D01*
X-294376Y103875D01*
X-297098Y104565D01*
X-297133Y104566D01*
X-297179Y104578D01*
X-299978Y104810D01*
X-300006Y104807D01*
X-300035Y104811D01*
X-300104Y104795D01*
X-300175Y104787D01*
X-300200Y104772D01*
X-300229Y104765D01*
X-300286Y104723D01*
X-300348Y104688D01*
X-300365Y104665D01*
X-300389Y104648D01*
X-300425Y104587D01*
X-300468Y104530D01*
X-300475Y104502D01*
X-300490Y104477D01*
X-300507Y104378D01*
X-300517Y104337D01*
X-300516Y104326D01*
X-300518Y104313D01*
X-300518Y70313D01*
X-300512Y70284D01*
X-300515Y70255D01*
X-300493Y70187D01*
X-300478Y70118D01*
X-300462Y70094D01*
X-300453Y70066D01*
X-300406Y70012D01*
X-300366Y69954D01*
X-300341Y69938D01*
X-300322Y69916D01*
X-300258Y69885D01*
X-300198Y69847D01*
X-300170Y69842D01*
X-300143Y69829D01*
X-300044Y69821D01*
X-300002Y69814D01*
X-299991Y69816D01*
G37*
G36*
X-210253Y-51573D02*
X-210253Y-51573D01*
X-210182Y-51568D01*
X-210156Y-51554D01*
X-210127Y-51549D01*
X-210069Y-51509D01*
X-210005Y-51476D01*
X-209987Y-51454D01*
X-209963Y-51437D01*
X-209906Y-51356D01*
X-209879Y-51323D01*
X-209875Y-51312D01*
X-209867Y-51301D01*
X-208669Y-48765D01*
X-208661Y-48732D01*
X-208640Y-48688D01*
X-207875Y-45990D01*
X-207872Y-45956D01*
X-207859Y-45909D01*
X-207549Y-43122D01*
X-207551Y-43093D01*
X-207550Y-43083D01*
X-207551Y-43078D01*
X-207546Y-43039D01*
X-207699Y-40239D01*
X-207708Y-40206D01*
X-207710Y-40157D01*
X-208322Y-37420D01*
X-208336Y-37389D01*
X-208346Y-37342D01*
X-209400Y-34743D01*
X-209419Y-34714D01*
X-209437Y-34669D01*
X-210904Y-32279D01*
X-210928Y-32253D01*
X-210953Y-32212D01*
X-212794Y-30096D01*
X-212821Y-30075D01*
X-212853Y-30039D01*
X-215016Y-28254D01*
X-215047Y-28238D01*
X-215084Y-28207D01*
X-217512Y-26804D01*
X-217545Y-26793D01*
X-217586Y-26768D01*
X-220212Y-25783D01*
X-220246Y-25778D01*
X-220291Y-25761D01*
X-223044Y-25221D01*
X-223078Y-25222D01*
X-223126Y-25212D01*
X-225929Y-25133D01*
X-225963Y-25139D01*
X-226011Y-25138D01*
X-228789Y-25521D01*
X-228822Y-25532D01*
X-228870Y-25539D01*
X-231547Y-26374D01*
X-231578Y-26391D01*
X-231623Y-26405D01*
X-234127Y-27670D01*
X-234154Y-27691D01*
X-234197Y-27713D01*
X-236458Y-29373D01*
X-236481Y-29398D01*
X-236520Y-29427D01*
X-238477Y-31436D01*
X-238496Y-31465D01*
X-238529Y-31499D01*
X-240129Y-33803D01*
X-240140Y-33830D01*
X-240159Y-33852D01*
X-240179Y-33920D01*
X-240207Y-33985D01*
X-240208Y-34015D01*
X-240216Y-34043D01*
X-240208Y-34113D01*
X-240209Y-34184D01*
X-240197Y-34211D01*
X-240194Y-34240D01*
X-240159Y-34302D01*
X-240132Y-34368D01*
X-240111Y-34388D01*
X-240097Y-34414D01*
X-240020Y-34477D01*
X-239990Y-34507D01*
X-239979Y-34511D01*
X-239969Y-34520D01*
X-210569Y-51520D01*
X-210541Y-51529D01*
X-210517Y-51546D01*
X-210448Y-51560D01*
X-210380Y-51583D01*
X-210351Y-51581D01*
X-210323Y-51587D01*
X-210253Y-51573D01*
G37*
G36*
X-223126Y199837D02*
X-223126Y199837D01*
X-223092Y199845D01*
X-223044Y199846D01*
X-220291Y200386D01*
X-220259Y200399D01*
X-220212Y200408D01*
X-217586Y201393D01*
X-217557Y201412D01*
X-217512Y201429D01*
X-215084Y202832D01*
X-215058Y202855D01*
X-215016Y202879D01*
X-212853Y204664D01*
X-212831Y204691D01*
X-212794Y204721D01*
X-210953Y206837D01*
X-210936Y206868D01*
X-210904Y206904D01*
X-209437Y209294D01*
X-209425Y209327D01*
X-209400Y209368D01*
X-208346Y211967D01*
X-208340Y212001D01*
X-208322Y212045D01*
X-207710Y214782D01*
X-207710Y214817D01*
X-207699Y214864D01*
X-207546Y217664D01*
X-207551Y217699D01*
X-207549Y217747D01*
X-207859Y220534D01*
X-207870Y220567D01*
X-207875Y220615D01*
X-208640Y223313D01*
X-208656Y223344D01*
X-208669Y223390D01*
X-209867Y225926D01*
X-209885Y225949D01*
X-209895Y225977D01*
X-209944Y226028D01*
X-209986Y226085D01*
X-210012Y226100D01*
X-210032Y226121D01*
X-210097Y226149D01*
X-210158Y226185D01*
X-210187Y226189D01*
X-210214Y226201D01*
X-210285Y226201D01*
X-210356Y226210D01*
X-210384Y226203D01*
X-210413Y226203D01*
X-210506Y226168D01*
X-210547Y226157D01*
X-210556Y226150D01*
X-210569Y226145D01*
X-239969Y209145D01*
X-239990Y209125D01*
X-240017Y209113D01*
X-240064Y209060D01*
X-240118Y209013D01*
X-240130Y208987D01*
X-240150Y208965D01*
X-240173Y208897D01*
X-240203Y208833D01*
X-240204Y208804D01*
X-240214Y208777D01*
X-240209Y208706D01*
X-240212Y208635D01*
X-240202Y208607D01*
X-240200Y208578D01*
X-240157Y208488D01*
X-240142Y208448D01*
X-240135Y208440D01*
X-240129Y208428D01*
X-238529Y206124D01*
X-238504Y206100D01*
X-238477Y206061D01*
X-236520Y204052D01*
X-236491Y204032D01*
X-236458Y203998D01*
X-234197Y202338D01*
X-234165Y202324D01*
X-234127Y202295D01*
X-231623Y201030D01*
X-231590Y201021D01*
X-231547Y200999D01*
X-228870Y200164D01*
X-228835Y200160D01*
X-228789Y200146D01*
X-226011Y199763D01*
X-225977Y199765D01*
X-225929Y199758D01*
X-223126Y199837D01*
G37*
G36*
X-89654Y-51578D02*
X-89654Y-51578D01*
X-89625Y-51578D01*
X-89532Y-51543D01*
X-89491Y-51532D01*
X-89482Y-51525D01*
X-89469Y-51520D01*
X-60069Y-34520D01*
X-60047Y-34500D01*
X-60021Y-34488D01*
X-59973Y-34435D01*
X-59920Y-34388D01*
X-59907Y-34362D01*
X-59888Y-34340D01*
X-59865Y-34272D01*
X-59834Y-34208D01*
X-59833Y-34179D01*
X-59824Y-34152D01*
X-59829Y-34081D01*
X-59826Y-34010D01*
X-59836Y-33982D01*
X-59838Y-33953D01*
X-59880Y-33863D01*
X-59895Y-33823D01*
X-59903Y-33815D01*
X-59909Y-33803D01*
X-61508Y-31499D01*
X-61533Y-31475D01*
X-61561Y-31436D01*
X-63518Y-29427D01*
X-63546Y-29407D01*
X-63580Y-29373D01*
X-65841Y-27713D01*
X-65872Y-27699D01*
X-65911Y-27670D01*
X-68414Y-26405D01*
X-68447Y-26396D01*
X-68490Y-26374D01*
X-71168Y-25539D01*
X-71202Y-25535D01*
X-71248Y-25521D01*
X-74026Y-25138D01*
X-74061Y-25140D01*
X-74109Y-25133D01*
X-76912Y-25212D01*
X-76946Y-25220D01*
X-76994Y-25221D01*
X-79746Y-25761D01*
X-79778Y-25774D01*
X-79825Y-25783D01*
X-82451Y-26768D01*
X-82481Y-26787D01*
X-82526Y-26804D01*
X-84954Y-28207D01*
X-84980Y-28230D01*
X-85021Y-28254D01*
X-87185Y-30039D01*
X-87207Y-30066D01*
X-87244Y-30096D01*
X-89084Y-32212D01*
X-89102Y-32243D01*
X-89133Y-32279D01*
X-90600Y-34669D01*
X-90612Y-34702D01*
X-90638Y-34743D01*
X-91691Y-37342D01*
X-91698Y-37376D01*
X-91716Y-37420D01*
X-92327Y-40157D01*
X-92328Y-40192D01*
X-92338Y-40239D01*
X-92491Y-43039D01*
X-92486Y-43074D01*
X-92489Y-43122D01*
X-92178Y-45909D01*
X-92168Y-45942D01*
X-92163Y-45990D01*
X-91398Y-48688D01*
X-91382Y-48719D01*
X-91369Y-48765D01*
X-90170Y-51301D01*
X-90153Y-51324D01*
X-90142Y-51352D01*
X-90094Y-51403D01*
X-90051Y-51460D01*
X-90026Y-51475D01*
X-90006Y-51496D01*
X-89941Y-51524D01*
X-89879Y-51560D01*
X-89850Y-51564D01*
X-89824Y-51576D01*
X-89753Y-51576D01*
X-89682Y-51585D01*
X-89654Y-51578D01*
G37*
G36*
X-74074Y199764D02*
X-74074Y199764D01*
X-74026Y199763D01*
X-71248Y200146D01*
X-71215Y200157D01*
X-71168Y200164D01*
X-68490Y200999D01*
X-68460Y201016D01*
X-68414Y201030D01*
X-65911Y202295D01*
X-65884Y202316D01*
X-65841Y202338D01*
X-63580Y203998D01*
X-63557Y204023D01*
X-63518Y204052D01*
X-61561Y206061D01*
X-61542Y206090D01*
X-61508Y206124D01*
X-59909Y208428D01*
X-59897Y208455D01*
X-59879Y208477D01*
X-59858Y208545D01*
X-59830Y208610D01*
X-59830Y208640D01*
X-59822Y208668D01*
X-59829Y208738D01*
X-59829Y208809D01*
X-59840Y208836D01*
X-59843Y208865D01*
X-59878Y208927D01*
X-59906Y208993D01*
X-59926Y209013D01*
X-59941Y209039D01*
X-60017Y209102D01*
X-60048Y209132D01*
X-60058Y209136D01*
X-60069Y209145D01*
X-89469Y226145D01*
X-89497Y226154D01*
X-89520Y226171D01*
X-89590Y226185D01*
X-89657Y226208D01*
X-89686Y226206D01*
X-89715Y226212D01*
X-89785Y226198D01*
X-89856Y226193D01*
X-89882Y226179D01*
X-89910Y226174D01*
X-89969Y226134D01*
X-90032Y226101D01*
X-90051Y226079D01*
X-90075Y226062D01*
X-90132Y225981D01*
X-90159Y225948D01*
X-90162Y225937D01*
X-90170Y225926D01*
X-91369Y223390D01*
X-91377Y223357D01*
X-91398Y223313D01*
X-92163Y220615D01*
X-92165Y220581D01*
X-92178Y220534D01*
X-92489Y217747D01*
X-92486Y217719D01*
X-92487Y217714D01*
X-92486Y217709D01*
X-92491Y217664D01*
X-92338Y214864D01*
X-92330Y214831D01*
X-92327Y214782D01*
X-91716Y212045D01*
X-91702Y212014D01*
X-91691Y211967D01*
X-90638Y209368D01*
X-90618Y209339D01*
X-90600Y209294D01*
X-89133Y206904D01*
X-89110Y206878D01*
X-89084Y206837D01*
X-87244Y204721D01*
X-87216Y204700D01*
X-87185Y204664D01*
X-85021Y202879D01*
X-84991Y202863D01*
X-84954Y202832D01*
X-82526Y201429D01*
X-82493Y201418D01*
X-82451Y201393D01*
X-79825Y200408D01*
X-79791Y200403D01*
X-79746Y200386D01*
X-76994Y199846D01*
X-76959Y199847D01*
X-76912Y199837D01*
X-74109Y199758D01*
X-74074Y199764D01*
G37*
G36*
X-300010Y154377D02*
X-300010Y154377D01*
X-299997Y154375D01*
X-296941Y154622D01*
X-296908Y154632D01*
X-296861Y154635D01*
X-293884Y155369D01*
X-293854Y155383D01*
X-293808Y155394D01*
X-290987Y156596D01*
X-290959Y156615D01*
X-290916Y156633D01*
X-288325Y158272D01*
X-288300Y158296D01*
X-288260Y158321D01*
X-285965Y160354D01*
X-285945Y160381D01*
X-285910Y160412D01*
X-283970Y162787D01*
X-283955Y162817D01*
X-283925Y162853D01*
X-282392Y165508D01*
X-282381Y165541D01*
X-282357Y165581D01*
X-281270Y168448D01*
X-281264Y168481D01*
X-281248Y168525D01*
X-280634Y171529D01*
X-280634Y171563D01*
X-280625Y171609D01*
X-280501Y174673D01*
X-280507Y174706D01*
X-280504Y174753D01*
X-280874Y177797D01*
X-280885Y177829D01*
X-280890Y177876D01*
X-281743Y180821D01*
X-281759Y180851D01*
X-281772Y180896D01*
X-283086Y183666D01*
X-283103Y183689D01*
X-283114Y183716D01*
X-283163Y183768D01*
X-283205Y183825D01*
X-283230Y183840D01*
X-283250Y183861D01*
X-283316Y183889D01*
X-283377Y183925D01*
X-283406Y183929D01*
X-283433Y183940D01*
X-283504Y183941D01*
X-283575Y183950D01*
X-283603Y183942D01*
X-283631Y183942D01*
X-283725Y183907D01*
X-283766Y183896D01*
X-283775Y183889D01*
X-283787Y183884D01*
X-300265Y174345D01*
X-300322Y174293D01*
X-300384Y174248D01*
X-300396Y174228D01*
X-300413Y174213D01*
X-300446Y174143D01*
X-300486Y174077D01*
X-300490Y174052D01*
X-300499Y174033D01*
X-300501Y173989D01*
X-300514Y173913D01*
X-300536Y154874D01*
X-300531Y154845D01*
X-300533Y154816D01*
X-300511Y154749D01*
X-300497Y154679D01*
X-300481Y154655D01*
X-300472Y154627D01*
X-300425Y154573D01*
X-300385Y154515D01*
X-300360Y154499D01*
X-300341Y154477D01*
X-300277Y154446D01*
X-300217Y154407D01*
X-300189Y154403D01*
X-300163Y154390D01*
X-300063Y154381D01*
X-300021Y154374D01*
X-300010Y154377D01*
G37*
G36*
X-283472Y-9313D02*
X-283472Y-9313D01*
X-283401Y-9307D01*
X-283375Y-9294D01*
X-283346Y-9288D01*
X-283287Y-9248D01*
X-283224Y-9216D01*
X-283205Y-9193D01*
X-283181Y-9177D01*
X-283124Y-9095D01*
X-283097Y-9063D01*
X-283094Y-9052D01*
X-283086Y-9041D01*
X-281772Y-6271D01*
X-281763Y-6238D01*
X-281743Y-6196D01*
X-280890Y-3251D01*
X-280887Y-3217D01*
X-280874Y-3172D01*
X-280504Y-128D01*
X-280507Y-94D01*
X-280501Y-48D01*
X-280625Y3016D01*
X-280633Y3049D01*
X-280634Y3096D01*
X-281248Y6100D01*
X-281261Y6131D01*
X-281270Y6177D01*
X-282357Y9044D01*
X-282375Y9073D01*
X-282392Y9117D01*
X-283925Y11772D01*
X-283947Y11798D01*
X-283970Y11838D01*
X-285910Y14213D01*
X-285936Y14235D01*
X-285965Y14271D01*
X-288260Y16305D01*
X-288290Y16321D01*
X-288325Y16353D01*
X-290916Y17992D01*
X-290948Y18004D01*
X-290987Y18029D01*
X-293808Y19231D01*
X-293841Y19238D01*
X-293884Y19256D01*
X-296861Y19990D01*
X-296895Y19991D01*
X-296941Y20003D01*
X-299997Y20250D01*
X-300026Y20246D01*
X-300054Y20251D01*
X-300124Y20234D01*
X-300194Y20226D01*
X-300220Y20211D01*
X-300248Y20205D01*
X-300305Y20162D01*
X-300367Y20127D01*
X-300384Y20104D01*
X-300408Y20087D01*
X-300444Y20025D01*
X-300487Y19968D01*
X-300494Y19940D01*
X-300509Y19915D01*
X-300525Y19817D01*
X-300536Y19776D01*
X-300534Y19765D01*
X-300536Y19751D01*
X-300514Y712D01*
X-300498Y637D01*
X-300490Y560D01*
X-300478Y540D01*
X-300474Y517D01*
X-300430Y454D01*
X-300393Y387D01*
X-300373Y370D01*
X-300361Y353D01*
X-300323Y329D01*
X-300265Y280D01*
X-283787Y-9259D01*
X-283760Y-9268D01*
X-283736Y-9285D01*
X-283666Y-9300D01*
X-283599Y-9322D01*
X-283570Y-9320D01*
X-283542Y-9326D01*
X-283472Y-9313D01*
G37*
G36*
X149997Y-86377D02*
X149997Y-86377D01*
X150074Y-86378D01*
X150099Y-86369D01*
X150119Y-86367D01*
X150159Y-86347D01*
X150230Y-86320D01*
X166730Y-76820D01*
X166752Y-76801D01*
X166778Y-76789D01*
X166812Y-76751D01*
X166815Y-76749D01*
X166818Y-76745D01*
X166826Y-76736D01*
X166879Y-76689D01*
X166892Y-76663D01*
X166911Y-76641D01*
X166935Y-76574D01*
X166965Y-76509D01*
X166967Y-76480D01*
X166976Y-76453D01*
X166971Y-76382D01*
X166975Y-76311D01*
X166965Y-76284D01*
X166963Y-76255D01*
X166920Y-76164D01*
X166905Y-76124D01*
X166898Y-76116D01*
X166892Y-76104D01*
X165150Y-73580D01*
X165126Y-73557D01*
X165100Y-73518D01*
X162976Y-71307D01*
X162948Y-71288D01*
X162915Y-71254D01*
X160464Y-69412D01*
X160433Y-69397D01*
X160396Y-69369D01*
X157681Y-67944D01*
X157649Y-67934D01*
X157607Y-67912D01*
X154699Y-66941D01*
X154673Y-66938D01*
X154663Y-66937D01*
X154621Y-66922D01*
X151594Y-66430D01*
X151561Y-66432D01*
X151514Y-66424D01*
X148448Y-66424D01*
X148415Y-66431D01*
X148368Y-66430D01*
X145342Y-66922D01*
X145310Y-66934D01*
X145264Y-66941D01*
X142355Y-67912D01*
X142326Y-67929D01*
X142281Y-67944D01*
X139566Y-69369D01*
X139540Y-69390D01*
X139498Y-69412D01*
X137047Y-71254D01*
X137025Y-71279D01*
X136987Y-71307D01*
X134863Y-73518D01*
X134845Y-73547D01*
X134812Y-73580D01*
X133070Y-76104D01*
X133059Y-76131D01*
X133041Y-76153D01*
X133020Y-76221D01*
X132992Y-76287D01*
X132992Y-76316D01*
X132984Y-76343D01*
X132992Y-76415D01*
X132992Y-76486D01*
X133003Y-76512D01*
X133006Y-76541D01*
X133041Y-76603D01*
X133069Y-76669D01*
X133090Y-76689D01*
X133104Y-76714D01*
X133167Y-76766D01*
X133171Y-76772D01*
X133180Y-76777D01*
X133181Y-76778D01*
X133211Y-76808D01*
X133222Y-76812D01*
X133232Y-76820D01*
X149732Y-86320D01*
X149805Y-86344D01*
X149876Y-86375D01*
X149899Y-86376D01*
X149921Y-86383D01*
X149997Y-86377D01*
G37*
G36*
X-150003Y-86377D02*
X-150003Y-86377D01*
X-149926Y-86378D01*
X-149901Y-86369D01*
X-149881Y-86367D01*
X-149841Y-86347D01*
X-149770Y-86320D01*
X-133270Y-76820D01*
X-133248Y-76801D01*
X-133222Y-76789D01*
X-133188Y-76751D01*
X-133185Y-76749D01*
X-133182Y-76745D01*
X-133174Y-76736D01*
X-133121Y-76689D01*
X-133108Y-76663D01*
X-133089Y-76641D01*
X-133065Y-76574D01*
X-133035Y-76509D01*
X-133033Y-76480D01*
X-133024Y-76453D01*
X-133029Y-76382D01*
X-133025Y-76311D01*
X-133036Y-76284D01*
X-133038Y-76255D01*
X-133080Y-76164D01*
X-133095Y-76124D01*
X-133102Y-76116D01*
X-133108Y-76104D01*
X-134850Y-73580D01*
X-134874Y-73557D01*
X-134900Y-73518D01*
X-137025Y-71307D01*
X-137052Y-71288D01*
X-137085Y-71254D01*
X-139536Y-69412D01*
X-139567Y-69397D01*
X-139604Y-69369D01*
X-142319Y-67944D01*
X-142351Y-67934D01*
X-142393Y-67912D01*
X-145301Y-66941D01*
X-145327Y-66938D01*
X-145337Y-66937D01*
X-145379Y-66922D01*
X-148406Y-66430D01*
X-148439Y-66432D01*
X-148486Y-66424D01*
X-151552Y-66424D01*
X-151585Y-66431D01*
X-151632Y-66430D01*
X-154658Y-66922D01*
X-154690Y-66934D01*
X-154736Y-66941D01*
X-157645Y-67912D01*
X-157674Y-67929D01*
X-157719Y-67944D01*
X-160434Y-69369D01*
X-160460Y-69390D01*
X-160502Y-69412D01*
X-162953Y-71254D01*
X-162975Y-71279D01*
X-163013Y-71307D01*
X-165137Y-73518D01*
X-165155Y-73547D01*
X-165188Y-73580D01*
X-166930Y-76104D01*
X-166941Y-76131D01*
X-166959Y-76153D01*
X-166980Y-76221D01*
X-167008Y-76287D01*
X-167008Y-76316D01*
X-167016Y-76343D01*
X-167008Y-76415D01*
X-167008Y-76486D01*
X-166997Y-76512D01*
X-166994Y-76541D01*
X-166959Y-76603D01*
X-166931Y-76669D01*
X-166910Y-76689D01*
X-166896Y-76714D01*
X-166833Y-76766D01*
X-166829Y-76772D01*
X-166820Y-76777D01*
X-166819Y-76778D01*
X-166789Y-76808D01*
X-166778Y-76812D01*
X-166768Y-76820D01*
X-150268Y-86320D01*
X-150195Y-86344D01*
X-150124Y-86375D01*
X-150101Y-86376D01*
X-150079Y-86383D01*
X-150003Y-86377D01*
G37*
G36*
X-148452Y241056D02*
X-148452Y241056D01*
X-148406Y241055D01*
X-145379Y241547D01*
X-145347Y241559D01*
X-145301Y241566D01*
X-142393Y242537D01*
X-142363Y242554D01*
X-142319Y242569D01*
X-139604Y243994D01*
X-139578Y244015D01*
X-139536Y244037D01*
X-137085Y245879D01*
X-137062Y245904D01*
X-137025Y245932D01*
X-134900Y248143D01*
X-134882Y248172D01*
X-134850Y248205D01*
X-133108Y250729D01*
X-133097Y250756D01*
X-133078Y250778D01*
X-133058Y250846D01*
X-133030Y250912D01*
X-133030Y250941D01*
X-133021Y250968D01*
X-133029Y251040D01*
X-133029Y251111D01*
X-133040Y251137D01*
X-133044Y251166D01*
X-133079Y251228D01*
X-133106Y251294D01*
X-133127Y251314D01*
X-133141Y251339D01*
X-133218Y251403D01*
X-133249Y251433D01*
X-133259Y251437D01*
X-133270Y251445D01*
X-149770Y260945D01*
X-149842Y260969D01*
X-149913Y261000D01*
X-149936Y261001D01*
X-149958Y261008D01*
X-150035Y261002D01*
X-150112Y261003D01*
X-150136Y260994D01*
X-150157Y260992D01*
X-150196Y260972D01*
X-150268Y260945D01*
X-166768Y251445D01*
X-166790Y251426D01*
X-166816Y251414D01*
X-166864Y251361D01*
X-166917Y251314D01*
X-166930Y251288D01*
X-166949Y251266D01*
X-166972Y251199D01*
X-167003Y251134D01*
X-167004Y251105D01*
X-167014Y251078D01*
X-167009Y251007D01*
X-167012Y250936D01*
X-167002Y250909D01*
X-167000Y250880D01*
X-166958Y250789D01*
X-166943Y250749D01*
X-166935Y250741D01*
X-166930Y250729D01*
X-165188Y248205D01*
X-165163Y248182D01*
X-165137Y248143D01*
X-163013Y245932D01*
X-162985Y245913D01*
X-162953Y245879D01*
X-160502Y244037D01*
X-160471Y244022D01*
X-160434Y243994D01*
X-157719Y242569D01*
X-157686Y242559D01*
X-157645Y242537D01*
X-154736Y241566D01*
X-154703Y241562D01*
X-154658Y241547D01*
X-151632Y241055D01*
X-151598Y241057D01*
X-151552Y241049D01*
X-148486Y241049D01*
X-148452Y241056D01*
G37*
G36*
X151548Y241056D02*
X151548Y241056D01*
X151594Y241055D01*
X154621Y241547D01*
X154653Y241559D01*
X154699Y241566D01*
X157607Y242537D01*
X157637Y242554D01*
X157681Y242569D01*
X160396Y243994D01*
X160423Y244015D01*
X160464Y244037D01*
X162915Y245879D01*
X162938Y245904D01*
X162976Y245932D01*
X165100Y248143D01*
X165118Y248172D01*
X165150Y248205D01*
X166892Y250729D01*
X166904Y250756D01*
X166922Y250778D01*
X166942Y250846D01*
X166970Y250912D01*
X166970Y250941D01*
X166979Y250968D01*
X166971Y251040D01*
X166971Y251111D01*
X166960Y251137D01*
X166956Y251166D01*
X166921Y251228D01*
X166894Y251294D01*
X166873Y251314D01*
X166859Y251339D01*
X166782Y251403D01*
X166751Y251433D01*
X166741Y251437D01*
X166730Y251445D01*
X150230Y260945D01*
X150158Y260969D01*
X150087Y261000D01*
X150064Y261001D01*
X150042Y261008D01*
X149965Y261002D01*
X149888Y261003D01*
X149864Y260994D01*
X149844Y260992D01*
X149804Y260972D01*
X149732Y260945D01*
X133232Y251445D01*
X133211Y251426D01*
X133184Y251414D01*
X133137Y251361D01*
X133083Y251314D01*
X133071Y251288D01*
X133051Y251266D01*
X133028Y251199D01*
X132997Y251134D01*
X132996Y251105D01*
X132986Y251078D01*
X132991Y251007D01*
X132988Y250936D01*
X132998Y250909D01*
X133000Y250880D01*
X133042Y250789D01*
X133057Y250749D01*
X133065Y250741D01*
X133070Y250729D01*
X134812Y248205D01*
X134837Y248182D01*
X134863Y248143D01*
X136987Y245932D01*
X137015Y245913D01*
X137047Y245879D01*
X139498Y244037D01*
X139529Y244022D01*
X139566Y243994D01*
X142281Y242569D01*
X142314Y242559D01*
X142355Y242537D01*
X145264Y241566D01*
X145297Y241562D01*
X145342Y241547D01*
X148368Y241055D01*
X148402Y241057D01*
X148448Y241049D01*
X151514Y241049D01*
X151548Y241056D01*
G37*
G36*
X300068Y154430D02*
X300068Y154430D01*
X300139Y154439D01*
X300164Y154453D01*
X300191Y154460D01*
X300249Y154502D01*
X300311Y154538D01*
X300329Y154561D01*
X300351Y154577D01*
X300388Y154639D01*
X300431Y154697D01*
X300438Y154724D01*
X300453Y154748D01*
X300470Y154849D01*
X300480Y154889D01*
X300478Y154900D01*
X300481Y154913D01*
X300481Y173913D01*
X300465Y173989D01*
X300456Y174066D01*
X300445Y174086D01*
X300441Y174107D01*
X300397Y174172D01*
X300359Y174239D01*
X300340Y174255D01*
X300328Y174271D01*
X300291Y174295D01*
X300230Y174345D01*
X283730Y183845D01*
X283703Y183854D01*
X283680Y183871D01*
X283609Y183885D01*
X283542Y183908D01*
X283513Y183906D01*
X283485Y183912D01*
X283415Y183898D01*
X283344Y183892D01*
X283318Y183879D01*
X283290Y183874D01*
X283231Y183834D01*
X283167Y183801D01*
X283149Y183778D01*
X283125Y183762D01*
X283067Y183680D01*
X283041Y183647D01*
X283038Y183637D01*
X283030Y183626D01*
X281722Y180860D01*
X281713Y180827D01*
X281693Y180785D01*
X280845Y177845D01*
X280843Y177811D01*
X280829Y177766D01*
X280464Y174728D01*
X280467Y174694D01*
X280461Y174648D01*
X280588Y171591D01*
X280596Y171558D01*
X280598Y171511D01*
X281213Y168514D01*
X281227Y168482D01*
X281236Y168436D01*
X282324Y165577D01*
X282342Y165548D01*
X282359Y165504D01*
X283892Y162856D01*
X283914Y162831D01*
X283938Y162790D01*
X285876Y160422D01*
X285902Y160401D01*
X285931Y160364D01*
X288224Y158338D01*
X288253Y158321D01*
X288288Y158290D01*
X290876Y156657D01*
X290908Y156645D01*
X290948Y156620D01*
X293764Y155424D01*
X293797Y155417D01*
X293840Y155399D01*
X296812Y154670D01*
X296846Y154669D01*
X296891Y154657D01*
X299942Y154415D01*
X299970Y154418D01*
X299998Y154414D01*
X300068Y154430D01*
G37*
G36*
X283546Y-9278D02*
X283546Y-9278D01*
X283574Y-9278D01*
X283669Y-9243D01*
X283710Y-9232D01*
X283718Y-9225D01*
X283730Y-9220D01*
X300230Y280D01*
X300289Y331D01*
X300351Y377D01*
X300363Y397D01*
X300379Y411D01*
X300413Y482D01*
X300453Y548D01*
X300457Y573D01*
X300465Y591D01*
X300467Y635D01*
X300481Y713D01*
X300481Y19713D01*
X300475Y19740D01*
X300477Y19769D01*
X300455Y19837D01*
X300441Y19907D01*
X300425Y19931D01*
X300416Y19958D01*
X300369Y20012D01*
X300328Y20071D01*
X300305Y20087D01*
X300286Y20108D01*
X300221Y20140D01*
X300161Y20178D01*
X300133Y20183D01*
X300107Y20196D01*
X300006Y20205D01*
X299965Y20211D01*
X299955Y20209D01*
X299942Y20210D01*
X296891Y19968D01*
X296859Y19958D01*
X296812Y19955D01*
X293840Y19226D01*
X293810Y19212D01*
X293764Y19201D01*
X293600Y19131D01*
X292424Y18632D01*
X291248Y18132D01*
X290948Y18005D01*
X290920Y17986D01*
X290876Y17968D01*
X288288Y16335D01*
X288264Y16312D01*
X288224Y16287D01*
X285931Y14261D01*
X285911Y14234D01*
X285876Y14203D01*
X283938Y11835D01*
X283922Y11805D01*
X283892Y11769D01*
X282359Y9121D01*
X282348Y9089D01*
X282324Y9048D01*
X281236Y6189D01*
X281230Y6155D01*
X281213Y6111D01*
X280598Y3114D01*
X280598Y3080D01*
X280588Y3034D01*
X280461Y-23D01*
X280466Y-56D01*
X280464Y-103D01*
X280829Y-3141D01*
X280840Y-3173D01*
X280845Y-3220D01*
X281693Y-6160D01*
X281709Y-6190D01*
X281722Y-6235D01*
X283030Y-9001D01*
X283047Y-9024D01*
X283057Y-9051D01*
X283106Y-9103D01*
X283149Y-9160D01*
X283174Y-9175D01*
X283193Y-9195D01*
X283259Y-9224D01*
X283321Y-9260D01*
X283349Y-9264D01*
X283376Y-9275D01*
X283447Y-9276D01*
X283518Y-9285D01*
X283546Y-9278D01*
G37*
D10*
X-150019Y252513D03*
X701Y164833D03*
X701Y9793D03*
X-150019Y-77888D03*
X-221519Y211213D03*
X-78519Y211213D03*
X-78519Y-36588D03*
X-221519Y-36588D03*
X149981Y252513D03*
X293081Y169913D03*
X293081Y4713D03*
X149981Y-77888D03*
X-293086Y169913D03*
X-293086Y4713D03*
X-293119Y87313D03*
D11*
X-148431Y202406D03*
D12*
X-211931Y54538D03*
X-211931Y37538D03*
D13*
X-204225Y76200D03*
X-221225Y76200D03*
X-156138Y161131D03*
X-139138Y161131D03*
D12*
X-156138Y176213D03*
X-139138Y176213D03*
D13*
X-191294Y120881D03*
X-191294Y137881D03*
X-176213Y120881D03*
X-176213Y137881D03*
D12*
X-162488Y7938D03*
X-145488Y7938D03*
D14*
X-230981Y120675D03*
X-230981Y139675D03*
X-208756Y120675D03*
X-208756Y139675D03*
D15*
X-164281Y-7938D03*
X-145281Y-7938D03*
D13*
X-251850Y121444D03*
X-268850Y121444D03*
D16*
X-239713Y80963D03*
X-239713Y55563D03*
X-239713Y30163D03*
D13*
X231775Y63269D03*
X231775Y46269D03*
D14*
X215106Y62681D03*
X215106Y43681D03*
D13*
X-73256Y27781D03*
X-90256Y27781D03*
D17*
X-906Y123825D03*
X-22906Y133325D03*
X-22906Y114325D03*
X1475Y57150D03*
X-20525Y66650D03*
X-20525Y47650D03*
D13*
X-73256Y104775D03*
X-90256Y104775D03*
D12*
X29369Y123263D03*
X29369Y140263D03*
X21431Y57713D03*
X21431Y40713D03*
D13*
X230981Y94688D03*
X230981Y111688D03*
D14*
X215106Y94481D03*
X215106Y113481D03*
D12*
X129150Y7938D03*
X112150Y7938D03*
D15*
X130150Y23813D03*
X111150Y23813D03*
D13*
X-73256Y58738D03*
X-90256Y58738D03*
X-73256Y44450D03*
X-90256Y44450D03*
X-73256Y72231D03*
X-90256Y72231D03*
X-73256Y86519D03*
X-90256Y86519D03*
D18*
X-182257Y99251D03*
X-177256Y99251D03*
X-172254Y99251D03*
X-167253Y99251D03*
X-162252Y99251D03*
X-157251Y99251D03*
X-152249Y99251D03*
X-147248Y99251D03*
X-142247Y99251D03*
X-137246Y99251D03*
X-132244Y99251D03*
X-127243Y99251D03*
D19*
X-120206Y92214D03*
X-120206Y87213D03*
X-120206Y82211D03*
X-120206Y77210D03*
X-120206Y72209D03*
X-120206Y67208D03*
X-120206Y62206D03*
X-120206Y57205D03*
X-120206Y52204D03*
X-120206Y47203D03*
X-120206Y42201D03*
X-120206Y37200D03*
D18*
X-127243Y30163D03*
X-132244Y30163D03*
X-137246Y30163D03*
X-142247Y30163D03*
X-147248Y30163D03*
X-152249Y30163D03*
X-157251Y30163D03*
X-162252Y30163D03*
X-167253Y30163D03*
X-172254Y30163D03*
X-177256Y30163D03*
X-182257Y30163D03*
D19*
X-189294Y37200D03*
X-189294Y42201D03*
X-189294Y47203D03*
X-189294Y52204D03*
X-189294Y57205D03*
X-189294Y62206D03*
X-189294Y67208D03*
X-189294Y72209D03*
X-189294Y77210D03*
X-189294Y82211D03*
X-189294Y87213D03*
X-189294Y92214D03*
D20*
X-154750Y64707D03*
D21*
X-158050Y124619D03*
X-146050Y124619D03*
X-134050Y124619D03*
M02*
