M48
;GenerationSoftware,Autodesk,EAGLE,9.6.1*%
;CreationDate,2022-12-15T11:01:42Z*%
FMAT,2
ICI,OFF
METRIC,TZ,000.000
T2C0.350
T1C1.016
%
G90
M71
T1
X-23971Y3016
X-14843Y20241
X-23971Y8096
X-23971Y5556
T2
X12938Y-238
X12938Y-1111
X2143Y3175
X2857Y14684
X-18494Y-1605
X-27622Y12144
X-16828Y20320
X-16907Y18018
X5953Y17701
X-10557Y15399
X-14049Y7461
X-16748Y7620
X-14049Y5477
X-16589Y5477
X-20003Y6112
X19288Y13017
X17542Y13017
X15557Y12938
X13573Y13017
X10557Y13097
X9049Y14526
X20320Y15319
X21907Y14367
X18494Y17859
X20876Y17939
X23654Y17304
X16828Y19685
X13573Y19844
X10478Y19764
X19368Y20161
X16907Y21590
X13573Y21749
X7937Y18812
X4366Y16589
X18653Y10239
X16510Y10398
X13494Y10716
X11192Y10954
X18733Y7302
X18733Y4524
X16351Y4683
X16431Y7302
X13811Y7302
X11112Y7223
X8969Y3096
X6826Y1191
X4128Y1746
X8652Y-1191
X15081Y-2302
X18256Y-2223
X23812Y-476
X25162Y2937
X21034Y2223
X26908Y8096
X26908Y11271
X25638Y14208
X-7302Y15954
X-4286Y16272
X-6906Y13573
X-4524Y13652
X-11351Y159
X-12779Y-2778
X-15081Y-4366
X-16431Y-3731
X-23654Y714
X-26352Y3651
X-25479Y873
X-26035Y15319
X-24924Y16986
X-19129Y17304
X-17304Y19050
X-10954Y16748
X-27702Y13573
X-3016Y1349
X10478Y-2778
X27067Y4207
X-13652Y14922
X-15954Y14208
X-3889Y10557
X1270Y11112
X3254Y10636
X4842Y11271
X-3492Y4604
X-4683Y3572
X714Y4445
X-635Y3969
X5318Y14049
X9366Y17542
X7620Y15796
X873Y13573
X-7779Y11668
X5159Y3889
X15161Y-4207
X17859Y-3889
X18574Y-714
X20479Y-2223
X24368Y1270
X24368Y13097
X25241Y16034
X18415Y8811
X16431Y8890
X18574Y11747
X16113Y11668
X13573Y11906
X11192Y5874
X13732Y5953
X17542Y5953
X-5794Y15081
X-22066Y15875
X-24844Y15557
X24209Y6350
X-26035Y2223
X-19050Y1191
X-22066Y1270
X6032Y-397
X21907Y18971
X11509Y20876
X-4683Y556
X-14049Y-3572
X-21431Y9446
X-17463Y17145
X-4048Y8255
X-2540Y8334
X3096Y8414
X4842Y8414
X-3254Y6588
X3969Y5953
X-22622Y8811
X-27305Y3413
X-7752Y-907
X-26875Y9958
X-19725Y-2364
X-19194Y21076
X16828Y16986
X16907Y556
X-9049Y1508
X-11509Y1508
X15002Y556
X15002Y17066
X6826Y6826
X6826Y8731
X6747Y10478
X13097Y17066
X25082Y6350
X24209Y9446
X25082Y9446
X-9094Y18746
M30