M48
;GenerationSoftware,Autodesk,EAGLE,9.6.2*%
;CreationDate,2022-09-12T13:38:07Z*%
FMAT,2
ICI,OFF
METRIC,TZ,000.000
T2C0.350
T1C1.016
%
G90
M71
T1
X5953Y14605
X15081Y31829
X5953Y19685
X5953Y17145
T2
X42863Y11351
X42863Y10478
X11430Y10160
X32067Y14764
X32782Y26273
X1587Y23971
X13335Y34449
X15161Y34449
X16907Y33655
X17859Y33099
X15875Y19050
X13176Y19209
X15875Y17066
X13335Y17066
X9922Y17701
X49212Y24606
X47466Y24606
X45482Y24527
X43498Y24606
X40481Y24686
X38973Y26114
X50244Y26908
X51832Y25956
X48419Y29448
X50800Y29527
X53578Y28892
X46752Y31274
X43498Y31432
X40402Y31353
X49292Y31750
X46831Y33179
X43498Y33338
X37862Y30401
X34290Y28178
X48577Y21828
X46434Y21987
X43418Y22304
X41116Y22542
X48657Y18891
X48657Y16113
X46276Y16272
X46355Y18891
X43736Y18891
X41037Y18812
X38894Y14684
X36751Y12779
X34052Y13335
X38576Y10398
X45006Y9287
X48181Y9366
X53737Y11112
X55086Y14526
X50959Y13811
X56832Y19685
X56832Y22860
X55562Y25797
X22622Y27543
X25638Y27861
X23019Y25162
X25400Y25241
X18574Y11747
X17145Y8811
X13256Y8096
X15319Y7461
X6271Y12303
X3572Y15240
X4445Y12462
X3889Y26908
X5001Y28575
X10795Y28892
X12621Y30639
X18971Y28337
X19288Y25717
X26908Y12938
X40402Y8811
X56991Y15796
X16272Y26511
X13970Y25797
X26035Y22146
X31194Y22701
X33179Y22225
X34766Y22860
X26432Y16192
X25241Y15161
X30639Y16034
X29289Y15557
X35243Y25638
X39291Y29131
X37544Y27384
X30797Y25162
X22146Y23257
X35084Y15478
X45085Y7382
X47784Y7699
X48498Y10874
X50403Y9366
X54292Y12859
X54292Y24686
X55166Y27622
X48339Y20399
X46355Y20479
X48498Y23336
X46037Y23257
X43498Y23495
X41116Y17463
X43656Y17542
X47466Y17542
X24130Y26670
X7858Y27464
X5080Y27146
X54134Y17939
X3889Y13811
X10874Y12779
X7858Y12859
X35957Y11192
X51832Y30559
X41434Y32464
X25082Y11986
X18177Y9843
X8493Y21034
X12462Y28734
X25876Y19844
X27384Y19923
X33020Y20003
X34766Y20003
X26670Y18177
X33893Y17542
X7302Y20399
X2619Y15002
X22172Y10682
X3049Y21547
X10199Y9224
X10730Y32665
X46752Y28575
X46831Y12144
X20876Y13097
X18415Y13097
X44926Y12144
X44926Y28654
X36751Y18415
X36751Y20320
X36671Y22066
X43021Y28654
X55007Y17939
X54134Y21034
X55007Y21034
X20831Y30335
M30