G04 EAGLE Gerber RS-274X export*
G75*
%MOMM*%
%FSLAX34Y34*%
%LPD*%
%INCopper Layer 2*%
%IPPOS*%
%AMOC8*
5,1,8,0,0,1.08239X$1,22.5*%
G01*
%ADD10C,0.756400*%
%ADD11C,0.806400*%
%ADD12C,0.203200*%
%ADD13C,0.706400*%

G36*
X84580Y-449060D02*
X84580Y-449060D01*
X84658Y-449059D01*
X84720Y-449041D01*
X84785Y-449031D01*
X84856Y-449000D01*
X84930Y-448977D01*
X84985Y-448942D01*
X85044Y-448915D01*
X85103Y-448865D01*
X85169Y-448823D01*
X85204Y-448780D01*
X85261Y-448732D01*
X85333Y-448624D01*
X85382Y-448564D01*
X170714Y-300825D01*
X170743Y-300753D01*
X170781Y-300685D01*
X170796Y-300622D01*
X170821Y-300561D01*
X170829Y-300484D01*
X170846Y-300409D01*
X170843Y-300343D01*
X170850Y-300278D01*
X170836Y-300202D01*
X170832Y-300125D01*
X170812Y-300072D01*
X170799Y-299999D01*
X170742Y-299883D01*
X170715Y-299810D01*
X87621Y-155617D01*
X87608Y-155601D01*
X87600Y-155583D01*
X87521Y-155490D01*
X87446Y-155393D01*
X87429Y-155381D01*
X87416Y-155366D01*
X87314Y-155298D01*
X87215Y-155226D01*
X87197Y-155220D01*
X87180Y-155209D01*
X87063Y-155172D01*
X86948Y-155130D01*
X86928Y-155129D01*
X86909Y-155123D01*
X86787Y-155120D01*
X86664Y-155112D01*
X86645Y-155116D01*
X86625Y-155115D01*
X86506Y-155146D01*
X86386Y-155173D01*
X86369Y-155182D01*
X86350Y-155187D01*
X86244Y-155250D01*
X86137Y-155308D01*
X86122Y-155322D01*
X86105Y-155333D01*
X86021Y-155422D01*
X85934Y-155508D01*
X85924Y-155525D01*
X85911Y-155540D01*
X85855Y-155649D01*
X85795Y-155756D01*
X85790Y-155775D01*
X85781Y-155793D01*
X85769Y-155866D01*
X85730Y-156032D01*
X85732Y-156084D01*
X85726Y-156124D01*
X85726Y-178105D01*
X85738Y-178192D01*
X85741Y-178279D01*
X85758Y-178332D01*
X85766Y-178387D01*
X85801Y-178466D01*
X85828Y-178550D01*
X85856Y-178589D01*
X85882Y-178646D01*
X85978Y-178759D01*
X86023Y-178823D01*
X101504Y-194304D01*
X101506Y-194305D01*
X101507Y-194307D01*
X101625Y-194395D01*
X101732Y-194475D01*
X101733Y-194476D01*
X101735Y-194477D01*
X101868Y-194527D01*
X101997Y-194576D01*
X101999Y-194577D01*
X102001Y-194577D01*
X102144Y-194589D01*
X102281Y-194600D01*
X102282Y-194600D01*
X102284Y-194600D01*
X102301Y-194596D01*
X102324Y-194591D01*
X104561Y-194591D01*
X106511Y-195399D01*
X108004Y-196892D01*
X108812Y-198842D01*
X108812Y-200954D01*
X108004Y-202904D01*
X106511Y-204397D01*
X104561Y-205205D01*
X102508Y-205205D01*
X102470Y-205210D01*
X102456Y-205209D01*
X102414Y-205217D01*
X102334Y-205220D01*
X102281Y-205237D01*
X102227Y-205245D01*
X102185Y-205263D01*
X102177Y-205265D01*
X102150Y-205279D01*
X102147Y-205280D01*
X102063Y-205307D01*
X102017Y-205338D01*
X101967Y-205361D01*
X101927Y-205394D01*
X101925Y-205396D01*
X101917Y-205404D01*
X101900Y-205417D01*
X101828Y-205466D01*
X101792Y-205509D01*
X101750Y-205544D01*
X101719Y-205591D01*
X101719Y-205592D01*
X101718Y-205592D01*
X101702Y-205617D01*
X101645Y-205685D01*
X101623Y-205735D01*
X101593Y-205781D01*
X101566Y-205865D01*
X101531Y-205945D01*
X101523Y-205999D01*
X101507Y-206052D01*
X101505Y-206111D01*
X101505Y-206112D01*
X101505Y-206118D01*
X101504Y-206140D01*
X101493Y-206227D01*
X101501Y-206281D01*
X101499Y-206336D01*
X101514Y-206391D01*
X101514Y-206397D01*
X101521Y-206417D01*
X101522Y-206421D01*
X101534Y-206508D01*
X101557Y-206558D01*
X101571Y-206611D01*
X101598Y-206656D01*
X101601Y-206667D01*
X101617Y-206689D01*
X101652Y-206766D01*
X101688Y-206808D01*
X101717Y-206856D01*
X101775Y-206911D01*
X101796Y-206940D01*
X101833Y-206977D01*
X101837Y-206982D01*
X101839Y-206983D01*
X103432Y-208576D01*
X104240Y-210526D01*
X104240Y-212638D01*
X103432Y-214588D01*
X101939Y-216081D01*
X99989Y-216889D01*
X97877Y-216889D01*
X95927Y-216081D01*
X94434Y-214588D01*
X93626Y-212638D01*
X93626Y-210429D01*
X93630Y-210413D01*
X93630Y-210411D01*
X93631Y-210409D01*
X93626Y-210270D01*
X93622Y-210129D01*
X93622Y-210127D01*
X93622Y-210125D01*
X93579Y-209993D01*
X93536Y-209858D01*
X93535Y-209856D01*
X93534Y-209855D01*
X93525Y-209842D01*
X93378Y-209622D01*
X93354Y-209602D01*
X93339Y-209581D01*
X76580Y-192822D01*
X76580Y-181153D01*
X76576Y-181123D01*
X76579Y-181094D01*
X76556Y-180983D01*
X76540Y-180871D01*
X76528Y-180844D01*
X76523Y-180816D01*
X76471Y-180715D01*
X76424Y-180612D01*
X76405Y-180589D01*
X76392Y-180563D01*
X76314Y-180481D01*
X76241Y-180395D01*
X76216Y-180378D01*
X76196Y-180357D01*
X76098Y-180300D01*
X76004Y-180237D01*
X75976Y-180228D01*
X75951Y-180213D01*
X75841Y-180185D01*
X75733Y-180151D01*
X75703Y-180151D01*
X75675Y-180143D01*
X75562Y-180147D01*
X75449Y-180144D01*
X75420Y-180151D01*
X75391Y-180152D01*
X75283Y-180187D01*
X75174Y-180216D01*
X75148Y-180231D01*
X75120Y-180240D01*
X75056Y-180285D01*
X74929Y-180361D01*
X74886Y-180407D01*
X74847Y-180435D01*
X74126Y-181156D01*
X72176Y-181964D01*
X70064Y-181964D01*
X68114Y-181156D01*
X66621Y-179663D01*
X65813Y-177713D01*
X65813Y-175601D01*
X66621Y-173651D01*
X68114Y-172158D01*
X70064Y-171350D01*
X72176Y-171350D01*
X74126Y-172158D01*
X74847Y-172879D01*
X74871Y-172897D01*
X74890Y-172919D01*
X74984Y-172982D01*
X75074Y-173050D01*
X75102Y-173061D01*
X75126Y-173077D01*
X75234Y-173111D01*
X75340Y-173151D01*
X75369Y-173154D01*
X75397Y-173163D01*
X75511Y-173166D01*
X75623Y-173175D01*
X75652Y-173169D01*
X75681Y-173170D01*
X75791Y-173141D01*
X75902Y-173119D01*
X75928Y-173106D01*
X75956Y-173098D01*
X76054Y-173040D01*
X76154Y-172988D01*
X76176Y-172968D01*
X76201Y-172953D01*
X76278Y-172870D01*
X76360Y-172792D01*
X76375Y-172767D01*
X76395Y-172746D01*
X76447Y-172645D01*
X76504Y-172547D01*
X76511Y-172519D01*
X76525Y-172492D01*
X76538Y-172415D01*
X76574Y-172272D01*
X76572Y-172209D01*
X76580Y-172161D01*
X76580Y-75006D01*
X76568Y-74919D01*
X76565Y-74832D01*
X76548Y-74779D01*
X76540Y-74724D01*
X76505Y-74645D01*
X76478Y-74561D01*
X76450Y-74522D01*
X76424Y-74465D01*
X76328Y-74352D01*
X76283Y-74288D01*
X39974Y-37979D01*
X39972Y-37978D01*
X39971Y-37976D01*
X39853Y-37888D01*
X39746Y-37808D01*
X39745Y-37807D01*
X39743Y-37806D01*
X39610Y-37756D01*
X39481Y-37707D01*
X39479Y-37706D01*
X39477Y-37706D01*
X39334Y-37694D01*
X39197Y-37683D01*
X39196Y-37683D01*
X39194Y-37683D01*
X39177Y-37687D01*
X39154Y-37692D01*
X36917Y-37692D01*
X34967Y-36884D01*
X33474Y-35391D01*
X32666Y-33441D01*
X32666Y-31329D01*
X33474Y-29379D01*
X34967Y-27886D01*
X36917Y-27078D01*
X39029Y-27078D01*
X40979Y-27886D01*
X42472Y-29379D01*
X43280Y-31329D01*
X43280Y-33538D01*
X43276Y-33554D01*
X43276Y-33556D01*
X43275Y-33558D01*
X43280Y-33697D01*
X43284Y-33838D01*
X43284Y-33840D01*
X43284Y-33842D01*
X43327Y-33974D01*
X43370Y-34109D01*
X43371Y-34111D01*
X43372Y-34112D01*
X43381Y-34126D01*
X43528Y-34345D01*
X43552Y-34365D01*
X43567Y-34386D01*
X44494Y-35313D01*
X44518Y-35331D01*
X44537Y-35353D01*
X44631Y-35416D01*
X44721Y-35484D01*
X44749Y-35494D01*
X44773Y-35511D01*
X44881Y-35545D01*
X44987Y-35585D01*
X45016Y-35588D01*
X45044Y-35596D01*
X45158Y-35599D01*
X45270Y-35609D01*
X45299Y-35603D01*
X45328Y-35604D01*
X45438Y-35575D01*
X45549Y-35553D01*
X45575Y-35539D01*
X45603Y-35532D01*
X45701Y-35474D01*
X45801Y-35422D01*
X45823Y-35402D01*
X45848Y-35387D01*
X45925Y-35304D01*
X46007Y-35226D01*
X46022Y-35201D01*
X46042Y-35179D01*
X46094Y-35078D01*
X46151Y-34981D01*
X46158Y-34952D01*
X46172Y-34926D01*
X46185Y-34849D01*
X46221Y-34705D01*
X46219Y-34643D01*
X46227Y-34595D01*
X46227Y-26198D01*
X46227Y-26196D01*
X46227Y-26195D01*
X46207Y-26054D01*
X46187Y-25916D01*
X46187Y-25915D01*
X46187Y-25913D01*
X46128Y-25785D01*
X46071Y-25657D01*
X46070Y-25656D01*
X46069Y-25654D01*
X45979Y-25548D01*
X45888Y-25440D01*
X45886Y-25439D01*
X45885Y-25438D01*
X45873Y-25430D01*
X45850Y-25415D01*
X44269Y-23834D01*
X43461Y-21884D01*
X43461Y-19772D01*
X44269Y-17822D01*
X45762Y-16329D01*
X47712Y-15521D01*
X49824Y-15521D01*
X51774Y-16329D01*
X53267Y-17822D01*
X54075Y-19772D01*
X54075Y-21884D01*
X53267Y-23834D01*
X51705Y-25396D01*
X51691Y-25404D01*
X51690Y-25406D01*
X51688Y-25406D01*
X51590Y-25511D01*
X51495Y-25611D01*
X51495Y-25613D01*
X51494Y-25614D01*
X51429Y-25739D01*
X51365Y-25864D01*
X51365Y-25865D01*
X51364Y-25867D01*
X51362Y-25882D01*
X51310Y-26143D01*
X51313Y-26173D01*
X51309Y-26198D01*
X51309Y-34341D01*
X51321Y-34428D01*
X51324Y-34515D01*
X51341Y-34568D01*
X51349Y-34623D01*
X51384Y-34702D01*
X51411Y-34786D01*
X51439Y-34825D01*
X51465Y-34882D01*
X51561Y-34995D01*
X51606Y-35059D01*
X85726Y-69179D01*
X85726Y-143342D01*
X85729Y-143362D01*
X85727Y-143382D01*
X85748Y-143502D01*
X85766Y-143623D01*
X85774Y-143642D01*
X85777Y-143661D01*
X85832Y-143771D01*
X85882Y-143883D01*
X85895Y-143898D01*
X85904Y-143916D01*
X85986Y-144006D01*
X86065Y-144100D01*
X86082Y-144111D01*
X86096Y-144126D01*
X86200Y-144189D01*
X86302Y-144257D01*
X86321Y-144263D01*
X86338Y-144274D01*
X86456Y-144306D01*
X86573Y-144343D01*
X86593Y-144344D01*
X86612Y-144349D01*
X86735Y-144347D01*
X86857Y-144351D01*
X86877Y-144345D01*
X86897Y-144345D01*
X87014Y-144310D01*
X87132Y-144279D01*
X87150Y-144269D01*
X87169Y-144263D01*
X87272Y-144196D01*
X87377Y-144133D01*
X87390Y-144119D01*
X87407Y-144108D01*
X87454Y-144051D01*
X87571Y-143926D01*
X87595Y-143880D01*
X87621Y-143849D01*
X171145Y1090D01*
X171173Y1162D01*
X171211Y1229D01*
X171226Y1293D01*
X171251Y1353D01*
X171258Y1430D01*
X171276Y1506D01*
X171273Y1571D01*
X171279Y1636D01*
X171266Y1712D01*
X171262Y1790D01*
X171242Y1842D01*
X171229Y1916D01*
X171171Y2031D01*
X171144Y2104D01*
X86484Y148744D01*
X86436Y148805D01*
X86397Y148872D01*
X86349Y148916D01*
X86309Y148968D01*
X86246Y149013D01*
X86189Y149066D01*
X86131Y149096D01*
X86079Y149134D01*
X86005Y149160D01*
X85936Y149196D01*
X85881Y149205D01*
X85811Y149230D01*
X85682Y149238D01*
X85605Y149251D01*
X-85551Y149251D01*
X-85628Y149240D01*
X-85706Y149239D01*
X-85768Y149221D01*
X-85833Y149211D01*
X-85904Y149180D01*
X-85978Y149157D01*
X-86033Y149122D01*
X-86092Y149095D01*
X-86151Y149045D01*
X-86217Y149003D01*
X-86252Y148960D01*
X-86309Y148912D01*
X-86381Y148804D01*
X-86430Y148744D01*
X-110967Y106243D01*
X-110971Y106234D01*
X-110977Y106226D01*
X-111024Y106103D01*
X-111074Y105980D01*
X-111075Y105970D01*
X-111078Y105961D01*
X-111089Y105828D01*
X-111103Y105697D01*
X-111101Y105687D01*
X-111102Y105677D01*
X-111076Y105548D01*
X-111052Y105417D01*
X-111048Y105408D01*
X-111046Y105399D01*
X-110985Y105281D01*
X-110926Y105162D01*
X-110919Y105155D01*
X-110915Y105146D01*
X-110824Y105050D01*
X-110734Y104952D01*
X-110726Y104947D01*
X-110719Y104940D01*
X-110605Y104874D01*
X-110492Y104804D01*
X-110482Y104801D01*
X-110474Y104796D01*
X-110346Y104764D01*
X-110217Y104729D01*
X-110208Y104729D01*
X-110198Y104726D01*
X-110066Y104731D01*
X-109933Y104732D01*
X-109924Y104735D01*
X-109914Y104735D01*
X-109788Y104776D01*
X-109661Y104814D01*
X-109653Y104820D01*
X-109643Y104823D01*
X-109597Y104856D01*
X-109422Y104969D01*
X-109399Y104997D01*
X-109370Y105018D01*
X-108416Y105972D01*
X-106466Y106780D01*
X-104257Y106780D01*
X-104241Y106776D01*
X-104239Y106776D01*
X-104237Y106775D01*
X-104098Y106780D01*
X-103957Y106784D01*
X-103955Y106784D01*
X-103953Y106784D01*
X-103821Y106827D01*
X-103686Y106870D01*
X-103684Y106871D01*
X-103683Y106872D01*
X-103670Y106881D01*
X-103450Y107028D01*
X-103430Y107052D01*
X-103409Y107067D01*
X-91250Y119226D01*
X6490Y119226D01*
X32950Y92766D01*
X32950Y69197D01*
X32966Y69083D01*
X32976Y68969D01*
X32986Y68943D01*
X32990Y68916D01*
X33037Y68811D01*
X33078Y68704D01*
X33094Y68682D01*
X33106Y68656D01*
X33180Y68569D01*
X33249Y68477D01*
X33272Y68460D01*
X33289Y68439D01*
X33385Y68376D01*
X33477Y68307D01*
X33503Y68297D01*
X33526Y68282D01*
X33636Y68247D01*
X33743Y68206D01*
X33771Y68204D01*
X33797Y68196D01*
X33912Y68193D01*
X34026Y68184D01*
X34051Y68189D01*
X34081Y68189D01*
X34338Y68256D01*
X34354Y68259D01*
X35675Y68807D01*
X37787Y68807D01*
X39737Y67999D01*
X41230Y66506D01*
X42038Y64556D01*
X42038Y62444D01*
X41230Y60494D01*
X39737Y59001D01*
X37787Y58193D01*
X35675Y58193D01*
X34354Y58741D01*
X34242Y58769D01*
X34133Y58804D01*
X34105Y58805D01*
X34078Y58812D01*
X33964Y58808D01*
X33849Y58811D01*
X33822Y58804D01*
X33794Y58804D01*
X33685Y58769D01*
X33574Y58740D01*
X33550Y58725D01*
X33523Y58717D01*
X33428Y58653D01*
X33329Y58594D01*
X33310Y58574D01*
X33287Y58559D01*
X33213Y58471D01*
X33135Y58387D01*
X33122Y58362D01*
X33104Y58341D01*
X33058Y58236D01*
X33005Y58134D01*
X33001Y58109D01*
X32989Y58081D01*
X32952Y57818D01*
X32950Y57803D01*
X32950Y38120D01*
X32962Y38033D01*
X32965Y37946D01*
X32982Y37893D01*
X32990Y37838D01*
X33025Y37759D01*
X33052Y37675D01*
X33080Y37636D01*
X33106Y37579D01*
X33202Y37466D01*
X33247Y37402D01*
X33940Y36709D01*
X33942Y36708D01*
X33943Y36706D01*
X34061Y36618D01*
X34168Y36538D01*
X34169Y36537D01*
X34171Y36536D01*
X34304Y36486D01*
X34433Y36437D01*
X34435Y36436D01*
X34437Y36436D01*
X34580Y36424D01*
X34717Y36413D01*
X34718Y36413D01*
X34720Y36413D01*
X34737Y36417D01*
X34760Y36422D01*
X36997Y36422D01*
X38947Y35614D01*
X40440Y34121D01*
X41248Y32171D01*
X41248Y30059D01*
X40440Y28109D01*
X38947Y26616D01*
X36997Y25808D01*
X34885Y25808D01*
X32935Y26616D01*
X32432Y27119D01*
X32386Y27154D01*
X32345Y27196D01*
X32273Y27239D01*
X32205Y27290D01*
X32151Y27311D01*
X32100Y27340D01*
X32018Y27361D01*
X31940Y27391D01*
X31881Y27396D01*
X31825Y27410D01*
X31740Y27407D01*
X31656Y27414D01*
X31599Y27403D01*
X31540Y27401D01*
X31460Y27375D01*
X31377Y27359D01*
X31326Y27332D01*
X31270Y27314D01*
X31214Y27273D01*
X31125Y27228D01*
X31053Y27159D01*
X30997Y27119D01*
X29859Y25981D01*
X27909Y25173D01*
X25797Y25173D01*
X23847Y25981D01*
X22354Y27474D01*
X21546Y29424D01*
X21546Y31536D01*
X22354Y33486D01*
X23916Y35048D01*
X23930Y35056D01*
X23931Y35058D01*
X23933Y35058D01*
X24031Y35163D01*
X24126Y35263D01*
X24126Y35265D01*
X24127Y35266D01*
X24192Y35391D01*
X24256Y35516D01*
X24256Y35517D01*
X24257Y35519D01*
X24259Y35534D01*
X24311Y35795D01*
X24308Y35825D01*
X24312Y35850D01*
X24312Y88768D01*
X24300Y88855D01*
X24297Y88942D01*
X24280Y88995D01*
X24272Y89050D01*
X24237Y89129D01*
X24210Y89213D01*
X24182Y89252D01*
X24156Y89309D01*
X24060Y89422D01*
X24015Y89486D01*
X13970Y99531D01*
X13878Y99600D01*
X13790Y99674D01*
X13765Y99685D01*
X13743Y99702D01*
X13635Y99743D01*
X13531Y99789D01*
X13503Y99793D01*
X13477Y99803D01*
X13363Y99812D01*
X13249Y99828D01*
X13221Y99824D01*
X13194Y99827D01*
X13081Y99804D01*
X12968Y99788D01*
X12942Y99776D01*
X12915Y99771D01*
X12813Y99718D01*
X12709Y99670D01*
X12687Y99652D01*
X12663Y99640D01*
X12580Y99561D01*
X12492Y99486D01*
X12479Y99465D01*
X12457Y99444D01*
X12322Y99215D01*
X12314Y99202D01*
X11484Y97197D01*
X9922Y95635D01*
X9908Y95627D01*
X9907Y95625D01*
X9905Y95625D01*
X9806Y95519D01*
X9712Y95420D01*
X9712Y95418D01*
X9711Y95417D01*
X9646Y95292D01*
X9582Y95167D01*
X9582Y95166D01*
X9581Y95164D01*
X9579Y95149D01*
X9527Y94888D01*
X9530Y94858D01*
X9526Y94833D01*
X9526Y-6249D01*
X9538Y-6335D01*
X9541Y-6423D01*
X9558Y-6475D01*
X9566Y-6530D01*
X9601Y-6610D01*
X9628Y-6693D01*
X9656Y-6732D01*
X9682Y-6790D01*
X9778Y-6903D01*
X9823Y-6967D01*
X11557Y-8701D01*
X11559Y-8702D01*
X11560Y-8703D01*
X11678Y-8791D01*
X11785Y-8872D01*
X11786Y-8872D01*
X11788Y-8874D01*
X11921Y-8924D01*
X12050Y-8973D01*
X12052Y-8973D01*
X12054Y-8974D01*
X12197Y-8985D01*
X12334Y-8997D01*
X12335Y-8996D01*
X12337Y-8996D01*
X12354Y-8992D01*
X12377Y-8988D01*
X14614Y-8988D01*
X16564Y-9796D01*
X18057Y-11289D01*
X18903Y-13332D01*
X18905Y-13340D01*
X18933Y-13404D01*
X18941Y-13424D01*
X18966Y-13501D01*
X18998Y-13548D01*
X19021Y-13600D01*
X19076Y-13665D01*
X19124Y-13737D01*
X19168Y-13773D01*
X19204Y-13817D01*
X19276Y-13864D01*
X19342Y-13920D01*
X19394Y-13943D01*
X19441Y-13974D01*
X19523Y-14000D01*
X19602Y-14035D01*
X19658Y-14043D01*
X19712Y-14060D01*
X19798Y-14062D01*
X19883Y-14074D01*
X19939Y-14066D01*
X19996Y-14067D01*
X20079Y-14046D01*
X20165Y-14033D01*
X20216Y-14010D01*
X20271Y-13996D01*
X20345Y-13952D01*
X20424Y-13916D01*
X20467Y-13879D01*
X20516Y-13850D01*
X20575Y-13788D01*
X20640Y-13732D01*
X20666Y-13690D01*
X20710Y-13643D01*
X20776Y-13514D01*
X20818Y-13447D01*
X21367Y-12122D01*
X22790Y-10699D01*
X24648Y-9929D01*
X26660Y-9929D01*
X28518Y-10699D01*
X29941Y-12122D01*
X30711Y-13980D01*
X30711Y-15992D01*
X29941Y-17850D01*
X28518Y-19273D01*
X26660Y-20043D01*
X24648Y-20043D01*
X22790Y-19273D01*
X21367Y-17850D01*
X20536Y-15844D01*
X20521Y-15819D01*
X20512Y-15791D01*
X20449Y-15697D01*
X20392Y-15599D01*
X20370Y-15579D01*
X20354Y-15555D01*
X20267Y-15482D01*
X20185Y-15404D01*
X20159Y-15391D01*
X20136Y-15372D01*
X20033Y-15326D01*
X19932Y-15274D01*
X19903Y-15268D01*
X19877Y-15256D01*
X19764Y-15241D01*
X19653Y-15219D01*
X19624Y-15221D01*
X19595Y-15217D01*
X19483Y-15234D01*
X19370Y-15243D01*
X19343Y-15254D01*
X19314Y-15258D01*
X19211Y-15305D01*
X19105Y-15345D01*
X19081Y-15363D01*
X19055Y-15375D01*
X18968Y-15449D01*
X18878Y-15517D01*
X18860Y-15540D01*
X18838Y-15559D01*
X18797Y-15626D01*
X18708Y-15745D01*
X18686Y-15803D01*
X18660Y-15844D01*
X18057Y-17301D01*
X16564Y-18793D01*
X14614Y-19601D01*
X12502Y-19601D01*
X11065Y-19006D01*
X11008Y-18991D01*
X10955Y-18968D01*
X10871Y-18956D01*
X10790Y-18935D01*
X10731Y-18937D01*
X10673Y-18929D01*
X10590Y-18941D01*
X10505Y-18943D01*
X10450Y-18961D01*
X10392Y-18969D01*
X10315Y-19004D01*
X10235Y-19030D01*
X10186Y-19062D01*
X10133Y-19086D01*
X10068Y-19141D01*
X9999Y-19188D01*
X9961Y-19233D01*
X9916Y-19271D01*
X9880Y-19329D01*
X9816Y-19406D01*
X9775Y-19497D01*
X9738Y-19555D01*
X9071Y-21167D01*
X7578Y-22660D01*
X5628Y-23468D01*
X3516Y-23468D01*
X1566Y-22660D01*
X73Y-21167D01*
X-735Y-19217D01*
X-735Y-17008D01*
X-731Y-16992D01*
X-731Y-16990D01*
X-730Y-16988D01*
X-735Y-16849D01*
X-739Y-16708D01*
X-739Y-16706D01*
X-739Y-16704D01*
X-782Y-16573D01*
X-825Y-16437D01*
X-826Y-16435D01*
X-827Y-16434D01*
X-836Y-16421D01*
X-983Y-16201D01*
X-1007Y-16181D01*
X-1022Y-16160D01*
X-3148Y-14034D01*
X-3148Y89766D01*
X-3152Y89796D01*
X-3149Y89825D01*
X-3172Y89936D01*
X-3188Y90048D01*
X-3200Y90075D01*
X-3205Y90103D01*
X-3258Y90204D01*
X-3304Y90307D01*
X-3323Y90330D01*
X-3336Y90356D01*
X-3414Y90438D01*
X-3487Y90524D01*
X-3512Y90541D01*
X-3532Y90562D01*
X-3630Y90619D01*
X-3724Y90682D01*
X-3752Y90691D01*
X-3777Y90706D01*
X-3887Y90733D01*
X-3995Y90768D01*
X-4025Y90768D01*
X-4053Y90776D01*
X-4166Y90772D01*
X-4279Y90775D01*
X-4308Y90768D01*
X-4337Y90767D01*
X-4445Y90732D01*
X-4554Y90703D01*
X-4580Y90688D01*
X-4608Y90679D01*
X-4672Y90634D01*
X-4799Y90558D01*
X-4842Y90512D01*
X-4881Y90484D01*
X-5953Y89412D01*
X-5967Y89404D01*
X-5968Y89402D01*
X-5970Y89402D01*
X-6068Y89297D01*
X-6163Y89197D01*
X-6163Y89195D01*
X-6164Y89194D01*
X-6230Y89067D01*
X-6293Y88944D01*
X-6293Y88943D01*
X-6294Y88941D01*
X-6296Y88926D01*
X-6348Y88665D01*
X-6345Y88635D01*
X-6349Y88610D01*
X-6349Y4028D01*
X-84195Y-73818D01*
X-84196Y-73820D01*
X-84198Y-73821D01*
X-84286Y-73939D01*
X-84366Y-74046D01*
X-84367Y-74047D01*
X-84368Y-74049D01*
X-84418Y-74182D01*
X-84467Y-74311D01*
X-84468Y-74313D01*
X-84468Y-74315D01*
X-84480Y-74458D01*
X-84491Y-74595D01*
X-84491Y-74596D01*
X-84491Y-74598D01*
X-84487Y-74615D01*
X-84482Y-74638D01*
X-84482Y-76875D01*
X-85290Y-78825D01*
X-86783Y-80318D01*
X-88733Y-81126D01*
X-90845Y-81126D01*
X-92804Y-80314D01*
X-92822Y-80293D01*
X-92916Y-80230D01*
X-93007Y-80162D01*
X-93034Y-80152D01*
X-93059Y-80136D01*
X-93167Y-80101D01*
X-93272Y-80061D01*
X-93302Y-80059D01*
X-93330Y-80050D01*
X-93443Y-80047D01*
X-93556Y-80037D01*
X-93585Y-80043D01*
X-93614Y-80043D01*
X-93723Y-80071D01*
X-93834Y-80093D01*
X-93861Y-80107D01*
X-93889Y-80114D01*
X-93986Y-80172D01*
X-94087Y-80224D01*
X-94108Y-80245D01*
X-94133Y-80260D01*
X-94211Y-80342D01*
X-94293Y-80420D01*
X-94308Y-80445D01*
X-94328Y-80467D01*
X-94379Y-80568D01*
X-94437Y-80665D01*
X-94444Y-80694D01*
X-94457Y-80720D01*
X-94470Y-80797D01*
X-94507Y-80941D01*
X-94505Y-81003D01*
X-94513Y-81051D01*
X-94513Y-107519D01*
X-94501Y-107605D01*
X-94498Y-107693D01*
X-94481Y-107745D01*
X-94473Y-107800D01*
X-94437Y-107880D01*
X-94410Y-107963D01*
X-94382Y-108002D01*
X-94357Y-108059D01*
X-94261Y-108173D01*
X-94215Y-108236D01*
X-75691Y-126761D01*
X-75691Y-170129D01*
X-75687Y-170159D01*
X-75690Y-170188D01*
X-75667Y-170299D01*
X-75651Y-170411D01*
X-75639Y-170438D01*
X-75634Y-170466D01*
X-75582Y-170567D01*
X-75535Y-170670D01*
X-75516Y-170693D01*
X-75503Y-170719D01*
X-75425Y-170801D01*
X-75352Y-170887D01*
X-75327Y-170904D01*
X-75307Y-170925D01*
X-75209Y-170982D01*
X-75115Y-171045D01*
X-75087Y-171054D01*
X-75062Y-171069D01*
X-74952Y-171097D01*
X-74844Y-171131D01*
X-74815Y-171131D01*
X-74786Y-171139D01*
X-74673Y-171135D01*
X-74560Y-171138D01*
X-74531Y-171131D01*
X-74502Y-171130D01*
X-74394Y-171095D01*
X-74285Y-171066D01*
X-74259Y-171051D01*
X-74231Y-171042D01*
X-74168Y-170997D01*
X-74040Y-170921D01*
X-73997Y-170875D01*
X-73958Y-170847D01*
X-73872Y-170761D01*
X-71922Y-169953D01*
X-69810Y-169953D01*
X-67860Y-170761D01*
X-66367Y-172254D01*
X-65559Y-174204D01*
X-65559Y-176316D01*
X-66367Y-178266D01*
X-67860Y-179759D01*
X-69810Y-180567D01*
X-71922Y-180567D01*
X-73872Y-179759D01*
X-73958Y-179673D01*
X-73982Y-179655D01*
X-74001Y-179633D01*
X-74095Y-179570D01*
X-74185Y-179502D01*
X-74213Y-179491D01*
X-74237Y-179475D01*
X-74345Y-179441D01*
X-74451Y-179401D01*
X-74480Y-179398D01*
X-74508Y-179389D01*
X-74621Y-179386D01*
X-74734Y-179377D01*
X-74763Y-179383D01*
X-74792Y-179382D01*
X-74902Y-179411D01*
X-75013Y-179433D01*
X-75039Y-179446D01*
X-75067Y-179454D01*
X-75164Y-179511D01*
X-75265Y-179564D01*
X-75287Y-179584D01*
X-75312Y-179599D01*
X-75389Y-179682D01*
X-75471Y-179760D01*
X-75486Y-179785D01*
X-75506Y-179806D01*
X-75558Y-179907D01*
X-75615Y-180005D01*
X-75622Y-180033D01*
X-75636Y-180060D01*
X-75649Y-180137D01*
X-75685Y-180280D01*
X-75683Y-180343D01*
X-75691Y-180391D01*
X-75691Y-189393D01*
X-77477Y-191179D01*
X-93466Y-207168D01*
X-93467Y-207170D01*
X-93469Y-207171D01*
X-93556Y-207287D01*
X-93637Y-207396D01*
X-93638Y-207397D01*
X-93639Y-207398D01*
X-93689Y-207531D01*
X-93738Y-207661D01*
X-93739Y-207663D01*
X-93739Y-207664D01*
X-93751Y-207810D01*
X-93762Y-207945D01*
X-93762Y-207946D01*
X-93762Y-207948D01*
X-93758Y-207963D01*
X-93753Y-207988D01*
X-93753Y-210225D01*
X-94561Y-212175D01*
X-96054Y-213668D01*
X-98004Y-214476D01*
X-100116Y-214476D01*
X-102066Y-213668D01*
X-103559Y-212175D01*
X-104367Y-210225D01*
X-104367Y-208633D01*
X-104375Y-208575D01*
X-104373Y-208517D01*
X-104395Y-208435D01*
X-104407Y-208351D01*
X-104430Y-208298D01*
X-104445Y-208242D01*
X-104488Y-208169D01*
X-104523Y-208092D01*
X-104561Y-208047D01*
X-104590Y-207997D01*
X-104652Y-207939D01*
X-104706Y-207875D01*
X-104755Y-207843D01*
X-104798Y-207803D01*
X-104873Y-207764D01*
X-104943Y-207717D01*
X-104999Y-207700D01*
X-105051Y-207673D01*
X-105119Y-207662D01*
X-105214Y-207632D01*
X-105314Y-207629D01*
X-105382Y-207618D01*
X-106847Y-207618D01*
X-108797Y-206810D01*
X-110290Y-205317D01*
X-111098Y-203367D01*
X-111098Y-201255D01*
X-110290Y-199305D01*
X-108797Y-197812D01*
X-106847Y-197004D01*
X-104638Y-197004D01*
X-104622Y-197008D01*
X-104620Y-197008D01*
X-104618Y-197009D01*
X-104479Y-197004D01*
X-104338Y-197000D01*
X-104336Y-197000D01*
X-104334Y-197000D01*
X-104202Y-196957D01*
X-104067Y-196914D01*
X-104065Y-196913D01*
X-104064Y-196912D01*
X-104051Y-196903D01*
X-103831Y-196756D01*
X-103811Y-196732D01*
X-103790Y-196717D01*
X-85134Y-178061D01*
X-85082Y-177991D01*
X-85022Y-177927D01*
X-84996Y-177878D01*
X-84963Y-177834D01*
X-84932Y-177752D01*
X-84892Y-177674D01*
X-84884Y-177627D01*
X-84862Y-177568D01*
X-84850Y-177420D01*
X-84837Y-177343D01*
X-84837Y-153386D01*
X-84840Y-153366D01*
X-84838Y-153346D01*
X-84859Y-153226D01*
X-84877Y-153105D01*
X-84885Y-153086D01*
X-84888Y-153067D01*
X-84943Y-152957D01*
X-84993Y-152845D01*
X-85006Y-152830D01*
X-85015Y-152812D01*
X-85097Y-152722D01*
X-85176Y-152628D01*
X-85193Y-152617D01*
X-85207Y-152602D01*
X-85311Y-152539D01*
X-85413Y-152471D01*
X-85432Y-152465D01*
X-85449Y-152454D01*
X-85567Y-152422D01*
X-85684Y-152385D01*
X-85704Y-152384D01*
X-85723Y-152379D01*
X-85846Y-152381D01*
X-85968Y-152378D01*
X-85988Y-152383D01*
X-86008Y-152383D01*
X-86125Y-152418D01*
X-86243Y-152449D01*
X-86261Y-152460D01*
X-86280Y-152465D01*
X-86383Y-152532D01*
X-86488Y-152595D01*
X-86501Y-152609D01*
X-86518Y-152620D01*
X-86565Y-152677D01*
X-86682Y-152802D01*
X-86706Y-152848D01*
X-86732Y-152879D01*
X-171060Y-299213D01*
X-171089Y-299285D01*
X-171126Y-299353D01*
X-171141Y-299416D01*
X-171166Y-299477D01*
X-171174Y-299554D01*
X-171191Y-299629D01*
X-171188Y-299695D01*
X-171194Y-299760D01*
X-171181Y-299836D01*
X-171177Y-299913D01*
X-171157Y-299966D01*
X-171144Y-300039D01*
X-171086Y-300155D01*
X-171059Y-300228D01*
X-85382Y-448564D01*
X-85334Y-448625D01*
X-85295Y-448692D01*
X-85247Y-448736D01*
X-85207Y-448788D01*
X-85144Y-448833D01*
X-85087Y-448886D01*
X-85029Y-448916D01*
X-84977Y-448954D01*
X-84904Y-448980D01*
X-84834Y-449016D01*
X-84779Y-449025D01*
X-84709Y-449050D01*
X-84580Y-449058D01*
X-84503Y-449071D01*
X84503Y-449071D01*
X84580Y-449060D01*
G37*
G36*
X-85756Y-147342D02*
X-85756Y-147342D01*
X-85736Y-147342D01*
X-85617Y-147312D01*
X-85497Y-147285D01*
X-85480Y-147276D01*
X-85461Y-147271D01*
X-85355Y-147208D01*
X-85248Y-147150D01*
X-85233Y-147136D01*
X-85216Y-147125D01*
X-85132Y-147036D01*
X-85045Y-146950D01*
X-85035Y-146933D01*
X-85022Y-146918D01*
X-84966Y-146809D01*
X-84906Y-146702D01*
X-84901Y-146683D01*
X-84892Y-146665D01*
X-84880Y-146592D01*
X-84841Y-146426D01*
X-84843Y-146374D01*
X-84837Y-146334D01*
X-84837Y-131394D01*
X-84849Y-131307D01*
X-84852Y-131220D01*
X-84869Y-131167D01*
X-84877Y-131112D01*
X-84912Y-131033D01*
X-84939Y-130949D01*
X-84967Y-130910D01*
X-84993Y-130853D01*
X-85089Y-130740D01*
X-85134Y-130676D01*
X-101466Y-114344D01*
X-103252Y-112558D01*
X-103252Y10958D01*
X-101466Y12744D01*
X-85731Y28479D01*
X-85730Y28481D01*
X-85728Y28482D01*
X-85642Y28597D01*
X-85560Y28707D01*
X-85559Y28708D01*
X-85558Y28710D01*
X-85508Y28843D01*
X-85459Y28972D01*
X-85458Y28974D01*
X-85458Y28976D01*
X-85446Y29119D01*
X-85435Y29256D01*
X-85435Y29257D01*
X-85435Y29259D01*
X-85439Y29276D01*
X-85444Y29299D01*
X-85444Y31536D01*
X-84636Y33486D01*
X-83724Y34398D01*
X-83689Y34444D01*
X-83647Y34485D01*
X-83604Y34557D01*
X-83553Y34625D01*
X-83532Y34679D01*
X-83503Y34730D01*
X-83482Y34811D01*
X-83452Y34890D01*
X-83447Y34949D01*
X-83433Y35005D01*
X-83436Y35090D01*
X-83429Y35174D01*
X-83440Y35231D01*
X-83442Y35290D01*
X-83468Y35370D01*
X-83484Y35452D01*
X-83511Y35504D01*
X-83529Y35560D01*
X-83569Y35616D01*
X-83615Y35705D01*
X-83684Y35777D01*
X-83724Y35833D01*
X-84610Y36720D01*
X-85418Y38670D01*
X-85418Y40781D01*
X-84610Y42732D01*
X-83118Y44224D01*
X-81167Y45032D01*
X-79056Y45032D01*
X-77106Y44224D01*
X-75613Y42732D01*
X-74805Y40781D01*
X-74805Y38670D01*
X-75613Y36720D01*
X-76524Y35808D01*
X-76560Y35761D01*
X-76602Y35721D01*
X-76645Y35648D01*
X-76695Y35581D01*
X-76716Y35526D01*
X-76746Y35476D01*
X-76767Y35394D01*
X-76797Y35315D01*
X-76801Y35257D01*
X-76816Y35200D01*
X-76813Y35116D01*
X-76820Y35032D01*
X-76809Y34975D01*
X-76807Y34916D01*
X-76781Y34836D01*
X-76764Y34753D01*
X-76737Y34701D01*
X-76719Y34646D01*
X-76679Y34589D01*
X-76633Y34501D01*
X-76565Y34428D01*
X-76524Y34372D01*
X-75638Y33486D01*
X-74830Y31536D01*
X-74830Y29424D01*
X-75638Y27474D01*
X-76839Y26273D01*
X-76874Y26226D01*
X-76917Y26186D01*
X-76960Y26113D01*
X-77010Y26046D01*
X-77031Y25991D01*
X-77061Y25941D01*
X-77081Y25859D01*
X-77111Y25780D01*
X-77116Y25722D01*
X-77131Y25665D01*
X-77128Y25581D01*
X-77135Y25497D01*
X-77123Y25439D01*
X-77122Y25381D01*
X-77096Y25301D01*
X-77079Y25218D01*
X-77052Y25166D01*
X-77034Y25110D01*
X-76994Y25054D01*
X-76948Y24966D01*
X-76879Y24893D01*
X-76839Y24837D01*
X-75765Y23763D01*
X-74957Y21813D01*
X-74957Y19701D01*
X-75765Y17751D01*
X-77258Y16258D01*
X-79208Y15450D01*
X-81417Y15450D01*
X-81433Y15454D01*
X-81435Y15454D01*
X-81437Y15455D01*
X-81576Y15450D01*
X-81717Y15446D01*
X-81719Y15446D01*
X-81721Y15446D01*
X-81853Y15403D01*
X-81988Y15360D01*
X-81990Y15359D01*
X-81991Y15358D01*
X-82004Y15349D01*
X-82224Y15202D01*
X-82244Y15178D01*
X-82265Y15163D01*
X-94215Y3212D01*
X-94268Y3143D01*
X-94328Y3079D01*
X-94353Y3029D01*
X-94386Y2985D01*
X-94417Y2904D01*
X-94457Y2826D01*
X-94465Y2778D01*
X-94488Y2720D01*
X-94500Y2572D01*
X-94513Y2495D01*
X-94513Y-60300D01*
X-94509Y-60329D01*
X-94511Y-60358D01*
X-94489Y-60469D01*
X-94473Y-60581D01*
X-94461Y-60608D01*
X-94455Y-60637D01*
X-94403Y-60738D01*
X-94357Y-60841D01*
X-94338Y-60863D01*
X-94324Y-60889D01*
X-94246Y-60971D01*
X-94173Y-61058D01*
X-94149Y-61074D01*
X-94128Y-61095D01*
X-94031Y-61153D01*
X-93936Y-61215D01*
X-93908Y-61224D01*
X-93883Y-61239D01*
X-93773Y-61267D01*
X-93665Y-61301D01*
X-93636Y-61302D01*
X-93608Y-61309D01*
X-93495Y-61306D01*
X-93381Y-61308D01*
X-93353Y-61301D01*
X-93323Y-61300D01*
X-93215Y-61265D01*
X-93106Y-61237D01*
X-93081Y-61222D01*
X-93053Y-61213D01*
X-92989Y-61167D01*
X-92862Y-61091D01*
X-92819Y-61046D01*
X-92780Y-61018D01*
X-92160Y-60398D01*
X-90210Y-59590D01*
X-88001Y-59590D01*
X-87985Y-59594D01*
X-87983Y-59594D01*
X-87981Y-59595D01*
X-87842Y-59590D01*
X-87701Y-59586D01*
X-87699Y-59586D01*
X-87697Y-59586D01*
X-87565Y-59543D01*
X-87430Y-59500D01*
X-87428Y-59499D01*
X-87427Y-59498D01*
X-87414Y-59489D01*
X-87194Y-59342D01*
X-87174Y-59318D01*
X-87153Y-59303D01*
X-17697Y10153D01*
X-17645Y10223D01*
X-17585Y10287D01*
X-17559Y10336D01*
X-17526Y10380D01*
X-17495Y10462D01*
X-17455Y10540D01*
X-17447Y10587D01*
X-17425Y10646D01*
X-17413Y10794D01*
X-17400Y10871D01*
X-17400Y87658D01*
X-17408Y87716D01*
X-17406Y87774D01*
X-17428Y87856D01*
X-17440Y87940D01*
X-17463Y87993D01*
X-17478Y88049D01*
X-17521Y88122D01*
X-17556Y88199D01*
X-17594Y88244D01*
X-17623Y88294D01*
X-17685Y88352D01*
X-17739Y88416D01*
X-17788Y88448D01*
X-17831Y88488D01*
X-17906Y88527D01*
X-17976Y88574D01*
X-18032Y88591D01*
X-18084Y88618D01*
X-18152Y88629D01*
X-18247Y88659D01*
X-18347Y88662D01*
X-18415Y88673D01*
X-20106Y88673D01*
X-22056Y89481D01*
X-23549Y90974D01*
X-24357Y92924D01*
X-24357Y95036D01*
X-23549Y96986D01*
X-22056Y98479D01*
X-20106Y99287D01*
X-17994Y99287D01*
X-16044Y98479D01*
X-14688Y97123D01*
X-14641Y97088D01*
X-14601Y97045D01*
X-14528Y97002D01*
X-14461Y96952D01*
X-14406Y96931D01*
X-14356Y96901D01*
X-14274Y96881D01*
X-14195Y96851D01*
X-14137Y96846D01*
X-14080Y96831D01*
X-13996Y96834D01*
X-13912Y96827D01*
X-13854Y96839D01*
X-13796Y96840D01*
X-13716Y96866D01*
X-13633Y96883D01*
X-13581Y96910D01*
X-13525Y96928D01*
X-13469Y96968D01*
X-13381Y97014D01*
X-13308Y97083D01*
X-13252Y97123D01*
X-11896Y98479D01*
X-9946Y99287D01*
X-7834Y99287D01*
X-5884Y98479D01*
X-4881Y97476D01*
X-4857Y97458D01*
X-4838Y97436D01*
X-4744Y97373D01*
X-4654Y97305D01*
X-4626Y97294D01*
X-4602Y97278D01*
X-4494Y97244D01*
X-4388Y97204D01*
X-4359Y97201D01*
X-4331Y97192D01*
X-4217Y97189D01*
X-4105Y97180D01*
X-4076Y97186D01*
X-4047Y97185D01*
X-3937Y97214D01*
X-3826Y97236D01*
X-3800Y97249D01*
X-3772Y97257D01*
X-3674Y97315D01*
X-3574Y97367D01*
X-3552Y97387D01*
X-3527Y97402D01*
X-3450Y97485D01*
X-3368Y97563D01*
X-3353Y97588D01*
X-3333Y97609D01*
X-3281Y97710D01*
X-3224Y97808D01*
X-3217Y97836D01*
X-3203Y97863D01*
X-3190Y97940D01*
X-3154Y98083D01*
X-3156Y98146D01*
X-3148Y98194D01*
X-3148Y101437D01*
X-3148Y101439D01*
X-3148Y101440D01*
X-3167Y101574D01*
X-3188Y101719D01*
X-3188Y101720D01*
X-3188Y101722D01*
X-3247Y101851D01*
X-3304Y101978D01*
X-3305Y101979D01*
X-3306Y101981D01*
X-3396Y102087D01*
X-3487Y102195D01*
X-3489Y102196D01*
X-3490Y102197D01*
X-3502Y102205D01*
X-3525Y102220D01*
X-5106Y103801D01*
X-5914Y105751D01*
X-5914Y107863D01*
X-5366Y109184D01*
X-5338Y109296D01*
X-5303Y109405D01*
X-5302Y109433D01*
X-5295Y109460D01*
X-5299Y109574D01*
X-5296Y109689D01*
X-5303Y109716D01*
X-5303Y109744D01*
X-5338Y109853D01*
X-5367Y109964D01*
X-5382Y109988D01*
X-5390Y110015D01*
X-5454Y110110D01*
X-5513Y110209D01*
X-5533Y110228D01*
X-5548Y110251D01*
X-5636Y110325D01*
X-5720Y110403D01*
X-5745Y110416D01*
X-5766Y110434D01*
X-5871Y110480D01*
X-5973Y110533D01*
X-5998Y110537D01*
X-6026Y110549D01*
X-6289Y110586D01*
X-6304Y110588D01*
X-79454Y110588D01*
X-79541Y110576D01*
X-79628Y110573D01*
X-79681Y110556D01*
X-79736Y110548D01*
X-79815Y110513D01*
X-79899Y110486D01*
X-79938Y110458D01*
X-79995Y110432D01*
X-80108Y110336D01*
X-80172Y110291D01*
X-95752Y94711D01*
X-95753Y94709D01*
X-95755Y94708D01*
X-95843Y94590D01*
X-95923Y94483D01*
X-95924Y94482D01*
X-95925Y94480D01*
X-95975Y94347D01*
X-96024Y94218D01*
X-96025Y94216D01*
X-96025Y94214D01*
X-96037Y94071D01*
X-96048Y93934D01*
X-96048Y93933D01*
X-96048Y93931D01*
X-96044Y93914D01*
X-96039Y93891D01*
X-96039Y91654D01*
X-96847Y89704D01*
X-98340Y88211D01*
X-100290Y87403D01*
X-102402Y87403D01*
X-104352Y88211D01*
X-105845Y89704D01*
X-106653Y91654D01*
X-106653Y93766D01*
X-106165Y94943D01*
X-106150Y95000D01*
X-106127Y95053D01*
X-106115Y95137D01*
X-106094Y95218D01*
X-106096Y95277D01*
X-106088Y95335D01*
X-106100Y95418D01*
X-106102Y95502D01*
X-106120Y95558D01*
X-106128Y95616D01*
X-106163Y95693D01*
X-106189Y95773D01*
X-106221Y95822D01*
X-106246Y95875D01*
X-106300Y95939D01*
X-106347Y96009D01*
X-106392Y96047D01*
X-106430Y96091D01*
X-106488Y96128D01*
X-106565Y96192D01*
X-106656Y96233D01*
X-106715Y96269D01*
X-108416Y96974D01*
X-109909Y98467D01*
X-110717Y100417D01*
X-110717Y102529D01*
X-110563Y102900D01*
X-110544Y102974D01*
X-110515Y103044D01*
X-110509Y103110D01*
X-110492Y103175D01*
X-110494Y103251D01*
X-110486Y103327D01*
X-110498Y103393D01*
X-110500Y103459D01*
X-110523Y103532D01*
X-110537Y103607D01*
X-110567Y103667D01*
X-110587Y103730D01*
X-110629Y103793D01*
X-110663Y103862D01*
X-110708Y103911D01*
X-110745Y103966D01*
X-110803Y104015D01*
X-110855Y104071D01*
X-110912Y104106D01*
X-110963Y104149D01*
X-111032Y104180D01*
X-111097Y104220D01*
X-111162Y104237D01*
X-111222Y104265D01*
X-111298Y104275D01*
X-111372Y104295D01*
X-111438Y104294D01*
X-111504Y104303D01*
X-111580Y104293D01*
X-111656Y104292D01*
X-111720Y104272D01*
X-111785Y104263D01*
X-111855Y104231D01*
X-111928Y104209D01*
X-111984Y104173D01*
X-112045Y104146D01*
X-112103Y104096D01*
X-112167Y104055D01*
X-112203Y104011D01*
X-112261Y103961D01*
X-112315Y103875D01*
X-112380Y103796D01*
X-171535Y1333D01*
X-171564Y1262D01*
X-171602Y1194D01*
X-171617Y1130D01*
X-171641Y1070D01*
X-171649Y993D01*
X-171667Y917D01*
X-171664Y852D01*
X-171670Y787D01*
X-171657Y711D01*
X-171653Y633D01*
X-171633Y581D01*
X-171620Y507D01*
X-171563Y392D01*
X-171536Y319D01*
X-86732Y-146841D01*
X-86719Y-146857D01*
X-86711Y-146875D01*
X-86632Y-146968D01*
X-86557Y-147065D01*
X-86540Y-147077D01*
X-86527Y-147092D01*
X-86425Y-147160D01*
X-86326Y-147232D01*
X-86308Y-147238D01*
X-86291Y-147249D01*
X-86174Y-147286D01*
X-86059Y-147328D01*
X-86039Y-147329D01*
X-86020Y-147335D01*
X-85898Y-147338D01*
X-85775Y-147346D01*
X-85756Y-147342D01*
G37*
%LPC*%
G36*
X110450Y-49630D02*
X110450Y-49630D01*
X108500Y-48822D01*
X107007Y-47329D01*
X106199Y-45379D01*
X106199Y-43170D01*
X106203Y-43154D01*
X106203Y-43152D01*
X106204Y-43150D01*
X106199Y-43011D01*
X106195Y-42870D01*
X106195Y-42868D01*
X106195Y-42866D01*
X106154Y-42740D01*
X106109Y-42599D01*
X106108Y-42597D01*
X106107Y-42596D01*
X106098Y-42583D01*
X105951Y-42363D01*
X105927Y-42343D01*
X105912Y-42322D01*
X78121Y-14531D01*
X78051Y-14479D01*
X77987Y-14419D01*
X77938Y-14394D01*
X77894Y-14360D01*
X77812Y-14329D01*
X77734Y-14289D01*
X77687Y-14281D01*
X77628Y-14259D01*
X77481Y-14247D01*
X77403Y-14234D01*
X67083Y-14234D01*
X67081Y-14234D01*
X67080Y-14234D01*
X66939Y-14254D01*
X66801Y-14274D01*
X66800Y-14274D01*
X66798Y-14275D01*
X66669Y-14333D01*
X66542Y-14390D01*
X66541Y-14391D01*
X66539Y-14392D01*
X66432Y-14483D01*
X66325Y-14574D01*
X66324Y-14575D01*
X66323Y-14576D01*
X66315Y-14589D01*
X66300Y-14611D01*
X64719Y-16192D01*
X62768Y-17000D01*
X60657Y-17000D01*
X58707Y-16192D01*
X57214Y-14699D01*
X56406Y-12749D01*
X56406Y-10638D01*
X57214Y-8687D01*
X58707Y-7194D01*
X60657Y-6386D01*
X61242Y-6386D01*
X61300Y-6378D01*
X61358Y-6380D01*
X61440Y-6358D01*
X61524Y-6347D01*
X61577Y-6323D01*
X61633Y-6308D01*
X61706Y-6265D01*
X61783Y-6230D01*
X61828Y-6193D01*
X61878Y-6163D01*
X61936Y-6101D01*
X62000Y-6047D01*
X62032Y-5998D01*
X62072Y-5955D01*
X62111Y-5880D01*
X62158Y-5810D01*
X62175Y-5754D01*
X62202Y-5702D01*
X62213Y-5634D01*
X62243Y-5539D01*
X62246Y-5439D01*
X62257Y-5371D01*
X62257Y-3636D01*
X63065Y-1686D01*
X64558Y-193D01*
X66508Y615D01*
X68620Y615D01*
X70570Y-193D01*
X72132Y-1755D01*
X72140Y-1769D01*
X72142Y-1770D01*
X72142Y-1772D01*
X72247Y-1870D01*
X72347Y-1965D01*
X72349Y-1965D01*
X72350Y-1966D01*
X72475Y-2031D01*
X72600Y-2095D01*
X72601Y-2095D01*
X72603Y-2096D01*
X72618Y-2098D01*
X72879Y-2150D01*
X72909Y-2147D01*
X72934Y-2151D01*
X87405Y-2151D01*
X118141Y-32887D01*
X118143Y-32888D01*
X118144Y-32890D01*
X118262Y-32978D01*
X118369Y-33058D01*
X118370Y-33059D01*
X118372Y-33060D01*
X118505Y-33110D01*
X118634Y-33159D01*
X118636Y-33160D01*
X118638Y-33160D01*
X118781Y-33172D01*
X118918Y-33183D01*
X118919Y-33183D01*
X118921Y-33183D01*
X118938Y-33179D01*
X118961Y-33174D01*
X121198Y-33174D01*
X123148Y-33982D01*
X124641Y-35475D01*
X125449Y-37425D01*
X125449Y-39537D01*
X124641Y-41487D01*
X123148Y-42980D01*
X121198Y-43788D01*
X119086Y-43788D01*
X118217Y-43427D01*
X118105Y-43399D01*
X117996Y-43364D01*
X117968Y-43363D01*
X117941Y-43356D01*
X117827Y-43360D01*
X117712Y-43357D01*
X117685Y-43364D01*
X117657Y-43365D01*
X117548Y-43400D01*
X117437Y-43429D01*
X117413Y-43443D01*
X117386Y-43451D01*
X117291Y-43515D01*
X117192Y-43574D01*
X117173Y-43594D01*
X117150Y-43610D01*
X117076Y-43697D01*
X116998Y-43781D01*
X116985Y-43806D01*
X116967Y-43827D01*
X116921Y-43932D01*
X116868Y-44034D01*
X116864Y-44059D01*
X116852Y-44087D01*
X116815Y-44351D01*
X116813Y-44365D01*
X116813Y-45379D01*
X116005Y-47329D01*
X114512Y-48822D01*
X112562Y-49630D01*
X110450Y-49630D01*
G37*
%LPD*%
%LPC*%
G36*
X-72761Y-37315D02*
X-72761Y-37315D01*
X-74619Y-36545D01*
X-76042Y-35122D01*
X-76812Y-33264D01*
X-76812Y-31252D01*
X-76042Y-29394D01*
X-75370Y-28721D01*
X-75335Y-28675D01*
X-75292Y-28634D01*
X-75249Y-28562D01*
X-75199Y-28494D01*
X-75178Y-28440D01*
X-75148Y-28389D01*
X-75128Y-28308D01*
X-75098Y-28229D01*
X-75093Y-28170D01*
X-75078Y-28114D01*
X-75081Y-28029D01*
X-75074Y-27945D01*
X-75086Y-27888D01*
X-75087Y-27829D01*
X-75113Y-27749D01*
X-75130Y-27667D01*
X-75157Y-27615D01*
X-75175Y-27559D01*
X-75215Y-27503D01*
X-75261Y-27414D01*
X-75330Y-27342D01*
X-75370Y-27286D01*
X-76042Y-26613D01*
X-76812Y-24755D01*
X-76812Y-22743D01*
X-76042Y-20885D01*
X-74516Y-19359D01*
X-74499Y-19335D01*
X-74476Y-19316D01*
X-74413Y-19222D01*
X-74345Y-19132D01*
X-74335Y-19104D01*
X-74319Y-19080D01*
X-74284Y-18972D01*
X-74244Y-18866D01*
X-74242Y-18837D01*
X-74233Y-18809D01*
X-74230Y-18695D01*
X-74220Y-18583D01*
X-74226Y-18554D01*
X-74225Y-18525D01*
X-74254Y-18415D01*
X-74276Y-18304D01*
X-74290Y-18278D01*
X-74297Y-18250D01*
X-74355Y-18152D01*
X-74407Y-18052D01*
X-74428Y-18030D01*
X-74443Y-18005D01*
X-74525Y-17928D01*
X-74603Y-17846D01*
X-74628Y-17831D01*
X-74650Y-17811D01*
X-74751Y-17759D01*
X-74848Y-17702D01*
X-74877Y-17695D01*
X-74903Y-17681D01*
X-74980Y-17668D01*
X-75124Y-17632D01*
X-75186Y-17634D01*
X-75234Y-17626D01*
X-77284Y-17626D01*
X-79234Y-16818D01*
X-80727Y-15325D01*
X-81535Y-13375D01*
X-81535Y-11263D01*
X-80727Y-9313D01*
X-79234Y-7820D01*
X-78877Y-7672D01*
X-78852Y-7657D01*
X-78824Y-7648D01*
X-78729Y-7585D01*
X-78632Y-7528D01*
X-78612Y-7506D01*
X-78587Y-7490D01*
X-78514Y-7403D01*
X-78437Y-7321D01*
X-78423Y-7295D01*
X-78404Y-7272D01*
X-78358Y-7169D01*
X-78307Y-7068D01*
X-78301Y-7040D01*
X-78289Y-7013D01*
X-78273Y-6901D01*
X-78252Y-6789D01*
X-78254Y-6760D01*
X-78250Y-6731D01*
X-78266Y-6619D01*
X-78276Y-6506D01*
X-78287Y-6479D01*
X-78291Y-6450D01*
X-78337Y-6347D01*
X-78378Y-6241D01*
X-78396Y-6217D01*
X-78408Y-6191D01*
X-78481Y-6105D01*
X-78550Y-6014D01*
X-78573Y-5997D01*
X-78592Y-5974D01*
X-78659Y-5933D01*
X-78777Y-5844D01*
X-78836Y-5822D01*
X-78877Y-5796D01*
X-80476Y-5134D01*
X-81969Y-3641D01*
X-82777Y-1691D01*
X-82777Y421D01*
X-81969Y2371D01*
X-80476Y3864D01*
X-78526Y4672D01*
X-76414Y4672D01*
X-74464Y3864D01*
X-72971Y2371D01*
X-72163Y421D01*
X-72163Y-1691D01*
X-72971Y-3641D01*
X-74464Y-5134D01*
X-74821Y-5282D01*
X-74846Y-5297D01*
X-74874Y-5306D01*
X-74969Y-5369D01*
X-75066Y-5426D01*
X-75086Y-5448D01*
X-75111Y-5464D01*
X-75184Y-5551D01*
X-75261Y-5633D01*
X-75275Y-5659D01*
X-75294Y-5682D01*
X-75340Y-5785D01*
X-75391Y-5886D01*
X-75397Y-5914D01*
X-75409Y-5941D01*
X-75425Y-6053D01*
X-75446Y-6165D01*
X-75444Y-6194D01*
X-75448Y-6223D01*
X-75432Y-6335D01*
X-75422Y-6448D01*
X-75411Y-6475D01*
X-75407Y-6504D01*
X-75361Y-6607D01*
X-75320Y-6713D01*
X-75302Y-6737D01*
X-75290Y-6763D01*
X-75217Y-6849D01*
X-75148Y-6940D01*
X-75125Y-6957D01*
X-75106Y-6980D01*
X-75039Y-7021D01*
X-74921Y-7110D01*
X-74862Y-7132D01*
X-74821Y-7158D01*
X-73222Y-7820D01*
X-71729Y-9313D01*
X-70921Y-11263D01*
X-70921Y-13375D01*
X-71729Y-15325D01*
X-73363Y-16959D01*
X-73381Y-16983D01*
X-73403Y-17002D01*
X-73466Y-17096D01*
X-73534Y-17186D01*
X-73545Y-17214D01*
X-73561Y-17238D01*
X-73595Y-17346D01*
X-73635Y-17452D01*
X-73638Y-17481D01*
X-73647Y-17509D01*
X-73650Y-17623D01*
X-73659Y-17735D01*
X-73653Y-17764D01*
X-73654Y-17793D01*
X-73625Y-17903D01*
X-73603Y-18014D01*
X-73590Y-18040D01*
X-73582Y-18068D01*
X-73524Y-18166D01*
X-73472Y-18266D01*
X-73452Y-18288D01*
X-73437Y-18313D01*
X-73354Y-18390D01*
X-73276Y-18472D01*
X-73251Y-18487D01*
X-73230Y-18507D01*
X-73129Y-18559D01*
X-73031Y-18616D01*
X-73003Y-18623D01*
X-72976Y-18637D01*
X-72899Y-18650D01*
X-72756Y-18686D01*
X-72693Y-18684D01*
X-72645Y-18692D01*
X-70749Y-18692D01*
X-68891Y-19462D01*
X-67468Y-20885D01*
X-66698Y-22743D01*
X-66698Y-24755D01*
X-67468Y-26613D01*
X-68140Y-27286D01*
X-68175Y-27332D01*
X-68218Y-27373D01*
X-68261Y-27446D01*
X-68311Y-27513D01*
X-68332Y-27567D01*
X-68362Y-27618D01*
X-68382Y-27700D01*
X-68412Y-27778D01*
X-68417Y-27837D01*
X-68432Y-27893D01*
X-68429Y-27978D01*
X-68436Y-28062D01*
X-68424Y-28119D01*
X-68423Y-28178D01*
X-68397Y-28258D01*
X-68380Y-28341D01*
X-68353Y-28392D01*
X-68335Y-28448D01*
X-68295Y-28504D01*
X-68249Y-28593D01*
X-68180Y-28665D01*
X-68140Y-28721D01*
X-67468Y-29394D01*
X-66698Y-31252D01*
X-66698Y-33264D01*
X-67468Y-35122D01*
X-68891Y-36545D01*
X-70749Y-37315D01*
X-72761Y-37315D01*
G37*
%LPD*%
%LPC*%
G36*
X21042Y-67029D02*
X21042Y-67029D01*
X19092Y-66221D01*
X17599Y-64728D01*
X16791Y-62778D01*
X16791Y-60666D01*
X17599Y-58716D01*
X19092Y-57223D01*
X21042Y-56415D01*
X23154Y-56415D01*
X25104Y-57223D01*
X26597Y-58716D01*
X26658Y-58864D01*
X26673Y-58890D01*
X26682Y-58917D01*
X26745Y-59011D01*
X26803Y-59109D01*
X26824Y-59129D01*
X26840Y-59154D01*
X26927Y-59226D01*
X27009Y-59304D01*
X27036Y-59318D01*
X27058Y-59337D01*
X27161Y-59383D01*
X27262Y-59434D01*
X27291Y-59440D01*
X27318Y-59452D01*
X27430Y-59468D01*
X27541Y-59489D01*
X27570Y-59487D01*
X27599Y-59491D01*
X27711Y-59475D01*
X27824Y-59465D01*
X27852Y-59454D01*
X27881Y-59450D01*
X27984Y-59404D01*
X28090Y-59363D01*
X28113Y-59345D01*
X28140Y-59333D01*
X28226Y-59260D01*
X28316Y-59191D01*
X28334Y-59168D01*
X28356Y-59149D01*
X28398Y-59082D01*
X28486Y-58964D01*
X28509Y-58905D01*
X28534Y-58864D01*
X28648Y-58589D01*
X30141Y-57096D01*
X32091Y-56288D01*
X34203Y-56288D01*
X36153Y-57096D01*
X37646Y-58589D01*
X38454Y-60539D01*
X38454Y-62651D01*
X37646Y-64601D01*
X36153Y-66094D01*
X34203Y-66902D01*
X32091Y-66902D01*
X30141Y-66094D01*
X28648Y-64601D01*
X28587Y-64453D01*
X28572Y-64427D01*
X28563Y-64400D01*
X28500Y-64306D01*
X28442Y-64208D01*
X28421Y-64188D01*
X28405Y-64163D01*
X28318Y-64091D01*
X28236Y-64013D01*
X28209Y-63999D01*
X28187Y-63980D01*
X28084Y-63934D01*
X27983Y-63883D01*
X27954Y-63877D01*
X27927Y-63865D01*
X27815Y-63849D01*
X27704Y-63828D01*
X27675Y-63830D01*
X27646Y-63826D01*
X27534Y-63842D01*
X27421Y-63852D01*
X27393Y-63863D01*
X27364Y-63867D01*
X27261Y-63913D01*
X27155Y-63954D01*
X27132Y-63972D01*
X27105Y-63984D01*
X27019Y-64057D01*
X26929Y-64126D01*
X26911Y-64149D01*
X26889Y-64168D01*
X26847Y-64235D01*
X26759Y-64353D01*
X26736Y-64412D01*
X26711Y-64453D01*
X26597Y-64728D01*
X25104Y-66221D01*
X23154Y-67029D01*
X21042Y-67029D01*
G37*
%LPD*%
%LPC*%
G36*
X129119Y-310615D02*
X129119Y-310615D01*
X127169Y-309807D01*
X125676Y-308314D01*
X124868Y-306364D01*
X124868Y-304252D01*
X125676Y-302302D01*
X127169Y-300809D01*
X129119Y-300001D01*
X131231Y-300001D01*
X133181Y-300809D01*
X134719Y-302347D01*
X134765Y-302382D01*
X134806Y-302424D01*
X134878Y-302467D01*
X134946Y-302518D01*
X135000Y-302538D01*
X135051Y-302568D01*
X135132Y-302589D01*
X135211Y-302619D01*
X135270Y-302624D01*
X135326Y-302638D01*
X135411Y-302635D01*
X135495Y-302642D01*
X135552Y-302631D01*
X135610Y-302629D01*
X135691Y-302603D01*
X135773Y-302586D01*
X135825Y-302560D01*
X135881Y-302542D01*
X135937Y-302501D01*
X136026Y-302455D01*
X136098Y-302387D01*
X136154Y-302347D01*
X137746Y-300755D01*
X139696Y-299947D01*
X141808Y-299947D01*
X143758Y-300755D01*
X145251Y-302248D01*
X146059Y-304198D01*
X146059Y-306309D01*
X145251Y-308260D01*
X143758Y-309753D01*
X141808Y-310561D01*
X139696Y-310561D01*
X137746Y-309753D01*
X136208Y-308215D01*
X136162Y-308180D01*
X136121Y-308138D01*
X136049Y-308095D01*
X135981Y-308044D01*
X135927Y-308023D01*
X135876Y-307994D01*
X135795Y-307973D01*
X135716Y-307943D01*
X135657Y-307938D01*
X135601Y-307924D01*
X135516Y-307926D01*
X135432Y-307919D01*
X135375Y-307931D01*
X135317Y-307933D01*
X135236Y-307959D01*
X135154Y-307975D01*
X135102Y-308002D01*
X135046Y-308020D01*
X134990Y-308060D01*
X134901Y-308106D01*
X134829Y-308175D01*
X134773Y-308215D01*
X133181Y-309807D01*
X131231Y-310615D01*
X129119Y-310615D01*
G37*
%LPD*%
%LPC*%
G36*
X-139359Y-314425D02*
X-139359Y-314425D01*
X-141309Y-313617D01*
X-142803Y-312123D01*
X-142850Y-312088D01*
X-142890Y-312045D01*
X-142963Y-312003D01*
X-143030Y-311952D01*
X-143085Y-311931D01*
X-143135Y-311902D01*
X-143217Y-311881D01*
X-143296Y-311851D01*
X-143354Y-311846D01*
X-143411Y-311831D01*
X-143495Y-311834D01*
X-143579Y-311827D01*
X-143636Y-311839D01*
X-143695Y-311840D01*
X-143775Y-311866D01*
X-143858Y-311883D01*
X-143910Y-311910D01*
X-143965Y-311928D01*
X-144022Y-311968D01*
X-144110Y-312014D01*
X-144183Y-312083D01*
X-144239Y-312123D01*
X-145729Y-313613D01*
X-147680Y-314421D01*
X-149791Y-314421D01*
X-151742Y-313613D01*
X-153234Y-312121D01*
X-154042Y-310170D01*
X-154042Y-308059D01*
X-153234Y-306109D01*
X-151742Y-304616D01*
X-149791Y-303808D01*
X-147680Y-303808D01*
X-145729Y-304616D01*
X-144235Y-306110D01*
X-144189Y-306145D01*
X-144148Y-306187D01*
X-144076Y-306230D01*
X-144008Y-306281D01*
X-143954Y-306302D01*
X-143903Y-306331D01*
X-143822Y-306352D01*
X-143743Y-306382D01*
X-143684Y-306387D01*
X-143628Y-306401D01*
X-143543Y-306399D01*
X-143459Y-306406D01*
X-143402Y-306394D01*
X-143343Y-306392D01*
X-143263Y-306366D01*
X-143181Y-306350D01*
X-143129Y-306323D01*
X-143073Y-306305D01*
X-143017Y-306265D01*
X-142928Y-306219D01*
X-142856Y-306150D01*
X-142800Y-306110D01*
X-141309Y-304619D01*
X-139359Y-303811D01*
X-137247Y-303811D01*
X-135297Y-304619D01*
X-133804Y-306112D01*
X-132996Y-308062D01*
X-132996Y-310174D01*
X-133804Y-312124D01*
X-135297Y-313617D01*
X-137247Y-314425D01*
X-139359Y-314425D01*
G37*
%LPD*%
%LPC*%
G36*
X-65191Y63273D02*
X-65191Y63273D01*
X-67141Y64081D01*
X-68634Y65574D01*
X-69442Y67524D01*
X-69442Y69636D01*
X-68634Y71586D01*
X-67405Y72815D01*
X-67370Y72862D01*
X-67327Y72902D01*
X-67284Y72975D01*
X-67234Y73042D01*
X-67213Y73097D01*
X-67183Y73147D01*
X-67163Y73229D01*
X-67133Y73308D01*
X-67128Y73366D01*
X-67113Y73423D01*
X-67116Y73507D01*
X-67109Y73591D01*
X-67121Y73649D01*
X-67122Y73707D01*
X-67148Y73787D01*
X-67165Y73870D01*
X-67192Y73922D01*
X-67210Y73978D01*
X-67250Y74034D01*
X-67296Y74122D01*
X-67365Y74195D01*
X-67405Y74251D01*
X-68507Y75353D01*
X-69315Y77303D01*
X-69315Y79415D01*
X-68507Y81365D01*
X-67014Y82858D01*
X-65064Y83666D01*
X-62952Y83666D01*
X-61002Y82858D01*
X-59509Y81365D01*
X-58701Y79415D01*
X-58701Y77303D01*
X-59509Y75353D01*
X-60738Y74124D01*
X-60773Y74077D01*
X-60816Y74037D01*
X-60859Y73964D01*
X-60909Y73897D01*
X-60930Y73842D01*
X-60960Y73792D01*
X-60980Y73710D01*
X-61010Y73631D01*
X-61015Y73573D01*
X-61030Y73516D01*
X-61027Y73432D01*
X-61034Y73348D01*
X-61022Y73290D01*
X-61021Y73232D01*
X-60995Y73152D01*
X-60978Y73069D01*
X-60951Y73017D01*
X-60933Y72961D01*
X-60893Y72905D01*
X-60847Y72817D01*
X-60778Y72744D01*
X-60738Y72688D01*
X-59636Y71586D01*
X-58828Y69636D01*
X-58828Y67524D01*
X-59636Y65574D01*
X-61129Y64081D01*
X-63079Y63273D01*
X-65191Y63273D01*
G37*
%LPD*%
%LPC*%
G36*
X-82794Y-424919D02*
X-82794Y-424919D01*
X-84652Y-424149D01*
X-86075Y-422726D01*
X-86845Y-420868D01*
X-86845Y-418856D01*
X-86075Y-416998D01*
X-84652Y-415575D01*
X-82794Y-414805D01*
X-81510Y-414805D01*
X-81452Y-414797D01*
X-81394Y-414799D01*
X-81312Y-414777D01*
X-81228Y-414765D01*
X-81175Y-414742D01*
X-81119Y-414727D01*
X-81046Y-414684D01*
X-80969Y-414649D01*
X-80924Y-414611D01*
X-80874Y-414582D01*
X-80816Y-414520D01*
X-80752Y-414466D01*
X-80720Y-414417D01*
X-80680Y-414374D01*
X-80641Y-414299D01*
X-80594Y-414229D01*
X-80577Y-414173D01*
X-80550Y-414121D01*
X-80539Y-414053D01*
X-80509Y-413958D01*
X-80506Y-413858D01*
X-80495Y-413790D01*
X-80495Y-412633D01*
X-79725Y-410775D01*
X-78302Y-409352D01*
X-76444Y-408582D01*
X-74432Y-408582D01*
X-72574Y-409352D01*
X-71151Y-410775D01*
X-70381Y-412633D01*
X-70381Y-414645D01*
X-71151Y-416503D01*
X-72574Y-417926D01*
X-74432Y-418696D01*
X-75716Y-418696D01*
X-75774Y-418704D01*
X-75832Y-418702D01*
X-75914Y-418724D01*
X-75998Y-418736D01*
X-76051Y-418759D01*
X-76107Y-418774D01*
X-76180Y-418817D01*
X-76257Y-418852D01*
X-76302Y-418890D01*
X-76352Y-418919D01*
X-76410Y-418981D01*
X-76474Y-419035D01*
X-76506Y-419084D01*
X-76546Y-419127D01*
X-76585Y-419202D01*
X-76632Y-419272D01*
X-76649Y-419328D01*
X-76676Y-419380D01*
X-76687Y-419448D01*
X-76717Y-419543D01*
X-76720Y-419643D01*
X-76731Y-419711D01*
X-76731Y-420868D01*
X-77501Y-422726D01*
X-78924Y-424149D01*
X-80782Y-424919D01*
X-82794Y-424919D01*
G37*
%LPD*%
%LPC*%
G36*
X72781Y-428348D02*
X72781Y-428348D01*
X70923Y-427578D01*
X69500Y-426155D01*
X68730Y-424297D01*
X68730Y-423648D01*
X68723Y-423597D01*
X68724Y-423574D01*
X68723Y-423570D01*
X68724Y-423532D01*
X68702Y-423450D01*
X68690Y-423366D01*
X68667Y-423313D01*
X68652Y-423257D01*
X68609Y-423184D01*
X68574Y-423107D01*
X68536Y-423062D01*
X68507Y-423012D01*
X68445Y-422954D01*
X68391Y-422890D01*
X68342Y-422858D01*
X68299Y-422818D01*
X68224Y-422779D01*
X68154Y-422732D01*
X68098Y-422715D01*
X68046Y-422688D01*
X67978Y-422677D01*
X67883Y-422647D01*
X67783Y-422644D01*
X67715Y-422633D01*
X67066Y-422633D01*
X65208Y-421863D01*
X63785Y-420440D01*
X63015Y-418582D01*
X63015Y-416570D01*
X63785Y-414712D01*
X65208Y-413289D01*
X67066Y-412519D01*
X69078Y-412519D01*
X70936Y-413289D01*
X72359Y-414712D01*
X73129Y-416570D01*
X73129Y-417219D01*
X73137Y-417277D01*
X73135Y-417335D01*
X73157Y-417417D01*
X73169Y-417501D01*
X73192Y-417554D01*
X73207Y-417610D01*
X73250Y-417683D01*
X73285Y-417760D01*
X73323Y-417805D01*
X73352Y-417855D01*
X73414Y-417913D01*
X73468Y-417977D01*
X73517Y-418009D01*
X73560Y-418049D01*
X73635Y-418088D01*
X73705Y-418135D01*
X73761Y-418152D01*
X73813Y-418179D01*
X73881Y-418190D01*
X73976Y-418220D01*
X74076Y-418223D01*
X74144Y-418234D01*
X74793Y-418234D01*
X76651Y-419004D01*
X78074Y-420427D01*
X78844Y-422285D01*
X78844Y-424297D01*
X78074Y-426155D01*
X76651Y-427578D01*
X74793Y-428348D01*
X72781Y-428348D01*
G37*
%LPD*%
%LPC*%
G36*
X-50635Y86137D02*
X-50635Y86137D01*
X-52678Y86983D01*
X-54241Y88546D01*
X-55087Y90589D01*
X-55087Y92799D01*
X-54241Y94842D01*
X-52678Y96405D01*
X-50635Y97251D01*
X-48425Y97251D01*
X-46382Y96405D01*
X-44819Y94842D01*
X-43973Y92799D01*
X-43973Y90589D01*
X-44819Y88546D01*
X-46382Y86983D01*
X-48425Y86137D01*
X-50635Y86137D01*
G37*
%LPD*%
%LPC*%
G36*
X44791Y129440D02*
X44791Y129440D01*
X42841Y130248D01*
X41348Y131741D01*
X40540Y133691D01*
X40540Y135803D01*
X41348Y137753D01*
X42841Y139246D01*
X44791Y140054D01*
X46903Y140054D01*
X48853Y139246D01*
X50346Y137753D01*
X51154Y135803D01*
X51154Y133691D01*
X50346Y131741D01*
X48853Y130248D01*
X46903Y129440D01*
X44791Y129440D01*
G37*
%LPD*%
%LPC*%
G36*
X-35854Y127602D02*
X-35854Y127602D01*
X-37804Y128410D01*
X-39297Y129903D01*
X-40105Y131853D01*
X-40105Y133964D01*
X-39297Y135915D01*
X-37804Y137408D01*
X-35854Y138216D01*
X-33742Y138216D01*
X-31792Y137408D01*
X-30299Y135915D01*
X-29491Y133964D01*
X-29491Y131853D01*
X-30299Y129903D01*
X-31792Y128410D01*
X-33742Y127602D01*
X-35854Y127602D01*
G37*
%LPD*%
%LPC*%
G36*
X-70017Y125630D02*
X-70017Y125630D01*
X-71967Y126438D01*
X-73460Y127931D01*
X-74268Y129881D01*
X-74268Y131993D01*
X-73460Y133943D01*
X-71967Y135436D01*
X-70017Y136244D01*
X-67905Y136244D01*
X-65955Y135436D01*
X-64462Y133943D01*
X-63654Y131993D01*
X-63654Y129881D01*
X-64462Y127931D01*
X-65955Y126438D01*
X-67905Y125630D01*
X-70017Y125630D01*
G37*
%LPD*%
%LPC*%
G36*
X69810Y118264D02*
X69810Y118264D01*
X67860Y119072D01*
X66367Y120565D01*
X65559Y122515D01*
X65559Y124627D01*
X66367Y126577D01*
X67860Y128070D01*
X69810Y128878D01*
X71922Y128878D01*
X73872Y128070D01*
X75365Y126577D01*
X76173Y124627D01*
X76173Y122515D01*
X75365Y120565D01*
X73872Y119072D01*
X71922Y118264D01*
X69810Y118264D01*
G37*
%LPD*%
%LPC*%
G36*
X-96941Y53875D02*
X-96941Y53875D01*
X-98891Y54683D01*
X-100384Y56176D01*
X-101192Y58126D01*
X-101192Y60238D01*
X-100384Y62188D01*
X-98891Y63681D01*
X-96941Y64489D01*
X-94829Y64489D01*
X-92879Y63681D01*
X-91386Y62188D01*
X-90578Y60238D01*
X-90578Y58126D01*
X-91386Y56176D01*
X-92879Y54683D01*
X-94829Y53875D01*
X-96941Y53875D01*
G37*
%LPD*%
%LPC*%
G36*
X114514Y31523D02*
X114514Y31523D01*
X112564Y32331D01*
X111071Y33824D01*
X110263Y35774D01*
X110263Y37886D01*
X111071Y39836D01*
X112564Y41329D01*
X114514Y42137D01*
X116626Y42137D01*
X118576Y41329D01*
X120069Y39836D01*
X120877Y37886D01*
X120877Y35774D01*
X120069Y33824D01*
X118576Y32331D01*
X116626Y31523D01*
X114514Y31523D01*
G37*
%LPD*%
%LPC*%
G36*
X-98719Y25808D02*
X-98719Y25808D01*
X-100669Y26616D01*
X-102162Y28109D01*
X-102970Y30059D01*
X-102970Y32171D01*
X-102162Y34121D01*
X-100669Y35614D01*
X-98719Y36422D01*
X-96607Y36422D01*
X-94657Y35614D01*
X-93164Y34121D01*
X-92356Y32171D01*
X-92356Y30059D01*
X-93164Y28109D01*
X-94657Y26616D01*
X-96607Y25808D01*
X-98719Y25808D01*
G37*
%LPD*%
%LPC*%
G36*
X-53761Y20347D02*
X-53761Y20347D01*
X-55711Y21155D01*
X-57204Y22648D01*
X-58012Y24598D01*
X-58012Y26710D01*
X-57204Y28660D01*
X-55711Y30153D01*
X-53761Y30961D01*
X-51649Y30961D01*
X-49699Y30153D01*
X-48206Y28660D01*
X-47398Y26710D01*
X-47398Y24598D01*
X-48206Y22648D01*
X-49699Y21155D01*
X-51649Y20347D01*
X-53761Y20347D01*
G37*
%LPD*%
%LPC*%
G36*
X-145963Y-13181D02*
X-145963Y-13181D01*
X-147913Y-12373D01*
X-149406Y-10880D01*
X-150214Y-8930D01*
X-150214Y-6818D01*
X-149406Y-4868D01*
X-147913Y-3375D01*
X-145963Y-2567D01*
X-143851Y-2567D01*
X-141901Y-3375D01*
X-140408Y-4868D01*
X-139600Y-6818D01*
X-139600Y-8930D01*
X-140408Y-10880D01*
X-141901Y-12373D01*
X-143851Y-13181D01*
X-145963Y-13181D01*
G37*
%LPD*%
%LPC*%
G36*
X-929Y-50265D02*
X-929Y-50265D01*
X-2879Y-49457D01*
X-4372Y-47964D01*
X-5180Y-46014D01*
X-5180Y-43902D01*
X-4372Y-41952D01*
X-2879Y-40459D01*
X-929Y-39651D01*
X1183Y-39651D01*
X3133Y-40459D01*
X4626Y-41952D01*
X5434Y-43902D01*
X5434Y-46014D01*
X4626Y-47964D01*
X3133Y-49457D01*
X1183Y-50265D01*
X-929Y-50265D01*
G37*
%LPD*%
%LPC*%
G36*
X147457Y4087D02*
X147457Y4087D01*
X145599Y4857D01*
X144176Y6280D01*
X143406Y8138D01*
X143406Y10150D01*
X144176Y12008D01*
X145599Y13431D01*
X147457Y14201D01*
X149469Y14201D01*
X151327Y13431D01*
X152750Y12008D01*
X153520Y10150D01*
X153520Y8138D01*
X152750Y6280D01*
X151327Y4857D01*
X149469Y4087D01*
X147457Y4087D01*
G37*
%LPD*%
%LPC*%
G36*
X-1006Y-188826D02*
X-1006Y-188826D01*
X-2864Y-188056D01*
X-4287Y-186633D01*
X-5057Y-184775D01*
X-5057Y-182763D01*
X-4287Y-180905D01*
X-2864Y-179482D01*
X-1006Y-178712D01*
X1006Y-178712D01*
X2864Y-179482D01*
X4287Y-180905D01*
X5057Y-182763D01*
X5057Y-184775D01*
X4287Y-186633D01*
X2864Y-188056D01*
X1006Y-188826D01*
X-1006Y-188826D01*
G37*
%LPD*%
%LPC*%
G36*
X-1006Y-202415D02*
X-1006Y-202415D01*
X-2864Y-201645D01*
X-4287Y-200222D01*
X-5057Y-198364D01*
X-5057Y-196352D01*
X-4287Y-194494D01*
X-2864Y-193071D01*
X-1006Y-192301D01*
X1006Y-192301D01*
X2864Y-193071D01*
X4287Y-194494D01*
X5057Y-196352D01*
X5057Y-198364D01*
X4287Y-200222D01*
X2864Y-201645D01*
X1006Y-202415D01*
X-1006Y-202415D01*
G37*
%LPD*%
D10*
X-34798Y132909D03*
X70866Y123571D03*
X-97663Y31115D03*
X-95885Y59182D03*
D11*
X-49530Y91694D03*
D10*
X48768Y-20828D03*
D12*
X48768Y-35814D02*
X83185Y-70231D01*
X48768Y-35814D02*
X48768Y-20828D01*
X83185Y-179578D02*
X103505Y-199898D01*
D10*
X103505Y-199898D03*
D12*
X83185Y-179578D02*
X83185Y-70231D01*
D10*
X13558Y-14295D03*
D12*
X6985Y-7722D01*
X6985Y100203D01*
D10*
X6985Y100203D03*
X37973Y-32385D03*
D12*
X79121Y-73533D01*
X79121Y-191770D02*
X98933Y-211582D01*
D10*
X98933Y-211582D03*
D12*
X79121Y-191770D02*
X79121Y-73533D01*
D10*
X4572Y-18161D03*
D12*
X-607Y-12982D01*
X-607Y106807D01*
D10*
X-607Y106807D03*
X67564Y-4692D03*
D12*
X86353Y-4692D01*
X120142Y-38481D01*
D10*
X120142Y-38481D03*
X61713Y-11693D03*
D12*
X78876Y-11693D01*
X111506Y-44323D01*
D10*
X111506Y-44323D03*
X26853Y30480D03*
D12*
X26853Y90241D01*
D10*
X-101346Y92710D03*
D12*
X-80927Y113129D02*
X3965Y113129D01*
X-80927Y113129D02*
X-101346Y92710D01*
X3965Y113129D02*
X26853Y90241D01*
D10*
X-19050Y93980D03*
D12*
X-14859Y89789D01*
X-14859Y9398D01*
X-89154Y-64897D01*
D10*
X-89154Y-64897D03*
X-8890Y93980D03*
D12*
X-8890Y5080D01*
X-89789Y-75819D01*
D10*
X-89789Y-75819D03*
X33147Y-61595D03*
X22098Y-61722D03*
X35941Y31115D03*
D12*
X30409Y36647D01*
X30409Y91714D02*
X5438Y116685D01*
X30409Y91714D02*
X30409Y36647D01*
X-90198Y116685D02*
X-105410Y101473D01*
D10*
X-105410Y101473D03*
D12*
X-90198Y116685D02*
X5438Y116685D01*
D10*
X115570Y36830D03*
X-80264Y20757D03*
D12*
X-97054Y3968D01*
X-97054Y-108992D01*
D10*
X-99060Y-209169D03*
D12*
X-78232Y-127813D02*
X-97054Y-108992D01*
X-78232Y-127813D02*
X-78232Y-188341D01*
X-99060Y-209169D01*
D10*
X-80137Y30480D03*
D12*
X-100711Y9906D01*
X-100711Y-111506D02*
X-82296Y-129921D01*
X-82296Y-178816D01*
X-105791Y-202311D01*
D10*
X-105791Y-202311D03*
D12*
X-100711Y-111506D02*
X-100711Y9906D01*
D13*
X0Y-183769D03*
X0Y-197358D03*
D10*
X-52705Y25654D03*
X127Y-44958D03*
X-77470Y-635D03*
X-76228Y-12319D03*
X-80112Y39726D03*
X36731Y63500D03*
X-64135Y68580D03*
D13*
X-81788Y-419862D03*
X-75438Y-413639D03*
X73787Y-423291D03*
X68072Y-417576D03*
X25654Y-14986D03*
X-71755Y-32258D03*
X-71755Y-23749D03*
X148463Y9144D03*
D10*
X-68961Y130937D03*
X45847Y134747D03*
X-144907Y-7874D03*
X140752Y-305254D03*
X130175Y-305308D03*
X-148735Y-309115D03*
X-138303Y-309118D03*
X-64008Y78359D03*
X-70866Y-175260D03*
X71120Y-176657D03*
D13*
X-55880Y-199263D03*
X59055Y-268859D03*
X-55753Y-179451D03*
X-56007Y-189865D03*
X-54610Y-208534D03*
X-54229Y-217678D03*
X-52197Y-226568D03*
X-46228Y-233426D03*
X-40259Y-239268D03*
X-36195Y-256032D03*
X-36830Y-247269D03*
X-38354Y-265303D03*
X-64643Y-297307D03*
X-88265Y-219583D03*
X-81280Y-249682D03*
X-99695Y-252730D03*
X-118364Y-273431D03*
X-129032Y-296418D03*
X-122809Y-325247D03*
X-106680Y-302387D03*
X-96012Y-274066D03*
X-88265Y-300355D03*
X-78359Y-324358D03*
X-96012Y-336804D03*
X-64643Y-336169D03*
X-76708Y-396367D03*
X-92710Y-407924D03*
X-89535Y-375920D03*
X-74168Y-364363D03*
X80264Y-409702D03*
X94488Y-409702D03*
X65278Y-393573D03*
X88265Y-371983D03*
X99060Y-343535D03*
X125984Y-328168D03*
X101854Y-297688D03*
X115189Y-269367D03*
X125222Y-293624D03*
X96012Y-253619D03*
X17653Y-178562D03*
X25908Y-178562D03*
X34671Y-178562D03*
X-22352Y-195834D03*
X-22860Y-179832D03*
X-53975Y-164084D03*
X-47879Y-151130D03*
X-55245Y-143002D03*
X-61722Y-108839D03*
X-69723Y-93218D03*
X-59944Y-89281D03*
X-67564Y-72390D03*
X-56515Y-65786D03*
X-54991Y-75565D03*
X-43815Y-88900D03*
X-32131Y-88392D03*
X-21590Y-89281D03*
X-21844Y-101346D03*
X-47117Y-123952D03*
X-39116Y-120904D03*
X-40132Y-131318D03*
X-17526Y-128270D03*
X-29337Y-128016D03*
X-31496Y-138430D03*
X-21590Y-138176D03*
X-11684Y-138430D03*
X-7112Y-127635D03*
X-8509Y-112522D03*
X-10541Y-89662D03*
X1270Y-89662D03*
X11303Y-89916D03*
X22860Y-102108D03*
X24384Y-91059D03*
X35433Y-93091D03*
X34798Y-104521D03*
X3429Y-128905D03*
X-1524Y-138176D03*
X8382Y-138430D03*
X18161Y-138430D03*
X20955Y-127635D03*
X27686Y-138176D03*
X36068Y-144653D03*
X45593Y-147955D03*
X59944Y-137287D03*
X45593Y-128524D03*
X45339Y-118999D03*
X44958Y-109474D03*
X45339Y-99949D03*
X44958Y-90043D03*
X52959Y-74168D03*
X55118Y-94234D03*
X59944Y-110998D03*
X68834Y-125730D03*
X-46863Y62865D03*
X-34544Y61976D03*
X-41402Y45466D03*
X-36576Y30353D03*
X-36195Y13589D03*
X-34925Y762D03*
X-25908Y16256D03*
X-26289Y38100D03*
X-22860Y61722D03*
X16637Y60325D03*
X16256Y44831D03*
X15875Y22606D03*
X-13335Y-10033D03*
X-22352Y-19812D03*
X-7747Y-19304D03*
X25908Y1143D03*
X16256Y9271D03*
X29210Y14478D03*
X-57150Y-152654D03*
X-62230Y-160909D03*
X-61722Y-171704D03*
X60960Y-74168D03*
X69596Y-74295D03*
X-91694Y-394335D03*
X-65405Y-410972D03*
X-66167Y-422148D03*
X-62484Y-435356D03*
X68453Y-405511D03*
X49403Y-193040D03*
X40640Y-186690D03*
X51943Y-176784D03*
X60706Y-175006D03*
X55880Y-167259D03*
X56388Y-156972D03*
X54356Y-147955D03*
X43942Y-60579D03*
X53721Y-63627D03*
X14224Y-98425D03*
X51816Y-84963D03*
X60706Y-83947D03*
X-109601Y-14859D03*
D10*
X-43901Y-51400D03*
X-69723Y-208788D03*
X-66421Y-237236D03*
X-52578Y-242824D03*
X-64008Y-257175D03*
X43815Y-178816D03*
X52832Y-200787D03*
X52451Y-209042D03*
X52578Y-185293D03*
X34417Y-216662D03*
X58547Y-216535D03*
X76073Y-208915D03*
X65913Y-223266D03*
X69469Y-232283D03*
X62865Y-238633D03*
X64008Y-249555D03*
X71247Y-243586D03*
X56642Y-259080D03*
X36957Y-274701D03*
X47371Y-277114D03*
X48387Y-267081D03*
X53848Y-283972D03*
X-80518Y-261620D03*
X-73533Y-282829D03*
X-61468Y-270383D03*
X-51943Y-286639D03*
X-18923Y-432943D03*
X-21717Y-414020D03*
X-19304Y-398145D03*
X21209Y-432943D03*
X22098Y-415925D03*
X20447Y-397383D03*
X10541Y-379476D03*
X17272Y-372237D03*
X21336Y-362966D03*
X30099Y-360426D03*
X36068Y-352679D03*
X35941Y-342900D03*
X35941Y-332867D03*
X35306Y-323088D03*
X43434Y-318262D03*
X45339Y-330327D03*
X53213Y-316484D03*
X54737Y-305308D03*
X54483Y-294894D03*
X66929Y-297307D03*
X-11049Y-296037D03*
X-20828Y-299847D03*
X-32258Y-301244D03*
X-39370Y-294513D03*
X-38989Y-284988D03*
X-38608Y-274828D03*
X-42545Y-306324D03*
X-53467Y-322199D03*
X-35433Y-335915D03*
X-10414Y-311150D03*
X-5461Y-304038D03*
X-16637Y-326390D03*
X-6731Y-322072D03*
X-6350Y-333883D03*
X-16637Y-340614D03*
X-6350Y-344932D03*
X-6350Y-357632D03*
X-14986Y-360807D03*
X-20066Y-351536D03*
X-18288Y-379222D03*
X-34671Y-376047D03*
X-51943Y-376936D03*
X-17145Y-369443D03*
X-29083Y-363093D03*
X-44450Y-364236D03*
X-66167Y-392684D03*
X-79121Y-383540D03*
X-65786Y-378460D03*
X29591Y-378841D03*
X40513Y-367792D03*
X49276Y-354838D03*
X48895Y-376047D03*
X55880Y-366268D03*
X76073Y-390271D03*
X63754Y-377317D03*
X74422Y-378460D03*
X66675Y-349758D03*
X66040Y-259080D03*
X76073Y-275590D03*
X80772Y-299212D03*
X72136Y-322834D03*
X103251Y-322453D03*
X90551Y-276733D03*
X0Y-284099D03*
X1778Y-217424D03*
M02*
