G04 EAGLE Gerber RS-274X export*
G75*
%MOMM*%
%FSLAX34Y34*%
%LPD*%
%INSoldermask Top*%
%IPPOS*%
%AMOC8*
5,1,8,0,0,1.08239X$1,22.5*%
G01*
%ADD10R,0.901600X0.901600*%
%ADD11R,1.101600X1.201600*%
%ADD12C,0.605878*%
%ADD13R,0.951600X1.551600*%
%ADD14R,0.331600X0.321600*%
%ADD15R,1.001600X0.801600*%
%ADD16R,0.391600X0.401600*%
%ADD17R,0.401600X0.391600*%
%ADD18R,1.150000X0.750000*%
%ADD19R,0.801600X1.001600*%
%ADD20R,0.476600X0.401600*%
%ADD21C,0.200637*%
%ADD22R,0.351600X0.451600*%
%ADD23R,1.201600X1.101600*%
%ADD24C,1.101600*%
%ADD25R,2.391600X5.941600*%
%ADD26C,0.908000*%

G36*
X-47371Y-443598D02*
X-47371Y-443598D01*
X-47371Y-443597D01*
X-47371Y-436502D01*
X-32781Y-436502D01*
X-32781Y-443597D01*
X-32777Y-443602D01*
X-32776Y-443602D01*
X-30226Y-443602D01*
X-30221Y-443598D01*
X-30221Y-443597D01*
X-30221Y-385197D01*
X-30225Y-385192D01*
X-30226Y-385192D01*
X-54376Y-385192D01*
X-54381Y-385196D01*
X-54381Y-385197D01*
X-54381Y-443597D01*
X-54377Y-443602D01*
X-54376Y-443602D01*
X-47376Y-443602D01*
X-47371Y-443598D01*
G37*
G36*
X35829Y-443598D02*
X35829Y-443598D01*
X35829Y-443597D01*
X35829Y-436502D01*
X50419Y-436502D01*
X50419Y-443597D01*
X50423Y-443602D01*
X50424Y-443602D01*
X57424Y-443602D01*
X57429Y-443598D01*
X57429Y-443597D01*
X57429Y-385197D01*
X57425Y-385192D01*
X57424Y-385192D01*
X33274Y-385192D01*
X33269Y-385196D01*
X33269Y-385197D01*
X33269Y-443597D01*
X33273Y-443602D01*
X33274Y-443602D01*
X35824Y-443602D01*
X35829Y-443598D01*
G37*
G36*
X87396Y-169509D02*
X87396Y-169509D01*
X87443Y-169511D01*
X90481Y-169146D01*
X90513Y-169135D01*
X90559Y-169130D01*
X93499Y-168282D01*
X93529Y-168266D01*
X93575Y-168254D01*
X96341Y-166945D01*
X96363Y-166928D01*
X96390Y-166918D01*
X96442Y-166869D01*
X96500Y-166826D01*
X96514Y-166801D01*
X96535Y-166782D01*
X96564Y-166716D01*
X96600Y-166654D01*
X96603Y-166626D01*
X96615Y-166600D01*
X96616Y-166528D01*
X96625Y-166457D01*
X96617Y-166430D01*
X96618Y-166401D01*
X96582Y-166306D01*
X96571Y-166266D01*
X96564Y-166257D01*
X96560Y-166245D01*
X87203Y-149994D01*
X96560Y-133743D01*
X96569Y-133716D01*
X96585Y-133692D01*
X96600Y-133622D01*
X96623Y-133554D01*
X96620Y-133526D01*
X96626Y-133498D01*
X96613Y-133428D01*
X96607Y-133356D01*
X96594Y-133331D01*
X96588Y-133303D01*
X96548Y-133243D01*
X96515Y-133180D01*
X96493Y-133162D01*
X96477Y-133138D01*
X96394Y-133080D01*
X96362Y-133053D01*
X96351Y-133050D01*
X96341Y-133043D01*
X93575Y-131734D01*
X93542Y-131726D01*
X93499Y-131706D01*
X90559Y-130858D01*
X90525Y-130855D01*
X90481Y-130842D01*
X87443Y-130477D01*
X87409Y-130480D01*
X87362Y-130474D01*
X84305Y-130601D01*
X84272Y-130609D01*
X84225Y-130610D01*
X81228Y-131226D01*
X81197Y-131239D01*
X81151Y-131249D01*
X78291Y-132337D01*
X78263Y-132355D01*
X78219Y-132372D01*
X75571Y-133905D01*
X75545Y-133927D01*
X75505Y-133950D01*
X73137Y-135888D01*
X73115Y-135915D01*
X73079Y-135944D01*
X71052Y-138237D01*
X71036Y-138266D01*
X71004Y-138301D01*
X69372Y-140889D01*
X69360Y-140921D01*
X69335Y-140960D01*
X68139Y-143777D01*
X68132Y-143810D01*
X68129Y-143817D01*
X68125Y-143823D01*
X68124Y-143829D01*
X68113Y-143853D01*
X67385Y-146825D01*
X67383Y-146859D01*
X67372Y-146904D01*
X67129Y-149954D01*
X67133Y-149983D01*
X67128Y-150011D01*
X67130Y-150021D01*
X67129Y-150034D01*
X67372Y-153084D01*
X67381Y-153116D01*
X67385Y-153163D01*
X68113Y-156135D01*
X68128Y-156166D01*
X68139Y-156211D01*
X69335Y-159028D01*
X69354Y-159056D01*
X69372Y-159099D01*
X71004Y-161687D01*
X71028Y-161711D01*
X71052Y-161751D01*
X73079Y-164044D01*
X73106Y-164064D01*
X73137Y-164100D01*
X75505Y-166038D01*
X75535Y-166054D01*
X75571Y-166083D01*
X78219Y-167617D01*
X78251Y-167627D01*
X78291Y-167651D01*
X81151Y-168740D01*
X81184Y-168745D01*
X81228Y-168762D01*
X84225Y-169378D01*
X84259Y-169378D01*
X84305Y-169387D01*
X87362Y-169514D01*
X87396Y-169509D01*
G37*
G36*
X-84251Y-169387D02*
X-84251Y-169387D01*
X-84218Y-169379D01*
X-84171Y-169378D01*
X-81174Y-168762D01*
X-81143Y-168749D01*
X-81097Y-168740D01*
X-78237Y-167651D01*
X-78209Y-167633D01*
X-78165Y-167617D01*
X-75517Y-166083D01*
X-75491Y-166061D01*
X-75451Y-166038D01*
X-73083Y-164100D01*
X-73061Y-164073D01*
X-73025Y-164044D01*
X-70998Y-161751D01*
X-70982Y-161722D01*
X-70950Y-161687D01*
X-69318Y-159099D01*
X-69306Y-159067D01*
X-69281Y-159028D01*
X-68085Y-156211D01*
X-68078Y-156178D01*
X-68059Y-156135D01*
X-67331Y-153163D01*
X-67329Y-153129D01*
X-67318Y-153084D01*
X-67075Y-150034D01*
X-67079Y-150005D01*
X-67074Y-149977D01*
X-67076Y-149967D01*
X-67075Y-149954D01*
X-67318Y-146904D01*
X-67327Y-146872D01*
X-67331Y-146825D01*
X-68059Y-143853D01*
X-68074Y-143822D01*
X-68085Y-143777D01*
X-69281Y-140960D01*
X-69300Y-140932D01*
X-69318Y-140889D01*
X-70950Y-138301D01*
X-70974Y-138277D01*
X-70998Y-138237D01*
X-73025Y-135944D01*
X-73052Y-135924D01*
X-73083Y-135888D01*
X-75451Y-133950D01*
X-75481Y-133934D01*
X-75517Y-133905D01*
X-78165Y-132372D01*
X-78197Y-132361D01*
X-78237Y-132337D01*
X-81097Y-131249D01*
X-81130Y-131243D01*
X-81174Y-131226D01*
X-84171Y-130610D01*
X-84205Y-130610D01*
X-84251Y-130601D01*
X-87308Y-130474D01*
X-87342Y-130479D01*
X-87389Y-130477D01*
X-90427Y-130842D01*
X-90459Y-130853D01*
X-90505Y-130858D01*
X-93445Y-131706D01*
X-93475Y-131722D01*
X-93521Y-131734D01*
X-96287Y-133043D01*
X-96309Y-133060D01*
X-96336Y-133070D01*
X-96388Y-133119D01*
X-96446Y-133162D01*
X-96460Y-133187D01*
X-96481Y-133206D01*
X-96510Y-133272D01*
X-96546Y-133334D01*
X-96549Y-133362D01*
X-96561Y-133388D01*
X-96562Y-133460D01*
X-96571Y-133531D01*
X-96563Y-133558D01*
X-96564Y-133587D01*
X-96528Y-133682D01*
X-96517Y-133722D01*
X-96510Y-133731D01*
X-96506Y-133743D01*
X-87149Y-149994D01*
X-96506Y-166245D01*
X-96515Y-166272D01*
X-96531Y-166296D01*
X-96546Y-166366D01*
X-96569Y-166434D01*
X-96566Y-166462D01*
X-96572Y-166490D01*
X-96559Y-166561D01*
X-96553Y-166632D01*
X-96540Y-166657D01*
X-96534Y-166685D01*
X-96494Y-166745D01*
X-96461Y-166808D01*
X-96439Y-166826D01*
X-96423Y-166850D01*
X-96340Y-166908D01*
X-96308Y-166935D01*
X-96297Y-166938D01*
X-96287Y-166945D01*
X-93521Y-168254D01*
X-93488Y-168262D01*
X-93445Y-168282D01*
X-90505Y-169130D01*
X-90471Y-169133D01*
X-90427Y-169146D01*
X-87389Y-169511D01*
X-87355Y-169508D01*
X-87308Y-169514D01*
X-84251Y-169387D01*
G37*
G36*
X1465Y132572D02*
X1465Y132572D01*
X1513Y132572D01*
X4282Y133034D01*
X4315Y133046D01*
X4362Y133054D01*
X7018Y133966D01*
X7048Y133983D01*
X7093Y133999D01*
X9563Y135335D01*
X9589Y135357D01*
X9632Y135380D01*
X11847Y137105D01*
X11870Y137131D01*
X11908Y137161D01*
X13810Y139226D01*
X13828Y139256D01*
X13860Y139291D01*
X15396Y141642D01*
X15409Y141674D01*
X15435Y141714D01*
X16563Y144286D01*
X16570Y144319D01*
X16590Y144364D01*
X17279Y147085D01*
X17281Y147120D01*
X17293Y147167D01*
X17525Y149965D01*
X17521Y149994D01*
X17526Y150023D01*
X17510Y150092D01*
X17501Y150162D01*
X17487Y150188D01*
X17480Y150216D01*
X17438Y150273D01*
X17403Y150335D01*
X17379Y150353D01*
X17362Y150376D01*
X17301Y150412D01*
X17244Y150455D01*
X17216Y150463D01*
X17191Y150478D01*
X17093Y150494D01*
X17052Y150505D01*
X17041Y150503D01*
X17027Y150505D01*
X-16973Y150505D01*
X-17002Y150499D01*
X-17031Y150502D01*
X-17098Y150480D01*
X-17168Y150466D01*
X-17192Y150449D01*
X-17220Y150440D01*
X-17273Y150393D01*
X-17332Y150353D01*
X-17348Y150329D01*
X-17370Y150309D01*
X-17401Y150245D01*
X-17439Y150186D01*
X-17444Y150157D01*
X-17456Y150131D01*
X-17465Y150031D01*
X-17472Y149989D01*
X-17469Y149979D01*
X-17471Y149965D01*
X-17239Y147167D01*
X-17229Y147133D01*
X-17225Y147085D01*
X-16536Y144364D01*
X-16521Y144332D01*
X-16509Y144286D01*
X-15381Y141714D01*
X-15361Y141686D01*
X-15342Y141642D01*
X-13806Y139291D01*
X-13782Y139267D01*
X-13756Y139226D01*
X-11854Y137161D01*
X-11826Y137140D01*
X-11793Y137105D01*
X-9578Y135380D01*
X-9547Y135365D01*
X-9509Y135335D01*
X-7039Y133999D01*
X-7006Y133989D01*
X-6964Y133966D01*
X-4308Y133054D01*
X-4274Y133050D01*
X-4228Y133034D01*
X-1459Y132572D01*
X-1424Y132573D01*
X-1377Y132565D01*
X1431Y132565D01*
X1465Y132572D01*
G37*
G36*
X-121366Y-90184D02*
X-121366Y-90184D01*
X-121295Y-90187D01*
X-121268Y-90177D01*
X-121239Y-90175D01*
X-121149Y-90133D01*
X-121109Y-90118D01*
X-121101Y-90110D01*
X-121088Y-90104D01*
X-118785Y-88505D01*
X-118761Y-88480D01*
X-118721Y-88452D01*
X-116712Y-86495D01*
X-116693Y-86466D01*
X-116658Y-86433D01*
X-114999Y-84172D01*
X-114984Y-84141D01*
X-114955Y-84102D01*
X-113691Y-81599D01*
X-113682Y-81565D01*
X-113660Y-81522D01*
X-112824Y-78845D01*
X-112821Y-78811D01*
X-112806Y-78765D01*
X-112423Y-75986D01*
X-112425Y-75952D01*
X-112419Y-75904D01*
X-112498Y-73101D01*
X-112506Y-73067D01*
X-112507Y-73019D01*
X-113046Y-70267D01*
X-113060Y-70235D01*
X-113069Y-70187D01*
X-114054Y-67562D01*
X-114069Y-67537D01*
X-114074Y-67517D01*
X-114082Y-67506D01*
X-114089Y-67487D01*
X-115493Y-65059D01*
X-115516Y-65033D01*
X-115540Y-64992D01*
X-117324Y-62828D01*
X-117351Y-62806D01*
X-117382Y-62769D01*
X-119498Y-60928D01*
X-119528Y-60911D01*
X-119564Y-60880D01*
X-121955Y-59412D01*
X-121987Y-59401D01*
X-122028Y-59375D01*
X-124627Y-58322D01*
X-124661Y-58315D01*
X-124706Y-58297D01*
X-127443Y-57686D01*
X-127478Y-57685D01*
X-127525Y-57674D01*
X-130325Y-57522D01*
X-130359Y-57527D01*
X-130407Y-57524D01*
X-133195Y-57834D01*
X-133228Y-57845D01*
X-133276Y-57850D01*
X-135974Y-58615D01*
X-136004Y-58631D01*
X-136051Y-58644D01*
X-138586Y-59843D01*
X-138610Y-59860D01*
X-138637Y-59870D01*
X-138689Y-59919D01*
X-138746Y-59962D01*
X-138760Y-59987D01*
X-138782Y-60007D01*
X-138810Y-60072D01*
X-138846Y-60134D01*
X-138849Y-60162D01*
X-138861Y-60189D01*
X-138862Y-60260D01*
X-138871Y-60331D01*
X-138863Y-60359D01*
X-138863Y-60388D01*
X-138829Y-60481D01*
X-138817Y-60522D01*
X-138810Y-60531D01*
X-138805Y-60544D01*
X-121805Y-89944D01*
X-121786Y-89966D01*
X-121773Y-89992D01*
X-121720Y-90040D01*
X-121673Y-90093D01*
X-121647Y-90105D01*
X-121625Y-90125D01*
X-121558Y-90148D01*
X-121494Y-90178D01*
X-121465Y-90180D01*
X-121437Y-90189D01*
X-121366Y-90184D01*
G37*
G36*
X-121366Y-390184D02*
X-121366Y-390184D01*
X-121295Y-390187D01*
X-121268Y-390177D01*
X-121239Y-390175D01*
X-121149Y-390133D01*
X-121109Y-390118D01*
X-121101Y-390110D01*
X-121088Y-390104D01*
X-118785Y-388505D01*
X-118761Y-388480D01*
X-118721Y-388452D01*
X-116712Y-386495D01*
X-116693Y-386466D01*
X-116658Y-386433D01*
X-114999Y-384172D01*
X-114984Y-384141D01*
X-114955Y-384102D01*
X-113691Y-381599D01*
X-113682Y-381565D01*
X-113660Y-381522D01*
X-112824Y-378845D01*
X-112821Y-378811D01*
X-112806Y-378765D01*
X-112423Y-375986D01*
X-112425Y-375952D01*
X-112419Y-375904D01*
X-112498Y-373101D01*
X-112506Y-373067D01*
X-112507Y-373019D01*
X-113046Y-370267D01*
X-113060Y-370235D01*
X-113069Y-370187D01*
X-114054Y-367562D01*
X-114069Y-367537D01*
X-114074Y-367517D01*
X-114082Y-367506D01*
X-114089Y-367487D01*
X-115493Y-365059D01*
X-115516Y-365033D01*
X-115540Y-364992D01*
X-117324Y-362828D01*
X-117351Y-362806D01*
X-117382Y-362769D01*
X-119498Y-360928D01*
X-119528Y-360911D01*
X-119564Y-360880D01*
X-121955Y-359412D01*
X-121987Y-359401D01*
X-122028Y-359375D01*
X-124627Y-358322D01*
X-124661Y-358315D01*
X-124706Y-358297D01*
X-127443Y-357686D01*
X-127478Y-357685D01*
X-127525Y-357674D01*
X-130325Y-357522D01*
X-130359Y-357527D01*
X-130407Y-357524D01*
X-133195Y-357834D01*
X-133228Y-357845D01*
X-133276Y-357850D01*
X-135974Y-358615D01*
X-136004Y-358631D01*
X-136051Y-358644D01*
X-138586Y-359843D01*
X-138610Y-359860D01*
X-138637Y-359870D01*
X-138689Y-359919D01*
X-138746Y-359962D01*
X-138760Y-359987D01*
X-138782Y-360007D01*
X-138810Y-360072D01*
X-138846Y-360134D01*
X-138849Y-360162D01*
X-138861Y-360189D01*
X-138862Y-360260D01*
X-138871Y-360331D01*
X-138863Y-360359D01*
X-138863Y-360388D01*
X-138829Y-360481D01*
X-138817Y-360522D01*
X-138810Y-360531D01*
X-138805Y-360544D01*
X-121805Y-389944D01*
X-121786Y-389966D01*
X-121773Y-389992D01*
X-121720Y-390040D01*
X-121673Y-390093D01*
X-121647Y-390105D01*
X-121625Y-390125D01*
X-121558Y-390148D01*
X-121494Y-390178D01*
X-121465Y-390180D01*
X-121437Y-390189D01*
X-121366Y-390184D01*
G37*
G36*
X130413Y57539D02*
X130413Y57539D01*
X130461Y57536D01*
X133249Y57846D01*
X133282Y57857D01*
X133330Y57862D01*
X136028Y58627D01*
X136058Y58643D01*
X136105Y58656D01*
X138640Y59855D01*
X138664Y59872D01*
X138691Y59882D01*
X138743Y59931D01*
X138800Y59974D01*
X138814Y59999D01*
X138836Y60019D01*
X138864Y60084D01*
X138900Y60146D01*
X138903Y60174D01*
X138915Y60201D01*
X138916Y60272D01*
X138925Y60343D01*
X138917Y60371D01*
X138917Y60400D01*
X138883Y60493D01*
X138871Y60534D01*
X138864Y60543D01*
X138859Y60556D01*
X121859Y89956D01*
X121840Y89978D01*
X121827Y90004D01*
X121774Y90052D01*
X121727Y90105D01*
X121701Y90117D01*
X121679Y90137D01*
X121612Y90160D01*
X121548Y90190D01*
X121519Y90192D01*
X121491Y90201D01*
X121420Y90196D01*
X121349Y90199D01*
X121322Y90189D01*
X121293Y90187D01*
X121203Y90145D01*
X121163Y90130D01*
X121155Y90122D01*
X121142Y90116D01*
X118839Y88517D01*
X118815Y88492D01*
X118775Y88464D01*
X116766Y86507D01*
X116747Y86478D01*
X116712Y86445D01*
X115053Y84184D01*
X115038Y84153D01*
X115009Y84114D01*
X113745Y81611D01*
X113736Y81577D01*
X113714Y81534D01*
X112878Y78857D01*
X112875Y78823D01*
X112860Y78777D01*
X112477Y75998D01*
X112479Y75964D01*
X112473Y75916D01*
X112552Y73113D01*
X112560Y73079D01*
X112561Y73031D01*
X113100Y70279D01*
X113114Y70247D01*
X113123Y70199D01*
X114108Y67574D01*
X114126Y67544D01*
X114143Y67499D01*
X115547Y65071D01*
X115570Y65045D01*
X115594Y65004D01*
X117378Y62840D01*
X117405Y62818D01*
X117436Y62781D01*
X119552Y60940D01*
X119582Y60923D01*
X119618Y60892D01*
X122009Y59424D01*
X122041Y59413D01*
X122082Y59387D01*
X124681Y58334D01*
X124715Y58327D01*
X124760Y58309D01*
X127497Y57698D01*
X127532Y57697D01*
X127579Y57686D01*
X130379Y57534D01*
X130413Y57539D01*
G37*
G36*
X130413Y-242461D02*
X130413Y-242461D01*
X130461Y-242464D01*
X133249Y-242154D01*
X133282Y-242143D01*
X133330Y-242138D01*
X136028Y-241373D01*
X136058Y-241357D01*
X136105Y-241344D01*
X138640Y-240145D01*
X138664Y-240128D01*
X138691Y-240118D01*
X138743Y-240069D01*
X138800Y-240026D01*
X138814Y-240001D01*
X138836Y-239981D01*
X138864Y-239916D01*
X138900Y-239855D01*
X138903Y-239826D01*
X138915Y-239799D01*
X138916Y-239728D01*
X138925Y-239657D01*
X138917Y-239629D01*
X138917Y-239600D01*
X138883Y-239507D01*
X138871Y-239466D01*
X138864Y-239457D01*
X138859Y-239444D01*
X121859Y-210044D01*
X121840Y-210022D01*
X121827Y-209996D01*
X121774Y-209948D01*
X121727Y-209895D01*
X121701Y-209883D01*
X121679Y-209863D01*
X121612Y-209840D01*
X121548Y-209810D01*
X121519Y-209808D01*
X121491Y-209799D01*
X121420Y-209804D01*
X121349Y-209801D01*
X121322Y-209811D01*
X121293Y-209813D01*
X121203Y-209855D01*
X121163Y-209870D01*
X121155Y-209878D01*
X121142Y-209884D01*
X118839Y-211483D01*
X118815Y-211509D01*
X118775Y-211536D01*
X116766Y-213493D01*
X116747Y-213522D01*
X116712Y-213555D01*
X115053Y-215816D01*
X115038Y-215847D01*
X115009Y-215886D01*
X113745Y-218389D01*
X113736Y-218423D01*
X113714Y-218466D01*
X112878Y-221143D01*
X112875Y-221177D01*
X112860Y-221223D01*
X112477Y-224002D01*
X112479Y-224036D01*
X112473Y-224084D01*
X112552Y-226887D01*
X112560Y-226921D01*
X112561Y-226969D01*
X113100Y-229721D01*
X113114Y-229753D01*
X113123Y-229801D01*
X114108Y-232426D01*
X114126Y-232456D01*
X114143Y-232501D01*
X115547Y-234929D01*
X115570Y-234955D01*
X115594Y-234997D01*
X117378Y-237160D01*
X117405Y-237182D01*
X117436Y-237219D01*
X119552Y-239060D01*
X119582Y-239077D01*
X119618Y-239109D01*
X122009Y-240576D01*
X122041Y-240587D01*
X122082Y-240613D01*
X124681Y-241666D01*
X124715Y-241673D01*
X124760Y-241691D01*
X127497Y-242302D01*
X127532Y-242303D01*
X127579Y-242314D01*
X130379Y-242466D01*
X130413Y-242461D01*
G37*
G36*
X121453Y-90183D02*
X121453Y-90183D01*
X121524Y-90184D01*
X121551Y-90173D01*
X121580Y-90169D01*
X121642Y-90135D01*
X121707Y-90107D01*
X121728Y-90086D01*
X121753Y-90072D01*
X121816Y-89996D01*
X121846Y-89965D01*
X121850Y-89955D01*
X121859Y-89944D01*
X138859Y-60544D01*
X138868Y-60516D01*
X138885Y-60492D01*
X138900Y-60423D01*
X138922Y-60355D01*
X138920Y-60326D01*
X138926Y-60298D01*
X138913Y-60228D01*
X138907Y-60157D01*
X138894Y-60131D01*
X138888Y-60103D01*
X138848Y-60044D01*
X138816Y-59981D01*
X138793Y-59962D01*
X138777Y-59938D01*
X138695Y-59881D01*
X138662Y-59854D01*
X138652Y-59851D01*
X138640Y-59843D01*
X136105Y-58644D01*
X136071Y-58636D01*
X136028Y-58615D01*
X133330Y-57850D01*
X133295Y-57848D01*
X133249Y-57834D01*
X130461Y-57524D01*
X130427Y-57527D01*
X130379Y-57522D01*
X127579Y-57674D01*
X127545Y-57683D01*
X127497Y-57686D01*
X124760Y-58297D01*
X124728Y-58311D01*
X124681Y-58322D01*
X122082Y-59375D01*
X122053Y-59394D01*
X122009Y-59412D01*
X119618Y-60880D01*
X119593Y-60903D01*
X119552Y-60928D01*
X117436Y-62769D01*
X117415Y-62796D01*
X117378Y-62828D01*
X115594Y-64992D01*
X115578Y-65022D01*
X115547Y-65059D01*
X114143Y-67487D01*
X114132Y-67520D01*
X114125Y-67533D01*
X114115Y-67547D01*
X114115Y-67550D01*
X114108Y-67562D01*
X113123Y-70187D01*
X113117Y-70222D01*
X113100Y-70267D01*
X112561Y-73019D01*
X112561Y-73054D01*
X112552Y-73101D01*
X112473Y-75904D01*
X112479Y-75938D01*
X112477Y-75986D01*
X112860Y-78765D01*
X112872Y-78797D01*
X112878Y-78845D01*
X113714Y-81522D01*
X113731Y-81553D01*
X113745Y-81599D01*
X115009Y-84102D01*
X115031Y-84129D01*
X115053Y-84172D01*
X116712Y-86433D01*
X116738Y-86456D01*
X116766Y-86495D01*
X118775Y-88452D01*
X118804Y-88471D01*
X118839Y-88505D01*
X121142Y-90104D01*
X121169Y-90116D01*
X121192Y-90134D01*
X121260Y-90155D01*
X121325Y-90183D01*
X121354Y-90183D01*
X121382Y-90191D01*
X121453Y-90183D01*
G37*
G36*
X121453Y-390183D02*
X121453Y-390183D01*
X121524Y-390184D01*
X121551Y-390173D01*
X121580Y-390169D01*
X121642Y-390135D01*
X121707Y-390107D01*
X121728Y-390086D01*
X121753Y-390072D01*
X121816Y-389996D01*
X121846Y-389965D01*
X121850Y-389955D01*
X121859Y-389944D01*
X138859Y-360544D01*
X138868Y-360516D01*
X138885Y-360492D01*
X138900Y-360423D01*
X138922Y-360355D01*
X138920Y-360326D01*
X138926Y-360298D01*
X138913Y-360228D01*
X138907Y-360157D01*
X138894Y-360131D01*
X138888Y-360103D01*
X138848Y-360044D01*
X138816Y-359981D01*
X138793Y-359962D01*
X138777Y-359938D01*
X138695Y-359881D01*
X138662Y-359854D01*
X138652Y-359851D01*
X138640Y-359843D01*
X136105Y-358644D01*
X136071Y-358636D01*
X136028Y-358615D01*
X133330Y-357850D01*
X133295Y-357848D01*
X133249Y-357834D01*
X130461Y-357524D01*
X130427Y-357527D01*
X130379Y-357522D01*
X127579Y-357674D01*
X127545Y-357683D01*
X127497Y-357686D01*
X124760Y-358297D01*
X124728Y-358311D01*
X124681Y-358322D01*
X122082Y-359375D01*
X122053Y-359394D01*
X122009Y-359412D01*
X119618Y-360880D01*
X119593Y-360903D01*
X119552Y-360928D01*
X117436Y-362769D01*
X117415Y-362796D01*
X117378Y-362828D01*
X115594Y-364992D01*
X115578Y-365022D01*
X115547Y-365059D01*
X114143Y-367487D01*
X114132Y-367520D01*
X114125Y-367533D01*
X114115Y-367547D01*
X114115Y-367550D01*
X114108Y-367562D01*
X113123Y-370187D01*
X113117Y-370222D01*
X113100Y-370267D01*
X112561Y-373019D01*
X112561Y-373054D01*
X112552Y-373101D01*
X112473Y-375904D01*
X112479Y-375938D01*
X112477Y-375986D01*
X112860Y-378765D01*
X112872Y-378797D01*
X112878Y-378845D01*
X113714Y-381522D01*
X113731Y-381553D01*
X113745Y-381599D01*
X115009Y-384102D01*
X115031Y-384129D01*
X115053Y-384172D01*
X116712Y-386433D01*
X116738Y-386456D01*
X116766Y-386495D01*
X118775Y-388452D01*
X118804Y-388471D01*
X118839Y-388505D01*
X121142Y-390104D01*
X121169Y-390116D01*
X121192Y-390134D01*
X121260Y-390155D01*
X121325Y-390183D01*
X121354Y-390183D01*
X121382Y-390191D01*
X121453Y-390183D01*
G37*
G36*
X-127525Y57686D02*
X-127525Y57686D01*
X-127491Y57695D01*
X-127443Y57698D01*
X-124706Y58309D01*
X-124674Y58323D01*
X-124627Y58334D01*
X-122028Y59387D01*
X-121999Y59406D01*
X-121955Y59424D01*
X-119564Y60892D01*
X-119539Y60915D01*
X-119498Y60940D01*
X-117382Y62781D01*
X-117361Y62808D01*
X-117324Y62840D01*
X-115540Y65004D01*
X-115524Y65034D01*
X-115493Y65071D01*
X-114089Y67499D01*
X-114078Y67532D01*
X-114054Y67574D01*
X-113069Y70199D01*
X-113063Y70234D01*
X-113046Y70279D01*
X-112507Y73031D01*
X-112507Y73066D01*
X-112498Y73113D01*
X-112419Y75916D01*
X-112425Y75950D01*
X-112423Y75998D01*
X-112806Y78777D01*
X-112818Y78809D01*
X-112824Y78857D01*
X-113660Y81534D01*
X-113677Y81565D01*
X-113691Y81611D01*
X-114955Y84114D01*
X-114977Y84141D01*
X-114999Y84184D01*
X-116658Y86445D01*
X-116684Y86468D01*
X-116712Y86507D01*
X-118721Y88464D01*
X-118750Y88483D01*
X-118785Y88517D01*
X-121088Y90116D01*
X-121115Y90128D01*
X-121138Y90146D01*
X-121206Y90167D01*
X-121271Y90195D01*
X-121300Y90195D01*
X-121328Y90203D01*
X-121399Y90195D01*
X-121470Y90196D01*
X-121497Y90185D01*
X-121526Y90181D01*
X-121588Y90147D01*
X-121653Y90119D01*
X-121674Y90098D01*
X-121699Y90084D01*
X-121762Y90008D01*
X-121792Y89977D01*
X-121796Y89967D01*
X-121805Y89956D01*
X-138805Y60556D01*
X-138814Y60528D01*
X-138831Y60504D01*
X-138846Y60435D01*
X-138868Y60367D01*
X-138866Y60338D01*
X-138872Y60310D01*
X-138859Y60240D01*
X-138853Y60169D01*
X-138840Y60143D01*
X-138834Y60115D01*
X-138794Y60056D01*
X-138762Y59993D01*
X-138739Y59974D01*
X-138723Y59950D01*
X-138641Y59893D01*
X-138608Y59866D01*
X-138598Y59863D01*
X-138586Y59855D01*
X-136051Y58656D01*
X-136017Y58648D01*
X-135974Y58627D01*
X-133276Y57862D01*
X-133241Y57860D01*
X-133195Y57846D01*
X-130407Y57536D01*
X-130373Y57539D01*
X-130325Y57534D01*
X-127525Y57686D01*
G37*
G36*
X-127525Y-242314D02*
X-127525Y-242314D01*
X-127491Y-242305D01*
X-127443Y-242302D01*
X-124706Y-241691D01*
X-124674Y-241677D01*
X-124627Y-241666D01*
X-122028Y-240613D01*
X-121999Y-240594D01*
X-121955Y-240576D01*
X-119564Y-239109D01*
X-119539Y-239085D01*
X-119498Y-239060D01*
X-117382Y-237219D01*
X-117361Y-237192D01*
X-117324Y-237160D01*
X-115540Y-234997D01*
X-115524Y-234966D01*
X-115493Y-234929D01*
X-114089Y-232501D01*
X-114078Y-232468D01*
X-114054Y-232426D01*
X-113069Y-229801D01*
X-113063Y-229766D01*
X-113046Y-229721D01*
X-112507Y-226969D01*
X-112507Y-226935D01*
X-112498Y-226887D01*
X-112419Y-224084D01*
X-112425Y-224050D01*
X-112423Y-224002D01*
X-112806Y-221223D01*
X-112818Y-221191D01*
X-112824Y-221143D01*
X-113660Y-218466D01*
X-113677Y-218435D01*
X-113691Y-218389D01*
X-114955Y-215886D01*
X-114977Y-215859D01*
X-114999Y-215816D01*
X-116658Y-213555D01*
X-116684Y-213532D01*
X-116712Y-213493D01*
X-118721Y-211536D01*
X-118750Y-211517D01*
X-118785Y-211483D01*
X-121088Y-209884D01*
X-121115Y-209872D01*
X-121138Y-209854D01*
X-121206Y-209833D01*
X-121271Y-209805D01*
X-121300Y-209805D01*
X-121328Y-209797D01*
X-121399Y-209805D01*
X-121470Y-209804D01*
X-121497Y-209815D01*
X-121526Y-209819D01*
X-121588Y-209853D01*
X-121653Y-209881D01*
X-121674Y-209902D01*
X-121699Y-209916D01*
X-121762Y-209992D01*
X-121792Y-210023D01*
X-121796Y-210033D01*
X-121805Y-210044D01*
X-138805Y-239444D01*
X-138814Y-239472D01*
X-138831Y-239496D01*
X-138846Y-239565D01*
X-138868Y-239633D01*
X-138866Y-239662D01*
X-138872Y-239690D01*
X-138859Y-239760D01*
X-138853Y-239831D01*
X-138840Y-239857D01*
X-138834Y-239885D01*
X-138794Y-239944D01*
X-138762Y-240007D01*
X-138739Y-240026D01*
X-138723Y-240050D01*
X-138641Y-240107D01*
X-138608Y-240134D01*
X-138598Y-240137D01*
X-138586Y-240145D01*
X-136051Y-241344D01*
X-136017Y-241352D01*
X-135974Y-241373D01*
X-133276Y-242138D01*
X-133241Y-242140D01*
X-133195Y-242154D01*
X-130407Y-242464D01*
X-130373Y-242461D01*
X-130325Y-242466D01*
X-127525Y-242314D01*
G37*
G36*
X87421Y130494D02*
X87421Y130494D01*
X87467Y130492D01*
X90511Y130861D01*
X90544Y130872D01*
X90590Y130877D01*
X93535Y131730D01*
X93565Y131746D01*
X93610Y131759D01*
X96380Y133073D01*
X96404Y133091D01*
X96431Y133101D01*
X96483Y133150D01*
X96540Y133193D01*
X96554Y133218D01*
X96575Y133238D01*
X96604Y133303D01*
X96639Y133365D01*
X96643Y133393D01*
X96655Y133420D01*
X96655Y133491D01*
X96664Y133562D01*
X96656Y133590D01*
X96657Y133619D01*
X96622Y133712D01*
X96610Y133753D01*
X96603Y133762D01*
X96598Y133775D01*
X87059Y150252D01*
X87008Y150309D01*
X86963Y150371D01*
X86943Y150383D01*
X86927Y150401D01*
X86858Y150434D01*
X86792Y150473D01*
X86766Y150477D01*
X86748Y150486D01*
X86703Y150488D01*
X86628Y150501D01*
X67588Y150524D01*
X67560Y150518D01*
X67531Y150520D01*
X67463Y150498D01*
X67393Y150484D01*
X67369Y150468D01*
X67342Y150459D01*
X67288Y150412D01*
X67229Y150372D01*
X67214Y150348D01*
X67192Y150329D01*
X67160Y150264D01*
X67122Y150204D01*
X67117Y150176D01*
X67104Y150150D01*
X67096Y150050D01*
X67089Y150008D01*
X67091Y149998D01*
X67090Y149984D01*
X67337Y146928D01*
X67346Y146895D01*
X67350Y146849D01*
X68083Y143872D01*
X68098Y143841D01*
X68109Y143795D01*
X69311Y140975D01*
X69330Y140947D01*
X69348Y140903D01*
X70987Y138312D01*
X71010Y138287D01*
X71035Y138248D01*
X73068Y135953D01*
X73095Y135932D01*
X73126Y135897D01*
X75501Y133958D01*
X75531Y133942D01*
X75567Y133912D01*
X78223Y132379D01*
X78255Y132368D01*
X78295Y132345D01*
X81162Y131257D01*
X81196Y131252D01*
X81240Y131235D01*
X84244Y130622D01*
X84278Y130622D01*
X84324Y130612D01*
X87387Y130488D01*
X87421Y130494D01*
G37*
G36*
X-84270Y130612D02*
X-84270Y130612D01*
X-84237Y130620D01*
X-84190Y130622D01*
X-81186Y131235D01*
X-81154Y131248D01*
X-81108Y131257D01*
X-78241Y132345D01*
X-78213Y132363D01*
X-78169Y132379D01*
X-75513Y133912D01*
X-75488Y133935D01*
X-75447Y133958D01*
X-73072Y135897D01*
X-73051Y135923D01*
X-73014Y135953D01*
X-70981Y138248D01*
X-70964Y138277D01*
X-70933Y138312D01*
X-69294Y140903D01*
X-69282Y140935D01*
X-69257Y140975D01*
X-68055Y143795D01*
X-68048Y143829D01*
X-68029Y143872D01*
X-67296Y146849D01*
X-67294Y146883D01*
X-67283Y146928D01*
X-67036Y149984D01*
X-67039Y150013D01*
X-67035Y150041D01*
X-67051Y150111D01*
X-67060Y150182D01*
X-67074Y150207D01*
X-67081Y150235D01*
X-67123Y150292D01*
X-67159Y150354D01*
X-67182Y150372D01*
X-67199Y150395D01*
X-67260Y150431D01*
X-67317Y150474D01*
X-67345Y150481D01*
X-67370Y150496D01*
X-67469Y150513D01*
X-67510Y150523D01*
X-67521Y150521D01*
X-67534Y150524D01*
X-86574Y150501D01*
X-86649Y150485D01*
X-86725Y150477D01*
X-86746Y150466D01*
X-86768Y150461D01*
X-86832Y150417D01*
X-86899Y150380D01*
X-86915Y150360D01*
X-86932Y150348D01*
X-86956Y150311D01*
X-87005Y150252D01*
X-96544Y133775D01*
X-96554Y133747D01*
X-96570Y133723D01*
X-96585Y133654D01*
X-96608Y133586D01*
X-96606Y133557D01*
X-96612Y133529D01*
X-96598Y133459D01*
X-96593Y133388D01*
X-96579Y133362D01*
X-96574Y133334D01*
X-96534Y133274D01*
X-96501Y133211D01*
X-96479Y133193D01*
X-96463Y133169D01*
X-96381Y133111D01*
X-96348Y133084D01*
X-96338Y133081D01*
X-96326Y133073D01*
X-93556Y131759D01*
X-93523Y131751D01*
X-93481Y131730D01*
X-90536Y130877D01*
X-90502Y130875D01*
X-90457Y130861D01*
X-87413Y130492D01*
X-87380Y130494D01*
X-87333Y130488D01*
X-84270Y130612D01*
G37*
G36*
X163754Y-16983D02*
X163754Y-16983D01*
X163825Y-16984D01*
X163852Y-16972D01*
X163881Y-16969D01*
X163943Y-16934D01*
X164008Y-16906D01*
X164029Y-16886D01*
X164054Y-16871D01*
X164117Y-16794D01*
X164147Y-16764D01*
X164151Y-16754D01*
X164160Y-16743D01*
X173660Y-243D01*
X173670Y-211D01*
X173679Y-198D01*
X173683Y-174D01*
X173684Y-170D01*
X173715Y-100D01*
X173715Y-76D01*
X173723Y-54D01*
X173717Y22D01*
X173718Y99D01*
X173708Y123D01*
X173707Y144D01*
X173686Y183D01*
X173660Y255D01*
X164160Y16755D01*
X164141Y16777D01*
X164128Y16803D01*
X164075Y16851D01*
X164028Y16904D01*
X164002Y16917D01*
X163981Y16936D01*
X163913Y16959D01*
X163849Y16990D01*
X163820Y16992D01*
X163793Y17001D01*
X163721Y16996D01*
X163650Y16999D01*
X163623Y16989D01*
X163594Y16987D01*
X163504Y16945D01*
X163464Y16930D01*
X163456Y16923D01*
X163443Y16917D01*
X160920Y15175D01*
X160896Y15151D01*
X160858Y15124D01*
X158646Y13000D01*
X158627Y12972D01*
X158593Y12940D01*
X156751Y10489D01*
X156737Y10458D01*
X156708Y10421D01*
X155283Y7706D01*
X155274Y7675D01*
X155258Y7650D01*
X155257Y7642D01*
X155252Y7632D01*
X154281Y4724D01*
X154277Y4690D01*
X154262Y4646D01*
X153770Y1619D01*
X153771Y1585D01*
X153763Y1539D01*
X153763Y-1527D01*
X153764Y-1531D01*
X153764Y-1533D01*
X153770Y-1560D01*
X153770Y-1607D01*
X154262Y-4634D01*
X154274Y-4665D01*
X154281Y-4712D01*
X155252Y-7620D01*
X155269Y-7650D01*
X155283Y-7694D01*
X156708Y-10409D01*
X156730Y-10435D01*
X156751Y-10477D01*
X158593Y-12928D01*
X158618Y-12951D01*
X158646Y-12988D01*
X160858Y-15112D01*
X160886Y-15130D01*
X160920Y-15163D01*
X163443Y-16905D01*
X163470Y-16916D01*
X163492Y-16935D01*
X163561Y-16955D01*
X163626Y-16983D01*
X163655Y-16983D01*
X163683Y-16991D01*
X163754Y-16983D01*
G37*
G36*
X163754Y-316983D02*
X163754Y-316983D01*
X163825Y-316984D01*
X163852Y-316972D01*
X163881Y-316969D01*
X163943Y-316934D01*
X164008Y-316906D01*
X164029Y-316886D01*
X164054Y-316871D01*
X164117Y-316794D01*
X164147Y-316764D01*
X164151Y-316754D01*
X164160Y-316743D01*
X173660Y-300243D01*
X173670Y-300211D01*
X173679Y-300198D01*
X173683Y-300174D01*
X173684Y-300170D01*
X173715Y-300100D01*
X173715Y-300076D01*
X173723Y-300054D01*
X173717Y-299978D01*
X173718Y-299901D01*
X173708Y-299877D01*
X173707Y-299856D01*
X173686Y-299817D01*
X173660Y-299745D01*
X164160Y-283245D01*
X164141Y-283223D01*
X164128Y-283197D01*
X164075Y-283149D01*
X164028Y-283096D01*
X164002Y-283083D01*
X163981Y-283064D01*
X163913Y-283041D01*
X163849Y-283010D01*
X163820Y-283009D01*
X163793Y-282999D01*
X163721Y-283004D01*
X163650Y-283001D01*
X163623Y-283011D01*
X163594Y-283013D01*
X163504Y-283055D01*
X163464Y-283070D01*
X163456Y-283077D01*
X163443Y-283083D01*
X160920Y-284825D01*
X160896Y-284849D01*
X160858Y-284876D01*
X158646Y-287000D01*
X158627Y-287028D01*
X158593Y-287060D01*
X156751Y-289511D01*
X156737Y-289542D01*
X156708Y-289579D01*
X155283Y-292294D01*
X155274Y-292325D01*
X155258Y-292350D01*
X155257Y-292358D01*
X155252Y-292368D01*
X154281Y-295276D01*
X154277Y-295310D01*
X154262Y-295354D01*
X153770Y-298381D01*
X153771Y-298415D01*
X153763Y-298461D01*
X153763Y-301527D01*
X153764Y-301531D01*
X153764Y-301533D01*
X153770Y-301560D01*
X153770Y-301607D01*
X154262Y-304634D01*
X154274Y-304665D01*
X154281Y-304712D01*
X155252Y-307620D01*
X155269Y-307650D01*
X155283Y-307694D01*
X156708Y-310409D01*
X156730Y-310435D01*
X156751Y-310477D01*
X158593Y-312928D01*
X158618Y-312951D01*
X158646Y-312988D01*
X160858Y-315112D01*
X160886Y-315130D01*
X160920Y-315163D01*
X163443Y-316905D01*
X163470Y-316916D01*
X163492Y-316935D01*
X163561Y-316955D01*
X163626Y-316983D01*
X163655Y-316983D01*
X163683Y-316991D01*
X163754Y-316983D01*
G37*
G36*
X-163667Y-16984D02*
X-163667Y-16984D01*
X-163596Y-16987D01*
X-163569Y-16977D01*
X-163540Y-16975D01*
X-163450Y-16933D01*
X-163410Y-16918D01*
X-163402Y-16911D01*
X-163389Y-16905D01*
X-160866Y-15163D01*
X-160842Y-15139D01*
X-160804Y-15112D01*
X-158592Y-12988D01*
X-158573Y-12960D01*
X-158539Y-12928D01*
X-156697Y-10477D01*
X-156683Y-10446D01*
X-156654Y-10409D01*
X-155229Y-7694D01*
X-155220Y-7661D01*
X-155198Y-7620D01*
X-154227Y-4712D01*
X-154223Y-4678D01*
X-154208Y-4634D01*
X-153716Y-1607D01*
X-153717Y-1573D01*
X-153709Y-1527D01*
X-153709Y1539D01*
X-153716Y1572D01*
X-153716Y1619D01*
X-154208Y4646D01*
X-154220Y4677D01*
X-154227Y4724D01*
X-155198Y7632D01*
X-155211Y7655D01*
X-155217Y7680D01*
X-155224Y7689D01*
X-155229Y7706D01*
X-156654Y10421D01*
X-156676Y10447D01*
X-156697Y10489D01*
X-158539Y12940D01*
X-158564Y12963D01*
X-158592Y13000D01*
X-160804Y15124D01*
X-160832Y15142D01*
X-160866Y15175D01*
X-163389Y16917D01*
X-163416Y16928D01*
X-163438Y16947D01*
X-163507Y16967D01*
X-163572Y16995D01*
X-163601Y16995D01*
X-163629Y17003D01*
X-163700Y16995D01*
X-163771Y16996D01*
X-163798Y16984D01*
X-163827Y16981D01*
X-163889Y16946D01*
X-163954Y16918D01*
X-163975Y16898D01*
X-164000Y16883D01*
X-164063Y16806D01*
X-164093Y16776D01*
X-164097Y16766D01*
X-164106Y16755D01*
X-173606Y255D01*
X-173630Y182D01*
X-173661Y112D01*
X-173661Y88D01*
X-173669Y66D01*
X-173663Y-10D01*
X-173664Y-87D01*
X-173654Y-111D01*
X-173653Y-132D01*
X-173632Y-171D01*
X-173613Y-223D01*
X-173612Y-229D01*
X-173610Y-231D01*
X-173606Y-243D01*
X-164106Y-16743D01*
X-164087Y-16765D01*
X-164074Y-16791D01*
X-164021Y-16839D01*
X-163974Y-16892D01*
X-163948Y-16905D01*
X-163927Y-16924D01*
X-163859Y-16947D01*
X-163795Y-16978D01*
X-163766Y-16980D01*
X-163739Y-16989D01*
X-163667Y-16984D01*
G37*
G36*
X-163667Y-316984D02*
X-163667Y-316984D01*
X-163596Y-316987D01*
X-163569Y-316977D01*
X-163540Y-316975D01*
X-163450Y-316933D01*
X-163410Y-316918D01*
X-163402Y-316911D01*
X-163389Y-316905D01*
X-160866Y-315163D01*
X-160842Y-315139D01*
X-160804Y-315112D01*
X-158592Y-312988D01*
X-158573Y-312960D01*
X-158539Y-312928D01*
X-156697Y-310477D01*
X-156683Y-310446D01*
X-156654Y-310409D01*
X-155229Y-307694D01*
X-155220Y-307661D01*
X-155198Y-307620D01*
X-154227Y-304712D01*
X-154223Y-304678D01*
X-154208Y-304634D01*
X-153716Y-301607D01*
X-153717Y-301573D01*
X-153709Y-301527D01*
X-153709Y-298461D01*
X-153716Y-298428D01*
X-153716Y-298381D01*
X-154208Y-295354D01*
X-154220Y-295323D01*
X-154227Y-295276D01*
X-155198Y-292368D01*
X-155211Y-292345D01*
X-155217Y-292320D01*
X-155224Y-292311D01*
X-155229Y-292294D01*
X-156654Y-289579D01*
X-156676Y-289553D01*
X-156697Y-289511D01*
X-158539Y-287060D01*
X-158564Y-287037D01*
X-158592Y-287000D01*
X-160804Y-284876D01*
X-160832Y-284858D01*
X-160866Y-284825D01*
X-163389Y-283083D01*
X-163416Y-283072D01*
X-163438Y-283053D01*
X-163507Y-283033D01*
X-163572Y-283005D01*
X-163601Y-283005D01*
X-163629Y-282997D01*
X-163700Y-283005D01*
X-163771Y-283005D01*
X-163798Y-283016D01*
X-163827Y-283019D01*
X-163889Y-283054D01*
X-163954Y-283082D01*
X-163975Y-283102D01*
X-164000Y-283117D01*
X-164063Y-283194D01*
X-164093Y-283224D01*
X-164097Y-283234D01*
X-164106Y-283245D01*
X-173606Y-299745D01*
X-173630Y-299818D01*
X-173661Y-299888D01*
X-173661Y-299912D01*
X-173669Y-299934D01*
X-173663Y-300010D01*
X-173664Y-300087D01*
X-173654Y-300111D01*
X-173653Y-300132D01*
X-173632Y-300171D01*
X-173613Y-300223D01*
X-173612Y-300229D01*
X-173610Y-300231D01*
X-173606Y-300243D01*
X-164106Y-316743D01*
X-164087Y-316765D01*
X-164074Y-316791D01*
X-164021Y-316839D01*
X-163974Y-316892D01*
X-163948Y-316905D01*
X-163927Y-316924D01*
X-163859Y-316947D01*
X-163795Y-316978D01*
X-163766Y-316980D01*
X-163739Y-316989D01*
X-163667Y-316984D01*
G37*
G36*
X86703Y-450478D02*
X86703Y-450478D01*
X86781Y-450469D01*
X86800Y-450458D01*
X86822Y-450454D01*
X86886Y-450410D01*
X86954Y-450371D01*
X86970Y-450352D01*
X86986Y-450341D01*
X87010Y-450303D01*
X87060Y-450243D01*
X96560Y-433743D01*
X96569Y-433716D01*
X96585Y-433692D01*
X96600Y-433622D01*
X96623Y-433554D01*
X96620Y-433526D01*
X96626Y-433498D01*
X96613Y-433428D01*
X96607Y-433356D01*
X96594Y-433331D01*
X96588Y-433303D01*
X96548Y-433243D01*
X96515Y-433180D01*
X96493Y-433162D01*
X96477Y-433138D01*
X96394Y-433080D01*
X96362Y-433053D01*
X96351Y-433050D01*
X96341Y-433043D01*
X93575Y-431734D01*
X93542Y-431726D01*
X93499Y-431706D01*
X90559Y-430858D01*
X90525Y-430855D01*
X90481Y-430842D01*
X87443Y-430477D01*
X87409Y-430480D01*
X87362Y-430474D01*
X84305Y-430601D01*
X84272Y-430609D01*
X84225Y-430610D01*
X81228Y-431226D01*
X81197Y-431239D01*
X81151Y-431249D01*
X78291Y-432337D01*
X78263Y-432355D01*
X78219Y-432372D01*
X75571Y-433905D01*
X75545Y-433927D01*
X75505Y-433950D01*
X73137Y-435888D01*
X73115Y-435915D01*
X73079Y-435944D01*
X71052Y-438237D01*
X71036Y-438266D01*
X71004Y-438301D01*
X69372Y-440889D01*
X69360Y-440921D01*
X69335Y-440960D01*
X68139Y-443777D01*
X68132Y-443810D01*
X68129Y-443817D01*
X68125Y-443823D01*
X68124Y-443829D01*
X68113Y-443853D01*
X67385Y-446825D01*
X67383Y-446859D01*
X67372Y-446904D01*
X67129Y-449954D01*
X67133Y-449983D01*
X67128Y-450011D01*
X67145Y-450080D01*
X67153Y-450152D01*
X67168Y-450176D01*
X67174Y-450204D01*
X67217Y-450262D01*
X67253Y-450324D01*
X67275Y-450341D01*
X67292Y-450364D01*
X67354Y-450401D01*
X67411Y-450444D01*
X67439Y-450451D01*
X67463Y-450466D01*
X67563Y-450482D01*
X67604Y-450493D01*
X67614Y-450491D01*
X67627Y-450493D01*
X86627Y-450493D01*
X86703Y-450478D01*
G37*
G36*
X-67545Y-450488D02*
X-67545Y-450488D01*
X-67517Y-450490D01*
X-67449Y-450468D01*
X-67378Y-450454D01*
X-67355Y-450438D01*
X-67328Y-450429D01*
X-67273Y-450382D01*
X-67214Y-450341D01*
X-67199Y-450317D01*
X-67178Y-450299D01*
X-67146Y-450234D01*
X-67107Y-450174D01*
X-67102Y-450146D01*
X-67090Y-450120D01*
X-67081Y-450019D01*
X-67074Y-449977D01*
X-67076Y-449967D01*
X-67075Y-449954D01*
X-67318Y-446904D01*
X-67327Y-446872D01*
X-67331Y-446825D01*
X-68059Y-443853D01*
X-68074Y-443822D01*
X-68085Y-443777D01*
X-69281Y-440960D01*
X-69300Y-440932D01*
X-69318Y-440889D01*
X-70950Y-438301D01*
X-70974Y-438277D01*
X-70998Y-438237D01*
X-73025Y-435944D01*
X-73052Y-435924D01*
X-73083Y-435888D01*
X-75451Y-433950D01*
X-75481Y-433934D01*
X-75517Y-433905D01*
X-78165Y-432372D01*
X-78197Y-432361D01*
X-78237Y-432337D01*
X-81097Y-431249D01*
X-81130Y-431243D01*
X-81174Y-431226D01*
X-84171Y-430610D01*
X-84205Y-430610D01*
X-84251Y-430601D01*
X-87308Y-430474D01*
X-87342Y-430479D01*
X-87389Y-430477D01*
X-90427Y-430842D01*
X-90459Y-430853D01*
X-90505Y-430858D01*
X-93445Y-431706D01*
X-93475Y-431722D01*
X-93521Y-431734D01*
X-96287Y-433043D01*
X-96309Y-433060D01*
X-96336Y-433070D01*
X-96388Y-433119D01*
X-96446Y-433162D01*
X-96460Y-433187D01*
X-96481Y-433206D01*
X-96510Y-433272D01*
X-96546Y-433334D01*
X-96549Y-433362D01*
X-96561Y-433388D01*
X-96562Y-433460D01*
X-96571Y-433531D01*
X-96563Y-433558D01*
X-96564Y-433587D01*
X-96528Y-433682D01*
X-96517Y-433722D01*
X-96510Y-433731D01*
X-96506Y-433743D01*
X-87006Y-450243D01*
X-86954Y-450302D01*
X-86908Y-450364D01*
X-86889Y-450375D01*
X-86874Y-450392D01*
X-86804Y-450426D01*
X-86737Y-450466D01*
X-86713Y-450470D01*
X-86695Y-450478D01*
X-86650Y-450480D01*
X-86573Y-450493D01*
X-67573Y-450493D01*
X-67545Y-450488D01*
G37*
D10*
X-122492Y116D03*
X-122492Y-14884D03*
D11*
X-109099Y202D03*
X-92099Y202D03*
D12*
X-94978Y24069D02*
X-105936Y24069D01*
X-94978Y24069D02*
X-94978Y19111D01*
X-105936Y19111D01*
X-105936Y24069D01*
X-105936Y44511D02*
X-94978Y44511D01*
X-105936Y44511D02*
X-105936Y49469D01*
X-94978Y49469D01*
X-94978Y44511D01*
X-40277Y120203D02*
X-29319Y120203D01*
X-40277Y120203D02*
X-40277Y125161D01*
X-29319Y125161D01*
X-29319Y120203D01*
X62982Y118123D02*
X62982Y129081D01*
X62982Y118123D02*
X58024Y118123D01*
X58024Y129081D01*
X62982Y129081D01*
X62982Y123879D02*
X58024Y123879D01*
D13*
X44127Y-74126D03*
X33127Y-74126D03*
X22127Y-74126D03*
X11127Y-74126D03*
X127Y-74126D03*
X-10873Y-74126D03*
X-21873Y-74126D03*
X-32873Y-74126D03*
X-43873Y-74126D03*
X-43873Y-164126D03*
X-32873Y-164126D03*
X-21873Y-164126D03*
X-10873Y-164126D03*
X127Y-164126D03*
X11127Y-164126D03*
X22127Y-164126D03*
X33127Y-164126D03*
X44127Y-164126D03*
D14*
X-7239Y-367212D03*
X-7239Y-370912D03*
D15*
X24511Y-338051D03*
X24511Y-351051D03*
D16*
X5903Y-370713D03*
X1463Y-370713D03*
D15*
X-17018Y-287043D03*
X-17018Y-274043D03*
X-17145Y-242420D03*
X-17145Y-255420D03*
D17*
X-7366Y-242504D03*
X-7366Y-238064D03*
D18*
X-7366Y-226187D03*
D19*
X11407Y-227965D03*
X24407Y-227965D03*
D15*
X-11430Y-183746D03*
X-11430Y-196746D03*
D20*
X-29972Y-223948D03*
X-27097Y-218948D03*
X-32847Y-218948D03*
X-27097Y-213948D03*
X-32847Y-213948D03*
D15*
X-32893Y-197381D03*
X-32893Y-184381D03*
X-45593Y-197381D03*
X-45593Y-184381D03*
D19*
X11407Y-239649D03*
X24407Y-239649D03*
X11407Y-205740D03*
X24407Y-205740D03*
X11407Y-216662D03*
X24407Y-216662D03*
D21*
X13039Y-301579D02*
X13039Y-312489D01*
X10029Y-312489D01*
X10029Y-301579D01*
X13039Y-301579D01*
X13039Y-310583D02*
X10029Y-310583D01*
X10029Y-308677D02*
X13039Y-308677D01*
X13039Y-306771D02*
X10029Y-306771D01*
X10029Y-304865D02*
X13039Y-304865D01*
X13039Y-302959D02*
X10029Y-302959D01*
X19539Y-301579D02*
X19539Y-312489D01*
X16529Y-312489D01*
X16529Y-301579D01*
X19539Y-301579D01*
X19539Y-310583D02*
X16529Y-310583D01*
X16529Y-308677D02*
X19539Y-308677D01*
X19539Y-306771D02*
X16529Y-306771D01*
X16529Y-304865D02*
X19539Y-304865D01*
X19539Y-302959D02*
X16529Y-302959D01*
X26039Y-301579D02*
X26039Y-312489D01*
X23029Y-312489D01*
X23029Y-301579D01*
X26039Y-301579D01*
X26039Y-310583D02*
X23029Y-310583D01*
X23029Y-308677D02*
X26039Y-308677D01*
X26039Y-306771D02*
X23029Y-306771D01*
X23029Y-304865D02*
X26039Y-304865D01*
X26039Y-302959D02*
X23029Y-302959D01*
X26039Y-293289D02*
X26039Y-282379D01*
X26039Y-293289D02*
X23029Y-293289D01*
X23029Y-282379D01*
X26039Y-282379D01*
X26039Y-291383D02*
X23029Y-291383D01*
X23029Y-289477D02*
X26039Y-289477D01*
X26039Y-287571D02*
X23029Y-287571D01*
X23029Y-285665D02*
X26039Y-285665D01*
X26039Y-283759D02*
X23029Y-283759D01*
X13039Y-282379D02*
X13039Y-293289D01*
X10029Y-293289D01*
X10029Y-282379D01*
X13039Y-282379D01*
X13039Y-291383D02*
X10029Y-291383D01*
X10029Y-289477D02*
X13039Y-289477D01*
X13039Y-287571D02*
X10029Y-287571D01*
X10029Y-285665D02*
X13039Y-285665D01*
X13039Y-283759D02*
X10029Y-283759D01*
D15*
X11557Y-338051D03*
X11557Y-351051D03*
D19*
X11534Y-322580D03*
X24534Y-322580D03*
X55776Y-227965D03*
X42776Y-227965D03*
X11534Y-262255D03*
X24534Y-262255D03*
X11453Y-273050D03*
X-1547Y-273050D03*
X24407Y-251206D03*
X11407Y-251206D03*
D22*
X5127Y-177321D03*
X127Y-177321D03*
X-37893Y-59280D03*
X-32893Y-59280D03*
D16*
X-23175Y-59309D03*
X-18735Y-59309D03*
D19*
X-31796Y-49400D03*
X-18796Y-49400D03*
D15*
X-28194Y-274043D03*
X-28194Y-287043D03*
D23*
X42167Y-290086D03*
X42167Y-307086D03*
D24*
X165227Y6D03*
X81357Y-158461D03*
X-81303Y-159350D03*
X-165173Y6D03*
X123927Y71506D03*
X123927Y-71494D03*
X-123873Y-71494D03*
X-123873Y71506D03*
X165227Y-299994D03*
X82627Y-443094D03*
X-82573Y-443094D03*
X-165173Y-299994D03*
X123927Y-228494D03*
X123927Y-371494D03*
X-123873Y-371494D03*
X-123873Y-228494D03*
X82627Y143073D03*
X-82573Y143073D03*
X27Y143106D03*
D25*
X1524Y-414397D03*
D26*
X-49530Y91694D03*
M02*
