G04 EAGLE Gerber RS-274X export*
G75*
%MOMM*%
%FSLAX34Y34*%
%LPD*%
%INSolderpaste Bottom*%
%IPPOS*%
%AMOC8*
5,1,8,0,0,1.08239X$1,22.5*%
G01*
%ADD10R,1.100000X1.000000*%
%ADD11R,1.300000X1.500000*%
%ADD12R,1.399997X0.400000*%
%ADD13R,1.000000X1.100000*%
%ADD14R,1.500000X1.300000*%
%ADD15C,0.300000*%

G36*
X-47371Y-443598D02*
X-47371Y-443598D01*
X-47371Y-443597D01*
X-47371Y-436502D01*
X-32781Y-436502D01*
X-32781Y-443597D01*
X-32777Y-443602D01*
X-32776Y-443602D01*
X-30226Y-443602D01*
X-30221Y-443598D01*
X-30221Y-443597D01*
X-30221Y-385197D01*
X-30225Y-385192D01*
X-30226Y-385192D01*
X-54376Y-385192D01*
X-54381Y-385196D01*
X-54381Y-385197D01*
X-54381Y-443597D01*
X-54377Y-443602D01*
X-54376Y-443602D01*
X-47376Y-443602D01*
X-47371Y-443598D01*
G37*
G36*
X35829Y-443598D02*
X35829Y-443598D01*
X35829Y-443597D01*
X35829Y-436502D01*
X50419Y-436502D01*
X50419Y-443597D01*
X50423Y-443602D01*
X50424Y-443602D01*
X57424Y-443602D01*
X57429Y-443598D01*
X57429Y-443597D01*
X57429Y-385197D01*
X57425Y-385192D01*
X57424Y-385192D01*
X33274Y-385192D01*
X33269Y-385196D01*
X33269Y-385197D01*
X33269Y-443597D01*
X33273Y-443602D01*
X33274Y-443602D01*
X35824Y-443602D01*
X35829Y-443598D01*
G37*
D10*
X91997Y101890D03*
X74997Y101890D03*
D11*
X-65520Y108848D03*
X-84520Y108848D03*
D12*
X70452Y60750D03*
X70452Y48750D03*
X70452Y36750D03*
D13*
X-44942Y107371D03*
X-27942Y107371D03*
D14*
X90485Y-53305D03*
X90485Y-34305D03*
X-84643Y-32400D03*
X-84643Y-51400D03*
D13*
X-84178Y90626D03*
X-84178Y73626D03*
X69083Y-54456D03*
X69083Y-37456D03*
D10*
X79427Y-2741D03*
X96427Y-2741D03*
X53316Y101316D03*
X36316Y101316D03*
X65300Y80150D03*
X82300Y80150D03*
D15*
X29880Y75630D02*
X29880Y85630D01*
X24880Y85630D02*
X24880Y75630D01*
X19880Y75630D02*
X19880Y85630D01*
X14880Y85630D02*
X14880Y75630D01*
X9880Y75630D02*
X9880Y85630D01*
X4880Y85630D02*
X4880Y75630D01*
X-120Y75630D02*
X-120Y85630D01*
X-5120Y85630D02*
X-5120Y75630D01*
X-10120Y75630D02*
X-10120Y85630D01*
X-15120Y85630D02*
X-15120Y75630D01*
X-20120Y75630D02*
X-20120Y85630D01*
X-25120Y85630D02*
X-25120Y75630D01*
X-30120Y75630D02*
X-30120Y85630D01*
X-35120Y85630D02*
X-35120Y75630D01*
X-40120Y75630D02*
X-40120Y85630D01*
X-45120Y85630D02*
X-45120Y75630D01*
X-59120Y61630D02*
X-69120Y61630D01*
X-69120Y56630D02*
X-59120Y56630D01*
X-59120Y51630D02*
X-69120Y51630D01*
X-69120Y46630D02*
X-59120Y46630D01*
X-59120Y41630D02*
X-69120Y41630D01*
X-69120Y36630D02*
X-59120Y36630D01*
X-59120Y31630D02*
X-69120Y31630D01*
X-69120Y26630D02*
X-59120Y26630D01*
X-59120Y21630D02*
X-69120Y21630D01*
X-69120Y16630D02*
X-59120Y16630D01*
X-59120Y11630D02*
X-69120Y11630D01*
X-69120Y6630D02*
X-59120Y6630D01*
X-59120Y1630D02*
X-69120Y1630D01*
X-69120Y-3370D02*
X-59120Y-3370D01*
X-59120Y-8370D02*
X-69120Y-8370D01*
X-69120Y-13370D02*
X-59120Y-13370D01*
X-45120Y-27370D02*
X-45120Y-37370D01*
X-40120Y-37370D02*
X-40120Y-27370D01*
X-35120Y-27370D02*
X-35120Y-37370D01*
X-30120Y-37370D02*
X-30120Y-27370D01*
X-25120Y-27370D02*
X-25120Y-37370D01*
X-20120Y-37370D02*
X-20120Y-27370D01*
X-15120Y-27370D02*
X-15120Y-37370D01*
X-10120Y-37370D02*
X-10120Y-27370D01*
X-5120Y-27370D02*
X-5120Y-37370D01*
X-120Y-37370D02*
X-120Y-27370D01*
X4880Y-27370D02*
X4880Y-37370D01*
X9880Y-37370D02*
X9880Y-27370D01*
X14880Y-27370D02*
X14880Y-37370D01*
X19880Y-37370D02*
X19880Y-27370D01*
X24880Y-27370D02*
X24880Y-37370D01*
X29880Y-37370D02*
X29880Y-27370D01*
X43880Y-13370D02*
X53880Y-13370D01*
X53880Y-8370D02*
X43880Y-8370D01*
X43880Y-3370D02*
X53880Y-3370D01*
X53880Y1630D02*
X43880Y1630D01*
X43880Y6630D02*
X53880Y6630D01*
X53880Y11630D02*
X43880Y11630D01*
X43880Y16630D02*
X53880Y16630D01*
X53880Y21630D02*
X43880Y21630D01*
X43880Y26630D02*
X53880Y26630D01*
X53880Y31630D02*
X43880Y31630D01*
X43880Y36630D02*
X53880Y36630D01*
X53880Y41630D02*
X43880Y41630D01*
X43880Y46630D02*
X53880Y46630D01*
X53880Y51630D02*
X43880Y51630D01*
X43880Y56630D02*
X53880Y56630D01*
X53880Y61630D02*
X43880Y61630D01*
M02*
