G04 EAGLE Gerber RS-274X export*
G75*
%MOMM*%
%FSLAX34Y34*%
%LPD*%
%INSolderpaste Top*%
%IPPOS*%
%AMOC8*
5,1,8,0,0,1.08239X$1,22.5*%
G01*
%ADD10R,0.800000X0.800000*%
%ADD11R,1.000000X1.100000*%
%ADD12R,0.850000X1.450000*%
%ADD13R,0.230000X0.220000*%
%ADD14R,0.900000X0.700000*%
%ADD15R,0.290000X0.300000*%
%ADD16R,0.300000X0.290000*%
%ADD17C,0.125000*%
%ADD18C,0.250000*%
%ADD19R,0.700000X0.900000*%
%ADD20R,0.375000X0.300000*%
%ADD21C,0.100000*%
%ADD22R,0.250000X0.350000*%
%ADD23R,1.100000X1.000000*%
%ADD24R,2.290000X5.840000*%

G36*
X-47371Y-443598D02*
X-47371Y-443598D01*
X-47371Y-443597D01*
X-47371Y-436502D01*
X-32781Y-436502D01*
X-32781Y-443597D01*
X-32777Y-443602D01*
X-32776Y-443602D01*
X-30226Y-443602D01*
X-30221Y-443598D01*
X-30221Y-443597D01*
X-30221Y-385197D01*
X-30225Y-385192D01*
X-30226Y-385192D01*
X-54376Y-385192D01*
X-54381Y-385196D01*
X-54381Y-385197D01*
X-54381Y-443597D01*
X-54377Y-443602D01*
X-54376Y-443602D01*
X-47376Y-443602D01*
X-47371Y-443598D01*
G37*
G36*
X35829Y-443598D02*
X35829Y-443598D01*
X35829Y-443597D01*
X35829Y-436502D01*
X50419Y-436502D01*
X50419Y-443597D01*
X50423Y-443602D01*
X50424Y-443602D01*
X57424Y-443602D01*
X57429Y-443598D01*
X57429Y-443597D01*
X57429Y-385197D01*
X57425Y-385192D01*
X57424Y-385192D01*
X33274Y-385192D01*
X33269Y-385196D01*
X33269Y-385197D01*
X33269Y-443597D01*
X33273Y-443602D01*
X33274Y-443602D01*
X35824Y-443602D01*
X35829Y-443598D01*
G37*
D10*
X-122492Y116D03*
X-122492Y-14884D03*
D11*
X-109099Y202D03*
X-92099Y202D03*
D12*
X44127Y-74126D03*
X33127Y-74126D03*
X22127Y-74126D03*
X11127Y-74126D03*
X127Y-74126D03*
X-10873Y-74126D03*
X-21873Y-74126D03*
X-32873Y-74126D03*
X-43873Y-74126D03*
X-43873Y-164126D03*
X-32873Y-164126D03*
X-21873Y-164126D03*
X-10873Y-164126D03*
X127Y-164126D03*
X11127Y-164126D03*
X22127Y-164126D03*
X33127Y-164126D03*
X44127Y-164126D03*
D13*
X-7239Y-367212D03*
X-7239Y-370912D03*
D14*
X24511Y-338051D03*
X24511Y-351051D03*
D15*
X5903Y-370713D03*
X1463Y-370713D03*
D14*
X-17018Y-287043D03*
X-17018Y-274043D03*
X-17145Y-242420D03*
X-17145Y-255420D03*
D16*
X-7366Y-242504D03*
X-7366Y-238064D03*
D17*
X-3991Y-224187D02*
X-3989Y-224137D01*
X-3983Y-224088D01*
X-3973Y-224039D01*
X-3960Y-223992D01*
X-3942Y-223945D01*
X-3921Y-223900D01*
X-3897Y-223857D01*
X-3869Y-223816D01*
X-3838Y-223777D01*
X-3804Y-223741D01*
X-3767Y-223707D01*
X-3727Y-223677D01*
X-3686Y-223650D01*
X-3642Y-223626D01*
X-3597Y-223606D01*
X-3550Y-223590D01*
X-3502Y-223577D01*
X-3453Y-223568D01*
X-3403Y-223563D01*
X-3354Y-223562D01*
X-3304Y-223565D01*
X-3255Y-223572D01*
X-3206Y-223583D01*
X-3159Y-223597D01*
X-3113Y-223616D01*
X-3068Y-223638D01*
X-3025Y-223663D01*
X-2985Y-223692D01*
X-2947Y-223724D01*
X-2911Y-223758D01*
X-2878Y-223796D01*
X-2849Y-223836D01*
X-2823Y-223878D01*
X-2800Y-223922D01*
X-2781Y-223968D01*
X-2765Y-224015D01*
X-2753Y-224064D01*
X-2745Y-224113D01*
X-2741Y-224162D01*
X-2741Y-224212D01*
X-2745Y-224261D01*
X-2753Y-224310D01*
X-2765Y-224359D01*
X-2781Y-224406D01*
X-2800Y-224452D01*
X-2823Y-224496D01*
X-2849Y-224538D01*
X-2878Y-224578D01*
X-2911Y-224616D01*
X-2947Y-224650D01*
X-2985Y-224682D01*
X-3025Y-224711D01*
X-3068Y-224736D01*
X-3113Y-224758D01*
X-3159Y-224777D01*
X-3206Y-224791D01*
X-3255Y-224802D01*
X-3304Y-224809D01*
X-3354Y-224812D01*
X-3403Y-224811D01*
X-3453Y-224806D01*
X-3502Y-224797D01*
X-3550Y-224784D01*
X-3597Y-224768D01*
X-3642Y-224748D01*
X-3686Y-224724D01*
X-3727Y-224697D01*
X-3767Y-224667D01*
X-3804Y-224633D01*
X-3838Y-224597D01*
X-3869Y-224558D01*
X-3897Y-224517D01*
X-3921Y-224474D01*
X-3942Y-224429D01*
X-3960Y-224382D01*
X-3973Y-224335D01*
X-3983Y-224286D01*
X-3989Y-224237D01*
X-3991Y-224187D01*
X-7991Y-224187D02*
X-7989Y-224137D01*
X-7983Y-224088D01*
X-7973Y-224039D01*
X-7960Y-223992D01*
X-7942Y-223945D01*
X-7921Y-223900D01*
X-7897Y-223857D01*
X-7869Y-223816D01*
X-7838Y-223777D01*
X-7804Y-223741D01*
X-7767Y-223707D01*
X-7727Y-223677D01*
X-7686Y-223650D01*
X-7642Y-223626D01*
X-7597Y-223606D01*
X-7550Y-223590D01*
X-7502Y-223577D01*
X-7453Y-223568D01*
X-7403Y-223563D01*
X-7354Y-223562D01*
X-7304Y-223565D01*
X-7255Y-223572D01*
X-7206Y-223583D01*
X-7159Y-223597D01*
X-7113Y-223616D01*
X-7068Y-223638D01*
X-7025Y-223663D01*
X-6985Y-223692D01*
X-6947Y-223724D01*
X-6911Y-223758D01*
X-6878Y-223796D01*
X-6849Y-223836D01*
X-6823Y-223878D01*
X-6800Y-223922D01*
X-6781Y-223968D01*
X-6765Y-224015D01*
X-6753Y-224064D01*
X-6745Y-224113D01*
X-6741Y-224162D01*
X-6741Y-224212D01*
X-6745Y-224261D01*
X-6753Y-224310D01*
X-6765Y-224359D01*
X-6781Y-224406D01*
X-6800Y-224452D01*
X-6823Y-224496D01*
X-6849Y-224538D01*
X-6878Y-224578D01*
X-6911Y-224616D01*
X-6947Y-224650D01*
X-6985Y-224682D01*
X-7025Y-224711D01*
X-7068Y-224736D01*
X-7113Y-224758D01*
X-7159Y-224777D01*
X-7206Y-224791D01*
X-7255Y-224802D01*
X-7304Y-224809D01*
X-7354Y-224812D01*
X-7403Y-224811D01*
X-7453Y-224806D01*
X-7502Y-224797D01*
X-7550Y-224784D01*
X-7597Y-224768D01*
X-7642Y-224748D01*
X-7686Y-224724D01*
X-7727Y-224697D01*
X-7767Y-224667D01*
X-7804Y-224633D01*
X-7838Y-224597D01*
X-7869Y-224558D01*
X-7897Y-224517D01*
X-7921Y-224474D01*
X-7942Y-224429D01*
X-7960Y-224382D01*
X-7973Y-224335D01*
X-7983Y-224286D01*
X-7989Y-224237D01*
X-7991Y-224187D01*
X-7991Y-228187D02*
X-7989Y-228137D01*
X-7983Y-228088D01*
X-7973Y-228039D01*
X-7960Y-227992D01*
X-7942Y-227945D01*
X-7921Y-227900D01*
X-7897Y-227857D01*
X-7869Y-227816D01*
X-7838Y-227777D01*
X-7804Y-227741D01*
X-7767Y-227707D01*
X-7727Y-227677D01*
X-7686Y-227650D01*
X-7642Y-227626D01*
X-7597Y-227606D01*
X-7550Y-227590D01*
X-7502Y-227577D01*
X-7453Y-227568D01*
X-7403Y-227563D01*
X-7354Y-227562D01*
X-7304Y-227565D01*
X-7255Y-227572D01*
X-7206Y-227583D01*
X-7159Y-227597D01*
X-7113Y-227616D01*
X-7068Y-227638D01*
X-7025Y-227663D01*
X-6985Y-227692D01*
X-6947Y-227724D01*
X-6911Y-227758D01*
X-6878Y-227796D01*
X-6849Y-227836D01*
X-6823Y-227878D01*
X-6800Y-227922D01*
X-6781Y-227968D01*
X-6765Y-228015D01*
X-6753Y-228064D01*
X-6745Y-228113D01*
X-6741Y-228162D01*
X-6741Y-228212D01*
X-6745Y-228261D01*
X-6753Y-228310D01*
X-6765Y-228359D01*
X-6781Y-228406D01*
X-6800Y-228452D01*
X-6823Y-228496D01*
X-6849Y-228538D01*
X-6878Y-228578D01*
X-6911Y-228616D01*
X-6947Y-228650D01*
X-6985Y-228682D01*
X-7025Y-228711D01*
X-7068Y-228736D01*
X-7113Y-228758D01*
X-7159Y-228777D01*
X-7206Y-228791D01*
X-7255Y-228802D01*
X-7304Y-228809D01*
X-7354Y-228812D01*
X-7403Y-228811D01*
X-7453Y-228806D01*
X-7502Y-228797D01*
X-7550Y-228784D01*
X-7597Y-228768D01*
X-7642Y-228748D01*
X-7686Y-228724D01*
X-7727Y-228697D01*
X-7767Y-228667D01*
X-7804Y-228633D01*
X-7838Y-228597D01*
X-7869Y-228558D01*
X-7897Y-228517D01*
X-7921Y-228474D01*
X-7942Y-228429D01*
X-7960Y-228382D01*
X-7973Y-228335D01*
X-7983Y-228286D01*
X-7989Y-228237D01*
X-7991Y-228187D01*
D18*
X-11366Y-224187D03*
X-3366Y-228187D03*
X-3366Y-228187D03*
X-11366Y-224187D03*
D17*
X-11991Y-224187D02*
X-11989Y-224137D01*
X-11983Y-224088D01*
X-11973Y-224039D01*
X-11960Y-223992D01*
X-11942Y-223945D01*
X-11921Y-223900D01*
X-11897Y-223857D01*
X-11869Y-223816D01*
X-11838Y-223777D01*
X-11804Y-223741D01*
X-11767Y-223707D01*
X-11727Y-223677D01*
X-11686Y-223650D01*
X-11642Y-223626D01*
X-11597Y-223606D01*
X-11550Y-223590D01*
X-11502Y-223577D01*
X-11453Y-223568D01*
X-11403Y-223563D01*
X-11354Y-223562D01*
X-11304Y-223565D01*
X-11255Y-223572D01*
X-11206Y-223583D01*
X-11159Y-223597D01*
X-11113Y-223616D01*
X-11068Y-223638D01*
X-11025Y-223663D01*
X-10985Y-223692D01*
X-10947Y-223724D01*
X-10911Y-223758D01*
X-10878Y-223796D01*
X-10849Y-223836D01*
X-10823Y-223878D01*
X-10800Y-223922D01*
X-10781Y-223968D01*
X-10765Y-224015D01*
X-10753Y-224064D01*
X-10745Y-224113D01*
X-10741Y-224162D01*
X-10741Y-224212D01*
X-10745Y-224261D01*
X-10753Y-224310D01*
X-10765Y-224359D01*
X-10781Y-224406D01*
X-10800Y-224452D01*
X-10823Y-224496D01*
X-10849Y-224538D01*
X-10878Y-224578D01*
X-10911Y-224616D01*
X-10947Y-224650D01*
X-10985Y-224682D01*
X-11025Y-224711D01*
X-11068Y-224736D01*
X-11113Y-224758D01*
X-11159Y-224777D01*
X-11206Y-224791D01*
X-11255Y-224802D01*
X-11304Y-224809D01*
X-11354Y-224812D01*
X-11403Y-224811D01*
X-11453Y-224806D01*
X-11502Y-224797D01*
X-11550Y-224784D01*
X-11597Y-224768D01*
X-11642Y-224748D01*
X-11686Y-224724D01*
X-11727Y-224697D01*
X-11767Y-224667D01*
X-11804Y-224633D01*
X-11838Y-224597D01*
X-11869Y-224558D01*
X-11897Y-224517D01*
X-11921Y-224474D01*
X-11942Y-224429D01*
X-11960Y-224382D01*
X-11973Y-224335D01*
X-11983Y-224286D01*
X-11989Y-224237D01*
X-11991Y-224187D01*
D18*
X-3366Y-228187D03*
D17*
X-3991Y-228187D02*
X-3989Y-228137D01*
X-3983Y-228088D01*
X-3973Y-228039D01*
X-3960Y-227992D01*
X-3942Y-227945D01*
X-3921Y-227900D01*
X-3897Y-227857D01*
X-3869Y-227816D01*
X-3838Y-227777D01*
X-3804Y-227741D01*
X-3767Y-227707D01*
X-3727Y-227677D01*
X-3686Y-227650D01*
X-3642Y-227626D01*
X-3597Y-227606D01*
X-3550Y-227590D01*
X-3502Y-227577D01*
X-3453Y-227568D01*
X-3403Y-227563D01*
X-3354Y-227562D01*
X-3304Y-227565D01*
X-3255Y-227572D01*
X-3206Y-227583D01*
X-3159Y-227597D01*
X-3113Y-227616D01*
X-3068Y-227638D01*
X-3025Y-227663D01*
X-2985Y-227692D01*
X-2947Y-227724D01*
X-2911Y-227758D01*
X-2878Y-227796D01*
X-2849Y-227836D01*
X-2823Y-227878D01*
X-2800Y-227922D01*
X-2781Y-227968D01*
X-2765Y-228015D01*
X-2753Y-228064D01*
X-2745Y-228113D01*
X-2741Y-228162D01*
X-2741Y-228212D01*
X-2745Y-228261D01*
X-2753Y-228310D01*
X-2765Y-228359D01*
X-2781Y-228406D01*
X-2800Y-228452D01*
X-2823Y-228496D01*
X-2849Y-228538D01*
X-2878Y-228578D01*
X-2911Y-228616D01*
X-2947Y-228650D01*
X-2985Y-228682D01*
X-3025Y-228711D01*
X-3068Y-228736D01*
X-3113Y-228758D01*
X-3159Y-228777D01*
X-3206Y-228791D01*
X-3255Y-228802D01*
X-3304Y-228809D01*
X-3354Y-228812D01*
X-3403Y-228811D01*
X-3453Y-228806D01*
X-3502Y-228797D01*
X-3550Y-228784D01*
X-3597Y-228768D01*
X-3642Y-228748D01*
X-3686Y-228724D01*
X-3727Y-228697D01*
X-3767Y-228667D01*
X-3804Y-228633D01*
X-3838Y-228597D01*
X-3869Y-228558D01*
X-3897Y-228517D01*
X-3921Y-228474D01*
X-3942Y-228429D01*
X-3960Y-228382D01*
X-3973Y-228335D01*
X-3983Y-228286D01*
X-3989Y-228237D01*
X-3991Y-228187D01*
X-11991Y-228187D02*
X-11989Y-228137D01*
X-11983Y-228088D01*
X-11973Y-228039D01*
X-11960Y-227992D01*
X-11942Y-227945D01*
X-11921Y-227900D01*
X-11897Y-227857D01*
X-11869Y-227816D01*
X-11838Y-227777D01*
X-11804Y-227741D01*
X-11767Y-227707D01*
X-11727Y-227677D01*
X-11686Y-227650D01*
X-11642Y-227626D01*
X-11597Y-227606D01*
X-11550Y-227590D01*
X-11502Y-227577D01*
X-11453Y-227568D01*
X-11403Y-227563D01*
X-11354Y-227562D01*
X-11304Y-227565D01*
X-11255Y-227572D01*
X-11206Y-227583D01*
X-11159Y-227597D01*
X-11113Y-227616D01*
X-11068Y-227638D01*
X-11025Y-227663D01*
X-10985Y-227692D01*
X-10947Y-227724D01*
X-10911Y-227758D01*
X-10878Y-227796D01*
X-10849Y-227836D01*
X-10823Y-227878D01*
X-10800Y-227922D01*
X-10781Y-227968D01*
X-10765Y-228015D01*
X-10753Y-228064D01*
X-10745Y-228113D01*
X-10741Y-228162D01*
X-10741Y-228212D01*
X-10745Y-228261D01*
X-10753Y-228310D01*
X-10765Y-228359D01*
X-10781Y-228406D01*
X-10800Y-228452D01*
X-10823Y-228496D01*
X-10849Y-228538D01*
X-10878Y-228578D01*
X-10911Y-228616D01*
X-10947Y-228650D01*
X-10985Y-228682D01*
X-11025Y-228711D01*
X-11068Y-228736D01*
X-11113Y-228758D01*
X-11159Y-228777D01*
X-11206Y-228791D01*
X-11255Y-228802D01*
X-11304Y-228809D01*
X-11354Y-228812D01*
X-11403Y-228811D01*
X-11453Y-228806D01*
X-11502Y-228797D01*
X-11550Y-228784D01*
X-11597Y-228768D01*
X-11642Y-228748D01*
X-11686Y-228724D01*
X-11727Y-228697D01*
X-11767Y-228667D01*
X-11804Y-228633D01*
X-11838Y-228597D01*
X-11869Y-228558D01*
X-11897Y-228517D01*
X-11921Y-228474D01*
X-11942Y-228429D01*
X-11960Y-228382D01*
X-11973Y-228335D01*
X-11983Y-228286D01*
X-11989Y-228237D01*
X-11991Y-228187D01*
D19*
X11407Y-227965D03*
X24407Y-227965D03*
D14*
X-11430Y-183746D03*
X-11430Y-196746D03*
D20*
X-29972Y-223948D03*
X-27097Y-218948D03*
X-32847Y-218948D03*
X-27097Y-213948D03*
X-32847Y-213948D03*
D14*
X-32893Y-197381D03*
X-32893Y-184381D03*
X-45593Y-197381D03*
X-45593Y-184381D03*
D19*
X11407Y-239649D03*
X24407Y-239649D03*
X11407Y-205740D03*
X24407Y-205740D03*
X11407Y-216662D03*
X24407Y-216662D03*
D21*
X13034Y-301584D02*
X13034Y-312484D01*
X10034Y-312484D01*
X10034Y-301584D01*
X13034Y-301584D01*
X13034Y-311534D02*
X10034Y-311534D01*
X10034Y-310584D02*
X13034Y-310584D01*
X13034Y-309634D02*
X10034Y-309634D01*
X10034Y-308684D02*
X13034Y-308684D01*
X13034Y-307734D02*
X10034Y-307734D01*
X10034Y-306784D02*
X13034Y-306784D01*
X13034Y-305834D02*
X10034Y-305834D01*
X10034Y-304884D02*
X13034Y-304884D01*
X13034Y-303934D02*
X10034Y-303934D01*
X10034Y-302984D02*
X13034Y-302984D01*
X13034Y-302034D02*
X10034Y-302034D01*
X19534Y-301584D02*
X19534Y-312484D01*
X16534Y-312484D01*
X16534Y-301584D01*
X19534Y-301584D01*
X19534Y-311534D02*
X16534Y-311534D01*
X16534Y-310584D02*
X19534Y-310584D01*
X19534Y-309634D02*
X16534Y-309634D01*
X16534Y-308684D02*
X19534Y-308684D01*
X19534Y-307734D02*
X16534Y-307734D01*
X16534Y-306784D02*
X19534Y-306784D01*
X19534Y-305834D02*
X16534Y-305834D01*
X16534Y-304884D02*
X19534Y-304884D01*
X19534Y-303934D02*
X16534Y-303934D01*
X16534Y-302984D02*
X19534Y-302984D01*
X19534Y-302034D02*
X16534Y-302034D01*
X26034Y-301584D02*
X26034Y-312484D01*
X23034Y-312484D01*
X23034Y-301584D01*
X26034Y-301584D01*
X26034Y-311534D02*
X23034Y-311534D01*
X23034Y-310584D02*
X26034Y-310584D01*
X26034Y-309634D02*
X23034Y-309634D01*
X23034Y-308684D02*
X26034Y-308684D01*
X26034Y-307734D02*
X23034Y-307734D01*
X23034Y-306784D02*
X26034Y-306784D01*
X26034Y-305834D02*
X23034Y-305834D01*
X23034Y-304884D02*
X26034Y-304884D01*
X26034Y-303934D02*
X23034Y-303934D01*
X23034Y-302984D02*
X26034Y-302984D01*
X26034Y-302034D02*
X23034Y-302034D01*
X26034Y-293284D02*
X26034Y-282384D01*
X26034Y-293284D02*
X23034Y-293284D01*
X23034Y-282384D01*
X26034Y-282384D01*
X26034Y-292334D02*
X23034Y-292334D01*
X23034Y-291384D02*
X26034Y-291384D01*
X26034Y-290434D02*
X23034Y-290434D01*
X23034Y-289484D02*
X26034Y-289484D01*
X26034Y-288534D02*
X23034Y-288534D01*
X23034Y-287584D02*
X26034Y-287584D01*
X26034Y-286634D02*
X23034Y-286634D01*
X23034Y-285684D02*
X26034Y-285684D01*
X26034Y-284734D02*
X23034Y-284734D01*
X23034Y-283784D02*
X26034Y-283784D01*
X26034Y-282834D02*
X23034Y-282834D01*
X13034Y-282384D02*
X13034Y-293284D01*
X10034Y-293284D01*
X10034Y-282384D01*
X13034Y-282384D01*
X13034Y-292334D02*
X10034Y-292334D01*
X10034Y-291384D02*
X13034Y-291384D01*
X13034Y-290434D02*
X10034Y-290434D01*
X10034Y-289484D02*
X13034Y-289484D01*
X13034Y-288534D02*
X10034Y-288534D01*
X10034Y-287584D02*
X13034Y-287584D01*
X13034Y-286634D02*
X10034Y-286634D01*
X10034Y-285684D02*
X13034Y-285684D01*
X13034Y-284734D02*
X10034Y-284734D01*
X10034Y-283784D02*
X13034Y-283784D01*
X13034Y-282834D02*
X10034Y-282834D01*
D14*
X11557Y-338051D03*
X11557Y-351051D03*
D19*
X11534Y-322580D03*
X24534Y-322580D03*
X55776Y-227965D03*
X42776Y-227965D03*
X11534Y-262255D03*
X24534Y-262255D03*
X11453Y-273050D03*
X-1547Y-273050D03*
X24407Y-251206D03*
X11407Y-251206D03*
D22*
X5127Y-177321D03*
X127Y-177321D03*
X-37893Y-59280D03*
X-32893Y-59280D03*
D15*
X-23175Y-59309D03*
X-18735Y-59309D03*
D19*
X-31796Y-49400D03*
X-18796Y-49400D03*
D14*
X-28194Y-274043D03*
X-28194Y-287043D03*
D23*
X42167Y-290086D03*
X42167Y-307086D03*
D24*
X1524Y-414397D03*
M02*
