M48
;GenerationSoftware,Autodesk,EAGLE,9.6.2*%
;CreationDate,2021-04-17T15:00:28Z*%
FMAT,2
ICI,OFF
METRIC,TZ,000.000
T3C0.300
T2C0.350
T1C0.400
%
G90
M71
T1
X-4953Y9169
T2
X-3480Y13291
X7087Y12357
X-9766Y3111
X-9589Y5918
X4877Y-2083
X10351Y-19990
X1356Y-1429
X698Y10020
X3797Y-3238
X9893Y-21158
X457Y-1816
X-61Y10681
X6756Y-469
X12014Y-3848
X6171Y-1169
X11151Y-4432
X2685Y3048
X-10135Y9271
X-1905Y9398
X-8915Y-6490
X-889Y9398
X-8979Y-7582
X3315Y-6159
X2210Y-6172
X3594Y3111
X-10541Y10147
X11557Y3683
X-8026Y2076
X-9906Y-20917
X-8014Y3048
X-10579Y-20231
X178Y-21742
X-1041Y-31115
X-5271Y2565
X13Y-4496
X-7747Y-63
X-7623Y-1232
X-8011Y3973
X3673Y6350
X-6413Y6858
X-4390Y-5140
X-6972Y-20879
X-6642Y-23724
X-5258Y-24282
X-6401Y-25717
X4382Y-17882
X5283Y-20079
X5245Y-20904
X-6896Y13094
X4585Y13475
X-14491Y-787
X14075Y-30525
X13017Y-30531
X-14874Y-30911
X-13830Y-30912
X-6401Y7836
X-7087Y-17526
X7112Y-17666
X5258Y-18529
X3442Y-21666
X5855Y-21654
X7607Y-20892
X6591Y-22327
X6947Y-23228
X6286Y-23863
X6401Y-24955
X7125Y-24359
X5664Y-25908
X3696Y-27470
X4737Y-27711
X4839Y-26708
X5385Y-28397
X-8052Y-26162
X-7353Y-28283
X-6147Y-27038
X-5194Y-28664
X-1892Y-43294
X-2172Y-41402
X-1930Y-39815
X2121Y-43294
X2210Y-41593
X2045Y-39738
X1054Y-37948
X1727Y-37224
X2134Y-36297
X3010Y-36043
X3607Y-35268
X3594Y-34290
X3594Y-33287
X3531Y-32309
X4343Y-31826
X4534Y-33033
X5321Y-31648
X5474Y-30531
X5448Y-29489
X6693Y-29731
X-1105Y-29604
X-2083Y-29985
X-3226Y-30124
X-3937Y-29451
X-3899Y-28499
X-3861Y-27483
X-4255Y-30632
X-5347Y-32220
X-3543Y-33592
X-546Y-30404
X-1664Y-32639
X-673Y-32207
X-635Y-33388
X-1664Y-34061
X-635Y-34493
X-635Y-35763
X-1499Y-36081
X-2007Y-35154
X-1829Y-37922
X-3467Y-37605
X-5194Y-37694
X-1714Y-36944
X-2908Y-36309
X-4445Y-36424
X-6617Y-39268
X-7912Y-38354
X-6579Y-37846
X2959Y-37884
X4051Y-36779
X4928Y-35484
X4890Y-37605
X5588Y-36627
X7607Y-39027
X6375Y-37732
X7442Y-37846
X6667Y-34976
X6604Y-25908
X7607Y-27559
X8077Y-29921
X7214Y-32283
X10325Y-32245
X9055Y-27673
X0Y-28410
T3
X0Y-18377
X0Y-19736
X-8179Y-41986
X-7544Y-41364
X7379Y-42329
X6807Y-41758
X2565Y-1499
X-7175Y-3226
X-7175Y-2375
X14846Y914
X-5588Y-19926
X5905Y-26886
X-5575Y-17945
X-5601Y-18987
X-5461Y-20853
X-5423Y-21768
X-5220Y-22657
X-4623Y-23343
X-4026Y-23927
X-3619Y-25603
X-3683Y-24727
X-3835Y-26530
X-6464Y-29731
X-8827Y-21958
X-8128Y-24968
X-9970Y-25273
X-11836Y-27343
X-12903Y-29642
X-12281Y-32525
X-10668Y-30239
X-9601Y-27407
X-8827Y-30035
X-7836Y-32436
X-9601Y-33680
X-6464Y-33617
X-7671Y-39637
X-9271Y-40792
X-8954Y-37592
X-7417Y-36436
X8026Y-40970
X9449Y-40970
X6528Y-39357
X8827Y-37198
X9906Y-34354
X12598Y-32817
X10185Y-29769
X11519Y-26937
X12522Y-29362
X9601Y-25362
X1765Y-17856
X2591Y-17856
X3467Y-17856
X-2235Y-19583
X-2286Y-17983
X-5398Y-16408
X-4788Y-15113
X-5524Y-14300
X-6172Y-10884
X-6972Y-9322
X-5994Y-8928
X-6756Y-7239
X-5651Y-6579
X-5499Y-7556
X-4382Y-8890
X-3213Y-8839
X-2159Y-8928
X-2184Y-10135
X-4712Y-12395
X-3912Y-12090
X-4013Y-13132
X-1753Y-12827
X-2934Y-12802
X-3150Y-13843
X-2159Y-13818
X-1168Y-13843
X-711Y-12763
X-851Y-11252
X-1054Y-8966
X127Y-8966
X1130Y-8992
X2286Y-10211
X2438Y-9106
X3543Y-9309
X3480Y-10452
X343Y-12890
X-152Y-13818
X838Y-13843
X1816Y-13843
X2096Y-12763
X2769Y-13818
X3607Y-14465
X4559Y-14795
X6071Y-17501
X5588Y-16726
X5639Y-15697
X5436Y-14795
X4394Y-6058
X5372Y-6363
X1422Y-9843
X5182Y-8496
X6071Y-8395
X-10960Y-1486
X4559Y-12852
X4534Y-11900
X4496Y-10947
X4534Y-9995
X4496Y-9004
X5994Y-13729
X5296Y-7417
X5512Y-9423
X5994Y-11100
X6883Y-12573
X-4686Y6286
X-3454Y6198
X-4140Y4547
X-3658Y3035
X-3619Y1359
X-3492Y76
X-2591Y1626
X-2629Y3810
X-2286Y6172
X1664Y6032
X1626Y4483
X1587Y2261
X-1334Y-1003
X-2235Y-1981
X-775Y-1930
X2591Y114
X1626Y927
X2921Y1448
X-5715Y-15265
X-6223Y-16091
X-6172Y-17170
X6096Y-7417
X6960Y-7429
X-9169Y-39434
X-6540Y-41097
X-6617Y-42215
X-6248Y-43536
X6845Y-40551
X4940Y-19304
X4064Y-18669
X5194Y-17678
M30